<?xml version="1.0" encoding="UTF-8" standalone="no"?>
<!DOCTYPE svg PUBLIC "-//W3C//DTD SVG 1.1//EN"
 "http://www.w3.org/Graphics/SVG/1.1/DTD/svg11.dtd">
<!-- Generated by graphviz version 2.50.0 (0)
 -->
<!-- Title: G Pages: 1 -->
<svg width="1913pt" height="1724pt"
 viewBox="0.00 0.00 1913.35 1724.10" xmlns="http://www.w3.org/2000/svg" xmlns:xlink="http://www.w3.org/1999/xlink">
<g id="graph0" class="graph" transform="scale(1 1) rotate(0) translate(4 1720.1)">
<title>G</title>
<polygon fill="white" stroke="transparent" points="-4,4 -4,-1720.1 1909.35,-1720.1 1909.35,4 -4,4"/>
<!-- ALEXANDER_POPE -->
<g id="node1" class="node">
<title>ALEXANDER_POPE</title>
<polygon fill="none" stroke="black" points="76,-876.65 0,-876.65 0,-838.65 76,-838.65 76,-876.65"/>
<text text-anchor="start" x="8" y="-861.45" font-family="Times,serif" font-size="14.00"> Alexander</text>
<text text-anchor="start" x="22.5" y="-846.45" font-family="Times,serif" font-size="14.00">Pope </text>
</g>
<!-- BARTON_BOOTH -->
<g id="node2" class="node">
<title>BARTON_BOOTH</title>
<polygon fill="none" stroke="black" points="228.63,-810.22 171.63,-810.22 171.63,-772.22 228.63,-772.22 228.63,-810.22"/>
<text text-anchor="start" x="179.63" y="-795.02" font-family="Times,serif" font-size="14.00"> Barton</text>
<text text-anchor="start" x="181.63" y="-780.02" font-family="Times,serif" font-size="14.00">Booth </text>
</g>
<!-- CAIUS_GABRIEL_CIBBER -->
<g id="node3" class="node">
<title>CAIUS_GABRIEL_CIBBER</title>
<polygon fill="none" stroke="black" points="272.25,-664.48 177.25,-664.48 177.25,-626.48 272.25,-626.48 272.25,-664.48"/>
<text text-anchor="start" x="185.25" y="-649.28" font-family="Times,serif" font-size="14.00"> Caius Gabriel</text>
<text text-anchor="start" x="204.25" y="-634.28" font-family="Times,serif" font-size="14.00">Cibber </text>
</g>
<!-- CAMILLO_QUERNO -->
<g id="node4" class="node">
<title>CAMILLO_QUERNO</title>
<polygon fill="none" stroke="black" points="308.72,-521.68 243.72,-521.68 243.72,-483.68 308.72,-483.68 308.72,-521.68"/>
<text text-anchor="start" x="251.72" y="-506.48" font-family="Times,serif" font-size="14.00"> Camillo</text>
<text text-anchor="start" x="253.72" y="-491.48" font-family="Times,serif" font-size="14.00">Querno </text>
</g>
<!-- CARDELL_GOODMAN -->
<g id="node5" class="node">
<title>CARDELL_GOODMAN</title>
<polygon fill="none" stroke="black" points="383.53,-399.08 309.53,-399.08 309.53,-361.08 383.53,-361.08 383.53,-399.08"/>
<text text-anchor="start" x="324.53" y="-383.88" font-family="Times,serif" font-size="14.00"> Cardell</text>
<text text-anchor="start" x="317.53" y="-368.88" font-family="Times,serif" font-size="14.00">Goodman </text>
</g>
<!-- CHARLES_FLEETWOOD -->
<g id="node6" class="node">
<title>CHARLES_FLEETWOOD</title>
<polygon fill="none" stroke="black" points="479.12,-285.73 402.12,-285.73 402.12,-247.73 479.12,-247.73 479.12,-285.73"/>
<text text-anchor="start" x="417.62" y="-270.53" font-family="Times,serif" font-size="14.00"> Charles</text>
<text text-anchor="start" x="410.12" y="-255.53" font-family="Times,serif" font-size="14.00">Fleetwood </text>
</g>
<!-- COLLEY_CIBBER -->
<g id="node7" class="node">
<title>COLLEY_CIBBER</title>
<polygon fill="none" stroke="black" points="1065.7,-876.65 1008.7,-876.65 1008.7,-838.65 1065.7,-838.65 1065.7,-876.65"/>
<text text-anchor="start" x="1017.2" y="-861.45" font-family="Times,serif" font-size="14.00"> Colley</text>
<text text-anchor="start" x="1016.7" y="-846.45" font-family="Times,serif" font-size="14.00">Cibber </text>
</g>
<!-- COLLEY_CIBBER&#45;&gt;ALEXANDER_POPE -->
<g id="edge1" class="edge">
<title>COLLEY_CIBBER&#45;&gt;ALEXANDER_POPE</title>
<path fill="none" stroke="green" d="M1008.64,-855.2C869.55,-849.7 262.65,-849.48 86.25,-854.54"/>
<polygon fill="green" stroke="green" points="86.11,-851.04 76.23,-854.85 86.33,-858.04 86.11,-851.04"/>
</g>
<!-- COLLEY_CIBBER&#45;&gt;ALEXANDER_POPE -->
<g id="edge2" class="edge">
<title>COLLEY_CIBBER&#45;&gt;ALEXANDER_POPE</title>
<path fill="none" stroke="red" d="M1008.64,-860.1C869.55,-865.61 262.65,-865.82 86.25,-860.76"/>
<polygon fill="red" stroke="red" points="86.33,-857.26 76.23,-860.45 86.11,-864.26 86.33,-857.26"/>
</g>
<!-- COLLEY_CIBBER&#45;&gt;BARTON_BOOTH -->
<g id="edge3" class="edge">
<title>COLLEY_CIBBER&#45;&gt;BARTON_BOOTH</title>
<path fill="none" stroke="green" d="M1008.39,-855.36C882.74,-845.39 382.63,-805.7 238.93,-794.3"/>
<polygon fill="green" stroke="green" points="239.07,-790.8 228.82,-793.5 238.52,-797.78 239.07,-790.8"/>
</g>
<!-- COLLEY_CIBBER&#45;&gt;CAIUS_GABRIEL_CIBBER -->
<g id="edge4" class="edge">
<title>COLLEY_CIBBER&#45;&gt;CAIUS_GABRIEL_CIBBER</title>
<path fill="none" stroke="green" d="M1008.29,-850.1C890.18,-819.26 443.03,-702.48 282.53,-660.57"/>
<polygon fill="green" stroke="green" points="282.94,-657.06 272.38,-657.92 281.17,-663.83 282.94,-657.06"/>
</g>
<!-- COLLEY_CIBBER&#45;&gt;CAMILLO_QUERNO -->
<g id="edge5" class="edge">
<title>COLLEY_CIBBER&#45;&gt;CAMILLO_QUERNO</title>
<path fill="none" stroke="green" d="M1008.3,-844.17C891.78,-789.82 456.17,-586.62 318.32,-522.32"/>
<polygon fill="green" stroke="green" points="319.46,-518.99 308.92,-517.93 316.51,-525.33 319.46,-518.99"/>
</g>
<!-- COLLEY_CIBBER&#45;&gt;CARDELL_GOODMAN -->
<g id="edge6" class="edge">
<title>COLLEY_CIBBER&#45;&gt;CARDELL_GOODMAN</title>
<path fill="none" stroke="green" d="M1009.7,-838.64C901.41,-763.75 504.37,-489.22 382.41,-404.89"/>
<polygon fill="green" stroke="green" points="384.33,-401.96 374.11,-399.15 380.35,-407.71 384.33,-401.96"/>
</g>
<!-- COLLEY_CIBBER&#45;&gt;CHARLES_FLEETWOOD -->
<g id="edge7" class="edge">
<title>COLLEY_CIBBER&#45;&gt;CHARLES_FLEETWOOD</title>
<path fill="none" stroke="green" d="M1017.69,-838.33C929.62,-751.09 569.01,-393.9 467.39,-293.24"/>
<polygon fill="green" stroke="green" points="469.55,-290.46 459.98,-285.91 464.62,-295.43 469.55,-290.46"/>
</g>
<!-- DULNESS -->
<g id="node8" class="node">
<title>DULNESS</title>
<polygon fill="none" stroke="black" points="584.62,-191.3 516.62,-191.3 516.62,-155.3 584.62,-155.3 584.62,-191.3"/>
<text text-anchor="start" x="524.62" y="-169.6" font-family="Times,serif" font-size="14.00"> Dulness </text>
</g>
<!-- COLLEY_CIBBER&#45;&gt;DULNESS -->
<g id="edge8" class="edge">
<title>COLLEY_CIBBER&#45;&gt;DULNESS</title>
<path fill="none" stroke="green" d="M1023.68,-838.63C955.46,-742.69 649.19,-311.94 569.58,-199.97"/>
<polygon fill="green" stroke="green" points="572.27,-197.71 563.62,-191.58 566.56,-201.76 572.27,-197.71"/>
</g>
<!-- EDMUND_CURLL -->
<g id="node9" class="node">
<title>EDMUND_CURLL</title>
<polygon fill="none" stroke="black" points="703.99,-121.26 636.99,-121.26 636.99,-83.26 703.99,-83.26 703.99,-121.26"/>
<text text-anchor="start" x="644.99" y="-106.06" font-family="Times,serif" font-size="14.00"> Edmund</text>
<text text-anchor="start" x="654.49" y="-91.06" font-family="Times,serif" font-size="14.00">Curll </text>
</g>
<!-- COLLEY_CIBBER&#45;&gt;EDMUND_CURLL -->
<g id="edge9" class="edge">
<title>COLLEY_CIBBER&#45;&gt;EDMUND_CURLL</title>
<path fill="none" stroke="green" d="M1027.95,-838.6C978.37,-736.45 744,-253.69 684.34,-130.78"/>
<polygon fill="green" stroke="green" points="687.4,-129.07 679.88,-121.6 681.1,-132.13 687.4,-129.07"/>
</g>
<!-- ELKANAH_SETTLE -->
<g id="node10" class="node">
<title>ELKANAH_SETTLE</title>
<polygon fill="none" stroke="black" points="831.52,-71.44 766.52,-71.44 766.52,-33.44 831.52,-33.44 831.52,-71.44"/>
<text text-anchor="start" x="774.52" y="-56.24" font-family="Times,serif" font-size="14.00"> Elkanah</text>
<text text-anchor="start" x="781.52" y="-41.24" font-family="Times,serif" font-size="14.00">Settle </text>
</g>
<!-- COLLEY_CIBBER&#45;&gt;ELKANAH_SETTLE -->
<g id="edge10" class="edge">
<title>COLLEY_CIBBER&#45;&gt;ELKANAH_SETTLE</title>
<path fill="none" stroke="green" d="M1031.55,-838.54C1000,-731.88 845.72,-210.31 807.56,-81.33"/>
<polygon fill="green" stroke="green" points="810.92,-80.32 804.72,-71.73 804.2,-82.31 810.92,-80.32"/>
</g>
<!-- FRANCIS_ATTERBURY -->
<g id="node11" class="node">
<title>FRANCIS_ATTERBURY</title>
<polygon fill="none" stroke="black" points="973.44,-42.96 900.44,-42.96 900.44,-4.96 973.44,-4.96 973.44,-42.96"/>
<text text-anchor="start" x="914.94" y="-27.76" font-family="Times,serif" font-size="14.00"> Francis</text>
<text text-anchor="start" x="908.44" y="-12.76" font-family="Times,serif" font-size="14.00">Atterbury </text>
</g>
<!-- COLLEY_CIBBER&#45;&gt;FRANCIS_ATTERBURY -->
<g id="edge11" class="edge">
<title>COLLEY_CIBBER&#45;&gt;FRANCIS_ATTERBURY</title>
<path fill="none" stroke="orange" d="M1034.87,-838.27C1021.69,-728.65 956.49,-186.48 940.49,-53.46"/>
<polygon fill="orange" stroke="orange" points="943.93,-52.74 939.26,-43.23 936.98,-53.58 943.93,-52.74"/>
</g>
<!-- GEORGE_ETHEREGE -->
<g id="node12" class="node">
<title>GEORGE_ETHEREGE</title>
<polygon fill="none" stroke="black" points="1113.18,-38 1045.18,-38 1045.18,0 1113.18,0 1113.18,-38"/>
<text text-anchor="start" x="1057.18" y="-22.8" font-family="Times,serif" font-size="14.00"> George</text>
<text text-anchor="start" x="1053.18" y="-7.8" font-family="Times,serif" font-size="14.00">Etherege </text>
</g>
<!-- COLLEY_CIBBER&#45;&gt;GEORGE_ETHEREGE -->
<g id="edge12" class="edge">
<title>COLLEY_CIBBER&#45;&gt;GEORGE_ETHEREGE</title>
<path fill="none" stroke="green" d="M1038.16,-838.56C1043.64,-729.12 1071.04,-181.63 1077.72,-48.31"/>
<polygon fill="green" stroke="green" points="1081.23,-48.22 1078.23,-38.06 1074.23,-47.87 1081.23,-48.22"/>
</g>
<!-- GEORGE_I -->
<g id="node13" class="node">
<title>GEORGE_I</title>
<polygon fill="none" stroke="black" points="1243.87,-55.75 1183.87,-55.75 1183.87,-17.75 1243.87,-17.75 1243.87,-55.75"/>
<text text-anchor="start" x="1191.87" y="-40.55" font-family="Times,serif" font-size="14.00"> George</text>
<text text-anchor="start" x="1209.37" y="-25.55" font-family="Times,serif" font-size="14.00">I </text>
</g>
<!-- COLLEY_CIBBER&#45;&gt;GEORGE_I -->
<g id="edge13" class="edge">
<title>COLLEY_CIBBER&#45;&gt;GEORGE_I</title>
<path fill="none" stroke="green" d="M1041.31,-838.57C1064.51,-730.74 1179.18,-197.93 1207.53,-66.22"/>
<polygon fill="green" stroke="green" points="1211.03,-66.6 1209.71,-56.09 1204.18,-65.13 1211.03,-66.6"/>
</g>
<!-- GEORGE_II -->
<g id="node14" class="node">
<title>GEORGE_II</title>
<polygon fill="none" stroke="black" points="1370.21,-93.53 1310.21,-93.53 1310.21,-55.53 1370.21,-55.53 1370.21,-93.53"/>
<text text-anchor="start" x="1318.21" y="-78.33" font-family="Times,serif" font-size="14.00"> George</text>
<text text-anchor="start" x="1333.71" y="-63.33" font-family="Times,serif" font-size="14.00">II </text>
</g>
<!-- COLLEY_CIBBER&#45;&gt;GEORGE_II -->
<g id="edge14" class="edge">
<title>COLLEY_CIBBER&#45;&gt;GEORGE_II</title>
<path fill="none" stroke="green" d="M1044.69,-838.29C1085.46,-732.92 1280.62,-228.54 1329.22,-102.91"/>
<polygon fill="green" stroke="green" points="1332.5,-104.15 1332.84,-93.56 1325.97,-101.62 1332.5,-104.15"/>
</g>
<!-- HENRY_JANSSEN -->
<g id="node15" class="node">
<title>HENRY_JANSSEN</title>
<polygon fill="none" stroke="black" points="1490.94,-151.12 1428.94,-151.12 1428.94,-113.12 1490.94,-113.12 1490.94,-151.12"/>
<text text-anchor="start" x="1440.94" y="-135.92" font-family="Times,serif" font-size="14.00"> Henry</text>
<text text-anchor="start" x="1436.94" y="-120.92" font-family="Times,serif" font-size="14.00">Janssen </text>
</g>
<!-- COLLEY_CIBBER&#45;&gt;HENRY_JANSSEN -->
<g id="edge15" class="edge">
<title>COLLEY_CIBBER&#45;&gt;HENRY_JANSSEN</title>
<path fill="none" stroke="green" d="M1048.29,-838.62C1106.26,-739.14 1374.36,-278.99 1443.59,-160.18"/>
<polygon fill="green" stroke="green" points="1446.76,-161.69 1448.77,-151.29 1440.71,-158.17 1446.76,-161.69"/>
</g>
<!-- ISAAC_NEWTON -->
<g id="node16" class="node">
<title>ISAAC_NEWTON</title>
<polygon fill="none" stroke="black" points="1601.74,-227.83 1538.74,-227.83 1538.74,-189.83 1601.74,-189.83 1601.74,-227.83"/>
<text text-anchor="start" x="1554.24" y="-212.63" font-family="Times,serif" font-size="14.00"> Isaac</text>
<text text-anchor="start" x="1546.74" y="-197.63" font-family="Times,serif" font-size="14.00">Newton </text>
</g>
<!-- COLLEY_CIBBER&#45;&gt;ISAAC_NEWTON -->
<g id="edge16" class="edge">
<title>COLLEY_CIBBER&#45;&gt;ISAAC_NEWTON</title>
<path fill="none" stroke="orange" d="M1052.87,-838.58C1128.87,-746.07 1459.2,-343.99 1548.13,-235.75"/>
<polygon fill="orange" stroke="orange" points="1550.93,-237.85 1554.58,-227.9 1545.52,-233.4 1550.93,-237.85"/>
</g>
<!-- ISSAC_BARROW -->
<g id="node17" class="node">
<title>ISSAC_BARROW</title>
<polygon fill="none" stroke="black" points="1697.07,-320.78 1636.07,-320.78 1636.07,-282.78 1697.07,-282.78 1697.07,-320.78"/>
<text text-anchor="start" x="1651.07" y="-305.58" font-family="Times,serif" font-size="14.00"> Issac</text>
<text text-anchor="start" x="1644.07" y="-290.58" font-family="Times,serif" font-size="14.00">Barrow </text>
</g>
<!-- COLLEY_CIBBER&#45;&gt;ISSAC_BARROW -->
<g id="edge17" class="edge">
<title>COLLEY_CIBBER&#45;&gt;ISSAC_BARROW</title>
<path fill="none" stroke="orange" d="M1058.87,-838.52C1153.34,-755.08 1529.35,-422.97 1637.4,-327.54"/>
<polygon fill="orange" stroke="orange" points="1639.82,-330.07 1644.99,-320.83 1635.18,-324.83 1639.82,-330.07"/>
</g>
<!-- JOHN_BANKS -->
<g id="node18" class="node">
<title>JOHN_BANKS</title>
<polygon fill="none" stroke="black" points="1771.49,-424.05 1717.49,-424.05 1717.49,-386.05 1771.49,-386.05 1771.49,-424.05"/>
<text text-anchor="start" x="1729.49" y="-408.85" font-family="Times,serif" font-size="14.00"> John</text>
<text text-anchor="start" x="1725.49" y="-393.85" font-family="Times,serif" font-size="14.00">Banks </text>
</g>
<!-- COLLEY_CIBBER&#45;&gt;JOHN_BANKS -->
<g id="edge18" class="edge">
<title>COLLEY_CIBBER&#45;&gt;JOHN_BANKS</title>
<path fill="none" stroke="green" d="M1065.8,-839.35C1177.62,-767.79 1585.12,-507.03 1708.71,-427.94"/>
<polygon fill="green" stroke="green" points="1710.91,-430.69 1717.45,-422.35 1707.14,-424.8 1710.91,-430.69"/>
</g>
<!-- JOHN_DENNIS -->
<g id="node19" class="node">
<title>JOHN_DENNIS</title>
<polygon fill="none" stroke="black" points="1834.71,-537.16 1775.71,-537.16 1775.71,-499.16 1834.71,-499.16 1834.71,-537.16"/>
<text text-anchor="start" x="1790.21" y="-521.96" font-family="Times,serif" font-size="14.00"> John</text>
<text text-anchor="start" x="1783.71" y="-506.96" font-family="Times,serif" font-size="14.00">Dennis </text>
</g>
<!-- COLLEY_CIBBER&#45;&gt;JOHN_DENNIS -->
<g id="edge19" class="edge">
<title>COLLEY_CIBBER&#45;&gt;JOHN_DENNIS</title>
<path fill="none" stroke="green" d="M1065.91,-844.96C1183.85,-792.83 1631.27,-595.04 1766.36,-535.33"/>
<polygon fill="green" stroke="green" points="1767.81,-538.52 1775.54,-531.27 1764.98,-532.11 1767.81,-538.52"/>
</g>
<!-- JOHN_DRYDEN -->
<g id="node20" class="node">
<title>JOHN_DRYDEN</title>
<polygon fill="none" stroke="black" points="1879.39,-661.58 1818.39,-661.58 1818.39,-623.58 1879.39,-623.58 1879.39,-661.58"/>
<text text-anchor="start" x="1833.89" y="-646.38" font-family="Times,serif" font-size="14.00"> John</text>
<text text-anchor="start" x="1826.39" y="-631.38" font-family="Times,serif" font-size="14.00">Dryden </text>
</g>
<!-- COLLEY_CIBBER&#45;&gt;JOHN_DRYDEN -->
<g id="edge20" class="edge">
<title>COLLEY_CIBBER&#45;&gt;JOHN_DRYDEN</title>
<path fill="none" stroke="red" d="M1065.83,-852.83C1188.05,-825.89 1666.32,-699.33 1808.7,-656.51"/>
<polygon fill="red" stroke="red" points="1809.81,-659.83 1818.36,-653.57 1807.77,-653.13 1809.81,-659.83"/>
</g>
<!-- COLLEY_CIBBER&#45;&gt;JOHN_DRYDEN -->
<g id="edge21" class="edge">
<title>COLLEY_CIBBER&#45;&gt;JOHN_DRYDEN</title>
<path fill="none" stroke="orange" d="M1065.87,-847.23C1187.92,-809.49 1664.49,-683.07 1807.87,-650.19"/>
<polygon fill="orange" stroke="orange" points="1809.01,-653.52 1818,-647.9 1807.47,-646.69 1809.01,-653.52"/>
</g>
<!-- JOHN_FLETCHER -->
<g id="node21" class="node">
<title>JOHN_FLETCHER</title>
<polygon fill="none" stroke="black" points="1905.35,-794.28 1840.35,-794.28 1840.35,-756.28 1905.35,-756.28 1905.35,-794.28"/>
<text text-anchor="start" x="1857.85" y="-779.08" font-family="Times,serif" font-size="14.00"> John</text>
<text text-anchor="start" x="1848.35" y="-764.08" font-family="Times,serif" font-size="14.00">Fletcher </text>
</g>
<!-- COLLEY_CIBBER&#45;&gt;JOHN_FLETCHER -->
<g id="edge22" class="edge">
<title>COLLEY_CIBBER&#45;&gt;JOHN_FLETCHER</title>
<path fill="none" stroke="green" d="M1065.97,-854.82C1190.27,-842.56 1681.65,-794.13 1830.14,-779.49"/>
<polygon fill="green" stroke="green" points="1830.62,-782.96 1840.22,-778.5 1829.93,-776 1830.62,-782.96"/>
</g>
<!-- JOHN_GARTH -->
<g id="node22" class="node">
<title>JOHN_GARTH</title>
<polygon fill="none" stroke="black" points="1902.47,-925.62 1848.47,-925.62 1848.47,-887.62 1902.47,-887.62 1902.47,-925.62"/>
<text text-anchor="start" x="1860.47" y="-910.42" font-family="Times,serif" font-size="14.00"> John</text>
<text text-anchor="start" x="1857.97" y="-895.42" font-family="Times,serif" font-size="14.00">Garth </text>
</g>
<!-- COLLEY_CIBBER&#45;&gt;JOHN_GARTH -->
<g id="edge23" class="edge">
<title>COLLEY_CIBBER&#45;&gt;JOHN_GARTH</title>
<path fill="none" stroke="orange" d="M1066.06,-859.34C1192.32,-866.71 1696.18,-896.15 1838.1,-904.44"/>
<polygon fill="orange" stroke="orange" points="1838.25,-907.95 1848.44,-905.04 1838.66,-900.97 1838.25,-907.95"/>
</g>
<!-- JOHN_HERVEY -->
<g id="node23" class="node">
<title>JOHN_HERVEY</title>
<polygon fill="none" stroke="black" points="1888.11,-1053.32 1828.11,-1053.32 1828.11,-1015.32 1888.11,-1015.32 1888.11,-1053.32"/>
<text text-anchor="start" x="1843.11" y="-1038.12" font-family="Times,serif" font-size="14.00"> John</text>
<text text-anchor="start" x="1836.11" y="-1023.12" font-family="Times,serif" font-size="14.00">Hervey </text>
</g>
<!-- COLLEY_CIBBER&#45;&gt;JOHN_HERVEY -->
<g id="edge24" class="edge">
<title>COLLEY_CIBBER&#45;&gt;JOHN_HERVEY</title>
<path fill="none" stroke="green" d="M1065.94,-863.84C1189.27,-890.38 1674.04,-994.71 1817.75,-1025.64"/>
<polygon fill="green" stroke="green" points="1817.37,-1029.13 1827.89,-1027.82 1818.85,-1022.29 1817.37,-1029.13"/>
</g>
<!-- JOHN_LOCKE -->
<g id="node24" class="node">
<title>JOHN_LOCKE</title>
<polygon fill="none" stroke="black" points="1848.4,-1176.86 1794.4,-1176.86 1794.4,-1138.86 1848.4,-1138.86 1848.4,-1176.86"/>
<text text-anchor="start" x="1806.4" y="-1161.66" font-family="Times,serif" font-size="14.00"> John</text>
<text text-anchor="start" x="1802.4" y="-1146.66" font-family="Times,serif" font-size="14.00">Locke </text>
</g>
<!-- COLLEY_CIBBER&#45;&gt;JOHN_LOCKE -->
<g id="edge25" class="edge">
<title>COLLEY_CIBBER&#45;&gt;JOHN_LOCKE</title>
<path fill="none" stroke="orange" d="M1066.04,-868.69C1186.68,-914.87 1650.79,-1092.54 1784.91,-1143.89"/>
<polygon fill="orange" stroke="orange" points="1783.76,-1147.19 1794.35,-1147.5 1786.26,-1140.66 1783.76,-1147.19"/>
</g>
<!-- JOHN_OZELL -->
<g id="node25" class="node">
<title>JOHN_OZELL</title>
<polygon fill="none" stroke="black" points="1794.71,-1290.72 1740.71,-1290.72 1740.71,-1252.72 1794.71,-1252.72 1794.71,-1290.72"/>
<text text-anchor="start" x="1752.71" y="-1275.52" font-family="Times,serif" font-size="14.00"> John</text>
<text text-anchor="start" x="1750.71" y="-1260.52" font-family="Times,serif" font-size="14.00">Ozell </text>
</g>
<!-- COLLEY_CIBBER&#45;&gt;JOHN_OZELL -->
<g id="edge26" class="edge">
<title>COLLEY_CIBBER&#45;&gt;JOHN_OZELL</title>
<path fill="none" stroke="green" d="M1065.84,-873.88C1180.23,-938.72 1604.34,-1179.12 1731.47,-1251.17"/>
<polygon fill="green" stroke="green" points="1730.02,-1254.37 1740.45,-1256.26 1733.47,-1248.28 1730.02,-1254.37"/>
</g>
<!-- JOSEPH_ADDISON -->
<g id="node26" class="node">
<title>JOSEPH_ADDISON</title>
<polygon fill="none" stroke="black" points="1726.88,-1399.97 1660.88,-1399.97 1660.88,-1361.97 1726.88,-1361.97 1726.88,-1399.97"/>
<text text-anchor="start" x="1673.38" y="-1384.77" font-family="Times,serif" font-size="14.00"> Joseph</text>
<text text-anchor="start" x="1668.88" y="-1369.77" font-family="Times,serif" font-size="14.00">Addison </text>
</g>
<!-- COLLEY_CIBBER&#45;&gt;JOSEPH_ADDISON -->
<g id="edge27" class="edge">
<title>COLLEY_CIBBER&#45;&gt;JOSEPH_ADDISON</title>
<path fill="none" stroke="orange" d="M1061.35,-876.9C1161.92,-957.04 1547.54,-1264.35 1661.8,-1355.41"/>
<polygon fill="orange" stroke="orange" points="1659.86,-1358.33 1669.86,-1361.83 1664.22,-1352.86 1659.86,-1358.33"/>
</g>
<!-- LAURENCE_EUSDEN -->
<g id="node27" class="node">
<title>LAURENCE_EUSDEN</title>
<polygon fill="none" stroke="black" points="1633.06,-1502.03 1562.06,-1502.03 1562.06,-1464.03 1633.06,-1464.03 1633.06,-1502.03"/>
<text text-anchor="start" x="1570.06" y="-1486.83" font-family="Times,serif" font-size="14.00"> Laurence</text>
<text text-anchor="start" x="1575.56" y="-1471.83" font-family="Times,serif" font-size="14.00">Eusden </text>
</g>
<!-- COLLEY_CIBBER&#45;&gt;LAURENCE_EUSDEN -->
<g id="edge28" class="edge">
<title>COLLEY_CIBBER&#45;&gt;LAURENCE_EUSDEN</title>
<path fill="none" stroke="green" d="M1054.28,-876.71C1135.08,-966.89 1479.02,-1350.74 1573.48,-1456.15"/>
<polygon fill="green" stroke="green" points="1571.06,-1458.7 1580.34,-1463.81 1576.27,-1454.03 1571.06,-1458.7"/>
</g>
<!-- LEWIS_THEOBALD -->
<g id="node28" class="node">
<title>LEWIS_THEOBALD</title>
<polygon fill="none" stroke="black" points="1518.97,-1587.95 1447.97,-1587.95 1447.97,-1549.95 1518.97,-1549.95 1518.97,-1587.95"/>
<text text-anchor="start" x="1464.97" y="-1572.75" font-family="Times,serif" font-size="14.00"> Lewis</text>
<text text-anchor="start" x="1455.97" y="-1557.75" font-family="Times,serif" font-size="14.00">Theobald </text>
</g>
<!-- COLLEY_CIBBER&#45;&gt;LEWIS_THEOBALD -->
<g id="edge29" class="edge">
<title>COLLEY_CIBBER&#45;&gt;LEWIS_THEOBALD</title>
<path fill="none" stroke="green" d="M1049.14,-876.68C1110.75,-974.87 1392.69,-1424.27 1466,-1541.12"/>
<polygon fill="green" stroke="green" points="1463.21,-1543.26 1471.49,-1549.87 1469.14,-1539.54 1463.21,-1543.26"/>
</g>
<!-- LORD_BISHOP_OF_LONDON -->
<g id="node29" class="node">
<title>LORD_BISHOP_OF_LONDON</title>
<polygon fill="none" stroke="black" points="1392.62,-1656.67 1303.62,-1656.67 1303.62,-1618.67 1392.62,-1618.67 1392.62,-1656.67"/>
<text text-anchor="start" x="1311.62" y="-1641.47" font-family="Times,serif" font-size="14.00"> Lord Bishop</text>
<text text-anchor="start" x="1317.62" y="-1626.47" font-family="Times,serif" font-size="14.00">of London </text>
</g>
<!-- COLLEY_CIBBER&#45;&gt;LORD_BISHOP_OF_LONDON -->
<g id="edge30" class="edge">
<title>COLLEY_CIBBER&#45;&gt;LORD_BISHOP_OF_LONDON</title>
<path fill="none" stroke="green" d="M1044.89,-876.93C1086.68,-981.78 1286.54,-1483.17 1336.68,-1608.98"/>
<polygon fill="green" stroke="green" points="1333.47,-1610.37 1340.42,-1618.36 1339.97,-1607.78 1333.47,-1610.37"/>
</g>
<!-- MARTINUS_SCRIBLERUS -->
<g id="node30" class="node">
<title>MARTINUS_SCRIBLERUS</title>
<polygon fill="none" stroke="black" points="1238.15,-1700.29 1163.15,-1700.29 1163.15,-1662.29 1238.15,-1662.29 1238.15,-1700.29"/>
<text text-anchor="start" x="1173.65" y="-1685.09" font-family="Times,serif" font-size="14.00"> Martinus</text>
<text text-anchor="start" x="1171.15" y="-1670.09" font-family="Times,serif" font-size="14.00">Scriblerus </text>
</g>
<!-- COLLEY_CIBBER&#45;&gt;MARTINUS_SCRIBLERUS -->
<g id="edge31" class="edge">
<title>COLLEY_CIBBER&#45;&gt;MARTINUS_SCRIBLERUS</title>
<path fill="none" stroke="green" d="M1041,-876.8C1062.49,-985.1 1168.79,-1520.73 1194.87,-1652.14"/>
<polygon fill="green" stroke="green" points="1191.49,-1653.12 1196.87,-1662.25 1198.36,-1651.76 1191.49,-1653.12"/>
</g>
<!-- MATTHEW_PRIOR -->
<g id="node31" class="node">
<title>MATTHEW_PRIOR</title>
<polygon fill="none" stroke="black" points="1092.2,-1716.1 1023.2,-1716.1 1023.2,-1678.1 1092.2,-1678.1 1092.2,-1716.1"/>
<text text-anchor="start" x="1031.2" y="-1700.9" font-family="Times,serif" font-size="14.00"> Matthew</text>
<text text-anchor="start" x="1042.2" y="-1685.9" font-family="Times,serif" font-size="14.00">Prior </text>
</g>
<!-- COLLEY_CIBBER&#45;&gt;MATTHEW_PRIOR -->
<g id="edge32" class="edge">
<title>COLLEY_CIBBER&#45;&gt;MATTHEW_PRIOR</title>
<path fill="none" stroke="red" d="M1037.67,-876.76C1040.34,-986.31 1053.72,-1534.32 1056.98,-1667.77"/>
<polygon fill="red" stroke="red" points="1053.49,-1668.11 1057.23,-1678.02 1060.49,-1667.94 1053.49,-1668.11"/>
</g>
<!-- PHILIP_DORMER_STANHOPE -->
<g id="node32" class="node">
<title>PHILIP_DORMER_STANHOPE</title>
<polygon fill="none" stroke="black" points="951.79,-1705.44 852.79,-1705.44 852.79,-1667.44 951.79,-1667.44 951.79,-1705.44"/>
<text text-anchor="start" x="860.79" y="-1690.24" font-family="Times,serif" font-size="14.00"> Philip Dormer</text>
<text text-anchor="start" x="874.79" y="-1675.24" font-family="Times,serif" font-size="14.00">Stanhope </text>
</g>
<!-- COLLEY_CIBBER&#45;&gt;PHILIP_DORMER_STANHOPE -->
<g id="edge33" class="edge">
<title>COLLEY_CIBBER&#45;&gt;PHILIP_DORMER_STANHOPE</title>
<path fill="none" stroke="green" d="M1031.78,-876.96C1008.09,-986.05 920.21,-1525.05 904.33,-1657.17"/>
<polygon fill="green" stroke="green" points="900.83,-1657 903.17,-1667.33 907.79,-1657.79 900.83,-1657"/>
</g>
<!-- COLLEY_CIBBER&#45;&gt;PHILIP_DORMER_STANHOPE -->
<g id="edge34" class="edge">
<title>COLLEY_CIBBER&#45;&gt;PHILIP_DORMER_STANHOPE</title>
<path fill="none" stroke="red" d="M1036.31,-876.87C1024.54,-985.74 936.98,-1524.71 909.83,-1657.06"/>
<polygon fill="red" stroke="red" points="906.33,-1656.73 907.69,-1667.24 913.18,-1658.17 906.33,-1656.73"/>
</g>
<!-- RICHARD_BENTLEY -->
<g id="node33" class="node">
<title>RICHARD_BENTLEY</title>
<polygon fill="none" stroke="black" points="785.84,-1667.28 722.84,-1667.28 722.84,-1629.28 785.84,-1629.28 785.84,-1667.28"/>
<text text-anchor="start" x="730.84" y="-1652.08" font-family="Times,serif" font-size="14.00"> Richard</text>
<text text-anchor="start" x="731.34" y="-1637.08" font-family="Times,serif" font-size="14.00">Bentley </text>
</g>
<!-- COLLEY_CIBBER&#45;&gt;RICHARD_BENTLEY -->
<g id="edge35" class="edge">
<title>COLLEY_CIBBER&#45;&gt;RICHARD_BENTLEY</title>
<path fill="none" stroke="green" d="M1030.35,-876.8C992.6,-982.31 810.09,-1492.47 764.62,-1619.56"/>
<polygon fill="green" stroke="green" points="761.31,-1618.43 761.23,-1629.02 767.9,-1620.79 761.31,-1618.43"/>
</g>
<!-- ROBERT_WALPOLE -->
<g id="node34" class="node">
<title>ROBERT_WALPOLE</title>
<polygon fill="none" stroke="black" points="663.12,-1611.08 597.12,-1611.08 597.12,-1573.08 663.12,-1573.08 663.12,-1611.08"/>
<text text-anchor="start" x="609.62" y="-1595.88" font-family="Times,serif" font-size="14.00"> Robert</text>
<text text-anchor="start" x="605.12" y="-1580.88" font-family="Times,serif" font-size="14.00">Walpole </text>
</g>
<!-- COLLEY_CIBBER&#45;&gt;ROBERT_WALPOLE -->
<g id="edge36" class="edge">
<title>COLLEY_CIBBER&#45;&gt;ROBERT_WALPOLE</title>
<path fill="none" stroke="green" d="M1026.52,-876.92C970.64,-977.73 711.96,-1444.43 645.64,-1564.07"/>
<polygon fill="green" stroke="green" points="642.47,-1562.57 640.68,-1573.01 648.59,-1565.96 642.47,-1562.57"/>
</g>
<!-- STEPHEN_DUCK -->
<g id="node35" class="node">
<title>STEPHEN_DUCK</title>
<polygon fill="none" stroke="black" points="548.23,-1535.2 484.23,-1535.2 484.23,-1497.2 548.23,-1497.2 548.23,-1535.2"/>
<text text-anchor="start" x="492.23" y="-1520" font-family="Times,serif" font-size="14.00"> Stephen</text>
<text text-anchor="start" x="499.23" y="-1505" font-family="Times,serif" font-size="14.00">Duck </text>
</g>
<!-- COLLEY_CIBBER&#45;&gt;STEPHEN_DUCK -->
<g id="edge37" class="edge">
<title>COLLEY_CIBBER&#45;&gt;STEPHEN_DUCK</title>
<path fill="none" stroke="green" d="M1021.89,-877C947.52,-971.01 624.04,-1379.92 537.56,-1489.24"/>
<polygon fill="green" stroke="green" points="534.75,-1487.15 531.29,-1497.16 540.24,-1491.49 534.75,-1487.15"/>
</g>
<!-- THOMAS_ARCHER -->
<g id="node36" class="node">
<title>THOMAS_ARCHER</title>
<polygon fill="none" stroke="black" points="448.85,-1442.57 384.85,-1442.57 384.85,-1404.57 448.85,-1404.57 448.85,-1442.57"/>
<text text-anchor="start" x="392.85" y="-1427.37" font-family="Times,serif" font-size="14.00"> Thomas</text>
<text text-anchor="start" x="395.85" y="-1412.37" font-family="Times,serif" font-size="14.00">Archer </text>
</g>
<!-- COLLEY_CIBBER&#45;&gt;THOMAS_ARCHER -->
<g id="edge38" class="edge">
<title>COLLEY_CIBBER&#45;&gt;THOMAS_ARCHER</title>
<path fill="none" stroke="green" d="M1016.21,-876.8C923.6,-961.29 551.55,-1300.69 445.31,-1397.61"/>
<polygon fill="green" stroke="green" points="442.87,-1395.1 437.84,-1404.42 447.59,-1400.27 442.87,-1395.1"/>
</g>
<!-- THOMAS_COOKE -->
<g id="node37" class="node">
<title>THOMAS_COOKE</title>
<polygon fill="none" stroke="black" points="365.71,-1335.13 301.71,-1335.13 301.71,-1297.13 365.71,-1297.13 365.71,-1335.13"/>
<text text-anchor="start" x="309.71" y="-1319.93" font-family="Times,serif" font-size="14.00"> Thomas</text>
<text text-anchor="start" x="313.71" y="-1304.93" font-family="Times,serif" font-size="14.00">Cooke </text>
</g>
<!-- COLLEY_CIBBER&#45;&gt;THOMAS_COOKE -->
<g id="edge39" class="edge">
<title>COLLEY_CIBBER&#45;&gt;THOMAS_COOKE</title>
<path fill="none" stroke="green" d="M1008.31,-876.48C897.22,-948.88 497.46,-1209.41 371.8,-1291.31"/>
<polygon fill="green" stroke="green" points="369.7,-1288.5 363.23,-1296.89 373.52,-1294.36 369.7,-1288.5"/>
</g>
<!-- WILLIAM_BROOME -->
<g id="node38" class="node">
<title>WILLIAM_BROOME</title>
<polygon fill="none" stroke="black" points="301.29,-1215.23 236.29,-1215.23 236.29,-1177.23 301.29,-1177.23 301.29,-1215.23"/>
<text text-anchor="start" x="244.29" y="-1200.03" font-family="Times,serif" font-size="14.00"> William</text>
<text text-anchor="start" x="244.29" y="-1185.03" font-family="Times,serif" font-size="14.00">Broome </text>
</g>
<!-- COLLEY_CIBBER&#45;&gt;WILLIAM_BROOME -->
<g id="edge40" class="edge">
<title>COLLEY_CIBBER&#45;&gt;WILLIAM_BROOME</title>
<path fill="none" stroke="green" d="M1008.48,-870.31C891.41,-921.89 449.86,-1116.45 310.92,-1177.67"/>
<polygon fill="green" stroke="green" points="309.18,-1174.61 301.44,-1181.84 312.01,-1181.01 309.18,-1174.61"/>
</g>
<!-- WILLIAM_CONGREVE -->
<g id="node39" class="node">
<title>WILLIAM_CONGREVE</title>
<polygon fill="none" stroke="black" points="259.51,-1082.05 186.51,-1082.05 186.51,-1044.05 259.51,-1044.05 259.51,-1082.05"/>
<text text-anchor="start" x="198.51" y="-1066.85" font-family="Times,serif" font-size="14.00"> William</text>
<text text-anchor="start" x="194.51" y="-1051.85" font-family="Times,serif" font-size="14.00">Congreve </text>
</g>
<!-- COLLEY_CIBBER&#45;&gt;WILLIAM_CONGREVE -->
<g id="edge41" class="edge">
<title>COLLEY_CIBBER&#45;&gt;WILLIAM_CONGREVE</title>
<path fill="none" stroke="orange" d="M1008.7,-864.84C888.19,-895.24 419.78,-1013.41 269.61,-1051.29"/>
<polygon fill="orange" stroke="orange" points="268.62,-1047.93 259.78,-1053.77 270.33,-1054.72 268.62,-1047.93"/>
</g>
<!-- WILLIAM_TEMPLE -->
<g id="node40" class="node">
<title>WILLIAM_TEMPLE</title>
<polygon fill="none" stroke="black" points="232.63,-943.08 167.63,-943.08 167.63,-905.08 232.63,-905.08 232.63,-943.08"/>
<text text-anchor="start" x="175.63" y="-927.88" font-family="Times,serif" font-size="14.00"> William</text>
<text text-anchor="start" x="177.13" y="-912.88" font-family="Times,serif" font-size="14.00">Temple </text>
</g>
<!-- COLLEY_CIBBER&#45;&gt;WILLIAM_TEMPLE -->
<g id="edge42" class="edge">
<title>COLLEY_CIBBER&#45;&gt;WILLIAM_TEMPLE</title>
<path fill="none" stroke="green" d="M1008.39,-859.94C883.88,-869.82 391.66,-908.88 242.92,-920.69"/>
<polygon fill="green" stroke="green" points="242.51,-917.21 232.82,-921.49 243.06,-924.19 242.51,-917.21"/>
</g>
</g>
</svg>
