<?xml version="1.0" encoding="UTF-8" standalone="no"?>
<!DOCTYPE svg PUBLIC "-//W3C//DTD SVG 1.1//EN"
 "http://www.w3.org/Graphics/SVG/1.1/DTD/svg11.dtd">
<!-- Generated by graphviz version 2.50.0 (0)
 -->
<!-- Title: G Pages: 1 -->
<svg width="1972pt" height="1774pt"
 viewBox="0.00 0.00 1972.25 1774.23" xmlns="http://www.w3.org/2000/svg" xmlns:xlink="http://www.w3.org/1999/xlink">
<g id="graph0" class="graph" transform="scale(1 1) rotate(0) translate(4 1770.23)">
<title>G</title>
<polygon fill="white" stroke="transparent" points="-4,4 -4,-1770.23 1968.25,-1770.23 1968.25,4 -4,4"/>
<!-- ALEXANDER_POPE -->
<g id="node1" class="node">
<title>ALEXANDER_POPE</title>
<polygon fill="none" stroke="black" points="80,-901.66 0,-901.66 0,-863.66 80,-863.66 80,-901.66"/>
<text text-anchor="start" x="8" y="-886.46" font-family="arial" font-size="14.00"> Alexander</text>
<text text-anchor="start" x="22" y="-871.46" font-family="arial" font-size="14.00">Pope </text>
</g>
<!-- BARTON_BOOTH -->
<g id="node2" class="node">
<title>BARTON_BOOTH</title>
<polygon fill="none" stroke="black" points="236.11,-834.48 176.11,-834.48 176.11,-796.48 236.11,-796.48 236.11,-834.48"/>
<text text-anchor="start" x="184.11" y="-819.28" font-family="arial" font-size="14.00"> Barton</text>
<text text-anchor="start" x="186.11" y="-804.28" font-family="arial" font-size="14.00">Booth </text>
</g>
<!-- CAIUS_GABRIEL_CIBBER -->
<g id="node3" class="node">
<title>CAIUS_GABRIEL_CIBBER</title>
<polygon fill="none" stroke="black" points="283.02,-683.3 180.02,-683.3 180.02,-645.3 283.02,-645.3 283.02,-683.3"/>
<text text-anchor="start" x="188.02" y="-668.1" font-family="arial" font-size="14.00"> Caius Gabriel</text>
<text text-anchor="start" x="209.52" y="-653.1" font-family="arial" font-size="14.00">Cibber </text>
</g>
<!-- CAMILLO_QUERNO -->
<g id="node4" class="node">
<title>CAMILLO_QUERNO</title>
<polygon fill="none" stroke="black" points="317.48,-536.26 251.48,-536.26 251.48,-498.26 317.48,-498.26 317.48,-536.26"/>
<text text-anchor="start" x="259.48" y="-521.06" font-family="arial" font-size="14.00"> Camillo</text>
<text text-anchor="start" x="259.48" y="-506.06" font-family="arial" font-size="14.00">Querno </text>
</g>
<!-- CARDELL_GOODMAN -->
<g id="node5" class="node">
<title>CARDELL_GOODMAN</title>
<polygon fill="none" stroke="black" points="397.23,-410.17 316.23,-410.17 316.23,-372.17 397.23,-372.17 397.23,-410.17"/>
<text text-anchor="start" x="333.23" y="-394.97" font-family="arial" font-size="14.00"> Cardell</text>
<text text-anchor="start" x="324.23" y="-379.97" font-family="arial" font-size="14.00">Goodman </text>
</g>
<!-- CHARLES_FLEETWOOD -->
<g id="node6" class="node">
<title>CHARLES_FLEETWOOD</title>
<polygon fill="none" stroke="black" points="496.54,-291.89 413.54,-291.89 413.54,-253.89 496.54,-253.89 496.54,-291.89"/>
<text text-anchor="start" x="429.54" y="-276.69" font-family="arial" font-size="14.00"> Charles</text>
<text text-anchor="start" x="421.54" y="-261.69" font-family="arial" font-size="14.00">Fleetwood </text>
</g>
<!-- COLLEY_CIBBER -->
<g id="node7" class="node">
<title>COLLEY_CIBBER</title>
<polygon fill="none" stroke="black" points="1098.35,-901.66 1038.35,-901.66 1038.35,-863.66 1098.35,-863.66 1098.35,-901.66"/>
<text text-anchor="start" x="1047.35" y="-886.46" font-family="arial" font-size="14.00"> Colley</text>
<text text-anchor="start" x="1046.35" y="-871.46" font-family="arial" font-size="14.00">Cibber </text>
</g>
<!-- COLLEY_CIBBER&#45;&gt;ALEXANDER_POPE -->
<g id="edge1" class="edge">
<title>COLLEY_CIBBER&#45;&gt;ALEXANDER_POPE</title>
<path fill="none" stroke="green" d="M1038.13,-880.18C893.55,-874.71 271.98,-874.5 90.15,-879.54"/>
<polygon fill="green" stroke="green" points="89.96,-876.04 80.06,-879.84 90.16,-883.04 89.96,-876.04"/>
</g>
<!-- COLLEY_CIBBER&#45;&gt;ALEXANDER_POPE -->
<g id="edge2" class="edge">
<title>COLLEY_CIBBER&#45;&gt;ALEXANDER_POPE</title>
<path fill="none" stroke="red" d="M1038.13,-885.15C893.55,-890.61 271.98,-890.83 90.15,-885.79"/>
<polygon fill="red" stroke="red" points="90.16,-882.29 80.06,-885.49 89.96,-889.29 90.16,-882.29"/>
</g>
<!-- COLLEY_CIBBER&#45;&gt;BARTON_BOOTH -->
<g id="edge3" class="edge">
<title>COLLEY_CIBBER&#45;&gt;BARTON_BOOTH</title>
<path fill="none" stroke="green" d="M1038.17,-880.31C908.05,-870.17 394.99,-830.2 246.54,-818.63"/>
<polygon fill="green" stroke="green" points="246.74,-815.14 236.5,-817.85 246.19,-822.12 246.74,-815.14"/>
</g>
<!-- COLLEY_CIBBER&#45;&gt;CAIUS_GABRIEL_CIBBER -->
<g id="edge4" class="edge">
<title>COLLEY_CIBBER&#45;&gt;CAIUS_GABRIEL_CIBBER</title>
<path fill="none" stroke="green" d="M1038.07,-874.76C916.17,-842.96 459.91,-723.9 293.09,-680.37"/>
<polygon fill="green" stroke="green" points="293.8,-676.94 283.24,-677.8 292.03,-683.71 293.8,-676.94"/>
</g>
<!-- COLLEY_CIBBER&#45;&gt;CAMILLO_QUERNO -->
<g id="edge5" class="edge">
<title>COLLEY_CIBBER&#45;&gt;CAMILLO_QUERNO</title>
<path fill="none" stroke="green" d="M1038.1,-868.56C917.08,-812.15 467.55,-602.6 326.86,-537.02"/>
<polygon fill="green" stroke="green" points="328.2,-533.78 317.66,-532.73 325.24,-540.13 328.2,-533.78"/>
</g>
<!-- COLLEY_CIBBER&#45;&gt;CARDELL_GOODMAN -->
<g id="edge6" class="edge">
<title>COLLEY_CIBBER&#45;&gt;CARDELL_GOODMAN</title>
<path fill="none" stroke="green" d="M1040.45,-863.4C929.28,-786.62 517.84,-502.44 392.93,-416.17"/>
<polygon fill="green" stroke="green" points="394.65,-413.11 384.44,-410.3 390.68,-418.87 394.65,-413.11"/>
</g>
<!-- COLLEY_CIBBER&#45;&gt;CHARLES_FLEETWOOD -->
<g id="edge7" class="edge">
<title>COLLEY_CIBBER&#45;&gt;CHARLES_FLEETWOOD</title>
<path fill="none" stroke="green" d="M1048.98,-863.41C959.39,-774.34 585.16,-402.27 481.67,-299.37"/>
<polygon fill="green" stroke="green" points="483.97,-296.72 474.42,-292.16 479.04,-301.69 483.97,-296.72"/>
</g>
<!-- DULNESS -->
<g id="node8" class="node">
<title>DULNESS</title>
<polygon fill="none" stroke="black" points="605.97,-194.2 532.97,-194.2 532.97,-158.2 605.97,-158.2 605.97,-194.2"/>
<text text-anchor="start" x="540.97" y="-172.5" font-family="arial" font-size="14.00"> Dulness </text>
</g>
<!-- COLLEY_CIBBER&#45;&gt;DULNESS -->
<g id="edge8" class="edge">
<title>COLLEY_CIBBER&#45;&gt;DULNESS</title>
<path fill="none" stroke="green" d="M1054.75,-863.4C985.12,-764.8 668.73,-316.76 588.18,-202.69"/>
<polygon fill="green" stroke="green" points="591,-200.62 582.37,-194.47 585.28,-204.65 591,-200.62"/>
</g>
<!-- EDMUND_CURLL -->
<g id="node9" class="node">
<title>EDMUND_CURLL</title>
<polygon fill="none" stroke="black" points="728.96,-122.29 657.96,-122.29 657.96,-84.29 728.96,-84.29 728.96,-122.29"/>
<text text-anchor="start" x="665.96" y="-107.09" font-family="arial" font-size="14.00"> Edmund</text>
<text text-anchor="start" x="677.46" y="-92.09" font-family="arial" font-size="14.00">Curll </text>
</g>
<!-- COLLEY_CIBBER&#45;&gt;EDMUND_CURLL -->
<g id="edge9" class="edge">
<title>COLLEY_CIBBER&#45;&gt;EDMUND_CURLL</title>
<path fill="none" stroke="green" d="M1059.08,-863.4C1008.69,-758.64 767.71,-257.66 707.25,-131.95"/>
<polygon fill="green" stroke="green" points="710.23,-130.08 702.74,-122.58 703.92,-133.11 710.23,-130.08"/>
</g>
<!-- ELKANAH_SETTLE -->
<g id="node10" class="node">
<title>ELKANAH_SETTLE</title>
<polygon fill="none" stroke="black" points="860.39,-71.5 791.39,-71.5 791.39,-33.5 860.39,-33.5 860.39,-71.5"/>
<text text-anchor="start" x="799.39" y="-56.3" font-family="arial" font-size="14.00"> Elkanah</text>
<text text-anchor="start" x="806.39" y="-41.3" font-family="arial" font-size="14.00">Settle </text>
</g>
<!-- COLLEY_CIBBER&#45;&gt;ELKANAH_SETTLE -->
<g id="edge10" class="edge">
<title>COLLEY_CIBBER&#45;&gt;ELKANAH_SETTLE</title>
<path fill="none" stroke="green" d="M1062.71,-863.37C1030.8,-754.1 872.84,-213.24 834.36,-81.48"/>
<polygon fill="green" stroke="green" points="837.66,-80.31 831.5,-71.69 830.94,-82.27 837.66,-80.31"/>
</g>
<!-- FRANCIS_ATTERBURY -->
<g id="node11" class="node">
<title>FRANCIS_ATTERBURY</title>
<polygon fill="none" stroke="black" points="1004.33,-42.8 929.33,-42.8 929.33,-4.8 1004.33,-4.8 1004.33,-42.8"/>
<text text-anchor="start" x="942.33" y="-27.6" font-family="arial" font-size="14.00"> Francis</text>
<text text-anchor="start" x="937.33" y="-12.6" font-family="arial" font-size="14.00">Atterbury </text>
</g>
<!-- COLLEY_CIBBER&#45;&gt;FRANCIS_ATTERBURY -->
<g id="edge11" class="edge">
<title>COLLEY_CIBBER&#45;&gt;FRANCIS_ATTERBURY</title>
<path fill="none" stroke="orange" d="M1066.09,-863.52C1052.93,-752.19 986.28,-188.33 970.29,-53.02"/>
<polygon fill="orange" stroke="orange" points="973.75,-52.5 969.1,-42.98 966.8,-53.33 973.75,-52.5"/>
</g>
<!-- GEORGE_ETHEREGE -->
<g id="node12" class="node">
<title>GEORGE_ETHEREGE</title>
<polygon fill="none" stroke="black" points="1151.08,-38 1076.08,-38 1076.08,0 1151.08,0 1151.08,-38"/>
<text text-anchor="start" x="1088.58" y="-22.8" font-family="arial" font-size="14.00"> George</text>
<text text-anchor="start" x="1084.08" y="-7.8" font-family="arial" font-size="14.00">Etherege </text>
</g>
<!-- COLLEY_CIBBER&#45;&gt;GEORGE_ETHEREGE -->
<g id="edge12" class="edge">
<title>COLLEY_CIBBER&#45;&gt;GEORGE_ETHEREGE</title>
<path fill="none" stroke="green" d="M1069.36,-863.41C1075.22,-751.46 1104.91,-184.46 1112.04,-48.39"/>
<polygon fill="green" stroke="green" points="1115.54,-48.47 1112.57,-38.3 1108.55,-48.1 1115.54,-48.47"/>
</g>
<!-- GEORGE_I -->
<g id="node13" class="node">
<title>GEORGE_I</title>
<polygon fill="none" stroke="black" points="1287.63,-57.12 1221.63,-57.12 1221.63,-19.12 1287.63,-19.12 1287.63,-57.12"/>
<text text-anchor="start" x="1229.63" y="-41.92" font-family="arial" font-size="14.00"> George</text>
<text text-anchor="start" x="1250.63" y="-26.92" font-family="arial" font-size="14.00">I </text>
</g>
<!-- COLLEY_CIBBER&#45;&gt;GEORGE_I -->
<g id="edge13" class="edge">
<title>COLLEY_CIBBER&#45;&gt;GEORGE_I</title>
<path fill="none" stroke="green" d="M1072.59,-863.44C1096.92,-753.11 1218.75,-200.78 1248.21,-67.22"/>
<polygon fill="green" stroke="green" points="1251.66,-67.83 1250.39,-57.31 1244.82,-66.32 1251.66,-67.83"/>
</g>
<!-- GEORGE_II -->
<g id="node14" class="node">
<title>GEORGE_II</title>
<polygon fill="none" stroke="black" points="1419.45,-97.44 1353.45,-97.44 1353.45,-59.44 1419.45,-59.44 1419.45,-97.44"/>
<text text-anchor="start" x="1361.45" y="-82.24" font-family="arial" font-size="14.00"> George</text>
<text text-anchor="start" x="1380.45" y="-67.24" font-family="arial" font-size="14.00">II </text>
</g>
<!-- COLLEY_CIBBER&#45;&gt;GEORGE_II -->
<g id="edge14" class="edge">
<title>COLLEY_CIBBER&#45;&gt;GEORGE_II</title>
<path fill="none" stroke="green" d="M1075.9,-863.58C1118.04,-757.05 1324.08,-236.12 1375.04,-107.29"/>
<polygon fill="green" stroke="green" points="1378.41,-108.29 1378.83,-97.71 1371.9,-105.72 1378.41,-108.29"/>
</g>
<!-- HENRY_JANSSEN -->
<g id="node15" class="node">
<title>HENRY_JANSSEN</title>
<polygon fill="none" stroke="black" points="1547.84,-159.48 1476.84,-159.48 1476.84,-121.48 1547.84,-121.48 1547.84,-159.48"/>
<text text-anchor="start" x="1492.34" y="-144.28" font-family="arial" font-size="14.00"> Henry</text>
<text text-anchor="start" x="1484.84" y="-129.28" font-family="arial" font-size="14.00">Janssen </text>
</g>
<!-- COLLEY_CIBBER&#45;&gt;HENRY_JANSSEN -->
<g id="edge15" class="edge">
<title>COLLEY_CIBBER&#45;&gt;HENRY_JANSSEN</title>
<path fill="none" stroke="green" d="M1079.77,-863.57C1140.29,-762.41 1423.46,-289.05 1495.59,-168.48"/>
<polygon fill="green" stroke="green" points="1498.66,-170.17 1500.79,-159.79 1492.65,-166.57 1498.66,-170.17"/>
</g>
<!-- ISAAC_NEWTON -->
<g id="node16" class="node">
<title>ISAAC_NEWTON</title>
<polygon fill="none" stroke="black" points="1659.54,-241.07 1593.54,-241.07 1593.54,-203.07 1659.54,-203.07 1659.54,-241.07"/>
<text text-anchor="start" x="1608.04" y="-225.87" font-family="arial" font-size="14.00"> Isaac</text>
<text text-anchor="start" x="1601.54" y="-210.87" font-family="arial" font-size="14.00">Newton </text>
</g>
<!-- COLLEY_CIBBER&#45;&gt;ISAAC_NEWTON -->
<g id="edge16" class="edge">
<title>COLLEY_CIBBER&#45;&gt;ISAAC_NEWTON</title>
<path fill="none" stroke="orange" d="M1084.45,-863.61C1163.54,-770 1510.79,-359.05 1603.64,-249.17"/>
<polygon fill="orange" stroke="orange" points="1606.59,-251.1 1610.37,-241.2 1601.24,-246.58 1606.59,-251.1"/>
</g>
<!-- ISSAC_BARROW -->
<g id="node17" class="node">
<title>ISSAC_BARROW</title>
<polygon fill="none" stroke="black" points="1754.93,-337.01 1691.93,-337.01 1691.93,-299.01 1754.93,-299.01 1754.93,-337.01"/>
<text text-anchor="start" x="1705.43" y="-321.81" font-family="arial" font-size="14.00"> Issac</text>
<text text-anchor="start" x="1699.93" y="-306.81" font-family="arial" font-size="14.00">Barrow </text>
</g>
<!-- COLLEY_CIBBER&#45;&gt;ISSAC_BARROW -->
<g id="edge17" class="edge">
<title>COLLEY_CIBBER&#45;&gt;ISSAC_BARROW</title>
<path fill="none" stroke="orange" d="M1090.52,-863.55C1188.31,-779.26 1581.19,-440.62 1693.38,-343.92"/>
<polygon fill="orange" stroke="orange" points="1695.97,-346.3 1701.26,-337.12 1691.4,-341 1695.97,-346.3"/>
</g>
<!-- JOHN_BANKS -->
<g id="node18" class="node">
<title>JOHN_BANKS</title>
<polygon fill="none" stroke="black" points="1830.92,-443.6 1772.92,-443.6 1772.92,-405.6 1830.92,-405.6 1830.92,-443.6"/>
<text text-anchor="start" x="1784.92" y="-428.4" font-family="arial" font-size="14.00"> John</text>
<text text-anchor="start" x="1780.92" y="-413.4" font-family="arial" font-size="14.00">Banks </text>
</g>
<!-- COLLEY_CIBBER&#45;&gt;JOHN_BANKS -->
<g id="edge18" class="edge">
<title>COLLEY_CIBBER&#45;&gt;JOHN_BANKS</title>
<path fill="none" stroke="green" d="M1098.47,-863.85C1214.85,-791.19 1634.97,-528.85 1763.98,-448.29"/>
<polygon fill="green" stroke="green" points="1766.13,-451.08 1772.76,-442.81 1762.42,-445.14 1766.13,-451.08"/>
</g>
<!-- JOHN_DENNIS -->
<g id="node19" class="node">
<title>JOHN_DENNIS</title>
<polygon fill="none" stroke="black" points="1894.04,-560.45 1832.04,-560.45 1832.04,-522.45 1894.04,-522.45 1894.04,-560.45"/>
<text text-anchor="start" x="1846.04" y="-545.25" font-family="arial" font-size="14.00"> John</text>
<text text-anchor="start" x="1840.04" y="-530.25" font-family="arial" font-size="14.00">Dennis </text>
</g>
<!-- COLLEY_CIBBER&#45;&gt;JOHN_DENNIS -->
<g id="edge19" class="edge">
<title>COLLEY_CIBBER&#45;&gt;JOHN_DENNIS</title>
<path fill="none" stroke="green" d="M1098.53,-869.71C1221.18,-817.04 1682.39,-619.02 1822.45,-558.88"/>
<polygon fill="green" stroke="green" points="1824.16,-561.95 1831.97,-554.79 1821.4,-555.52 1824.16,-561.95"/>
</g>
<!-- JOHN_DRYDEN -->
<g id="node20" class="node">
<title>JOHN_DRYDEN</title>
<polygon fill="none" stroke="black" points="1938.42,-688.15 1874.42,-688.15 1874.42,-650.15 1938.42,-650.15 1938.42,-688.15"/>
<text text-anchor="start" x="1889.42" y="-672.95" font-family="arial" font-size="14.00"> John</text>
<text text-anchor="start" x="1882.42" y="-657.95" font-family="arial" font-size="14.00">Dryden </text>
</g>
<!-- COLLEY_CIBBER&#45;&gt;JOHN_DRYDEN -->
<g id="edge20" class="edge">
<title>COLLEY_CIBBER&#45;&gt;JOHN_DRYDEN</title>
<path fill="none" stroke="red" d="M1098.35,-877.8C1225.1,-850.91 1716.93,-725.78 1864.4,-683.14"/>
<polygon fill="red" stroke="red" points="1865.4,-686.5 1874.01,-680.34 1863.43,-679.78 1865.4,-686.5"/>
</g>
<!-- COLLEY_CIBBER&#45;&gt;JOHN_DRYDEN -->
<g id="edge21" class="edge">
<title>COLLEY_CIBBER&#45;&gt;JOHN_DRYDEN</title>
<path fill="none" stroke="orange" d="M1098.49,-872.14C1225.4,-834.45 1716.44,-709.21 1864.16,-676.67"/>
<polygon fill="orange" stroke="orange" points="1865.16,-680.03 1874.19,-674.49 1863.67,-673.19 1865.16,-680.03"/>
</g>
<!-- JOHN_FLETCHER -->
<g id="node21" class="node">
<title>JOHN_FLETCHER</title>
<polygon fill="none" stroke="black" points="1964.25,-824.52 1895.25,-824.52 1895.25,-786.52 1964.25,-786.52 1964.25,-824.52"/>
<text text-anchor="start" x="1912.75" y="-809.32" font-family="arial" font-size="14.00"> John</text>
<text text-anchor="start" x="1903.25" y="-794.32" font-family="arial" font-size="14.00">Fletcher </text>
</g>
<!-- COLLEY_CIBBER&#45;&gt;JOHN_FLETCHER -->
<g id="edge22" class="edge">
<title>COLLEY_CIBBER&#45;&gt;JOHN_FLETCHER</title>
<path fill="none" stroke="green" d="M1098.5,-879.96C1227.31,-868.43 1731.79,-823.25 1885.23,-809.5"/>
<polygon fill="green" stroke="green" points="1885.59,-812.99 1895.24,-808.61 1884.97,-806.01 1885.59,-812.99"/>
</g>
<!-- JOHN_GARTH -->
<g id="node22" class="node">
<title>JOHN_GARTH</title>
<polygon fill="none" stroke="black" points="1958.83,-958.37 1903.83,-958.37 1903.83,-920.37 1958.83,-920.37 1958.83,-958.37"/>
<text text-anchor="start" x="1914.33" y="-943.17" font-family="arial" font-size="14.00"> John</text>
<text text-anchor="start" x="1911.83" y="-928.17" font-family="arial" font-size="14.00">Garth </text>
</g>
<!-- COLLEY_CIBBER&#45;&gt;JOHN_GARTH -->
<g id="edge23" class="edge">
<title>COLLEY_CIBBER&#45;&gt;JOHN_GARTH</title>
<path fill="none" stroke="orange" d="M1098.56,-884.65C1229.52,-893.26 1748.17,-927.34 1893.38,-936.88"/>
<polygon fill="orange" stroke="orange" points="1893.35,-940.39 1903.56,-937.55 1893.81,-933.4 1893.35,-940.39"/>
</g>
<!-- JOHN_HERVEY -->
<g id="node23" class="node">
<title>JOHN_HERVEY</title>
<polygon fill="none" stroke="black" points="1944.4,-1087.94 1881.4,-1087.94 1881.4,-1049.94 1944.4,-1049.94 1944.4,-1087.94"/>
<text text-anchor="start" x="1895.9" y="-1072.74" font-family="arial" font-size="14.00"> John</text>
<text text-anchor="start" x="1889.4" y="-1057.74" font-family="arial" font-size="14.00">Hervey </text>
</g>
<!-- COLLEY_CIBBER&#45;&gt;JOHN_HERVEY -->
<g id="edge24" class="edge">
<title>COLLEY_CIBBER&#45;&gt;JOHN_HERVEY</title>
<path fill="none" stroke="green" d="M1098.41,-889.29C1225.96,-917.43 1722.68,-1026.99 1870.91,-1059.68"/>
<polygon fill="green" stroke="green" points="1870.45,-1063.17 1880.97,-1061.9 1871.96,-1056.33 1870.45,-1063.17"/>
</g>
<!-- JOHN_LOCKE -->
<g id="node24" class="node">
<title>JOHN_LOCKE</title>
<polygon fill="none" stroke="black" points="1902.94,-1213.71 1846.94,-1213.71 1846.94,-1175.71 1902.94,-1175.71 1902.94,-1213.71"/>
<text text-anchor="start" x="1857.94" y="-1198.51" font-family="arial" font-size="14.00"> John</text>
<text text-anchor="start" x="1854.94" y="-1183.51" font-family="arial" font-size="14.00">Locke </text>
</g>
<!-- COLLEY_CIBBER&#45;&gt;JOHN_LOCKE -->
<g id="edge25" class="edge">
<title>COLLEY_CIBBER&#45;&gt;JOHN_LOCKE</title>
<path fill="none" stroke="orange" d="M1098.5,-894.33C1223.21,-942.58 1698.75,-1126.55 1837.02,-1180.04"/>
<polygon fill="orange" stroke="orange" points="1836.17,-1183.47 1846.75,-1183.81 1838.69,-1176.94 1836.17,-1183.47"/>
</g>
<!-- JOHN_OZELL -->
<g id="node25" class="node">
<title>JOHN_OZELL</title>
<polygon fill="none" stroke="black" points="1847.6,-1328.37 1793.6,-1328.37 1793.6,-1290.37 1847.6,-1290.37 1847.6,-1328.37"/>
<text text-anchor="start" x="1803.6" y="-1313.17" font-family="arial" font-size="14.00"> John</text>
<text text-anchor="start" x="1802.6" y="-1298.17" font-family="arial" font-size="14.00">Ozell </text>
</g>
<!-- COLLEY_CIBBER&#45;&gt;JOHN_OZELL -->
<g id="edge26" class="edge">
<title>COLLEY_CIBBER&#45;&gt;JOHN_OZELL</title>
<path fill="none" stroke="green" d="M1098.77,-899.92C1218.35,-967.75 1655.89,-1215.95 1784.7,-1289.01"/>
<polygon fill="green" stroke="green" points="1783,-1292.07 1793.43,-1293.96 1786.46,-1285.98 1783,-1292.07"/>
</g>
<!-- JOSEPH_ADDISON -->
<g id="node26" class="node">
<title>JOSEPH_ADDISON</title>
<polygon fill="none" stroke="black" points="1780.55,-1438.96 1711.55,-1438.96 1711.55,-1400.96 1780.55,-1400.96 1780.55,-1438.96"/>
<text text-anchor="start" x="1722.05" y="-1423.76" font-family="arial" font-size="14.00"> Joseph</text>
<text text-anchor="start" x="1719.55" y="-1408.76" font-family="arial" font-size="14.00">Addison </text>
</g>
<!-- COLLEY_CIBBER&#45;&gt;JOSEPH_ADDISON -->
<g id="edge27" class="edge">
<title>COLLEY_CIBBER&#45;&gt;JOSEPH_ADDISON</title>
<path fill="none" stroke="orange" d="M1092.47,-901.79C1195.28,-983.3 1597,-1301.79 1713.94,-1394.51"/>
<polygon fill="orange" stroke="orange" points="1711.85,-1397.32 1721.86,-1400.79 1716.2,-1391.83 1711.85,-1397.32"/>
</g>
<!-- LAURENCE_EUSDEN -->
<g id="node27" class="node">
<title>LAURENCE_EUSDEN</title>
<polygon fill="none" stroke="black" points="1685.38,-1544.52 1608.38,-1544.52 1608.38,-1506.52 1685.38,-1506.52 1685.38,-1544.52"/>
<text text-anchor="start" x="1616.38" y="-1529.32" font-family="arial" font-size="14.00"> Laurence</text>
<text text-anchor="start" x="1621.88" y="-1514.32" font-family="arial" font-size="14.00">Eusden </text>
</g>
<!-- COLLEY_CIBBER&#45;&gt;LAURENCE_EUSDEN -->
<g id="edge28" class="edge">
<title>COLLEY_CIBBER&#45;&gt;LAURENCE_EUSDEN</title>
<path fill="none" stroke="green" d="M1085.66,-901.9C1168.75,-994.23 1526.54,-1391.8 1622.9,-1498.87"/>
<polygon fill="green" stroke="green" points="1620.35,-1501.26 1629.64,-1506.35 1625.55,-1496.58 1620.35,-1501.26"/>
</g>
<!-- LEWIS_THEOBALD -->
<g id="node28" class="node">
<title>LEWIS_THEOBALD</title>
<polygon fill="none" stroke="black" points="1566.61,-1634.18 1489.61,-1634.18 1489.61,-1596.18 1566.61,-1596.18 1566.61,-1634.18"/>
<text text-anchor="start" x="1508.61" y="-1618.98" font-family="arial" font-size="14.00"> Lewis</text>
<text text-anchor="start" x="1497.61" y="-1603.98" font-family="arial" font-size="14.00">Theobald </text>
</g>
<!-- COLLEY_CIBBER&#45;&gt;LEWIS_THEOBALD -->
<g id="edge29" class="edge">
<title>COLLEY_CIBBER&#45;&gt;LEWIS_THEOBALD</title>
<path fill="none" stroke="green" d="M1080.41,-901.88C1143.58,-1002.53 1436.27,-1468.85 1510.8,-1587.6"/>
<polygon fill="green" stroke="green" points="1507.9,-1589.56 1516.18,-1596.16 1513.83,-1585.83 1507.9,-1589.56"/>
</g>
<!-- LORD_BISHOP_OF_LONDON -->
<g id="node29" class="node">
<title>LORD_BISHOP_OF_LONDON</title>
<polygon fill="none" stroke="black" points="1434.77,-1704.96 1342.77,-1704.96 1342.77,-1666.96 1434.77,-1666.96 1434.77,-1704.96"/>
<text text-anchor="start" x="1350.77" y="-1689.76" font-family="arial" font-size="14.00"> Lord Bishop</text>
<text text-anchor="start" x="1356.77" y="-1674.76" font-family="arial" font-size="14.00">of London </text>
</g>
<!-- COLLEY_CIBBER&#45;&gt;LORD_BISHOP_OF_LONDON -->
<g id="edge30" class="edge">
<title>COLLEY_CIBBER&#45;&gt;LORD_BISHOP_OF_LONDON</title>
<path fill="none" stroke="green" d="M1075.95,-901.73C1118.4,-1008.14 1325.95,-1528.47 1377.28,-1657.14"/>
<polygon fill="green" stroke="green" points="1374.14,-1658.73 1381.1,-1666.72 1380.64,-1656.14 1374.14,-1658.73"/>
</g>
<!-- MARTINUS_SCRIBLERUS -->
<g id="node30" class="node">
<title>MARTINUS_SCRIBLERUS</title>
<polygon fill="none" stroke="black" points="1277.5,-1749.81 1197.5,-1749.81 1197.5,-1711.81 1277.5,-1711.81 1277.5,-1749.81"/>
<text text-anchor="start" x="1209" y="-1734.61" font-family="arial" font-size="14.00"> Martinus</text>
<text text-anchor="start" x="1205.5" y="-1719.61" font-family="arial" font-size="14.00">Scriblerus </text>
</g>
<!-- COLLEY_CIBBER&#45;&gt;MARTINUS_SCRIBLERUS -->
<g id="edge31" class="edge">
<title>COLLEY_CIBBER&#45;&gt;MARTINUS_SCRIBLERUS</title>
<path fill="none" stroke="green" d="M1072.2,-901.97C1094.3,-1012.77 1204.92,-1567.45 1231.67,-1701.58"/>
<polygon fill="green" stroke="green" points="1228.27,-1702.41 1233.66,-1711.53 1235.13,-1701.04 1228.27,-1702.41"/>
</g>
<!-- MATTHEW_PRIOR -->
<g id="node31" class="node">
<title>MATTHEW_PRIOR</title>
<polygon fill="none" stroke="black" points="1126.6,-1766.23 1054.6,-1766.23 1054.6,-1728.23 1126.6,-1728.23 1126.6,-1766.23"/>
<text text-anchor="start" x="1062.6" y="-1751.03" font-family="arial" font-size="14.00"> Matthew</text>
<text text-anchor="start" x="1074.1" y="-1736.03" font-family="arial" font-size="14.00">Prior </text>
</g>
<!-- COLLEY_CIBBER&#45;&gt;MATTHEW_PRIOR -->
<g id="edge32" class="edge">
<title>COLLEY_CIBBER&#45;&gt;MATTHEW_PRIOR</title>
<path fill="none" stroke="red" d="M1068.84,-901.93C1071.73,-1014.01 1086.33,-1581.6 1089.84,-1717.81"/>
<polygon fill="red" stroke="red" points="1086.34,-1718 1090.1,-1727.91 1093.34,-1717.82 1086.34,-1718"/>
</g>
<!-- PHILIP_DORMER_STANHOPE -->
<g id="node32" class="node">
<title>PHILIP_DORMER_STANHOPE</title>
<polygon fill="none" stroke="black" points="983.17,-1755.64 880.17,-1755.64 880.17,-1717.64 983.17,-1717.64 983.17,-1755.64"/>
<text text-anchor="start" x="888.17" y="-1740.44" font-family="arial" font-size="14.00"> Philip Dormer</text>
<text text-anchor="start" x="900.67" y="-1725.44" font-family="arial" font-size="14.00">Stanhope </text>
</g>
<!-- COLLEY_CIBBER&#45;&gt;PHILIP_DORMER_STANHOPE -->
<g id="edge33" class="edge">
<title>COLLEY_CIBBER&#45;&gt;PHILIP_DORMER_STANHOPE</title>
<path fill="none" stroke="green" d="M1063.06,-901.76C1039.33,-1012.62 949.45,-1573.28 933.64,-1707.67"/>
<polygon fill="green" stroke="green" points="930.16,-1707.3 932.52,-1717.63 937.12,-1708.08 930.16,-1707.3"/>
</g>
<!-- COLLEY_CIBBER&#45;&gt;PHILIP_DORMER_STANHOPE -->
<g id="edge34" class="edge">
<title>COLLEY_CIBBER&#45;&gt;PHILIP_DORMER_STANHOPE</title>
<path fill="none" stroke="red" d="M1067.46,-902.04C1055.61,-1013.56 966.21,-1573.14 939.04,-1707.57"/>
<polygon fill="red" stroke="red" points="935.57,-1707.04 936.97,-1717.54 942.43,-1708.46 935.57,-1707.04"/>
</g>
<!-- RICHARD_BENTLEY -->
<g id="node33" class="node">
<title>RICHARD_BENTLEY</title>
<polygon fill="none" stroke="black" points="813.24,-1716.94 746.24,-1716.94 746.24,-1678.94 813.24,-1678.94 813.24,-1716.94"/>
<text text-anchor="start" x="754.24" y="-1701.74" font-family="arial" font-size="14.00"> Richard</text>
<text text-anchor="start" x="755.24" y="-1686.74" font-family="arial" font-size="14.00">Bentley </text>
</g>
<!-- COLLEY_CIBBER&#45;&gt;RICHARD_BENTLEY -->
<g id="edge35" class="edge">
<title>COLLEY_CIBBER&#45;&gt;RICHARD_BENTLEY</title>
<path fill="none" stroke="green" d="M1061.5,-902.01C1023.23,-1010.13 835.92,-1539.24 789.95,-1669.11"/>
<polygon fill="green" stroke="green" points="786.57,-1668.17 786.53,-1678.77 793.16,-1670.51 786.57,-1668.17"/>
</g>
<!-- ROBERT_WALPOLE -->
<g id="node34" class="node">
<title>ROBERT_WALPOLE</title>
<polygon fill="none" stroke="black" points="686.62,-1659.76 617.62,-1659.76 617.62,-1621.76 686.62,-1621.76 686.62,-1659.76"/>
<text text-anchor="start" x="629.62" y="-1644.56" font-family="arial" font-size="14.00"> Robert</text>
<text text-anchor="start" x="625.62" y="-1629.56" font-family="arial" font-size="14.00">Walpole </text>
</g>
<!-- COLLEY_CIBBER&#45;&gt;ROBERT_WALPOLE -->
<g id="edge36" class="edge">
<title>COLLEY_CIBBER&#45;&gt;ROBERT_WALPOLE</title>
<path fill="none" stroke="green" d="M1057.85,-901.78C1001.45,-1004.51 734.44,-1490.82 667.41,-1612.91"/>
<polygon fill="green" stroke="green" points="664.33,-1611.25 662.58,-1621.7 670.47,-1614.61 664.33,-1611.25"/>
</g>
<!-- STEPHEN_DUCK -->
<g id="node35" class="node">
<title>STEPHEN_DUCK</title>
<polygon fill="none" stroke="black" points="569.3,-1581.53 498.3,-1581.53 498.3,-1543.53 569.3,-1543.53 569.3,-1581.53"/>
<text text-anchor="start" x="506.3" y="-1566.33" font-family="arial" font-size="14.00"> Stephen</text>
<text text-anchor="start" x="516.3" y="-1551.33" font-family="arial" font-size="14.00">Duck </text>
</g>
<!-- COLLEY_CIBBER&#45;&gt;STEPHEN_DUCK -->
<g id="edge37" class="edge">
<title>COLLEY_CIBBER&#45;&gt;STEPHEN_DUCK</title>
<path fill="none" stroke="green" d="M1053.21,-901.92C977.87,-997.74 643.4,-1423.13 555.19,-1535.33"/>
<polygon fill="green" stroke="green" points="552.23,-1533.42 548.8,-1543.45 557.74,-1537.75 552.23,-1533.42"/>
</g>
<!-- THOMAS_ARCHER -->
<g id="node36" class="node">
<title>THOMAS_ARCHER</title>
<polygon fill="none" stroke="black" points="464.52,-1484.65 394.52,-1484.65 394.52,-1446.65 464.52,-1446.65 464.52,-1484.65"/>
<text text-anchor="start" x="402.52" y="-1469.45" font-family="arial" font-size="14.00"> Thomas</text>
<text text-anchor="start" x="407.52" y="-1454.45" font-family="arial" font-size="14.00">Archer </text>
</g>
<!-- COLLEY_CIBBER&#45;&gt;THOMAS_ARCHER -->
<g id="edge38" class="edge">
<title>COLLEY_CIBBER&#45;&gt;THOMAS_ARCHER</title>
<path fill="none" stroke="green" d="M1047.46,-901.73C953.16,-987.78 567.09,-1340.11 458.22,-1439.46"/>
<polygon fill="green" stroke="green" points="455.61,-1437.11 450.58,-1446.43 460.33,-1442.28 455.61,-1437.11"/>
</g>
<!-- THOMAS_COOKE -->
<g id="node37" class="node">
<title>THOMAS_COOKE</title>
<polygon fill="none" stroke="black" points="377.83,-1372.39 307.83,-1372.39 307.83,-1334.39 377.83,-1334.39 377.83,-1372.39"/>
<text text-anchor="start" x="315.83" y="-1357.19" font-family="arial" font-size="14.00"> Thomas</text>
<text text-anchor="start" x="321.33" y="-1342.19" font-family="arial" font-size="14.00">Cooke </text>
</g>
<!-- COLLEY_CIBBER&#45;&gt;THOMAS_COOKE -->
<g id="edge39" class="edge">
<title>COLLEY_CIBBER&#45;&gt;THOMAS_COOKE</title>
<path fill="none" stroke="green" d="M1039.01,-901.7C924.71,-975.86 509.23,-1245.42 380.87,-1328.7"/>
<polygon fill="green" stroke="green" points="378.62,-1325.99 372.13,-1334.37 382.43,-1331.87 378.62,-1325.99"/>
</g>
<!-- WILLIAM_BROOME -->
<g id="node38" class="node">
<title>WILLIAM_BROOME</title>
<polygon fill="none" stroke="black" points="310.04,-1248.38 242.04,-1248.38 242.04,-1210.38 310.04,-1210.38 310.04,-1248.38"/>
<text text-anchor="start" x="251.54" y="-1233.18" font-family="arial" font-size="14.00"> William</text>
<text text-anchor="start" x="250.04" y="-1218.18" font-family="arial" font-size="14.00">Broome </text>
</g>
<!-- COLLEY_CIBBER&#45;&gt;WILLIAM_BROOME -->
<g id="edge40" class="edge">
<title>COLLEY_CIBBER&#45;&gt;WILLIAM_BROOME</title>
<path fill="none" stroke="green" d="M1038.26,-895.83C916.82,-948.98 462.49,-1147.79 319.45,-1210.39"/>
<polygon fill="green" stroke="green" points="317.85,-1207.27 310.09,-1214.48 320.66,-1213.68 317.85,-1207.27"/>
</g>
<!-- WILLIAM_CONGREVE -->
<g id="node39" class="node">
<title>WILLIAM_CONGREVE</title>
<polygon fill="none" stroke="black" points="268.67,-1110.82 189.67,-1110.82 189.67,-1072.82 268.67,-1072.82 268.67,-1110.82"/>
<text text-anchor="start" x="204.67" y="-1095.62" font-family="arial" font-size="14.00"> William</text>
<text text-anchor="start" x="197.67" y="-1080.62" font-family="arial" font-size="14.00">Congreve </text>
</g>
<!-- COLLEY_CIBBER&#45;&gt;WILLIAM_CONGREVE -->
<g id="edge41" class="edge">
<title>COLLEY_CIBBER&#45;&gt;WILLIAM_CONGREVE</title>
<path fill="none" stroke="orange" d="M1037.99,-890.23C912.62,-921.48 434.59,-1040.62 278.67,-1079.48"/>
<polygon fill="orange" stroke="orange" points="277.73,-1076.11 268.88,-1081.92 279.43,-1082.9 277.73,-1076.11"/>
</g>
<!-- WILLIAM_TEMPLE -->
<g id="node40" class="node">
<title>WILLIAM_TEMPLE</title>
<polygon fill="none" stroke="black" points="238.61,-968.85 173.61,-968.85 173.61,-930.85 238.61,-930.85 238.61,-968.85"/>
<text text-anchor="start" x="181.61" y="-953.65" font-family="arial" font-size="14.00"> William</text>
<text text-anchor="start" x="181.61" y="-938.65" font-family="arial" font-size="14.00">Temple </text>
</g>
<!-- COLLEY_CIBBER&#45;&gt;WILLIAM_TEMPLE -->
<g id="edge42" class="edge">
<title>COLLEY_CIBBER&#45;&gt;WILLIAM_TEMPLE</title>
<path fill="none" stroke="green" d="M1038.17,-885.02C908.78,-895.1 400.71,-934.68 249.07,-946.5"/>
<polygon fill="green" stroke="green" points="248.47,-943.04 238.78,-947.3 249.02,-950.01 248.47,-943.04"/>
</g>
</g>
</svg>
