<?xml version="1.0" encoding="UTF-8" standalone="no"?>
<!DOCTYPE svg PUBLIC "-//W3C//DTD SVG 1.1//EN"
 "http://www.w3.org/Graphics/SVG/1.1/DTD/svg11.dtd">
<!-- Generated by graphviz version 2.50.0 (0)
 -->
<!-- Title: G Pages: 1 -->
<svg width="712pt" height="691pt"
 viewBox="0.00 0.00 711.63 691.16" xmlns="http://www.w3.org/2000/svg" xmlns:xlink="http://www.w3.org/1999/xlink">
<g id="graph0" class="graph" transform="scale(1 1) rotate(0) translate(4 687.16)">
<title>G</title>
<polygon fill="white" stroke="transparent" points="-4,4 -4,-687.16 707.63,-687.16 707.63,4 -4,4"/>
<!-- ALEXANDER_POPE -->
<g id="node1" class="node">
<title>ALEXANDER_POPE</title>
<polygon fill="none" stroke="black" points="282.38,-470.22 206.38,-470.22 206.38,-432.22 282.38,-432.22 282.38,-470.22"/>
<text text-anchor="start" x="214.38" y="-455.02" font-family="Times,serif" font-size="14.00"> Alexander</text>
<text text-anchor="start" x="228.88" y="-440.02" font-family="Times,serif" font-size="14.00">Pope </text>
</g>
<!-- BARTON_BOOTH -->
<g id="node2" class="node">
<title>BARTON_BOOTH</title>
<polygon fill="none" stroke="black" points="93.35,-470.26 36.35,-470.26 36.35,-432.26 93.35,-432.26 93.35,-470.26"/>
<text text-anchor="start" x="44.35" y="-455.06" font-family="Times,serif" font-size="14.00"> Barton</text>
<text text-anchor="start" x="46.35" y="-440.06" font-family="Times,serif" font-size="14.00">Booth </text>
</g>
<!-- CAIUS_GABRIEL_CIBBER -->
<g id="node3" class="node">
<title>CAIUS_GABRIEL_CIBBER</title>
<polygon fill="none" stroke="black" points="232.08,-556.71 137.08,-556.71 137.08,-518.71 232.08,-518.71 232.08,-556.71"/>
<text text-anchor="start" x="145.08" y="-541.51" font-family="Times,serif" font-size="14.00"> Caius Gabriel</text>
<text text-anchor="start" x="164.08" y="-526.51" font-family="Times,serif" font-size="14.00">Cibber </text>
</g>
<!-- CAMILLO_QUERNO -->
<g id="node4" class="node">
<title>CAMILLO_QUERNO</title>
<polygon fill="none" stroke="black" points="131.49,-563.81 66.49,-563.81 66.49,-525.81 131.49,-525.81 131.49,-563.81"/>
<text text-anchor="start" x="74.49" y="-548.61" font-family="Times,serif" font-size="14.00"> Camillo</text>
<text text-anchor="start" x="76.49" y="-533.61" font-family="Times,serif" font-size="14.00">Querno </text>
</g>
<!-- CARDELL_GOODMAN -->
<g id="node5" class="node">
<title>CARDELL_GOODMAN</title>
<polygon fill="none" stroke="black" points="276.56,-355 202.56,-355 202.56,-317 276.56,-317 276.56,-355"/>
<text text-anchor="start" x="217.56" y="-339.8" font-family="Times,serif" font-size="14.00"> Cardell</text>
<text text-anchor="start" x="210.56" y="-324.8" font-family="Times,serif" font-size="14.00">Goodman </text>
</g>
<!-- CHARLES_FLEETWOOD -->
<g id="node6" class="node">
<title>CHARLES_FLEETWOOD</title>
<polygon fill="none" stroke="black" points="77,-373.78 0,-373.78 0,-335.78 77,-335.78 77,-373.78"/>
<text text-anchor="start" x="15.5" y="-358.58" font-family="Times,serif" font-size="14.00"> Charles</text>
<text text-anchor="start" x="8" y="-343.58" font-family="Times,serif" font-size="14.00">Fleetwood </text>
</g>
<!-- COLLEY_CIBBER -->
<g id="node7" class="node">
<title>COLLEY_CIBBER</title>
<polygon fill="none" stroke="black" points="386.74,-361.05 329.74,-361.05 329.74,-323.05 386.74,-323.05 386.74,-361.05"/>
<text text-anchor="start" x="338.24" y="-345.85" font-family="Times,serif" font-size="14.00"> Colley</text>
<text text-anchor="start" x="337.74" y="-330.85" font-family="Times,serif" font-size="14.00">Cibber </text>
</g>
<!-- COLLEY_CIBBER&#45;&gt;ALEXANDER_POPE -->
<g id="edge1" class="edge">
<title>COLLEY_CIBBER&#45;&gt;ALEXANDER_POPE</title>
<path fill="none" stroke="green" d="M330.19,-361.13C309.68,-378.73 282.44,-404.86 264.15,-424.51"/>
<polygon fill="green" stroke="green" points="261.52,-422.21 257.38,-431.96 266.7,-426.92 261.52,-422.21"/>
</g>
<!-- COLLEY_CIBBER&#45;&gt;ALEXANDER_POPE -->
<g id="edge2" class="edge">
<title>COLLEY_CIBBER&#45;&gt;ALEXANDER_POPE</title>
<path fill="none" stroke="red" d="M345.32,-361.23C329.51,-379.1 302.35,-405.7 280.15,-425.4"/>
<polygon fill="red" stroke="red" points="277.76,-422.84 272.53,-432.05 282.36,-428.11 277.76,-422.84"/>
</g>
<!-- COLLEY_CIBBER&#45;&gt;BARTON_BOOTH -->
<g id="edge3" class="edge">
<title>COLLEY_CIBBER&#45;&gt;BARTON_BOOTH</title>
<path fill="none" stroke="green" d="M329.57,-352.72C276.44,-372.5 162.67,-414.85 103.07,-437.03"/>
<polygon fill="green" stroke="green" points="101.78,-433.78 93.63,-440.54 104.23,-440.34 101.78,-433.78"/>
</g>
<!-- COLLEY_CIBBER&#45;&gt;CAIUS_GABRIEL_CIBBER -->
<g id="edge4" class="edge">
<title>COLLEY_CIBBER&#45;&gt;CAIUS_GABRIEL_CIBBER</title>
<path fill="none" stroke="green" d="M341.27,-361.17C310.15,-396.23 243.87,-470.92 208.3,-510.99"/>
<polygon fill="green" stroke="green" points="205.64,-508.71 201.62,-518.52 210.87,-513.36 205.64,-508.71"/>
</g>
<!-- COLLEY_CIBBER&#45;&gt;CAMILLO_QUERNO -->
<g id="edge5" class="edge">
<title>COLLEY_CIBBER&#45;&gt;CAMILLO_QUERNO</title>
<path fill="none" stroke="green" d="M333.85,-361.12C286.95,-397.81 184.17,-478.19 131.51,-519.38"/>
<polygon fill="green" stroke="green" points="129.22,-516.72 123.5,-525.64 133.54,-522.24 129.22,-516.72"/>
</g>
<!-- COLLEY_CIBBER&#45;&gt;CARDELL_GOODMAN -->
<g id="edge6" class="edge">
<title>COLLEY_CIBBER&#45;&gt;CARDELL_GOODMAN</title>
<path fill="none" stroke="green" d="M329.51,-340.59C316.7,-339.93 301.28,-339.15 286.84,-338.41"/>
<polygon fill="green" stroke="green" points="286.73,-334.9 276.56,-337.89 286.37,-341.89 286.73,-334.9"/>
</g>
<!-- COLLEY_CIBBER&#45;&gt;CHARLES_FLEETWOOD -->
<g id="edge7" class="edge">
<title>COLLEY_CIBBER&#45;&gt;CHARLES_FLEETWOOD</title>
<path fill="none" stroke="green" d="M329.58,-343.19C274.87,-345.37 154.99,-350.14 87.39,-352.84"/>
<polygon fill="green" stroke="green" points="86.86,-349.35 77,-353.25 87.13,-356.35 86.86,-349.35"/>
</g>
<!-- DULNESS -->
<g id="node8" class="node">
<title>DULNESS</title>
<polygon fill="none" stroke="black" points="156.96,-317.99 88.96,-317.99 88.96,-281.99 156.96,-281.99 156.96,-317.99"/>
<text text-anchor="start" x="96.96" y="-296.29" font-family="Times,serif" font-size="14.00"> Dulness </text>
</g>
<!-- COLLEY_CIBBER&#45;&gt;DULNESS -->
<g id="edge8" class="edge">
<title>COLLEY_CIBBER&#45;&gt;DULNESS</title>
<path fill="none" stroke="green" d="M329.39,-336.89C288.81,-329.64 214.52,-316.36 167,-307.86"/>
<polygon fill="green" stroke="green" points="167.46,-304.39 157,-306.08 166.23,-311.28 167.46,-304.39"/>
</g>
<!-- EDMUND_CURLL -->
<g id="node9" class="node">
<title>EDMUND_CURLL</title>
<polygon fill="none" stroke="black" points="185.38,-425.64 118.38,-425.64 118.38,-387.64 185.38,-387.64 185.38,-425.64"/>
<text text-anchor="start" x="126.38" y="-410.44" font-family="Times,serif" font-size="14.00"> Edmund</text>
<text text-anchor="start" x="135.88" y="-395.44" font-family="Times,serif" font-size="14.00">Curll </text>
</g>
<!-- COLLEY_CIBBER&#45;&gt;EDMUND_CURLL -->
<g id="edge9" class="edge">
<title>COLLEY_CIBBER&#45;&gt;EDMUND_CURLL</title>
<path fill="none" stroke="green" d="M329.54,-351.03C294.66,-361.95 235.44,-380.48 195.04,-393.13"/>
<polygon fill="green" stroke="green" points="193.95,-389.8 185.46,-396.13 196.04,-396.48 193.95,-389.8"/>
</g>
<!-- ELKANAH_SETTLE -->
<g id="node10" class="node">
<title>ELKANAH_SETTLE</title>
<polygon fill="none" stroke="black" points="577.6,-622.71 512.6,-622.71 512.6,-584.71 577.6,-584.71 577.6,-622.71"/>
<text text-anchor="start" x="520.6" y="-607.51" font-family="Times,serif" font-size="14.00"> Elkanah</text>
<text text-anchor="start" x="527.6" y="-592.51" font-family="Times,serif" font-size="14.00">Settle </text>
</g>
<!-- COLLEY_CIBBER&#45;&gt;ELKANAH_SETTLE -->
<g id="edge10" class="edge">
<title>COLLEY_CIBBER&#45;&gt;ELKANAH_SETTLE</title>
<path fill="none" stroke="green" d="M371.98,-361.29C404.71,-407.13 487.4,-522.91 525.42,-576.15"/>
<polygon fill="green" stroke="green" points="522.68,-578.34 531.34,-584.44 528.38,-574.27 522.68,-578.34"/>
</g>
<!-- FRANCIS_ATTERBURY -->
<g id="node11" class="node">
<title>FRANCIS_ATTERBURY</title>
<polygon fill="none" stroke="black" points="488.78,-671.83 415.78,-671.83 415.78,-633.83 488.78,-633.83 488.78,-671.83"/>
<text text-anchor="start" x="430.28" y="-656.63" font-family="Times,serif" font-size="14.00"> Francis</text>
<text text-anchor="start" x="423.78" y="-641.63" font-family="Times,serif" font-size="14.00">Atterbury </text>
</g>
<!-- COLLEY_CIBBER&#45;&gt;FRANCIS_ATTERBURY -->
<g id="edge11" class="edge">
<title>COLLEY_CIBBER&#45;&gt;FRANCIS_ATTERBURY</title>
<path fill="none" stroke="orange" d="M364.12,-361.49C380.16,-414.48 424.69,-561.67 443.61,-624.17"/>
<polygon fill="orange" stroke="orange" points="440.27,-625.23 446.52,-633.79 446.97,-623.21 440.27,-625.23"/>
</g>
<!-- GEORGE_ETHEREGE -->
<g id="node12" class="node">
<title>GEORGE_ETHEREGE</title>
<polygon fill="none" stroke="black" points="415.57,-612.58 347.57,-612.58 347.57,-574.58 415.57,-574.58 415.57,-612.58"/>
<text text-anchor="start" x="359.57" y="-597.38" font-family="Times,serif" font-size="14.00"> George</text>
<text text-anchor="start" x="355.57" y="-582.38" font-family="Times,serif" font-size="14.00">Etherege </text>
</g>
<!-- COLLEY_CIBBER&#45;&gt;GEORGE_ETHEREGE -->
<g id="edge12" class="edge">
<title>COLLEY_CIBBER&#45;&gt;GEORGE_ETHEREGE</title>
<path fill="none" stroke="green" d="M360.03,-361.37C364.09,-405.19 374.03,-512.33 378.85,-564.33"/>
<polygon fill="green" stroke="green" points="375.39,-564.91 379.8,-574.54 382.36,-564.26 375.39,-564.91"/>
</g>
<!-- GEORGE_I -->
<g id="node13" class="node">
<title>GEORGE_I</title>
<polygon fill="none" stroke="black" points="479.18,-540.8 419.18,-540.8 419.18,-502.8 479.18,-502.8 479.18,-540.8"/>
<text text-anchor="start" x="427.18" y="-525.6" font-family="Times,serif" font-size="14.00"> George</text>
<text text-anchor="start" x="444.68" y="-510.6" font-family="Times,serif" font-size="14.00">I </text>
</g>
<!-- COLLEY_CIBBER&#45;&gt;GEORGE_I -->
<g id="edge13" class="edge">
<title>COLLEY_CIBBER&#45;&gt;GEORGE_I</title>
<path fill="none" stroke="green" d="M367.97,-361.29C384.04,-393.04 416.19,-456.59 434.86,-493.49"/>
<polygon fill="green" stroke="green" points="431.88,-495.36 439.52,-502.7 438.13,-492.2 431.88,-495.36"/>
</g>
<!-- GEORGE_II -->
<g id="node14" class="node">
<title>GEORGE_II</title>
<polygon fill="none" stroke="black" points="243.38,-648.99 183.38,-648.99 183.38,-610.99 243.38,-610.99 243.38,-648.99"/>
<text text-anchor="start" x="191.38" y="-633.79" font-family="Times,serif" font-size="14.00"> George</text>
<text text-anchor="start" x="206.88" y="-618.79" font-family="Times,serif" font-size="14.00">II </text>
</g>
<!-- COLLEY_CIBBER&#45;&gt;GEORGE_II -->
<g id="edge14" class="edge">
<title>COLLEY_CIBBER&#45;&gt;GEORGE_II</title>
<path fill="none" stroke="green" d="M348.51,-361.39C323.51,-411.08 256.95,-543.39 227.61,-601.71"/>
<polygon fill="green" stroke="green" points="224.44,-600.23 223.07,-610.73 230.69,-603.37 224.44,-600.23"/>
</g>
<!-- HENRY_JANSSEN -->
<g id="node15" class="node">
<title>HENRY_JANSSEN</title>
<polygon fill="none" stroke="black" points="390.52,-479.93 328.52,-479.93 328.52,-441.93 390.52,-441.93 390.52,-479.93"/>
<text text-anchor="start" x="340.52" y="-464.73" font-family="Times,serif" font-size="14.00"> Henry</text>
<text text-anchor="start" x="336.52" y="-449.73" font-family="Times,serif" font-size="14.00">Janssen </text>
</g>
<!-- COLLEY_CIBBER&#45;&gt;HENRY_JANSSEN -->
<g id="edge15" class="edge">
<title>COLLEY_CIBBER&#45;&gt;HENRY_JANSSEN</title>
<path fill="none" stroke="green" d="M358.44,-361.15C358.65,-380.21 358.97,-409.76 359.21,-431.76"/>
<polygon fill="green" stroke="green" points="355.71,-431.91 359.32,-441.87 362.71,-431.84 355.71,-431.91"/>
</g>
<!-- ISAAC_NEWTON -->
<g id="node16" class="node">
<title>ISAAC_NEWTON</title>
<polygon fill="none" stroke="black" points="325.44,-567.22 262.44,-567.22 262.44,-529.22 325.44,-529.22 325.44,-567.22"/>
<text text-anchor="start" x="277.94" y="-552.02" font-family="Times,serif" font-size="14.00"> Isaac</text>
<text text-anchor="start" x="270.44" y="-537.02" font-family="Times,serif" font-size="14.00">Newton </text>
</g>
<!-- COLLEY_CIBBER&#45;&gt;ISAAC_NEWTON -->
<g id="edge16" class="edge">
<title>COLLEY_CIBBER&#45;&gt;ISAAC_NEWTON</title>
<path fill="none" stroke="orange" d="M352.3,-361.08C340.99,-397.34 316.29,-476.57 302.93,-519.38"/>
<polygon fill="orange" stroke="orange" points="299.59,-518.35 299.95,-528.94 306.27,-520.43 299.59,-518.35"/>
</g>
<!-- ISSAC_BARROW -->
<g id="node17" class="node">
<title>ISSAC_BARROW</title>
<polygon fill="none" stroke="black" points="346.68,-683.16 285.68,-683.16 285.68,-645.16 346.68,-645.16 346.68,-683.16"/>
<text text-anchor="start" x="300.68" y="-667.96" font-family="Times,serif" font-size="14.00"> Issac</text>
<text text-anchor="start" x="293.68" y="-652.96" font-family="Times,serif" font-size="14.00">Barrow </text>
</g>
<!-- COLLEY_CIBBER&#45;&gt;ISSAC_BARROW -->
<g id="edge17" class="edge">
<title>COLLEY_CIBBER&#45;&gt;ISSAC_BARROW</title>
<path fill="none" stroke="orange" d="M355.73,-361.23C348.65,-415.5 328.43,-570.36 319.97,-635.13"/>
<polygon fill="orange" stroke="orange" points="316.49,-634.7 318.67,-645.07 323.43,-635.61 316.49,-634.7"/>
</g>
<!-- JOHN_BANKS -->
<g id="node18" class="node">
<title>JOHN_BANKS</title>
<polygon fill="none" stroke="black" points="477.44,-288.58 423.44,-288.58 423.44,-250.58 477.44,-250.58 477.44,-288.58"/>
<text text-anchor="start" x="435.44" y="-273.38" font-family="Times,serif" font-size="14.00"> John</text>
<text text-anchor="start" x="431.44" y="-258.38" font-family="Times,serif" font-size="14.00">Banks </text>
</g>
<!-- COLLEY_CIBBER&#45;&gt;JOHN_BANKS -->
<g id="edge18" class="edge">
<title>COLLEY_CIBBER&#45;&gt;JOHN_BANKS</title>
<path fill="none" stroke="green" d="M382.46,-323.01C393.39,-314.42 406.45,-304.16 418.19,-294.93"/>
<polygon fill="green" stroke="green" points="420.36,-297.68 426.06,-288.75 416.03,-292.17 420.36,-297.68"/>
</g>
<!-- JOHN_DENNIS -->
<g id="node19" class="node">
<title>JOHN_DENNIS</title>
<polygon fill="none" stroke="black" points="649.63,-178.55 590.63,-178.55 590.63,-140.55 649.63,-140.55 649.63,-178.55"/>
<text text-anchor="start" x="605.13" y="-163.35" font-family="Times,serif" font-size="14.00"> John</text>
<text text-anchor="start" x="598.63" y="-148.35" font-family="Times,serif" font-size="14.00">Dennis </text>
</g>
<!-- COLLEY_CIBBER&#45;&gt;JOHN_DENNIS -->
<g id="edge19" class="edge">
<title>COLLEY_CIBBER&#45;&gt;JOHN_DENNIS</title>
<path fill="none" stroke="green" d="M385.77,-322.86C433.42,-289.66 531.21,-221.51 584.16,-184.61"/>
<polygon fill="green" stroke="green" points="586.37,-187.34 592.57,-178.75 582.37,-181.59 586.37,-187.34"/>
</g>
<!-- JOHN_DRYDEN -->
<g id="node20" class="node">
<title>JOHN_DRYDEN</title>
<polygon fill="none" stroke="black" points="558.02,-199.38 497.02,-199.38 497.02,-161.38 558.02,-161.38 558.02,-199.38"/>
<text text-anchor="start" x="512.52" y="-184.18" font-family="Times,serif" font-size="14.00"> John</text>
<text text-anchor="start" x="505.02" y="-169.18" font-family="Times,serif" font-size="14.00">Dryden </text>
</g>
<!-- COLLEY_CIBBER&#45;&gt;JOHN_DRYDEN -->
<g id="edge20" class="edge">
<title>COLLEY_CIBBER&#45;&gt;JOHN_DRYDEN</title>
<path fill="none" stroke="red" d="M385.5,-322.75C419.28,-293.93 475.93,-239.85 506.53,-207.22"/>
<polygon fill="red" stroke="red" points="509.16,-209.53 513.37,-199.8 504.02,-204.78 509.16,-209.53"/>
</g>
<!-- COLLEY_CIBBER&#45;&gt;JOHN_DRYDEN -->
<g id="edge21" class="edge">
<title>COLLEY_CIBBER&#45;&gt;JOHN_DRYDEN</title>
<path fill="none" stroke="orange" d="M372.16,-322.89C398.41,-293.79 455.52,-238.73 492.75,-206.17"/>
<polygon fill="orange" stroke="orange" points="495.09,-208.77 500.37,-199.58 490.52,-203.47 495.09,-208.77"/>
</g>
<!-- JOHN_FLETCHER -->
<g id="node21" class="node">
<title>JOHN_FLETCHER</title>
<polygon fill="none" stroke="black" points="585.56,-307.06 520.56,-307.06 520.56,-269.06 585.56,-269.06 585.56,-307.06"/>
<text text-anchor="start" x="538.06" y="-291.86" font-family="Times,serif" font-size="14.00"> John</text>
<text text-anchor="start" x="528.56" y="-276.86" font-family="Times,serif" font-size="14.00">Fletcher </text>
</g>
<!-- COLLEY_CIBBER&#45;&gt;JOHN_FLETCHER -->
<g id="edge22" class="edge">
<title>COLLEY_CIBBER&#45;&gt;JOHN_FLETCHER</title>
<path fill="none" stroke="green" d="M386.98,-334.08C419.49,-325.07 472.76,-310.31 510.18,-299.94"/>
<polygon fill="green" stroke="green" points="511.59,-303.18 520.29,-297.14 509.72,-296.44 511.59,-303.18"/>
</g>
<!-- JOHN_GARTH -->
<g id="node22" class="node">
<title>JOHN_GARTH</title>
<polygon fill="none" stroke="black" points="284.63,-59.91 230.63,-59.91 230.63,-21.91 284.63,-21.91 284.63,-59.91"/>
<text text-anchor="start" x="242.63" y="-44.71" font-family="Times,serif" font-size="14.00"> John</text>
<text text-anchor="start" x="240.13" y="-29.71" font-family="Times,serif" font-size="14.00">Garth </text>
</g>
<!-- COLLEY_CIBBER&#45;&gt;JOHN_GARTH -->
<g id="edge23" class="edge">
<title>COLLEY_CIBBER&#45;&gt;JOHN_GARTH</title>
<path fill="none" stroke="orange" d="M351.79,-322.75C334.61,-271.34 287.66,-130.8 267.28,-69.8"/>
<polygon fill="orange" stroke="orange" points="270.51,-68.42 264.02,-60.04 263.87,-70.64 270.51,-68.42"/>
</g>
<!-- JOHN_HERVEY -->
<g id="node23" class="node">
<title>JOHN_HERVEY</title>
<polygon fill="none" stroke="black" points="371.26,-137.34 311.26,-137.34 311.26,-99.34 371.26,-99.34 371.26,-137.34"/>
<text text-anchor="start" x="326.26" y="-122.14" font-family="Times,serif" font-size="14.00"> John</text>
<text text-anchor="start" x="319.26" y="-107.14" font-family="Times,serif" font-size="14.00">Hervey </text>
</g>
<!-- COLLEY_CIBBER&#45;&gt;JOHN_HERVEY -->
<g id="edge24" class="edge">
<title>COLLEY_CIBBER&#45;&gt;JOHN_HERVEY</title>
<path fill="none" stroke="green" d="M356.79,-322.98C353.82,-283.76 347,-193.89 343.47,-147.39"/>
<polygon fill="green" stroke="green" points="346.95,-147.07 342.71,-137.36 339.97,-147.6 346.95,-147.07"/>
</g>
<!-- JOHN_LOCKE -->
<g id="node24" class="node">
<title>JOHN_LOCKE</title>
<polygon fill="none" stroke="black" points="352.19,-247.75 298.19,-247.75 298.19,-209.75 352.19,-209.75 352.19,-247.75"/>
<text text-anchor="start" x="310.19" y="-232.55" font-family="Times,serif" font-size="14.00"> John</text>
<text text-anchor="start" x="306.19" y="-217.55" font-family="Times,serif" font-size="14.00">Locke </text>
</g>
<!-- COLLEY_CIBBER&#45;&gt;JOHN_LOCKE -->
<g id="edge25" class="edge">
<title>COLLEY_CIBBER&#45;&gt;JOHN_LOCKE</title>
<path fill="none" stroke="orange" d="M352.63,-322.83C347.43,-305.01 339.63,-278.24 333.67,-257.8"/>
<polygon fill="orange" stroke="orange" points="336.99,-256.68 330.83,-248.06 330.27,-258.64 336.99,-256.68"/>
</g>
<!-- JOHN_OZELL -->
<g id="node25" class="node">
<title>JOHN_OZELL</title>
<polygon fill="none" stroke="black" points="188.93,-104.2 134.93,-104.2 134.93,-66.2 188.93,-66.2 188.93,-104.2"/>
<text text-anchor="start" x="146.93" y="-89" font-family="Times,serif" font-size="14.00"> John</text>
<text text-anchor="start" x="144.93" y="-74" font-family="Times,serif" font-size="14.00">Ozell </text>
</g>
<!-- COLLEY_CIBBER&#45;&gt;JOHN_OZELL -->
<g id="edge26" class="edge">
<title>COLLEY_CIBBER&#45;&gt;JOHN_OZELL</title>
<path fill="none" stroke="green" d="M343.48,-322.74C308.94,-277.54 222.72,-164.73 182.81,-112.51"/>
<polygon fill="green" stroke="green" points="185.45,-110.2 176.59,-104.38 179.88,-114.45 185.45,-110.2"/>
</g>
<!-- JOSEPH_ADDISON -->
<g id="node26" class="node">
<title>JOSEPH_ADDISON</title>
<polygon fill="none" stroke="black" points="577.09,-98.57 511.09,-98.57 511.09,-60.57 577.09,-60.57 577.09,-98.57"/>
<text text-anchor="start" x="523.59" y="-83.37" font-family="Times,serif" font-size="14.00"> Joseph</text>
<text text-anchor="start" x="519.09" y="-68.37" font-family="Times,serif" font-size="14.00">Addison </text>
</g>
<!-- COLLEY_CIBBER&#45;&gt;JOSEPH_ADDISON -->
<g id="edge27" class="edge">
<title>COLLEY_CIBBER&#45;&gt;JOSEPH_ADDISON</title>
<path fill="none" stroke="orange" d="M371.9,-322.75C404.46,-276.77 486.7,-160.62 524.52,-107.21"/>
<polygon fill="orange" stroke="orange" points="527.48,-109.09 530.4,-98.9 521.77,-105.04 527.48,-109.09"/>
</g>
<!-- LAURENCE_EUSDEN -->
<g id="node27" class="node">
<title>LAURENCE_EUSDEN</title>
<polygon fill="none" stroke="black" points="487.87,-69.09 416.87,-69.09 416.87,-31.09 487.87,-31.09 487.87,-69.09"/>
<text text-anchor="start" x="424.87" y="-53.89" font-family="Times,serif" font-size="14.00"> Laurence</text>
<text text-anchor="start" x="430.37" y="-38.89" font-family="Times,serif" font-size="14.00">Eusden </text>
</g>
<!-- COLLEY_CIBBER&#45;&gt;LAURENCE_EUSDEN -->
<g id="edge28" class="edge">
<title>COLLEY_CIBBER&#45;&gt;LAURENCE_EUSDEN</title>
<path fill="none" stroke="green" d="M364.41,-322.89C380.5,-272.99 423.79,-138.73 442.99,-79.2"/>
<polygon fill="green" stroke="green" points="446.43,-79.91 446.17,-69.31 439.77,-77.76 446.43,-79.91"/>
</g>
<!-- LEWIS_THEOBALD -->
<g id="node28" class="node">
<title>LEWIS_THEOBALD</title>
<polygon fill="none" stroke="black" points="466.19,-176.83 395.19,-176.83 395.19,-138.83 466.19,-138.83 466.19,-176.83"/>
<text text-anchor="start" x="412.19" y="-161.63" font-family="Times,serif" font-size="14.00"> Lewis</text>
<text text-anchor="start" x="403.19" y="-146.63" font-family="Times,serif" font-size="14.00">Theobald </text>
</g>
<!-- COLLEY_CIBBER&#45;&gt;LEWIS_THEOBALD -->
<g id="edge29" class="edge">
<title>COLLEY_CIBBER&#45;&gt;LEWIS_THEOBALD</title>
<path fill="none" stroke="green" d="M365.72,-323.03C378.46,-290.62 404.45,-224.54 419.41,-186.51"/>
<polygon fill="green" stroke="green" points="422.74,-187.61 423.14,-177.03 416.22,-185.05 422.74,-187.61"/>
</g>
<!-- LORD_BISHOP_OF_LONDON -->
<g id="node29" class="node">
<title>LORD_BISHOP_OF_LONDON</title>
<polygon fill="none" stroke="black" points="404.45,-38 315.45,-38 315.45,0 404.45,0 404.45,-38"/>
<text text-anchor="start" x="323.45" y="-22.8" font-family="Times,serif" font-size="14.00"> Lord Bishop</text>
<text text-anchor="start" x="329.45" y="-7.8" font-family="Times,serif" font-size="14.00">of London </text>
</g>
<!-- COLLEY_CIBBER&#45;&gt;LORD_BISHOP_OF_LONDON -->
<g id="edge30" class="edge">
<title>COLLEY_CIBBER&#45;&gt;LORD_BISHOP_OF_LONDON</title>
<path fill="none" stroke="green" d="M358.34,-322.81C358.63,-268.49 359.45,-113.71 359.8,-48.52"/>
<polygon fill="green" stroke="green" points="363.3,-48.16 359.85,-38.14 356.3,-48.12 363.3,-48.16"/>
</g>
<!-- MARTINUS_SCRIBLERUS -->
<g id="node30" class="node">
<title>MARTINUS_SCRIBLERUS</title>
<polygon fill="none" stroke="black" points="279.97,-167.76 204.97,-167.76 204.97,-129.76 279.97,-129.76 279.97,-167.76"/>
<text text-anchor="start" x="215.47" y="-152.56" font-family="Times,serif" font-size="14.00"> Martinus</text>
<text text-anchor="start" x="212.97" y="-137.56" font-family="Times,serif" font-size="14.00">Scriblerus </text>
</g>
<!-- COLLEY_CIBBER&#45;&gt;MARTINUS_SCRIBLERUS -->
<g id="edge31" class="edge">
<title>COLLEY_CIBBER&#45;&gt;MARTINUS_SCRIBLERUS</title>
<path fill="none" stroke="green" d="M346.71,-322.81C326.13,-288.44 282.96,-216.37 259.14,-176.6"/>
<polygon fill="green" stroke="green" points="262.09,-174.71 253.95,-167.93 256.08,-178.3 262.09,-174.71"/>
</g>
<!-- MATTHEW_PRIOR -->
<g id="node31" class="node">
<title>MATTHEW_PRIOR</title>
<polygon fill="none" stroke="black" points="234.33,-254.74 165.33,-254.74 165.33,-216.74 234.33,-216.74 234.33,-254.74"/>
<text text-anchor="start" x="173.33" y="-239.54" font-family="Times,serif" font-size="14.00"> Matthew</text>
<text text-anchor="start" x="184.33" y="-224.54" font-family="Times,serif" font-size="14.00">Prior </text>
</g>
<!-- COLLEY_CIBBER&#45;&gt;MATTHEW_PRIOR -->
<g id="edge32" class="edge">
<title>COLLEY_CIBBER&#45;&gt;MATTHEW_PRIOR</title>
<path fill="none" stroke="red" d="M329.92,-323.04C303.87,-305.56 265.09,-279.53 236.64,-260.44"/>
<polygon fill="red" stroke="red" points="238.43,-257.43 228.17,-254.76 234.53,-263.24 238.43,-257.43"/>
</g>
<!-- PHILIP_DORMER_STANHOPE -->
<g id="node32" class="node">
<title>PHILIP_DORMER_STANHOPE</title>
<polygon fill="none" stroke="black" points="161.22,-186.36 62.22,-186.36 62.22,-148.36 161.22,-148.36 161.22,-186.36"/>
<text text-anchor="start" x="70.22" y="-171.16" font-family="Times,serif" font-size="14.00"> Philip Dormer</text>
<text text-anchor="start" x="84.22" y="-156.16" font-family="Times,serif" font-size="14.00">Stanhope </text>
</g>
<!-- COLLEY_CIBBER&#45;&gt;PHILIP_DORMER_STANHOPE -->
<g id="edge33" class="edge">
<title>COLLEY_CIBBER&#45;&gt;PHILIP_DORMER_STANHOPE</title>
<path fill="none" stroke="green" d="M338.29,-322.91C298.68,-290.98 209.53,-227.36 155.6,-192.1"/>
<polygon fill="green" stroke="green" points="157.23,-188.99 146.93,-186.49 153.42,-194.86 157.23,-188.99"/>
</g>
<!-- COLLEY_CIBBER&#45;&gt;PHILIP_DORMER_STANHOPE -->
<g id="edge34" class="edge">
<title>COLLEY_CIBBER&#45;&gt;PHILIP_DORMER_STANHOPE</title>
<path fill="none" stroke="red" d="M329.33,-326.92C281.5,-296.8 186.67,-229.71 139.55,-192.75"/>
<polygon fill="red" stroke="red" points="141.61,-189.92 131.6,-186.44 137.26,-195.4 141.61,-189.92"/>
</g>
<!-- RICHARD_BENTLEY -->
<g id="node33" class="node">
<title>RICHARD_BENTLEY</title>
<polygon fill="none" stroke="black" points="78.88,-259.91 15.88,-259.91 15.88,-221.91 78.88,-221.91 78.88,-259.91"/>
<text text-anchor="start" x="23.88" y="-244.71" font-family="Times,serif" font-size="14.00"> Richard</text>
<text text-anchor="start" x="24.38" y="-229.71" font-family="Times,serif" font-size="14.00">Bentley </text>
</g>
<!-- COLLEY_CIBBER&#45;&gt;RICHARD_BENTLEY -->
<g id="edge35" class="edge">
<title>COLLEY_CIBBER&#45;&gt;RICHARD_BENTLEY</title>
<path fill="none" stroke="green" d="M329.55,-332.72C274.34,-314.75 153.1,-275.3 89,-254.45"/>
<polygon fill="green" stroke="green" points="89.82,-251.03 79.22,-251.27 87.65,-257.69 89.82,-251.03"/>
</g>
<!-- ROBERT_WALPOLE -->
<g id="node34" class="node">
<title>ROBERT_WALPOLE</title>
<polygon fill="none" stroke="black" points="683.65,-350.74 617.65,-350.74 617.65,-312.74 683.65,-312.74 683.65,-350.74"/>
<text text-anchor="start" x="630.15" y="-335.54" font-family="Times,serif" font-size="14.00"> Robert</text>
<text text-anchor="start" x="625.65" y="-320.54" font-family="Times,serif" font-size="14.00">Walpole </text>
</g>
<!-- COLLEY_CIBBER&#45;&gt;ROBERT_WALPOLE -->
<g id="edge36" class="edge">
<title>COLLEY_CIBBER&#45;&gt;ROBERT_WALPOLE</title>
<path fill="none" stroke="green" d="M386.81,-341.04C438.29,-339.23 546.91,-335.4 607.5,-333.26"/>
<polygon fill="green" stroke="green" points="607.64,-336.76 617.51,-332.91 607.39,-329.76 607.64,-336.76"/>
</g>
<!-- STEPHEN_DUCK -->
<g id="node35" class="node">
<title>STEPHEN_DUCK</title>
<polygon fill="none" stroke="black" points="693.97,-262.43 629.97,-262.43 629.97,-224.43 693.97,-224.43 693.97,-262.43"/>
<text text-anchor="start" x="637.97" y="-247.23" font-family="Times,serif" font-size="14.00"> Stephen</text>
<text text-anchor="start" x="644.97" y="-232.23" font-family="Times,serif" font-size="14.00">Duck </text>
</g>
<!-- COLLEY_CIBBER&#45;&gt;STEPHEN_DUCK -->
<g id="edge37" class="edge">
<title>COLLEY_CIBBER&#45;&gt;STEPHEN_DUCK</title>
<path fill="none" stroke="green" d="M386.81,-332.77C440.64,-315.29 557.28,-277.42 620.02,-257.05"/>
<polygon fill="green" stroke="green" points="621.18,-260.35 629.61,-253.94 619.02,-253.69 621.18,-260.35"/>
</g>
<!-- THOMAS_ARCHER -->
<g id="node36" class="node">
<title>THOMAS_ARCHER</title>
<polygon fill="none" stroke="black" points="703.63,-439.03 639.63,-439.03 639.63,-401.03 703.63,-401.03 703.63,-439.03"/>
<text text-anchor="start" x="647.63" y="-423.83" font-family="Times,serif" font-size="14.00"> Thomas</text>
<text text-anchor="start" x="650.63" y="-408.83" font-family="Times,serif" font-size="14.00">Archer </text>
</g>
<!-- COLLEY_CIBBER&#45;&gt;THOMAS_ARCHER -->
<g id="edge38" class="edge">
<title>COLLEY_CIBBER&#45;&gt;THOMAS_ARCHER</title>
<path fill="none" stroke="green" d="M386.88,-349.18C442.39,-362.99 564.83,-393.46 629.58,-409.57"/>
<polygon fill="green" stroke="green" points="628.91,-413.01 639.46,-412.03 630.6,-406.21 628.91,-413.01"/>
</g>
<!-- THOMAS_COOKE -->
<g id="node37" class="node">
<title>THOMAS_COOKE</title>
<polygon fill="none" stroke="black" points="596.19,-418.5 532.19,-418.5 532.19,-380.5 596.19,-380.5 596.19,-418.5"/>
<text text-anchor="start" x="540.19" y="-403.3" font-family="Times,serif" font-size="14.00"> Thomas</text>
<text text-anchor="start" x="544.19" y="-388.3" font-family="Times,serif" font-size="14.00">Cooke </text>
</g>
<!-- COLLEY_CIBBER&#45;&gt;THOMAS_COOKE -->
<g id="edge39" class="edge">
<title>COLLEY_CIBBER&#45;&gt;THOMAS_COOKE</title>
<path fill="none" stroke="green" d="M386.87,-350.04C422.03,-359.84 481.93,-376.56 522.27,-387.81"/>
<polygon fill="green" stroke="green" points="521.5,-391.23 532.07,-390.54 523.38,-384.49 521.5,-391.23"/>
</g>
<!-- WILLIAM_BROOME -->
<g id="node38" class="node">
<title>WILLIAM_BROOME</title>
<polygon fill="none" stroke="black" points="575.13,-526.41 510.13,-526.41 510.13,-488.41 575.13,-488.41 575.13,-526.41"/>
<text text-anchor="start" x="518.13" y="-511.21" font-family="Times,serif" font-size="14.00"> William</text>
<text text-anchor="start" x="518.13" y="-496.21" font-family="Times,serif" font-size="14.00">Broome </text>
</g>
<!-- COLLEY_CIBBER&#45;&gt;WILLIAM_BROOME -->
<g id="edge40" class="edge">
<title>COLLEY_CIBBER&#45;&gt;WILLIAM_BROOME</title>
<path fill="none" stroke="green" d="M379.75,-361.34C412.92,-391.09 476.6,-448.2 513.75,-481.51"/>
<polygon fill="green" stroke="green" points="511.47,-484.17 521.26,-488.24 516.15,-478.96 511.47,-484.17"/>
</g>
<!-- WILLIAM_CONGREVE -->
<g id="node39" class="node">
<title>WILLIAM_CONGREVE</title>
<polygon fill="none" stroke="black" points="501.87,-418.92 428.87,-418.92 428.87,-380.92 501.87,-380.92 501.87,-418.92"/>
<text text-anchor="start" x="440.87" y="-403.72" font-family="Times,serif" font-size="14.00"> William</text>
<text text-anchor="start" x="436.87" y="-388.72" font-family="Times,serif" font-size="14.00">Congreve </text>
</g>
<!-- COLLEY_CIBBER&#45;&gt;WILLIAM_CONGREVE -->
<g id="edge41" class="edge">
<title>COLLEY_CIBBER&#45;&gt;WILLIAM_CONGREVE</title>
<path fill="none" stroke="orange" d="M386.95,-357.56C397.41,-363.21 409.5,-369.74 421.01,-375.96"/>
<polygon fill="orange" stroke="orange" points="419.61,-379.18 430.07,-380.85 422.94,-373.02 419.61,-379.18"/>
</g>
<!-- WILLIAM_TEMPLE -->
<g id="node40" class="node">
<title>WILLIAM_TEMPLE</title>
<polygon fill="none" stroke="black" points="666.44,-529.28 601.44,-529.28 601.44,-491.28 666.44,-491.28 666.44,-529.28"/>
<text text-anchor="start" x="609.44" y="-514.08" font-family="Times,serif" font-size="14.00"> William</text>
<text text-anchor="start" x="610.94" y="-499.08" font-family="Times,serif" font-size="14.00">Temple </text>
</g>
<!-- COLLEY_CIBBER&#45;&gt;WILLIAM_TEMPLE -->
<g id="edge42" class="edge">
<title>COLLEY_CIBBER&#45;&gt;WILLIAM_TEMPLE</title>
<path fill="none" stroke="green" d="M386.96,-359.58C436.45,-389.77 537.87,-451.66 594.13,-485.99"/>
<polygon fill="green" stroke="green" points="592.4,-489.03 602.76,-491.25 596.04,-483.06 592.4,-489.03"/>
</g>
</g>
</svg>
