<?xml version="1.0" encoding="UTF-8" standalone="no"?>
<!DOCTYPE svg PUBLIC "-//W3C//DTD SVG 1.1//EN"
 "http://www.w3.org/Graphics/SVG/1.1/DTD/svg11.dtd">
<!-- Generated by graphviz version 2.50.0 (0)
 -->
<!-- Title: G Pages: 1 -->
<svg width="739pt" height="713pt"
 viewBox="0.00 0.00 739.26 713.19" xmlns="http://www.w3.org/2000/svg" xmlns:xlink="http://www.w3.org/1999/xlink">
<g id="graph0" class="graph" transform="scale(1 1) rotate(0) translate(4 709.19)">
<title>G</title>
<polygon fill="white" stroke="transparent" points="-4,4 -4,-709.19 735.26,-709.19 735.26,4 -4,4"/>
<!-- ALEXANDER_POPE -->
<g id="node1" class="node">
<title>ALEXANDER_POPE</title>
<polygon fill="none" stroke="black" points="294.41,-484.99 214.41,-484.99 214.41,-446.99 294.41,-446.99 294.41,-484.99"/>
<text text-anchor="start" x="222.41" y="-469.79" font-family="arial" font-size="14.00"> Alexander</text>
<text text-anchor="start" x="236.41" y="-454.79" font-family="arial" font-size="14.00">Pope </text>
</g>
<!-- BARTON_BOOTH -->
<g id="node2" class="node">
<title>BARTON_BOOTH</title>
<polygon fill="none" stroke="black" points="98.75,-485.02 38.75,-485.02 38.75,-447.02 98.75,-447.02 98.75,-485.02"/>
<text text-anchor="start" x="46.75" y="-469.82" font-family="arial" font-size="14.00"> Barton</text>
<text text-anchor="start" x="48.75" y="-454.82" font-family="arial" font-size="14.00">Booth </text>
</g>
<!-- CAIUS_GABRIEL_CIBBER -->
<g id="node3" class="node">
<title>CAIUS_GABRIEL_CIBBER</title>
<polygon fill="none" stroke="black" points="244.07,-574.43 141.07,-574.43 141.07,-536.43 244.07,-536.43 244.07,-574.43"/>
<text text-anchor="start" x="149.07" y="-559.23" font-family="arial" font-size="14.00"> Caius Gabriel</text>
<text text-anchor="start" x="170.57" y="-544.23" font-family="arial" font-size="14.00">Cibber </text>
</g>
<!-- CAMILLO_QUERNO -->
<g id="node4" class="node">
<title>CAMILLO_QUERNO</title>
<polygon fill="none" stroke="black" points="137.06,-581.77 71.06,-581.77 71.06,-543.77 137.06,-543.77 137.06,-581.77"/>
<text text-anchor="start" x="79.06" y="-566.57" font-family="arial" font-size="14.00"> Camillo</text>
<text text-anchor="start" x="79.06" y="-551.57" font-family="arial" font-size="14.00">Querno </text>
</g>
<!-- CARDELL_GOODMAN -->
<g id="node5" class="node">
<title>CARDELL_GOODMAN</title>
<polygon fill="none" stroke="black" points="289.93,-365.83 208.93,-365.83 208.93,-327.83 289.93,-327.83 289.93,-365.83"/>
<text text-anchor="start" x="225.93" y="-350.63" font-family="arial" font-size="14.00"> Cardell</text>
<text text-anchor="start" x="216.93" y="-335.63" font-family="arial" font-size="14.00">Goodman </text>
</g>
<!-- CHARLES_FLEETWOOD -->
<g id="node6" class="node">
<title>CHARLES_FLEETWOOD</title>
<polygon fill="none" stroke="black" points="83,-385.25 0,-385.25 0,-347.25 83,-347.25 83,-385.25"/>
<text text-anchor="start" x="16" y="-370.05" font-family="arial" font-size="14.00"> Charles</text>
<text text-anchor="start" x="8" y="-355.05" font-family="arial" font-size="14.00">Fleetwood </text>
</g>
<!-- COLLEY_CIBBER -->
<g id="node7" class="node">
<title>COLLEY_CIBBER</title>
<polygon fill="none" stroke="black" points="402.16,-372.08 342.16,-372.08 342.16,-334.08 402.16,-334.08 402.16,-372.08"/>
<text text-anchor="start" x="351.16" y="-356.88" font-family="arial" font-size="14.00"> Colley</text>
<text text-anchor="start" x="350.16" y="-341.88" font-family="arial" font-size="14.00">Cibber </text>
</g>
<!-- COLLEY_CIBBER&#45;&gt;ALEXANDER_POPE -->
<g id="edge1" class="edge">
<title>COLLEY_CIBBER&#45;&gt;ALEXANDER_POPE</title>
<path fill="none" stroke="green" d="M344.19,-372.18C322.69,-390.61 293.62,-418.5 274.4,-439.14"/>
<polygon fill="green" stroke="green" points="271.7,-436.9 267.55,-446.65 276.87,-441.62 271.7,-436.9"/>
</g>
<!-- COLLEY_CIBBER&#45;&gt;ALEXANDER_POPE -->
<g id="edge2" class="edge">
<title>COLLEY_CIBBER&#45;&gt;ALEXANDER_POPE</title>
<path fill="none" stroke="red" d="M359.14,-372.28C342.6,-390.95 313.67,-419.25 290.36,-439.92"/>
<polygon fill="red" stroke="red" points="287.93,-437.4 282.7,-446.61 292.53,-442.67 287.93,-437.4"/>
</g>
<!-- COLLEY_CIBBER&#45;&gt;BARTON_BOOTH -->
<g id="edge3" class="edge">
<title>COLLEY_CIBBER&#45;&gt;BARTON_BOOTH</title>
<path fill="none" stroke="green" d="M341.96,-364.32C286.87,-384.83 170.09,-428.3 108.57,-451.2"/>
<polygon fill="green" stroke="green" points="106.98,-448.06 98.83,-454.82 109.42,-454.62 106.98,-448.06"/>
</g>
<!-- COLLEY_CIBBER&#45;&gt;CAIUS_GABRIEL_CIBBER -->
<g id="edge4" class="edge">
<title>COLLEY_CIBBER&#45;&gt;CAIUS_GABRIEL_CIBBER</title>
<path fill="none" stroke="green" d="M355.26,-372.12C323.11,-408.35 253.04,-487.3 216.24,-528.77"/>
<polygon fill="green" stroke="green" points="213.57,-526.49 209.55,-536.3 218.81,-531.14 213.57,-526.49"/>
</g>
<!-- COLLEY_CIBBER&#45;&gt;CAMILLO_QUERNO -->
<g id="edge5" class="edge">
<title>COLLEY_CIBBER&#45;&gt;CAMILLO_QUERNO</title>
<path fill="none" stroke="green" d="M347.42,-372.43C298.71,-410.53 190.44,-495.21 136.25,-537.59"/>
<polygon fill="green" stroke="green" points="134.07,-534.85 128.35,-543.77 138.38,-540.37 134.07,-534.85"/>
</g>
<!-- COLLEY_CIBBER&#45;&gt;CARDELL_GOODMAN -->
<g id="edge6" class="edge">
<title>COLLEY_CIBBER&#45;&gt;CARDELL_GOODMAN</title>
<path fill="none" stroke="green" d="M342.14,-351.55C329.57,-350.91 314.61,-350.15 300.42,-349.43"/>
<polygon fill="green" stroke="green" points="300.43,-345.92 290.26,-348.91 300.07,-352.91 300.43,-345.92"/>
</g>
<!-- COLLEY_CIBBER&#45;&gt;CHARLES_FLEETWOOD -->
<g id="edge7" class="edge">
<title>COLLEY_CIBBER&#45;&gt;CHARLES_FLEETWOOD</title>
<path fill="none" stroke="green" d="M341.94,-354.29C285.45,-356.54 163.27,-361.4 93.37,-364.19"/>
<polygon fill="green" stroke="green" points="92.88,-360.7 83.03,-364.6 93.16,-367.7 92.88,-360.7"/>
</g>
<!-- DULNESS -->
<g id="node8" class="node">
<title>DULNESS</title>
<polygon fill="none" stroke="black" points="165.35,-327.59 92.35,-327.59 92.35,-291.59 165.35,-291.59 165.35,-327.59"/>
<text text-anchor="start" x="100.35" y="-305.89" font-family="arial" font-size="14.00"> Dulness </text>
</g>
<!-- COLLEY_CIBBER&#45;&gt;DULNESS -->
<g id="edge8" class="edge">
<title>COLLEY_CIBBER&#45;&gt;DULNESS</title>
<path fill="none" stroke="green" d="M341.83,-347.66C300.09,-340.2 224.53,-326.69 175.55,-317.94"/>
<polygon fill="green" stroke="green" points="175.98,-314.46 165.52,-316.14 174.75,-321.35 175.98,-314.46"/>
</g>
<!-- EDMUND_CURLL -->
<g id="node9" class="node">
<title>EDMUND_CURLL</title>
<polygon fill="none" stroke="black" points="194.25,-438.88 123.25,-438.88 123.25,-400.88 194.25,-400.88 194.25,-438.88"/>
<text text-anchor="start" x="131.25" y="-423.68" font-family="arial" font-size="14.00"> Edmund</text>
<text text-anchor="start" x="142.75" y="-408.68" font-family="arial" font-size="14.00">Curll </text>
</g>
<!-- COLLEY_CIBBER&#45;&gt;EDMUND_CURLL -->
<g id="edge9" class="edge">
<title>COLLEY_CIBBER&#45;&gt;EDMUND_CURLL</title>
<path fill="none" stroke="green" d="M342.03,-362.51C306.08,-373.76 245.61,-392.69 204.03,-405.71"/>
<polygon fill="green" stroke="green" points="202.91,-402.39 194.41,-408.71 205,-409.07 202.91,-402.39"/>
</g>
<!-- ELKANAH_SETTLE -->
<g id="node10" class="node">
<title>ELKANAH_SETTLE</title>
<polygon fill="none" stroke="black" points="599.9,-642.68 530.9,-642.68 530.9,-604.68 599.9,-604.68 599.9,-642.68"/>
<text text-anchor="start" x="538.9" y="-627.48" font-family="arial" font-size="14.00"> Elkanah</text>
<text text-anchor="start" x="545.9" y="-612.48" font-family="arial" font-size="14.00">Settle </text>
</g>
<!-- COLLEY_CIBBER&#45;&gt;ELKANAH_SETTLE -->
<g id="edge10" class="edge">
<title>COLLEY_CIBBER&#45;&gt;ELKANAH_SETTLE</title>
<path fill="none" stroke="green" d="M385.75,-372.11C419.43,-419.27 506.86,-541.7 545.98,-596.48"/>
<polygon fill="green" stroke="green" points="543.17,-598.57 551.83,-604.67 548.86,-594.5 543.17,-598.57"/>
</g>
<!-- FRANCIS_ATTERBURY -->
<g id="node11" class="node">
<title>FRANCIS_ATTERBURY</title>
<polygon fill="none" stroke="black" points="506.91,-693.47 431.91,-693.47 431.91,-655.47 506.91,-655.47 506.91,-693.47"/>
<text text-anchor="start" x="444.91" y="-678.27" font-family="arial" font-size="14.00"> Francis</text>
<text text-anchor="start" x="439.91" y="-663.27" font-family="arial" font-size="14.00">Atterbury </text>
</g>
<!-- COLLEY_CIBBER&#45;&gt;FRANCIS_ATTERBURY -->
<g id="edge11" class="edge">
<title>COLLEY_CIBBER&#45;&gt;FRANCIS_ATTERBURY</title>
<path fill="none" stroke="orange" d="M377.95,-372.22C394.34,-426.37 441.09,-580.89 460.64,-645.51"/>
<polygon fill="orange" stroke="orange" points="457.4,-646.88 463.65,-655.43 464.1,-644.85 457.4,-646.88"/>
</g>
<!-- GEORGE_ETHEREGE -->
<g id="node12" class="node">
<title>GEORGE_ETHEREGE</title>
<polygon fill="none" stroke="black" points="433.79,-632.21 358.79,-632.21 358.79,-594.21 433.79,-594.21 433.79,-632.21"/>
<text text-anchor="start" x="371.29" y="-617.01" font-family="arial" font-size="14.00"> George</text>
<text text-anchor="start" x="366.79" y="-602.01" font-family="arial" font-size="14.00">Etherege </text>
</g>
<!-- COLLEY_CIBBER&#45;&gt;GEORGE_ETHEREGE -->
<g id="edge12" class="edge">
<title>COLLEY_CIBBER&#45;&gt;GEORGE_ETHEREGE</title>
<path fill="none" stroke="green" d="M373.93,-372.21C378.11,-417.21 388.57,-530.05 393.56,-583.82"/>
<polygon fill="green" stroke="green" points="390.1,-584.42 394.51,-594.05 397.07,-583.77 390.1,-584.42"/>
</g>
<!-- GEORGE_I -->
<g id="node13" class="node">
<title>GEORGE_I</title>
<polygon fill="none" stroke="black" points="499.21,-557.97 433.21,-557.97 433.21,-519.97 499.21,-519.97 499.21,-557.97"/>
<text text-anchor="start" x="441.21" y="-542.77" font-family="arial" font-size="14.00"> George</text>
<text text-anchor="start" x="462.21" y="-527.77" font-family="arial" font-size="14.00">I </text>
</g>
<!-- COLLEY_CIBBER&#45;&gt;GEORGE_I -->
<g id="edge13" class="edge">
<title>COLLEY_CIBBER&#45;&gt;GEORGE_I</title>
<path fill="none" stroke="green" d="M381.87,-372.28C398.53,-405.2 432.62,-472.58 451.97,-510.83"/>
<polygon fill="green" stroke="green" points="448.92,-512.54 456.55,-519.88 455.16,-509.38 448.92,-512.54"/>
</g>
<!-- GEORGE_II -->
<g id="node14" class="node">
<title>GEORGE_II</title>
<polygon fill="none" stroke="black" points="255.36,-669.86 189.36,-669.86 189.36,-631.86 255.36,-631.86 255.36,-669.86"/>
<text text-anchor="start" x="197.36" y="-654.66" font-family="arial" font-size="14.00"> George</text>
<text text-anchor="start" x="216.36" y="-639.66" font-family="arial" font-size="14.00">II </text>
</g>
<!-- COLLEY_CIBBER&#45;&gt;GEORGE_II -->
<g id="edge14" class="edge">
<title>COLLEY_CIBBER&#45;&gt;GEORGE_II</title>
<path fill="none" stroke="green" d="M362.56,-372.16C336.94,-423.09 266.83,-562.45 236.57,-622.6"/>
<polygon fill="green" stroke="green" points="233.44,-621.04 232.07,-631.55 239.69,-624.19 233.44,-621.04"/>
</g>
<!-- HENRY_JANSSEN -->
<g id="node15" class="node">
<title>HENRY_JANSSEN</title>
<polygon fill="none" stroke="black" points="408.99,-495.02 337.99,-495.02 337.99,-457.02 408.99,-457.02 408.99,-495.02"/>
<text text-anchor="start" x="353.49" y="-479.82" font-family="arial" font-size="14.00"> Henry</text>
<text text-anchor="start" x="345.99" y="-464.82" font-family="arial" font-size="14.00">Janssen </text>
</g>
<!-- COLLEY_CIBBER&#45;&gt;HENRY_JANSSEN -->
<g id="edge15" class="edge">
<title>COLLEY_CIBBER&#45;&gt;HENRY_JANSSEN</title>
<path fill="none" stroke="green" d="M372.37,-372.29C372.58,-392.23 372.92,-423.67 373.17,-446.71"/>
<polygon fill="green" stroke="green" points="369.67,-446.99 373.28,-456.95 376.67,-446.91 369.67,-446.99"/>
</g>
<!-- ISAAC_NEWTON -->
<g id="node16" class="node">
<title>ISAAC_NEWTON</title>
<polygon fill="none" stroke="black" points="338.66,-585.29 272.66,-585.29 272.66,-547.29 338.66,-547.29 338.66,-585.29"/>
<text text-anchor="start" x="287.16" y="-570.09" font-family="arial" font-size="14.00"> Isaac</text>
<text text-anchor="start" x="280.66" y="-555.09" font-family="arial" font-size="14.00">Newton </text>
</g>
<!-- COLLEY_CIBBER&#45;&gt;ISAAC_NEWTON -->
<g id="edge16" class="edge">
<title>COLLEY_CIBBER&#45;&gt;ISAAC_NEWTON</title>
<path fill="none" stroke="orange" d="M366.14,-372.38C354.39,-410.04 328.37,-493.49 314.6,-537.63"/>
<polygon fill="orange" stroke="orange" points="311.26,-536.6 311.62,-547.19 317.94,-538.69 311.26,-536.6"/>
</g>
<!-- ISSAC_BARROW -->
<g id="node17" class="node">
<title>ISSAC_BARROW</title>
<polygon fill="none" stroke="black" points="360.16,-705.19 297.16,-705.19 297.16,-667.19 360.16,-667.19 360.16,-705.19"/>
<text text-anchor="start" x="310.66" y="-689.99" font-family="arial" font-size="14.00"> Issac</text>
<text text-anchor="start" x="305.16" y="-674.99" font-family="arial" font-size="14.00">Barrow </text>
</g>
<!-- COLLEY_CIBBER&#45;&gt;ISSAC_BARROW -->
<g id="edge17" class="edge">
<title>COLLEY_CIBBER&#45;&gt;ISSAC_BARROW</title>
<path fill="none" stroke="orange" d="M369.63,-372.43C362.35,-428.2 341.28,-589.55 332.54,-656.52"/>
<polygon fill="orange" stroke="orange" points="329.02,-656.42 331.2,-666.79 335.96,-657.33 329.02,-656.42"/>
</g>
<!-- JOHN_BANKS -->
<g id="node18" class="node">
<title>JOHN_BANKS</title>
<polygon fill="none" stroke="black" points="496.51,-297.14 438.51,-297.14 438.51,-259.14 496.51,-259.14 496.51,-297.14"/>
<text text-anchor="start" x="450.51" y="-281.94" font-family="arial" font-size="14.00"> John</text>
<text text-anchor="start" x="446.51" y="-266.94" font-family="arial" font-size="14.00">Banks </text>
</g>
<!-- COLLEY_CIBBER&#45;&gt;JOHN_BANKS -->
<g id="edge18" class="edge">
<title>COLLEY_CIBBER&#45;&gt;JOHN_BANKS</title>
<path fill="none" stroke="green" d="M396.71,-333.78C408.39,-324.6 422.51,-313.51 435.06,-303.64"/>
<polygon fill="green" stroke="green" points="437.34,-306.3 443.04,-297.37 433.01,-300.8 437.34,-306.3"/>
</g>
<!-- JOHN_DENNIS -->
<g id="node19" class="node">
<title>JOHN_DENNIS</title>
<polygon fill="none" stroke="black" points="673.99,-183.35 611.99,-183.35 611.99,-145.35 673.99,-145.35 673.99,-183.35"/>
<text text-anchor="start" x="625.99" y="-168.15" font-family="arial" font-size="14.00"> John</text>
<text text-anchor="start" x="619.99" y="-153.15" font-family="arial" font-size="14.00">Dennis </text>
</g>
<!-- COLLEY_CIBBER&#45;&gt;JOHN_DENNIS -->
<g id="edge19" class="edge">
<title>COLLEY_CIBBER&#45;&gt;JOHN_DENNIS</title>
<path fill="none" stroke="green" d="M399.62,-333.95C448.89,-299.61 552.28,-227.56 607.1,-189.36"/>
<polygon fill="green" stroke="green" points="609.26,-192.12 615.46,-183.53 605.26,-186.38 609.26,-192.12"/>
</g>
<!-- JOHN_DRYDEN -->
<g id="node20" class="node">
<title>JOHN_DRYDEN</title>
<polygon fill="none" stroke="black" points="579.22,-204.9 515.22,-204.9 515.22,-166.9 579.22,-166.9 579.22,-204.9"/>
<text text-anchor="start" x="530.22" y="-189.7" font-family="arial" font-size="14.00"> John</text>
<text text-anchor="start" x="523.22" y="-174.7" font-family="arial" font-size="14.00">Dryden </text>
</g>
<!-- COLLEY_CIBBER&#45;&gt;JOHN_DRYDEN -->
<g id="edge20" class="edge">
<title>COLLEY_CIBBER&#45;&gt;JOHN_DRYDEN</title>
<path fill="none" stroke="red" d="M399.08,-334C434.04,-304.19 494.18,-246.79 526.08,-212.81"/>
<polygon fill="red" stroke="red" points="528.97,-214.84 533.18,-205.11 523.82,-210.09 528.97,-214.84"/>
</g>
<!-- COLLEY_CIBBER&#45;&gt;JOHN_DRYDEN -->
<g id="edge21" class="edge">
<title>COLLEY_CIBBER&#45;&gt;JOHN_DRYDEN</title>
<path fill="none" stroke="orange" d="M386.06,-334.03C413.23,-303.94 473.68,-245.69 512.38,-211.83"/>
<polygon fill="orange" stroke="orange" points="515.01,-214.19 520.29,-205 510.43,-208.89 515.01,-214.19"/>
</g>
<!-- JOHN_FLETCHER -->
<g id="node21" class="node">
<title>JOHN_FLETCHER</title>
<polygon fill="none" stroke="black" points="608.14,-316.25 539.14,-316.25 539.14,-278.25 608.14,-278.25 608.14,-316.25"/>
<text text-anchor="start" x="556.64" y="-301.05" font-family="arial" font-size="14.00"> John</text>
<text text-anchor="start" x="547.14" y="-286.05" font-family="arial" font-size="14.00">Fletcher </text>
</g>
<!-- COLLEY_CIBBER&#45;&gt;JOHN_FLETCHER -->
<g id="edge22" class="edge">
<title>COLLEY_CIBBER&#45;&gt;JOHN_FLETCHER</title>
<path fill="none" stroke="green" d="M402.32,-344.72C435.88,-335.42 490.43,-320.3 528.95,-309.63"/>
<polygon fill="green" stroke="green" points="530.16,-312.93 538.87,-306.88 528.29,-306.18 530.16,-312.93"/>
</g>
<!-- JOHN_GARTH -->
<g id="node22" class="node">
<title>JOHN_GARTH</title>
<polygon fill="none" stroke="black" points="295.61,-60.66 240.61,-60.66 240.61,-22.66 295.61,-22.66 295.61,-60.66"/>
<text text-anchor="start" x="251.11" y="-45.46" font-family="arial" font-size="14.00"> John</text>
<text text-anchor="start" x="248.61" y="-30.46" font-family="arial" font-size="14.00">Garth </text>
</g>
<!-- COLLEY_CIBBER&#45;&gt;JOHN_GARTH -->
<g id="edge23" class="edge">
<title>COLLEY_CIBBER&#45;&gt;JOHN_GARTH</title>
<path fill="none" stroke="orange" d="M365.81,-334.07C348.21,-281.4 298.75,-133.38 277.75,-70.49"/>
<polygon fill="orange" stroke="orange" points="281,-69.19 274.51,-60.82 274.36,-71.41 281,-69.19"/>
</g>
<!-- JOHN_HERVEY -->
<g id="node23" class="node">
<title>JOHN_HERVEY</title>
<polygon fill="none" stroke="black" points="386.11,-140.73 323.11,-140.73 323.11,-102.73 386.11,-102.73 386.11,-140.73"/>
<text text-anchor="start" x="337.61" y="-125.53" font-family="arial" font-size="14.00"> John</text>
<text text-anchor="start" x="331.11" y="-110.53" font-family="arial" font-size="14.00">Hervey </text>
</g>
<!-- COLLEY_CIBBER&#45;&gt;JOHN_HERVEY -->
<g id="edge24" class="edge">
<title>COLLEY_CIBBER&#45;&gt;JOHN_HERVEY</title>
<path fill="none" stroke="green" d="M370.69,-333.76C367.61,-293.17 360.46,-198.86 356.82,-150.88"/>
<polygon fill="green" stroke="green" points="360.3,-150.54 356.06,-140.84 353.32,-151.07 360.3,-150.54"/>
</g>
<!-- JOHN_LOCKE -->
<g id="node24" class="node">
<title>JOHN_LOCKE</title>
<polygon fill="none" stroke="black" points="365.99,-254.91 309.99,-254.91 309.99,-216.91 365.99,-216.91 365.99,-254.91"/>
<text text-anchor="start" x="320.99" y="-239.71" font-family="arial" font-size="14.00"> John</text>
<text text-anchor="start" x="317.99" y="-224.71" font-family="arial" font-size="14.00">Locke </text>
</g>
<!-- COLLEY_CIBBER&#45;&gt;JOHN_LOCKE -->
<g id="edge25" class="edge">
<title>COLLEY_CIBBER&#45;&gt;JOHN_LOCKE</title>
<path fill="none" stroke="orange" d="M366.59,-334C361.11,-315.19 352.65,-286.21 346.36,-264.62"/>
<polygon fill="orange" stroke="orange" points="349.71,-263.61 343.55,-254.99 342.99,-265.57 349.71,-263.61"/>
</g>
<!-- JOHN_OZELL -->
<g id="node25" class="node">
<title>JOHN_OZELL</title>
<polygon fill="none" stroke="black" points="196.15,-106.46 142.15,-106.46 142.15,-68.46 196.15,-68.46 196.15,-106.46"/>
<text text-anchor="start" x="152.15" y="-91.26" font-family="arial" font-size="14.00"> John</text>
<text text-anchor="start" x="151.15" y="-76.26" font-family="arial" font-size="14.00">Ozell </text>
</g>
<!-- COLLEY_CIBBER&#45;&gt;JOHN_OZELL -->
<g id="edge26" class="edge">
<title>COLLEY_CIBBER&#45;&gt;JOHN_OZELL</title>
<path fill="none" stroke="green" d="M357.56,-333.98C322.09,-287.57 231.28,-168.76 190.06,-114.83"/>
<polygon fill="green" stroke="green" points="192.74,-112.57 183.89,-106.75 187.18,-116.82 192.74,-112.57"/>
</g>
<!-- JOSEPH_ADDISON -->
<g id="node26" class="node">
<title>JOSEPH_ADDISON</title>
<polygon fill="none" stroke="black" points="598.86,-100.64 529.86,-100.64 529.86,-62.64 598.86,-62.64 598.86,-100.64"/>
<text text-anchor="start" x="540.36" y="-85.44" font-family="arial" font-size="14.00"> Joseph</text>
<text text-anchor="start" x="537.86" y="-70.44" font-family="arial" font-size="14.00">Addison </text>
</g>
<!-- COLLEY_CIBBER&#45;&gt;JOSEPH_ADDISON -->
<g id="edge27" class="edge">
<title>COLLEY_CIBBER&#45;&gt;JOSEPH_ADDISON</title>
<path fill="none" stroke="orange" d="M385.67,-334C419.17,-286.69 506.13,-163.88 545.04,-108.92"/>
<polygon fill="orange" stroke="orange" points="547.93,-110.89 550.86,-100.71 542.22,-106.85 547.93,-110.89"/>
</g>
<!-- LAURENCE_EUSDEN -->
<g id="node27" class="node">
<title>LAURENCE_EUSDEN</title>
<polygon fill="none" stroke="black" points="508.01,-70.15 431.01,-70.15 431.01,-32.15 508.01,-32.15 508.01,-70.15"/>
<text text-anchor="start" x="439.01" y="-54.95" font-family="arial" font-size="14.00"> Laurence</text>
<text text-anchor="start" x="444.51" y="-39.95" font-family="arial" font-size="14.00">Eusden </text>
</g>
<!-- COLLEY_CIBBER&#45;&gt;LAURENCE_EUSDEN -->
<g id="edge28" class="edge">
<title>COLLEY_CIBBER&#45;&gt;LAURENCE_EUSDEN</title>
<path fill="none" stroke="green" d="M378.4,-333.74C395.02,-282.18 440.45,-141.28 460.17,-80.12"/>
<polygon fill="green" stroke="green" points="463.58,-80.93 463.32,-70.33 456.92,-78.78 463.58,-80.93"/>
</g>
<!-- LEWIS_THEOBALD -->
<g id="node28" class="node">
<title>LEWIS_THEOBALD</title>
<polygon fill="none" stroke="black" points="485.58,-181.57 408.58,-181.57 408.58,-143.57 485.58,-143.57 485.58,-181.57"/>
<text text-anchor="start" x="427.58" y="-166.37" font-family="arial" font-size="14.00"> Lewis</text>
<text text-anchor="start" x="416.58" y="-151.37" font-family="arial" font-size="14.00">Theobald </text>
</g>
<!-- COLLEY_CIBBER&#45;&gt;LEWIS_THEOBALD -->
<g id="edge29" class="edge">
<title>COLLEY_CIBBER&#45;&gt;LEWIS_THEOBALD</title>
<path fill="none" stroke="green" d="M379.75,-333.77C393,-300.09 420.38,-230.48 435.83,-191.19"/>
<polygon fill="green" stroke="green" points="439.18,-192.24 439.58,-181.66 432.66,-189.68 439.18,-192.24"/>
</g>
<!-- LORD_BISHOP_OF_LONDON -->
<g id="node29" class="node">
<title>LORD_BISHOP_OF_LONDON</title>
<polygon fill="none" stroke="black" points="419.93,-38 327.93,-38 327.93,0 419.93,0 419.93,-38"/>
<text text-anchor="start" x="335.93" y="-22.8" font-family="arial" font-size="14.00"> Lord Bishop</text>
<text text-anchor="start" x="341.93" y="-7.8" font-family="arial" font-size="14.00">of London </text>
</g>
<!-- COLLEY_CIBBER&#45;&gt;LORD_BISHOP_OF_LONDON -->
<g id="edge30" class="edge">
<title>COLLEY_CIBBER&#45;&gt;LORD_BISHOP_OF_LONDON</title>
<path fill="none" stroke="green" d="M372.26,-333.68C372.56,-277.61 373.42,-115.16 373.78,-48.29"/>
<polygon fill="green" stroke="green" points="377.28,-48.06 373.83,-38.04 370.28,-48.02 377.28,-48.06"/>
</g>
<!-- MARTINUS_SCRIBLERUS -->
<g id="node30" class="node">
<title>MARTINUS_SCRIBLERUS</title>
<polygon fill="none" stroke="black" points="292.44,-172.2 212.44,-172.2 212.44,-134.2 292.44,-134.2 292.44,-172.2"/>
<text text-anchor="start" x="223.94" y="-157" font-family="arial" font-size="14.00"> Martinus</text>
<text text-anchor="start" x="220.44" y="-142" font-family="arial" font-size="14.00">Scriblerus </text>
</g>
<!-- COLLEY_CIBBER&#45;&gt;MARTINUS_SCRIBLERUS -->
<g id="edge31" class="edge">
<title>COLLEY_CIBBER&#45;&gt;MARTINUS_SCRIBLERUS</title>
<path fill="none" stroke="green" d="M360.68,-333.92C339.4,-298.4 293.78,-222.22 269.1,-181.02"/>
<polygon fill="green" stroke="green" points="272.02,-179.08 263.88,-172.3 266.02,-182.68 272.02,-179.08"/>
</g>
<!-- MATTHEW_PRIOR -->
<g id="node31" class="node">
<title>MATTHEW_PRIOR</title>
<polygon fill="none" stroke="black" points="244.34,-262.14 172.34,-262.14 172.34,-224.14 244.34,-224.14 244.34,-262.14"/>
<text text-anchor="start" x="180.34" y="-246.94" font-family="arial" font-size="14.00"> Matthew</text>
<text text-anchor="start" x="191.84" y="-231.94" font-family="arial" font-size="14.00">Prior </text>
</g>
<!-- COLLEY_CIBBER&#45;&gt;MATTHEW_PRIOR -->
<g id="edge32" class="edge">
<title>COLLEY_CIBBER&#45;&gt;MATTHEW_PRIOR</title>
<path fill="none" stroke="red" d="M343.62,-333.93C316.34,-315.62 275.07,-287.92 245.28,-267.93"/>
<polygon fill="red" stroke="red" points="247.08,-264.92 236.83,-262.26 243.18,-270.73 247.08,-264.92"/>
</g>
<!-- PHILIP_DORMER_STANHOPE -->
<g id="node32" class="node">
<title>PHILIP_DORMER_STANHOPE</title>
<polygon fill="none" stroke="black" points="168.72,-191.42 65.72,-191.42 65.72,-153.42 168.72,-153.42 168.72,-191.42"/>
<text text-anchor="start" x="73.72" y="-176.22" font-family="arial" font-size="14.00"> Philip Dormer</text>
<text text-anchor="start" x="86.22" y="-161.22" font-family="arial" font-size="14.00">Stanhope </text>
</g>
<!-- COLLEY_CIBBER&#45;&gt;PHILIP_DORMER_STANHOPE -->
<g id="edge33" class="edge">
<title>COLLEY_CIBBER&#45;&gt;PHILIP_DORMER_STANHOPE</title>
<path fill="none" stroke="green" d="M351.87,-333.75C310.7,-300.64 216.73,-233.61 160.98,-197.17"/>
<polygon fill="green" stroke="green" points="162.67,-194.09 152.37,-191.59 158.86,-199.97 162.67,-194.09"/>
</g>
<!-- COLLEY_CIBBER&#45;&gt;PHILIP_DORMER_STANHOPE -->
<g id="edge34" class="edge">
<title>COLLEY_CIBBER&#45;&gt;PHILIP_DORMER_STANHOPE</title>
<path fill="none" stroke="red" d="M342.1,-337.16C292.23,-305.61 193.3,-235.57 144.99,-197.69"/>
<polygon fill="red" stroke="red" points="147.14,-194.93 137.13,-191.45 142.79,-200.41 147.14,-194.93"/>
</g>
<!-- RICHARD_BENTLEY -->
<g id="node33" class="node">
<title>RICHARD_BENTLEY</title>
<polygon fill="none" stroke="black" points="84.19,-267.49 17.19,-267.49 17.19,-229.49 84.19,-229.49 84.19,-267.49"/>
<text text-anchor="start" x="25.19" y="-252.29" font-family="arial" font-size="14.00"> Richard</text>
<text text-anchor="start" x="26.19" y="-237.29" font-family="arial" font-size="14.00">Bentley </text>
</g>
<!-- COLLEY_CIBBER&#45;&gt;RICHARD_BENTLEY -->
<g id="edge35" class="edge">
<title>COLLEY_CIBBER&#45;&gt;RICHARD_BENTLEY</title>
<path fill="none" stroke="green" d="M341.91,-343.24C284.68,-324.62 160.33,-284.16 94.16,-262.63"/>
<polygon fill="green" stroke="green" points="95.04,-259.24 84.44,-259.47 92.87,-265.89 95.04,-259.24"/>
</g>
<!-- ROBERT_WALPOLE -->
<g id="node34" class="node">
<title>ROBERT_WALPOLE</title>
<polygon fill="none" stroke="black" points="709.05,-361.42 640.05,-361.42 640.05,-323.42 709.05,-323.42 709.05,-361.42"/>
<text text-anchor="start" x="652.05" y="-346.22" font-family="arial" font-size="14.00"> Robert</text>
<text text-anchor="start" x="648.05" y="-331.22" font-family="arial" font-size="14.00">Walpole </text>
</g>
<!-- COLLEY_CIBBER&#45;&gt;ROBERT_WALPOLE -->
<g id="edge36" class="edge">
<title>COLLEY_CIBBER&#45;&gt;ROBERT_WALPOLE</title>
<path fill="none" stroke="green" d="M402.26,-352.02C455.64,-350.14 567.14,-346.21 629.63,-344.01"/>
<polygon fill="green" stroke="green" points="630.1,-347.49 639.97,-343.64 629.85,-340.5 630.1,-347.49"/>
</g>
<!-- STEPHEN_DUCK -->
<g id="node35" class="node">
<title>STEPHEN_DUCK</title>
<polygon fill="none" stroke="black" points="721.77,-270.09 650.77,-270.09 650.77,-232.09 721.77,-232.09 721.77,-270.09"/>
<text text-anchor="start" x="658.77" y="-254.89" font-family="arial" font-size="14.00"> Stephen</text>
<text text-anchor="start" x="668.77" y="-239.89" font-family="arial" font-size="14.00">Duck </text>
</g>
<!-- COLLEY_CIBBER&#45;&gt;STEPHEN_DUCK -->
<g id="edge37" class="edge">
<title>COLLEY_CIBBER&#45;&gt;STEPHEN_DUCK</title>
<path fill="none" stroke="green" d="M402.28,-343.3C457.63,-325.33 575.82,-286.95 640.92,-265.82"/>
<polygon fill="green" stroke="green" points="642.08,-269.12 650.51,-262.7 639.92,-262.46 642.08,-269.12"/>
</g>
<!-- THOMAS_ARCHER -->
<g id="node36" class="node">
<title>THOMAS_ARCHER</title>
<polygon fill="none" stroke="black" points="731.26,-452.73 661.26,-452.73 661.26,-414.73 731.26,-414.73 731.26,-452.73"/>
<text text-anchor="start" x="669.26" y="-437.53" font-family="arial" font-size="14.00"> Thomas</text>
<text text-anchor="start" x="674.26" y="-422.53" font-family="arial" font-size="14.00">Archer </text>
</g>
<!-- COLLEY_CIBBER&#45;&gt;THOMAS_ARCHER -->
<g id="edge38" class="edge">
<title>COLLEY_CIBBER&#45;&gt;THOMAS_ARCHER</title>
<path fill="none" stroke="green" d="M402.36,-360.6C459.61,-374.84 584.18,-405.84 651.29,-422.54"/>
<polygon fill="green" stroke="green" points="650.6,-425.97 661.15,-424.99 652.29,-419.18 650.6,-425.97"/>
</g>
<!-- THOMAS_COOKE -->
<g id="node37" class="node">
<title>THOMAS_COOKE</title>
<polygon fill="none" stroke="black" points="620.14,-431.5 550.14,-431.5 550.14,-393.5 620.14,-393.5 620.14,-431.5"/>
<text text-anchor="start" x="558.14" y="-416.3" font-family="arial" font-size="14.00"> Thomas</text>
<text text-anchor="start" x="563.64" y="-401.3" font-family="arial" font-size="14.00">Cooke </text>
</g>
<!-- COLLEY_CIBBER&#45;&gt;THOMAS_COOKE -->
<g id="edge39" class="edge">
<title>COLLEY_CIBBER&#45;&gt;THOMAS_COOKE</title>
<path fill="none" stroke="green" d="M402.22,-361.47C438.13,-371.49 498.55,-388.34 540.06,-399.92"/>
<polygon fill="green" stroke="green" points="539.35,-403.36 549.92,-402.67 541.23,-396.61 539.35,-403.36"/>
</g>
<!-- WILLIAM_BROOME -->
<g id="node38" class="node">
<title>WILLIAM_BROOME</title>
<polygon fill="none" stroke="black" points="596.85,-543.09 528.85,-543.09 528.85,-505.09 596.85,-505.09 596.85,-543.09"/>
<text text-anchor="start" x="538.35" y="-527.89" font-family="arial" font-size="14.00"> William</text>
<text text-anchor="start" x="536.85" y="-512.89" font-family="arial" font-size="14.00">Broome </text>
</g>
<!-- COLLEY_CIBBER&#45;&gt;WILLIAM_BROOME -->
<g id="edge40" class="edge">
<title>COLLEY_CIBBER&#45;&gt;WILLIAM_BROOME</title>
<path fill="none" stroke="green" d="M393.66,-372.37C427.95,-403.11 495.05,-463.29 533.64,-497.9"/>
<polygon fill="green" stroke="green" points="531.64,-500.81 541.43,-504.88 536.32,-495.6 531.64,-500.81"/>
</g>
<!-- WILLIAM_CONGREVE -->
<g id="node39" class="node">
<title>WILLIAM_CONGREVE</title>
<polygon fill="none" stroke="black" points="522.45,-431.93 443.45,-431.93 443.45,-393.93 522.45,-393.93 522.45,-431.93"/>
<text text-anchor="start" x="458.45" y="-416.73" font-family="arial" font-size="14.00"> William</text>
<text text-anchor="start" x="451.45" y="-401.73" font-family="arial" font-size="14.00">Congreve </text>
</g>
<!-- COLLEY_CIBBER&#45;&gt;WILLIAM_CONGREVE -->
<g id="edge41" class="edge">
<title>COLLEY_CIBBER&#45;&gt;WILLIAM_CONGREVE</title>
<path fill="none" stroke="orange" d="M402.43,-369.44C413.56,-375.45 426.41,-382.39 438.52,-388.93"/>
<polygon fill="orange" stroke="orange" points="437.15,-392.16 447.61,-393.84 440.47,-386.01 437.15,-392.16"/>
</g>
<!-- WILLIAM_TEMPLE -->
<g id="node40" class="node">
<title>WILLIAM_TEMPLE</title>
<polygon fill="none" stroke="black" points="689.78,-546.06 624.78,-546.06 624.78,-508.06 689.78,-508.06 689.78,-546.06"/>
<text text-anchor="start" x="632.78" y="-530.86" font-family="arial" font-size="14.00"> William</text>
<text text-anchor="start" x="632.78" y="-515.86" font-family="arial" font-size="14.00">Temple </text>
</g>
<!-- COLLEY_CIBBER&#45;&gt;WILLIAM_TEMPLE -->
<g id="edge42" class="edge">
<title>COLLEY_CIBBER&#45;&gt;WILLIAM_TEMPLE</title>
<path fill="none" stroke="green" d="M402.4,-371.54C454.1,-403.08 559.45,-467.37 617.2,-502.61"/>
<polygon fill="green" stroke="green" points="615.69,-505.78 626.05,-508 619.33,-499.81 615.69,-505.78"/>
</g>
</g>
</svg>
