<?xml version="1.0" encoding="UTF-8" standalone="no"?>
<!DOCTYPE svg PUBLIC "-//W3C//DTD SVG 1.1//EN"
 "http://www.w3.org/Graphics/SVG/1.1/DTD/svg11.dtd">
<!-- Generated by graphviz version 2.50.0 (0)
 -->
<!-- Title: G Pages: 1 -->
<svg width="2775pt" height="2588pt"
 viewBox="0.00 0.00 2774.84 2588.40" xmlns="http://www.w3.org/2000/svg" xmlns:xlink="http://www.w3.org/1999/xlink">
<g id="graph0" class="graph" transform="scale(1 1) rotate(0) translate(4 2584.4)">
<title>G</title>
<polygon fill="white" stroke="transparent" points="-4,4 -4,-2584.4 2770.84,-2584.4 2770.84,4 -4,4"/>
<!-- ABEL_EVANS -->
<g id="node1" class="node">
<title>ABEL_EVANS</title>
<polygon fill="none" stroke="black" points="54,-1309.31 0,-1309.31 0,-1271.31 54,-1271.31 54,-1309.31"/>
<text text-anchor="start" x="12" y="-1294.11" font-family="Times,serif" font-size="14.00"> Abel</text>
<text text-anchor="start" x="8.5" y="-1279.11" font-family="Times,serif" font-size="14.00">Evans </text>
</g>
<!-- ABEL_ROPER -->
<g id="node2" class="node">
<title>ABEL_ROPER</title>
<polygon fill="none" stroke="black" points="220.4,-1239.85 166.4,-1239.85 166.4,-1201.85 220.4,-1201.85 220.4,-1239.85"/>
<text text-anchor="start" x="178.4" y="-1224.65" font-family="Times,serif" font-size="14.00"> Abel</text>
<text text-anchor="start" x="174.9" y="-1209.65" font-family="Times,serif" font-size="14.00">Roper </text>
</g>
<!-- ALEXANDER_POPE -->
<g id="node3" class="node">
<title>ALEXANDER_POPE</title>
<polygon fill="none" stroke="black" points="246.23,-1103.72 170.23,-1103.72 170.23,-1065.72 246.23,-1065.72 246.23,-1103.72"/>
<text text-anchor="start" x="178.23" y="-1088.52" font-family="Times,serif" font-size="14.00"> Alexander</text>
<text text-anchor="start" x="192.73" y="-1073.52" font-family="Times,serif" font-size="14.00">Pope </text>
</g>
<!-- AMBROSE_PHILLIPS -->
<g id="node4" class="node">
<title>AMBROSE_PHILLIPS</title>
<polygon fill="none" stroke="black" points="274.78,-962.27 204.78,-962.27 204.78,-924.27 274.78,-924.27 274.78,-962.27"/>
<text text-anchor="start" x="212.78" y="-947.07" font-family="Times,serif" font-size="14.00"> Ambrose</text>
<text text-anchor="start" x="216.78" y="-932.07" font-family="Times,serif" font-size="14.00">Phillips </text>
</g>
<!-- BERNARD_LINTOT -->
<g id="node5" class="node">
<title>BERNARD_LINTOT</title>
<polygon fill="none" stroke="black" points="316.95,-830.89 252.95,-830.89 252.95,-792.89 316.95,-792.89 316.95,-830.89"/>
<text text-anchor="start" x="260.95" y="-815.69" font-family="Times,serif" font-size="14.00"> Bernard</text>
<text text-anchor="start" x="266.45" y="-800.69" font-family="Times,serif" font-size="14.00">Lintot </text>
</g>
<!-- BESALEEL_MORRIS -->
<g id="node6" class="node">
<title>BESALEEL_MORRIS</title>
<polygon fill="none" stroke="black" points="376.24,-706.98 310.24,-706.98 310.24,-668.98 376.24,-668.98 376.24,-706.98"/>
<text text-anchor="start" x="318.24" y="-691.78" font-family="Times,serif" font-size="14.00"> Besaleel</text>
<text text-anchor="start" x="322.24" y="-676.78" font-family="Times,serif" font-size="14.00">Morris </text>
</g>
<!-- CHARLES_GILDON -->
<g id="node7" class="node">
<title>CHARLES_GILDON</title>
<polygon fill="none" stroke="black" points="444.95,-590.88 382.95,-590.88 382.95,-552.88 444.95,-552.88 444.95,-590.88"/>
<text text-anchor="start" x="390.95" y="-575.68" font-family="Times,serif" font-size="14.00"> Charles</text>
<text text-anchor="start" x="392.95" y="-560.68" font-family="Times,serif" font-size="14.00">Gildon </text>
</g>
<!-- CLOACINA -->
<g id="node8" class="node">
<title>CLOACINA</title>
<polygon fill="none" stroke="black" points="534.61,-479.72 462.61,-479.72 462.61,-443.72 534.61,-443.72 534.61,-479.72"/>
<text text-anchor="start" x="470.61" y="-458.02" font-family="Times,serif" font-size="14.00"> Cloacina </text>
</g>
<!-- COLLEY_CIBBER -->
<g id="node9" class="node">
<title>COLLEY_CIBBER</title>
<polygon fill="none" stroke="black" points="621.45,-382.17 564.45,-382.17 564.45,-344.17 621.45,-344.17 621.45,-382.17"/>
<text text-anchor="start" x="572.95" y="-366.97" font-family="Times,serif" font-size="14.00"> Colley</text>
<text text-anchor="start" x="572.45" y="-351.97" font-family="Times,serif" font-size="14.00">Cibber </text>
</g>
<!-- DANIEL_DEFOE -->
<g id="node10" class="node">
<title>DANIEL_DEFOE</title>
<polygon fill="none" stroke="black" points="718.94,-299.13 662.94,-299.13 662.94,-261.13 718.94,-261.13 718.94,-299.13"/>
<text text-anchor="start" x="670.94" y="-283.93" font-family="Times,serif" font-size="14.00"> Daniel</text>
<text text-anchor="start" x="672.44" y="-268.93" font-family="Times,serif" font-size="14.00">Defoe </text>
</g>
<!-- EDMUND_CURLL -->
<g id="node11" class="node">
<title>EDMUND_CURLL</title>
<polygon fill="none" stroke="black" points="1496.33,-1309.31 1429.33,-1309.31 1429.33,-1271.31 1496.33,-1271.31 1496.33,-1309.31"/>
<text text-anchor="start" x="1437.33" y="-1294.11" font-family="Times,serif" font-size="14.00"> Edmund</text>
<text text-anchor="start" x="1446.83" y="-1279.11" font-family="Times,serif" font-size="14.00">Curll </text>
</g>
<!-- EDMUND_CURLL&#45;&gt;ABEL_EVANS -->
<g id="edge1" class="edge">
<title>EDMUND_CURLL&#45;&gt;ABEL_EVANS</title>
<path fill="none" stroke="orange" d="M1429.1,-1290.31C1235.51,-1290.31 267.12,-1290.31 64.29,-1290.31"/>
<polygon fill="orange" stroke="orange" points="64.15,-1286.81 54.15,-1290.31 64.15,-1293.81 64.15,-1286.81"/>
</g>
<!-- EDMUND_CURLL&#45;&gt;ABEL_ROPER -->
<g id="edge2" class="edge">
<title>EDMUND_CURLL&#45;&gt;ABEL_ROPER</title>
<path fill="none" stroke="green" d="M1429.2,-1288.47C1250.92,-1278.71 417.36,-1233.1 230.59,-1222.88"/>
<polygon fill="green" stroke="green" points="230.63,-1219.38 220.46,-1222.33 230.25,-1226.37 230.63,-1219.38"/>
</g>
<!-- EDMUND_CURLL&#45;&gt;ALEXANDER_POPE -->
<g id="edge3" class="edge">
<title>EDMUND_CURLL&#45;&gt;ALEXANDER_POPE</title>
<path fill="none" stroke="red" d="M1429.01,-1282.34C1255.06,-1248.09 461.4,-1117.9 256.58,-1089.8"/>
<polygon fill="red" stroke="red" points="256.81,-1086.3 246.43,-1088.43 255.88,-1093.24 256.81,-1086.3"/>
</g>
<!-- EDMUND_CURLL&#45;&gt;ALEXANDER_POPE -->
<g id="edge4" class="edge">
<title>EDMUND_CURLL&#45;&gt;ALEXANDER_POPE</title>
<path fill="none" stroke="orange" d="M1429.21,-1287.2C1255.57,-1264.51 460.48,-1134.37 256.19,-1095.43"/>
<polygon fill="orange" stroke="orange" points="256.84,-1091.99 246.36,-1093.53 255.52,-1098.86 256.84,-1091.99"/>
</g>
<!-- EDMUND_CURLL&#45;&gt;AMBROSE_PHILLIPS -->
<g id="edge5" class="edge">
<title>EDMUND_CURLL&#45;&gt;AMBROSE_PHILLIPS</title>
<path fill="none" stroke="green" d="M1429.16,-1280.76C1257.47,-1232.04 479.92,-1011.41 284.47,-955.95"/>
<polygon fill="green" stroke="green" points="285.38,-952.57 274.81,-953.21 283.47,-959.31 285.38,-952.57"/>
</g>
<!-- EDMUND_CURLL&#45;&gt;BERNARD_LINTOT -->
<g id="edge6" class="edge">
<title>EDMUND_CURLL&#45;&gt;BERNARD_LINTOT</title>
<path fill="none" stroke="green" d="M1429.16,-1276.64C1260.91,-1208.29 511.91,-904.07 326.55,-828.78"/>
<polygon fill="green" stroke="green" points="327.73,-825.49 317.15,-824.97 325.1,-831.97 327.73,-825.49"/>
</g>
<!-- EDMUND_CURLL&#45;&gt;BESALEEL_MORRIS -->
<g id="edge7" class="edge">
<title>EDMUND_CURLL&#45;&gt;BESALEEL_MORRIS</title>
<path fill="none" stroke="green" d="M1429.32,-1272.28C1267.23,-1185.08 564.93,-807.25 385.24,-710.57"/>
<polygon fill="green" stroke="green" points="386.81,-707.45 376.35,-705.79 383.49,-713.61 386.81,-707.45"/>
</g>
<!-- EDMUND_CURLL&#45;&gt;CHARLES_GILDON -->
<g id="edge8" class="edge">
<title>EDMUND_CURLL&#45;&gt;CHARLES_GILDON</title>
<path fill="none" stroke="green" d="M1435.04,-1271.28C1289.51,-1171.6 615.5,-709.93 450.49,-596.91"/>
<polygon fill="green" stroke="green" points="452.35,-593.94 442.12,-591.18 448.4,-599.72 452.35,-593.94"/>
</g>
<!-- EDMUND_CURLL&#45;&gt;CLOACINA -->
<g id="edge9" class="edge">
<title>EDMUND_CURLL&#45;&gt;CLOACINA</title>
<path fill="none" stroke="green" d="M1440.41,-1271.05C1312.06,-1160.75 671.05,-609.91 527.26,-486.35"/>
<polygon fill="green" stroke="green" points="529.51,-483.67 519.65,-479.8 524.95,-488.98 529.51,-483.67"/>
</g>
<!-- EDMUND_CURLL&#45;&gt;COLLEY_CIBBER -->
<g id="edge10" class="edge">
<title>EDMUND_CURLL&#45;&gt;COLLEY_CIBBER</title>
<path fill="none" stroke="green" d="M1447.71,-1271.23C1345.56,-1153.4 757.44,-526.33 621.12,-389.51"/>
<polygon fill="green" stroke="green" points="623.43,-386.87 613.88,-382.29 618.49,-391.83 623.43,-386.87"/>
</g>
<!-- EDMUND_CURLL&#45;&gt;COLLEY_CIBBER -->
<g id="edge11" class="edge">
<title>EDMUND_CURLL&#45;&gt;COLLEY_CIBBER</title>
<path fill="none" stroke="orange" d="M1441.85,-1271.14C1322.92,-1153.18 735.48,-527.16 614.66,-389.8"/>
<polygon fill="orange" stroke="orange" points="617.22,-387.41 608.01,-382.18 611.95,-392.01 617.22,-387.41"/>
</g>
<!-- EDMUND_CURLL&#45;&gt;DANIEL_DEFOE -->
<g id="edge12" class="edge">
<title>EDMUND_CURLL&#45;&gt;DANIEL_DEFOE</title>
<path fill="none" stroke="green" d="M1448.1,-1271.03C1352.77,-1146.27 823.51,-453.62 711.7,-307.28"/>
<polygon fill="green" stroke="green" points="714.37,-305.02 705.52,-299.2 708.81,-309.27 714.37,-305.02"/>
</g>
<!-- EDWARD_WARD -->
<g id="node12" class="node">
<title>EDWARD_WARD</title>
<polygon fill="none" stroke="black" points="829.95,-225.09 767.95,-225.09 767.95,-187.09 829.95,-187.09 829.95,-225.09"/>
<text text-anchor="start" x="775.95" y="-209.89" font-family="Times,serif" font-size="14.00"> Edward</text>
<text text-anchor="start" x="781.95" y="-194.89" font-family="Times,serif" font-size="14.00">Ward </text>
</g>
<!-- EDMUND_CURLL&#45;&gt;EDWARD_WARD -->
<g id="edge13" class="edge">
<title>EDMUND_CURLL&#45;&gt;EDWARD_WARD</title>
<path fill="none" stroke="green" d="M1453.22,-1270.94C1380.56,-1140.25 920.26,-388.21 818.69,-233.79"/>
<polygon fill="green" stroke="green" points="821.5,-231.68 813.06,-225.28 815.66,-235.55 821.5,-231.68"/>
</g>
<!-- EDMUND_CURLL&#45;&gt;EDWARD_WARD -->
<g id="edge14" class="edge">
<title>EDMUND_CURLL&#45;&gt;EDWARD_WARD</title>
<path fill="none" stroke="blue" d="M1448.74,-1271.15C1361.89,-1141.22 902.11,-390.52 813.62,-234.48"/>
<polygon fill="blue" stroke="blue" points="816.51,-232.47 808.56,-225.47 810.41,-235.9 816.51,-232.47"/>
</g>
<!-- EDWARD_YOUNG -->
<g id="node13" class="node">
<title>EDWARD_YOUNG</title>
<polygon fill="none" stroke="black" points="947.7,-161.26 885.7,-161.26 885.7,-123.26 947.7,-123.26 947.7,-161.26"/>
<text text-anchor="start" x="893.7" y="-146.06" font-family="Times,serif" font-size="14.00"> Edward</text>
<text text-anchor="start" x="896.7" y="-131.06" font-family="Times,serif" font-size="14.00">Young </text>
</g>
<!-- EDMUND_CURLL&#45;&gt;EDWARD_YOUNG -->
<g id="edge15" class="edge">
<title>EDMUND_CURLL&#45;&gt;EDWARD_YOUNG</title>
<path fill="none" stroke="orange" d="M1453.58,-1270.87C1389.12,-1135.36 1007.33,-332.78 930.25,-170.76"/>
<polygon fill="orange" stroke="orange" points="933.28,-168.97 925.82,-161.44 926.96,-171.97 933.28,-168.97"/>
</g>
<!-- ELIZABETH_THOMAS -->
<g id="node14" class="node">
<title>ELIZABETH_THOMAS</title>
<polygon fill="none" stroke="black" points="1080.26,-108.69 1009.26,-108.69 1009.26,-70.69 1080.26,-70.69 1080.26,-108.69"/>
<text text-anchor="start" x="1017.26" y="-93.49" font-family="Times,serif" font-size="14.00"> Elizabeth</text>
<text text-anchor="start" x="1020.26" y="-78.49" font-family="Times,serif" font-size="14.00">Thomas </text>
</g>
<!-- EDMUND_CURLL&#45;&gt;ELIZABETH_THOMAS -->
<g id="edge16" class="edge">
<title>EDMUND_CURLL&#45;&gt;ELIZABETH_THOMAS</title>
<path fill="none" stroke="green" d="M1456.09,-1270.97C1407.69,-1131.96 1113.17,-286.15 1054.8,-118.54"/>
<polygon fill="green" stroke="green" points="1058.05,-117.21 1051.45,-108.92 1051.44,-119.51 1058.05,-117.21"/>
</g>
<!-- ELIZA_HAYWOOD -->
<g id="node15" class="node">
<title>ELIZA_HAYWOOD</title>
<polygon fill="none" stroke="black" points="1219.64,-69.13 1146.64,-69.13 1146.64,-31.13 1219.64,-31.13 1219.64,-69.13"/>
<text text-anchor="start" x="1167.14" y="-53.93" font-family="Times,serif" font-size="14.00"> Eliza</text>
<text text-anchor="start" x="1154.64" y="-38.93" font-family="Times,serif" font-size="14.00">Haywood </text>
</g>
<!-- EDMUND_CURLL&#45;&gt;ELIZA_HAYWOOD -->
<g id="edge17" class="edge">
<title>EDMUND_CURLL&#45;&gt;ELIZA_HAYWOOD</title>
<path fill="none" stroke="green" d="M1458.44,-1270.83C1426.37,-1128.66 1228.58,-251.61 1189.75,-79.44"/>
<polygon fill="green" stroke="green" points="1193.13,-78.55 1187.52,-69.57 1186.31,-80.09 1193.13,-78.55"/>
</g>
<!-- GEORGE_DUCKETT -->
<g id="node16" class="node">
<title>GEORGE_DUCKETT</title>
<polygon fill="none" stroke="black" points="1352.62,-45.9 1289.62,-45.9 1289.62,-7.9 1352.62,-7.9 1352.62,-45.9"/>
<text text-anchor="start" x="1299.12" y="-30.7" font-family="Times,serif" font-size="14.00"> George</text>
<text text-anchor="start" x="1297.62" y="-15.7" font-family="Times,serif" font-size="14.00">Duckett </text>
</g>
<!-- EDMUND_CURLL&#45;&gt;GEORGE_DUCKETT -->
<g id="edge18" class="edge">
<title>EDMUND_CURLL&#45;&gt;GEORGE_DUCKETT</title>
<path fill="none" stroke="green" d="M1460.66,-1270.97C1444.58,-1127.59 1343.98,-230.67 1324.42,-56.27"/>
<polygon fill="green" stroke="green" points="1327.89,-55.82 1323.3,-46.28 1320.93,-56.6 1327.89,-55.82"/>
</g>
<!-- GEORGE_RIDPATH -->
<g id="node17" class="node">
<title>GEORGE_RIDPATH</title>
<polygon fill="none" stroke="black" points="1487.33,-38 1424.33,-38 1424.33,0 1487.33,0 1487.33,-38"/>
<text text-anchor="start" x="1433.83" y="-22.8" font-family="Times,serif" font-size="14.00"> George</text>
<text text-anchor="start" x="1432.33" y="-7.8" font-family="Times,serif" font-size="14.00">Ridpath </text>
</g>
<!-- EDMUND_CURLL&#45;&gt;GEORGE_RIDPATH -->
<g id="edge19" class="edge">
<title>EDMUND_CURLL&#45;&gt;GEORGE_RIDPATH</title>
<path fill="none" stroke="green" d="M1462.72,-1271.1C1461.93,-1127.56 1456.95,-223.23 1455.99,-48.28"/>
<polygon fill="green" stroke="green" points="1459.49,-48.03 1455.93,-38.05 1452.49,-48.07 1459.49,-48.03"/>
</g>
<!-- GILES_JACOB -->
<g id="node18" class="node">
<title>GILES_JACOB</title>
<polygon fill="none" stroke="black" points="1613.14,-43.97 1559.14,-43.97 1559.14,-5.97 1613.14,-5.97 1613.14,-43.97"/>
<text text-anchor="start" x="1569.64" y="-28.77" font-family="Times,serif" font-size="14.00"> Giles</text>
<text text-anchor="start" x="1568.64" y="-13.77" font-family="Times,serif" font-size="14.00">Jacob </text>
</g>
<!-- EDMUND_CURLL&#45;&gt;GILES_JACOB -->
<g id="edge20" class="edge">
<title>EDMUND_CURLL&#45;&gt;GILES_JACOB</title>
<path fill="none" stroke="green" d="M1464.69,-1271.19C1478.61,-1128.4 1566.23,-229.25 1583.27,-54.41"/>
<polygon fill="green" stroke="green" points="1586.76,-54.69 1584.24,-44.4 1579.79,-54.01 1586.76,-54.69"/>
</g>
<!-- HENRY_CROMWELL -->
<g id="node19" class="node">
<title>HENRY_CROMWELL</title>
<polygon fill="none" stroke="black" points="1758.52,-64.47 1683.52,-64.47 1683.52,-26.47 1758.52,-26.47 1758.52,-64.47"/>
<text text-anchor="start" x="1702.02" y="-49.27" font-family="Times,serif" font-size="14.00"> Henry</text>
<text text-anchor="start" x="1691.52" y="-34.27" font-family="Times,serif" font-size="14.00">Cromwell </text>
</g>
<!-- EDMUND_CURLL&#45;&gt;HENRY_CROMWELL -->
<g id="edge21" class="edge">
<title>EDMUND_CURLL&#45;&gt;HENRY_CROMWELL</title>
<path fill="none" stroke="red" d="M1466.78,-1271.26C1496.08,-1129.99 1679.38,-246.24 1715.02,-74.41"/>
<polygon fill="red" stroke="red" points="1718.46,-75.07 1717.06,-64.56 1711.6,-73.64 1718.46,-75.07"/>
</g>
<!-- HENRY_CURLL -->
<g id="node20" class="node">
<title>HENRY_CURLL</title>
<polygon fill="none" stroke="black" points="1879.93,-99.31 1825.93,-99.31 1825.93,-61.31 1879.93,-61.31 1879.93,-99.31"/>
<text text-anchor="start" x="1833.93" y="-84.11" font-family="Times,serif" font-size="14.00"> Henry</text>
<text text-anchor="start" x="1836.93" y="-69.11" font-family="Times,serif" font-size="14.00">Curll </text>
</g>
<!-- EDMUND_CURLL&#45;&gt;HENRY_CURLL -->
<g id="edge22" class="edge">
<title>EDMUND_CURLL&#45;&gt;HENRY_CURLL</title>
<path fill="none" stroke="green" d="M1468.96,-1271.3C1513.63,-1132.74 1788.97,-278.7 1843.54,-109.45"/>
<polygon fill="green" stroke="green" points="1846.94,-110.32 1846.67,-99.73 1840.27,-108.17 1846.94,-110.32"/>
</g>
<!-- ISAAC_BARROW -->
<g id="node21" class="node">
<title>ISAAC_BARROW</title>
<polygon fill="none" stroke="black" points="2004.45,-145.25 1943.45,-145.25 1943.45,-107.25 2004.45,-107.25 2004.45,-145.25"/>
<text text-anchor="start" x="1957.95" y="-130.05" font-family="Times,serif" font-size="14.00"> Isaac</text>
<text text-anchor="start" x="1951.45" y="-115.05" font-family="Times,serif" font-size="14.00">Barrow </text>
</g>
<!-- EDMUND_CURLL&#45;&gt;ISAAC_BARROW -->
<g id="edge23" class="edge">
<title>EDMUND_CURLL&#45;&gt;ISAAC_BARROW</title>
<path fill="none" stroke="orange" d="M1471.27,-1271.08C1531.03,-1134.99 1889.72,-318.08 1961.47,-154.68"/>
<polygon fill="orange" stroke="orange" points="1964.77,-155.86 1965.59,-145.29 1958.36,-153.04 1964.77,-155.86"/>
</g>
<!-- ISAAC_NEWTON -->
<g id="node22" class="node">
<title>ISAAC_NEWTON</title>
<polygon fill="none" stroke="black" points="2125.08,-205.48 2062.08,-205.48 2062.08,-167.48 2125.08,-167.48 2125.08,-205.48"/>
<text text-anchor="start" x="2077.58" y="-190.28" font-family="Times,serif" font-size="14.00"> Isaac</text>
<text text-anchor="start" x="2070.08" y="-175.28" font-family="Times,serif" font-size="14.00">Newton </text>
</g>
<!-- EDMUND_CURLL&#45;&gt;ISAAC_NEWTON -->
<g id="edge24" class="edge">
<title>EDMUND_CURLL&#45;&gt;ISAAC_NEWTON</title>
<path fill="none" stroke="orange" d="M1473.78,-1271.15C1548.85,-1139.78 1987.24,-372.58 2077.38,-214.83"/>
<polygon fill="orange" stroke="orange" points="2080.66,-216.16 2082.58,-205.74 2074.58,-212.68 2080.66,-216.16"/>
</g>
<!-- JAMESMOORE_SMITH -->
<g id="node23" class="node">
<title>JAMESMOORE_SMITH</title>
<polygon fill="none" stroke="black" points="2267.43,-288 2172.43,-288 2172.43,-250 2267.43,-250 2267.43,-288"/>
<text text-anchor="start" x="2180.43" y="-272.8" font-family="Times,serif" font-size="14.00"> James&#45;Moore</text>
<text text-anchor="start" x="2201.43" y="-257.8" font-family="Times,serif" font-size="14.00">Smith </text>
</g>
<!-- EDMUND_CURLL&#45;&gt;JAMESMOORE_SMITH -->
<g id="edge25" class="edge">
<title>EDMUND_CURLL&#45;&gt;JAMESMOORE_SMITH</title>
<path fill="none" stroke="green" d="M1476.95,-1271.27C1569.53,-1146.37 2089.64,-444.76 2199.54,-296.51"/>
<polygon fill="green" stroke="green" points="2202.47,-298.44 2205.61,-288.32 2196.84,-294.27 2202.47,-298.44"/>
</g>
<!-- JAMES_MOORE_SMYTHE -->
<g id="node24" class="node">
<title>JAMES_MOORE_SMYTHE</title>
<polygon fill="none" stroke="black" points="2394.68,-395.97 2299.68,-395.97 2299.68,-357.97 2394.68,-357.97 2394.68,-395.97"/>
<text text-anchor="start" x="2307.68" y="-380.77" font-family="Times,serif" font-size="14.00"> James Moore</text>
<text text-anchor="start" x="2324.18" y="-365.77" font-family="Times,serif" font-size="14.00">Smythe </text>
</g>
<!-- EDMUND_CURLL&#45;&gt;JAMES_MOORE_SMYTHE -->
<g id="edge26" class="edge">
<title>EDMUND_CURLL&#45;&gt;JAMES_MOORE_SMYTHE</title>
<path fill="none" stroke="green" d="M1481.3,-1271.23C1594.02,-1154.82 2188.8,-540.54 2321.09,-403.91"/>
<polygon fill="green" stroke="green" points="2324,-405.94 2328.44,-396.32 2318.97,-401.07 2324,-405.94"/>
</g>
<!-- JOHN_ARBUTHNOT -->
<g id="node25" class="node">
<title>JOHN_ARBUTHNOT</title>
<polygon fill="none" stroke="black" points="2491.27,-512.25 2415.27,-512.25 2415.27,-474.25 2491.27,-474.25 2491.27,-512.25"/>
<text text-anchor="start" x="2438.27" y="-497.05" font-family="Times,serif" font-size="14.00"> John</text>
<text text-anchor="start" x="2423.27" y="-482.05" font-family="Times,serif" font-size="14.00">Arbuthnot </text>
</g>
<!-- EDMUND_CURLL&#45;&gt;JOHN_ARBUTHNOT -->
<g id="edge27" class="edge">
<title>EDMUND_CURLL&#45;&gt;JOHN_ARBUTHNOT</title>
<path fill="none" stroke="red" d="M1486.82,-1271C1620.19,-1163.67 2269.78,-640.91 2421.53,-518.79"/>
<polygon fill="red" stroke="red" points="2423.99,-521.3 2429.59,-512.3 2419.61,-515.84 2423.99,-521.3"/>
</g>
<!-- JOHN_ATTERBURY -->
<g id="node26" class="node">
<title>JOHN_ATTERBURY</title>
<polygon fill="none" stroke="black" points="2574.84,-631.41 2501.84,-631.41 2501.84,-593.41 2574.84,-593.41 2574.84,-631.41"/>
<text text-anchor="start" x="2523.34" y="-616.21" font-family="Times,serif" font-size="14.00"> John</text>
<text text-anchor="start" x="2509.84" y="-601.21" font-family="Times,serif" font-size="14.00">Atterbury </text>
</g>
<!-- EDMUND_CURLL&#45;&gt;JOHN_ATTERBURY -->
<g id="edge28" class="edge">
<title>EDMUND_CURLL&#45;&gt;JOHN_ATTERBURY</title>
<path fill="none" stroke="orange" d="M1493,-1271.29C1645.23,-1175.34 2328.43,-744.72 2499.44,-636.93"/>
<polygon fill="orange" stroke="orange" points="2501.53,-639.75 2508.12,-631.46 2497.8,-633.83 2501.53,-639.75"/>
</g>
<!-- JOHN_DENNIS -->
<g id="node27" class="node">
<title>JOHN_DENNIS</title>
<polygon fill="none" stroke="black" points="2634.95,-751.92 2575.95,-751.92 2575.95,-713.92 2634.95,-713.92 2634.95,-751.92"/>
<text text-anchor="start" x="2590.45" y="-736.72" font-family="Times,serif" font-size="14.00"> John</text>
<text text-anchor="start" x="2583.95" y="-721.72" font-family="Times,serif" font-size="14.00">Dennis </text>
</g>
<!-- EDMUND_CURLL&#45;&gt;JOHN_DENNIS -->
<g id="edge29" class="edge">
<title>EDMUND_CURLL&#45;&gt;JOHN_DENNIS</title>
<path fill="none" stroke="green" d="M1496.41,-1273.93C1661.92,-1193.19 2390.01,-838.01 2566.72,-751.81"/>
<polygon fill="green" stroke="green" points="2568.45,-754.86 2575.9,-747.33 2565.38,-748.57 2568.45,-754.86"/>
</g>
<!-- JOHN_DRYDEN -->
<g id="node28" class="node">
<title>JOHN_DRYDEN</title>
<polygon fill="none" stroke="black" points="2687.57,-873.34 2626.57,-873.34 2626.57,-835.34 2687.57,-835.34 2687.57,-873.34"/>
<text text-anchor="start" x="2642.07" y="-858.14" font-family="Times,serif" font-size="14.00"> John</text>
<text text-anchor="start" x="2634.57" y="-843.14" font-family="Times,serif" font-size="14.00">Dryden </text>
</g>
<!-- EDMUND_CURLL&#45;&gt;JOHN_DRYDEN -->
<g id="edge30" class="edge">
<title>EDMUND_CURLL&#45;&gt;JOHN_DRYDEN</title>
<path fill="none" stroke="orange" d="M1496.33,-1278.08C1666.3,-1216.03 2432.41,-936.35 2616.98,-868.98"/>
<polygon fill="orange" stroke="orange" points="2618.37,-872.19 2626.57,-865.48 2615.97,-865.62 2618.37,-872.19"/>
</g>
<!-- JOHN_DUNTON -->
<g id="node29" class="node">
<title>JOHN_DUNTON</title>
<polygon fill="none" stroke="black" points="2726.57,-1000.43 2665.57,-1000.43 2665.57,-962.43 2726.57,-962.43 2726.57,-1000.43"/>
<text text-anchor="start" x="2681.07" y="-985.23" font-family="Times,serif" font-size="14.00"> John</text>
<text text-anchor="start" x="2673.57" y="-970.23" font-family="Times,serif" font-size="14.00">Dunton </text>
</g>
<!-- EDMUND_CURLL&#45;&gt;JOHN_DUNTON -->
<g id="edge31" class="edge">
<title>EDMUND_CURLL&#45;&gt;JOHN_DUNTON</title>
<path fill="none" stroke="green" d="M1496.46,-1281.89C1670.26,-1238.36 2465.96,-1039.06 2655.47,-991.6"/>
<polygon fill="green" stroke="green" points="2656.46,-994.96 2665.31,-989.14 2654.76,-988.17 2656.46,-994.96"/>
</g>
<!-- JOHN_DURANT_BREVAL -->
<g id="node30" class="node">
<title>JOHN_DURANT_BREVAL</title>
<polygon fill="none" stroke="black" points="2766.84,-1143.78 2679.84,-1143.78 2679.84,-1105.78 2766.84,-1105.78 2766.84,-1143.78"/>
<text text-anchor="start" x="2687.84" y="-1128.58" font-family="Times,serif" font-size="14.00"> John Durant</text>
<text text-anchor="start" x="2703.34" y="-1113.58" font-family="Times,serif" font-size="14.00">Breval </text>
</g>
<!-- EDMUND_CURLL&#45;&gt;JOHN_DURANT_BREVAL -->
<g id="edge32" class="edge">
<title>EDMUND_CURLL&#45;&gt;JOHN_DURANT_BREVAL</title>
<path fill="none" stroke="green" d="M1496.55,-1285.88C1669.31,-1263.2 2455.54,-1159.95 2669.47,-1131.86"/>
<polygon fill="green" stroke="green" points="2670.05,-1135.31 2679.51,-1130.54 2669.14,-1128.37 2670.05,-1135.31"/>
</g>
<!-- JOHN_GAY -->
<g id="node31" class="node">
<title>JOHN_GAY</title>
<polygon fill="none" stroke="black" points="2760.94,-1285.81 2706.94,-1285.81 2706.94,-1247.81 2760.94,-1247.81 2760.94,-1285.81"/>
<text text-anchor="start" x="2718.94" y="-1270.61" font-family="Times,serif" font-size="14.00"> John</text>
<text text-anchor="start" x="2720.44" y="-1255.61" font-family="Times,serif" font-size="14.00">Gay </text>
</g>
<!-- EDMUND_CURLL&#45;&gt;JOHN_GAY -->
<g id="edge33" class="edge">
<title>EDMUND_CURLL&#45;&gt;JOHN_GAY</title>
<path fill="none" stroke="red" d="M1496.5,-1289.69C1675.02,-1286.39 2509.69,-1270.96 2696.7,-1267.5"/>
<polygon fill="red" stroke="red" points="2696.91,-1271 2706.85,-1267.31 2696.78,-1264 2696.91,-1271"/>
</g>
<!-- JOHN_HENLEY -->
<g id="node32" class="node">
<title>JOHN_HENLEY</title>
<polygon fill="none" stroke="black" points="2759.33,-1414.19 2700.33,-1414.19 2700.33,-1376.19 2759.33,-1376.19 2759.33,-1414.19"/>
<text text-anchor="start" x="2714.83" y="-1398.99" font-family="Times,serif" font-size="14.00"> John</text>
<text text-anchor="start" x="2708.33" y="-1383.99" font-family="Times,serif" font-size="14.00">Henley </text>
</g>
<!-- EDMUND_CURLL&#45;&gt;JOHN_HENLEY -->
<g id="edge34" class="edge">
<title>EDMUND_CURLL&#45;&gt;JOHN_HENLEY</title>
<path fill="none" stroke="green" d="M1496.39,-1293.09C1673.46,-1307.75 2498.15,-1376.01 2689.91,-1391.89"/>
<polygon fill="green" stroke="green" points="2689.85,-1395.39 2700.1,-1392.73 2690.42,-1388.42 2689.85,-1395.39"/>
</g>
<!-- JOHN_LOCKE -->
<g id="node33" class="node">
<title>JOHN_LOCKE</title>
<polygon fill="none" stroke="black" points="2739.78,-1541.5 2685.78,-1541.5 2685.78,-1503.5 2739.78,-1503.5 2739.78,-1541.5"/>
<text text-anchor="start" x="2697.78" y="-1526.3" font-family="Times,serif" font-size="14.00"> John</text>
<text text-anchor="start" x="2693.78" y="-1511.3" font-family="Times,serif" font-size="14.00">Locke </text>
</g>
<!-- EDMUND_CURLL&#45;&gt;JOHN_LOCKE -->
<g id="edge35" class="edge">
<title>EDMUND_CURLL&#45;&gt;JOHN_LOCKE</title>
<path fill="none" stroke="orange" d="M1496.59,-1296.58C1673.32,-1329.41 2490.94,-1481.29 2675.63,-1515.6"/>
<polygon fill="orange" stroke="orange" points="2675.19,-1519.08 2685.66,-1517.46 2676.47,-1512.2 2675.19,-1519.08"/>
</g>
<!-- JOHN_OLDMIXON -->
<g id="node34" class="node">
<title>JOHN_OLDMIXON</title>
<polygon fill="none" stroke="black" points="2718.55,-1674.59 2642.55,-1674.59 2642.55,-1636.59 2718.55,-1636.59 2718.55,-1674.59"/>
<text text-anchor="start" x="2665.55" y="-1659.39" font-family="Times,serif" font-size="14.00"> John</text>
<text text-anchor="start" x="2650.55" y="-1644.39" font-family="Times,serif" font-size="14.00">Oldmixon </text>
</g>
<!-- EDMUND_CURLL&#45;&gt;JOHN_OLDMIXON -->
<g id="edge36" class="edge">
<title>EDMUND_CURLL&#45;&gt;JOHN_OLDMIXON</title>
<path fill="none" stroke="green" d="M1496.35,-1300.37C1666.34,-1351.36 2432.88,-1581.29 2632.77,-1641.25"/>
<polygon fill="green" stroke="green" points="2631.82,-1644.62 2642.4,-1644.14 2633.83,-1637.92 2631.82,-1644.62"/>
</g>
<!-- JOHN_TUTCHIN -->
<g id="node35" class="node">
<title>JOHN_TUTCHIN</title>
<polygon fill="none" stroke="black" points="2663.64,-1807.12 2601.64,-1807.12 2601.64,-1769.12 2663.64,-1769.12 2663.64,-1807.12"/>
<text text-anchor="start" x="2617.64" y="-1791.92" font-family="Times,serif" font-size="14.00"> John</text>
<text text-anchor="start" x="2609.64" y="-1776.92" font-family="Times,serif" font-size="14.00">Tutchin </text>
</g>
<!-- EDMUND_CURLL&#45;&gt;JOHN_TUTCHIN -->
<g id="edge37" class="edge">
<title>EDMUND_CURLL&#45;&gt;JOHN_TUTCHIN</title>
<path fill="none" stroke="green" d="M1496.58,-1304.67C1664.58,-1376.17 2409.91,-1693.34 2592.28,-1770.94"/>
<polygon fill="green" stroke="green" points="2590.95,-1774.18 2601.52,-1774.88 2593.69,-1767.74 2590.95,-1774.18"/>
</g>
<!-- JONATHAN_SWIFT -->
<g id="node36" class="node">
<title>JONATHAN_SWIFT</title>
<polygon fill="none" stroke="black" points="2606.32,-1930.05 2538.32,-1930.05 2538.32,-1892.05 2606.32,-1892.05 2606.32,-1930.05"/>
<text text-anchor="start" x="2546.32" y="-1914.85" font-family="Times,serif" font-size="14.00"> Jonathan</text>
<text text-anchor="start" x="2555.32" y="-1899.85" font-family="Times,serif" font-size="14.00">Swift </text>
</g>
<!-- EDMUND_CURLL&#45;&gt;JONATHAN_SWIFT -->
<g id="edge38" class="edge">
<title>EDMUND_CURLL&#45;&gt;JONATHAN_SWIFT</title>
<path fill="none" stroke="red" d="M1491.91,-1309.33C1643.95,-1400.89 2347.15,-1794.47 2529.2,-1890.12"/>
<polygon fill="red" stroke="red" points="2527.74,-1893.3 2538.22,-1894.83 2530.98,-1887.1 2527.74,-1893.3"/>
</g>
<!-- EDMUND_CURLL&#45;&gt;JONATHAN_SWIFT -->
<g id="edge39" class="edge">
<title>EDMUND_CURLL&#45;&gt;JONATHAN_SWIFT</title>
<path fill="none" stroke="orange" d="M1496.34,-1306.23C1658.76,-1390.65 2362.96,-1784.55 2534.53,-1886.82"/>
<polygon fill="orange" stroke="orange" points="2532.85,-1889.89 2543.23,-1892.02 2536.45,-1883.88 2532.85,-1889.89"/>
</g>
<!-- JOSEPH_ADDISON -->
<g id="node37" class="node">
<title>JOSEPH_ADDISON</title>
<polygon fill="none" stroke="black" points="2530.96,-2047.41 2464.96,-2047.41 2464.96,-2009.41 2530.96,-2009.41 2530.96,-2047.41"/>
<text text-anchor="start" x="2477.46" y="-2032.21" font-family="Times,serif" font-size="14.00"> Joseph</text>
<text text-anchor="start" x="2472.96" y="-2017.21" font-family="Times,serif" font-size="14.00">Addison </text>
</g>
<!-- EDMUND_CURLL&#45;&gt;JOSEPH_ADDISON -->
<g id="edge40" class="edge">
<title>EDMUND_CURLL&#45;&gt;JOSEPH_ADDISON</title>
<path fill="none" stroke="red" d="M1482.44,-1309.56C1606.52,-1412.59 2280.65,-1893.79 2456.22,-2005.44"/>
<polygon fill="red" stroke="red" points="2454.59,-2008.56 2464.92,-2010.93 2458.32,-2002.63 2454.59,-2008.56"/>
</g>
<!-- EDMUND_CURLL&#45;&gt;JOSEPH_ADDISON -->
<g id="edge41" class="edge">
<title>EDMUND_CURLL&#45;&gt;JOSEPH_ADDISON</title>
<path fill="none" stroke="blue" d="M1496.43,-1308.14C1655.01,-1407.27 2325.66,-1885.49 2470.42,-2002.67"/>
<polygon fill="blue" stroke="blue" points="2468.48,-2005.61 2478.44,-2009.24 2472.92,-2000.19 2468.48,-2005.61"/>
</g>
<!-- EDMUND_CURLL&#45;&gt;JOSEPH_ADDISON -->
<g id="edge42" class="edge">
<title>EDMUND_CURLL&#45;&gt;JOSEPH_ADDISON</title>
<path fill="none" stroke="orange" d="M1489.72,-1309.48C1632.52,-1411.31 2301.57,-1888.38 2462.89,-2003.41"/>
<polygon fill="orange" stroke="orange" points="2460.89,-2006.27 2471.06,-2009.23 2464.95,-2000.57 2460.89,-2006.27"/>
</g>
<!-- JOSEPH_GAY -->
<g id="node38" class="node">
<title>JOSEPH_GAY</title>
<polygon fill="none" stroke="black" points="2443.39,-2151.84 2386.39,-2151.84 2386.39,-2113.84 2443.39,-2113.84 2443.39,-2151.84"/>
<text text-anchor="start" x="2394.39" y="-2136.64" font-family="Times,serif" font-size="14.00"> Joseph</text>
<text text-anchor="start" x="2401.39" y="-2121.64" font-family="Times,serif" font-size="14.00">Gay </text>
</g>
<!-- EDMUND_CURLL&#45;&gt;JOSEPH_GAY -->
<g id="edge43" class="edge">
<title>EDMUND_CURLL&#45;&gt;JOSEPH_GAY</title>
<path fill="none" stroke="green" d="M1484.5,-1309.49C1609.87,-1420.43 2241.54,-1979.43 2385.61,-2106.93"/>
<polygon fill="green" stroke="green" points="2383.44,-2109.68 2393.25,-2113.69 2388.08,-2104.44 2383.44,-2109.68"/>
</g>
<!-- JOSEPH_GAY_AKA_JOHN_DURANT_BREVAL -->
<g id="node39" class="node">
<title>JOSEPH_GAY_AKA_JOHN_DURANT_BREVAL</title>
<polygon fill="none" stroke="black" points="2362.59,-2268.63 2231.59,-2268.63 2231.59,-2230.63 2362.59,-2230.63 2362.59,-2268.63"/>
<text text-anchor="start" x="2250.09" y="-2253.43" font-family="Times,serif" font-size="14.00"> Joseph Gay (aka</text>
<text text-anchor="start" x="2239.59" y="-2238.43" font-family="Times,serif" font-size="14.00">John Durant Breval) </text>
</g>
<!-- EDMUND_CURLL&#45;&gt;JOSEPH_GAY_AKA_JOHN_DURANT_BREVAL -->
<g id="edge44" class="edge">
<title>EDMUND_CURLL&#45;&gt;JOSEPH_GAY_AKA_JOHN_DURANT_BREVAL</title>
<path fill="none" stroke="green" d="M1479.49,-1309.47C1584.2,-1429.87 2150.73,-2081.32 2273.58,-2222.59"/>
<polygon fill="green" stroke="green" points="2271.18,-2225.17 2280.39,-2230.42 2276.46,-2220.58 2271.18,-2225.17"/>
</g>
<!-- LADY_MARY_WORTLEY_MONTAGU -->
<g id="node40" class="node">
<title>LADY_MARY_WORTLEY_MONTAGU</title>
<polygon fill="none" stroke="black" points="2198.46,-2385.62 2080.46,-2385.62 2080.46,-2347.62 2198.46,-2347.62 2198.46,-2385.62"/>
<text text-anchor="start" x="2106.46" y="-2370.42" font-family="Times,serif" font-size="14.00"> Lady Mary</text>
<text text-anchor="start" x="2088.46" y="-2355.42" font-family="Times,serif" font-size="14.00">Wortley Montagu </text>
</g>
<!-- EDMUND_CURLL&#45;&gt;LADY_MARY_WORTLEY_MONTAGU -->
<g id="edge45" class="edge">
<title>EDMUND_CURLL&#45;&gt;LADY_MARY_WORTLEY_MONTAGU</title>
<path fill="none" stroke="green" d="M1474.86,-1309.45C1556.14,-1438.74 2024.62,-2183.94 2121.81,-2338.54"/>
<polygon fill="green" stroke="green" points="2119.13,-2340.86 2127.42,-2347.47 2125.06,-2337.14 2119.13,-2340.86"/>
</g>
<!-- LEONARD_WELSTED -->
<g id="node41" class="node">
<title>LEONARD_WELSTED</title>
<polygon fill="none" stroke="black" points="2028.33,-2463.51 1963.33,-2463.51 1963.33,-2425.51 2028.33,-2425.51 2028.33,-2463.51"/>
<text text-anchor="start" x="1971.33" y="-2448.31" font-family="Times,serif" font-size="14.00"> Leonard</text>
<text text-anchor="start" x="1971.33" y="-2433.31" font-family="Times,serif" font-size="14.00">Welsted </text>
</g>
<!-- EDMUND_CURLL&#45;&gt;LEONARD_WELSTED -->
<g id="edge46" class="edge">
<title>EDMUND_CURLL&#45;&gt;LEONARD_WELSTED</title>
<path fill="none" stroke="green" d="M1471.64,-1309.38C1533.88,-1444.17 1907.2,-2252.58 1982.57,-2415.8"/>
<polygon fill="green" stroke="green" points="1979.54,-2417.58 1986.91,-2425.19 1985.9,-2414.65 1979.54,-2417.58"/>
</g>
<!-- LEWIS_THEOBALD -->
<g id="node42" class="node">
<title>LEWIS_THEOBALD</title>
<polygon fill="none" stroke="black" points="1901.26,-2515.1 1830.26,-2515.1 1830.26,-2477.1 1901.26,-2477.1 1901.26,-2515.1"/>
<text text-anchor="start" x="1847.26" y="-2499.9" font-family="Times,serif" font-size="14.00"> Lewis</text>
<text text-anchor="start" x="1838.26" y="-2484.9" font-family="Times,serif" font-size="14.00">Theobald </text>
</g>
<!-- EDMUND_CURLL&#45;&gt;LEWIS_THEOBALD -->
<g id="edge47" class="edge">
<title>EDMUND_CURLL&#45;&gt;LEWIS_THEOBALD</title>
<path fill="none" stroke="green" d="M1465.4,-1309.44C1498.27,-1448.3 1782.58,-2300.14 1851.38,-2467.57"/>
<polygon fill="green" stroke="green" points="1848.22,-2469.1 1855.32,-2476.96 1854.68,-2466.39 1848.22,-2469.1"/>
</g>
<!-- EDMUND_CURLL&#45;&gt;LEWIS_THEOBALD -->
<g id="edge48" class="edge">
<title>EDMUND_CURLL&#45;&gt;LEWIS_THEOBALD</title>
<path fill="none" stroke="red" d="M1473.3,-1309.51C1533.11,-1448.5 1817.47,-2298.84 1860.76,-2467.18"/>
<polygon fill="red" stroke="red" points="1857.4,-2468.19 1863.2,-2477.05 1864.2,-2466.51 1857.4,-2468.19"/>
</g>
<!-- EDMUND_CURLL&#45;&gt;LEWIS_THEOBALD -->
<g id="edge49" class="edge">
<title>EDMUND_CURLL&#45;&gt;LEWIS_THEOBALD</title>
<path fill="none" stroke="orange" d="M1469.32,-1309.74C1515.97,-1449.34 1799.83,-2298.8 1856.08,-2467.12"/>
<polygon fill="orange" stroke="orange" points="1852.82,-2468.41 1859.31,-2476.79 1859.46,-2466.2 1852.82,-2468.41"/>
</g>
<!-- MATTHEW_CONCANEN -->
<g id="node43" class="node">
<title>MATTHEW_CONCANEN</title>
<polygon fill="none" stroke="black" points="1763.4,-2553.02 1689.4,-2553.02 1689.4,-2515.02 1763.4,-2515.02 1763.4,-2553.02"/>
<text text-anchor="start" x="1699.9" y="-2537.82" font-family="Times,serif" font-size="14.00"> Matthew</text>
<text text-anchor="start" x="1697.4" y="-2522.82" font-family="Times,serif" font-size="14.00">Concanen </text>
</g>
<!-- EDMUND_CURLL&#45;&gt;MATTHEW_CONCANEN -->
<g id="edge50" class="edge">
<title>EDMUND_CURLL&#45;&gt;MATTHEW_CONCANEN</title>
<path fill="none" stroke="green" d="M1466.86,-1309.35C1496.78,-1450.49 1683.89,-2333.43 1720.28,-2505.11"/>
<polygon fill="green" stroke="green" points="1716.87,-2505.89 1722.36,-2514.95 1723.71,-2504.44 1716.87,-2505.89"/>
</g>
<!-- MATTHEW_PRIOR -->
<g id="node44" class="node">
<title>MATTHEW_PRIOR</title>
<polygon fill="none" stroke="black" points="1619.14,-2574.79 1550.14,-2574.79 1550.14,-2536.79 1619.14,-2536.79 1619.14,-2574.79"/>
<text text-anchor="start" x="1558.14" y="-2559.59" font-family="Times,serif" font-size="14.00"> Matthew</text>
<text text-anchor="start" x="1569.14" y="-2544.59" font-family="Times,serif" font-size="14.00">Prior </text>
</g>
<!-- EDMUND_CURLL&#45;&gt;MATTHEW_PRIOR -->
<g id="edge51" class="edge">
<title>EDMUND_CURLL&#45;&gt;MATTHEW_PRIOR</title>
<path fill="none" stroke="red" d="M1464.67,-1309.43C1478.42,-1452.24 1564.98,-2351.49 1581.81,-2526.35"/>
<polygon fill="red" stroke="red" points="1578.33,-2526.75 1582.77,-2536.37 1585.3,-2526.08 1578.33,-2526.75"/>
</g>
<!-- RICHARD_BLACKMORE -->
<g id="node45" class="node">
<title>RICHARD_BLACKMORE</title>
<polygon fill="none" stroke="black" points="1478.33,-2580.4 1398.33,-2580.4 1398.33,-2542.4 1478.33,-2542.4 1478.33,-2580.4"/>
<text text-anchor="start" x="1414.83" y="-2565.2" font-family="Times,serif" font-size="14.00"> Richard</text>
<text text-anchor="start" x="1406.33" y="-2550.2" font-family="Times,serif" font-size="14.00">Blackmore </text>
</g>
<!-- EDMUND_CURLL&#45;&gt;RICHARD_BLACKMORE -->
<g id="edge52" class="edge">
<title>EDMUND_CURLL&#45;&gt;RICHARD_BLACKMORE</title>
<path fill="none" stroke="green" d="M1462.46,-1309.52C1459.69,-1453.03 1442.27,-2357.21 1438.9,-2532.13"/>
<polygon fill="green" stroke="green" points="1435.39,-2532.29 1438.7,-2542.36 1442.39,-2532.43 1435.39,-2532.29"/>
</g>
<!-- SAMUEL_GARTH -->
<g id="node46" class="node">
<title>SAMUEL_GARTH</title>
<polygon fill="none" stroke="black" points="1326.81,-2569.62 1264.81,-2569.62 1264.81,-2531.62 1326.81,-2531.62 1326.81,-2569.62"/>
<text text-anchor="start" x="1272.81" y="-2554.42" font-family="Times,serif" font-size="14.00"> Samuel</text>
<text text-anchor="start" x="1278.31" y="-2539.42" font-family="Times,serif" font-size="14.00">Garth </text>
</g>
<!-- EDMUND_CURLL&#45;&gt;SAMUEL_GARTH -->
<g id="edge53" class="edge">
<title>EDMUND_CURLL&#45;&gt;SAMUEL_GARTH</title>
<path fill="none" stroke="red" d="M1458.46,-1309.36C1433.12,-1451.62 1314.3,-2347.26 1297.46,-2521.33"/>
<polygon fill="red" stroke="red" points="1293.95,-2521.24 1296.52,-2531.52 1300.92,-2521.88 1293.95,-2521.24"/>
</g>
<!-- EDMUND_CURLL&#45;&gt;SAMUEL_GARTH -->
<g id="edge54" class="edge">
<title>EDMUND_CURLL&#45;&gt;SAMUEL_GARTH</title>
<path fill="none" stroke="orange" d="M1462.13,-1309.34C1449.78,-1451.6 1331.12,-2348.05 1301.92,-2521.56"/>
<polygon fill="orange" stroke="orange" points="1298.45,-2521.05 1300.2,-2531.5 1305.35,-2522.24 1298.45,-2521.05"/>
</g>
<!-- THOMAS_COOKE -->
<g id="node47" class="node">
<title>THOMAS_COOKE</title>
<polygon fill="none" stroke="black" points="1195.18,-2544.82 1131.18,-2544.82 1131.18,-2506.82 1195.18,-2506.82 1195.18,-2544.82"/>
<text text-anchor="start" x="1139.18" y="-2529.62" font-family="Times,serif" font-size="14.00"> Thomas</text>
<text text-anchor="start" x="1143.18" y="-2514.62" font-family="Times,serif" font-size="14.00">Cooke </text>
</g>
<!-- EDMUND_CURLL&#45;&gt;THOMAS_COOKE -->
<g id="edge55" class="edge">
<title>EDMUND_CURLL&#45;&gt;THOMAS_COOKE</title>
<path fill="none" stroke="green" d="M1458.12,-1309.72C1423.77,-1451.35 1211.86,-2325.1 1170.26,-2496.62"/>
<polygon fill="green" stroke="green" points="1166.83,-2495.91 1167.87,-2506.46 1173.63,-2497.56 1166.83,-2495.91"/>
</g>
<!-- THOMAS_OSBORNE -->
<g id="node48" class="node">
<title>THOMAS_OSBORNE</title>
<polygon fill="none" stroke="black" points="1065.03,-2505.43 999.03,-2505.43 999.03,-2467.43 1065.03,-2467.43 1065.03,-2505.43"/>
<text text-anchor="start" x="1008.03" y="-2490.23" font-family="Times,serif" font-size="14.00"> Thomas</text>
<text text-anchor="start" x="1007.03" y="-2475.23" font-family="Times,serif" font-size="14.00">Osborne </text>
</g>
<!-- EDMUND_CURLL&#45;&gt;THOMAS_OSBORNE -->
<g id="edge56" class="edge">
<title>EDMUND_CURLL&#45;&gt;THOMAS_OSBORNE</title>
<path fill="none" stroke="green" d="M1455.89,-1309.58C1406.01,-1448.06 1102.52,-2290.71 1042.38,-2457.68"/>
<polygon fill="green" stroke="green" points="1039.03,-2456.68 1038.93,-2467.27 1045.61,-2459.05 1039.03,-2456.68"/>
</g>
<!-- THOMAS_WARNER -->
<g id="node49" class="node">
<title>THOMAS_WARNER</title>
<polygon fill="none" stroke="black" points="937.88,-2452.15 873.88,-2452.15 873.88,-2414.15 937.88,-2414.15 937.88,-2452.15"/>
<text text-anchor="start" x="881.88" y="-2436.95" font-family="Times,serif" font-size="14.00"> Thomas</text>
<text text-anchor="start" x="883.38" y="-2421.95" font-family="Times,serif" font-size="14.00">Warner </text>
</g>
<!-- EDMUND_CURLL&#45;&gt;THOMAS_WARNER -->
<g id="edge57" class="edge">
<title>EDMUND_CURLL&#45;&gt;THOMAS_WARNER</title>
<path fill="none" stroke="green" d="M1453.4,-1309.67C1387.66,-1444.56 998.31,-2243.5 919.71,-2404.78"/>
<polygon fill="green" stroke="green" points="916.42,-2403.54 915.19,-2414.06 922.72,-2406.61 916.42,-2403.54"/>
</g>
<!-- TOUSSAINT_EDMOND_DE_SAINTMARD -->
<g id="node50" class="node">
<title>TOUSSAINT_EDMOND_DE_SAINTMARD</title>
<polygon fill="none" stroke="black" points="823.66,-2370.46 701.66,-2370.46 701.66,-2332.46 823.66,-2332.46 823.66,-2370.46"/>
<text text-anchor="start" x="709.66" y="-2355.26" font-family="Times,serif" font-size="14.00"> Toussaint Edmond</text>
<text text-anchor="start" x="721.16" y="-2340.26" font-family="Times,serif" font-size="14.00">de Saint&#45;Mard </text>
</g>
<!-- EDMUND_CURLL&#45;&gt;TOUSSAINT_EDMOND_DE_SAINTMARD -->
<g id="edge58" class="edge">
<title>EDMUND_CURLL&#45;&gt;TOUSSAINT_EDMOND_DE_SAINTMARD</title>
<path fill="none" stroke="orange" d="M1450.08,-1309.63C1365.12,-1438.39 881.33,-2171.61 780.91,-2323.8"/>
<polygon fill="orange" stroke="orange" points="777.96,-2321.92 775.37,-2332.2 783.8,-2325.78 777.96,-2321.92"/>
</g>
<!-- WHITE_KENNETH -->
<g id="node51" class="node">
<title>WHITE_KENNETH</title>
<polygon fill="none" stroke="black" points="663.46,-2270.27 597.46,-2270.27 597.46,-2232.27 663.46,-2232.27 663.46,-2270.27"/>
<text text-anchor="start" x="611.96" y="-2255.07" font-family="Times,serif" font-size="14.00"> White</text>
<text text-anchor="start" x="605.46" y="-2240.07" font-family="Times,serif" font-size="14.00">Kenneth </text>
</g>
<!-- EDMUND_CURLL&#45;&gt;WHITE_KENNETH -->
<g id="edge59" class="edge">
<title>EDMUND_CURLL&#45;&gt;WHITE_KENNETH</title>
<path fill="none" stroke="red" d="M1446.2,-1309.51C1341.74,-1430.11 776.49,-2082.67 653.92,-2224.18"/>
<polygon fill="red" stroke="red" points="651.03,-2222.17 647.12,-2232.02 656.32,-2226.76 651.03,-2222.17"/>
</g>
<!-- WILLIAM_BOND -->
<g id="node52" class="node">
<title>WILLIAM_BOND</title>
<polygon fill="none" stroke="black" points="564.09,-2174.8 499.09,-2174.8 499.09,-2136.8 564.09,-2136.8 564.09,-2174.8"/>
<text text-anchor="start" x="507.09" y="-2159.6" font-family="Times,serif" font-size="14.00"> William</text>
<text text-anchor="start" x="514.59" y="-2144.6" font-family="Times,serif" font-size="14.00">Bond </text>
</g>
<!-- EDMUND_CURLL&#45;&gt;WILLIAM_BOND -->
<g id="edge60" class="edge">
<title>EDMUND_CURLL&#45;&gt;WILLIAM_BOND</title>
<path fill="none" stroke="green" d="M1442.07,-1309.6C1320.39,-1422.69 700.15,-1999.14 559.83,-2129.55"/>
<polygon fill="green" stroke="green" points="557.34,-2127.09 552.4,-2136.46 562.11,-2132.22 557.34,-2127.09"/>
</g>
<!-- WILLIAM_BOND_ -->
<g id="node53" class="node">
<title>WILLIAM_BOND_</title>
<polygon fill="none" stroke="black" points="483.13,-2056.34 385.13,-2056.34 385.13,-2018.34 483.13,-2018.34 483.13,-2056.34"/>
<text text-anchor="start" x="393.13" y="-2041.14" font-family="Times,serif" font-size="14.00"> William Bond</text>
<text text-anchor="start" x="432.13" y="-2026.14" font-family="Times,serif" font-size="14.00"> </text>
</g>
<!-- EDMUND_CURLL&#45;&gt;WILLIAM_BOND_ -->
<g id="edge61" class="edge">
<title>EDMUND_CURLL&#45;&gt;WILLIAM_BOND_</title>
<path fill="none" stroke="green" d="M1436.63,-1309.34C1295.84,-1411.58 629.56,-1895.42 469,-2012.01"/>
<polygon fill="green" stroke="green" points="466.48,-2009.52 460.44,-2018.23 470.59,-2015.18 466.48,-2009.52"/>
</g>
<!-- WILLIAM_CAVENDISH -->
<g id="node54" class="node">
<title>WILLIAM_CAVENDISH</title>
<polygon fill="none" stroke="black" points="387.24,-1921.74 310.24,-1921.74 310.24,-1883.74 387.24,-1883.74 387.24,-1921.74"/>
<text text-anchor="start" x="324.24" y="-1906.54" font-family="Times,serif" font-size="14.00"> William</text>
<text text-anchor="start" x="318.24" y="-1891.54" font-family="Times,serif" font-size="14.00">Cavendish </text>
</g>
<!-- EDMUND_CURLL&#45;&gt;WILLIAM_CAVENDISH -->
<g id="edge62" class="edge">
<title>EDMUND_CURLL&#45;&gt;WILLIAM_CAVENDISH</title>
<path fill="none" stroke="red" d="M1429.18,-1308.81C1267.93,-1397.45 574.49,-1778.64 392.58,-1878.64"/>
<polygon fill="red" stroke="red" points="390.63,-1875.72 383.56,-1883.6 394.01,-1881.85 390.63,-1875.72"/>
</g>
<!-- WILLIAM_CONGREVE -->
<g id="node55" class="node">
<title>WILLIAM_CONGREVE</title>
<polygon fill="none" stroke="black" points="322.02,-1789.12 249.02,-1789.12 249.02,-1751.12 322.02,-1751.12 322.02,-1789.12"/>
<text text-anchor="start" x="261.02" y="-1773.92" font-family="Times,serif" font-size="14.00"> William</text>
<text text-anchor="start" x="257.02" y="-1758.92" font-family="Times,serif" font-size="14.00">Congreve </text>
</g>
<!-- EDMUND_CURLL&#45;&gt;WILLIAM_CONGREVE -->
<g id="edge63" class="edge">
<title>EDMUND_CURLL&#45;&gt;WILLIAM_CONGREVE</title>
<path fill="none" stroke="red" d="M1429.2,-1301.4C1262.37,-1363.32 524.1,-1664.05 331.56,-1748.27"/>
<polygon fill="red" stroke="red" points="330.03,-1745.12 322.28,-1752.35 332.84,-1751.53 330.03,-1745.12"/>
</g>
<!-- EDMUND_CURLL&#45;&gt;WILLIAM_CONGREVE -->
<g id="edge64" class="edge">
<title>EDMUND_CURLL&#45;&gt;WILLIAM_CONGREVE</title>
<path fill="none" stroke="orange" d="M1429.17,-1306.71C1262.35,-1380.72 524.64,-1681.49 331.78,-1754.3"/>
<polygon fill="orange" stroke="orange" points="330.35,-1751.1 322.22,-1757.89 332.81,-1757.65 330.35,-1751.1"/>
</g>
<!-- WILLIAM_MEARS -->
<g id="node56" class="node">
<title>WILLIAM_MEARS</title>
<polygon fill="none" stroke="black" points="272.15,-1655.87 207.15,-1655.87 207.15,-1617.87 272.15,-1617.87 272.15,-1655.87"/>
<text text-anchor="start" x="215.15" y="-1640.67" font-family="Times,serif" font-size="14.00"> William</text>
<text text-anchor="start" x="220.15" y="-1625.67" font-family="Times,serif" font-size="14.00">Mears </text>
</g>
<!-- EDMUND_CURLL&#45;&gt;WILLIAM_MEARS -->
<g id="edge65" class="edge">
<title>EDMUND_CURLL&#45;&gt;WILLIAM_MEARS</title>
<path fill="none" stroke="green" d="M1429.16,-1299.85C1256.78,-1348.69 473.73,-1570.55 282.07,-1624.85"/>
<polygon fill="green" stroke="green" points="281.03,-1621.51 272.36,-1627.6 282.94,-1628.24 281.03,-1621.51"/>
</g>
<!-- WILLIAM_WILKINS -->
<g id="node57" class="node">
<title>WILLIAM_WILKINS</title>
<polygon fill="none" stroke="black" points="241.97,-1522.3 176.97,-1522.3 176.97,-1484.3 241.97,-1484.3 241.97,-1522.3"/>
<text text-anchor="start" x="184.97" y="-1507.1" font-family="Times,serif" font-size="14.00"> William</text>
<text text-anchor="start" x="185.97" y="-1492.1" font-family="Times,serif" font-size="14.00">Wilkins </text>
</g>
<!-- EDMUND_CURLL&#45;&gt;WILLIAM_WILKINS -->
<g id="edge66" class="edge">
<title>EDMUND_CURLL&#45;&gt;WILLIAM_WILKINS</title>
<path fill="none" stroke="green" d="M1429.31,-1296.01C1254.43,-1325.73 447.42,-1462.87 252.11,-1496.05"/>
<polygon fill="green" stroke="green" points="251.5,-1492.61 242.22,-1497.73 252.67,-1499.51 251.5,-1492.61"/>
</g>
<!-- WILLIAM_WYCHERLEY -->
<g id="node58" class="node">
<title>WILLIAM_WYCHERLEY</title>
<polygon fill="none" stroke="black" points="233.4,-1378.78 153.4,-1378.78 153.4,-1340.78 233.4,-1340.78 233.4,-1378.78"/>
<text text-anchor="start" x="168.9" y="-1363.58" font-family="Times,serif" font-size="14.00"> William</text>
<text text-anchor="start" x="161.4" y="-1348.58" font-family="Times,serif" font-size="14.00">Wycherley </text>
</g>
<!-- EDMUND_CURLL&#45;&gt;WILLIAM_WYCHERLEY -->
<g id="edge67" class="edge">
<title>EDMUND_CURLL&#45;&gt;WILLIAM_WYCHERLEY</title>
<path fill="none" stroke="blue" d="M1429.2,-1292.15C1254.82,-1301.69 453.53,-1345.54 243.77,-1357.02"/>
<polygon fill="blue" stroke="blue" points="243.45,-1353.53 233.66,-1357.57 243.84,-1360.52 243.45,-1353.53"/>
</g>
</g>
</svg>
