<?xml version="1.0" encoding="UTF-8" standalone="no"?>
<!DOCTYPE svg PUBLIC "-//W3C//DTD SVG 1.1//EN"
 "http://www.w3.org/Graphics/SVG/1.1/DTD/svg11.dtd">
<!-- Generated by graphviz version 2.50.0 (0)
 -->
<!-- Title: G Pages: 1 -->
<svg width="787pt" height="746pt"
 viewBox="0.00 0.00 787.17 745.57" xmlns="http://www.w3.org/2000/svg" xmlns:xlink="http://www.w3.org/1999/xlink">
<g id="graph0" class="graph" transform="scale(1 1) rotate(0) translate(4 741.57)">
<title>G</title>
<polygon fill="white" stroke="transparent" points="-4,4 -4,-741.57 783.17,-741.57 783.17,4 -4,4"/>
<!-- ABEL_EVANS -->
<g id="node1" class="node">
<title>ABEL_EVANS</title>
<polygon fill="none" stroke="black" points="326.81,-319.55 268.81,-319.55 268.81,-281.55 326.81,-281.55 326.81,-319.55"/>
<text text-anchor="start" x="282.31" y="-304.35" font-family="arial" font-size="14.00"> Abel</text>
<text text-anchor="start" x="276.81" y="-289.35" font-family="arial" font-size="14.00">Evans </text>
</g>
<!-- ABEL_ROPER -->
<g id="node2" class="node">
<title>ABEL_ROPER</title>
<polygon fill="none" stroke="black" points="263.93,-407.4 206.93,-407.4 206.93,-369.4 263.93,-369.4 263.93,-407.4"/>
<text text-anchor="start" x="219.93" y="-392.2" font-family="arial" font-size="14.00"> Abel</text>
<text text-anchor="start" x="214.93" y="-377.2" font-family="arial" font-size="14.00">Roper </text>
</g>
<!-- ALEXANDER_POPE -->
<g id="node3" class="node">
<title>ALEXANDER_POPE</title>
<polygon fill="none" stroke="black" points="231.54,-324.11 151.54,-324.11 151.54,-286.11 231.54,-286.11 231.54,-324.11"/>
<text text-anchor="start" x="159.54" y="-308.91" font-family="arial" font-size="14.00"> Alexander</text>
<text text-anchor="start" x="173.54" y="-293.91" font-family="arial" font-size="14.00">Pope </text>
</g>
<!-- AMBROSE_PHILLIPS -->
<g id="node4" class="node">
<title>AMBROSE_PHILLIPS</title>
<polygon fill="none" stroke="black" points="392.68,-247.35 318.68,-247.35 318.68,-209.35 392.68,-209.35 392.68,-247.35"/>
<text text-anchor="start" x="326.68" y="-232.15" font-family="arial" font-size="14.00"> Ambrose</text>
<text text-anchor="start" x="332.18" y="-217.15" font-family="arial" font-size="14.00">Phillips </text>
</g>
<!-- BERNARD_LINTOT -->
<g id="node5" class="node">
<title>BERNARD_LINTOT</title>
<polygon fill="none" stroke="black" points="147.45,-567.07 79.45,-567.07 79.45,-529.07 147.45,-529.07 147.45,-567.07"/>
<text text-anchor="start" x="87.45" y="-551.87" font-family="arial" font-size="14.00"> Bernard</text>
<text text-anchor="start" x="94.95" y="-536.87" font-family="arial" font-size="14.00">Lintot </text>
</g>
<!-- BESALEEL_MORRIS -->
<g id="node6" class="node">
<title>BESALEEL_MORRIS</title>
<polygon fill="none" stroke="black" points="242.54,-655.65 170.54,-655.65 170.54,-617.65 242.54,-617.65 242.54,-655.65"/>
<text text-anchor="start" x="178.54" y="-640.45" font-family="arial" font-size="14.00"> Besaleel</text>
<text text-anchor="start" x="185.04" y="-625.45" font-family="arial" font-size="14.00">Morris </text>
</g>
<!-- CHARLES_GILDON -->
<g id="node7" class="node">
<title>CHARLES_GILDON</title>
<polygon fill="none" stroke="black" points="167.66,-632.64 100.66,-632.64 100.66,-594.64 167.66,-594.64 167.66,-632.64"/>
<text text-anchor="start" x="108.66" y="-617.44" font-family="arial" font-size="14.00"> Charles</text>
<text text-anchor="start" x="112.16" y="-602.44" font-family="arial" font-size="14.00">Gildon </text>
</g>
<!-- CLOACINA -->
<g id="node8" class="node">
<title>CLOACINA</title>
<polygon fill="none" stroke="black" points="248.68,-530.79 171.68,-530.79 171.68,-494.79 248.68,-494.79 248.68,-530.79"/>
<text text-anchor="start" x="179.68" y="-509.09" font-family="arial" font-size="14.00"> Cloacina </text>
</g>
<!-- COLLEY_CIBBER -->
<g id="node9" class="node">
<title>COLLEY_CIBBER</title>
<polygon fill="none" stroke="black" points="132.55,-383.55 72.55,-383.55 72.55,-345.55 132.55,-345.55 132.55,-383.55"/>
<text text-anchor="start" x="81.55" y="-368.35" font-family="arial" font-size="14.00"> Colley</text>
<text text-anchor="start" x="80.55" y="-353.35" font-family="arial" font-size="14.00">Cibber </text>
</g>
<!-- DANIEL_DEFOE -->
<g id="node10" class="node">
<title>DANIEL_DEFOE</title>
<polygon fill="none" stroke="black" points="103.05,-504.01 44.05,-504.01 44.05,-466.01 103.05,-466.01 103.05,-504.01"/>
<text text-anchor="start" x="52.05" y="-488.81" font-family="arial" font-size="14.00"> Daniel</text>
<text text-anchor="start" x="53.55" y="-473.81" font-family="arial" font-size="14.00">Defoe </text>
</g>
<!-- EDMUND_CURLL -->
<g id="node11" class="node">
<title>EDMUND_CURLL</title>
<polygon fill="none" stroke="black" points="428.58,-384.27 357.58,-384.27 357.58,-346.27 428.58,-346.27 428.58,-384.27"/>
<text text-anchor="start" x="365.58" y="-369.07" font-family="arial" font-size="14.00"> Edmund</text>
<text text-anchor="start" x="377.08" y="-354.07" font-family="arial" font-size="14.00">Curll </text>
</g>
<!-- EDMUND_CURLL&#45;&gt;ABEL_EVANS -->
<g id="edge1" class="edge">
<title>EDMUND_CURLL&#45;&gt;ABEL_EVANS</title>
<path fill="none" stroke="orange" d="M365.01,-346.2C355.41,-339.68 344.52,-332.28 334.34,-325.37"/>
<polygon fill="orange" stroke="orange" points="336.25,-322.43 326.01,-319.71 332.31,-328.22 336.25,-322.43"/>
</g>
<!-- EDMUND_CURLL&#45;&gt;ABEL_ROPER -->
<g id="edge2" class="edge">
<title>EDMUND_CURLL&#45;&gt;ABEL_ROPER</title>
<path fill="none" stroke="green" d="M357.3,-370.52C332.47,-374.16 299.42,-379.01 274,-382.74"/>
<polygon fill="green" stroke="green" points="273.35,-379.3 263.97,-384.21 274.37,-386.22 273.35,-379.3"/>
</g>
<!-- EDMUND_CURLL&#45;&gt;ALEXANDER_POPE -->
<g id="edge3" class="edge">
<title>EDMUND_CURLL&#45;&gt;ALEXANDER_POPE</title>
<path fill="none" stroke="red" d="M357.18,-348.93C324.98,-337.61 277.41,-323.24 241.5,-313.91"/>
<polygon fill="red" stroke="red" points="242.26,-310.49 231.7,-311.42 240.53,-317.27 242.26,-310.49"/>
</g>
<!-- EDMUND_CURLL&#45;&gt;ALEXANDER_POPE -->
<g id="edge4" class="edge">
<title>EDMUND_CURLL&#45;&gt;ALEXANDER_POPE</title>
<path fill="none" stroke="orange" d="M357.4,-360.06C325.18,-352.27 277.45,-338.29 241.45,-326.25"/>
<polygon fill="orange" stroke="orange" points="242.23,-322.82 231.63,-322.91 239.98,-329.44 242.23,-322.82"/>
</g>
<!-- EDMUND_CURLL&#45;&gt;AMBROSE_PHILLIPS -->
<g id="edge5" class="edge">
<title>EDMUND_CURLL&#45;&gt;AMBROSE_PHILLIPS</title>
<path fill="none" stroke="green" d="M387.88,-346.23C381.61,-323.27 370.99,-284.42 363.68,-257.63"/>
<polygon fill="green" stroke="green" points="366.97,-256.39 360.95,-247.66 360.21,-258.23 366.97,-256.39"/>
</g>
<!-- EDMUND_CURLL&#45;&gt;BERNARD_LINTOT -->
<g id="edge6" class="edge">
<title>EDMUND_CURLL&#45;&gt;BERNARD_LINTOT</title>
<path fill="none" stroke="green" d="M363.94,-384.32C312.96,-417.65 207.61,-486.52 151.15,-523.43"/>
<polygon fill="green" stroke="green" points="148.97,-520.67 142.52,-529.07 152.81,-526.53 148.97,-520.67"/>
</g>
<!-- EDMUND_CURLL&#45;&gt;BESALEEL_MORRIS -->
<g id="edge7" class="edge">
<title>EDMUND_CURLL&#45;&gt;BESALEEL_MORRIS</title>
<path fill="none" stroke="green" d="M379.96,-384.35C347.52,-431.55 263.4,-553.93 225.53,-609.04"/>
<polygon fill="green" stroke="green" points="222.43,-607.37 219.65,-617.59 228.2,-611.33 222.43,-607.37"/>
</g>
<!-- EDMUND_CURLL&#45;&gt;CHARLES_GILDON -->
<g id="edge8" class="edge">
<title>EDMUND_CURLL&#45;&gt;CHARLES_GILDON</title>
<path fill="none" stroke="green" d="M373.19,-384.35C327.26,-428.41 213.71,-537.33 161.38,-587.53"/>
<polygon fill="green" stroke="green" points="158.91,-585.05 154.12,-594.5 163.75,-590.1 158.91,-585.05"/>
</g>
<!-- EDMUND_CURLL&#45;&gt;CLOACINA -->
<g id="edge9" class="edge">
<title>EDMUND_CURLL&#45;&gt;CLOACINA</title>
<path fill="none" stroke="green" d="M369.17,-384.56C336.27,-411.09 277.02,-458.88 240.88,-488.03"/>
<polygon fill="green" stroke="green" points="238.25,-485.66 232.66,-494.66 242.64,-491.11 238.25,-485.66"/>
</g>
<!-- EDMUND_CURLL&#45;&gt;COLLEY_CIBBER -->
<g id="edge10" class="edge">
<title>EDMUND_CURLL&#45;&gt;COLLEY_CIBBER</title>
<path fill="none" stroke="green" d="M357.47,-360.57C303.13,-357.66 199.83,-357.33 142.83,-359.81"/>
<polygon fill="green" stroke="green" points="142.56,-356.32 132.75,-360.31 142.91,-363.31 142.56,-356.32"/>
</g>
<!-- EDMUND_CURLL&#45;&gt;COLLEY_CIBBER -->
<g id="edge11" class="edge">
<title>EDMUND_CURLL&#45;&gt;COLLEY_CIBBER</title>
<path fill="none" stroke="orange" d="M357.44,-369.8C303.09,-372.43 199.79,-372.25 142.81,-369.49"/>
<polygon fill="orange" stroke="orange" points="142.9,-365.99 132.73,-368.94 142.52,-372.98 142.9,-365.99"/>
</g>
<!-- EDMUND_CURLL&#45;&gt;DANIEL_DEFOE -->
<g id="edge12" class="edge">
<title>EDMUND_CURLL&#45;&gt;DANIEL_DEFOE</title>
<path fill="none" stroke="green" d="M357.35,-378.66C297.07,-401.25 175.59,-446.77 112.92,-470.25"/>
<polygon fill="green" stroke="green" points="111.53,-467.04 103.39,-473.82 113.98,-473.59 111.53,-467.04"/>
</g>
<!-- EDWARD_WARD -->
<g id="node12" class="node">
<title>EDWARD_WARD</title>
<polygon fill="none" stroke="black" points="196.08,-455.33 130.08,-455.33 130.08,-417.33 196.08,-417.33 196.08,-455.33"/>
<text text-anchor="start" x="138.08" y="-440.13" font-family="arial" font-size="14.00"> Edward</text>
<text text-anchor="start" x="144.58" y="-425.13" font-family="arial" font-size="14.00">Ward </text>
</g>
<!-- EDMUND_CURLL&#45;&gt;EDWARD_WARD -->
<g id="edge13" class="edge">
<title>EDMUND_CURLL&#45;&gt;EDWARD_WARD</title>
<path fill="none" stroke="green" d="M357.43,-371.09C316.52,-381.42 249.51,-401.95 205.84,-417.4"/>
<polygon fill="green" stroke="green" points="204.58,-414.14 196.35,-420.82 206.94,-420.73 204.58,-414.14"/>
</g>
<!-- EDMUND_CURLL&#45;&gt;EDWARD_WARD -->
<g id="edge14" class="edge">
<title>EDMUND_CURLL&#45;&gt;EDWARD_WARD</title>
<path fill="none" stroke="blue" d="M357.38,-381.67C316.48,-396.5 249.52,-417.25 205.86,-428.68"/>
<polygon fill="blue" stroke="blue" points="204.93,-425.31 196.1,-431.17 206.66,-432.09 204.93,-425.31"/>
</g>
<!-- EDWARD_YOUNG -->
<g id="node13" class="node">
<title>EDWARD_YOUNG</title>
<polygon fill="none" stroke="black" points="66,-425.41 0,-425.41 0,-387.41 66,-387.41 66,-425.41"/>
<text text-anchor="start" x="8" y="-410.21" font-family="arial" font-size="14.00"> Edward</text>
<text text-anchor="start" x="11.5" y="-395.21" font-family="arial" font-size="14.00">Young </text>
</g>
<!-- EDMUND_CURLL&#45;&gt;EDWARD_YOUNG -->
<g id="edge15" class="edge">
<title>EDMUND_CURLL&#45;&gt;EDWARD_YOUNG</title>
<path fill="none" stroke="orange" d="M357.57,-369.33C291.11,-376.92 148.17,-393.25 76.23,-401.47"/>
<polygon fill="orange" stroke="orange" points="75.69,-398.01 66.15,-402.62 76.48,-404.96 75.69,-398.01"/>
</g>
<!-- ELIZABETH_THOMAS -->
<g id="node14" class="node">
<title>ELIZABETH_THOMAS</title>
<polygon fill="none" stroke="black" points="223.19,-231.8 147.19,-231.8 147.19,-193.8 223.19,-193.8 223.19,-231.8"/>
<text text-anchor="start" x="155.19" y="-216.6" font-family="arial" font-size="14.00"> Elizabeth</text>
<text text-anchor="start" x="158.19" y="-201.6" font-family="arial" font-size="14.00">Thomas </text>
</g>
<!-- EDMUND_CURLL&#45;&gt;ELIZABETH_THOMAS -->
<g id="edge16" class="edge">
<title>EDMUND_CURLL&#45;&gt;ELIZABETH_THOMAS</title>
<path fill="none" stroke="green" d="M367.17,-346.27C329.8,-318.86 260.71,-268.19 219.25,-237.79"/>
<polygon fill="green" stroke="green" points="221.23,-234.9 211.1,-231.8 217.09,-240.54 221.23,-234.9"/>
</g>
<!-- ELIZA_HAYWOOD -->
<g id="node15" class="node">
<title>ELIZA_HAYWOOD</title>
<polygon fill="none" stroke="black" points="146.99,-173.99 69.99,-173.99 69.99,-135.99 146.99,-135.99 146.99,-173.99"/>
<text text-anchor="start" x="91.49" y="-158.79" font-family="arial" font-size="14.00"> Eliza</text>
<text text-anchor="start" x="77.99" y="-143.79" font-family="arial" font-size="14.00">Haywood </text>
</g>
<!-- EDMUND_CURLL&#45;&gt;ELIZA_HAYWOOD -->
<g id="edge17" class="edge">
<title>EDMUND_CURLL&#45;&gt;ELIZA_HAYWOOD</title>
<path fill="none" stroke="green" d="M367.32,-346.24C315.81,-308.18 200.11,-222.69 142.47,-180.1"/>
<polygon fill="green" stroke="green" points="144.52,-177.26 134.4,-174.13 140.36,-182.89 144.52,-177.26"/>
</g>
<!-- GEORGE_DUCKETT -->
<g id="node16" class="node">
<title>GEORGE_DUCKETT</title>
<polygon fill="none" stroke="black" points="155.07,-294.41 89.07,-294.41 89.07,-256.41 155.07,-256.41 155.07,-294.41"/>
<text text-anchor="start" x="97.07" y="-279.21" font-family="arial" font-size="14.00"> George</text>
<text text-anchor="start" x="97.07" y="-264.21" font-family="arial" font-size="14.00">Duckett </text>
</g>
<!-- EDMUND_CURLL&#45;&gt;GEORGE_DUCKETT -->
<g id="edge18" class="edge">
<title>EDMUND_CURLL&#45;&gt;GEORGE_DUCKETT</title>
<path fill="none" stroke="green" d="M357.37,-353.43C307.81,-337 218.3,-307.32 165.11,-289.68"/>
<polygon fill="green" stroke="green" points="165.89,-286.25 155.3,-286.43 163.69,-292.9 165.89,-286.25"/>
</g>
<!-- GEORGE_RIDPATH -->
<g id="node17" class="node">
<title>GEORGE_RIDPATH</title>
<polygon fill="none" stroke="black" points="79.28,-276.62 12.28,-276.62 12.28,-238.62 79.28,-238.62 79.28,-276.62"/>
<text text-anchor="start" x="20.78" y="-261.42" font-family="arial" font-size="14.00"> George</text>
<text text-anchor="start" x="20.28" y="-246.42" font-family="arial" font-size="14.00">Ridpath </text>
</g>
<!-- EDMUND_CURLL&#45;&gt;GEORGE_RIDPATH -->
<g id="edge19" class="edge">
<title>EDMUND_CURLL&#45;&gt;GEORGE_RIDPATH</title>
<path fill="none" stroke="green" d="M357.54,-354.26C293.44,-334.39 158.69,-292.62 89.23,-271.09"/>
<polygon fill="green" stroke="green" points="90.05,-267.68 79.47,-268.06 87.98,-274.37 90.05,-267.68"/>
</g>
<!-- GILES_JACOB -->
<g id="node18" class="node">
<title>GILES_JACOB</title>
<polygon fill="none" stroke="black" points="686.75,-410.9 630.75,-410.9 630.75,-372.9 686.75,-372.9 686.75,-410.9"/>
<text text-anchor="start" x="640.75" y="-395.7" font-family="arial" font-size="14.00"> Giles</text>
<text text-anchor="start" x="638.75" y="-380.7" font-family="arial" font-size="14.00">Jacob </text>
</g>
<!-- EDMUND_CURLL&#45;&gt;GILES_JACOB -->
<g id="edge20" class="edge">
<title>EDMUND_CURLL&#45;&gt;GILES_JACOB</title>
<path fill="none" stroke="green" d="M428.63,-368.83C478.63,-373.85 569.34,-382.94 620.67,-388.08"/>
<polygon fill="green" stroke="green" points="620.39,-391.57 630.69,-389.08 621.09,-384.6 620.39,-391.57"/>
</g>
<!-- HENRY_CROMWELL -->
<g id="node19" class="node">
<title>HENRY_CROMWELL</title>
<polygon fill="none" stroke="black" points="760.64,-229.71 683.64,-229.71 683.64,-191.71 760.64,-191.71 760.64,-229.71"/>
<text text-anchor="start" x="702.14" y="-214.51" font-family="arial" font-size="14.00"> Henry</text>
<text text-anchor="start" x="691.64" y="-199.51" font-family="arial" font-size="14.00">Cromwell </text>
</g>
<!-- EDMUND_CURLL&#45;&gt;HENRY_CROMWELL -->
<g id="edge21" class="edge">
<title>EDMUND_CURLL&#45;&gt;HENRY_CROMWELL</title>
<path fill="none" stroke="red" d="M428.61,-348.58C488.05,-320.66 607.69,-264.47 674.41,-233.13"/>
<polygon fill="red" stroke="red" points="675.9,-236.3 683.46,-228.88 672.92,-229.96 675.9,-236.3"/>
</g>
<!-- HENRY_CURLL -->
<g id="node20" class="node">
<title>HENRY_CURLL</title>
<polygon fill="none" stroke="black" points="769.48,-353.08 713.48,-353.08 713.48,-315.08 769.48,-315.08 769.48,-353.08"/>
<text text-anchor="start" x="721.48" y="-337.88" font-family="arial" font-size="14.00"> Henry</text>
<text text-anchor="start" x="725.48" y="-322.88" font-family="arial" font-size="14.00">Curll </text>
</g>
<!-- EDMUND_CURLL&#45;&gt;HENRY_CURLL -->
<g id="edge22" class="edge">
<title>EDMUND_CURLL&#45;&gt;HENRY_CURLL</title>
<path fill="none" stroke="green" d="M428.73,-362.08C494.57,-356.18 634.75,-343.63 702.81,-337.54"/>
<polygon fill="green" stroke="green" points="703.44,-341 713.09,-336.62 702.82,-334.03 703.44,-341"/>
</g>
<!-- ISAAC_BARROW -->
<g id="node21" class="node">
<title>ISAAC_BARROW</title>
<polygon fill="none" stroke="black" points="711.81,-292.88 648.81,-292.88 648.81,-254.88 711.81,-254.88 711.81,-292.88"/>
<text text-anchor="start" x="661.81" y="-277.68" font-family="arial" font-size="14.00"> Isaac</text>
<text text-anchor="start" x="656.81" y="-262.68" font-family="arial" font-size="14.00">Barrow </text>
</g>
<!-- EDMUND_CURLL&#45;&gt;ISAAC_BARROW -->
<g id="edge23" class="edge">
<title>EDMUND_CURLL&#45;&gt;ISAAC_BARROW</title>
<path fill="none" stroke="orange" d="M428.59,-353.97C481.83,-337.03 582.11,-305.12 638.7,-287.12"/>
<polygon fill="orange" stroke="orange" points="639.94,-290.4 648.41,-284.03 637.82,-283.73 639.94,-290.4"/>
</g>
<!-- ISAAC_NEWTON -->
<g id="node22" class="node">
<title>ISAAC_NEWTON</title>
<polygon fill="none" stroke="black" points="744.96,-533.29 678.96,-533.29 678.96,-495.29 744.96,-495.29 744.96,-533.29"/>
<text text-anchor="start" x="693.46" y="-518.09" font-family="arial" font-size="14.00"> Isaac</text>
<text text-anchor="start" x="686.96" y="-503.09" font-family="arial" font-size="14.00">Newton </text>
</g>
<!-- EDMUND_CURLL&#45;&gt;ISAAC_NEWTON -->
<g id="edge24" class="edge">
<title>EDMUND_CURLL&#45;&gt;ISAAC_NEWTON</title>
<path fill="none" stroke="orange" d="M428.73,-381.93C487.94,-409.6 606.28,-464.91 669.63,-494.51"/>
<polygon fill="orange" stroke="orange" points="668.39,-497.8 678.94,-498.86 671.36,-491.46 668.39,-497.8"/>
</g>
<!-- JAMESMOORE_SMITH -->
<g id="node23" class="node">
<title>JAMESMOORE_SMITH</title>
<polygon fill="none" stroke="black" points="687.5,-487.29 583.5,-487.29 583.5,-449.29 687.5,-449.29 687.5,-487.29"/>
<text text-anchor="start" x="591.5" y="-472.09" font-family="arial" font-size="14.00"> James&#45;Moore</text>
<text text-anchor="start" x="615.5" y="-457.09" font-family="arial" font-size="14.00">Smith </text>
</g>
<!-- EDMUND_CURLL&#45;&gt;JAMESMOORE_SMITH -->
<g id="edge25" class="edge">
<title>EDMUND_CURLL&#45;&gt;JAMESMOORE_SMITH</title>
<path fill="none" stroke="green" d="M428.59,-380.36C468.7,-397.41 534.44,-425.34 581.05,-445.15"/>
<polygon fill="green" stroke="green" points="579.82,-448.43 590.39,-449.12 582.56,-441.99 579.82,-448.43"/>
</g>
<!-- JAMES_MOORE_SMYTHE -->
<g id="node24" class="node">
<title>JAMES_MOORE_SMYTHE</title>
<polygon fill="none" stroke="black" points="713.06,-596.86 609.06,-596.86 609.06,-558.86 713.06,-558.86 713.06,-596.86"/>
<text text-anchor="start" x="617.06" y="-581.66" font-family="arial" font-size="14.00"> James Moore</text>
<text text-anchor="start" x="635.56" y="-566.66" font-family="arial" font-size="14.00">Smythe </text>
</g>
<!-- EDMUND_CURLL&#45;&gt;JAMES_MOORE_SMYTHE -->
<g id="edge26" class="edge">
<title>EDMUND_CURLL&#45;&gt;JAMES_MOORE_SMYTHE</title>
<path fill="none" stroke="green" d="M417.33,-384.51C465.86,-423.01 574.89,-509.51 629.14,-552.54"/>
<polygon fill="green" stroke="green" points="627.04,-555.34 637.05,-558.82 631.39,-549.86 627.04,-555.34"/>
</g>
<!-- JOHN_ARBUTHNOT -->
<g id="node25" class="node">
<title>JOHN_ARBUTHNOT</title>
<polygon fill="none" stroke="black" points="779.17,-446.19 700.17,-446.19 700.17,-408.19 779.17,-408.19 779.17,-446.19"/>
<text text-anchor="start" x="722.67" y="-430.99" font-family="arial" font-size="14.00"> John</text>
<text text-anchor="start" x="708.17" y="-415.99" font-family="arial" font-size="14.00">Arbuthnot </text>
</g>
<!-- EDMUND_CURLL&#45;&gt;JOHN_ARBUTHNOT -->
<g id="edge27" class="edge">
<title>EDMUND_CURLL&#45;&gt;JOHN_ARBUTHNOT</title>
<path fill="none" stroke="red" d="M428.86,-371.66C491.09,-382.78 619.35,-405.69 690.1,-418.33"/>
<polygon fill="red" stroke="red" points="689.65,-421.81 700.11,-420.12 690.88,-414.92 689.65,-421.81"/>
</g>
<!-- JOHN_ATTERBURY -->
<g id="node26" class="node">
<title>JOHN_ATTERBURY</title>
<polygon fill="none" stroke="black" points="626.17,-232.05 551.17,-232.05 551.17,-194.05 626.17,-194.05 626.17,-232.05"/>
<text text-anchor="start" x="571.67" y="-216.85" font-family="arial" font-size="14.00"> John</text>
<text text-anchor="start" x="559.17" y="-201.85" font-family="arial" font-size="14.00">Atterbury </text>
</g>
<!-- EDMUND_CURLL&#45;&gt;JOHN_ATTERBURY -->
<g id="edge28" class="edge">
<title>EDMUND_CURLL&#45;&gt;JOHN_ATTERBURY</title>
<path fill="none" stroke="orange" d="M417.85,-345.99C452.97,-318.66 517.29,-268.6 556.2,-238.32"/>
<polygon fill="orange" stroke="orange" points="558.35,-241.08 564.1,-232.18 554.05,-235.56 558.35,-241.08"/>
</g>
<!-- JOHN_DENNIS -->
<g id="node27" class="node">
<title>JOHN_DENNIS</title>
<polygon fill="none" stroke="black" points="557.1,-52.11 495.1,-52.11 495.1,-14.11 557.1,-14.11 557.1,-52.11"/>
<text text-anchor="start" x="509.1" y="-36.91" font-family="arial" font-size="14.00"> John</text>
<text text-anchor="start" x="503.1" y="-21.91" font-family="arial" font-size="14.00">Dennis </text>
</g>
<!-- EDMUND_CURLL&#45;&gt;JOHN_DENNIS -->
<g id="edge29" class="edge">
<title>EDMUND_CURLL&#45;&gt;JOHN_DENNIS</title>
<path fill="none" stroke="green" d="M400.81,-345.98C423.17,-290.14 488.04,-128.15 514.58,-61.88"/>
<polygon fill="green" stroke="green" points="517.88,-63.04 518.35,-52.46 511.39,-60.44 517.88,-63.04"/>
</g>
<!-- JOHN_DRYDEN -->
<g id="node28" class="node">
<title>JOHN_DRYDEN</title>
<polygon fill="none" stroke="black" points="698.86,-164.21 634.86,-164.21 634.86,-126.21 698.86,-126.21 698.86,-164.21"/>
<text text-anchor="start" x="649.86" y="-149.01" font-family="arial" font-size="14.00"> John</text>
<text text-anchor="start" x="642.86" y="-134.01" font-family="arial" font-size="14.00">Dryden </text>
</g>
<!-- EDMUND_CURLL&#45;&gt;JOHN_DRYDEN -->
<g id="edge30" class="edge">
<title>EDMUND_CURLL&#45;&gt;JOHN_DRYDEN</title>
<path fill="none" stroke="orange" d="M416.9,-346.13C466.15,-306.54 579.22,-215.65 634.81,-170.97"/>
<polygon fill="orange" stroke="orange" points="637.3,-173.46 642.9,-164.47 632.91,-168 637.3,-173.46"/>
</g>
<!-- JOHN_DUNTON -->
<g id="node29" class="node">
<title>JOHN_DUNTON</title>
<polygon fill="none" stroke="black" points="629,-113.16 565,-113.16 565,-75.16 629,-75.16 629,-113.16"/>
<text text-anchor="start" x="580" y="-97.96" font-family="arial" font-size="14.00"> John</text>
<text text-anchor="start" x="573" y="-82.96" font-family="arial" font-size="14.00">Dunton </text>
</g>
<!-- EDMUND_CURLL&#45;&gt;JOHN_DUNTON -->
<g id="edge31" class="edge">
<title>EDMUND_CURLL&#45;&gt;JOHN_DUNTON</title>
<path fill="none" stroke="green" d="M407.42,-346.21C442.96,-298.96 535.22,-176.3 576.5,-121.41"/>
<polygon fill="green" stroke="green" points="579.46,-123.3 582.68,-113.21 573.87,-119.09 579.46,-123.3"/>
</g>
<!-- JOHN_DURANT_BREVAL -->
<g id="node30" class="node">
<title>JOHN_DURANT_BREVAL</title>
<polygon fill="none" stroke="black" points="576.25,-304.94 482.25,-304.94 482.25,-266.94 576.25,-266.94 576.25,-304.94"/>
<text text-anchor="start" x="490.25" y="-289.74" font-family="arial" font-size="14.00"> John Durant</text>
<text text-anchor="start" x="507.75" y="-274.74" font-family="arial" font-size="14.00">Breval </text>
</g>
<!-- EDMUND_CURLL&#45;&gt;JOHN_DURANT_BREVAL -->
<g id="edge32" class="edge">
<title>EDMUND_CURLL&#45;&gt;JOHN_DURANT_BREVAL</title>
<path fill="none" stroke="green" d="M425.7,-346.27C444.26,-335.46 467.69,-321.8 487.58,-310.22"/>
<polygon fill="green" stroke="green" points="489.55,-313.12 496.43,-305.06 486.03,-307.07 489.55,-313.12"/>
</g>
<!-- JOHN_GAY -->
<g id="node31" class="node">
<title>JOHN_GAY</title>
<polygon fill="none" stroke="black" points="468.05,-278.24 414.05,-278.24 414.05,-240.24 468.05,-240.24 468.05,-278.24"/>
<text text-anchor="start" x="424.05" y="-263.04" font-family="arial" font-size="14.00"> John</text>
<text text-anchor="start" x="426.05" y="-248.04" font-family="arial" font-size="14.00">Gay </text>
</g>
<!-- EDMUND_CURLL&#45;&gt;JOHN_GAY -->
<g id="edge33" class="edge">
<title>EDMUND_CURLL&#45;&gt;JOHN_GAY</title>
<path fill="none" stroke="red" d="M401.88,-345.82C409.22,-329.61 419.77,-306.27 428.08,-287.91"/>
<polygon fill="red" stroke="red" points="431.38,-289.12 432.31,-278.56 425,-286.23 431.38,-289.12"/>
</g>
<!-- JOHN_HENLEY -->
<g id="node32" class="node">
<title>JOHN_HENLEY</title>
<polygon fill="none" stroke="black" points="551.13,-191.21 489.13,-191.21 489.13,-153.21 551.13,-153.21 551.13,-191.21"/>
<text text-anchor="start" x="503.13" y="-176.01" font-family="arial" font-size="14.00"> John</text>
<text text-anchor="start" x="497.13" y="-161.01" font-family="arial" font-size="14.00">Henley </text>
</g>
<!-- EDMUND_CURLL&#45;&gt;JOHN_HENLEY -->
<g id="edge34" class="edge">
<title>EDMUND_CURLL&#45;&gt;JOHN_HENLEY</title>
<path fill="none" stroke="green" d="M405.72,-346.05C428.37,-311.65 475.89,-239.43 502,-199.76"/>
<polygon fill="green" stroke="green" points="504.96,-201.63 507.53,-191.35 499.11,-197.78 504.96,-201.63"/>
</g>
<!-- JOHN_LOCKE -->
<g id="node33" class="node">
<title>JOHN_LOCKE</title>
<polygon fill="none" stroke="black" points="641.69,-333.11 585.69,-333.11 585.69,-295.11 641.69,-295.11 641.69,-333.11"/>
<text text-anchor="start" x="596.69" y="-317.91" font-family="arial" font-size="14.00"> John</text>
<text text-anchor="start" x="593.69" y="-302.91" font-family="arial" font-size="14.00">Locke </text>
</g>
<!-- EDMUND_CURLL&#45;&gt;JOHN_LOCKE -->
<g id="edge35" class="edge">
<title>EDMUND_CURLL&#45;&gt;JOHN_LOCKE</title>
<path fill="none" stroke="orange" d="M429.01,-356.94C469.31,-347.59 534.39,-332.5 575.56,-322.95"/>
<polygon fill="orange" stroke="orange" points="576.53,-326.32 585.48,-320.65 574.95,-319.5 576.53,-326.32"/>
</g>
<!-- JOHN_OLDMIXON -->
<g id="node34" class="node">
<title>JOHN_OLDMIXON</title>
<polygon fill="none" stroke="black" points="497.45,-622.52 418.45,-622.52 418.45,-584.52 497.45,-584.52 497.45,-622.52"/>
<text text-anchor="start" x="440.95" y="-607.32" font-family="arial" font-size="14.00"> John</text>
<text text-anchor="start" x="426.45" y="-592.32" font-family="arial" font-size="14.00">Oldmixon </text>
</g>
<!-- EDMUND_CURLL&#45;&gt;JOHN_OLDMIXON -->
<g id="edge36" class="edge">
<title>EDMUND_CURLL&#45;&gt;JOHN_OLDMIXON</title>
<path fill="none" stroke="green" d="M398.28,-384.37C409.62,-426.01 436.63,-525.23 450.08,-574.6"/>
<polygon fill="green" stroke="green" points="446.72,-575.61 452.73,-584.34 453.48,-573.77 446.72,-575.61"/>
</g>
<!-- JOHN_TUTCHIN -->
<g id="node35" class="node">
<title>JOHN_TUTCHIN</title>
<polygon fill="none" stroke="black" points="590.35,-585.71 525.35,-585.71 525.35,-547.71 590.35,-547.71 590.35,-585.71"/>
<text text-anchor="start" x="540.85" y="-570.51" font-family="arial" font-size="14.00"> John</text>
<text text-anchor="start" x="533.35" y="-555.51" font-family="arial" font-size="14.00">Tutchin </text>
</g>
<!-- EDMUND_CURLL&#45;&gt;JOHN_TUTCHIN -->
<g id="edge37" class="edge">
<title>EDMUND_CURLL&#45;&gt;JOHN_TUTCHIN</title>
<path fill="none" stroke="green" d="M408.88,-384.59C438.4,-420.68 502.01,-498.44 535.77,-539.71"/>
<polygon fill="green" stroke="green" points="533.06,-541.93 542.1,-547.45 538.48,-537.5 533.06,-541.93"/>
</g>
<!-- JONATHAN_SWIFT -->
<g id="node36" class="node">
<title>JONATHAN_SWIFT</title>
<polygon fill="none" stroke="black" points="638.65,-652.81 562.65,-652.81 562.65,-614.81 638.65,-614.81 638.65,-652.81"/>
<text text-anchor="start" x="570.65" y="-637.61" font-family="arial" font-size="14.00"> Jonathan</text>
<text text-anchor="start" x="583.65" y="-622.61" font-family="arial" font-size="14.00">Swift </text>
</g>
<!-- EDMUND_CURLL&#45;&gt;JONATHAN_SWIFT -->
<g id="edge38" class="edge">
<title>EDMUND_CURLL&#45;&gt;JONATHAN_SWIFT</title>
<path fill="none" stroke="red" d="M403.59,-384.63C435.08,-431.88 528.17,-552.8 574.3,-606.96"/>
<polygon fill="red" stroke="red" points="571.84,-609.46 581.02,-614.75 577.14,-604.89 571.84,-609.46"/>
</g>
<!-- EDMUND_CURLL&#45;&gt;JONATHAN_SWIFT -->
<g id="edge39" class="edge">
<title>EDMUND_CURLL&#45;&gt;JONATHAN_SWIFT</title>
<path fill="none" stroke="orange" d="M412.78,-384.42C453.74,-431.3 546.83,-551.58 584.52,-606.19"/>
<polygon fill="orange" stroke="orange" points="581.77,-608.37 590.29,-614.67 587.56,-604.44 581.77,-608.37"/>
</g>
<!-- JOSEPH_ADDISON -->
<g id="node37" class="node">
<title>JOSEPH_ADDISON</title>
<polygon fill="none" stroke="black" points="570.79,-703.5 501.79,-703.5 501.79,-665.5 570.79,-665.5 570.79,-703.5"/>
<text text-anchor="start" x="512.29" y="-688.3" font-family="arial" font-size="14.00"> Joseph</text>
<text text-anchor="start" x="509.79" y="-673.3" font-family="arial" font-size="14.00">Addison </text>
</g>
<!-- EDMUND_CURLL&#45;&gt;JOSEPH_ADDISON -->
<g id="edge40" class="edge">
<title>EDMUND_CURLL&#45;&gt;JOSEPH_ADDISON</title>
<path fill="none" stroke="red" d="M394.69,-384.62C409.59,-439.04 477.85,-592.82 514.45,-656.48"/>
<polygon fill="red" stroke="red" points="511.51,-658.38 519.62,-665.2 517.53,-654.81 511.51,-658.38"/>
</g>
<!-- EDMUND_CURLL&#45;&gt;JOSEPH_ADDISON -->
<g id="edge41" class="edge">
<title>EDMUND_CURLL&#45;&gt;JOSEPH_ADDISON</title>
<path fill="none" stroke="blue" d="M409.84,-384.72C443.02,-438.95 511.57,-591.39 531.83,-655.57"/>
<polygon fill="blue" stroke="blue" points="528.56,-656.84 534.75,-665.44 535.27,-654.85 528.56,-656.84"/>
</g>
<!-- EDMUND_CURLL&#45;&gt;JOSEPH_ADDISON -->
<g id="edge42" class="edge">
<title>EDMUND_CURLL&#45;&gt;JOSEPH_ADDISON</title>
<path fill="none" stroke="orange" d="M401.61,-384.28C425.73,-438.05 494.54,-591.44 523.35,-655.67"/>
<polygon fill="orange" stroke="orange" points="520.33,-657.49 527.62,-665.18 526.72,-654.62 520.33,-657.49"/>
</g>
<!-- JOSEPH_GAY -->
<g id="node38" class="node">
<title>JOSEPH_GAY</title>
<polygon fill="none" stroke="black" points="483.95,-527.6 419.95,-527.6 419.95,-489.6 483.95,-489.6 483.95,-527.6"/>
<text text-anchor="start" x="427.95" y="-512.4" font-family="arial" font-size="14.00"> Joseph</text>
<text text-anchor="start" x="436.95" y="-497.4" font-family="arial" font-size="14.00">Gay </text>
</g>
<!-- EDMUND_CURLL&#45;&gt;JOSEPH_GAY -->
<g id="edge43" class="edge">
<title>EDMUND_CURLL&#45;&gt;JOSEPH_GAY</title>
<path fill="none" stroke="green" d="M400.9,-384.3C410.97,-408.83 428.57,-451.67 440.24,-480.09"/>
<polygon fill="green" stroke="green" points="437.07,-481.57 444.1,-489.49 443.54,-478.91 437.07,-481.57"/>
</g>
<!-- JOSEPH_GAY_AKA_JOHN_DURANT_BREVAL -->
<g id="node39" class="node">
<title>JOSEPH_GAY_AKA_JOHN_DURANT_BREVAL</title>
<polygon fill="none" stroke="black" points="553.21,-386.67 413.21,-386.67 413.21,-348.67 553.21,-348.67 553.21,-386.67"/>
<text text-anchor="start" x="429.71" y="-371.47" font-family="arial" font-size="14.00"> Joseph Gay (aka</text>
<text text-anchor="start" x="421.21" y="-356.47" font-family="arial" font-size="14.00">John Durant Breval) </text>
</g>
<!-- EDMUND_CURLL&#45;&gt;JOSEPH_GAY_AKA_JOHN_DURANT_BREVAL -->
<g id="edge44" class="edge">
<title>EDMUND_CURLL&#45;&gt;JOSEPH_GAY_AKA_JOHN_DURANT_BREVAL</title>
<path fill="none" stroke="green" d="M428.7,-366.22C428.75,-366.22 428.8,-366.22 428.85,-366.22"/>
<polygon fill="green" stroke="green" points="418.9,-369.45 428.99,-366.23 419.09,-362.46 418.9,-369.45"/>
</g>
<!-- LADY_MARY_WORTLEY_MONTAGU -->
<g id="node40" class="node">
<title>LADY_MARY_WORTLEY_MONTAGU</title>
<polygon fill="none" stroke="black" points="627.46,-431.03 504.46,-431.03 504.46,-393.03 627.46,-393.03 627.46,-431.03"/>
<text text-anchor="start" x="531.96" y="-415.83" font-family="arial" font-size="14.00"> Lady Mary</text>
<text text-anchor="start" x="512.46" y="-400.83" font-family="arial" font-size="14.00">Wortley Montagu </text>
</g>
<!-- EDMUND_CURLL&#45;&gt;LADY_MARY_WORTLEY_MONTAGU -->
<g id="edge45" class="edge">
<title>EDMUND_CURLL&#45;&gt;LADY_MARY_WORTLEY_MONTAGU</title>
<path fill="none" stroke="green" d="M428.9,-374.96C447.85,-380.09 471.82,-386.57 494.4,-392.67"/>
<polygon fill="green" stroke="green" points="493.74,-396.12 504.3,-395.35 495.56,-389.36 493.74,-396.12"/>
</g>
<!-- LEONARD_WELSTED -->
<g id="node41" class="node">
<title>LEONARD_WELSTED</title>
<polygon fill="none" stroke="black" points="553.69,-519.18 483.69,-519.18 483.69,-481.18 553.69,-481.18 553.69,-519.18"/>
<text text-anchor="start" x="491.69" y="-503.98" font-family="arial" font-size="14.00"> Leonard</text>
<text text-anchor="start" x="492.19" y="-488.98" font-family="arial" font-size="14.00">Welsted </text>
</g>
<!-- EDMUND_CURLL&#45;&gt;LEONARD_WELSTED -->
<g id="edge46" class="edge">
<title>EDMUND_CURLL&#45;&gt;LEONARD_WELSTED</title>
<path fill="none" stroke="green" d="M410.81,-384.31C432.48,-407.58 469.27,-447.1 493.77,-473.42"/>
<polygon fill="green" stroke="green" points="491.27,-475.86 500.64,-480.8 496.39,-471.09 491.27,-475.86"/>
</g>
<!-- LEWIS_THEOBALD -->
<g id="node42" class="node">
<title>LEWIS_THEOBALD</title>
<polygon fill="none" stroke="black" points="403.97,-737.57 326.97,-737.57 326.97,-699.57 403.97,-699.57 403.97,-737.57"/>
<text text-anchor="start" x="345.97" y="-722.37" font-family="arial" font-size="14.00"> Lewis</text>
<text text-anchor="start" x="334.97" y="-707.37" font-family="arial" font-size="14.00">Theobald </text>
</g>
<!-- EDMUND_CURLL&#45;&gt;LEWIS_THEOBALD -->
<g id="edge47" class="edge">
<title>EDMUND_CURLL&#45;&gt;LEWIS_THEOBALD</title>
<path fill="none" stroke="green" d="M384.92,-384.51C371.58,-443 357.43,-619.01 359.93,-689.2"/>
<polygon fill="green" stroke="green" points="356.46,-689.73 360.48,-699.53 363.45,-689.36 356.46,-689.73"/>
</g>
<!-- EDMUND_CURLL&#45;&gt;LEWIS_THEOBALD -->
<g id="edge48" class="edge">
<title>EDMUND_CURLL&#45;&gt;LEWIS_THEOBALD</title>
<path fill="none" stroke="red" d="M398.1,-384.77C402.34,-443.67 389.03,-619.93 375.64,-689.69"/>
<polygon fill="red" stroke="red" points="372.2,-689.06 373.58,-699.56 379.05,-690.49 372.2,-689.06"/>
</g>
<!-- EDMUND_CURLL&#45;&gt;LEWIS_THEOBALD -->
<g id="edge49" class="edge">
<title>EDMUND_CURLL&#45;&gt;LEWIS_THEOBALD</title>
<path fill="none" stroke="orange" d="M391.57,-384.52C387,-443.02 373.25,-619.01 367.76,-689.2"/>
<polygon fill="orange" stroke="orange" points="364.25,-689.28 366.96,-699.52 371.23,-689.82 364.25,-689.28"/>
</g>
<!-- MATTHEW_CONCANEN -->
<g id="node43" class="node">
<title>MATTHEW_CONCANEN</title>
<polygon fill="none" stroke="black" points="314.72,-705.8 232.72,-705.8 232.72,-667.8 314.72,-667.8 314.72,-705.8"/>
<text text-anchor="start" x="245.72" y="-690.6" font-family="arial" font-size="14.00"> Matthew</text>
<text text-anchor="start" x="240.72" y="-675.6" font-family="arial" font-size="14.00">Concanen </text>
</g>
<!-- EDMUND_CURLL&#45;&gt;MATTHEW_CONCANEN -->
<g id="edge50" class="edge">
<title>EDMUND_CURLL&#45;&gt;MATTHEW_CONCANEN</title>
<path fill="none" stroke="green" d="M385.97,-384.42C365.82,-438.71 308.24,-593.81 284.33,-658.22"/>
<polygon fill="green" stroke="green" points="280.99,-657.16 280.79,-667.75 287.56,-659.6 280.99,-657.16"/>
</g>
<!-- MATTHEW_PRIOR -->
<g id="node44" class="node">
<title>MATTHEW_PRIOR</title>
<polygon fill="none" stroke="black" points="400.15,-650.1 328.15,-650.1 328.15,-612.1 400.15,-612.1 400.15,-650.1"/>
<text text-anchor="start" x="336.15" y="-634.9" font-family="arial" font-size="14.00"> Matthew</text>
<text text-anchor="start" x="347.65" y="-619.9" font-family="arial" font-size="14.00">Prior </text>
</g>
<!-- EDMUND_CURLL&#45;&gt;MATTHEW_PRIOR -->
<g id="edge51" class="edge">
<title>EDMUND_CURLL&#45;&gt;MATTHEW_PRIOR</title>
<path fill="none" stroke="red" d="M391,-384.39C386.01,-430.26 373.32,-546.81 367.35,-601.68"/>
<polygon fill="red" stroke="red" points="363.85,-601.48 366.25,-611.8 370.81,-602.23 363.85,-601.48"/>
</g>
<!-- RICHARD_BLACKMORE -->
<g id="node45" class="node">
<title>RICHARD_BLACKMORE</title>
<polygon fill="none" stroke="black" points="494.84,-719.42 409.84,-719.42 409.84,-681.42 494.84,-681.42 494.84,-719.42"/>
<text text-anchor="start" x="426.84" y="-704.22" font-family="arial" font-size="14.00"> Richard</text>
<text text-anchor="start" x="417.84" y="-689.22" font-family="arial" font-size="14.00">Blackmore </text>
</g>
<!-- EDMUND_CURLL&#45;&gt;RICHARD_BLACKMORE -->
<g id="edge52" class="edge">
<title>EDMUND_CURLL&#45;&gt;RICHARD_BLACKMORE</title>
<path fill="none" stroke="green" d="M396.52,-384.74C406.49,-441.1 435.4,-604.63 447.22,-671.45"/>
<polygon fill="green" stroke="green" points="443.77,-672.08 448.96,-681.32 450.67,-670.86 443.77,-672.08"/>
</g>
<!-- SAMUEL_GARTH -->
<g id="node46" class="node">
<title>SAMUEL_GARTH</title>
<polygon fill="none" stroke="black" points="403.66,-471.65 336.66,-471.65 336.66,-433.65 403.66,-433.65 403.66,-471.65"/>
<text text-anchor="start" x="344.66" y="-456.45" font-family="arial" font-size="14.00"> Samuel</text>
<text text-anchor="start" x="350.66" y="-441.45" font-family="arial" font-size="14.00">Garth </text>
</g>
<!-- EDMUND_CURLL&#45;&gt;SAMUEL_GARTH -->
<g id="edge53" class="edge">
<title>EDMUND_CURLL&#45;&gt;SAMUEL_GARTH</title>
<path fill="none" stroke="red" d="M382,-384.5C377.95,-395.91 373.93,-410.6 371.29,-423.42"/>
<polygon fill="red" stroke="red" points="367.78,-423.17 369.42,-433.64 374.66,-424.43 367.78,-423.17"/>
</g>
<!-- EDMUND_CURLL&#45;&gt;SAMUEL_GARTH -->
<g id="edge54" class="edge">
<title>EDMUND_CURLL&#45;&gt;SAMUEL_GARTH</title>
<path fill="none" stroke="orange" d="M393.81,-384.36C392.02,-395.84 388.45,-410.66 384.49,-423.57"/>
<polygon fill="orange" stroke="orange" points="381.05,-422.81 381.25,-433.41 387.7,-425 381.05,-422.81"/>
</g>
<!-- THOMAS_COOKE -->
<g id="node47" class="node">
<title>THOMAS_COOKE</title>
<polygon fill="none" stroke="black" points="315.12,-493.34 245.12,-493.34 245.12,-455.34 315.12,-455.34 315.12,-493.34"/>
<text text-anchor="start" x="253.12" y="-478.14" font-family="arial" font-size="14.00"> Thomas</text>
<text text-anchor="start" x="258.62" y="-463.14" font-family="arial" font-size="14.00">Cooke </text>
</g>
<!-- EDMUND_CURLL&#45;&gt;THOMAS_COOKE -->
<g id="edge55" class="edge">
<title>EDMUND_CURLL&#45;&gt;THOMAS_COOKE</title>
<path fill="none" stroke="green" d="M373.14,-384.52C354.84,-402.2 327.55,-428.55 307.26,-448.14"/>
<polygon fill="green" stroke="green" points="304.62,-445.82 299.86,-455.29 309.48,-450.86 304.62,-445.82"/>
</g>
<!-- THOMAS_OSBORNE -->
<g id="node48" class="node">
<title>THOMAS_OSBORNE</title>
<polygon fill="none" stroke="black" points="319.03,-618.53 246.03,-618.53 246.03,-580.53 319.03,-580.53 319.03,-618.53"/>
<text text-anchor="start" x="255.53" y="-603.33" font-family="arial" font-size="14.00"> Thomas</text>
<text text-anchor="start" x="254.03" y="-588.33" font-family="arial" font-size="14.00">Osborne </text>
</g>
<!-- EDMUND_CURLL&#45;&gt;THOMAS_OSBORNE -->
<g id="edge56" class="edge">
<title>EDMUND_CURLL&#45;&gt;THOMAS_OSBORNE</title>
<path fill="none" stroke="green" d="M384.03,-384.44C364.59,-425.64 318.74,-522.79 295.92,-571.15"/>
<polygon fill="green" stroke="green" points="292.65,-569.88 291.55,-580.42 298.98,-572.87 292.65,-569.88"/>
</g>
<!-- THOMAS_WARNER -->
<g id="node49" class="node">
<title>THOMAS_WARNER</title>
<polygon fill="none" stroke="black" points="386.62,-563 316.62,-563 316.62,-525 386.62,-525 386.62,-563"/>
<text text-anchor="start" x="324.62" y="-547.8" font-family="arial" font-size="14.00"> Thomas</text>
<text text-anchor="start" x="327.12" y="-532.8" font-family="arial" font-size="14.00">Warner </text>
</g>
<!-- EDMUND_CURLL&#45;&gt;THOMAS_WARNER -->
<g id="edge57" class="edge">
<title>EDMUND_CURLL&#45;&gt;THOMAS_WARNER</title>
<path fill="none" stroke="green" d="M388.64,-384.4C381.4,-415.63 366.98,-477.77 358.44,-514.62"/>
<polygon fill="green" stroke="green" points="354.94,-514.21 356.09,-524.74 361.76,-515.79 354.94,-514.21"/>
</g>
<!-- TOUSSAINT_EDMOND_DE_SAINTMARD -->
<g id="node50" class="node">
<title>TOUSSAINT_EDMOND_DE_SAINTMARD</title>
<polygon fill="none" stroke="black" points="505.08,-167.44 373.08,-167.44 373.08,-129.44 505.08,-129.44 505.08,-167.44"/>
<text text-anchor="start" x="381.08" y="-152.24" font-family="arial" font-size="14.00"> Toussaint Edmond</text>
<text text-anchor="start" x="394.08" y="-137.24" font-family="arial" font-size="14.00">de Saint&#45;Mard </text>
</g>
<!-- EDMUND_CURLL&#45;&gt;TOUSSAINT_EDMOND_DE_SAINTMARD -->
<g id="edge58" class="edge">
<title>EDMUND_CURLL&#45;&gt;TOUSSAINT_EDMOND_DE_SAINTMARD</title>
<path fill="none" stroke="orange" d="M397.16,-346.03C405.24,-307.94 423.32,-222.72 432.88,-177.66"/>
<polygon fill="orange" stroke="orange" points="436.35,-178.15 435.01,-167.64 429.51,-176.7 436.35,-178.15"/>
</g>
<!-- WHITE_KENNETH -->
<g id="node51" class="node">
<title>WHITE_KENNETH</title>
<polygon fill="none" stroke="black" points="495.57,-96.72 424.57,-96.72 424.57,-58.72 495.57,-58.72 495.57,-96.72"/>
<text text-anchor="start" x="440.07" y="-81.52" font-family="arial" font-size="14.00"> White</text>
<text text-anchor="start" x="432.57" y="-66.52" font-family="arial" font-size="14.00">Kenneth </text>
</g>
<!-- EDMUND_CURLL&#45;&gt;WHITE_KENNETH -->
<g id="edge59" class="edge">
<title>EDMUND_CURLL&#45;&gt;WHITE_KENNETH</title>
<path fill="none" stroke="red" d="M397.58,-345.96C409.07,-296.64 439.54,-165.83 453.23,-107.05"/>
<polygon fill="red" stroke="red" points="456.73,-107.48 455.59,-96.95 449.91,-105.9 456.73,-107.48"/>
</g>
<!-- WILLIAM_BOND -->
<g id="node52" class="node">
<title>WILLIAM_BOND</title>
<polygon fill="none" stroke="black" points="418.66,-38 353.66,-38 353.66,0 418.66,0 418.66,-38"/>
<text text-anchor="start" x="361.66" y="-22.8" font-family="arial" font-size="14.00"> William</text>
<text text-anchor="start" x="368.16" y="-7.8" font-family="arial" font-size="14.00">Bond </text>
</g>
<!-- EDMUND_CURLL&#45;&gt;WILLIAM_BOND -->
<g id="edge60" class="edge">
<title>EDMUND_CURLL&#45;&gt;WILLIAM_BOND</title>
<path fill="none" stroke="green" d="M392.7,-346.16C391.55,-288.69 388.12,-117.19 386.74,-48.21"/>
<polygon fill="green" stroke="green" points="390.24,-47.98 386.54,-38.05 383.24,-48.12 390.24,-47.98"/>
</g>
<!-- WILLIAM_BOND_ -->
<g id="node53" class="node">
<title>WILLIAM_BOND_</title>
<polygon fill="none" stroke="black" points="418.31,-164.4 317.31,-164.4 317.31,-126.4 418.31,-126.4 418.31,-164.4"/>
<text text-anchor="start" x="325.31" y="-149.2" font-family="arial" font-size="14.00"> William Bond</text>
<text text-anchor="start" x="365.81" y="-134.2" font-family="arial" font-size="14.00"> </text>
</g>
<!-- EDMUND_CURLL&#45;&gt;WILLIAM_BOND_ -->
<g id="edge61" class="edge">
<title>EDMUND_CURLL&#45;&gt;WILLIAM_BOND_</title>
<path fill="none" stroke="green" d="M390.88,-346.14C386.46,-307.65 376.45,-220.6 371.19,-174.81"/>
<polygon fill="green" stroke="green" points="374.64,-174.18 370.02,-164.64 367.69,-174.98 374.64,-174.18"/>
</g>
<!-- WILLIAM_CAVENDISH -->
<g id="node54" class="node">
<title>WILLIAM_CAVENDISH</title>
<polygon fill="none" stroke="black" points="317.09,-227.47 233.09,-227.47 233.09,-189.47 317.09,-189.47 317.09,-227.47"/>
<text text-anchor="start" x="250.59" y="-212.27" font-family="arial" font-size="14.00"> William</text>
<text text-anchor="start" x="241.09" y="-197.27" font-family="arial" font-size="14.00">Cavendish </text>
</g>
<!-- EDMUND_CURLL&#45;&gt;WILLIAM_CAVENDISH -->
<g id="edge62" class="edge">
<title>EDMUND_CURLL&#45;&gt;WILLIAM_CAVENDISH</title>
<path fill="none" stroke="red" d="M378.61,-346.04C357.91,-318.54 319.73,-267.79 295.97,-236.22"/>
<polygon fill="red" stroke="red" points="298.49,-233.74 289.68,-227.86 292.89,-237.95 298.49,-233.74"/>
</g>
<!-- WILLIAM_CONGREVE -->
<g id="node55" class="node">
<title>WILLIAM_CONGREVE</title>
<polygon fill="none" stroke="black" points="239.2,-76.42 160.2,-76.42 160.2,-38.42 239.2,-38.42 239.2,-76.42"/>
<text text-anchor="start" x="175.2" y="-61.22" font-family="arial" font-size="14.00"> William</text>
<text text-anchor="start" x="168.2" y="-46.22" font-family="arial" font-size="14.00">Congreve </text>
</g>
<!-- EDMUND_CURLL&#45;&gt;WILLIAM_CONGREVE -->
<g id="edge63" class="edge">
<title>EDMUND_CURLL&#45;&gt;WILLIAM_CONGREVE</title>
<path fill="none" stroke="red" d="M384.95,-346.06C356.86,-293.37 265.09,-146.73 222.08,-85.15"/>
<polygon fill="red" stroke="red" points="224.74,-82.85 216.11,-76.71 219.03,-86.89 224.74,-82.85"/>
</g>
<!-- EDMUND_CURLL&#45;&gt;WILLIAM_CONGREVE -->
<g id="edge64" class="edge">
<title>EDMUND_CURLL&#45;&gt;WILLIAM_CONGREVE</title>
<path fill="none" stroke="orange" d="M376.71,-346.04C338.87,-293.41 246.84,-147.11 212.6,-85.4"/>
<polygon fill="orange" stroke="orange" points="215.66,-83.69 207.8,-76.59 209.51,-87.04 215.66,-83.69"/>
</g>
<!-- WILLIAM_MEARS -->
<g id="node56" class="node">
<title>WILLIAM_MEARS</title>
<polygon fill="none" stroke="black" points="239.06,-151.97 174.06,-151.97 174.06,-113.97 239.06,-113.97 239.06,-151.97"/>
<text text-anchor="start" x="182.06" y="-136.77" font-family="arial" font-size="14.00"> William</text>
<text text-anchor="start" x="185.06" y="-121.77" font-family="arial" font-size="14.00">Mears </text>
</g>
<!-- EDMUND_CURLL&#45;&gt;WILLIAM_MEARS -->
<g id="edge65" class="edge">
<title>EDMUND_CURLL&#45;&gt;WILLIAM_MEARS</title>
<path fill="none" stroke="green" d="M377.81,-346.26C344.82,-305.17 266.75,-207.93 228.48,-160.27"/>
<polygon fill="green" stroke="green" points="231.03,-157.85 222.04,-152.24 225.57,-162.23 231.03,-157.85"/>
</g>
<!-- WILLIAM_WILKINS -->
<g id="node57" class="node">
<title>WILLIAM_WILKINS</title>
<polygon fill="none" stroke="black" points="342.68,-116.46 277.68,-116.46 277.68,-78.46 342.68,-78.46 342.68,-116.46"/>
<text text-anchor="start" x="285.68" y="-101.26" font-family="arial" font-size="14.00"> William</text>
<text text-anchor="start" x="286.18" y="-86.26" font-family="arial" font-size="14.00">Wilkins </text>
</g>
<!-- EDMUND_CURLL&#45;&gt;WILLIAM_WILKINS -->
<g id="edge66" class="edge">
<title>EDMUND_CURLL&#45;&gt;WILLIAM_WILKINS</title>
<path fill="none" stroke="green" d="M387.12,-346.01C372.75,-299.59 336.14,-181.31 319.13,-126.35"/>
<polygon fill="green" stroke="green" points="322.39,-125.06 316.09,-116.54 315.7,-127.13 322.39,-125.06"/>
</g>
<!-- WILLIAM_WYCHERLEY -->
<g id="node58" class="node">
<title>WILLIAM_WYCHERLEY</title>
<polygon fill="none" stroke="black" points="323.96,-41.7 240.96,-41.7 240.96,-3.7 323.96,-3.7 323.96,-41.7"/>
<text text-anchor="start" x="257.96" y="-26.5" font-family="arial" font-size="14.00"> William</text>
<text text-anchor="start" x="248.96" y="-11.5" font-family="arial" font-size="14.00">Wycherley </text>
</g>
<!-- EDMUND_CURLL&#45;&gt;WILLIAM_WYCHERLEY -->
<g id="edge67" class="edge">
<title>EDMUND_CURLL&#45;&gt;WILLIAM_WYCHERLEY</title>
<path fill="none" stroke="blue" d="M386.81,-345.87C368.29,-288.52 313.73,-119.53 291.77,-51.53"/>
<polygon fill="blue" stroke="blue" points="295.06,-50.33 288.66,-41.88 288.4,-52.48 295.06,-50.33"/>
</g>
</g>
</svg>
