<?xml version="1.0" encoding="UTF-8" standalone="no"?>
<!DOCTYPE svg PUBLIC "-//W3C//DTD SVG 1.1//EN"
 "http://www.w3.org/Graphics/SVG/1.1/DTD/svg11.dtd">
<!-- Generated by graphviz version 2.50.0 (0)
 -->
<!-- Title: G Pages: 1 -->
<svg width="2862pt" height="2664pt"
 viewBox="0.00 0.00 2861.66 2664.50" xmlns="http://www.w3.org/2000/svg" xmlns:xlink="http://www.w3.org/1999/xlink">
<g id="graph0" class="graph" transform="scale(1 1) rotate(0) translate(4 2660.5)">
<title>G</title>
<polygon fill="white" stroke="transparent" points="-4,4 -4,-2660.5 2857.66,-2660.5 2857.66,4 -4,4"/>
<!-- ABEL_EVANS -->
<g id="node1" class="node">
<title>ABEL_EVANS</title>
<polygon fill="none" stroke="black" points="58,-1347.34 0,-1347.34 0,-1309.34 58,-1309.34 58,-1347.34"/>
<text text-anchor="start" x="13.5" y="-1332.14" font-family="arial" font-size="14.00"> Abel</text>
<text text-anchor="start" x="8" y="-1317.14" font-family="arial" font-size="14.00">Evans </text>
</g>
<!-- ABEL_ROPER -->
<g id="node2" class="node">
<title>ABEL_ROPER</title>
<polygon fill="none" stroke="black" points="230.42,-1276.38 173.42,-1276.38 173.42,-1238.38 230.42,-1238.38 230.42,-1276.38"/>
<text text-anchor="start" x="186.42" y="-1261.18" font-family="arial" font-size="14.00"> Abel</text>
<text text-anchor="start" x="181.42" y="-1246.18" font-family="arial" font-size="14.00">Roper </text>
</g>
<!-- ALEXANDER_POPE -->
<g id="node3" class="node">
<title>ALEXANDER_POPE</title>
<polygon fill="none" stroke="black" points="257.04,-1136.76 177.04,-1136.76 177.04,-1098.76 257.04,-1098.76 257.04,-1136.76"/>
<text text-anchor="start" x="185.04" y="-1121.56" font-family="arial" font-size="14.00"> Alexander</text>
<text text-anchor="start" x="199.04" y="-1106.56" font-family="arial" font-size="14.00">Pope </text>
</g>
<!-- AMBROSE_PHILLIPS -->
<g id="node4" class="node">
<title>AMBROSE_PHILLIPS</title>
<polygon fill="none" stroke="black" points="286.31,-991.38 212.31,-991.38 212.31,-953.38 286.31,-953.38 286.31,-991.38"/>
<text text-anchor="start" x="220.31" y="-976.18" font-family="arial" font-size="14.00"> Ambrose</text>
<text text-anchor="start" x="225.81" y="-961.18" font-family="arial" font-size="14.00">Phillips </text>
</g>
<!-- BERNARD_LINTOT -->
<g id="node5" class="node">
<title>BERNARD_LINTOT</title>
<polygon fill="none" stroke="black" points="329.62,-856.16 261.62,-856.16 261.62,-818.16 329.62,-818.16 329.62,-856.16"/>
<text text-anchor="start" x="269.62" y="-840.96" font-family="arial" font-size="14.00"> Bernard</text>
<text text-anchor="start" x="277.12" y="-825.96" font-family="arial" font-size="14.00">Lintot </text>
</g>
<!-- BESALEEL_MORRIS -->
<g id="node6" class="node">
<title>BESALEEL_MORRIS</title>
<polygon fill="none" stroke="black" points="391.91,-727.68 319.91,-727.68 319.91,-689.68 391.91,-689.68 391.91,-727.68"/>
<text text-anchor="start" x="327.91" y="-712.48" font-family="arial" font-size="14.00"> Besaleel</text>
<text text-anchor="start" x="334.41" y="-697.48" font-family="arial" font-size="14.00">Morris </text>
</g>
<!-- CHARLES_GILDON -->
<g id="node7" class="node">
<title>CHARLES_GILDON</title>
<polygon fill="none" stroke="black" points="462.98,-606.88 395.98,-606.88 395.98,-568.88 462.98,-568.88 462.98,-606.88"/>
<text text-anchor="start" x="403.98" y="-591.68" font-family="arial" font-size="14.00"> Charles</text>
<text text-anchor="start" x="407.48" y="-576.68" font-family="arial" font-size="14.00">Gildon </text>
</g>
<!-- CLOACINA -->
<g id="node8" class="node">
<title>CLOACINA</title>
<polygon fill="none" stroke="black" points="555.77,-491.83 478.77,-491.83 478.77,-455.83 555.77,-455.83 555.77,-491.83"/>
<text text-anchor="start" x="486.77" y="-470.13" font-family="arial" font-size="14.00"> Cloacina </text>
</g>
<!-- COLLEY_CIBBER -->
<g id="node9" class="node">
<title>COLLEY_CIBBER</title>
<polygon fill="none" stroke="black" points="644.5,-391.5 584.5,-391.5 584.5,-353.5 644.5,-353.5 644.5,-391.5"/>
<text text-anchor="start" x="593.5" y="-376.3" font-family="arial" font-size="14.00"> Colley</text>
<text text-anchor="start" x="592.5" y="-361.3" font-family="arial" font-size="14.00">Cibber </text>
</g>
<!-- DANIEL_DEFOE -->
<g id="node10" class="node">
<title>DANIEL_DEFOE</title>
<polygon fill="none" stroke="black" points="744.34,-306.59 685.34,-306.59 685.34,-268.59 744.34,-268.59 744.34,-306.59"/>
<text text-anchor="start" x="693.34" y="-291.39" font-family="arial" font-size="14.00"> Daniel</text>
<text text-anchor="start" x="694.84" y="-276.39" font-family="arial" font-size="14.00">Defoe </text>
</g>
<!-- EDMUND_CURLL -->
<g id="node11" class="node">
<title>EDMUND_CURLL</title>
<polygon fill="none" stroke="black" points="1544.87,-1347.34 1473.87,-1347.34 1473.87,-1309.34 1544.87,-1309.34 1544.87,-1347.34"/>
<text text-anchor="start" x="1481.87" y="-1332.14" font-family="arial" font-size="14.00"> Edmund</text>
<text text-anchor="start" x="1493.37" y="-1317.14" font-family="arial" font-size="14.00">Curll </text>
</g>
<!-- EDMUND_CURLL&#45;&gt;ABEL_EVANS -->
<g id="edge1" class="edge">
<title>EDMUND_CURLL&#45;&gt;ABEL_EVANS</title>
<path fill="none" stroke="orange" d="M1473.51,-1328.34C1271.69,-1328.34 279.09,-1328.34 68.37,-1328.34"/>
<polygon fill="orange" stroke="orange" points="68.09,-1324.84 58.09,-1328.34 68.09,-1331.84 68.09,-1324.84"/>
</g>
<!-- EDMUND_CURLL&#45;&gt;ABEL_ROPER -->
<g id="edge2" class="edge">
<title>EDMUND_CURLL&#45;&gt;ABEL_ROPER</title>
<path fill="none" stroke="green" d="M1473.72,-1326.41C1288.15,-1316.34 433.81,-1269.97 240.76,-1259.49"/>
<polygon fill="green" stroke="green" points="240.71,-1255.98 230.53,-1258.93 240.33,-1262.97 240.71,-1255.98"/>
</g>
<!-- EDMUND_CURLL&#45;&gt;ALEXANDER_POPE -->
<g id="edge3" class="edge">
<title>EDMUND_CURLL&#45;&gt;ALEXANDER_POPE</title>
<path fill="none" stroke="red" d="M1473.84,-1320.1C1293.45,-1285 479.14,-1152.17 267.46,-1123.13"/>
<polygon fill="red" stroke="red" points="267.64,-1119.62 257.26,-1121.74 266.7,-1126.55 267.64,-1119.62"/>
</g>
<!-- EDMUND_CURLL&#45;&gt;ALEXANDER_POPE -->
<g id="edge4" class="edge">
<title>EDMUND_CURLL&#45;&gt;ALEXANDER_POPE</title>
<path fill="none" stroke="orange" d="M1473.74,-1324.97C1293.03,-1301.25 478.03,-1168.59 267.04,-1128.78"/>
<polygon fill="orange" stroke="orange" points="267.65,-1125.33 257.17,-1126.9 266.34,-1132.2 267.65,-1125.33"/>
</g>
<!-- EDMUND_CURLL&#45;&gt;AMBROSE_PHILLIPS -->
<g id="edge5" class="edge">
<title>EDMUND_CURLL&#45;&gt;AMBROSE_PHILLIPS</title>
<path fill="none" stroke="green" d="M1473.69,-1318.26C1295.07,-1267.81 498.68,-1042.83 296.24,-985.64"/>
<polygon fill="green" stroke="green" points="297.08,-982.24 286.5,-982.89 295.17,-988.97 297.08,-982.24"/>
</g>
<!-- EDMUND_CURLL&#45;&gt;BERNARD_LINTOT -->
<g id="edge6" class="edge">
<title>EDMUND_CURLL&#45;&gt;BERNARD_LINTOT</title>
<path fill="none" stroke="green" d="M1473.7,-1313.91C1298.68,-1243.08 531.39,-932.57 339.33,-854.85"/>
<polygon fill="green" stroke="green" points="340.42,-851.52 329.84,-851.01 337.79,-858 340.42,-851.52"/>
</g>
<!-- EDMUND_CURLL&#45;&gt;BESALEEL_MORRIS -->
<g id="edge7" class="edge">
<title>EDMUND_CURLL&#45;&gt;BESALEEL_MORRIS</title>
<path fill="none" stroke="green" d="M1473.9,-1309.29C1305.48,-1218.81 586.87,-832.75 400.31,-732.52"/>
<polygon fill="green" stroke="green" points="401.79,-729.35 391.32,-727.7 398.47,-735.51 401.79,-729.35"/>
</g>
<!-- EDMUND_CURLL&#45;&gt;CHARLES_GILDON -->
<g id="edge8" class="edge">
<title>EDMUND_CURLL&#45;&gt;CHARLES_GILDON</title>
<path fill="none" stroke="green" d="M1481.59,-1309.3C1333.13,-1207.5 633.87,-728.03 465.85,-612.82"/>
<polygon fill="green" stroke="green" points="467.8,-609.91 457.57,-607.14 463.84,-615.69 467.8,-609.91"/>
</g>
<!-- EDMUND_CURLL&#45;&gt;CLOACINA -->
<g id="edge9" class="edge">
<title>EDMUND_CURLL&#45;&gt;CLOACINA</title>
<path fill="none" stroke="green" d="M1487.26,-1309.3C1357.34,-1197.4 693.99,-626.04 546.4,-498.92"/>
<polygon fill="green" stroke="green" points="548.45,-496.07 538.59,-492.19 543.88,-501.37 548.45,-496.07"/>
</g>
<!-- EDMUND_CURLL&#45;&gt;COLLEY_CIBBER -->
<g id="edge10" class="edge">
<title>EDMUND_CURLL&#45;&gt;COLLEY_CIBBER</title>
<path fill="none" stroke="green" d="M1494.15,-1309.15C1389.8,-1188.68 781.25,-538.43 642.58,-398.86"/>
<polygon fill="green" stroke="green" points="644.77,-396.1 635.22,-391.5 639.82,-401.05 644.77,-396.1"/>
</g>
<!-- EDMUND_CURLL&#45;&gt;COLLEY_CIBBER -->
<g id="edge11" class="edge">
<title>EDMUND_CURLL&#45;&gt;COLLEY_CIBBER</title>
<path fill="none" stroke="orange" d="M1488.26,-1308.97C1366.94,-1188.23 760.29,-540.34 636.53,-399.5"/>
<polygon fill="orange" stroke="orange" points="638.93,-396.92 629.71,-391.69 633.65,-401.53 638.93,-396.92"/>
</g>
<!-- EDMUND_CURLL&#45;&gt;DANIEL_DEFOE -->
<g id="edge12" class="edge">
<title>EDMUND_CURLL&#45;&gt;DANIEL_DEFOE</title>
<path fill="none" stroke="green" d="M1494.55,-1308.94C1397.28,-1181.53 850.4,-465.17 735.87,-315.14"/>
<polygon fill="green" stroke="green" points="738.4,-312.69 729.55,-306.86 732.84,-316.93 738.4,-312.69"/>
</g>
<!-- EDWARD_WARD -->
<g id="node12" class="node">
<title>EDWARD_WARD</title>
<polygon fill="none" stroke="black" points="858.75,-230.61 792.75,-230.61 792.75,-192.61 858.75,-192.61 858.75,-230.61"/>
<text text-anchor="start" x="800.75" y="-215.41" font-family="arial" font-size="14.00"> Edward</text>
<text text-anchor="start" x="807.25" y="-200.41" font-family="arial" font-size="14.00">Ward </text>
</g>
<!-- EDMUND_CURLL&#45;&gt;EDWARD_WARD -->
<g id="edge13" class="edge">
<title>EDMUND_CURLL&#45;&gt;EDWARD_WARD</title>
<path fill="none" stroke="green" d="M1499.69,-1308.9C1425.5,-1175.62 949.68,-398.04 845.73,-239.72"/>
<polygon fill="green" stroke="green" points="848.4,-237.42 839.96,-231.01 842.56,-241.28 848.4,-237.42"/>
</g>
<!-- EDMUND_CURLL&#45;&gt;EDWARD_WARD -->
<g id="edge14" class="edge">
<title>EDMUND_CURLL&#45;&gt;EDWARD_WARD</title>
<path fill="none" stroke="blue" d="M1495.22,-1309.05C1406.58,-1176.22 930.39,-398.51 840.37,-239.85"/>
<polygon fill="blue" stroke="blue" points="843.18,-237.71 835.23,-230.71 837.08,-241.14 843.18,-237.71"/>
</g>
<!-- EDWARD_YOUNG -->
<g id="node13" class="node">
<title>EDWARD_YOUNG</title>
<polygon fill="none" stroke="black" points="980.02,-164.89 914.02,-164.89 914.02,-126.89 980.02,-126.89 980.02,-164.89"/>
<text text-anchor="start" x="922.02" y="-149.69" font-family="arial" font-size="14.00"> Edward</text>
<text text-anchor="start" x="925.52" y="-134.69" font-family="arial" font-size="14.00">Young </text>
</g>
<!-- EDMUND_CURLL&#45;&gt;EDWARD_YOUNG -->
<g id="edge15" class="edge">
<title>EDMUND_CURLL&#45;&gt;EDWARD_YOUNG</title>
<path fill="none" stroke="orange" d="M1500.31,-1309.29C1435.21,-1172.4 1039.09,-339.48 960.55,-174.33"/>
<polygon fill="orange" stroke="orange" points="963.69,-172.8 956.24,-165.27 957.37,-175.8 963.69,-172.8"/>
</g>
<!-- ELIZABETH_THOMAS -->
<g id="node14" class="node">
<title>ELIZABETH_THOMAS</title>
<polygon fill="none" stroke="black" points="1117.25,-110.64 1041.25,-110.64 1041.25,-72.64 1117.25,-72.64 1117.25,-110.64"/>
<text text-anchor="start" x="1049.25" y="-95.44" font-family="arial" font-size="14.00"> Elizabeth</text>
<text text-anchor="start" x="1052.25" y="-80.44" font-family="arial" font-size="14.00">Thomas </text>
</g>
<!-- EDMUND_CURLL&#45;&gt;ELIZABETH_THOMAS -->
<g id="edge16" class="edge">
<title>EDMUND_CURLL&#45;&gt;ELIZABETH_THOMAS</title>
<path fill="none" stroke="green" d="M1502.61,-1308.92C1453.28,-1167.08 1148.83,-291.68 1089.33,-120.61"/>
<polygon fill="green" stroke="green" points="1092.59,-119.32 1086,-111.02 1085.97,-121.61 1092.59,-119.32"/>
</g>
<!-- ELIZA_HAYWOOD -->
<g id="node15" class="node">
<title>ELIZA_HAYWOOD</title>
<polygon fill="none" stroke="black" points="1260.48,-69.91 1183.48,-69.91 1183.48,-31.91 1260.48,-31.91 1260.48,-69.91"/>
<text text-anchor="start" x="1204.98" y="-54.71" font-family="arial" font-size="14.00"> Eliza</text>
<text text-anchor="start" x="1191.48" y="-39.71" font-family="arial" font-size="14.00">Haywood </text>
</g>
<!-- EDMUND_CURLL&#45;&gt;ELIZA_HAYWOOD -->
<g id="edge17" class="edge">
<title>EDMUND_CURLL&#45;&gt;ELIZA_HAYWOOD</title>
<path fill="none" stroke="green" d="M1505.08,-1309.3C1472.78,-1165.73 1267.78,-254.51 1228.49,-79.84"/>
<polygon fill="green" stroke="green" points="1231.9,-79.05 1226.29,-70.07 1225.07,-80.59 1231.9,-79.05"/>
</g>
<!-- GEORGE_DUCKETT -->
<g id="node16" class="node">
<title>GEORGE_DUCKETT</title>
<polygon fill="none" stroke="black" points="1396.42,-46.14 1330.42,-46.14 1330.42,-8.14 1396.42,-8.14 1396.42,-46.14"/>
<text text-anchor="start" x="1338.42" y="-30.94" font-family="arial" font-size="14.00"> George</text>
<text text-anchor="start" x="1338.42" y="-15.94" font-family="arial" font-size="14.00">Duckett </text>
</g>
<!-- EDMUND_CURLL&#45;&gt;GEORGE_DUCKETT -->
<g id="edge18" class="edge">
<title>EDMUND_CURLL&#45;&gt;GEORGE_DUCKETT</title>
<path fill="none" stroke="green" d="M1507.22,-1309.2C1490.9,-1163.72 1386.59,-233.69 1366.7,-56.34"/>
<polygon fill="green" stroke="green" points="1370.15,-55.75 1365.56,-46.2 1363.2,-56.53 1370.15,-55.75"/>
</g>
<!-- GEORGE_RIDPATH -->
<g id="node17" class="node">
<title>GEORGE_RIDPATH</title>
<polygon fill="none" stroke="black" points="1535.12,-38 1468.12,-38 1468.12,0 1535.12,0 1535.12,-38"/>
<text text-anchor="start" x="1476.62" y="-22.8" font-family="arial" font-size="14.00"> George</text>
<text text-anchor="start" x="1476.12" y="-7.8" font-family="arial" font-size="14.00">Ridpath </text>
</g>
<!-- EDMUND_CURLL&#45;&gt;GEORGE_RIDPATH -->
<g id="edge19" class="edge">
<title>EDMUND_CURLL&#45;&gt;GEORGE_RIDPATH</title>
<path fill="none" stroke="green" d="M1509.26,-1309.33C1508.39,-1163.78 1502.85,-227.06 1501.79,-48.41"/>
<polygon fill="green" stroke="green" points="1505.29,-48.18 1501.73,-38.2 1498.29,-48.22 1505.29,-48.18"/>
</g>
<!-- GILES_JACOB -->
<g id="node18" class="node">
<title>GILES_JACOB</title>
<polygon fill="none" stroke="black" points="1662.92,-44.01 1606.92,-44.01 1606.92,-6.01 1662.92,-6.01 1662.92,-44.01"/>
<text text-anchor="start" x="1616.92" y="-28.81" font-family="arial" font-size="14.00"> Giles</text>
<text text-anchor="start" x="1614.92" y="-13.81" font-family="arial" font-size="14.00">Jacob </text>
</g>
<!-- EDMUND_CURLL&#45;&gt;GILES_JACOB -->
<g id="edge20" class="edge">
<title>EDMUND_CURLL&#45;&gt;GILES_JACOB</title>
<path fill="none" stroke="green" d="M1511.22,-1309.16C1525.25,-1163.45 1614.99,-231.91 1632.11,-54.26"/>
<polygon fill="green" stroke="green" points="1635.61,-54.39 1633.09,-44.1 1628.64,-53.72 1635.61,-54.39"/>
</g>
<!-- HENRY_CROMWELL -->
<g id="node19" class="node">
<title>HENRY_CROMWELL</title>
<polygon fill="none" stroke="black" points="1810.33,-64.55 1733.33,-64.55 1733.33,-26.55 1810.33,-26.55 1810.33,-64.55"/>
<text text-anchor="start" x="1751.83" y="-49.35" font-family="arial" font-size="14.00"> Henry</text>
<text text-anchor="start" x="1741.33" y="-34.35" font-family="arial" font-size="14.00">Cromwell </text>
</g>
<!-- EDMUND_CURLL&#45;&gt;HENRY_CROMWELL -->
<g id="edge21" class="edge">
<title>EDMUND_CURLL&#45;&gt;HENRY_CROMWELL</title>
<path fill="none" stroke="red" d="M1513.28,-1309.22C1542.78,-1165.05 1730,-250.01 1765.88,-74.6"/>
<polygon fill="red" stroke="red" points="1769.32,-75.29 1767.89,-64.79 1762.46,-73.89 1769.32,-75.29"/>
</g>
<!-- HENRY_CURLL -->
<g id="node20" class="node">
<title>HENRY_CURLL</title>
<polygon fill="none" stroke="black" points="1933.8,-99.43 1877.8,-99.43 1877.8,-61.43 1933.8,-61.43 1933.8,-99.43"/>
<text text-anchor="start" x="1885.8" y="-84.23" font-family="arial" font-size="14.00"> Henry</text>
<text text-anchor="start" x="1889.8" y="-69.23" font-family="arial" font-size="14.00">Curll </text>
</g>
<!-- EDMUND_CURLL&#45;&gt;HENRY_CURLL -->
<g id="edge22" class="edge">
<title>EDMUND_CURLL&#45;&gt;HENRY_CURLL</title>
<path fill="none" stroke="green" d="M1515.44,-1309.24C1560.45,-1167.55 1842.14,-280.81 1896.66,-109.18"/>
<polygon fill="green" stroke="green" points="1900.03,-110.16 1899.72,-99.57 1893.35,-108.04 1900.03,-110.16"/>
</g>
<!-- ISAAC_BARROW -->
<g id="node21" class="node">
<title>ISAAC_BARROW</title>
<polygon fill="none" stroke="black" points="2060.42,-145.47 1997.42,-145.47 1997.42,-107.47 2060.42,-107.47 2060.42,-145.47"/>
<text text-anchor="start" x="2010.42" y="-130.27" font-family="arial" font-size="14.00"> Isaac</text>
<text text-anchor="start" x="2005.42" y="-115.27" font-family="arial" font-size="14.00">Barrow </text>
</g>
<!-- EDMUND_CURLL&#45;&gt;ISAAC_BARROW -->
<g id="edge23" class="edge">
<title>EDMUND_CURLL&#45;&gt;ISAAC_BARROW</title>
<path fill="none" stroke="orange" d="M1517.74,-1308.98C1577.92,-1169.76 1944.27,-322.29 2016.54,-155.1"/>
<polygon fill="orange" stroke="orange" points="2019.84,-156.28 2020.6,-145.71 2013.42,-153.5 2019.84,-156.28"/>
</g>
<!-- ISAAC_NEWTON -->
<g id="node22" class="node">
<title>ISAAC_NEWTON</title>
<polygon fill="none" stroke="black" points="2184.16,-206.06 2118.16,-206.06 2118.16,-168.06 2184.16,-168.06 2184.16,-206.06"/>
<text text-anchor="start" x="2132.66" y="-190.86" font-family="arial" font-size="14.00"> Isaac</text>
<text text-anchor="start" x="2126.16" y="-175.86" font-family="arial" font-size="14.00">Newton </text>
</g>
<!-- EDMUND_CURLL&#45;&gt;ISAAC_NEWTON -->
<g id="edge24" class="edge">
<title>EDMUND_CURLL&#45;&gt;ISAAC_NEWTON</title>
<path fill="none" stroke="orange" d="M1520.24,-1309.01C1596.06,-1174.18 2045.55,-374.86 2135.5,-214.91"/>
<polygon fill="orange" stroke="orange" points="2138.59,-216.55 2140.44,-206.12 2132.49,-213.12 2138.59,-216.55"/>
</g>
<!-- JAMESMOORE_SMITH -->
<g id="node23" class="node">
<title>JAMESMOORE_SMITH</title>
<polygon fill="none" stroke="black" points="2335.07,-291.02 2231.07,-291.02 2231.07,-253.02 2335.07,-253.02 2335.07,-291.02"/>
<text text-anchor="start" x="2239.07" y="-275.82" font-family="arial" font-size="14.00"> James&#45;Moore</text>
<text text-anchor="start" x="2263.07" y="-260.82" font-family="arial" font-size="14.00">Smith </text>
</g>
<!-- EDMUND_CURLL&#45;&gt;JAMESMOORE_SMITH -->
<g id="edge25" class="edge">
<title>EDMUND_CURLL&#45;&gt;JAMESMOORE_SMITH</title>
<path fill="none" stroke="green" d="M1523.46,-1309.11C1617.34,-1180.94 2151.94,-451.06 2262.91,-299.55"/>
<polygon fill="green" stroke="green" points="2265.94,-301.33 2269.03,-291.2 2260.29,-297.2 2265.94,-301.33"/>
</g>
<!-- JAMES_MOORE_SMYTHE -->
<g id="node24" class="node">
<title>JAMES_MOORE_SMYTHE</title>
<polygon fill="none" stroke="black" points="2469.66,-404.23 2365.66,-404.23 2365.66,-366.23 2469.66,-366.23 2469.66,-404.23"/>
<text text-anchor="start" x="2373.66" y="-389.03" font-family="arial" font-size="14.00"> James Moore</text>
<text text-anchor="start" x="2392.16" y="-374.03" font-family="arial" font-size="14.00">Smythe </text>
</g>
<!-- EDMUND_CURLL&#45;&gt;JAMES_MOORE_SMYTHE -->
<g id="edge26" class="edge">
<title>EDMUND_CURLL&#45;&gt;JAMES_MOORE_SMYTHE</title>
<path fill="none" stroke="green" d="M1527.92,-1309.08C1642.99,-1189.6 2258.53,-550.46 2392.08,-411.79"/>
<polygon fill="green" stroke="green" points="2394.71,-414.1 2399.13,-404.47 2389.67,-409.24 2394.71,-414.1"/>
</g>
<!-- JOHN_ARBUTHNOT -->
<g id="node25" class="node">
<title>JOHN_ARBUTHNOT</title>
<polygon fill="none" stroke="black" points="2567.54,-524.7 2488.54,-524.7 2488.54,-486.7 2567.54,-486.7 2567.54,-524.7"/>
<text text-anchor="start" x="2511.04" y="-509.5" font-family="arial" font-size="14.00"> John</text>
<text text-anchor="start" x="2496.54" y="-494.5" font-family="arial" font-size="14.00">Arbuthnot </text>
</g>
<!-- EDMUND_CURLL&#45;&gt;JOHN_ARBUTHNOT -->
<g id="edge27" class="edge">
<title>EDMUND_CURLL&#45;&gt;JOHN_ARBUTHNOT</title>
<path fill="none" stroke="red" d="M1533.05,-1309.22C1668.21,-1200.07 2341.48,-656.36 2496.28,-531.35"/>
<polygon fill="red" stroke="red" points="2498.91,-533.72 2504.49,-524.72 2494.51,-528.28 2498.91,-533.72"/>
</g>
<!-- JOHN_ATTERBURY -->
<g id="node26" class="node">
<title>JOHN_ATTERBURY</title>
<polygon fill="none" stroke="black" points="2652.37,-645.69 2577.37,-645.69 2577.37,-607.69 2652.37,-607.69 2652.37,-645.69"/>
<text text-anchor="start" x="2597.87" y="-630.49" font-family="arial" font-size="14.00"> John</text>
<text text-anchor="start" x="2585.37" y="-615.49" font-family="arial" font-size="14.00">Atterbury </text>
</g>
<!-- EDMUND_CURLL&#45;&gt;JOHN_ATTERBURY -->
<g id="edge28" class="edge">
<title>EDMUND_CURLL&#45;&gt;JOHN_ATTERBURY</title>
<path fill="none" stroke="orange" d="M1539.51,-1309.21C1694.61,-1210.77 2402.24,-761.64 2576.17,-651.25"/>
<polygon fill="orange" stroke="orange" points="2578.18,-654.12 2584.75,-645.81 2574.43,-648.21 2578.18,-654.12"/>
</g>
<!-- JOHN_DENNIS -->
<g id="node27" class="node">
<title>JOHN_DENNIS</title>
<polygon fill="none" stroke="black" points="2714.65,-768.12 2652.65,-768.12 2652.65,-730.12 2714.65,-730.12 2714.65,-768.12"/>
<text text-anchor="start" x="2666.65" y="-752.92" font-family="arial" font-size="14.00"> John</text>
<text text-anchor="start" x="2660.65" y="-737.92" font-family="arial" font-size="14.00">Dennis </text>
</g>
<!-- EDMUND_CURLL&#45;&gt;JOHN_DENNIS -->
<g id="edge29" class="edge">
<title>EDMUND_CURLL&#45;&gt;JOHN_DENNIS</title>
<path fill="none" stroke="green" d="M1545.15,-1310.69C1717.54,-1225.66 2461.44,-858.73 2643.39,-768.99"/>
<polygon fill="green" stroke="green" points="2645.19,-772 2652.61,-764.44 2642.09,-765.72 2645.19,-772"/>
</g>
<!-- JOHN_DRYDEN -->
<g id="node28" class="node">
<title>JOHN_DRYDEN</title>
<polygon fill="none" stroke="black" points="2769.03,-892.06 2705.03,-892.06 2705.03,-854.06 2769.03,-854.06 2769.03,-892.06"/>
<text text-anchor="start" x="2720.03" y="-876.86" font-family="arial" font-size="14.00"> John</text>
<text text-anchor="start" x="2713.03" y="-861.86" font-family="arial" font-size="14.00">Dryden </text>
</g>
<!-- EDMUND_CURLL&#45;&gt;JOHN_DRYDEN -->
<g id="edge30" class="edge">
<title>EDMUND_CURLL&#45;&gt;JOHN_DRYDEN</title>
<path fill="none" stroke="orange" d="M1545.11,-1315.09C1722.28,-1249.39 2505.24,-959.02 2695.34,-888.52"/>
<polygon fill="orange" stroke="orange" points="2696.81,-891.71 2704.97,-884.95 2694.37,-885.14 2696.81,-891.71"/>
</g>
<!-- JOHN_DUNTON -->
<g id="node29" class="node">
<title>JOHN_DUNTON</title>
<polygon fill="none" stroke="black" points="2809.62,-1021.8 2745.62,-1021.8 2745.62,-983.8 2809.62,-983.8 2809.62,-1021.8"/>
<text text-anchor="start" x="2760.62" y="-1006.6" font-family="arial" font-size="14.00"> John</text>
<text text-anchor="start" x="2753.62" y="-991.6" font-family="arial" font-size="14.00">Dunton </text>
</g>
<!-- EDMUND_CURLL&#45;&gt;JOHN_DUNTON -->
<g id="edge31" class="edge">
<title>EDMUND_CURLL&#45;&gt;JOHN_DUNTON</title>
<path fill="none" stroke="green" d="M1544.95,-1319.21C1725.64,-1272.83 2540.74,-1063.6 2735.65,-1013.57"/>
<polygon fill="green" stroke="green" points="2736.7,-1016.91 2745.51,-1011.04 2734.96,-1010.13 2736.7,-1016.91"/>
</g>
<!-- JOHN_DURANT_BREVAL -->
<g id="node30" class="node">
<title>JOHN_DURANT_BREVAL</title>
<polygon fill="none" stroke="black" points="2853.66,-1169.89 2759.66,-1169.89 2759.66,-1131.89 2853.66,-1131.89 2853.66,-1169.89"/>
<text text-anchor="start" x="2767.66" y="-1154.69" font-family="arial" font-size="14.00"> John Durant</text>
<text text-anchor="start" x="2785.16" y="-1139.69" font-family="arial" font-size="14.00">Breval </text>
</g>
<!-- EDMUND_CURLL&#45;&gt;JOHN_DURANT_BREVAL -->
<g id="edge32" class="edge">
<title>EDMUND_CURLL&#45;&gt;JOHN_DURANT_BREVAL</title>
<path fill="none" stroke="green" d="M1545.08,-1323.46C1724.45,-1298.92 2527.29,-1189.11 2749.49,-1158.71"/>
<polygon fill="green" stroke="green" points="2750.2,-1162.15 2759.63,-1157.33 2749.25,-1155.21 2750.2,-1162.15"/>
</g>
<!-- JOHN_GAY -->
<g id="node31" class="node">
<title>JOHN_GAY</title>
<polygon fill="none" stroke="black" points="2845.34,-1315.35 2791.34,-1315.35 2791.34,-1277.35 2845.34,-1277.35 2845.34,-1315.35"/>
<text text-anchor="start" x="2801.34" y="-1300.15" font-family="arial" font-size="14.00"> John</text>
<text text-anchor="start" x="2803.34" y="-1285.15" font-family="arial" font-size="14.00">Gay </text>
</g>
<!-- EDMUND_CURLL&#45;&gt;JOHN_GAY -->
<g id="edge33" class="edge">
<title>EDMUND_CURLL&#45;&gt;JOHN_GAY</title>
<path fill="none" stroke="red" d="M1545.06,-1327.47C1731.35,-1322.92 2590.82,-1301.91 2781.01,-1297.26"/>
<polygon fill="red" stroke="red" points="2781.16,-1300.76 2791.07,-1297.01 2780.99,-1293.76 2781.16,-1300.76"/>
</g>
<!-- JOHN_HENLEY -->
<g id="node32" class="node">
<title>JOHN_HENLEY</title>
<polygon fill="none" stroke="black" points="2846.07,-1445.25 2784.07,-1445.25 2784.07,-1407.25 2846.07,-1407.25 2846.07,-1445.25"/>
<text text-anchor="start" x="2798.07" y="-1430.05" font-family="arial" font-size="14.00"> John</text>
<text text-anchor="start" x="2792.07" y="-1415.05" font-family="arial" font-size="14.00">Henley </text>
</g>
<!-- EDMUND_CURLL&#45;&gt;JOHN_HENLEY -->
<g id="edge34" class="edge">
<title>EDMUND_CURLL&#45;&gt;JOHN_HENLEY</title>
<path fill="none" stroke="green" d="M1544.97,-1331.01C1729.48,-1344.85 2576.04,-1408.33 2773.71,-1423.15"/>
<polygon fill="green" stroke="green" points="2773.72,-1426.66 2783.96,-1423.92 2774.25,-1419.68 2773.72,-1426.66"/>
</g>
<!-- JOHN_LOCKE -->
<g id="node33" class="node">
<title>JOHN_LOCKE</title>
<polygon fill="none" stroke="black" points="2826.76,-1575.18 2770.76,-1575.18 2770.76,-1537.18 2826.76,-1537.18 2826.76,-1575.18"/>
<text text-anchor="start" x="2781.76" y="-1559.98" font-family="arial" font-size="14.00"> John</text>
<text text-anchor="start" x="2778.76" y="-1544.98" font-family="arial" font-size="14.00">Locke </text>
</g>
<!-- EDMUND_CURLL&#45;&gt;JOHN_LOCKE -->
<g id="edge35" class="edge">
<title>EDMUND_CURLL&#45;&gt;JOHN_LOCKE</title>
<path fill="none" stroke="orange" d="M1545.2,-1334.68C1729.62,-1367.26 2570.55,-1515.85 2760.54,-1549.43"/>
<polygon fill="orange" stroke="orange" points="2760.15,-1552.91 2770.61,-1551.2 2761.37,-1546.02 2760.15,-1552.91"/>
</g>
<!-- JOHN_OLDMIXON -->
<g id="node34" class="node">
<title>JOHN_OLDMIXON</title>
<polygon fill="none" stroke="black" points="2806.72,-1711 2727.72,-1711 2727.72,-1673 2806.72,-1673 2806.72,-1711"/>
<text text-anchor="start" x="2750.22" y="-1695.8" font-family="arial" font-size="14.00"> John</text>
<text text-anchor="start" x="2735.72" y="-1680.8" font-family="arial" font-size="14.00">Oldmixon </text>
</g>
<!-- EDMUND_CURLL&#45;&gt;JOHN_OLDMIXON -->
<g id="edge36" class="edge">
<title>EDMUND_CURLL&#45;&gt;JOHN_OLDMIXON</title>
<path fill="none" stroke="green" d="M1544.99,-1338.64C1722.59,-1389.99 2512.08,-1618.23 2717.98,-1677.76"/>
<polygon fill="green" stroke="green" points="2717.04,-1681.13 2727.62,-1680.55 2718.99,-1674.41 2717.04,-1681.13"/>
</g>
<!-- JOHN_TUTCHIN -->
<g id="node35" class="node">
<title>JOHN_TUTCHIN</title>
<polygon fill="none" stroke="black" points="2752.21,-1846.86 2687.21,-1846.86 2687.21,-1808.86 2752.21,-1808.86 2752.21,-1846.86"/>
<text text-anchor="start" x="2702.71" y="-1831.66" font-family="arial" font-size="14.00"> John</text>
<text text-anchor="start" x="2695.21" y="-1816.66" font-family="arial" font-size="14.00">Tutchin </text>
</g>
<!-- EDMUND_CURLL&#45;&gt;JOHN_TUTCHIN -->
<g id="edge37" class="edge">
<title>EDMUND_CURLL&#45;&gt;JOHN_TUTCHIN</title>
<path fill="none" stroke="green" d="M1544.94,-1343.02C1719.95,-1415.25 2488.82,-1732.57 2677.69,-1810.52"/>
<polygon fill="green" stroke="green" points="2676.43,-1813.78 2687.01,-1814.36 2679.11,-1807.31 2676.43,-1813.78"/>
</g>
<!-- JONATHAN_SWIFT -->
<g id="node36" class="node">
<title>JONATHAN_SWIFT</title>
<polygon fill="none" stroke="black" points="2696.29,-1975.37 2620.29,-1975.37 2620.29,-1937.37 2696.29,-1937.37 2696.29,-1975.37"/>
<text text-anchor="start" x="2628.29" y="-1960.17" font-family="arial" font-size="14.00"> Jonathan</text>
<text text-anchor="start" x="2641.29" y="-1945.17" font-family="arial" font-size="14.00">Swift </text>
</g>
<!-- EDMUND_CURLL&#45;&gt;JONATHAN_SWIFT -->
<g id="edge38" class="edge">
<title>EDMUND_CURLL&#45;&gt;JONATHAN_SWIFT</title>
<path fill="none" stroke="red" d="M1539.25,-1347.4C1695.51,-1439.26 2418.52,-1834.65 2611.08,-1933.81"/>
<polygon fill="red" stroke="red" points="2609.61,-1937 2620.11,-1938.45 2612.81,-1930.77 2609.61,-1937"/>
</g>
<!-- EDMUND_CURLL&#45;&gt;JONATHAN_SWIFT -->
<g id="edge39" class="edge">
<title>EDMUND_CURLL&#45;&gt;JONATHAN_SWIFT</title>
<path fill="none" stroke="orange" d="M1544.95,-1344.94C1714.99,-1431.5 2443.48,-1829.64 2619.78,-1932.26"/>
<polygon fill="orange" stroke="orange" points="2618.07,-1935.31 2628.47,-1937.34 2621.6,-1929.27 2618.07,-1935.31"/>
</g>
<!-- JOSEPH_ADDISON -->
<g id="node37" class="node">
<title>JOSEPH_ADDISON</title>
<polygon fill="none" stroke="black" points="2616.64,-2098.08 2547.64,-2098.08 2547.64,-2060.08 2616.64,-2060.08 2616.64,-2098.08"/>
<text text-anchor="start" x="2558.14" y="-2082.88" font-family="arial" font-size="14.00"> Joseph</text>
<text text-anchor="start" x="2555.64" y="-2067.88" font-family="arial" font-size="14.00">Addison </text>
</g>
<!-- EDMUND_CURLL&#45;&gt;JOSEPH_ADDISON -->
<g id="edge40" class="edge">
<title>EDMUND_CURLL&#45;&gt;JOSEPH_ADDISON</title>
<path fill="none" stroke="red" d="M1529.34,-1347.5C1657,-1451.35 2356.8,-1941.62 2538.89,-2055.59"/>
<polygon fill="red" stroke="red" points="2537.08,-2058.58 2547.42,-2060.88 2540.77,-2052.63 2537.08,-2058.58"/>
</g>
<!-- EDMUND_CURLL&#45;&gt;JOSEPH_ADDISON -->
<g id="edge41" class="edge">
<title>EDMUND_CURLL&#45;&gt;JOSEPH_ADDISON</title>
<path fill="none" stroke="blue" d="M1544.96,-1347.08C1710.84,-1449.37 2405.18,-1935.33 2554.04,-2053.41"/>
<polygon fill="blue" stroke="blue" points="2552.29,-2056.49 2562.28,-2060.02 2556.67,-2051.03 2552.29,-2056.49"/>
</g>
<!-- EDMUND_CURLL&#45;&gt;JOSEPH_ADDISON -->
<g id="edge42" class="edge">
<title>EDMUND_CURLL&#45;&gt;JOSEPH_ADDISON</title>
<path fill="none" stroke="orange" d="M1536.69,-1347.47C1683.66,-1450.32 2379.72,-1937.42 2546.27,-2053.98"/>
<polygon fill="orange" stroke="orange" points="2544.5,-2057.01 2554.7,-2059.88 2548.51,-2051.28 2544.5,-2057.01"/>
</g>
<!-- JOSEPH_GAY -->
<g id="node38" class="node">
<title>JOSEPH_GAY</title>
<polygon fill="none" stroke="black" points="2528.88,-2207.15 2464.88,-2207.15 2464.88,-2169.15 2528.88,-2169.15 2528.88,-2207.15"/>
<text text-anchor="start" x="2472.88" y="-2191.95" font-family="arial" font-size="14.00"> Joseph</text>
<text text-anchor="start" x="2481.88" y="-2176.95" font-family="arial" font-size="14.00">Gay </text>
</g>
<!-- EDMUND_CURLL&#45;&gt;JOSEPH_GAY -->
<g id="edge43" class="edge">
<title>EDMUND_CURLL&#45;&gt;JOSEPH_GAY</title>
<path fill="none" stroke="green" d="M1531.38,-1347.51C1660.42,-1459.86 2318.13,-2032.52 2466.93,-2162.07"/>
<polygon fill="green" stroke="green" points="2464.98,-2165.01 2474.82,-2168.94 2469.57,-2159.73 2464.98,-2165.01"/>
</g>
<!-- JOSEPH_GAY_AKA_JOHN_DURANT_BREVAL -->
<g id="node39" class="node">
<title>JOSEPH_GAY_AKA_JOHN_DURANT_BREVAL</title>
<polygon fill="none" stroke="black" points="2444.25,-2330.41 2304.25,-2330.41 2304.25,-2292.41 2444.25,-2292.41 2444.25,-2330.41"/>
<text text-anchor="start" x="2320.75" y="-2315.21" font-family="arial" font-size="14.00"> Joseph Gay (aka</text>
<text text-anchor="start" x="2312.25" y="-2300.21" font-family="arial" font-size="14.00">John Durant Breval) </text>
</g>
<!-- EDMUND_CURLL&#45;&gt;JOSEPH_GAY_AKA_JOHN_DURANT_BREVAL -->
<g id="edge44" class="edge">
<title>EDMUND_CURLL&#45;&gt;JOSEPH_GAY_AKA_JOHN_DURANT_BREVAL</title>
<path fill="none" stroke="green" d="M1526.26,-1347.54C1633.99,-1470 2224.65,-2141.37 2350.61,-2284.55"/>
<polygon fill="green" stroke="green" points="2348.02,-2286.9 2357.25,-2292.09 2353.28,-2282.27 2348.02,-2286.9"/>
</g>
<!-- LADY_MARY_WORTLEY_MONTAGU -->
<g id="node40" class="node">
<title>LADY_MARY_WORTLEY_MONTAGU</title>
<polygon fill="none" stroke="black" points="2273.15,-2452.44 2150.15,-2452.44 2150.15,-2414.44 2273.15,-2414.44 2273.15,-2452.44"/>
<text text-anchor="start" x="2177.65" y="-2437.24" font-family="arial" font-size="14.00"> Lady Mary</text>
<text text-anchor="start" x="2158.15" y="-2422.24" font-family="arial" font-size="14.00">Wortley Montagu </text>
</g>
<!-- EDMUND_CURLL&#45;&gt;LADY_MARY_WORTLEY_MONTAGU -->
<g id="edge45" class="edge">
<title>EDMUND_CURLL&#45;&gt;LADY_MARY_WORTLEY_MONTAGU</title>
<path fill="none" stroke="green" d="M1521.56,-1347.53C1605.22,-1479.18 2094.23,-2248.67 2193.92,-2405.53"/>
<polygon fill="green" stroke="green" points="2191.09,-2407.6 2199.4,-2414.17 2196.99,-2403.85 2191.09,-2407.6"/>
</g>
<!-- LEONARD_WELSTED -->
<g id="node41" class="node">
<title>LEONARD_WELSTED</title>
<polygon fill="none" stroke="black" points="2099.03,-2533.43 2029.03,-2533.43 2029.03,-2495.43 2099.03,-2495.43 2099.03,-2533.43"/>
<text text-anchor="start" x="2037.03" y="-2518.23" font-family="arial" font-size="14.00"> Leonard</text>
<text text-anchor="start" x="2037.53" y="-2503.23" font-family="arial" font-size="14.00">Welsted </text>
</g>
<!-- EDMUND_CURLL&#45;&gt;LEONARD_WELSTED -->
<g id="edge46" class="edge">
<title>EDMUND_CURLL&#45;&gt;LEONARD_WELSTED</title>
<path fill="none" stroke="green" d="M1518.3,-1347.46C1582.52,-1484.76 1973.22,-2320.24 2050.68,-2485.9"/>
<polygon fill="green" stroke="green" points="2047.53,-2487.41 2054.93,-2494.99 2053.87,-2484.45 2047.53,-2487.41"/>
</g>
<!-- LEWIS_THEOBALD -->
<g id="node42" class="node">
<title>LEWIS_THEOBALD</title>
<polygon fill="none" stroke="black" points="1967.58,-2587.62 1890.58,-2587.62 1890.58,-2549.62 1967.58,-2549.62 1967.58,-2587.62"/>
<text text-anchor="start" x="1909.58" y="-2572.42" font-family="arial" font-size="14.00"> Lewis</text>
<text text-anchor="start" x="1898.58" y="-2557.42" font-family="arial" font-size="14.00">Theobald </text>
</g>
<!-- EDMUND_CURLL&#45;&gt;LEWIS_THEOBALD -->
<g id="edge47" class="edge">
<title>EDMUND_CURLL&#45;&gt;LEWIS_THEOBALD</title>
<path fill="none" stroke="green" d="M1512.08,-1347.5C1546.31,-1488.91 1843.89,-2369.31 1914.59,-2540"/>
<polygon fill="green" stroke="green" points="1911.42,-2541.49 1918.54,-2549.34 1917.87,-2538.77 1911.42,-2541.49"/>
</g>
<!-- EDMUND_CURLL&#45;&gt;LEWIS_THEOBALD -->
<g id="edge48" class="edge">
<title>EDMUND_CURLL&#45;&gt;LEWIS_THEOBALD</title>
<path fill="none" stroke="red" d="M1519.9,-1347.62C1581.3,-1489.3 1878.9,-2368.15 1923.88,-2539.65"/>
<polygon fill="red" stroke="red" points="1920.52,-2540.64 1926.37,-2549.47 1927.31,-2538.92 1920.52,-2540.64"/>
</g>
<!-- EDMUND_CURLL&#45;&gt;LEWIS_THEOBALD -->
<g id="edge49" class="edge">
<title>EDMUND_CURLL&#45;&gt;LEWIS_THEOBALD</title>
<path fill="none" stroke="orange" d="M1515.96,-1347.83C1564.1,-1490.08 1861.19,-2368 1919.24,-2539.57"/>
<polygon fill="orange" stroke="orange" points="1915.98,-2540.83 1922.5,-2549.18 1922.61,-2538.59 1915.98,-2540.83"/>
</g>
<!-- MATTHEW_CONCANEN -->
<g id="node43" class="node">
<title>MATTHEW_CONCANEN</title>
<polygon fill="none" stroke="black" points="1824.08,-2627.78 1742.08,-2627.78 1742.08,-2589.78 1824.08,-2589.78 1824.08,-2627.78"/>
<text text-anchor="start" x="1755.08" y="-2612.58" font-family="arial" font-size="14.00"> Matthew</text>
<text text-anchor="start" x="1750.08" y="-2597.58" font-family="arial" font-size="14.00">Concanen </text>
</g>
<!-- EDMUND_CURLL&#45;&gt;MATTHEW_CONCANEN -->
<g id="edge50" class="edge">
<title>EDMUND_CURLL&#45;&gt;MATTHEW_CONCANEN</title>
<path fill="none" stroke="green" d="M1513.45,-1347.44C1544.21,-1491.34 1739.46,-2404.7 1776.89,-2579.79"/>
<polygon fill="green" stroke="green" points="1773.47,-2580.53 1778.98,-2589.58 1780.31,-2579.07 1773.47,-2580.53"/>
</g>
<!-- MATTHEW_PRIOR -->
<g id="node44" class="node">
<title>MATTHEW_PRIOR</title>
<polygon fill="none" stroke="black" points="1671.92,-2650.58 1599.92,-2650.58 1599.92,-2612.58 1671.92,-2612.58 1671.92,-2650.58"/>
<text text-anchor="start" x="1607.92" y="-2635.38" font-family="arial" font-size="14.00"> Matthew</text>
<text text-anchor="start" x="1619.42" y="-2620.38" font-family="arial" font-size="14.00">Prior </text>
</g>
<!-- EDMUND_CURLL&#45;&gt;MATTHEW_PRIOR -->
<g id="edge51" class="edge">
<title>EDMUND_CURLL&#45;&gt;MATTHEW_PRIOR</title>
<path fill="none" stroke="red" d="M1511.23,-1347.52C1525.38,-1493.23 1615.83,-2424.7 1633.08,-2602.34"/>
<polygon fill="red" stroke="red" points="1629.62,-2602.88 1634.07,-2612.49 1636.58,-2602.2 1629.62,-2602.88"/>
</g>
<!-- RICHARD_BLACKMORE -->
<g id="node45" class="node">
<title>RICHARD_BLACKMORE</title>
<polygon fill="none" stroke="black" points="1528.12,-2656.5 1443.12,-2656.5 1443.12,-2618.5 1528.12,-2618.5 1528.12,-2656.5"/>
<text text-anchor="start" x="1460.12" y="-2641.3" font-family="arial" font-size="14.00"> Richard</text>
<text text-anchor="start" x="1451.12" y="-2626.3" font-family="arial" font-size="14.00">Blackmore </text>
</g>
<!-- EDMUND_CURLL&#45;&gt;RICHARD_BLACKMORE -->
<g id="edge52" class="edge">
<title>EDMUND_CURLL&#45;&gt;RICHARD_BLACKMORE</title>
<path fill="none" stroke="green" d="M1509.02,-1347.36C1506.38,-1492.88 1489.39,-2429.47 1486.15,-2608.09"/>
<polygon fill="green" stroke="green" points="1482.65,-2608.24 1485.97,-2618.3 1489.65,-2608.36 1482.65,-2608.24"/>
</g>
<!-- SAMUEL_GARTH -->
<g id="node46" class="node">
<title>SAMUEL_GARTH</title>
<polygon fill="none" stroke="black" points="1371.61,-2645.46 1304.61,-2645.46 1304.61,-2607.46 1371.61,-2607.46 1371.61,-2645.46"/>
<text text-anchor="start" x="1312.61" y="-2630.26" font-family="arial" font-size="14.00"> Samuel</text>
<text text-anchor="start" x="1318.61" y="-2615.26" font-family="arial" font-size="14.00">Garth </text>
</g>
<!-- EDMUND_CURLL&#45;&gt;SAMUEL_GARTH -->
<g id="edge53" class="edge">
<title>EDMUND_CURLL&#45;&gt;SAMUEL_GARTH</title>
<path fill="none" stroke="red" d="M1505.02,-1347.47C1479.36,-1492.59 1356.95,-2419.51 1339.78,-2597.08"/>
<polygon fill="red" stroke="red" points="1336.27,-2596.95 1338.84,-2607.23 1343.24,-2597.6 1336.27,-2596.95"/>
</g>
<!-- EDMUND_CURLL&#45;&gt;SAMUEL_GARTH -->
<g id="edge54" class="edge">
<title>EDMUND_CURLL&#45;&gt;SAMUEL_GARTH</title>
<path fill="none" stroke="orange" d="M1508.65,-1347.43C1496.05,-1492.49 1373.79,-2420.25 1344.18,-2597.3"/>
<polygon fill="orange" stroke="orange" points="1340.73,-2596.74 1342.48,-2607.19 1347.62,-2597.93 1340.73,-2596.74"/>
</g>
<!-- THOMAS_COOKE -->
<g id="node47" class="node">
<title>THOMAS_COOKE</title>
<polygon fill="none" stroke="black" points="1235.07,-2619.66 1165.07,-2619.66 1165.07,-2581.66 1235.07,-2581.66 1235.07,-2619.66"/>
<text text-anchor="start" x="1173.07" y="-2604.46" font-family="arial" font-size="14.00"> Thomas</text>
<text text-anchor="start" x="1178.57" y="-2589.46" font-family="arial" font-size="14.00">Cooke </text>
</g>
<!-- EDMUND_CURLL&#45;&gt;THOMAS_COOKE -->
<g id="edge55" class="edge">
<title>EDMUND_CURLL&#45;&gt;THOMAS_COOKE</title>
<path fill="none" stroke="green" d="M1504.69,-1347.57C1469.74,-1491.37 1249.32,-2398.07 1207.07,-2571.87"/>
<polygon fill="green" stroke="green" points="1203.66,-2571.05 1204.7,-2581.59 1210.47,-2572.7 1203.66,-2571.05"/>
</g>
<!-- THOMAS_OSBORNE -->
<g id="node48" class="node">
<title>THOMAS_OSBORNE</title>
<polygon fill="none" stroke="black" points="1099.26,-2578.19 1026.26,-2578.19 1026.26,-2540.19 1099.26,-2540.19 1099.26,-2578.19"/>
<text text-anchor="start" x="1035.76" y="-2562.99" font-family="arial" font-size="14.00"> Thomas</text>
<text text-anchor="start" x="1034.26" y="-2547.99" font-family="arial" font-size="14.00">Osborne </text>
</g>
<!-- EDMUND_CURLL&#45;&gt;THOMAS_OSBORNE -->
<g id="edge56" class="edge">
<title>EDMUND_CURLL&#45;&gt;THOMAS_OSBORNE</title>
<path fill="none" stroke="green" d="M1502.35,-1347.68C1451.13,-1488.85 1135,-2360.1 1073.23,-2530.36"/>
<polygon fill="green" stroke="green" points="1069.89,-2529.31 1069.76,-2539.9 1076.47,-2531.7 1069.89,-2529.31"/>
</g>
<!-- THOMAS_WARNER -->
<g id="node49" class="node">
<title>THOMAS_WARNER</title>
<polygon fill="none" stroke="black" points="965.82,-2521.96 895.82,-2521.96 895.82,-2483.96 965.82,-2483.96 965.82,-2521.96"/>
<text text-anchor="start" x="903.82" y="-2506.76" font-family="arial" font-size="14.00"> Thomas</text>
<text text-anchor="start" x="906.32" y="-2491.76" font-family="arial" font-size="14.00">Warner </text>
</g>
<!-- EDMUND_CURLL&#45;&gt;THOMAS_WARNER -->
<g id="edge57" class="edge">
<title>EDMUND_CURLL&#45;&gt;THOMAS_WARNER</title>
<path fill="none" stroke="green" d="M1499.81,-1347.75C1432.11,-1485.21 1025.35,-2311.03 944.71,-2474.76"/>
<polygon fill="green" stroke="green" points="941.56,-2473.23 940.28,-2483.75 947.84,-2476.32 941.56,-2473.23"/>
</g>
<!-- TOUSSAINT_EDMOND_DE_SAINTMARD -->
<g id="node50" class="node">
<title>TOUSSAINT_EDMOND_DE_SAINTMARD</title>
<polygon fill="none" stroke="black" points="847.12,-2435.51 715.12,-2435.51 715.12,-2397.51 847.12,-2397.51 847.12,-2435.51"/>
<text text-anchor="start" x="723.12" y="-2420.31" font-family="arial" font-size="14.00"> Toussaint Edmond</text>
<text text-anchor="start" x="736.12" y="-2405.31" font-family="arial" font-size="14.00">de Saint&#45;Mard </text>
</g>
<!-- EDMUND_CURLL&#45;&gt;TOUSSAINT_EDMOND_DE_SAINTMARD -->
<g id="edge58" class="edge">
<title>EDMUND_CURLL&#45;&gt;TOUSSAINT_EDMOND_DE_SAINTMARD</title>
<path fill="none" stroke="orange" d="M1496.42,-1347.69C1408.85,-1478.53 903.72,-2233.31 799.8,-2388.58"/>
<polygon fill="orange" stroke="orange" points="796.73,-2386.88 794.08,-2397.14 802.55,-2390.77 796.73,-2386.88"/>
</g>
<!-- WHITE_KENNETH -->
<g id="node51" class="node">
<title>WHITE_KENNETH</title>
<polygon fill="none" stroke="black" points="679.23,-2329.75 608.23,-2329.75 608.23,-2291.75 679.23,-2291.75 679.23,-2329.75"/>
<text text-anchor="start" x="623.73" y="-2314.55" font-family="arial" font-size="14.00"> White</text>
<text text-anchor="start" x="616.23" y="-2299.55" font-family="arial" font-size="14.00">Kenneth </text>
</g>
<!-- EDMUND_CURLL&#45;&gt;WHITE_KENNETH -->
<g id="edge59" class="edge">
<title>EDMUND_CURLL&#45;&gt;WHITE_KENNETH</title>
<path fill="none" stroke="red" d="M1492.46,-1347.53C1384.64,-1469.9 793.47,-2140.82 667.39,-2283.9"/>
<polygon fill="red" stroke="red" points="664.73,-2281.63 660.75,-2291.44 669.98,-2286.26 664.73,-2281.63"/>
</g>
<!-- WILLIAM_BOND -->
<g id="node52" class="node">
<title>WILLIAM_BOND</title>
<polygon fill="none" stroke="black" points="576.34,-2231.76 511.34,-2231.76 511.34,-2193.76 576.34,-2193.76 576.34,-2231.76"/>
<text text-anchor="start" x="519.34" y="-2216.56" font-family="arial" font-size="14.00"> William</text>
<text text-anchor="start" x="525.84" y="-2201.56" font-family="arial" font-size="14.00">Bond </text>
</g>
<!-- EDMUND_CURLL&#45;&gt;WILLIAM_BOND -->
<g id="edge60" class="edge">
<title>EDMUND_CURLL&#45;&gt;WILLIAM_BOND</title>
<path fill="none" stroke="green" d="M1488.3,-1347.64C1362.99,-1462.43 716.17,-2054.91 572.24,-2186.74"/>
<polygon fill="green" stroke="green" points="569.63,-2184.39 564.62,-2193.72 574.36,-2189.55 569.63,-2184.39"/>
</g>
<!-- WILLIAM_BOND_ -->
<g id="node53" class="node">
<title>WILLIAM_BOND_</title>
<polygon fill="none" stroke="black" points="496.64,-2111.54 395.64,-2111.54 395.64,-2073.54 496.64,-2073.54 496.64,-2111.54"/>
<text text-anchor="start" x="403.64" y="-2096.34" font-family="arial" font-size="14.00"> William Bond</text>
<text text-anchor="start" x="444.14" y="-2081.34" font-family="arial" font-size="14.00"> </text>
</g>
<!-- EDMUND_CURLL&#45;&gt;WILLIAM_BOND_ -->
<g id="edge61" class="edge">
<title>EDMUND_CURLL&#45;&gt;WILLIAM_BOND_</title>
<path fill="none" stroke="green" d="M1482.82,-1347.43C1338.18,-1451.38 645.66,-1949.14 481.23,-2067.33"/>
<polygon fill="green" stroke="green" points="478.99,-2064.62 472.91,-2073.3 483.07,-2070.31 478.99,-2064.62"/>
</g>
<!-- WILLIAM_CAVENDISH -->
<g id="node54" class="node">
<title>WILLIAM_CAVENDISH</title>
<polygon fill="none" stroke="black" points="400.77,-1972.29 316.77,-1972.29 316.77,-1934.29 400.77,-1934.29 400.77,-1972.29"/>
<text text-anchor="start" x="334.27" y="-1957.09" font-family="arial" font-size="14.00"> William</text>
<text text-anchor="start" x="324.77" y="-1942.09" font-family="arial" font-size="14.00">Cavendish </text>
</g>
<!-- EDMUND_CURLL&#45;&gt;WILLIAM_CAVENDISH -->
<g id="edge62" class="edge">
<title>EDMUND_CURLL&#45;&gt;WILLIAM_CAVENDISH</title>
<path fill="none" stroke="red" d="M1474.3,-1347.39C1306.8,-1438.37 588.59,-1828.46 402.79,-1929.38"/>
<polygon fill="red" stroke="red" points="400.96,-1926.4 393.84,-1934.24 404.3,-1932.55 400.96,-1926.4"/>
</g>
<!-- WILLIAM_CONGREVE -->
<g id="node55" class="node">
<title>WILLIAM_CONGREVE</title>
<polygon fill="none" stroke="black" points="333.07,-1833.42 254.07,-1833.42 254.07,-1795.42 333.07,-1795.42 333.07,-1833.42"/>
<text text-anchor="start" x="269.07" y="-1818.22" font-family="arial" font-size="14.00"> William</text>
<text text-anchor="start" x="262.07" y="-1803.22" font-family="arial" font-size="14.00">Congreve </text>
</g>
<!-- EDMUND_CURLL&#45;&gt;WILLIAM_CONGREVE -->
<g id="edge63" class="edge">
<title>EDMUND_CURLL&#45;&gt;WILLIAM_CONGREVE</title>
<path fill="none" stroke="red" d="M1473.71,-1339.96C1300.09,-1403.37 543.64,-1705.64 342.71,-1791.65"/>
<polygon fill="red" stroke="red" points="341.1,-1788.54 333.29,-1795.7 343.86,-1794.97 341.1,-1788.54"/>
</g>
<!-- EDMUND_CURLL&#45;&gt;WILLIAM_CONGREVE -->
<g id="edge64" class="edge">
<title>EDMUND_CURLL&#45;&gt;WILLIAM_CONGREVE</title>
<path fill="none" stroke="orange" d="M1473.58,-1345.36C1299.68,-1420.85 543.14,-1723.43 342.53,-1797.91"/>
<polygon fill="orange" stroke="orange" points="341.3,-1794.63 333.13,-1801.38 343.72,-1801.2 341.3,-1794.63"/>
</g>
<!-- WILLIAM_MEARS -->
<g id="node56" class="node">
<title>WILLIAM_MEARS</title>
<polygon fill="none" stroke="black" points="280.06,-1697.05 215.06,-1697.05 215.06,-1659.05 280.06,-1659.05 280.06,-1697.05"/>
<text text-anchor="start" x="223.06" y="-1681.85" font-family="arial" font-size="14.00"> William</text>
<text text-anchor="start" x="226.06" y="-1666.85" font-family="arial" font-size="14.00">Mears </text>
</g>
<!-- EDMUND_CURLL&#45;&gt;WILLIAM_MEARS -->
<g id="edge65" class="edge">
<title>EDMUND_CURLL&#45;&gt;WILLIAM_MEARS</title>
<path fill="none" stroke="green" d="M1473.64,-1338.25C1293.48,-1388.18 485.65,-1612.06 290.23,-1666.22"/>
<polygon fill="green" stroke="green" points="289.04,-1662.92 280.33,-1668.97 290.9,-1669.67 289.04,-1662.92"/>
</g>
<!-- WILLIAM_WILKINS -->
<g id="node57" class="node">
<title>WILLIAM_WILKINS</title>
<polygon fill="none" stroke="black" points="250.44,-1563.35 185.44,-1563.35 185.44,-1525.35 250.44,-1525.35 250.44,-1563.35"/>
<text text-anchor="start" x="193.44" y="-1548.15" font-family="arial" font-size="14.00"> William</text>
<text text-anchor="start" x="193.94" y="-1533.15" font-family="arial" font-size="14.00">Wilkins </text>
</g>
<!-- EDMUND_CURLL&#45;&gt;WILLIAM_WILKINS -->
<g id="edge66" class="edge">
<title>EDMUND_CURLL&#45;&gt;WILLIAM_WILKINS</title>
<path fill="none" stroke="green" d="M1473.82,-1334.29C1291.22,-1364.83 459.64,-1503.92 260.76,-1537.19"/>
<polygon fill="green" stroke="green" points="259.99,-1533.77 250.7,-1538.87 261.14,-1540.68 259.99,-1533.77"/>
</g>
<!-- WILLIAM_WYCHERLEY -->
<g id="node58" class="node">
<title>WILLIAM_WYCHERLEY</title>
<polygon fill="none" stroke="black" points="243.42,-1418.31 160.42,-1418.31 160.42,-1380.31 243.42,-1380.31 243.42,-1418.31"/>
<text text-anchor="start" x="177.42" y="-1403.11" font-family="arial" font-size="14.00"> William</text>
<text text-anchor="start" x="168.42" y="-1388.11" font-family="arial" font-size="14.00">Wycherley </text>
</g>
<!-- EDMUND_CURLL&#45;&gt;WILLIAM_WYCHERLEY -->
<g id="edge67" class="edge">
<title>EDMUND_CURLL&#45;&gt;WILLIAM_WYCHERLEY</title>
<path fill="none" stroke="blue" d="M1473.72,-1330.28C1292.01,-1340.14 469.12,-1384.81 253.68,-1396.5"/>
<polygon fill="blue" stroke="blue" points="253.39,-1393.01 243.59,-1397.05 253.76,-1400 253.39,-1393.01"/>
</g>
</g>
</svg>
