<?xml version="1.0" encoding="UTF-8" standalone="no"?>
<!DOCTYPE svg PUBLIC "-//W3C//DTD SVG 1.1//EN"
 "http://www.w3.org/Graphics/SVG/1.1/DTD/svg11.dtd">
<!-- Generated by graphviz version 2.50.0 (0)
 -->
<!-- Title: G Pages: 1 -->
<svg width="694pt" height="678pt"
 viewBox="0.00 0.00 694.00 678.00" xmlns="http://www.w3.org/2000/svg" xmlns:xlink="http://www.w3.org/1999/xlink">
<g id="graph0" class="graph" transform="scale(1 1) rotate(0) translate(4 674)">
<title>G</title>
<polygon fill="white" stroke="transparent" points="-4,4 -4,-674 690,-674 690,4 -4,4"/>
<!-- ABEL_EVANS -->
<g id="node1" class="node">
<title>ABEL_EVANS</title>
<polygon fill="none" stroke="black" points="251.18,-570.67 197.18,-570.67 197.18,-532.67 251.18,-532.67 251.18,-570.67"/>
<text text-anchor="start" x="209.18" y="-555.47" font-family="Times,serif" font-size="14.00"> Abel</text>
<text text-anchor="start" x="205.68" y="-540.47" font-family="Times,serif" font-size="14.00">Evans </text>
</g>
<!-- ABEL_ROPER -->
<g id="node2" class="node">
<title>ABEL_ROPER</title>
<polygon fill="none" stroke="black" points="445.4,-481.45 391.4,-481.45 391.4,-443.45 445.4,-443.45 445.4,-481.45"/>
<text text-anchor="start" x="403.4" y="-466.25" font-family="Times,serif" font-size="14.00"> Abel</text>
<text text-anchor="start" x="399.9" y="-451.25" font-family="Times,serif" font-size="14.00">Roper </text>
</g>
<!-- ALEXANDER_POPE -->
<g id="node3" class="node">
<title>ALEXANDER_POPE</title>
<polygon fill="none" stroke="black" points="609.58,-418.16 533.58,-418.16 533.58,-380.16 609.58,-380.16 609.58,-418.16"/>
<text text-anchor="start" x="541.58" y="-402.96" font-family="Times,serif" font-size="14.00"> Alexander</text>
<text text-anchor="start" x="556.08" y="-387.96" font-family="Times,serif" font-size="14.00">Pope </text>
</g>
<!-- AMBROSE_PHILLIPS -->
<g id="node4" class="node">
<title>AMBROSE_PHILLIPS</title>
<polygon fill="none" stroke="black" points="126.65,-597.52 56.65,-597.52 56.65,-559.52 126.65,-559.52 126.65,-597.52"/>
<text text-anchor="start" x="64.65" y="-582.32" font-family="Times,serif" font-size="14.00"> Ambrose</text>
<text text-anchor="start" x="68.65" y="-567.32" font-family="Times,serif" font-size="14.00">Phillips </text>
</g>
<!-- BERNARD_LINTOT -->
<g id="node5" class="node">
<title>BERNARD_LINTOT</title>
<polygon fill="none" stroke="black" points="195.16,-644.23 131.16,-644.23 131.16,-606.23 195.16,-606.23 195.16,-644.23"/>
<text text-anchor="start" x="139.16" y="-629.03" font-family="Times,serif" font-size="14.00"> Bernard</text>
<text text-anchor="start" x="144.66" y="-614.03" font-family="Times,serif" font-size="14.00">Lintot </text>
</g>
<!-- BESALEEL_MORRIS -->
<g id="node6" class="node">
<title>BESALEEL_MORRIS</title>
<polygon fill="none" stroke="black" points="511.86,-249.95 445.86,-249.95 445.86,-211.95 511.86,-211.95 511.86,-249.95"/>
<text text-anchor="start" x="453.86" y="-234.75" font-family="Times,serif" font-size="14.00"> Besaleel</text>
<text text-anchor="start" x="457.86" y="-219.75" font-family="Times,serif" font-size="14.00">Morris </text>
</g>
<!-- CHARLES_GILDON -->
<g id="node7" class="node">
<title>CHARLES_GILDON</title>
<polygon fill="none" stroke="black" points="498.12,-319.38 436.12,-319.38 436.12,-281.38 498.12,-281.38 498.12,-319.38"/>
<text text-anchor="start" x="444.12" y="-304.18" font-family="Times,serif" font-size="14.00"> Charles</text>
<text text-anchor="start" x="446.12" y="-289.18" font-family="Times,serif" font-size="14.00">Gildon </text>
</g>
<!-- COLLEY_CIBBER -->
<g id="node8" class="node">
<title>COLLEY_CIBBER</title>
<polygon fill="none" stroke="black" points="436.64,-195.71 379.64,-195.71 379.64,-157.71 436.64,-157.71 436.64,-195.71"/>
<text text-anchor="start" x="388.14" y="-180.51" font-family="Times,serif" font-size="14.00"> Colley</text>
<text text-anchor="start" x="387.64" y="-165.51" font-family="Times,serif" font-size="14.00">Cibber </text>
</g>
<!-- DANIEL_DEFOE -->
<g id="node9" class="node">
<title>DANIEL_DEFOE</title>
<polygon fill="none" stroke="black" points="141.39,-463.57 85.39,-463.57 85.39,-425.57 141.39,-425.57 141.39,-463.57"/>
<text text-anchor="start" x="93.39" y="-448.37" font-family="Times,serif" font-size="14.00"> Daniel</text>
<text text-anchor="start" x="94.89" y="-433.37" font-family="Times,serif" font-size="14.00">Defoe </text>
</g>
<!-- EDMUND_CURLL -->
<g id="node10" class="node">
<title>EDMUND_CURLL</title>
<polygon fill="none" stroke="black" points="334.45,-381.87 267.45,-381.87 267.45,-343.87 334.45,-343.87 334.45,-381.87"/>
<text text-anchor="start" x="275.45" y="-366.67" font-family="Times,serif" font-size="14.00"> Edmund</text>
<text text-anchor="start" x="284.95" y="-351.67" font-family="Times,serif" font-size="14.00">Curll </text>
</g>
<!-- EDMUND_CURLL&#45;&gt;ABEL_EVANS -->
<g id="edge1" class="edge">
<title>EDMUND_CURLL&#45;&gt;ABEL_EVANS</title>
<path fill="none" stroke="orange" d="M293.17,-382.01C279.66,-415.23 251.81,-483.73 235.93,-522.77"/>
<polygon fill="orange" stroke="orange" points="232.51,-521.9 231.99,-532.48 238.99,-524.54 232.51,-521.9"/>
</g>
<!-- EDMUND_CURLL&#45;&gt;ABEL_ROPER -->
<g id="edge2" class="edge">
<title>EDMUND_CURLL&#45;&gt;ABEL_ROPER</title>
<path fill="none" stroke="green" d="M323.6,-382.07C341.96,-397.64 368,-419.72 388.14,-436.8"/>
<polygon fill="green" stroke="green" points="385.93,-439.51 395.82,-443.31 390.46,-434.17 385.93,-439.51"/>
</g>
<!-- EDMUND_CURLL&#45;&gt;ALEXANDER_POPE -->
<g id="edge3" class="edge">
<title>EDMUND_CURLL&#45;&gt;ALEXANDER_POPE</title>
<path fill="none" stroke="red" d="M334.61,-372.1C382.1,-381.04 469.05,-392.9 523.39,-398.03"/>
<polygon fill="red" stroke="red" points="523.2,-401.52 533.48,-398.93 523.83,-394.55 523.2,-401.52"/>
</g>
<!-- EDMUND_CURLL&#45;&gt;ALEXANDER_POPE -->
<g id="edge4" class="edge">
<title>EDMUND_CURLL&#45;&gt;ALEXANDER_POPE</title>
<path fill="none" stroke="orange" d="M334.48,-362.73C381.93,-366.47 468.96,-377.89 523.35,-387.31"/>
<polygon fill="orange" stroke="orange" points="522.99,-390.8 533.45,-389.1 524.21,-383.9 522.99,-390.8"/>
</g>
<!-- EDMUND_CURLL&#45;&gt;AMBROSE_PHILLIPS -->
<g id="edge5" class="edge">
<title>EDMUND_CURLL&#45;&gt;AMBROSE_PHILLIPS</title>
<path fill="none" stroke="green" d="M282.38,-382.01C244.83,-420.69 159.85,-508.25 117.15,-552.24"/>
<polygon fill="green" stroke="green" points="114.63,-549.81 110.18,-559.43 119.66,-554.69 114.63,-549.81"/>
</g>
<!-- EDMUND_CURLL&#45;&gt;BERNARD_LINTOT -->
<g id="edge6" class="edge">
<title>EDMUND_CURLL&#45;&gt;BERNARD_LINTOT</title>
<path fill="none" stroke="green" d="M290.82,-382.16C266.78,-427.93 206.21,-543.26 178.02,-596.94"/>
<polygon fill="green" stroke="green" points="174.86,-595.43 173.31,-605.91 181.05,-598.68 174.86,-595.43"/>
</g>
<!-- EDMUND_CURLL&#45;&gt;BESALEEL_MORRIS -->
<g id="edge7" class="edge">
<title>EDMUND_CURLL&#45;&gt;BESALEEL_MORRIS</title>
<path fill="none" stroke="green" d="M326.82,-343.69C357.92,-320.63 410.2,-281.86 444.62,-256.34"/>
<polygon fill="green" stroke="green" points="447.01,-258.93 452.96,-250.16 442.84,-253.3 447.01,-258.93"/>
</g>
<!-- EDMUND_CURLL&#45;&gt;CHARLES_GILDON -->
<g id="edge8" class="edge">
<title>EDMUND_CURLL&#45;&gt;CHARLES_GILDON</title>
<path fill="none" stroke="green" d="M334.58,-350.23C361.13,-340.24 398.28,-326.27 426.49,-315.66"/>
<polygon fill="green" stroke="green" points="427.94,-318.85 436.07,-312.06 425.48,-312.3 427.94,-318.85"/>
</g>
<!-- EDMUND_CURLL&#45;&gt;COLLEY_CIBBER -->
<g id="edge9" class="edge">
<title>EDMUND_CURLL&#45;&gt;COLLEY_CIBBER</title>
<path fill="none" stroke="green" d="M317.14,-343.76C339.47,-310.78 378.51,-243.2 397.52,-204.84"/>
<polygon fill="green" stroke="green" points="400.71,-206.29 401.9,-195.76 394.4,-203.25 400.71,-206.29"/>
</g>
<!-- EDMUND_CURLL&#45;&gt;COLLEY_CIBBER -->
<g id="edge10" class="edge">
<title>EDMUND_CURLL&#45;&gt;COLLEY_CIBBER</title>
<path fill="none" stroke="orange" d="M307.28,-343.64C322.75,-310.49 361.41,-242.67 386.25,-204.44"/>
<polygon fill="orange" stroke="orange" points="389.33,-206.12 391.94,-195.85 383.5,-202.25 389.33,-206.12"/>
</g>
<!-- EDMUND_CURLL&#45;&gt;DANIEL_DEFOE -->
<g id="edge11" class="edge">
<title>EDMUND_CURLL&#45;&gt;DANIEL_DEFOE</title>
<path fill="none" stroke="green" d="M267.42,-377.48C234.72,-391.72 185.06,-413.35 151.03,-428.18"/>
<polygon fill="green" stroke="green" points="149.21,-425.16 141.44,-432.36 152,-431.57 149.21,-425.16"/>
</g>
<!-- EDWARD_WARD -->
<g id="node11" class="node">
<title>EDWARD_WARD</title>
<polygon fill="none" stroke="black" points="153.52,-275.26 91.52,-275.26 91.52,-237.26 153.52,-237.26 153.52,-275.26"/>
<text text-anchor="start" x="99.52" y="-260.06" font-family="Times,serif" font-size="14.00"> Edward</text>
<text text-anchor="start" x="105.52" y="-245.06" font-family="Times,serif" font-size="14.00">Ward </text>
</g>
<!-- EDMUND_CURLL&#45;&gt;EDWARD_WARD -->
<g id="edge12" class="edge">
<title>EDMUND_CURLL&#45;&gt;EDWARD_WARD</title>
<path fill="none" stroke="green" d="M278.26,-343.64C249.24,-323.71 198.58,-293.15 162.91,-273.85"/>
<polygon fill="green" stroke="green" points="164.21,-270.58 153.74,-268.96 160.92,-276.75 164.21,-270.58"/>
</g>
<!-- EDMUND_CURLL&#45;&gt;EDWARD_WARD -->
<g id="edge13" class="edge">
<title>EDMUND_CURLL&#45;&gt;EDWARD_WARD</title>
<path fill="none" stroke="blue" d="M267.17,-348.82C234.42,-331.5 185.22,-302.16 153.46,-281.07"/>
<polygon fill="blue" stroke="blue" points="155.25,-278.05 145,-275.35 151.33,-283.85 155.25,-278.05"/>
</g>
<!-- EDWARD_YOUNG -->
<g id="node12" class="node">
<title>EDWARD_YOUNG</title>
<polygon fill="none" stroke="black" points="116.24,-550.51 54.24,-550.51 54.24,-512.51 116.24,-512.51 116.24,-550.51"/>
<text text-anchor="start" x="62.24" y="-535.31" font-family="Times,serif" font-size="14.00"> Edward</text>
<text text-anchor="start" x="65.24" y="-520.31" font-family="Times,serif" font-size="14.00">Young </text>
</g>
<!-- EDMUND_CURLL&#45;&gt;EDWARD_YOUNG -->
<g id="edge14" class="edge">
<title>EDMUND_CURLL&#45;&gt;EDWARD_YOUNG</title>
<path fill="none" stroke="orange" d="M276.62,-381.89C237.7,-412.32 161.39,-471.98 117.8,-506.05"/>
<polygon fill="orange" stroke="orange" points="115.53,-503.39 109.8,-512.31 119.84,-508.9 115.53,-503.39"/>
</g>
<!-- ELIZABETH_THOMAS -->
<g id="node13" class="node">
<title>ELIZABETH_THOMAS</title>
<polygon fill="none" stroke="black" points="158.52,-208.1 87.52,-208.1 87.52,-170.1 158.52,-170.1 158.52,-208.1"/>
<text text-anchor="start" x="95.52" y="-192.9" font-family="Times,serif" font-size="14.00"> Elizabeth</text>
<text text-anchor="start" x="98.52" y="-177.9" font-family="Times,serif" font-size="14.00">Thomas </text>
</g>
<!-- EDMUND_CURLL&#45;&gt;ELIZABETH_THOMAS -->
<g id="edge15" class="edge">
<title>EDMUND_CURLL&#45;&gt;ELIZABETH_THOMAS</title>
<path fill="none" stroke="green" d="M281.23,-343.61C249.21,-312.34 185.89,-250.5 149.82,-215.27"/>
<polygon fill="green" stroke="green" points="152.16,-212.66 142.56,-208.18 147.27,-217.67 152.16,-212.66"/>
</g>
<!-- ELIZA_HAYWOOD -->
<g id="node14" class="node">
<title>ELIZA_HAYWOOD</title>
<polygon fill="none" stroke="black" points="592.91,-281.1 519.91,-281.1 519.91,-243.1 592.91,-243.1 592.91,-281.1"/>
<text text-anchor="start" x="540.41" y="-265.9" font-family="Times,serif" font-size="14.00"> Eliza</text>
<text text-anchor="start" x="527.91" y="-250.9" font-family="Times,serif" font-size="14.00">Haywood </text>
</g>
<!-- EDMUND_CURLL&#45;&gt;ELIZA_HAYWOOD -->
<g id="edge16" class="edge">
<title>EDMUND_CURLL&#45;&gt;ELIZA_HAYWOOD</title>
<path fill="none" stroke="green" d="M334.61,-349.59C379.67,-331.82 459.77,-300.22 510.39,-280.25"/>
<polygon fill="green" stroke="green" points="511.77,-283.47 519.79,-276.54 509.2,-276.96 511.77,-283.47"/>
</g>
<!-- GEORGE_DUCKETT -->
<g id="node15" class="node">
<title>GEORGE_DUCKETT</title>
<polygon fill="none" stroke="black" points="210.57,-120.28 147.57,-120.28 147.57,-82.28 210.57,-82.28 210.57,-120.28"/>
<text text-anchor="start" x="157.07" y="-105.08" font-family="Times,serif" font-size="14.00"> George</text>
<text text-anchor="start" x="155.57" y="-90.08" font-family="Times,serif" font-size="14.00">Duckett </text>
</g>
<!-- EDMUND_CURLL&#45;&gt;GEORGE_DUCKETT -->
<g id="edge17" class="edge">
<title>EDMUND_CURLL&#45;&gt;GEORGE_DUCKETT</title>
<path fill="none" stroke="green" d="M291.99,-343.64C270.77,-298.09 217.37,-183.48 192.37,-129.82"/>
<polygon fill="green" stroke="green" points="195.44,-128.13 188.04,-120.54 189.1,-131.08 195.44,-128.13"/>
</g>
<!-- GEORGE_RIDPATH -->
<g id="node16" class="node">
<title>GEORGE_RIDPATH</title>
<polygon fill="none" stroke="black" points="507.66,-203.91 444.66,-203.91 444.66,-165.91 507.66,-165.91 507.66,-203.91"/>
<text text-anchor="start" x="454.16" y="-188.71" font-family="Times,serif" font-size="14.00"> George</text>
<text text-anchor="start" x="452.66" y="-173.71" font-family="Times,serif" font-size="14.00">Ridpath </text>
</g>
<!-- EDMUND_CURLL&#45;&gt;GEORGE_RIDPATH -->
<g id="edge18" class="edge">
<title>EDMUND_CURLL&#45;&gt;GEORGE_RIDPATH</title>
<path fill="none" stroke="green" d="M319.7,-343.83C351.1,-311.93 414.39,-247.65 450.1,-211.38"/>
<polygon fill="green" stroke="green" points="452.76,-213.67 457.28,-204.09 447.77,-208.76 452.76,-213.67"/>
</g>
<!-- GILES_JACOB -->
<g id="node17" class="node">
<title>GILES_JACOB</title>
<polygon fill="none" stroke="black" points="497.99,-404.4 443.99,-404.4 443.99,-366.4 497.99,-366.4 497.99,-404.4"/>
<text text-anchor="start" x="454.49" y="-389.2" font-family="Times,serif" font-size="14.00"> Giles</text>
<text text-anchor="start" x="453.49" y="-374.2" font-family="Times,serif" font-size="14.00">Jacob </text>
</g>
<!-- EDMUND_CURLL&#45;&gt;GILES_JACOB -->
<g id="edge19" class="edge">
<title>EDMUND_CURLL&#45;&gt;GILES_JACOB</title>
<path fill="none" stroke="green" d="M334.54,-367.32C363.2,-371.12 404.34,-376.57 433.95,-380.5"/>
<polygon fill="green" stroke="green" points="433.53,-383.97 443.9,-381.81 434.44,-377.03 433.53,-383.97"/>
</g>
<!-- GODDESS_OF_THE_COMMONSEWERS_CLOACINA -->
<g id="node18" class="node">
<title>GODDESS_OF_THE_COMMONSEWERS_CLOACINA</title>
<polygon fill="none" stroke="black" points="686.02,-372.12 576.02,-372.12 576.02,-289.12 686.02,-289.12 686.02,-372.12"/>
<text text-anchor="start" x="605.52" y="-356.92" font-family="Times,serif" font-size="14.00"> Goddess</text>
<text text-anchor="start" x="625.02" y="-341.92" font-family="Times,serif" font-size="14.00">of</text>
<text text-anchor="start" x="622.52" y="-326.92" font-family="Times,serif" font-size="14.00">the</text>
<text text-anchor="start" x="584.02" y="-311.92" font-family="Times,serif" font-size="14.00">Common&#45;sewers</text>
<text text-anchor="start" x="605.02" y="-296.92" font-family="Times,serif" font-size="14.00">Cloacina </text>
</g>
<!-- EDMUND_CURLL&#45;&gt;GODDESS_OF_THE_COMMONSEWERS_CLOACINA -->
<g id="edge20" class="edge">
<title>EDMUND_CURLL&#45;&gt;GODDESS_OF_THE_COMMONSEWERS_CLOACINA</title>
<path fill="none" stroke="green" d="M334.72,-359.57C388.99,-354.27 496.53,-343.76 566.04,-336.97"/>
<polygon fill="green" stroke="green" points="566.39,-340.45 576,-336 565.71,-333.49 566.39,-340.45"/>
</g>
<!-- HENRY_CROMWELL -->
<g id="node19" class="node">
<title>HENRY_CROMWELL</title>
<polygon fill="none" stroke="black" points="74.93,-504.43 -0.07,-504.43 -0.07,-466.43 74.93,-466.43 74.93,-504.43"/>
<text text-anchor="start" x="18.43" y="-489.23" font-family="Times,serif" font-size="14.00"> Henry</text>
<text text-anchor="start" x="7.93" y="-474.23" font-family="Times,serif" font-size="14.00">Cromwell </text>
</g>
<!-- EDMUND_CURLL&#45;&gt;HENRY_CROMWELL -->
<g id="edge21" class="edge">
<title>EDMUND_CURLL&#45;&gt;HENRY_CROMWELL</title>
<path fill="none" stroke="red" d="M267.31,-378.52C220.84,-400.13 136.81,-439.21 84.24,-463.66"/>
<polygon fill="red" stroke="red" points="82.72,-460.51 75.13,-467.9 85.67,-466.86 82.72,-460.51"/>
</g>
<!-- HENRY_CURLL -->
<g id="node20" class="node">
<title>HENRY_CURLL</title>
<polygon fill="none" stroke="black" points="431.35,-264.76 377.35,-264.76 377.35,-226.76 431.35,-226.76 431.35,-264.76"/>
<text text-anchor="start" x="385.35" y="-249.56" font-family="Times,serif" font-size="14.00"> Henry</text>
<text text-anchor="start" x="388.35" y="-234.56" font-family="Times,serif" font-size="14.00">Curll </text>
</g>
<!-- EDMUND_CURLL&#45;&gt;HENRY_CURLL -->
<g id="edge22" class="edge">
<title>EDMUND_CURLL&#45;&gt;HENRY_CURLL</title>
<path fill="none" stroke="green" d="M317.79,-343.79C334.92,-324.4 361.59,-294.18 380.8,-272.42"/>
<polygon fill="green" stroke="green" points="383.52,-274.64 387.51,-264.83 378.27,-270.01 383.52,-274.64"/>
</g>
<!-- ISAAC_BARROW -->
<g id="node21" class="node">
<title>ISAAC_BARROW</title>
<polygon fill="none" stroke="black" points="525.44,-454.26 464.44,-454.26 464.44,-416.26 525.44,-416.26 525.44,-454.26"/>
<text text-anchor="start" x="478.94" y="-439.06" font-family="Times,serif" font-size="14.00"> Isaac</text>
<text text-anchor="start" x="472.44" y="-424.06" font-family="Times,serif" font-size="14.00">Barrow </text>
</g>
<!-- EDMUND_CURLL&#45;&gt;ISAAC_BARROW -->
<g id="edge23" class="edge">
<title>EDMUND_CURLL&#45;&gt;ISAAC_BARROW</title>
<path fill="none" stroke="orange" d="M334.74,-375.48C368.18,-387.96 419.37,-407.06 454.84,-420.3"/>
<polygon fill="orange" stroke="orange" points="453.81,-423.65 464.41,-423.87 456.26,-417.09 453.81,-423.65"/>
</g>
<!-- ISAAC_NEWTON -->
<g id="node22" class="node">
<title>ISAAC_NEWTON</title>
<polygon fill="none" stroke="black" points="83.45,-276.3 20.45,-276.3 20.45,-238.3 83.45,-238.3 83.45,-276.3"/>
<text text-anchor="start" x="35.95" y="-261.1" font-family="Times,serif" font-size="14.00"> Isaac</text>
<text text-anchor="start" x="28.45" y="-246.1" font-family="Times,serif" font-size="14.00">Newton </text>
</g>
<!-- EDMUND_CURLL&#45;&gt;ISAAC_NEWTON -->
<g id="edge24" class="edge">
<title>EDMUND_CURLL&#45;&gt;ISAAC_NEWTON</title>
<path fill="none" stroke="orange" d="M267.37,-348.63C222.19,-329.48 141.9,-295.43 93.13,-274.76"/>
<polygon fill="orange" stroke="orange" points="94.39,-271.49 83.82,-270.81 91.66,-277.93 94.39,-271.49"/>
</g>
<!-- JAMES_MOORE_SMYTHE -->
<g id="node23" class="node">
<title>JAMES_MOORE_SMYTHE</title>
<polygon fill="none" stroke="black" points="443.53,-117.8 381.53,-117.8 381.53,-64.8 443.53,-64.8 443.53,-117.8"/>
<text text-anchor="start" x="393.53" y="-102.6" font-family="Times,serif" font-size="14.00"> James</text>
<text text-anchor="start" x="394.03" y="-87.6" font-family="Times,serif" font-size="14.00">Moore</text>
<text text-anchor="start" x="389.53" y="-72.6" font-family="Times,serif" font-size="14.00">Smythe </text>
</g>
<!-- EDMUND_CURLL&#45;&gt;JAMES_MOORE_SMYTHE -->
<g id="edge25" class="edge">
<title>EDMUND_CURLL&#45;&gt;JAMES_MOORE_SMYTHE</title>
<path fill="none" stroke="green" d="M308.8,-343.78C327.22,-298.92 373.52,-186.23 397.55,-127.76"/>
<polygon fill="green" stroke="green" points="400.92,-128.77 401.48,-118.19 394.44,-126.1 400.92,-128.77"/>
</g>
<!-- JOHN_ATTERBURY -->
<g id="node24" class="node">
<title>JOHN_ATTERBURY</title>
<polygon fill="none" stroke="black" points="612.17,-464.18 539.17,-464.18 539.17,-426.18 612.17,-426.18 612.17,-464.18"/>
<text text-anchor="start" x="560.67" y="-448.98" font-family="Times,serif" font-size="14.00"> John</text>
<text text-anchor="start" x="547.17" y="-433.98" font-family="Times,serif" font-size="14.00">Atterbury </text>
</g>
<!-- EDMUND_CURLL&#45;&gt;JOHN_ATTERBURY -->
<g id="edge26" class="edge">
<title>EDMUND_CURLL&#45;&gt;JOHN_ATTERBURY</title>
<path fill="none" stroke="orange" d="M334.64,-372.96C383.46,-387.59 474.07,-414.74 529.22,-431.26"/>
<polygon fill="orange" stroke="orange" points="528.5,-434.7 539.08,-434.21 530.51,-427.99 528.5,-434.7"/>
</g>
<!-- JOHN_DENNIS -->
<g id="node25" class="node">
<title>JOHN_DENNIS</title>
<polygon fill="none" stroke="black" points="318.25,-540.43 259.25,-540.43 259.25,-502.43 318.25,-502.43 318.25,-540.43"/>
<text text-anchor="start" x="273.75" y="-525.23" font-family="Times,serif" font-size="14.00"> John</text>
<text text-anchor="start" x="267.25" y="-510.23" font-family="Times,serif" font-size="14.00">Dennis </text>
</g>
<!-- EDMUND_CURLL&#45;&gt;JOHN_DENNIS -->
<g id="edge27" class="edge">
<title>EDMUND_CURLL&#45;&gt;JOHN_DENNIS</title>
<path fill="none" stroke="green" d="M299.48,-382C297.37,-409.38 293.48,-459.98 291.01,-492.11"/>
<polygon fill="green" stroke="green" points="287.5,-492 290.23,-502.23 294.48,-492.53 287.5,-492"/>
</g>
<!-- JOHN_DRYDEN -->
<g id="node26" class="node">
<title>JOHN_DRYDEN</title>
<polygon fill="none" stroke="black" points="567.19,-365.01 506.19,-365.01 506.19,-327.01 567.19,-327.01 567.19,-365.01"/>
<text text-anchor="start" x="521.69" y="-349.81" font-family="Times,serif" font-size="14.00"> John</text>
<text text-anchor="start" x="514.19" y="-334.81" font-family="Times,serif" font-size="14.00">Dryden </text>
</g>
<!-- EDMUND_CURLL&#45;&gt;JOHN_DRYDEN -->
<g id="edge28" class="edge">
<title>EDMUND_CURLL&#45;&gt;JOHN_DRYDEN</title>
<path fill="none" stroke="orange" d="M334.48,-360.47C376.93,-357.44 450.04,-352.21 495.75,-348.94"/>
<polygon fill="orange" stroke="orange" points="496.18,-352.42 505.91,-348.21 495.68,-345.43 496.18,-352.42"/>
</g>
<!-- JOHN_DUNTON -->
<g id="node27" class="node">
<title>JOHN_DUNTON</title>
<polygon fill="none" stroke="black" points="346.23,-599.04 285.23,-599.04 285.23,-561.04 346.23,-561.04 346.23,-599.04"/>
<text text-anchor="start" x="300.73" y="-583.84" font-family="Times,serif" font-size="14.00"> John</text>
<text text-anchor="start" x="293.23" y="-568.84" font-family="Times,serif" font-size="14.00">Dunton </text>
</g>
<!-- EDMUND_CURLL&#45;&gt;JOHN_DUNTON -->
<g id="edge29" class="edge">
<title>EDMUND_CURLL&#45;&gt;JOHN_DUNTON</title>
<path fill="none" stroke="green" d="M302.26,-382.14C304.86,-420.3 310.66,-505.65 313.73,-550.77"/>
<polygon fill="green" stroke="green" points="310.25,-551.07 314.42,-560.81 317.23,-550.59 310.25,-551.07"/>
</g>
<!-- JOHN_DURANT_BREVAL -->
<g id="node28" class="node">
<title>JOHN_DURANT_BREVAL</title>
<polygon fill="none" stroke="black" points="139.52,-160.02 83.52,-160.02 83.52,-107.02 139.52,-107.02 139.52,-160.02"/>
<text text-anchor="start" x="96.52" y="-144.82" font-family="Times,serif" font-size="14.00"> John</text>
<text text-anchor="start" x="92.52" y="-129.82" font-family="Times,serif" font-size="14.00">Durant</text>
<text text-anchor="start" x="91.52" y="-114.82" font-family="Times,serif" font-size="14.00">Breval </text>
</g>
<!-- EDMUND_CURLL&#45;&gt;JOHN_DURANT_BREVAL -->
<g id="edge30" class="edge">
<title>EDMUND_CURLL&#45;&gt;JOHN_DURANT_BREVAL</title>
<path fill="none" stroke="green" d="M285.13,-343.71C253.12,-304.96 180.31,-216.8 139.89,-167.87"/>
<polygon fill="green" stroke="green" points="142.52,-165.55 133.45,-160.07 137.12,-170.01 142.52,-165.55"/>
</g>
<!-- JOHN_GAY -->
<g id="node29" class="node">
<title>JOHN_GAY</title>
<polygon fill="none" stroke="black" points="212.37,-473.8 158.37,-473.8 158.37,-435.8 212.37,-435.8 212.37,-473.8"/>
<text text-anchor="start" x="170.37" y="-458.6" font-family="Times,serif" font-size="14.00"> John</text>
<text text-anchor="start" x="171.87" y="-443.6" font-family="Times,serif" font-size="14.00">Gay </text>
</g>
<!-- EDMUND_CURLL&#45;&gt;JOHN_GAY -->
<g id="edge31" class="edge">
<title>EDMUND_CURLL&#45;&gt;JOHN_GAY</title>
<path fill="none" stroke="red" d="M277,-381.92C259.72,-395.66 236.21,-414.36 217.33,-429.38"/>
<polygon fill="red" stroke="red" points="214.93,-426.81 209.28,-435.78 219.29,-432.29 214.93,-426.81"/>
</g>
<!-- JOHN_HENLEY -->
<g id="node30" class="node">
<title>JOHN_HENLEY</title>
<polygon fill="none" stroke="black" points="419.4,-568.1 360.4,-568.1 360.4,-530.1 419.4,-530.1 419.4,-568.1"/>
<text text-anchor="start" x="374.9" y="-552.9" font-family="Times,serif" font-size="14.00"> John</text>
<text text-anchor="start" x="368.4" y="-537.9" font-family="Times,serif" font-size="14.00">Henley </text>
</g>
<!-- EDMUND_CURLL&#45;&gt;JOHN_HENLEY -->
<g id="edge32" class="edge">
<title>EDMUND_CURLL&#45;&gt;JOHN_HENLEY</title>
<path fill="none" stroke="green" d="M310.13,-382.1C325.89,-415.08 358.13,-482.59 376.44,-520.9"/>
<polygon fill="green" stroke="green" points="373.3,-522.46 380.77,-529.97 379.62,-519.44 373.3,-522.46"/>
</g>
<!-- JOHN_LOCKE -->
<g id="node31" class="node">
<title>JOHN_LOCKE</title>
<polygon fill="none" stroke="black" points="216.78,-278.1 162.78,-278.1 162.78,-240.1 216.78,-240.1 216.78,-278.1"/>
<text text-anchor="start" x="174.78" y="-262.9" font-family="Times,serif" font-size="14.00"> John</text>
<text text-anchor="start" x="170.78" y="-247.9" font-family="Times,serif" font-size="14.00">Locke </text>
</g>
<!-- EDMUND_CURLL&#45;&gt;JOHN_LOCKE -->
<g id="edge33" class="edge">
<title>EDMUND_CURLL&#45;&gt;JOHN_LOCKE</title>
<path fill="none" stroke="orange" d="M280.56,-343.84C262.96,-327.41 237.37,-303.53 217.84,-285.3"/>
<polygon fill="orange" stroke="orange" points="220.12,-282.63 210.42,-278.37 215.34,-287.75 220.12,-282.63"/>
</g>
<!-- JOHN_OLDMIXON -->
<g id="node32" class="node">
<title>JOHN_OLDMIXON</title>
<polygon fill="none" stroke="black" points="321,-206.75 245,-206.75 245,-168.75 321,-168.75 321,-206.75"/>
<text text-anchor="start" x="268" y="-191.55" font-family="Times,serif" font-size="14.00"> John</text>
<text text-anchor="start" x="253" y="-176.55" font-family="Times,serif" font-size="14.00">Oldmixon </text>
</g>
<!-- EDMUND_CURLL&#45;&gt;JOHN_OLDMIXON -->
<g id="edge34" class="edge">
<title>EDMUND_CURLL&#45;&gt;JOHN_OLDMIXON</title>
<path fill="none" stroke="green" d="M298.99,-343.8C295.86,-313.27 289.71,-253.21 286.01,-217.16"/>
<polygon fill="green" stroke="green" points="289.45,-216.39 284.95,-206.8 282.49,-217.1 289.45,-216.39"/>
</g>
<!-- JOHN_TUTCHIN -->
<g id="node33" class="node">
<title>JOHN_TUTCHIN</title>
<polygon fill="none" stroke="black" points="406.96,-649.18 344.96,-649.18 344.96,-611.18 406.96,-611.18 406.96,-649.18"/>
<text text-anchor="start" x="360.96" y="-633.98" font-family="Times,serif" font-size="14.00"> John</text>
<text text-anchor="start" x="352.96" y="-618.98" font-family="Times,serif" font-size="14.00">Tutchin </text>
</g>
<!-- EDMUND_CURLL&#45;&gt;JOHN_TUTCHIN -->
<g id="edge35" class="edge">
<title>EDMUND_CURLL&#45;&gt;JOHN_TUTCHIN</title>
<path fill="none" stroke="green" d="M306.34,-382.1C319.35,-428.43 352.47,-546.49 367.87,-601.35"/>
<polygon fill="green" stroke="green" points="364.54,-602.45 370.61,-611.13 371.28,-600.56 364.54,-602.45"/>
</g>
<!-- JONATHAN_SWIFT -->
<g id="node34" class="node">
<title>JONATHAN_SWIFT</title>
<polygon fill="none" stroke="black" points="79.47,-223.12 11.47,-223.12 11.47,-185.12 79.47,-185.12 79.47,-223.12"/>
<text text-anchor="start" x="19.47" y="-207.92" font-family="Times,serif" font-size="14.00"> Jonathan</text>
<text text-anchor="start" x="28.47" y="-192.92" font-family="Times,serif" font-size="14.00">Swift </text>
</g>
<!-- EDMUND_CURLL&#45;&gt;JONATHAN_SWIFT -->
<g id="edge36" class="edge">
<title>EDMUND_CURLL&#45;&gt;JONATHAN_SWIFT</title>
<path fill="none" stroke="red" d="M278.21,-343.78C235.58,-313.69 143.2,-255.94 88.49,-224.87"/>
<polygon fill="red" stroke="red" points="90.16,-221.79 79.72,-219.94 86.72,-227.89 90.16,-221.79"/>
</g>
<!-- EDMUND_CURLL&#45;&gt;JONATHAN_SWIFT -->
<g id="edge37" class="edge">
<title>EDMUND_CURLL&#45;&gt;JONATHAN_SWIFT</title>
<path fill="none" stroke="orange" d="M267.19,-347.33C217.42,-319.7 125.15,-262.42 76.8,-229.19"/>
<polygon fill="orange" stroke="orange" points="78.51,-226.12 68.31,-223.28 74.52,-231.86 78.51,-226.12"/>
</g>
<!-- JOSEPH_ADDISON -->
<g id="node35" class="node">
<title>JOSEPH_ADDISON</title>
<polygon fill="none" stroke="black" points="69.84,-327.53 3.84,-327.53 3.84,-289.53 69.84,-289.53 69.84,-327.53"/>
<text text-anchor="start" x="16.34" y="-312.33" font-family="Times,serif" font-size="14.00"> Joseph</text>
<text text-anchor="start" x="11.84" y="-297.33" font-family="Times,serif" font-size="14.00">Addison </text>
</g>
<!-- EDMUND_CURLL&#45;&gt;JOSEPH_ADDISON -->
<g id="edge38" class="edge">
<title>EDMUND_CURLL&#45;&gt;JOSEPH_ADDISON</title>
<path fill="none" stroke="blue" d="M267.38,-351.13C219.78,-338.73 132.68,-320.68 80.24,-312.24"/>
<polygon fill="blue" stroke="blue" points="80.65,-308.77 70.24,-310.69 79.58,-315.68 80.65,-308.77"/>
</g>
<!-- EDMUND_CURLL&#45;&gt;JOSEPH_ADDISON -->
<g id="edge39" class="edge">
<title>EDMUND_CURLL&#45;&gt;JOSEPH_ADDISON</title>
<path fill="none" stroke="orange" d="M267.37,-360.69C219.74,-353.57 132.57,-335.83 80.14,-322.75"/>
<polygon fill="orange" stroke="orange" points="80.69,-319.28 70.14,-320.2 78.96,-326.06 80.69,-319.28"/>
</g>
<!-- JOSEPH_GAY_AKA_JOHN_DURANT_BREVAL -->
<g id="node36" class="node">
<title>JOSEPH_GAY_AKA_JOHN_DURANT_BREVAL</title>
<polygon fill="none" stroke="black" points="341.7,-97.82 280.7,-97.82 280.7,0.18 341.7,0.18 341.7,-97.82"/>
<text text-anchor="start" x="290.7" y="-82.62" font-family="Times,serif" font-size="14.00"> Joseph</text>
<text text-anchor="start" x="299.7" y="-67.62" font-family="Times,serif" font-size="14.00">Gay</text>
<text text-anchor="start" x="299.2" y="-52.62" font-family="Times,serif" font-size="14.00">(aka</text>
<text text-anchor="start" x="298.2" y="-37.62" font-family="Times,serif" font-size="14.00">John</text>
<text text-anchor="start" x="292.2" y="-22.62" font-family="Times,serif" font-size="14.00">Durant</text>
<text text-anchor="start" x="288.7" y="-7.62" font-family="Times,serif" font-size="14.00">Breval) </text>
</g>
<!-- EDMUND_CURLL&#45;&gt;JOSEPH_GAY_AKA_JOHN_DURANT_BREVAL -->
<g id="edge40" class="edge">
<title>EDMUND_CURLL&#45;&gt;JOSEPH_GAY_AKA_JOHN_DURANT_BREVAL</title>
<path fill="none" stroke="green" d="M301.58,-343.7C303.07,-297.88 306.9,-180.47 309.25,-108.39"/>
<polygon fill="green" stroke="green" points="312.76,-108.2 309.59,-98.09 305.76,-107.98 312.76,-108.2"/>
</g>
<!-- LADY_MARY_WORTLEY_MONTAGU -->
<g id="node37" class="node">
<title>LADY_MARY_WORTLEY_MONTAGU</title>
<polygon fill="none" stroke="black" points="484.99,-657.08 414.99,-657.08 414.99,-589.08 484.99,-589.08 484.99,-657.08"/>
<text text-anchor="start" x="433.99" y="-641.88" font-family="Times,serif" font-size="14.00"> Lady</text>
<text text-anchor="start" x="434.49" y="-626.88" font-family="Times,serif" font-size="14.00">Mary</text>
<text text-anchor="start" x="427.49" y="-611.88" font-family="Times,serif" font-size="14.00">Wortley</text>
<text text-anchor="start" x="422.99" y="-596.88" font-family="Times,serif" font-size="14.00">Montagu </text>
</g>
<!-- EDMUND_CURLL&#45;&gt;LADY_MARY_WORTLEY_MONTAGU -->
<g id="edge41" class="edge">
<title>EDMUND_CURLL&#45;&gt;LADY_MARY_WORTLEY_MONTAGU</title>
<path fill="none" stroke="green" d="M311.91,-382.01C335.65,-423.45 392.32,-522.39 425.21,-579.81"/>
<polygon fill="green" stroke="green" points="422.27,-581.72 430.27,-588.66 428.34,-578.24 422.27,-581.72"/>
</g>
<!-- LEONARD_WELSTED -->
<g id="node38" class="node">
<title>LEONARD_WELSTED</title>
<polygon fill="none" stroke="black" points="371.63,-159.93 306.63,-159.93 306.63,-121.93 371.63,-121.93 371.63,-159.93"/>
<text text-anchor="start" x="314.63" y="-144.73" font-family="Times,serif" font-size="14.00"> Leonard</text>
<text text-anchor="start" x="314.63" y="-129.73" font-family="Times,serif" font-size="14.00">Welsted </text>
</g>
<!-- EDMUND_CURLL&#45;&gt;LEONARD_WELSTED -->
<g id="edge42" class="edge">
<title>EDMUND_CURLL&#45;&gt;LEONARD_WELSTED</title>
<path fill="none" stroke="green" d="M304.27,-343.56C310.99,-304.53 326.22,-216.02 334.14,-169.98"/>
<polygon fill="green" stroke="green" points="337.6,-170.49 335.85,-160.04 330.7,-169.3 337.6,-170.49"/>
</g>
<!-- LEWIS_THEOBALD -->
<g id="node39" class="node">
<title>LEWIS_THEOBALD</title>
<polygon fill="none" stroke="black" points="76.6,-438.47 5.6,-438.47 5.6,-400.47 76.6,-400.47 76.6,-438.47"/>
<text text-anchor="start" x="22.6" y="-423.27" font-family="Times,serif" font-size="14.00"> Lewis</text>
<text text-anchor="start" x="13.6" y="-408.27" font-family="Times,serif" font-size="14.00">Theobald </text>
</g>
<!-- EDMUND_CURLL&#45;&gt;LEWIS_THEOBALD -->
<g id="edge43" class="edge">
<title>EDMUND_CURLL&#45;&gt;LEWIS_THEOBALD</title>
<path fill="none" stroke="green" d="M267.39,-360.77C221.18,-365.54 137.89,-383.16 86.26,-398.68"/>
<polygon fill="green" stroke="green" points="85.2,-395.34 76.69,-401.65 87.28,-402.02 85.2,-395.34"/>
</g>
<!-- EDMUND_CURLL&#45;&gt;LEWIS_THEOBALD -->
<g id="edge44" class="edge">
<title>EDMUND_CURLL&#45;&gt;LEWIS_THEOBALD</title>
<path fill="none" stroke="red" d="M267.42,-380.04C221.38,-395.07 138.52,-413.38 86.83,-420.14"/>
<polygon fill="red" stroke="red" points="86.13,-416.7 76.62,-421.37 86.97,-423.65 86.13,-416.7"/>
</g>
<!-- EDMUND_CURLL&#45;&gt;LEWIS_THEOBALD -->
<g id="edge45" class="edge">
<title>EDMUND_CURLL&#45;&gt;LEWIS_THEOBALD</title>
<path fill="none" stroke="orange" d="M267.25,-370.21C221.16,-380.25 138.32,-398.3 86.72,-409.54"/>
<polygon fill="orange" stroke="orange" points="85.86,-406.14 76.83,-411.69 87.35,-412.98 85.86,-406.14"/>
</g>
<!-- MATTHEW_CONCANEN -->
<g id="node40" class="node">
<title>MATTHEW_CONCANEN</title>
<polygon fill="none" stroke="black" points="277.16,-623.05 203.16,-623.05 203.16,-585.05 277.16,-585.05 277.16,-623.05"/>
<text text-anchor="start" x="213.66" y="-607.85" font-family="Times,serif" font-size="14.00"> Matthew</text>
<text text-anchor="start" x="211.16" y="-592.85" font-family="Times,serif" font-size="14.00">Concanen </text>
</g>
<!-- EDMUND_CURLL&#45;&gt;MATTHEW_CONCANEN -->
<g id="edge46" class="edge">
<title>EDMUND_CURLL&#45;&gt;MATTHEW_CONCANEN</title>
<path fill="none" stroke="green" d="M296.08,-382.2C285.43,-424.46 260.01,-525.29 247.45,-575.14"/>
<polygon fill="green" stroke="green" points="244.02,-574.41 244.97,-584.96 250.81,-576.12 244.02,-574.41"/>
</g>
<!-- MATTHEW_PRIOR -->
<g id="node41" class="node">
<title>MATTHEW_PRIOR</title>
<polygon fill="none" stroke="black" points="336.93,-669.54 267.93,-669.54 267.93,-631.54 336.93,-631.54 336.93,-669.54"/>
<text text-anchor="start" x="275.93" y="-654.34" font-family="Times,serif" font-size="14.00"> Matthew</text>
<text text-anchor="start" x="286.93" y="-639.34" font-family="Times,serif" font-size="14.00">Prior </text>
</g>
<!-- EDMUND_CURLL&#45;&gt;MATTHEW_PRIOR -->
<g id="edge47" class="edge">
<title>EDMUND_CURLL&#45;&gt;MATTHEW_PRIOR</title>
<path fill="none" stroke="red" d="M301.05,-382.19C301.3,-431.53 301.97,-562.39 302.28,-621.19"/>
<polygon fill="red" stroke="red" points="298.78,-621.32 302.33,-631.3 305.78,-621.28 298.78,-621.32"/>
</g>
<!-- RICHARD_BLACKMORE -->
<g id="node42" class="node">
<title>RICHARD_BLACKMORE</title>
<polygon fill="none" stroke="black" points="298.6,-143.93 218.6,-143.93 218.6,-105.93 298.6,-105.93 298.6,-143.93"/>
<text text-anchor="start" x="235.1" y="-128.73" font-family="Times,serif" font-size="14.00"> Richard</text>
<text text-anchor="start" x="226.6" y="-113.73" font-family="Times,serif" font-size="14.00">Blackmore </text>
</g>
<!-- EDMUND_CURLL&#45;&gt;RICHARD_BLACKMORE -->
<g id="edge48" class="edge">
<title>EDMUND_CURLL&#45;&gt;RICHARD_BLACKMORE</title>
<path fill="none" stroke="green" d="M297.56,-343.8C290.17,-302.3 272.59,-203.54 263.79,-154.13"/>
<polygon fill="green" stroke="green" points="267.21,-153.33 262.01,-144.09 260.31,-154.55 267.21,-153.33"/>
</g>
<!-- SAMUEL_GARTH -->
<g id="node43" class="node">
<title>SAMUEL_GARTH</title>
<polygon fill="none" stroke="black" points="146.65,-396.01 84.65,-396.01 84.65,-358.01 146.65,-358.01 146.65,-396.01"/>
<text text-anchor="start" x="92.65" y="-380.81" font-family="Times,serif" font-size="14.00"> Samuel</text>
<text text-anchor="start" x="98.15" y="-365.81" font-family="Times,serif" font-size="14.00">Garth </text>
</g>
<!-- EDMUND_CURLL&#45;&gt;SAMUEL_GARTH -->
<g id="edge49" class="edge">
<title>EDMUND_CURLL&#45;&gt;SAMUEL_GARTH</title>
<path fill="none" stroke="orange" d="M267.39,-365.43C236.43,-367.8 190.36,-371.31 157.11,-373.85"/>
<polygon fill="orange" stroke="orange" points="156.5,-370.39 146.8,-374.64 157.04,-377.37 156.5,-370.39"/>
</g>
<!-- THOMAS_COOKE -->
<g id="node44" class="node">
<title>THOMAS_COOKE</title>
<polygon fill="none" stroke="black" points="566.54,-510.22 502.54,-510.22 502.54,-472.22 566.54,-472.22 566.54,-510.22"/>
<text text-anchor="start" x="510.54" y="-495.02" font-family="Times,serif" font-size="14.00"> Thomas</text>
<text text-anchor="start" x="514.54" y="-480.02" font-family="Times,serif" font-size="14.00">Cooke </text>
</g>
<!-- EDMUND_CURLL&#45;&gt;THOMAS_COOKE -->
<g id="edge50" class="edge">
<title>EDMUND_CURLL&#45;&gt;THOMAS_COOKE</title>
<path fill="none" stroke="green" d="M334.92,-381.53C376.94,-404.63 448.44,-443.91 493.49,-468.67"/>
<polygon fill="green" stroke="green" points="491.96,-471.82 502.41,-473.57 495.33,-465.68 491.96,-471.82"/>
</g>
<!-- THOMAS_OSBORNE -->
<g id="node45" class="node">
<title>THOMAS_OSBORNE</title>
<polygon fill="none" stroke="black" points="144.55,-338.87 78.55,-338.87 78.55,-300.87 144.55,-300.87 144.55,-338.87"/>
<text text-anchor="start" x="87.55" y="-323.67" font-family="Times,serif" font-size="14.00"> Thomas</text>
<text text-anchor="start" x="86.55" y="-308.67" font-family="Times,serif" font-size="14.00">Osborne </text>
</g>
<!-- EDMUND_CURLL&#45;&gt;THOMAS_OSBORNE -->
<g id="edge51" class="edge">
<title>EDMUND_CURLL&#45;&gt;THOMAS_OSBORNE</title>
<path fill="none" stroke="green" d="M267.09,-355.18C235.75,-348.07 189,-337.45 154.93,-329.72"/>
<polygon fill="green" stroke="green" points="155.33,-326.22 144.8,-327.42 153.78,-333.05 155.33,-326.22"/>
</g>
<!-- THOMAS_WARNER -->
<g id="node46" class="node">
<title>THOMAS_WARNER</title>
<polygon fill="none" stroke="black" points="189.17,-551.48 125.17,-551.48 125.17,-513.48 189.17,-513.48 189.17,-551.48"/>
<text text-anchor="start" x="133.17" y="-536.28" font-family="Times,serif" font-size="14.00"> Thomas</text>
<text text-anchor="start" x="134.67" y="-521.28" font-family="Times,serif" font-size="14.00">Warner </text>
</g>
<!-- EDMUND_CURLL&#45;&gt;THOMAS_WARNER -->
<g id="edge52" class="edge">
<title>EDMUND_CURLL&#45;&gt;THOMAS_WARNER</title>
<path fill="none" stroke="green" d="M284.74,-382C259.1,-412.24 209.14,-471.18 179.92,-505.64"/>
<polygon fill="green" stroke="green" points="177.12,-503.53 173.32,-513.43 182.46,-508.06 177.12,-503.53"/>
</g>
<!-- TOUSSAINT_EDMOND_DE_SAINTMARD -->
<g id="node47" class="node">
<title>TOUSSAINT_EDMOND_DE_SAINTMARD</title>
<polygon fill="none" stroke="black" points="535.54,-148.29 452.54,-148.29 452.54,-80.29 535.54,-80.29 535.54,-148.29"/>
<text text-anchor="start" x="466.04" y="-133.09" font-family="Times,serif" font-size="14.00"> Toussaint</text>
<text text-anchor="start" x="470.54" y="-118.09" font-family="Times,serif" font-size="14.00">Edmond</text>
<text text-anchor="start" x="487.54" y="-103.09" font-family="Times,serif" font-size="14.00">de</text>
<text text-anchor="start" x="460.54" y="-88.09" font-family="Times,serif" font-size="14.00">Saint&#45;Mard </text>
</g>
<!-- EDMUND_CURLL&#45;&gt;TOUSSAINT_EDMOND_DE_SAINTMARD -->
<g id="edge53" class="edge">
<title>EDMUND_CURLL&#45;&gt;TOUSSAINT_EDMOND_DE_SAINTMARD</title>
<path fill="none" stroke="orange" d="M315.78,-343.78C346.69,-303.98 418.65,-211.34 461.09,-156.71"/>
<polygon fill="orange" stroke="orange" points="464.01,-158.66 467.38,-148.61 458.48,-154.36 464.01,-158.66"/>
</g>
<!-- WILLIAM_BOND -->
<g id="node48" class="node">
<title>WILLIAM_BOND</title>
<polygon fill="none" stroke="black" points="494.49,-535.01 429.49,-535.01 429.49,-497.01 494.49,-497.01 494.49,-535.01"/>
<text text-anchor="start" x="437.49" y="-519.81" font-family="Times,serif" font-size="14.00"> William</text>
<text text-anchor="start" x="444.99" y="-504.81" font-family="Times,serif" font-size="14.00">Bond </text>
</g>
<!-- EDMUND_CURLL&#45;&gt;WILLIAM_BOND -->
<g id="edge54" class="edge">
<title>EDMUND_CURLL&#45;&gt;WILLIAM_BOND</title>
<path fill="none" stroke="green" d="M321.02,-381.96C349.67,-409.2 402.37,-459.31 434.59,-489.95"/>
<polygon fill="green" stroke="green" points="432.26,-492.57 441.92,-496.92 437.09,-487.49 432.26,-492.57"/>
</g>
<!-- WILLIAM_CONGREVE -->
<g id="node49" class="node">
<title>WILLIAM_CONGREVE</title>
<polygon fill="none" stroke="black" points="592.93,-215.32 519.93,-215.32 519.93,-177.32 592.93,-177.32 592.93,-215.32"/>
<text text-anchor="start" x="531.93" y="-200.12" font-family="Times,serif" font-size="14.00"> William</text>
<text text-anchor="start" x="527.93" y="-185.12" font-family="Times,serif" font-size="14.00">Congreve </text>
</g>
<!-- EDMUND_CURLL&#45;&gt;WILLIAM_CONGREVE -->
<g id="edge55" class="edge">
<title>EDMUND_CURLL&#45;&gt;WILLIAM_CONGREVE</title>
<path fill="none" stroke="orange" d="M330.26,-343.77C376.72,-313.48 467.27,-254.45 518.58,-220.99"/>
<polygon fill="orange" stroke="orange" points="520.61,-223.85 527.08,-215.46 516.79,-217.99 520.61,-223.85"/>
</g>
<!-- WILLIAM_MEARS -->
<g id="node50" class="node">
<title>WILLIAM_MEARS</title>
<polygon fill="none" stroke="black" points="70.53,-382.55 5.53,-382.55 5.53,-344.55 70.53,-344.55 70.53,-382.55"/>
<text text-anchor="start" x="13.53" y="-367.35" font-family="Times,serif" font-size="14.00"> William</text>
<text text-anchor="start" x="18.53" y="-352.35" font-family="Times,serif" font-size="14.00">Mears </text>
</g>
<!-- EDMUND_CURLL&#45;&gt;WILLIAM_MEARS -->
<g id="edge56" class="edge">
<title>EDMUND_CURLL&#45;&gt;WILLIAM_MEARS</title>
<path fill="none" stroke="green" d="M267.38,-362.96C219.85,-363.08 132.93,-363.3 80.82,-363.44"/>
<polygon fill="green" stroke="green" points="80.56,-359.94 70.57,-363.46 80.58,-366.94 80.56,-359.94"/>
</g>
<!-- WILLIAM_WILKINS -->
<g id="node51" class="node">
<title>WILLIAM_WILKINS</title>
<polygon fill="none" stroke="black" points="231.57,-192.2 166.57,-192.2 166.57,-154.2 231.57,-154.2 231.57,-192.2"/>
<text text-anchor="start" x="174.57" y="-177" font-family="Times,serif" font-size="14.00"> William</text>
<text text-anchor="start" x="175.57" y="-162" font-family="Times,serif" font-size="14.00">Wilkins </text>
</g>
<!-- EDMUND_CURLL&#45;&gt;WILLIAM_WILKINS -->
<g id="edge57" class="edge">
<title>EDMUND_CURLL&#45;&gt;WILLIAM_WILKINS</title>
<path fill="none" stroke="green" d="M290.62,-343.64C272.62,-310.13 235.42,-240.87 214.4,-201.74"/>
<polygon fill="green" stroke="green" points="217.24,-199.63 209.43,-192.48 211.08,-202.94 217.24,-199.63"/>
</g>
<!-- WILLIAM_WYCHERLEY -->
<g id="node52" class="node">
<title>WILLIAM_WYCHERLEY</title>
<polygon fill="none" stroke="black" points="572.04,-581.04 492.04,-581.04 492.04,-543.04 572.04,-543.04 572.04,-581.04"/>
<text text-anchor="start" x="507.54" y="-565.84" font-family="Times,serif" font-size="14.00"> William</text>
<text text-anchor="start" x="500.04" y="-550.84" font-family="Times,serif" font-size="14.00">Wycherley </text>
</g>
<!-- EDMUND_CURLL&#45;&gt;WILLIAM_WYCHERLEY -->
<g id="edge58" class="edge">
<title>EDMUND_CURLL&#45;&gt;WILLIAM_WYCHERLEY</title>
<path fill="none" stroke="blue" d="M323.11,-381.97C364.86,-417.96 455.22,-495.83 502.24,-536.36"/>
<polygon fill="blue" stroke="blue" points="500.09,-539.13 509.95,-543 504.66,-533.82 500.09,-539.13"/>
</g>
</g>
</svg>
