<?xml version="1.0" encoding="UTF-8" standalone="no"?>
<!DOCTYPE svg PUBLIC "-//W3C//DTD SVG 1.1//EN"
 "http://www.w3.org/Graphics/SVG/1.1/DTD/svg11.dtd">
<!-- Generated by graphviz version 2.50.0 (0)
 -->
<!-- Title: G Pages: 1 -->
<svg width="641pt" height="381pt"
 viewBox="0.00 0.00 641.41 380.74" xmlns="http://www.w3.org/2000/svg" xmlns:xlink="http://www.w3.org/1999/xlink">
<g id="graph0" class="graph" transform="scale(1 1) rotate(0) translate(4 376.74)">
<title>G</title>
<polygon fill="white" stroke="transparent" points="-4,4 -4,-376.74 637.41,-376.74 637.41,4 -4,4"/>
<!-- ANNE_TANNEGUYLE_FEVRE_DACIER -->
<g id="node1" class="node">
<title>ANNE_TANNEGUYLE_FEVRE_DACIER</title>
<polygon fill="none" stroke="black" points="133,-205.99 0,-205.99 0,-167.99 133,-167.99 133,-205.99"/>
<text text-anchor="start" x="8" y="-190.79" font-family="arial" font-size="14.00"> Anne Tanneguy&#45;Le</text>
<text text-anchor="start" x="25.5" y="-175.79" font-family="arial" font-size="14.00">Fevre Dacier </text>
</g>
<!-- EDMUND_CURLL -->
<g id="node2" class="node">
<title>EDMUND_CURLL</title>
<polygon fill="none" stroke="black" points="293.7,-137.3 222.7,-137.3 222.7,-99.3 293.7,-99.3 293.7,-137.3"/>
<text text-anchor="start" x="230.7" y="-122.1" font-family="arial" font-size="14.00"> Edmund</text>
<text text-anchor="start" x="242.2" y="-107.1" font-family="arial" font-size="14.00">Curll </text>
</g>
<!-- EDWARD_WARD -->
<g id="node3" class="node">
<title>EDWARD_WARD</title>
<polygon fill="none" stroke="black" points="388.09,-40.55 322.09,-40.55 322.09,-2.55 388.09,-2.55 388.09,-40.55"/>
<text text-anchor="start" x="330.09" y="-25.35" font-family="arial" font-size="14.00"> Edward</text>
<text text-anchor="start" x="336.59" y="-10.35" font-family="arial" font-size="14.00">Ward </text>
</g>
<!-- ELISHA_KIRKALL -->
<g id="node4" class="node">
<title>ELISHA_KIRKALL</title>
<polygon fill="none" stroke="black" points="513.99,-38 456.99,-38 456.99,0 513.99,0 513.99,-38"/>
<text text-anchor="start" x="464.99" y="-22.8" font-family="arial" font-size="14.00"> Elisha</text>
<text text-anchor="start" x="464.99" y="-7.8" font-family="arial" font-size="14.00">Kirkall </text>
</g>
<!-- ELIZA_HAYWOOD -->
<g id="node5" class="node">
<title>ELIZA_HAYWOOD</title>
<polygon fill="none" stroke="black" points="462.05,-205.99 385.05,-205.99 385.05,-167.99 462.05,-167.99 462.05,-205.99"/>
<text text-anchor="start" x="406.55" y="-190.79" font-family="arial" font-size="14.00"> Eliza</text>
<text text-anchor="start" x="393.05" y="-175.79" font-family="arial" font-size="14.00">Haywood </text>
</g>
<!-- ELIZA_HAYWOOD&#45;&gt;ANNE_TANNEGUYLE_FEVRE_DACIER -->
<g id="edge1" class="edge">
<title>ELIZA_HAYWOOD&#45;&gt;ANNE_TANNEGUYLE_FEVRE_DACIER</title>
<path fill="none" stroke="green" d="M385,-186.99C327.39,-186.99 217.67,-186.99 143.3,-186.99"/>
<polygon fill="green" stroke="green" points="143.05,-183.49 133.05,-186.99 143.05,-190.49 143.05,-183.49"/>
</g>
<!-- ELIZA_HAYWOOD&#45;&gt;EDMUND_CURLL -->
<g id="edge2" class="edge">
<title>ELIZA_HAYWOOD&#45;&gt;EDMUND_CURLL</title>
<path fill="none" stroke="green" d="M384.78,-170.89C360.41,-160.76 328.86,-147.65 303.35,-137.06"/>
<polygon fill="green" stroke="green" points="304.48,-133.74 293.9,-133.13 301.79,-140.2 304.48,-133.74"/>
</g>
<!-- ELIZA_HAYWOOD&#45;&gt;EDWARD_WARD -->
<g id="edge3" class="edge">
<title>ELIZA_HAYWOOD&#45;&gt;EDWARD_WARD</title>
<path fill="none" stroke="green" d="M415.56,-167.69C403.56,-138.68 380.78,-83.65 366.87,-50.02"/>
<polygon fill="green" stroke="green" points="370.08,-48.63 363.02,-40.73 363.61,-51.31 370.08,-48.63"/>
</g>
<!-- ELIZA_HAYWOOD&#45;&gt;ELISHA_KIRKALL -->
<g id="edge4" class="edge">
<title>ELIZA_HAYWOOD&#45;&gt;ELISHA_KIRKALL</title>
<path fill="none" stroke="green" d="M430.65,-167.72C441.53,-138.23 462.37,-81.72 474.99,-47.49"/>
<polygon fill="green" stroke="green" points="478.29,-48.64 478.47,-38.05 471.73,-46.22 478.29,-48.64"/>
</g>
<!-- JOHN_DENNIS -->
<g id="node6" class="node">
<title>JOHN_DENNIS</title>
<polygon fill="none" stroke="black" points="613.11,-122.82 551.11,-122.82 551.11,-84.82 613.11,-84.82 613.11,-122.82"/>
<text text-anchor="start" x="565.11" y="-107.62" font-family="arial" font-size="14.00"> John</text>
<text text-anchor="start" x="559.11" y="-92.62" font-family="arial" font-size="14.00">Dennis </text>
</g>
<!-- ELIZA_HAYWOOD&#45;&gt;JOHN_DENNIS -->
<g id="edge5" class="edge">
<title>ELIZA_HAYWOOD&#45;&gt;JOHN_DENNIS</title>
<path fill="none" stroke="green" d="M459.93,-167.91C484.44,-155.05 516.78,-138.09 542.03,-124.84"/>
<polygon fill="green" stroke="green" points="543.75,-127.89 550.98,-120.15 540.5,-121.69 543.75,-127.89"/>
</g>
<!-- JOHN_OLDMIXON -->
<g id="node7" class="node">
<title>JOHN_OLDMIXON</title>
<polygon fill="none" stroke="black" points="633.41,-261.08 554.41,-261.08 554.41,-223.08 633.41,-223.08 633.41,-261.08"/>
<text text-anchor="start" x="576.91" y="-245.88" font-family="arial" font-size="14.00"> John</text>
<text text-anchor="start" x="562.41" y="-230.88" font-family="arial" font-size="14.00">Oldmixon </text>
</g>
<!-- ELIZA_HAYWOOD&#45;&gt;JOHN_OLDMIXON -->
<g id="edge6" class="edge">
<title>ELIZA_HAYWOOD&#45;&gt;JOHN_OLDMIXON</title>
<path fill="none" stroke="green" d="M462.21,-199.49C486.58,-207.38 518.29,-217.63 544.48,-226.1"/>
<polygon fill="green" stroke="green" points="543.63,-229.5 554.23,-229.25 545.79,-222.84 543.63,-229.5"/>
</g>
<!-- LEONARD_WELSTED -->
<g id="node8" class="node">
<title>LEONARD_WELSTED</title>
<polygon fill="none" stroke="black" points="534.78,-368 464.78,-368 464.78,-330 534.78,-330 534.78,-368"/>
<text text-anchor="start" x="472.78" y="-352.8" font-family="arial" font-size="14.00"> Leonard</text>
<text text-anchor="start" x="473.28" y="-337.8" font-family="arial" font-size="14.00">Welsted </text>
</g>
<!-- ELIZA_HAYWOOD&#45;&gt;LEONARD_WELSTED -->
<g id="edge7" class="edge">
<title>ELIZA_HAYWOOD&#45;&gt;LEONARD_WELSTED</title>
<path fill="none" stroke="green" d="M432.59,-206.21C445.95,-234.59 471.02,-287.88 486.48,-320.72"/>
<polygon fill="green" stroke="green" points="483.33,-322.25 490.75,-329.81 489.66,-319.27 483.33,-322.25"/>
</g>
<!-- LEWIS_THEOBALD -->
<g id="node9" class="node">
<title>LEWIS_THEOBALD</title>
<polygon fill="none" stroke="black" points="396.83,-372.74 319.83,-372.74 319.83,-334.74 396.83,-334.74 396.83,-372.74"/>
<text text-anchor="start" x="338.83" y="-357.54" font-family="arial" font-size="14.00"> Lewis</text>
<text text-anchor="start" x="327.83" y="-342.54" font-family="arial" font-size="14.00">Theobald </text>
</g>
<!-- ELIZA_HAYWOOD&#45;&gt;LEWIS_THEOBALD -->
<g id="edge8" class="edge">
<title>ELIZA_HAYWOOD&#45;&gt;LEWIS_THEOBALD</title>
<path fill="none" stroke="green" d="M416.07,-206.12C404.65,-235.32 382.8,-291.19 369.5,-325.2"/>
<polygon fill="green" stroke="green" points="366.21,-323.99 365.83,-334.58 372.73,-326.54 366.21,-323.99"/>
</g>
<!-- RICHARD_SAVAGE -->
<g id="node10" class="node">
<title>RICHARD_SAVAGE</title>
<polygon fill="none" stroke="black" points="291.7,-274.69 224.7,-274.69 224.7,-236.69 291.7,-236.69 291.7,-274.69"/>
<text text-anchor="start" x="232.7" y="-259.49" font-family="arial" font-size="14.00"> Richard</text>
<text text-anchor="start" x="233.2" y="-244.49" font-family="arial" font-size="14.00">Savage </text>
</g>
<!-- ELIZA_HAYWOOD&#45;&gt;RICHARD_SAVAGE -->
<g id="edge9" class="edge">
<title>ELIZA_HAYWOOD&#45;&gt;RICHARD_SAVAGE</title>
<path fill="none" stroke="orange" d="M384.78,-203.1C359.81,-213.47 327.32,-226.97 301.5,-237.7"/>
<polygon fill="orange" stroke="orange" points="299.86,-234.59 291.97,-241.66 302.54,-241.05 299.86,-234.59"/>
</g>
</g>
</svg>
