<?xml version="1.0" encoding="UTF-8" standalone="no"?>
<!DOCTYPE svg PUBLIC "-//W3C//DTD SVG 1.1//EN"
 "http://www.w3.org/Graphics/SVG/1.1/DTD/svg11.dtd">
<!-- Generated by graphviz version 2.50.0 (0)
 -->
<!-- Title: G Pages: 1 -->
<svg width="625pt" height="588pt"
 viewBox="0.00 0.00 625.25 588.31" xmlns="http://www.w3.org/2000/svg" xmlns:xlink="http://www.w3.org/1999/xlink">
<g id="graph0" class="graph" transform="scale(1 1) rotate(0) translate(4 584.31)">
<title>G</title>
<polygon fill="white" stroke="transparent" points="-4,4 -4,-584.31 621.25,-584.31 621.25,4 -4,4"/>
<!-- ANNE_TANNEGUYLE_FEVRE_DACIER -->
<g id="node1" class="node">
<title>ANNE_TANNEGUYLE_FEVRE_DACIER</title>
<polygon fill="none" stroke="black" points="383.62,-580.31 258.62,-580.31 258.62,-542.31 383.62,-542.31 383.62,-580.31"/>
<text text-anchor="start" x="266.62" y="-565.11" font-family="Times,serif" font-size="14.00"> Anne Tanneguy&#45;Le</text>
<text text-anchor="start" x="283.62" y="-550.11" font-family="Times,serif" font-size="14.00">Fevre Dacier </text>
</g>
<!-- EDMUND_CURLL -->
<g id="node2" class="node">
<title>EDMUND_CURLL</title>
<polygon fill="none" stroke="black" points="459.14,-434.75 392.14,-434.75 392.14,-396.75 459.14,-396.75 459.14,-434.75"/>
<text text-anchor="start" x="400.14" y="-419.55" font-family="Times,serif" font-size="14.00"> Edmund</text>
<text text-anchor="start" x="409.64" y="-404.55" font-family="Times,serif" font-size="14.00">Curll </text>
</g>
<!-- EDWARD_WARD -->
<g id="node3" class="node">
<title>EDWARD_WARD</title>
<polygon fill="none" stroke="black" points="575.73,-179.74 513.73,-179.74 513.73,-141.74 575.73,-141.74 575.73,-179.74"/>
<text text-anchor="start" x="521.73" y="-164.54" font-family="Times,serif" font-size="14.00"> Edward</text>
<text text-anchor="start" x="527.73" y="-149.54" font-family="Times,serif" font-size="14.00">Ward </text>
</g>
<!-- ELISHA_KIRKALL -->
<g id="node4" class="node">
<title>ELISHA_KIRKALL</title>
<polygon fill="none" stroke="black" points="617.25,-385.97 558.25,-385.97 558.25,-347.97 617.25,-347.97 617.25,-385.97"/>
<text text-anchor="start" x="568.75" y="-370.77" font-family="Times,serif" font-size="14.00"> Elisha</text>
<text text-anchor="start" x="566.25" y="-355.77" font-family="Times,serif" font-size="14.00">Kirkall </text>
</g>
<!-- ELIZA_HAYWOOD -->
<g id="node5" class="node">
<title>ELIZA_HAYWOOD</title>
<polygon fill="none" stroke="black" points="339.39,-290.52 266.39,-290.52 266.39,-252.52 339.39,-252.52 339.39,-290.52"/>
<text text-anchor="start" x="286.89" y="-275.32" font-family="Times,serif" font-size="14.00"> Eliza</text>
<text text-anchor="start" x="274.39" y="-260.32" font-family="Times,serif" font-size="14.00">Haywood </text>
</g>
<!-- ELIZA_HAYWOOD&#45;&gt;ANNE_TANNEGUYLE_FEVRE_DACIER -->
<g id="edge1" class="edge">
<title>ELIZA_HAYWOOD&#45;&gt;ANNE_TANNEGUYLE_FEVRE_DACIER</title>
<path fill="none" stroke="green" d="M304.09,-290.53C307.19,-339.96 315.55,-472.78 319.28,-532.05"/>
<polygon fill="green" stroke="green" points="315.8,-532.46 319.92,-542.22 322.78,-532.02 315.8,-532.46"/>
</g>
<!-- ELIZA_HAYWOOD&#45;&gt;EDMUND_CURLL -->
<g id="edge2" class="edge">
<title>ELIZA_HAYWOOD&#45;&gt;EDMUND_CURLL</title>
<path fill="none" stroke="green" d="M319.19,-290.67C340.56,-315.78 378.17,-359.97 402.49,-388.54"/>
<polygon fill="green" stroke="green" points="400.13,-391.17 409.27,-396.51 405.46,-386.63 400.13,-391.17"/>
</g>
<!-- ELIZA_HAYWOOD&#45;&gt;EDWARD_WARD -->
<g id="edge3" class="edge">
<title>ELIZA_HAYWOOD&#45;&gt;EDWARD_WARD</title>
<path fill="none" stroke="green" d="M339.62,-254.69C383.91,-234.41 458.1,-200.42 504.08,-179.36"/>
<polygon fill="green" stroke="green" points="505.8,-182.42 513.44,-175.07 502.89,-176.05 505.8,-182.42"/>
</g>
<!-- ELIZA_HAYWOOD&#45;&gt;ELISHA_KIRKALL -->
<g id="edge4" class="edge">
<title>ELIZA_HAYWOOD&#45;&gt;ELISHA_KIRKALL</title>
<path fill="none" stroke="green" d="M339.55,-283.8C393.3,-301.82 493.11,-335.26 548.37,-353.78"/>
<polygon fill="green" stroke="green" points="547.55,-357.2 558.15,-357.06 549.78,-350.56 547.55,-357.2"/>
</g>
<!-- JOHN_DENNIS -->
<g id="node6" class="node">
<title>JOHN_DENNIS</title>
<polygon fill="none" stroke="black" points="257.18,-52.2 198.18,-52.2 198.18,-14.2 257.18,-14.2 257.18,-52.2"/>
<text text-anchor="start" x="212.68" y="-37" font-family="Times,serif" font-size="14.00"> John</text>
<text text-anchor="start" x="206.18" y="-22" font-family="Times,serif" font-size="14.00">Dennis </text>
</g>
<!-- ELIZA_HAYWOOD&#45;&gt;JOHN_DENNIS -->
<g id="edge5" class="edge">
<title>ELIZA_HAYWOOD&#45;&gt;JOHN_DENNIS</title>
<path fill="none" stroke="green" d="M296.86,-252.42C283.72,-210.76 252.4,-111.51 236.81,-62.13"/>
<polygon fill="green" stroke="green" points="240.09,-60.87 233.74,-52.39 233.41,-62.98 240.09,-60.87"/>
</g>
<!-- JOHN_OLDMIXON -->
<g id="node7" class="node">
<title>JOHN_OLDMIXON</title>
<polygon fill="none" stroke="black" points="76,-335.2 0,-335.2 0,-297.2 76,-297.2 76,-335.2"/>
<text text-anchor="start" x="23" y="-320" font-family="Times,serif" font-size="14.00"> John</text>
<text text-anchor="start" x="8" y="-305" font-family="Times,serif" font-size="14.00">Oldmixon </text>
</g>
<!-- ELIZA_HAYWOOD&#45;&gt;JOHN_OLDMIXON -->
<g id="edge6" class="edge">
<title>ELIZA_HAYWOOD&#45;&gt;JOHN_OLDMIXON</title>
<path fill="none" stroke="green" d="M266.34,-277.69C219.5,-285.59 138.18,-299.3 86.29,-308.06"/>
<polygon fill="green" stroke="green" points="85.6,-304.63 76.32,-309.74 86.77,-311.53 85.6,-304.63"/>
</g>
<!-- LEONARD_WELSTED -->
<g id="node8" class="node">
<title>LEONARD_WELSTED</title>
<polygon fill="none" stroke="black" points="100.57,-146.72 35.57,-146.72 35.57,-108.72 100.57,-108.72 100.57,-146.72"/>
<text text-anchor="start" x="43.57" y="-131.52" font-family="Times,serif" font-size="14.00"> Leonard</text>
<text text-anchor="start" x="43.57" y="-116.52" font-family="Times,serif" font-size="14.00">Welsted </text>
</g>
<!-- ELIZA_HAYWOOD&#45;&gt;LEONARD_WELSTED -->
<g id="edge7" class="edge">
<title>ELIZA_HAYWOOD&#45;&gt;LEONARD_WELSTED</title>
<path fill="none" stroke="green" d="M271.71,-252.43C229.52,-226.59 154.21,-180.47 107.95,-152.14"/>
<polygon fill="green" stroke="green" points="109.74,-149.14 99.39,-146.9 106.09,-155.11 109.74,-149.14"/>
</g>
<!-- LEWIS_THEOBALD -->
<g id="node9" class="node">
<title>LEWIS_THEOBALD</title>
<polygon fill="none" stroke="black" points="170.22,-499.11 99.22,-499.11 99.22,-461.11 170.22,-461.11 170.22,-499.11"/>
<text text-anchor="start" x="116.22" y="-483.91" font-family="Times,serif" font-size="14.00"> Lewis</text>
<text text-anchor="start" x="107.22" y="-468.91" font-family="Times,serif" font-size="14.00">Theobald </text>
</g>
<!-- ELIZA_HAYWOOD&#45;&gt;LEWIS_THEOBALD -->
<g id="edge8" class="edge">
<title>ELIZA_HAYWOOD&#45;&gt;LEWIS_THEOBALD</title>
<path fill="none" stroke="green" d="M287.37,-290.77C257.33,-328.02 191.19,-410.07 156.66,-452.89"/>
<polygon fill="green" stroke="green" points="153.75,-450.92 150.2,-460.91 159.2,-455.32 153.75,-450.92"/>
</g>
<!-- RICHARD_SAVAGE -->
<g id="node10" class="node">
<title>RICHARD_SAVAGE</title>
<polygon fill="none" stroke="black" points="445.38,-38 382.38,-38 382.38,0 445.38,0 445.38,-38"/>
<text text-anchor="start" x="390.38" y="-22.8" font-family="Times,serif" font-size="14.00"> Richard</text>
<text text-anchor="start" x="392.38" y="-7.8" font-family="Times,serif" font-size="14.00">Savage </text>
</g>
<!-- ELIZA_HAYWOOD&#45;&gt;RICHARD_SAVAGE -->
<g id="edge9" class="edge">
<title>ELIZA_HAYWOOD&#45;&gt;RICHARD_SAVAGE</title>
<path fill="none" stroke="orange" d="M311.41,-252.12C330.87,-207.86 378.62,-99.22 401.4,-47.4"/>
<polygon fill="orange" stroke="orange" points="404.66,-48.68 405.48,-38.12 398.25,-45.86 404.66,-48.68"/>
</g>
</g>
</svg>
