<?xml version="1.0" encoding="UTF-8" standalone="no"?>
<!DOCTYPE svg PUBLIC "-//W3C//DTD SVG 1.1//EN"
 "http://www.w3.org/Graphics/SVG/1.1/DTD/svg11.dtd">
<!-- Generated by graphviz version 2.50.0 (0)
 -->
<!-- Title: G Pages: 1 -->
<svg width="621pt" height="372pt"
 viewBox="0.00 0.00 620.64 371.58" xmlns="http://www.w3.org/2000/svg" xmlns:xlink="http://www.w3.org/1999/xlink">
<g id="graph0" class="graph" transform="scale(1 1) rotate(0) translate(4 367.58)">
<title>G</title>
<polygon fill="white" stroke="transparent" points="-4,4 -4,-367.58 616.64,-367.58 616.64,4 -4,4"/>
<!-- ANNE_TANNEGUYLE_FEVRE_DACIER -->
<g id="node1" class="node">
<title>ANNE_TANNEGUYLE_FEVRE_DACIER</title>
<polygon fill="none" stroke="black" points="125,-201.52 0,-201.52 0,-163.52 125,-163.52 125,-201.52"/>
<text text-anchor="start" x="8" y="-186.32" font-family="Times,serif" font-size="14.00"> Anne Tanneguy&#45;Le</text>
<text text-anchor="start" x="25" y="-171.32" font-family="Times,serif" font-size="14.00">Fevre Dacier </text>
</g>
<!-- EDMUND_CURLL -->
<g id="node2" class="node">
<title>EDMUND_CURLL</title>
<polygon fill="none" stroke="black" points="281.75,-134.76 214.75,-134.76 214.75,-96.76 281.75,-96.76 281.75,-134.76"/>
<text text-anchor="start" x="222.75" y="-119.56" font-family="Times,serif" font-size="14.00"> Edmund</text>
<text text-anchor="start" x="232.25" y="-104.56" font-family="Times,serif" font-size="14.00">Curll </text>
</g>
<!-- EDWARD_WARD -->
<g id="node3" class="node">
<title>EDWARD_WARD</title>
<polygon fill="none" stroke="black" points="373.07,-40.41 311.07,-40.41 311.07,-2.41 373.07,-2.41 373.07,-40.41"/>
<text text-anchor="start" x="319.07" y="-25.21" font-family="Times,serif" font-size="14.00"> Edward</text>
<text text-anchor="start" x="325.07" y="-10.21" font-family="Times,serif" font-size="14.00">Ward </text>
</g>
<!-- ELISHA_KIRKALL -->
<g id="node4" class="node">
<title>ELISHA_KIRKALL</title>
<polygon fill="none" stroke="black" points="500.9,-38 441.9,-38 441.9,0 500.9,0 500.9,-38"/>
<text text-anchor="start" x="452.4" y="-22.8" font-family="Times,serif" font-size="14.00"> Elisha</text>
<text text-anchor="start" x="449.9" y="-7.8" font-family="Times,serif" font-size="14.00">Kirkall </text>
</g>
<!-- ELIZA_HAYWOOD -->
<g id="node5" class="node">
<title>ELIZA_HAYWOOD</title>
<polygon fill="none" stroke="black" points="446.25,-201.52 373.25,-201.52 373.25,-163.52 446.25,-163.52 446.25,-201.52"/>
<text text-anchor="start" x="393.75" y="-186.32" font-family="Times,serif" font-size="14.00"> Eliza</text>
<text text-anchor="start" x="381.25" y="-171.32" font-family="Times,serif" font-size="14.00">Haywood </text>
</g>
<!-- ELIZA_HAYWOOD&#45;&gt;ANNE_TANNEGUYLE_FEVRE_DACIER -->
<g id="edge1" class="edge">
<title>ELIZA_HAYWOOD&#45;&gt;ANNE_TANNEGUYLE_FEVRE_DACIER</title>
<path fill="none" stroke="green" d="M373.25,-182.52C316.95,-182.52 207.85,-182.52 135.08,-182.52"/>
<polygon fill="green" stroke="green" points="135.06,-179.02 125.06,-182.52 135.06,-186.02 135.06,-179.02"/>
</g>
<!-- ELIZA_HAYWOOD&#45;&gt;EDMUND_CURLL -->
<g id="edge2" class="edge">
<title>ELIZA_HAYWOOD&#45;&gt;EDMUND_CURLL</title>
<path fill="none" stroke="green" d="M373.11,-167.37C348.84,-157.34 316.92,-144.14 291.43,-133.61"/>
<polygon fill="green" stroke="green" points="292.58,-130.3 282,-129.71 289.91,-136.76 292.58,-130.3"/>
</g>
<!-- ELIZA_HAYWOOD&#45;&gt;EDWARD_WARD -->
<g id="edge3" class="edge">
<title>ELIZA_HAYWOOD&#45;&gt;EDWARD_WARD</title>
<path fill="none" stroke="green" d="M401.72,-163.4C389.92,-135.3 367.8,-82.64 354.06,-49.95"/>
<polygon fill="green" stroke="green" points="357.19,-48.36 350.09,-40.5 350.74,-51.07 357.19,-48.36"/>
</g>
<!-- ELIZA_HAYWOOD&#45;&gt;ELISHA_KIRKALL -->
<g id="edge4" class="edge">
<title>ELIZA_HAYWOOD&#45;&gt;ELISHA_KIRKALL</title>
<path fill="none" stroke="green" d="M416.94,-163.44C427.68,-134.96 447.97,-81.13 460.53,-47.83"/>
<polygon fill="green" stroke="green" points="463.9,-48.8 464.15,-38.21 457.35,-46.33 463.9,-48.8"/>
</g>
<!-- JOHN_DENNIS -->
<g id="node6" class="node">
<title>JOHN_DENNIS</title>
<polygon fill="none" stroke="black" points="595.79,-123.84 536.79,-123.84 536.79,-85.84 595.79,-85.84 595.79,-123.84"/>
<text text-anchor="start" x="551.29" y="-108.64" font-family="Times,serif" font-size="14.00"> John</text>
<text text-anchor="start" x="544.79" y="-93.64" font-family="Times,serif" font-size="14.00">Dennis </text>
</g>
<!-- ELIZA_HAYWOOD&#45;&gt;JOHN_DENNIS -->
<g id="edge5" class="edge">
<title>ELIZA_HAYWOOD&#45;&gt;JOHN_DENNIS</title>
<path fill="none" stroke="green" d="M446.45,-164.31C470.81,-152.22 502.74,-136.37 527.51,-124.08"/>
<polygon fill="green" stroke="green" points="529.22,-127.14 536.63,-119.56 526.11,-120.87 529.22,-127.14"/>
</g>
<!-- JOHN_OLDMIXON -->
<g id="node7" class="node">
<title>JOHN_OLDMIXON</title>
<polygon fill="none" stroke="black" points="612.64,-259.4 536.64,-259.4 536.64,-221.4 612.64,-221.4 612.64,-259.4"/>
<text text-anchor="start" x="559.64" y="-244.2" font-family="Times,serif" font-size="14.00"> John</text>
<text text-anchor="start" x="544.64" y="-229.2" font-family="Times,serif" font-size="14.00">Oldmixon </text>
</g>
<!-- ELIZA_HAYWOOD&#45;&gt;JOHN_OLDMIXON -->
<g id="edge6" class="edge">
<title>ELIZA_HAYWOOD&#45;&gt;JOHN_OLDMIXON</title>
<path fill="none" stroke="green" d="M446.35,-195.37C470.07,-203.69 501.22,-214.63 526.89,-223.64"/>
<polygon fill="green" stroke="green" points="525.83,-226.98 536.43,-226.99 528.15,-220.37 525.83,-226.98"/>
</g>
<!-- LEONARD_WELSTED -->
<g id="node8" class="node">
<title>LEONARD_WELSTED</title>
<polygon fill="none" stroke="black" points="513.15,-361.24 448.15,-361.24 448.15,-323.24 513.15,-323.24 513.15,-361.24"/>
<text text-anchor="start" x="456.15" y="-346.04" font-family="Times,serif" font-size="14.00"> Leonard</text>
<text text-anchor="start" x="456.15" y="-331.04" font-family="Times,serif" font-size="14.00">Welsted </text>
</g>
<!-- ELIZA_HAYWOOD&#45;&gt;LEONARD_WELSTED -->
<g id="edge7" class="edge">
<title>ELIZA_HAYWOOD&#45;&gt;LEONARD_WELSTED</title>
<path fill="none" stroke="green" d="M418.3,-201.79C430.65,-229.61 453.57,-281.23 467.91,-313.55"/>
<polygon fill="green" stroke="green" points="464.81,-315.19 472.07,-322.91 471.21,-312.35 464.81,-315.19"/>
</g>
<!-- LEWIS_THEOBALD -->
<g id="node9" class="node">
<title>LEWIS_THEOBALD</title>
<polygon fill="none" stroke="black" points="379.88,-363.58 308.88,-363.58 308.88,-325.58 379.88,-325.58 379.88,-363.58"/>
<text text-anchor="start" x="325.88" y="-348.38" font-family="Times,serif" font-size="14.00"> Lewis</text>
<text text-anchor="start" x="316.88" y="-333.38" font-family="Times,serif" font-size="14.00">Theobald </text>
</g>
<!-- ELIZA_HAYWOOD&#45;&gt;LEWIS_THEOBALD -->
<g id="edge8" class="edge">
<title>ELIZA_HAYWOOD&#45;&gt;LEWIS_THEOBALD</title>
<path fill="none" stroke="green" d="M402,-201.75C390.59,-230.01 369.23,-282.98 355.96,-315.87"/>
<polygon fill="green" stroke="green" points="352.62,-314.8 352.13,-325.38 359.11,-317.42 352.62,-314.8"/>
</g>
<!-- RICHARD_SAVAGE -->
<g id="node10" class="node">
<title>RICHARD_SAVAGE</title>
<polygon fill="none" stroke="black" points="279.75,-268.28 216.75,-268.28 216.75,-230.28 279.75,-230.28 279.75,-268.28"/>
<text text-anchor="start" x="224.75" y="-253.08" font-family="Times,serif" font-size="14.00"> Richard</text>
<text text-anchor="start" x="226.75" y="-238.08" font-family="Times,serif" font-size="14.00">Savage </text>
</g>
<!-- ELIZA_HAYWOOD&#45;&gt;RICHARD_SAVAGE -->
<g id="edge9" class="edge">
<title>ELIZA_HAYWOOD&#45;&gt;RICHARD_SAVAGE</title>
<path fill="none" stroke="orange" d="M373.11,-197.67C348.18,-207.97 315.18,-221.61 289.36,-232.28"/>
<polygon fill="orange" stroke="orange" points="287.76,-229.16 279.85,-236.22 290.43,-235.63 287.76,-229.16"/>
</g>
</g>
</svg>
