<?xml version="1.0" encoding="UTF-8" standalone="no"?>
<!DOCTYPE svg PUBLIC "-//W3C//DTD SVG 1.1//EN"
 "http://www.w3.org/Graphics/SVG/1.1/DTD/svg11.dtd">
<!-- Generated by graphviz version 2.50.0 (0)
 -->
<!-- Title: G Pages: 1 -->
<svg width="311pt" height="266pt"
 viewBox="0.00 0.00 311.00 266.00" xmlns="http://www.w3.org/2000/svg" xmlns:xlink="http://www.w3.org/1999/xlink">
<g id="graph0" class="graph" transform="scale(1 1) rotate(0) translate(4 262)">
<title>G</title>
<polygon fill="white" stroke="transparent" points="-4,4 -4,-262 307,-262 307,4 -4,4"/>
<!-- ALEXANDER_POPE -->
<g id="node1" class="node">
<title>ALEXANDER_POPE</title>
<polygon fill="none" stroke="black" points="155.63,-195.84 79.63,-195.84 79.63,-157.84 155.63,-157.84 155.63,-195.84"/>
<text text-anchor="start" x="87.63" y="-180.64" font-family="Times,serif" font-size="14.00"> Alexander</text>
<text text-anchor="start" x="102.13" y="-165.64" font-family="Times,serif" font-size="14.00">Pope </text>
</g>
<!-- AMBROSE_PHILLIPS -->
<g id="node2" class="node">
<title>AMBROSE_PHILLIPS</title>
<polygon fill="none" stroke="black" points="241.38,-245.66 171.38,-245.66 171.38,-207.66 241.38,-207.66 241.38,-245.66"/>
<text text-anchor="start" x="179.38" y="-230.46" font-family="Times,serif" font-size="14.00"> Ambrose</text>
<text text-anchor="start" x="183.38" y="-215.46" font-family="Times,serif" font-size="14.00">Phillips </text>
</g>
<!-- EDWARD_WARD -->
<g id="node3" class="node">
<title>EDWARD_WARD</title>
<polygon fill="none" stroke="black" points="99.24,-69.9 37.24,-69.9 37.24,-31.9 99.24,-31.9 99.24,-69.9"/>
<text text-anchor="start" x="45.24" y="-54.7" font-family="Times,serif" font-size="14.00"> Edward</text>
<text text-anchor="start" x="51.24" y="-39.7" font-family="Times,serif" font-size="14.00">Ward </text>
</g>
<!-- EUSTACE_BUDGELL -->
<g id="node4" class="node">
<title>EUSTACE_BUDGELL</title>
<polygon fill="none" stroke="black" points="148.67,-257.57 85.67,-257.57 85.67,-219.57 148.67,-219.57 148.67,-257.57"/>
<text text-anchor="start" x="94.17" y="-242.37" font-family="Times,serif" font-size="14.00"> Eustace</text>
<text text-anchor="start" x="93.67" y="-227.37" font-family="Times,serif" font-size="14.00">Budgell </text>
</g>
<!-- GILES_JACOB -->
<g id="node5" class="node">
<title>GILES_JACOB</title>
<polygon fill="none" stroke="black" points="161.7,-149.79 107.7,-149.79 107.7,-111.79 161.7,-111.79 161.7,-149.79"/>
<text text-anchor="start" x="118.2" y="-134.59" font-family="Times,serif" font-size="14.00"> Giles</text>
<text text-anchor="start" x="117.2" y="-119.59" font-family="Times,serif" font-size="14.00">Jacob </text>
</g>
<!-- GILES_JACOB&#45;&gt;ALEXANDER_POPE -->
<g id="edge1" class="edge">
<title>GILES_JACOB&#45;&gt;ALEXANDER_POPE</title>
<path fill="none" stroke="red" d="M127.56,-150.05C127.5,-150.21 127.44,-150.37 127.38,-150.53"/>
<polygon fill="red" stroke="red" points="124.88,-147.21 124.69,-157.8 131.44,-149.64 124.88,-147.21"/>
</g>
<!-- GILES_JACOB&#45;&gt;AMBROSE_PHILLIPS -->
<g id="edge2" class="edge">
<title>GILES_JACOB&#45;&gt;AMBROSE_PHILLIPS</title>
<path fill="none" stroke="blue" d="M149.2,-150.19C159.77,-164.32 174.22,-183.64 185.95,-199.33"/>
<polygon fill="blue" stroke="blue" points="183.35,-201.7 192.14,-207.62 188.96,-197.51 183.35,-201.7"/>
</g>
<!-- GILES_JACOB&#45;&gt;EDWARD_WARD -->
<g id="edge3" class="edge">
<title>GILES_JACOB&#45;&gt;EDWARD_WARD</title>
<path fill="none" stroke="blue" d="M118.61,-111.45C110.2,-101.34 99.78,-88.81 90.6,-77.77"/>
<polygon fill="blue" stroke="blue" points="93.27,-75.51 84.18,-70.06 87.89,-79.98 93.27,-75.51"/>
</g>
<!-- GILES_JACOB&#45;&gt;EUSTACE_BUDGELL -->
<g id="edge4" class="edge">
<title>GILES_JACOB&#45;&gt;EUSTACE_BUDGELL</title>
<path fill="none" stroke="blue" d="M131.56,-150.06C128.89,-166.53 124.99,-190.5 121.93,-209.34"/>
<polygon fill="blue" stroke="blue" points="118.43,-209.04 120.28,-219.47 125.34,-210.16 118.43,-209.04"/>
</g>
<!-- JOHN_DENNIS -->
<g id="node6" class="node">
<title>JOHN_DENNIS</title>
<polygon fill="none" stroke="black" points="235.7,-197.93 176.7,-197.93 176.7,-159.93 235.7,-159.93 235.7,-197.93"/>
<text text-anchor="start" x="191.2" y="-182.73" font-family="Times,serif" font-size="14.00"> John</text>
<text text-anchor="start" x="184.7" y="-167.73" font-family="Times,serif" font-size="14.00">Dennis </text>
</g>
<!-- GILES_JACOB&#45;&gt;JOHN_DENNIS -->
<g id="edge5" class="edge">
<title>GILES_JACOB&#45;&gt;JOHN_DENNIS</title>
<path fill="none" stroke="green" d="M151.92,-149.84C156.79,-153.6 162.27,-157.52 167.84,-161.23"/>
<polygon fill="green" stroke="green" points="166.27,-164.39 176.58,-166.84 170.05,-158.5 166.27,-164.39"/>
</g>
<!-- GILES_JACOB&#45;&gt;JOHN_DENNIS -->
<g id="edge6" class="edge">
<title>GILES_JACOB&#45;&gt;JOHN_DENNIS</title>
<path fill="none" stroke="blue" d="M162.08,-141.5C168.06,-145.11 174.37,-149.25 180.29,-153.45"/>
<polygon fill="blue" stroke="blue" points="178.48,-156.47 188.61,-159.59 182.64,-150.84 178.48,-156.47"/>
</g>
<!-- JOHN_GAY -->
<g id="node7" class="node">
<title>JOHN_GAY</title>
<polygon fill="none" stroke="black" points="65.68,-130.23 11.68,-130.23 11.68,-92.23 65.68,-92.23 65.68,-130.23"/>
<text text-anchor="start" x="23.68" y="-115.03" font-family="Times,serif" font-size="14.00"> John</text>
<text text-anchor="start" x="25.18" y="-100.03" font-family="Times,serif" font-size="14.00">Gay </text>
</g>
<!-- GILES_JACOB&#45;&gt;JOHN_GAY -->
<g id="edge7" class="edge">
<title>GILES_JACOB&#45;&gt;JOHN_GAY</title>
<path fill="none" stroke="red" d="M107.7,-125.29C97.78,-123.27 86.37,-120.94 75.72,-118.77"/>
<polygon fill="red" stroke="red" points="76.31,-115.32 65.81,-116.76 74.91,-122.18 76.31,-115.32"/>
</g>
<!-- JOHN_OLDMIXON -->
<g id="node8" class="node">
<title>JOHN_OLDMIXON</title>
<polygon fill="none" stroke="black" points="303.18,-145.96 227.18,-145.96 227.18,-107.96 303.18,-107.96 303.18,-145.96"/>
<text text-anchor="start" x="250.18" y="-130.76" font-family="Times,serif" font-size="14.00"> John</text>
<text text-anchor="start" x="235.18" y="-115.76" font-family="Times,serif" font-size="14.00">Oldmixon </text>
</g>
<!-- GILES_JACOB&#45;&gt;JOHN_OLDMIXON -->
<g id="edge8" class="edge">
<title>GILES_JACOB&#45;&gt;JOHN_OLDMIXON</title>
<path fill="none" stroke="blue" d="M161.73,-129.99C177.6,-129.53 198.13,-128.93 216.71,-128.38"/>
<polygon fill="blue" stroke="blue" points="216.9,-131.88 226.79,-128.09 216.7,-124.88 216.9,-131.88"/>
</g>
<!-- JOHN_OZELL -->
<g id="node9" class="node">
<title>JOHN_OZELL</title>
<polygon fill="none" stroke="black" points="175.63,-103.35 121.63,-103.35 121.63,-65.35 175.63,-65.35 175.63,-103.35"/>
<text text-anchor="start" x="133.63" y="-88.15" font-family="Times,serif" font-size="14.00"> John</text>
<text text-anchor="start" x="131.63" y="-73.15" font-family="Times,serif" font-size="14.00">Ozell </text>
</g>
<!-- GILES_JACOB&#45;&gt;JOHN_OZELL -->
<g id="edge9" class="edge">
<title>GILES_JACOB&#45;&gt;JOHN_OZELL</title>
<path fill="none" stroke="blue" d="M140.44,-111.63C140.47,-111.55 140.49,-111.46 140.52,-111.38"/>
<polygon fill="blue" stroke="blue" points="143.37,-114.04 142.9,-103.46 136.67,-112.03 143.37,-114.04"/>
</g>
<!-- LAURENCE_EUSDEN -->
<g id="node10" class="node">
<title>LAURENCE_EUSDEN</title>
<polygon fill="none" stroke="black" points="188.92,-38.12 117.92,-38.12 117.92,-0.12 188.92,-0.12 188.92,-38.12"/>
<text text-anchor="start" x="125.92" y="-22.92" font-family="Times,serif" font-size="14.00"> Laurence</text>
<text text-anchor="start" x="131.42" y="-7.92" font-family="Times,serif" font-size="14.00">Eusden </text>
</g>
<!-- GILES_JACOB&#45;&gt;LAURENCE_EUSDEN -->
<g id="edge10" class="edge">
<title>GILES_JACOB&#45;&gt;LAURENCE_EUSDEN</title>
<path fill="none" stroke="blue" d="M137.92,-111.59C140.82,-94.25 145.14,-68.48 148.49,-48.54"/>
<polygon fill="blue" stroke="blue" points="151.98,-48.88 150.18,-38.44 145.08,-47.72 151.98,-48.88"/>
</g>
<!-- LEWIS_THEOBALD -->
<g id="node11" class="node">
<title>LEWIS_THEOBALD</title>
<polygon fill="none" stroke="black" points="269.2,-90.72 198.2,-90.72 198.2,-52.72 269.2,-52.72 269.2,-90.72"/>
<text text-anchor="start" x="215.2" y="-75.52" font-family="Times,serif" font-size="14.00"> Lewis</text>
<text text-anchor="start" x="206.2" y="-60.52" font-family="Times,serif" font-size="14.00">Theobald </text>
</g>
<!-- GILES_JACOB&#45;&gt;LEWIS_THEOBALD -->
<g id="edge11" class="edge">
<title>GILES_JACOB&#45;&gt;LEWIS_THEOBALD</title>
<path fill="none" stroke="blue" d="M161.75,-114.65C171.41,-108.88 182.52,-102.26 193.07,-95.96"/>
<polygon fill="blue" stroke="blue" points="194.97,-98.91 201.76,-90.78 191.38,-92.9 194.97,-98.91"/>
</g>
<!-- SUSANNA_CENTLIVRE -->
<g id="node12" class="node">
<title>SUSANNA_CENTLIVRE</title>
<polygon fill="none" stroke="black" points="70.62,-193.32 -0.38,-193.32 -0.38,-155.32 70.62,-155.32 70.62,-193.32"/>
<text text-anchor="start" x="10.62" y="-178.12" font-family="Times,serif" font-size="14.00"> Susanna</text>
<text text-anchor="start" x="7.62" y="-163.12" font-family="Times,serif" font-size="14.00">Centlivre </text>
</g>
<!-- GILES_JACOB&#45;&gt;SUSANNA_CENTLIVRE -->
<g id="edge12" class="edge">
<title>GILES_JACOB&#45;&gt;SUSANNA_CENTLIVRE</title>
<path fill="none" stroke="blue" d="M107.49,-142.68C99.02,-146.38 89.45,-150.57 80.11,-154.65"/>
<polygon fill="blue" stroke="blue" points="78.65,-151.47 70.89,-158.68 81.46,-157.88 78.65,-151.47"/>
</g>
</g>
</svg>
