<?xml version="1.0" encoding="UTF-8" standalone="no"?>
<!DOCTYPE svg PUBLIC "-//W3C//DTD SVG 1.1//EN"
 "http://www.w3.org/Graphics/SVG/1.1/DTD/svg11.dtd">
<!-- Generated by graphviz version 2.50.0 (0)
 -->
<!-- Title: G Pages: 1 -->
<svg width="719pt" height="537pt"
 viewBox="0.00 0.00 719.38 536.69" xmlns="http://www.w3.org/2000/svg" xmlns:xlink="http://www.w3.org/1999/xlink">
<g id="graph0" class="graph" transform="scale(1 1) rotate(0) translate(4 532.69)">
<title>G</title>
<polygon fill="white" stroke="transparent" points="-4,4 -4,-532.69 715.38,-532.69 715.38,4 -4,4"/>
<!-- ALEXANDER_POPE -->
<g id="node1" class="node">
<title>ALEXANDER_POPE</title>
<polygon fill="none" stroke="black" points="80,-282.8 0,-282.8 0,-244.8 80,-244.8 80,-282.8"/>
<text text-anchor="start" x="8" y="-267.6" font-family="arial" font-size="14.00"> Alexander</text>
<text text-anchor="start" x="22" y="-252.6" font-family="arial" font-size="14.00">Pope </text>
</g>
<!-- AMBROSE_PHILLIPS -->
<g id="node2" class="node">
<title>AMBROSE_PHILLIPS</title>
<polygon fill="none" stroke="black" points="239.23,-210.86 165.23,-210.86 165.23,-172.86 239.23,-172.86 239.23,-210.86"/>
<text text-anchor="start" x="173.23" y="-195.66" font-family="arial" font-size="14.00"> Ambrose</text>
<text text-anchor="start" x="178.73" y="-180.66" font-family="arial" font-size="14.00">Phillips </text>
</g>
<!-- EDMUND_CURLL -->
<g id="node3" class="node">
<title>EDMUND_CURLL</title>
<polygon fill="none" stroke="black" points="316.88,-92.44 245.88,-92.44 245.88,-54.44 316.88,-54.44 316.88,-92.44"/>
<text text-anchor="start" x="253.88" y="-77.24" font-family="arial" font-size="14.00"> Edmund</text>
<text text-anchor="start" x="265.38" y="-62.24" font-family="arial" font-size="14.00">Curll </text>
</g>
<!-- EDWARD_WARD -->
<g id="node4" class="node">
<title>EDWARD_WARD</title>
<polygon fill="none" stroke="black" points="441.85,-38 375.85,-38 375.85,0 441.85,0 441.85,-38"/>
<text text-anchor="start" x="383.85" y="-22.8" font-family="arial" font-size="14.00"> Edward</text>
<text text-anchor="start" x="390.35" y="-7.8" font-family="arial" font-size="14.00">Ward </text>
</g>
<!-- EUSTACE_BUDGELL -->
<g id="node5" class="node">
<title>EUSTACE_BUDGELL</title>
<polygon fill="none" stroke="black" points="579.14,-60.51 510.14,-60.51 510.14,-22.51 579.14,-22.51 579.14,-60.51"/>
<text text-anchor="start" x="518.14" y="-45.31" font-family="arial" font-size="14.00"> Eustace</text>
<text text-anchor="start" x="520.14" y="-30.31" font-family="arial" font-size="14.00">Budgell </text>
</g>
<!-- GILES_JACOB -->
<g id="node6" class="node">
<title>GILES_JACOB</title>
<polygon fill="none" stroke="black" points="466.03,-282.8 410.03,-282.8 410.03,-244.8 466.03,-244.8 466.03,-282.8"/>
<text text-anchor="start" x="420.03" y="-267.6" font-family="arial" font-size="14.00"> Giles</text>
<text text-anchor="start" x="418.03" y="-252.6" font-family="arial" font-size="14.00">Jacob </text>
</g>
<!-- GILES_JACOB&#45;&gt;ALEXANDER_POPE -->
<g id="edge1" class="edge">
<title>GILES_JACOB&#45;&gt;ALEXANDER_POPE</title>
<path fill="none" stroke="red" d="M409.72,-260.11C342.98,-256.39 175.01,-256.06 90.38,-259.13"/>
<polygon fill="red" stroke="red" points="90.1,-255.63 80.24,-259.53 90.37,-262.63 90.1,-255.63"/>
</g>
<!-- GILES_JACOB&#45;&gt;ALEXANDER_POPE -->
<g id="edge2" class="edge">
<title>GILES_JACOB&#45;&gt;ALEXANDER_POPE</title>
<path fill="none" stroke="blue" d="M409.72,-267.48C342.98,-271.21 175.01,-271.54 90.38,-268.47"/>
<polygon fill="blue" stroke="blue" points="90.37,-264.97 80.24,-268.07 90.1,-271.96 90.37,-264.97"/>
</g>
<!-- GILES_JACOB&#45;&gt;AMBROSE_PHILLIPS -->
<g id="edge3" class="edge">
<title>GILES_JACOB&#45;&gt;AMBROSE_PHILLIPS</title>
<path fill="none" stroke="blue" d="M409.59,-255.12C369.79,-242.98 297.01,-220.77 249.12,-206.17"/>
<polygon fill="blue" stroke="blue" points="249.89,-202.74 239.3,-203.17 247.85,-209.44 249.89,-202.74"/>
</g>
<!-- GILES_JACOB&#45;&gt;EDMUND_CURLL -->
<g id="edge4" class="edge">
<title>GILES_JACOB&#45;&gt;EDMUND_CURLL</title>
<path fill="none" stroke="blue" d="M422.15,-244.5C394.05,-210.35 335.51,-139.21 303.48,-100.29"/>
<polygon fill="blue" stroke="blue" points="306.13,-98 297.07,-92.5 300.72,-102.45 306.13,-98"/>
</g>
<!-- GILES_JACOB&#45;&gt;EDWARD_WARD -->
<g id="edge5" class="edge">
<title>GILES_JACOB&#45;&gt;EDWARD_WARD</title>
<path fill="none" stroke="blue" d="M435.74,-244.59C430.65,-201.87 418.36,-98.76 412.32,-48.1"/>
<polygon fill="blue" stroke="blue" points="415.79,-47.64 411.13,-38.12 408.84,-48.46 415.79,-47.64"/>
</g>
<!-- GILES_JACOB&#45;&gt;EUSTACE_BUDGELL -->
<g id="edge6" class="edge">
<title>GILES_JACOB&#45;&gt;EUSTACE_BUDGELL</title>
<path fill="none" stroke="blue" d="M447.31,-244.46C466.18,-205.11 509.11,-115.59 531.11,-69.73"/>
<polygon fill="blue" stroke="blue" points="534.3,-71.18 535.47,-60.65 527.99,-68.15 534.3,-71.18"/>
</g>
<!-- JOHN_DENNIS -->
<g id="node7" class="node">
<title>JOHN_DENNIS</title>
<polygon fill="none" stroke="black" points="677.14,-150.62 615.14,-150.62 615.14,-112.62 677.14,-112.62 677.14,-150.62"/>
<text text-anchor="start" x="629.14" y="-135.42" font-family="arial" font-size="14.00"> John</text>
<text text-anchor="start" x="623.14" y="-120.42" font-family="arial" font-size="14.00">Dennis </text>
</g>
<!-- GILES_JACOB&#45;&gt;JOHN_DENNIS -->
<g id="edge7" class="edge">
<title>GILES_JACOB&#45;&gt;JOHN_DENNIS</title>
<path fill="none" stroke="green" d="M466.46,-251.25C505.75,-229.44 576.2,-184.86 616.25,-156.61"/>
<polygon fill="green" stroke="green" points="618.45,-159.34 624.55,-150.67 614.38,-153.64 618.45,-159.34"/>
</g>
<!-- GILES_JACOB&#45;&gt;JOHN_DENNIS -->
<g id="edge8" class="edge">
<title>GILES_JACOB&#45;&gt;JOHN_DENNIS</title>
<path fill="none" stroke="blue" d="M459.88,-244.56C494.58,-219.35 562.66,-175.8 606.22,-150.69"/>
<polygon fill="blue" stroke="blue" points="608.16,-153.61 615.12,-145.62 604.7,-147.53 608.16,-153.61"/>
</g>
<!-- JOHN_GAY -->
<g id="node8" class="node">
<title>JOHN_GAY</title>
<polygon fill="none" stroke="black" points="711.38,-273.3 657.38,-273.3 657.38,-235.3 711.38,-235.3 711.38,-273.3"/>
<text text-anchor="start" x="667.38" y="-258.1" font-family="arial" font-size="14.00"> John</text>
<text text-anchor="start" x="669.38" y="-243.1" font-family="arial" font-size="14.00">Gay </text>
</g>
<!-- GILES_JACOB&#45;&gt;JOHN_GAY -->
<g id="edge9" class="edge">
<title>GILES_JACOB&#45;&gt;JOHN_GAY</title>
<path fill="none" stroke="red" d="M466.29,-262.71C510.8,-260.99 597.25,-257.66 646.9,-255.75"/>
<polygon fill="red" stroke="red" points="647.34,-259.23 657.2,-255.35 647.07,-252.24 647.34,-259.23"/>
</g>
<!-- JOHN_OLDMIXON -->
<g id="node9" class="node">
<title>JOHN_OLDMIXON</title>
<polygon fill="none" stroke="black" points="691.07,-405.99 612.07,-405.99 612.07,-367.99 691.07,-367.99 691.07,-405.99"/>
<text text-anchor="start" x="634.57" y="-390.79" font-family="arial" font-size="14.00"> John</text>
<text text-anchor="start" x="620.07" y="-375.79" font-family="arial" font-size="14.00">Oldmixon </text>
</g>
<!-- GILES_JACOB&#45;&gt;JOHN_OLDMIXON -->
<g id="edge10" class="edge">
<title>GILES_JACOB&#45;&gt;JOHN_OLDMIXON</title>
<path fill="none" stroke="blue" d="M466.39,-280.16C503.14,-301.36 567.52,-338.5 609.86,-362.92"/>
<polygon fill="blue" stroke="blue" points="608.13,-365.97 618.54,-367.93 611.63,-359.9 608.13,-365.97"/>
</g>
<!-- JOHN_OZELL -->
<g id="node10" class="node">
<title>JOHN_OZELL</title>
<polygon fill="none" stroke="black" points="580.13,-500.81 526.13,-500.81 526.13,-462.81 580.13,-462.81 580.13,-500.81"/>
<text text-anchor="start" x="536.13" y="-485.61" font-family="arial" font-size="14.00"> John</text>
<text text-anchor="start" x="535.13" y="-470.61" font-family="arial" font-size="14.00">Ozell </text>
</g>
<!-- GILES_JACOB&#45;&gt;JOHN_OZELL -->
<g id="edge11" class="edge">
<title>GILES_JACOB&#45;&gt;JOHN_OZELL</title>
<path fill="none" stroke="blue" d="M448.25,-283.15C468.64,-321.77 514.47,-408.58 538.22,-453.57"/>
<polygon fill="blue" stroke="blue" points="535.17,-455.3 542.94,-462.51 541.36,-452.03 535.17,-455.3"/>
</g>
<!-- LAURENCE_EUSDEN -->
<g id="node11" class="node">
<title>LAURENCE_EUSDEN</title>
<polygon fill="none" stroke="black" points="458.8,-528.69 381.8,-528.69 381.8,-490.69 458.8,-490.69 458.8,-528.69"/>
<text text-anchor="start" x="389.8" y="-513.49" font-family="arial" font-size="14.00"> Laurence</text>
<text text-anchor="start" x="395.3" y="-498.49" font-family="arial" font-size="14.00">Eusden </text>
</g>
<!-- GILES_JACOB&#45;&gt;LAURENCE_EUSDEN -->
<g id="edge12" class="edge">
<title>GILES_JACOB&#45;&gt;LAURENCE_EUSDEN</title>
<path fill="none" stroke="blue" d="M436.64,-283.09C433.54,-326.01 426.07,-429.57 422.4,-480.46"/>
<polygon fill="blue" stroke="blue" points="418.91,-480.26 421.68,-490.49 425.89,-480.76 418.91,-480.26"/>
</g>
<!-- LEWIS_THEOBALD -->
<g id="node12" class="node">
<title>LEWIS_THEOBALD</title>
<polygon fill="none" stroke="black" points="322.21,-475.05 245.21,-475.05 245.21,-437.05 322.21,-437.05 322.21,-475.05"/>
<text text-anchor="start" x="264.21" y="-459.85" font-family="arial" font-size="14.00"> Lewis</text>
<text text-anchor="start" x="253.21" y="-444.85" font-family="arial" font-size="14.00">Theobald </text>
</g>
<!-- GILES_JACOB&#45;&gt;LEWIS_THEOBALD -->
<g id="edge13" class="edge">
<title>GILES_JACOB&#45;&gt;LEWIS_THEOBALD</title>
<path fill="none" stroke="blue" d="M422.67,-282.93C395.05,-317.34 336.96,-389.71 305.33,-429.11"/>
<polygon fill="blue" stroke="blue" points="302.54,-427 299.01,-436.99 308,-431.39 302.54,-427"/>
</g>
<!-- SUSANNA_CENTLIVRE -->
<g id="node13" class="node">
<title>SUSANNA_CENTLIVRE</title>
<polygon fill="none" stroke="black" points="239.23,-354.74 165.23,-354.74 165.23,-316.74 239.23,-316.74 239.23,-354.74"/>
<text text-anchor="start" x="173.23" y="-339.54" font-family="arial" font-size="14.00"> Susanna</text>
<text text-anchor="start" x="173.23" y="-324.54" font-family="arial" font-size="14.00">Centlivre </text>
</g>
<!-- GILES_JACOB&#45;&gt;SUSANNA_CENTLIVRE -->
<g id="edge14" class="edge">
<title>GILES_JACOB&#45;&gt;SUSANNA_CENTLIVRE</title>
<path fill="none" stroke="blue" d="M409.59,-272.48C369.79,-284.62 297.01,-306.82 249.12,-321.43"/>
<polygon fill="blue" stroke="blue" points="247.85,-318.16 239.3,-324.42 249.89,-324.85 247.85,-318.16"/>
</g>
</g>
</svg>
