<?xml version="1.0" encoding="UTF-8" standalone="no"?>
<!DOCTYPE svg PUBLIC "-//W3C//DTD SVG 1.1//EN"
 "http://www.w3.org/Graphics/SVG/1.1/DTD/svg11.dtd">
<!-- Generated by graphviz version 2.50.0 (0)
 -->
<!-- Title: G Pages: 1 -->
<svg width="701pt" height="524pt"
 viewBox="0.00 0.00 701.41 524.02" xmlns="http://www.w3.org/2000/svg" xmlns:xlink="http://www.w3.org/1999/xlink">
<g id="graph0" class="graph" transform="scale(1 1) rotate(0) translate(4 520.02)">
<title>G</title>
<polygon fill="white" stroke="transparent" points="-4,4 -4,-520.02 697.41,-520.02 697.41,4 -4,4"/>
<!-- ALEXANDER_POPE -->
<g id="node1" class="node">
<title>ALEXANDER_POPE</title>
<polygon fill="none" stroke="black" points="76,-276.55 0,-276.55 0,-238.55 76,-238.55 76,-276.55"/>
<text text-anchor="start" x="8" y="-261.35" font-family="Times,serif" font-size="14.00"> Alexander</text>
<text text-anchor="start" x="22.5" y="-246.35" font-family="Times,serif" font-size="14.00">Pope </text>
</g>
<!-- AMBROSE_PHILLIPS -->
<g id="node2" class="node">
<title>AMBROSE_PHILLIPS</title>
<polygon fill="none" stroke="black" points="231.48,-206.34 161.48,-206.34 161.48,-168.34 231.48,-168.34 231.48,-206.34"/>
<text text-anchor="start" x="169.48" y="-191.14" font-family="Times,serif" font-size="14.00"> Ambrose</text>
<text text-anchor="start" x="173.48" y="-176.14" font-family="Times,serif" font-size="14.00">Phillips </text>
</g>
<!-- EDMUND_CURLL -->
<g id="node3" class="node">
<title>EDMUND_CURLL</title>
<polygon fill="none" stroke="black" points="306.91,-91.15 239.91,-91.15 239.91,-53.15 306.91,-53.15 306.91,-91.15"/>
<text text-anchor="start" x="247.91" y="-75.95" font-family="Times,serif" font-size="14.00"> Edmund</text>
<text text-anchor="start" x="257.41" y="-60.95" font-family="Times,serif" font-size="14.00">Curll </text>
</g>
<!-- EDWARD_WARD -->
<g id="node4" class="node">
<title>EDWARD_WARD</title>
<polygon fill="none" stroke="black" points="428.15,-38 366.15,-38 366.15,0 428.15,0 428.15,-38"/>
<text text-anchor="start" x="374.15" y="-22.8" font-family="Times,serif" font-size="14.00"> Edward</text>
<text text-anchor="start" x="380.15" y="-7.8" font-family="Times,serif" font-size="14.00">Ward </text>
</g>
<!-- EUSTACE_BUDGELL -->
<g id="node5" class="node">
<title>EUSTACE_BUDGELL</title>
<polygon fill="none" stroke="black" points="559.74,-58.9 496.74,-58.9 496.74,-20.9 559.74,-20.9 559.74,-58.9"/>
<text text-anchor="start" x="505.24" y="-43.7" font-family="Times,serif" font-size="14.00"> Eustace</text>
<text text-anchor="start" x="504.74" y="-28.7" font-family="Times,serif" font-size="14.00">Budgell </text>
</g>
<!-- GILES_JACOB -->
<g id="node6" class="node">
<title>GILES_JACOB</title>
<polygon fill="none" stroke="black" points="453.32,-276.55 399.32,-276.55 399.32,-238.55 453.32,-238.55 453.32,-276.55"/>
<text text-anchor="start" x="409.82" y="-261.35" font-family="Times,serif" font-size="14.00"> Giles</text>
<text text-anchor="start" x="408.82" y="-246.35" font-family="Times,serif" font-size="14.00">Jacob </text>
</g>
<!-- GILES_JACOB&#45;&gt;ALEXANDER_POPE -->
<g id="edge1" class="edge">
<title>GILES_JACOB&#45;&gt;ALEXANDER_POPE</title>
<path fill="none" stroke="red" d="M399.02,-253.88C333.87,-250.12 168.64,-249.8 86.25,-252.91"/>
<polygon fill="red" stroke="red" points="85.99,-249.42 76.15,-253.33 86.28,-256.41 85.99,-249.42"/>
</g>
<!-- GILES_JACOB&#45;&gt;ALEXANDER_POPE -->
<g id="edge2" class="edge">
<title>GILES_JACOB&#45;&gt;ALEXANDER_POPE</title>
<path fill="none" stroke="blue" d="M399.02,-261.21C333.87,-264.97 168.64,-265.29 86.25,-262.18"/>
<polygon fill="blue" stroke="blue" points="86.28,-258.68 76.15,-261.77 85.99,-265.68 86.28,-258.68"/>
</g>
<!-- GILES_JACOB&#45;&gt;AMBROSE_PHILLIPS -->
<g id="edge3" class="edge">
<title>GILES_JACOB&#45;&gt;AMBROSE_PHILLIPS</title>
<path fill="none" stroke="blue" d="M399.06,-249.22C360.09,-237.31 288.02,-215.3 241.19,-200.99"/>
<polygon fill="blue" stroke="blue" points="242.18,-197.64 231.6,-198.06 240.14,-204.33 242.18,-197.64"/>
</g>
<!-- GILES_JACOB&#45;&gt;EDMUND_CURLL -->
<g id="edge4" class="edge">
<title>GILES_JACOB&#45;&gt;EDMUND_CURLL</title>
<path fill="none" stroke="blue" d="M410.53,-238.4C383.22,-205.29 327.08,-137.22 295.76,-99.26"/>
<polygon fill="blue" stroke="blue" points="298.17,-96.68 289.11,-91.19 292.77,-101.13 298.17,-96.68"/>
</g>
<!-- GILES_JACOB&#45;&gt;EDWARD_WARD -->
<g id="edge5" class="edge">
<title>GILES_JACOB&#45;&gt;EDWARD_WARD</title>
<path fill="none" stroke="blue" d="M423.99,-238.43C418.9,-196.82 406.79,-97.8 400.73,-48.27"/>
<polygon fill="blue" stroke="blue" points="404.18,-47.71 399.5,-38.21 397.24,-48.56 404.18,-47.71"/>
</g>
<!-- GILES_JACOB&#45;&gt;EUSTACE_BUDGELL -->
<g id="edge6" class="edge">
<title>GILES_JACOB&#45;&gt;EUSTACE_BUDGELL</title>
<path fill="none" stroke="blue" d="M435.37,-238.23C453.39,-199.75 493.84,-113.37 514.91,-68.38"/>
<polygon fill="blue" stroke="blue" points="518.15,-69.71 519.22,-59.17 511.81,-66.75 518.15,-69.71"/>
</g>
<!-- JOHN_DENNIS -->
<g id="node7" class="node">
<title>JOHN_DENNIS</title>
<polygon fill="none" stroke="black" points="656.92,-144.96 597.92,-144.96 597.92,-106.96 656.92,-106.96 656.92,-144.96"/>
<text text-anchor="start" x="612.42" y="-129.76" font-family="Times,serif" font-size="14.00"> John</text>
<text text-anchor="start" x="605.92" y="-114.76" font-family="Times,serif" font-size="14.00">Dennis </text>
</g>
<!-- GILES_JACOB&#45;&gt;JOHN_DENNIS -->
<g id="edge7" class="edge">
<title>GILES_JACOB&#45;&gt;JOHN_DENNIS</title>
<path fill="none" stroke="green" d="M453.51,-245.27C491.35,-223.71 559.47,-179.33 598.31,-151.09"/>
<polygon fill="green" stroke="green" points="600.62,-153.74 606.59,-144.98 596.47,-148.1 600.62,-153.74"/>
</g>
<!-- GILES_JACOB&#45;&gt;JOHN_DENNIS -->
<g id="edge8" class="edge">
<title>GILES_JACOB&#45;&gt;JOHN_DENNIS</title>
<path fill="none" stroke="blue" d="M447.31,-238.41C480.78,-213.3 546.62,-169.91 588.78,-144.91"/>
<polygon fill="blue" stroke="blue" points="590.79,-147.79 597.65,-139.71 587.25,-141.74 590.79,-147.79"/>
</g>
<!-- JOHN_GAY -->
<g id="node8" class="node">
<title>JOHN_GAY</title>
<polygon fill="none" stroke="black" points="693.41,-265.8 639.41,-265.8 639.41,-227.8 693.41,-227.8 693.41,-265.8"/>
<text text-anchor="start" x="651.41" y="-250.6" font-family="Times,serif" font-size="14.00"> John</text>
<text text-anchor="start" x="652.91" y="-235.6" font-family="Times,serif" font-size="14.00">Gay </text>
</g>
<!-- GILES_JACOB&#45;&gt;JOHN_GAY -->
<g id="edge9" class="edge">
<title>GILES_JACOB&#45;&gt;JOHN_GAY</title>
<path fill="none" stroke="red" d="M453.4,-256.33C496.36,-254.41 580.24,-250.66 628.94,-248.48"/>
<polygon fill="red" stroke="red" points="629.23,-251.97 639.06,-248.02 628.92,-244.97 629.23,-251.97"/>
</g>
<!-- JOHN_OLDMIXON -->
<g id="node9" class="node">
<title>JOHN_OLDMIXON</title>
<polygon fill="none" stroke="black" points="672.24,-397.07 596.24,-397.07 596.24,-359.07 672.24,-359.07 672.24,-397.07"/>
<text text-anchor="start" x="619.24" y="-381.87" font-family="Times,serif" font-size="14.00"> John</text>
<text text-anchor="start" x="604.24" y="-366.87" font-family="Times,serif" font-size="14.00">Oldmixon </text>
</g>
<!-- GILES_JACOB&#45;&gt;JOHN_OLDMIXON -->
<g id="edge10" class="edge">
<title>GILES_JACOB&#45;&gt;JOHN_OLDMIXON</title>
<path fill="none" stroke="blue" d="M453.51,-273.3C488.89,-293.81 551.07,-329.86 592.46,-353.85"/>
<polygon fill="blue" stroke="blue" points="590.81,-356.94 601.22,-358.93 594.33,-350.88 590.81,-356.94"/>
</g>
<!-- JOHN_OZELL -->
<g id="node10" class="node">
<title>JOHN_OZELL</title>
<polygon fill="none" stroke="black" points="563.32,-490.22 509.32,-490.22 509.32,-452.22 563.32,-452.22 563.32,-490.22"/>
<text text-anchor="start" x="521.32" y="-475.02" font-family="Times,serif" font-size="14.00"> John</text>
<text text-anchor="start" x="519.32" y="-460.02" font-family="Times,serif" font-size="14.00">Ozell </text>
</g>
<!-- GILES_JACOB&#45;&gt;JOHN_OZELL -->
<g id="edge11" class="edge">
<title>GILES_JACOB&#45;&gt;JOHN_OZELL</title>
<path fill="none" stroke="blue" d="M436.28,-276.89C455.79,-314.79 499.12,-398.97 521.82,-443.06"/>
<polygon fill="blue" stroke="blue" points="518.78,-444.79 526.47,-452.08 525,-441.59 518.78,-444.79"/>
</g>
<!-- LAURENCE_EUSDEN -->
<g id="node11" class="node">
<title>LAURENCE_EUSDEN</title>
<polygon fill="none" stroke="black" points="441.6,-516.02 370.6,-516.02 370.6,-478.02 441.6,-478.02 441.6,-516.02"/>
<text text-anchor="start" x="378.6" y="-500.82" font-family="Times,serif" font-size="14.00"> Laurence</text>
<text text-anchor="start" x="384.1" y="-485.82" font-family="Times,serif" font-size="14.00">Eusden </text>
</g>
<!-- GILES_JACOB&#45;&gt;LAURENCE_EUSDEN -->
<g id="edge12" class="edge">
<title>GILES_JACOB&#45;&gt;LAURENCE_EUSDEN</title>
<path fill="none" stroke="blue" d="M424.7,-276.74C421.17,-318.51 412.78,-417.91 408.58,-467.63"/>
<polygon fill="blue" stroke="blue" points="405.08,-467.47 407.73,-477.73 412.06,-468.06 405.08,-467.47"/>
</g>
<!-- LEWIS_THEOBALD -->
<g id="node12" class="node">
<title>LEWIS_THEOBALD</title>
<polygon fill="none" stroke="black" points="310.84,-463.52 239.84,-463.52 239.84,-425.52 310.84,-425.52 310.84,-463.52"/>
<text text-anchor="start" x="256.84" y="-448.32" font-family="Times,serif" font-size="14.00"> Lewis</text>
<text text-anchor="start" x="247.84" y="-433.32" font-family="Times,serif" font-size="14.00">Theobald </text>
</g>
<!-- GILES_JACOB&#45;&gt;LEWIS_THEOBALD -->
<g id="edge13" class="edge">
<title>GILES_JACOB&#45;&gt;LEWIS_THEOBALD</title>
<path fill="none" stroke="blue" d="M410.73,-276.85C383.77,-310.25 328.34,-378.89 297.42,-417.18"/>
<polygon fill="blue" stroke="blue" points="294.41,-415.34 290.85,-425.32 299.85,-419.74 294.41,-415.34"/>
</g>
<!-- SUSANNA_CENTLIVRE -->
<g id="node13" class="node">
<title>SUSANNA_CENTLIVRE</title>
<polygon fill="none" stroke="black" points="231.98,-346.76 160.98,-346.76 160.98,-308.76 231.98,-308.76 231.98,-346.76"/>
<text text-anchor="start" x="171.98" y="-331.56" font-family="Times,serif" font-size="14.00"> Susanna</text>
<text text-anchor="start" x="168.98" y="-316.56" font-family="Times,serif" font-size="14.00">Centlivre </text>
</g>
<!-- GILES_JACOB&#45;&gt;SUSANNA_CENTLIVRE -->
<g id="edge14" class="edge">
<title>GILES_JACOB&#45;&gt;SUSANNA_CENTLIVRE</title>
<path fill="none" stroke="blue" d="M399.06,-265.88C360.2,-277.75 288.43,-299.67 241.59,-313.98"/>
<polygon fill="blue" stroke="blue" points="240.53,-310.64 231.99,-316.91 242.58,-317.34 240.53,-310.64"/>
</g>
</g>
</svg>
