<?xml version="1.0" encoding="UTF-8" standalone="no"?>
<!DOCTYPE svg PUBLIC "-//W3C//DTD SVG 1.1//EN"
 "http://www.w3.org/Graphics/SVG/1.1/DTD/svg11.dtd">
<!-- Generated by graphviz version 2.50.0 (0)
 -->
<!-- Title: G Pages: 1 -->
<svg width="1425pt" height="1234pt"
 viewBox="0.00 0.00 1425.11 1233.72" xmlns="http://www.w3.org/2000/svg" xmlns:xlink="http://www.w3.org/1999/xlink">
<g id="graph0" class="graph" transform="scale(1 1) rotate(0) translate(4 1229.72)">
<title>G</title>
<polygon fill="white" stroke="transparent" points="-4,4 -4,-1229.72 1421.11,-1229.72 1421.11,4 -4,4"/>
<!-- ALEXANDER_POPE -->
<g id="node1" class="node">
<title>ALEXANDER_POPE</title>
<polygon fill="none" stroke="black" points="80,-630.01 0,-630.01 0,-592.01 80,-592.01 80,-630.01"/>
<text text-anchor="start" x="8" y="-614.81" font-family="arial" font-size="14.00"> Alexander</text>
<text text-anchor="start" x="22" y="-599.81" font-family="arial" font-size="14.00">Pope </text>
</g>
<!-- A_BOYER -->
<g id="node2" class="node">
<title>A_BOYER</title>
<polygon fill="none" stroke="black" points="226.18,-563.9 170.18,-563.9 170.18,-525.9 226.18,-525.9 226.18,-563.9"/>
<text text-anchor="start" x="191.68" y="-548.7" font-family="arial" font-size="14.00"> A</text>
<text text-anchor="start" x="178.18" y="-533.7" font-family="arial" font-size="14.00">Boyer </text>
</g>
<!-- A_MOORE -->
<g id="node3" class="node">
<title>A_MOORE</title>
<polygon fill="none" stroke="black" points="255.87,-437.76 196.87,-437.76 196.87,-399.76 255.87,-399.76 255.87,-437.76"/>
<text text-anchor="start" x="219.87" y="-422.56" font-family="arial" font-size="14.00"> A</text>
<text text-anchor="start" x="204.87" y="-407.56" font-family="arial" font-size="14.00">Moore </text>
</g>
<!-- BAVIUS -->
<g id="node4" class="node">
<title>BAVIUS</title>
<polygon fill="none" stroke="black" points="315.96,-315.84 250.96,-315.84 250.96,-279.84 315.96,-279.84 315.96,-315.84"/>
<text text-anchor="start" x="258.96" y="-294.14" font-family="arial" font-size="14.00"> Bavius </text>
</g>
<!-- BB -->
<g id="node5" class="node">
<title>BB</title>
<polygon fill="none" stroke="black" points="391.32,-212.48 337.32,-212.48 337.32,-176.48 391.32,-176.48 391.32,-212.48"/>
<text text-anchor="start" x="347.32" y="-190.78" font-family="arial" font-size="14.00"> B.B. </text>
</g>
<!-- BERNARD_LINTOT -->
<g id="node6" class="node">
<title>BERNARD_LINTOT</title>
<polygon fill="none" stroke="black" points="501.12,-129.52 433.12,-129.52 433.12,-91.52 501.12,-91.52 501.12,-129.52"/>
<text text-anchor="start" x="441.12" y="-114.32" font-family="arial" font-size="14.00"> Bernard</text>
<text text-anchor="start" x="448.62" y="-99.32" font-family="arial" font-size="14.00">Lintot </text>
</g>
<!-- CHARLES_GILDON -->
<g id="node7" class="node">
<title>CHARLES_GILDON</title>
<polygon fill="none" stroke="black" points="625.57,-68.21 558.57,-68.21 558.57,-30.21 625.57,-30.21 625.57,-68.21"/>
<text text-anchor="start" x="566.57" y="-53.01" font-family="arial" font-size="14.00"> Charles</text>
<text text-anchor="start" x="570.07" y="-38.01" font-family="arial" font-size="14.00">Gildon </text>
</g>
<!-- COLLEY_CIBBER -->
<g id="node8" class="node">
<title>COLLEY_CIBBER</title>
<polygon fill="none" stroke="black" points="753.85,-38 693.85,-38 693.85,0 753.85,0 753.85,-38"/>
<text text-anchor="start" x="702.85" y="-22.8" font-family="arial" font-size="14.00"> Colley</text>
<text text-anchor="start" x="701.85" y="-7.8" font-family="arial" font-size="14.00">Cibber </text>
</g>
<!-- EDMUND_CURLL -->
<g id="node9" class="node">
<title>EDMUND_CURLL</title>
<polygon fill="none" stroke="black" points="896.55,-38.52 825.55,-38.52 825.55,-0.52 896.55,-0.52 896.55,-38.52"/>
<text text-anchor="start" x="833.55" y="-23.32" font-family="arial" font-size="14.00"> Edmund</text>
<text text-anchor="start" x="845.05" y="-8.32" font-family="arial" font-size="14.00">Curll </text>
</g>
<!-- ELKANAH_SETTLE -->
<g id="node10" class="node">
<title>ELKANAH_SETTLE</title>
<polygon fill="none" stroke="black" points="1033.21,-71.97 964.21,-71.97 964.21,-33.97 1033.21,-33.97 1033.21,-71.97"/>
<text text-anchor="start" x="972.21" y="-56.77" font-family="arial" font-size="14.00"> Elkanah</text>
<text text-anchor="start" x="979.21" y="-41.77" font-family="arial" font-size="14.00">Settle </text>
</g>
<!-- GEORGE_DUCKET -->
<g id="node11" class="node">
<title>GEORGE_DUCKET</title>
<polygon fill="none" stroke="black" points="1155.5,-135.58 1089.5,-135.58 1089.5,-97.58 1155.5,-97.58 1155.5,-135.58"/>
<text text-anchor="start" x="1097.5" y="-120.38" font-family="arial" font-size="14.00"> George</text>
<text text-anchor="start" x="1099.5" y="-105.38" font-family="arial" font-size="14.00">Ducket </text>
</g>
<!-- GEORGE_DUCKETT -->
<g id="node12" class="node">
<title>GEORGE_DUCKETT</title>
<polygon fill="none" stroke="black" points="1260.14,-225.07 1194.14,-225.07 1194.14,-187.07 1260.14,-187.07 1260.14,-225.07"/>
<text text-anchor="start" x="1202.14" y="-209.87" font-family="arial" font-size="14.00"> George</text>
<text text-anchor="start" x="1202.14" y="-194.87" font-family="arial" font-size="14.00">Duckett </text>
</g>
<!-- GILES_JACOB -->
<g id="node13" class="node">
<title>GILES_JACOB</title>
<polygon fill="none" stroke="black" points="1333.96,-331.86 1277.96,-331.86 1277.96,-293.86 1333.96,-293.86 1333.96,-331.86"/>
<text text-anchor="start" x="1287.96" y="-316.66" font-family="arial" font-size="14.00"> Giles</text>
<text text-anchor="start" x="1285.96" y="-301.66" font-family="arial" font-size="14.00">Jacob </text>
</g>
<!-- HILKIAH_BEDFORD -->
<g id="node14" class="node">
<title>HILKIAH_BEDFORD</title>
<polygon fill="none" stroke="black" points="1393.46,-454.41 1325.46,-454.41 1325.46,-416.41 1393.46,-416.41 1393.46,-454.41"/>
<text text-anchor="start" x="1336.96" y="-439.21" font-family="arial" font-size="14.00"> Hilkiah</text>
<text text-anchor="start" x="1333.46" y="-424.21" font-family="arial" font-size="14.00">Bedford </text>
</g>
<!-- JEREMY_COLLIER -->
<g id="node15" class="node">
<title>JEREMY_COLLIER</title>
<polygon fill="none" stroke="black" points="1417.11,-590.29 1352.11,-590.29 1352.11,-552.29 1417.11,-552.29 1417.11,-590.29"/>
<text text-anchor="start" x="1360.11" y="-575.09" font-family="arial" font-size="14.00"> Jeremy</text>
<text text-anchor="start" x="1363.11" y="-560.09" font-family="arial" font-size="14.00">Collier </text>
</g>
<!-- JOHN_ANSTIS -->
<g id="node16" class="node">
<title>JOHN_ANSTIS</title>
<polygon fill="none" stroke="black" points="1407.15,-722.88 1350.15,-722.88 1350.15,-684.88 1407.15,-684.88 1407.15,-722.88"/>
<text text-anchor="start" x="1361.65" y="-707.68" font-family="arial" font-size="14.00"> John</text>
<text text-anchor="start" x="1358.15" y="-692.68" font-family="arial" font-size="14.00">Anstis </text>
</g>
<!-- JOHN_DENNIS -->
<g id="node17" class="node">
<title>JOHN_DENNIS</title>
<polygon fill="none" stroke="black" points="821.22,-630.01 759.22,-630.01 759.22,-592.01 821.22,-592.01 821.22,-630.01"/>
<text text-anchor="start" x="773.22" y="-614.81" font-family="arial" font-size="14.00"> John</text>
<text text-anchor="start" x="767.22" y="-599.81" font-family="arial" font-size="14.00">Dennis </text>
</g>
<!-- JOHN_DENNIS&#45;&gt;ALEXANDER_POPE -->
<g id="edge1" class="edge">
<title>JOHN_DENNIS&#45;&gt;ALEXANDER_POPE</title>
<path fill="none" stroke="red" d="M758.94,-611.01C642.6,-611.01 234.27,-611.01 90.53,-611.01"/>
<polygon fill="red" stroke="red" points="90.24,-607.51 80.24,-611.01 90.24,-614.51 90.24,-607.51"/>
</g>
<!-- JOHN_DENNIS&#45;&gt;A_BOYER -->
<g id="edge2" class="edge">
<title>JOHN_DENNIS&#45;&gt;A_BOYER</title>
<path fill="none" stroke="red" d="M758.8,-607.5C658.51,-596.3 346.17,-561.42 236.62,-549.19"/>
<polygon fill="red" stroke="red" points="236.69,-545.67 226.37,-548.04 235.92,-552.63 236.69,-545.67"/>
</g>
<!-- JOHN_DENNIS&#45;&gt;A_MOORE -->
<g id="edge3" class="edge">
<title>JOHN_DENNIS&#45;&gt;A_MOORE</title>
<path fill="none" stroke="green" d="M759.1,-600.4C663.15,-567.69 371.97,-468.41 265.72,-432.18"/>
<polygon fill="green" stroke="green" points="266.62,-428.79 256.02,-428.87 264.36,-435.41 266.62,-428.79"/>
</g>
<!-- JOHN_DENNIS&#45;&gt;BAVIUS -->
<g id="edge4" class="edge">
<title>JOHN_DENNIS&#45;&gt;BAVIUS</title>
<path fill="none" stroke="blue" d="M759.28,-591.89C670.92,-537.29 417.62,-380.75 321.27,-321.21"/>
<polygon fill="blue" stroke="blue" points="323.07,-318.21 312.72,-315.93 319.39,-324.16 323.07,-318.21"/>
</g>
<!-- JOHN_DENNIS&#45;&gt;BB -->
<g id="edge5" class="edge">
<title>JOHN_DENNIS&#45;&gt;BB</title>
<path fill="none" stroke="green" d="M770.53,-591.75C701.25,-524 468.71,-296.57 390.35,-219.94"/>
<polygon fill="green" stroke="green" points="392.43,-217.08 382.84,-212.59 387.54,-222.08 392.43,-217.08"/>
</g>
<!-- JOHN_DENNIS&#45;&gt;BERNARD_LINTOT -->
<g id="edge6" class="edge">
<title>JOHN_DENNIS&#45;&gt;BERNARD_LINTOT</title>
<path fill="none" stroke="green" d="M777.95,-592C728.47,-515.36 543.47,-228.8 484.97,-138.18"/>
<polygon fill="green" stroke="green" points="487.76,-136.06 479.4,-129.55 481.88,-139.85 487.76,-136.06"/>
</g>
<!-- JOHN_DENNIS&#45;&gt;CHARLES_GILDON -->
<g id="edge7" class="edge">
<title>JOHN_DENNIS&#45;&gt;CHARLES_GILDON</title>
<path fill="none" stroke="green" d="M783.51,-592C754.23,-508.97 637.46,-177.92 602.2,-77.95"/>
<polygon fill="green" stroke="green" points="605.4,-76.49 598.77,-68.22 598.8,-78.82 605.4,-76.49"/>
</g>
<!-- JOHN_DENNIS&#45;&gt;COLLEY_CIBBER -->
<g id="edge8" class="edge">
<title>JOHN_DENNIS&#45;&gt;COLLEY_CIBBER</title>
<path fill="none" stroke="green" d="M788.08,-591.98C778.44,-505.97 738.89,-153.11 727.15,-48.41"/>
<polygon fill="green" stroke="green" points="730.61,-47.8 726.01,-38.25 723.65,-48.58 730.61,-47.8"/>
</g>
<!-- JOHN_DENNIS&#45;&gt;EDMUND_CURLL -->
<g id="edge9" class="edge">
<title>JOHN_DENNIS&#45;&gt;EDMUND_CURLL</title>
<path fill="none" stroke="green" d="M792.49,-592C802.79,-506.06 845,-153.51 857.53,-48.91"/>
<polygon fill="green" stroke="green" points="861.03,-49.1 858.75,-38.75 854.08,-48.27 861.03,-49.1"/>
</g>
<!-- JOHN_DENNIS&#45;&gt;ELKANAH_SETTLE -->
<g id="edge10" class="edge">
<title>JOHN_DENNIS&#45;&gt;ELKANAH_SETTLE</title>
<path fill="none" stroke="green" d="M797.39,-591.8C828.41,-508.79 951.01,-180.62 988.05,-81.48"/>
<polygon fill="green" stroke="green" points="991.34,-82.69 991.56,-72.1 984.78,-80.24 991.34,-82.69"/>
</g>
<!-- JOHN_DENNIS&#45;&gt;GEORGE_DUCKET -->
<g id="edge11" class="edge">
<title>JOHN_DENNIS&#45;&gt;GEORGE_DUCKET</title>
<path fill="none" stroke="blue" d="M803.04,-591.93C854.18,-515.83 1043.71,-233.81 1103.98,-144.14"/>
<polygon fill="blue" stroke="blue" points="1107.05,-145.85 1109.72,-135.6 1101.24,-141.95 1107.05,-145.85"/>
</g>
<!-- JOHN_DENNIS&#45;&gt;GEORGE_DUCKETT -->
<g id="edge12" class="edge">
<title>JOHN_DENNIS&#45;&gt;GEORGE_DUCKETT</title>
<path fill="none" stroke="green" d="M811,-591.75C882.38,-525.59 1117.65,-307.54 1199.1,-232.06"/>
<polygon fill="green" stroke="green" points="1201.54,-234.58 1206.49,-225.21 1196.78,-229.44 1201.54,-234.58"/>
</g>
<!-- JOHN_DENNIS&#45;&gt;GILES_JACOB -->
<g id="edge13" class="edge">
<title>JOHN_DENNIS&#45;&gt;GILES_JACOB</title>
<path fill="none" stroke="green" d="M821.32,-593.03C911.3,-541.01 1171.66,-390.5 1268.81,-334.33"/>
<polygon fill="green" stroke="green" points="1270.79,-337.23 1277.7,-329.2 1267.29,-331.17 1270.79,-337.23"/>
</g>
<!-- JOHN_DENNIS&#45;&gt;HILKIAH_BEDFORD -->
<g id="edge14" class="edge">
<title>JOHN_DENNIS&#45;&gt;HILKIAH_BEDFORD</title>
<path fill="none" stroke="red" d="M821.23,-601.44C916.4,-572.09 1204.55,-483.2 1315.37,-449.01"/>
<polygon fill="red" stroke="red" points="1316.7,-452.26 1325.22,-445.97 1314.64,-445.57 1316.7,-452.26"/>
</g>
<!-- JOHN_DENNIS&#45;&gt;JEREMY_COLLIER -->
<g id="edge15" class="edge">
<title>JOHN_DENNIS&#45;&gt;JEREMY_COLLIER</title>
<path fill="none" stroke="red" d="M821.34,-608.93C920.36,-602.31 1228.3,-581.73 1341.93,-574.14"/>
<polygon fill="red" stroke="red" points="1342.25,-577.63 1351.99,-573.47 1341.78,-570.64 1342.25,-577.63"/>
</g>
<!-- JOHN_DENNIS&#45;&gt;JOHN_ANSTIS -->
<g id="edge16" class="edge">
<title>JOHN_DENNIS&#45;&gt;JOHN_ANSTIS</title>
<path fill="none" stroke="green" d="M821.44,-615.94C920.99,-631.65 1230.75,-680.54 1340.02,-697.78"/>
<polygon fill="green" stroke="green" points="1339.53,-701.25 1349.95,-699.35 1340.62,-694.33 1339.53,-701.25"/>
</g>
<!-- JOHN_DRYDEN -->
<g id="node18" class="node">
<title>JOHN_DRYDEN</title>
<polygon fill="none" stroke="black" points="1375.67,-850.39 1311.67,-850.39 1311.67,-812.39 1375.67,-812.39 1375.67,-850.39"/>
<text text-anchor="start" x="1326.67" y="-835.19" font-family="arial" font-size="14.00"> John</text>
<text text-anchor="start" x="1319.67" y="-820.19" font-family="arial" font-size="14.00">Dryden </text>
</g>
<!-- JOHN_DENNIS&#45;&gt;JOHN_DRYDEN -->
<g id="edge17" class="edge">
<title>JOHN_DENNIS&#45;&gt;JOHN_DRYDEN</title>
<path fill="none" stroke="red" d="M821.56,-623.49C915.69,-660.97 1195.96,-772.58 1302.21,-814.88"/>
<polygon fill="red" stroke="red" points="1301.05,-818.19 1311.64,-818.64 1303.64,-811.69 1301.05,-818.19"/>
</g>
<!-- JOHN_GAY -->
<g id="node19" class="node">
<title>JOHN_GAY</title>
<polygon fill="none" stroke="black" points="1309.27,-965.81 1255.27,-965.81 1255.27,-927.81 1309.27,-927.81 1309.27,-965.81"/>
<text text-anchor="start" x="1265.27" y="-950.61" font-family="arial" font-size="14.00"> John</text>
<text text-anchor="start" x="1267.27" y="-935.61" font-family="arial" font-size="14.00">Gay </text>
</g>
<!-- JOHN_DENNIS&#45;&gt;JOHN_GAY -->
<g id="edge18" class="edge">
<title>JOHN_DENNIS&#45;&gt;JOHN_GAY</title>
<path fill="none" stroke="red" d="M818.08,-630.03C902.16,-687.41 1153.3,-858.8 1246.73,-922.56"/>
<polygon fill="red" stroke="red" points="1244.78,-925.47 1255.01,-928.21 1248.72,-919.69 1244.78,-925.47"/>
</g>
<!-- JOHN_OLDMIXON -->
<g id="node20" class="node">
<title>JOHN_OLDMIXON</title>
<polygon fill="none" stroke="black" points="1231.16,-1070.15 1152.16,-1070.15 1152.16,-1032.15 1231.16,-1032.15 1231.16,-1070.15"/>
<text text-anchor="start" x="1174.66" y="-1054.95" font-family="arial" font-size="14.00"> John</text>
<text text-anchor="start" x="1160.16" y="-1039.95" font-family="arial" font-size="14.00">Oldmixon </text>
</g>
<!-- JOHN_DENNIS&#45;&gt;JOHN_OLDMIXON -->
<g id="edge19" class="edge">
<title>JOHN_DENNIS&#45;&gt;JOHN_OLDMIXON</title>
<path fill="none" stroke="green" d="M807.72,-630.2C871.63,-700.27 1092.45,-942.38 1166.92,-1024.02"/>
<polygon fill="green" stroke="green" points="1164.73,-1026.82 1174.06,-1031.85 1169.9,-1022.11 1164.73,-1026.82"/>
</g>
<!-- LEONARD_WELSTED -->
<g id="node21" class="node">
<title>LEONARD_WELSTED</title>
<polygon fill="none" stroke="black" points="1107.43,-1154.64 1037.43,-1154.64 1037.43,-1116.64 1107.43,-1116.64 1107.43,-1154.64"/>
<text text-anchor="start" x="1045.43" y="-1139.44" font-family="arial" font-size="14.00"> Leonard</text>
<text text-anchor="start" x="1045.93" y="-1124.44" font-family="arial" font-size="14.00">Welsted </text>
</g>
<!-- JOHN_DENNIS&#45;&gt;LEONARD_WELSTED -->
<g id="edge20" class="edge">
<title>JOHN_DENNIS&#45;&gt;LEONARD_WELSTED</title>
<path fill="none" stroke="green" d="M797.43,-630.02C834.15,-709.32 997.6,-1013.65 1053.66,-1107.77"/>
<polygon fill="green" stroke="green" points="1050.73,-1109.69 1058.89,-1116.45 1056.73,-1106.08 1050.73,-1109.69"/>
</g>
<!-- JOHN_DENNIS&#45;&gt;LEONARD_WELSTED -->
<g id="edge21" class="edge">
<title>JOHN_DENNIS&#45;&gt;LEONARD_WELSTED</title>
<path fill="none" stroke="blue" d="M803.78,-630.23C852.31,-709.7 1015.32,-1012.47 1060.75,-1107.18"/>
<polygon fill="blue" stroke="blue" points="1057.68,-1108.88 1065.12,-1116.43 1064.01,-1105.89 1057.68,-1108.88"/>
</g>
<!-- LEWIS_THEOBALD -->
<g id="node22" class="node">
<title>LEWIS_THEOBALD</title>
<polygon fill="none" stroke="black" points="975.68,-1207.31 898.68,-1207.31 898.68,-1169.31 975.68,-1169.31 975.68,-1207.31"/>
<text text-anchor="start" x="917.68" y="-1192.11" font-family="arial" font-size="14.00"> Lewis</text>
<text text-anchor="start" x="906.68" y="-1177.11" font-family="arial" font-size="14.00">Theobald </text>
</g>
<!-- JOHN_DENNIS&#45;&gt;LEWIS_THEOBALD -->
<g id="edge22" class="edge">
<title>JOHN_DENNIS&#45;&gt;LEWIS_THEOBALD</title>
<path fill="none" stroke="green" d="M795.11,-630.22C816.71,-715.06 903.64,-1056.55 929.74,-1159.07"/>
<polygon fill="green" stroke="green" points="926.42,-1160.21 932.28,-1169.03 933.2,-1158.48 926.42,-1160.21"/>
</g>
<!-- MATTHEW_CONCANEN -->
<g id="node23" class="node">
<title>MATTHEW_CONCANEN</title>
<polygon fill="none" stroke="black" points="828.22,-1225.72 746.22,-1225.72 746.22,-1187.72 828.22,-1187.72 828.22,-1225.72"/>
<text text-anchor="start" x="759.22" y="-1210.52" font-family="arial" font-size="14.00"> Matthew</text>
<text text-anchor="start" x="754.22" y="-1195.52" font-family="arial" font-size="14.00">Concanen </text>
</g>
<!-- JOHN_DENNIS&#45;&gt;MATTHEW_CONCANEN -->
<g id="edge23" class="edge">
<title>JOHN_DENNIS&#45;&gt;MATTHEW_CONCANEN</title>
<path fill="none" stroke="green" d="M790.12,-630.15C789.68,-716.81 787.89,-1072.56 787.36,-1177.47"/>
<polygon fill="green" stroke="green" points="783.86,-1177.63 787.31,-1187.64 790.86,-1177.66 783.86,-1177.63"/>
</g>
<!-- RICHARD_BLACKMORE -->
<g id="node24" class="node">
<title>RICHARD_BLACKMORE</title>
<polygon fill="none" stroke="black" points="676.08,-1204.76 591.08,-1204.76 591.08,-1166.76 676.08,-1166.76 676.08,-1204.76"/>
<text text-anchor="start" x="608.08" y="-1189.56" font-family="arial" font-size="14.00"> Richard</text>
<text text-anchor="start" x="599.08" y="-1174.56" font-family="arial" font-size="14.00">Blackmore </text>
</g>
<!-- JOHN_DENNIS&#45;&gt;RICHARD_BLACKMORE -->
<g id="edge24" class="edge">
<title>JOHN_DENNIS&#45;&gt;RICHARD_BLACKMORE</title>
<path fill="none" stroke="green" d="M785.01,-630.13C761.99,-714.6 669.33,-1054.58 641.52,-1156.65"/>
<polygon fill="green" stroke="green" points="638.06,-1156 638.81,-1166.57 644.82,-1157.84 638.06,-1156"/>
</g>
<!-- S_POPPING -->
<g id="node25" class="node">
<title>S_POPPING</title>
<polygon fill="none" stroke="black" points="530.76,-1147.86 460.76,-1147.86 460.76,-1109.86 530.76,-1109.86 530.76,-1147.86"/>
<text text-anchor="start" x="489.26" y="-1132.66" font-family="arial" font-size="14.00"> S</text>
<text text-anchor="start" x="468.76" y="-1117.66" font-family="arial" font-size="14.00">Popping </text>
</g>
<!-- JOHN_DENNIS&#45;&gt;S_POPPING -->
<g id="edge25" class="edge">
<title>JOHN_DENNIS&#45;&gt;S_POPPING</title>
<path fill="none" stroke="green" d="M779.39,-630.05C734.75,-708.56 564.86,-1007.33 511.74,-1100.76"/>
<polygon fill="green" stroke="green" points="508.58,-1099.22 506.68,-1109.64 514.67,-1102.68 508.58,-1099.22"/>
</g>
<!-- THOMAS_COOKE -->
<g id="node26" class="node">
<title>THOMAS_COOKE</title>
<polygon fill="none" stroke="black" points="416.81,-1063.69 346.81,-1063.69 346.81,-1025.69 416.81,-1025.69 416.81,-1063.69"/>
<text text-anchor="start" x="354.81" y="-1048.49" font-family="arial" font-size="14.00"> Thomas</text>
<text text-anchor="start" x="360.31" y="-1033.49" font-family="arial" font-size="14.00">Cooke </text>
</g>
<!-- JOHN_DENNIS&#45;&gt;THOMAS_COOKE -->
<g id="edge26" class="edge">
<title>JOHN_DENNIS&#45;&gt;THOMAS_COOKE</title>
<path fill="none" stroke="green" d="M772.14,-630.2C706.92,-699.46 483.55,-936.65 407.45,-1017.47"/>
<polygon fill="green" stroke="green" points="404.45,-1015.55 400.14,-1025.23 409.54,-1020.35 404.45,-1015.55"/>
</g>
<!-- THOMAS_RYMER -->
<g id="node27" class="node">
<title>THOMAS_RYMER</title>
<polygon fill="none" stroke="black" points="325.96,-955 255.96,-955 255.96,-917 325.96,-917 325.96,-955"/>
<text text-anchor="start" x="263.96" y="-939.8" font-family="arial" font-size="14.00"> Thomas</text>
<text text-anchor="start" x="268.46" y="-924.8" font-family="arial" font-size="14.00">Rymer </text>
</g>
<!-- JOHN_DENNIS&#45;&gt;THOMAS_RYMER -->
<g id="edge27" class="edge">
<title>JOHN_DENNIS&#45;&gt;THOMAS_RYMER</title>
<path fill="none" stroke="green" d="M760.85,-630.13C675.01,-686 424.56,-849.03 328.79,-911.37"/>
<polygon fill="green" stroke="green" points="326.76,-908.52 320.29,-916.91 330.58,-914.38 326.76,-908.52"/>
</g>
<!-- TOM_DÍURFEY -->
<g id="node28" class="node">
<title>TOM_DÍURFEY</title>
<polygon fill="none" stroke="black" points="262.01,-829.81 196.01,-829.81 196.01,-791.81 262.01,-791.81 262.01,-829.81"/>
<text text-anchor="start" x="213.51" y="-814.61" font-family="arial" font-size="14.00"> Tom</text>
<text text-anchor="start" x="204.01" y="-799.61" font-family="arial" font-size="14.00">DíUrfey </text>
</g>
<!-- JOHN_DENNIS&#45;&gt;TOM_DÍURFEY -->
<g id="edge28" class="edge">
<title>JOHN_DENNIS&#45;&gt;TOM_DÍURFEY</title>
<path fill="none" stroke="green" d="M758.84,-622.18C664.04,-655.93 380.44,-756.9 271.9,-795.54"/>
<polygon fill="green" stroke="green" points="270.51,-792.32 262.26,-798.97 272.86,-798.91 270.51,-792.32"/>
</g>
<!-- WILLIAM_LAW -->
<g id="node29" class="node">
<title>WILLIAM_LAW</title>
<polygon fill="none" stroke="black" points="230.68,-696.12 165.68,-696.12 165.68,-658.12 230.68,-658.12 230.68,-696.12"/>
<text text-anchor="start" x="173.68" y="-680.92" font-family="arial" font-size="14.00"> William</text>
<text text-anchor="start" x="183.68" y="-665.92" font-family="arial" font-size="14.00">Law </text>
</g>
<!-- JOHN_DENNIS&#45;&gt;WILLIAM_LAW -->
<g id="edge29" class="edge">
<title>JOHN_DENNIS&#45;&gt;WILLIAM_LAW</title>
<path fill="none" stroke="red" d="M758.8,-614.52C659.82,-625.57 354.26,-659.69 241,-672.34"/>
<polygon fill="red" stroke="red" points="240.51,-668.87 230.96,-673.46 241.29,-675.83 240.51,-668.87"/>
</g>
</g>
</svg>
