<?xml version="1.0" encoding="UTF-8" standalone="no"?>
<!DOCTYPE svg PUBLIC "-//W3C//DTD SVG 1.1//EN"
 "http://www.w3.org/Graphics/SVG/1.1/DTD/svg11.dtd">
<!-- Generated by graphviz version 2.50.0 (0)
 -->
<!-- Title: G Pages: 1 -->
<svg width="687pt" height="502pt"
 viewBox="0.00 0.00 686.61 501.92" xmlns="http://www.w3.org/2000/svg" xmlns:xlink="http://www.w3.org/1999/xlink">
<g id="graph0" class="graph" transform="scale(1 1) rotate(0) translate(4 497.92)">
<title>G</title>
<polygon fill="white" stroke="transparent" points="-4,4 -4,-497.92 682.61,-497.92 682.61,4 -4,4"/>
<!-- BENJAMIN_HOADLY -->
<g id="node1" class="node">
<title>BENJAMIN_HOADLY</title>
<polygon fill="none" stroke="black" points="77,-265.98 0,-265.98 0,-227.98 77,-227.98 77,-265.98"/>
<text text-anchor="start" x="8" y="-250.78" font-family="arial" font-size="14.00"> Benjamin</text>
<text text-anchor="start" x="15.5" y="-235.78" font-family="arial" font-size="14.00">Hoadly </text>
</g>
<!-- EDMUND_GIBSON -->
<g id="node2" class="node">
<title>EDMUND_GIBSON</title>
<polygon fill="none" stroke="black" points="238.58,-194.22 167.58,-194.22 167.58,-156.22 238.58,-156.22 238.58,-194.22"/>
<text text-anchor="start" x="175.58" y="-179.02" font-family="arial" font-size="14.00"> Edmund</text>
<text text-anchor="start" x="179.08" y="-164.02" font-family="arial" font-size="14.00">Gibson </text>
</g>
<!-- FRANCES_HARE -->
<g id="node3" class="node">
<title>FRANCES_HARE</title>
<polygon fill="none" stroke="black" points="320.05,-81.44 251.05,-81.44 251.05,-43.44 320.05,-43.44 320.05,-81.44"/>
<text text-anchor="start" x="259.05" y="-66.24" font-family="arial" font-size="14.00"> Frances</text>
<text text-anchor="start" x="268.55" y="-51.24" font-family="arial" font-size="14.00">Hare </text>
</g>
<!-- JAMES_RALPH -->
<g id="node4" class="node">
<title>JAMES_RALPH</title>
<polygon fill="none" stroke="black" points="443.82,-38 382.82,-38 382.82,0 443.82,0 443.82,-38"/>
<text text-anchor="start" x="390.82" y="-22.8" font-family="arial" font-size="14.00"> James</text>
<text text-anchor="start" x="393.32" y="-7.8" font-family="arial" font-size="14.00">Ralph </text>
</g>
<!-- JOHN_HENLEY -->
<g id="node5" class="node">
<title>JOHN_HENLEY</title>
<polygon fill="none" stroke="black" points="450.57,-265.98 388.57,-265.98 388.57,-227.98 450.57,-227.98 450.57,-265.98"/>
<text text-anchor="start" x="402.57" y="-250.78" font-family="arial" font-size="14.00"> John</text>
<text text-anchor="start" x="396.57" y="-235.78" font-family="arial" font-size="14.00">Henley </text>
</g>
<!-- JOHN_HENLEY&#45;&gt;BENJAMIN_HOADLY -->
<g id="edge1" class="edge">
<title>JOHN_HENLEY&#45;&gt;BENJAMIN_HOADLY</title>
<path fill="none" stroke="green" d="M388.38,-246.98C322.12,-246.98 166.89,-246.98 87.35,-246.98"/>
<polygon fill="green" stroke="green" points="87.11,-243.48 77.11,-246.98 87.11,-250.48 87.11,-243.48"/>
</g>
<!-- JOHN_HENLEY&#45;&gt;EDMUND_GIBSON -->
<g id="edge2" class="edge">
<title>JOHN_HENLEY&#45;&gt;EDMUND_GIBSON</title>
<path fill="none" stroke="green" d="M388.55,-236.7C351.86,-224.54 290.46,-204.19 248.44,-190.26"/>
<polygon fill="green" stroke="green" points="249.32,-186.86 238.72,-187.04 247.11,-193.51 249.32,-186.86"/>
</g>
<!-- JOHN_HENLEY&#45;&gt;FRANCES_HARE -->
<g id="edge3" class="edge">
<title>JOHN_HENLEY&#45;&gt;FRANCES_HARE</title>
<path fill="none" stroke="green" d="M405.73,-227.93C381.96,-195.19 333.26,-128.13 305.71,-90.2"/>
<polygon fill="green" stroke="green" points="308.22,-87.7 299.52,-81.67 302.56,-91.82 308.22,-87.7"/>
</g>
<!-- JOHN_HENLEY&#45;&gt;JAMES_RALPH -->
<g id="edge4" class="edge">
<title>JOHN_HENLEY&#45;&gt;JAMES_RALPH</title>
<path fill="none" stroke="green" d="M419.05,-227.94C417.96,-188.12 415.43,-95.86 414.13,-48.38"/>
<polygon fill="green" stroke="green" points="417.62,-48.05 413.84,-38.15 410.62,-48.24 417.62,-48.05"/>
</g>
<!-- JOHN_TOLAND -->
<g id="node6" class="node">
<title>JOHN_TOLAND</title>
<polygon fill="none" stroke="black" points="569.47,-71.97 509.47,-71.97 509.47,-33.97 569.47,-33.97 569.47,-71.97"/>
<text text-anchor="start" x="522.47" y="-56.77" font-family="arial" font-size="14.00"> John</text>
<text text-anchor="start" x="517.47" y="-41.77" font-family="arial" font-size="14.00">Toland </text>
</g>
<!-- JOHN_HENLEY&#45;&gt;JOHN_TOLAND -->
<g id="edge5" class="edge">
<title>JOHN_HENLEY&#45;&gt;JOHN_TOLAND</title>
<path fill="none" stroke="green" d="M431.5,-227.67C452.83,-193.17 497.53,-120.83 522.2,-80.91"/>
<polygon fill="green" stroke="green" points="525.3,-82.55 527.58,-72.21 519.35,-78.87 525.3,-82.55"/>
</g>
<!-- LEONARD_WELSTED -->
<g id="node7" class="node">
<title>LEONARD_WELSTED</title>
<polygon fill="none" stroke="black" points="663.14,-173.71 593.14,-173.71 593.14,-135.71 663.14,-135.71 663.14,-173.71"/>
<text text-anchor="start" x="601.14" y="-158.51" font-family="arial" font-size="14.00"> Leonard</text>
<text text-anchor="start" x="601.64" y="-143.51" font-family="arial" font-size="14.00">Welsted </text>
</g>
<!-- JOHN_HENLEY&#45;&gt;LEONARD_WELSTED -->
<g id="edge6" class="edge">
<title>JOHN_HENLEY&#45;&gt;LEONARD_WELSTED</title>
<path fill="none" stroke="green" d="M450.79,-233.17C486.04,-217.58 543.65,-192.08 583.61,-174.41"/>
<polygon fill="green" stroke="green" points="585.13,-177.56 592.86,-170.32 582.3,-171.16 585.13,-177.56"/>
</g>
<!-- MATTHEW_TINDAL -->
<g id="node8" class="node">
<title>MATTHEW_TINDAL</title>
<polygon fill="none" stroke="black" points="678.61,-313.63 606.61,-313.63 606.61,-275.63 678.61,-275.63 678.61,-313.63"/>
<text text-anchor="start" x="614.61" y="-298.43" font-family="arial" font-size="14.00"> Matthew</text>
<text text-anchor="start" x="622.11" y="-283.43" font-family="arial" font-size="14.00">Tindal </text>
</g>
<!-- JOHN_HENLEY&#45;&gt;MATTHEW_TINDAL -->
<g id="edge7" class="edge">
<title>JOHN_HENLEY&#45;&gt;MATTHEW_TINDAL</title>
<path fill="none" stroke="green" d="M450.58,-253.61C488.45,-261.7 552.83,-275.45 596.51,-284.78"/>
<polygon fill="green" stroke="green" points="595.8,-288.21 606.31,-286.88 597.27,-281.36 595.8,-288.21"/>
</g>
<!-- RICHARD_BLACKMORE -->
<g id="node9" class="node">
<title>RICHARD_BLACKMORE</title>
<polygon fill="none" stroke="black" points="609.07,-440.35 524.07,-440.35 524.07,-402.35 609.07,-402.35 609.07,-440.35"/>
<text text-anchor="start" x="541.07" y="-425.15" font-family="arial" font-size="14.00"> Richard</text>
<text text-anchor="start" x="532.07" y="-410.15" font-family="arial" font-size="14.00">Blackmore </text>
</g>
<!-- JOHN_HENLEY&#45;&gt;RICHARD_BLACKMORE -->
<g id="edge8" class="edge">
<title>JOHN_HENLEY&#45;&gt;RICHARD_BLACKMORE</title>
<path fill="none" stroke="green" d="M435.86,-266.31C462.09,-297.42 513.76,-358.71 543.68,-394.2"/>
<polygon fill="green" stroke="green" points="541.31,-396.82 550.43,-402.21 546.66,-392.31 541.31,-396.82"/>
</g>
<!-- RICHARD_FLECKNOE -->
<g id="node10" class="node">
<title>RICHARD_FLECKNOE</title>
<polygon fill="none" stroke="black" points="464.82,-493.92 389.82,-493.92 389.82,-455.92 464.82,-455.92 464.82,-493.92"/>
<text text-anchor="start" x="401.82" y="-478.72" font-family="arial" font-size="14.00"> Richard</text>
<text text-anchor="start" x="397.82" y="-463.72" font-family="arial" font-size="14.00">Flecknoe </text>
</g>
<!-- JOHN_HENLEY&#45;&gt;RICHARD_FLECKNOE -->
<g id="edge9" class="edge">
<title>JOHN_HENLEY&#45;&gt;RICHARD_FLECKNOE</title>
<path fill="none" stroke="green" d="M420.22,-266.03C421.57,-305.83 424.71,-398.08 426.32,-445.54"/>
<polygon fill="green" stroke="green" points="422.83,-445.9 426.67,-455.77 429.82,-445.66 422.83,-445.9"/>
</g>
<!-- THOMAS_SHERLOCK -->
<g id="node11" class="node">
<title>THOMAS_SHERLOCK</title>
<polygon fill="none" stroke="black" points="326.13,-453.42 253.13,-453.42 253.13,-415.42 326.13,-415.42 326.13,-453.42"/>
<text text-anchor="start" x="262.63" y="-438.22" font-family="arial" font-size="14.00"> Thomas</text>
<text text-anchor="start" x="261.13" y="-423.22" font-family="arial" font-size="14.00">Sherlock </text>
</g>
<!-- JOHN_HENLEY&#45;&gt;THOMAS_SHERLOCK -->
<g id="edge10" class="edge">
<title>JOHN_HENLEY&#45;&gt;THOMAS_SHERLOCK</title>
<path fill="none" stroke="green" d="M406.39,-265.99C383.34,-299.25 335.59,-368.13 308.84,-406.7"/>
<polygon fill="green" stroke="green" points="305.66,-405.15 302.84,-415.36 311.41,-409.14 305.66,-405.15"/>
</g>
<!-- THOMAS_WOOLSTON -->
<g id="node12" class="node">
<title>THOMAS_WOOLSTON</title>
<polygon fill="none" stroke="black" points="241.58,-337.74 164.58,-337.74 164.58,-299.74 241.58,-299.74 241.58,-337.74"/>
<text text-anchor="start" x="176.08" y="-322.54" font-family="arial" font-size="14.00"> Thomas</text>
<text text-anchor="start" x="172.58" y="-307.54" font-family="arial" font-size="14.00">Woolston </text>
</g>
<!-- JOHN_HENLEY&#45;&gt;THOMAS_WOOLSTON -->
<g id="edge11" class="edge">
<title>JOHN_HENLEY&#45;&gt;THOMAS_WOOLSTON</title>
<path fill="none" stroke="green" d="M388.55,-257.26C352.73,-269.14 293.35,-288.82 251.44,-302.71"/>
<polygon fill="green" stroke="green" points="250.11,-299.47 241.72,-305.94 252.32,-306.11 250.11,-299.47"/>
</g>
</g>
</svg>
