<?xml version="1.0" encoding="UTF-8" standalone="no"?>
<!DOCTYPE svg PUBLIC "-//W3C//DTD SVG 1.1//EN"
 "http://www.w3.org/Graphics/SVG/1.1/DTD/svg11.dtd">
<!-- Generated by graphviz version 2.50.0 (0)
 -->
<!-- Title: G Pages: 1 -->
<svg width="665pt" height="487pt"
 viewBox="0.00 0.00 665.32 487.17" xmlns="http://www.w3.org/2000/svg" xmlns:xlink="http://www.w3.org/1999/xlink">
<g id="graph0" class="graph" transform="scale(1 1) rotate(0) translate(4 483.17)">
<title>G</title>
<polygon fill="white" stroke="transparent" points="-4,4 -4,-483.17 661.32,-483.17 661.32,4 -4,4"/>
<!-- BENJAMIN_HOADLY -->
<g id="node1" class="node">
<title>BENJAMIN_HOADLY</title>
<polygon fill="none" stroke="black" points="74,-258.55 0,-258.55 0,-220.55 74,-220.55 74,-258.55"/>
<text text-anchor="start" x="8" y="-243.35" font-family="Times,serif" font-size="14.00"> Benjamin</text>
<text text-anchor="start" x="15" y="-228.35" font-family="Times,serif" font-size="14.00">Hoadly </text>
</g>
<!-- EDMUND_GIBSON -->
<g id="node2" class="node">
<title>EDMUND_GIBSON</title>
<polygon fill="none" stroke="black" points="230.82,-188.77 163.82,-188.77 163.82,-150.77 230.82,-150.77 230.82,-188.77"/>
<text text-anchor="start" x="171.82" y="-173.57" font-family="Times,serif" font-size="14.00"> Edmund</text>
<text text-anchor="start" x="175.82" y="-158.57" font-family="Times,serif" font-size="14.00">Gibson </text>
</g>
<!-- FRANCES_HARE -->
<g id="node3" class="node">
<title>FRANCES_HARE</title>
<polygon fill="none" stroke="black" points="307.55,-80.29 245.55,-80.29 245.55,-42.29 307.55,-42.29 307.55,-80.29"/>
<text text-anchor="start" x="253.55" y="-65.09" font-family="Times,serif" font-size="14.00"> Frances</text>
<text text-anchor="start" x="261.05" y="-50.09" font-family="Times,serif" font-size="14.00">Hare </text>
</g>
<!-- JAMES_RALPH -->
<g id="node4" class="node">
<title>JAMES_RALPH</title>
<polygon fill="none" stroke="black" points="424.5,-38 370.5,-38 370.5,0 424.5,0 424.5,-38"/>
<text text-anchor="start" x="378.5" y="-22.8" font-family="Times,serif" font-size="14.00"> James</text>
<text text-anchor="start" x="379" y="-7.8" font-family="Times,serif" font-size="14.00">Ralph </text>
</g>
<!-- JOHN_HENLEY -->
<g id="node5" class="node">
<title>JOHN_HENLEY</title>
<polygon fill="none" stroke="black" points="436.25,-258.55 377.25,-258.55 377.25,-220.55 436.25,-220.55 436.25,-258.55"/>
<text text-anchor="start" x="391.75" y="-243.35" font-family="Times,serif" font-size="14.00"> John</text>
<text text-anchor="start" x="385.25" y="-228.35" font-family="Times,serif" font-size="14.00">Henley </text>
</g>
<!-- JOHN_HENLEY&#45;&gt;BENJAMIN_HOADLY -->
<g id="edge1" class="edge">
<title>JOHN_HENLEY&#45;&gt;BENJAMIN_HOADLY</title>
<path fill="none" stroke="green" d="M377.11,-239.55C313.2,-239.55 161.93,-239.55 84.49,-239.55"/>
<polygon fill="green" stroke="green" points="84.06,-236.05 74.06,-239.55 84.06,-243.05 84.06,-236.05"/>
</g>
<!-- JOHN_HENLEY&#45;&gt;EDMUND_GIBSON -->
<g id="edge2" class="edge">
<title>JOHN_HENLEY&#45;&gt;EDMUND_GIBSON</title>
<path fill="none" stroke="green" d="M377.19,-229.7C341.56,-217.83 281.41,-197.79 240.57,-184.18"/>
<polygon fill="green" stroke="green" points="241.48,-180.8 230.89,-180.96 239.27,-187.44 241.48,-180.8"/>
</g>
<!-- JOHN_HENLEY&#45;&gt;FRANCES_HARE -->
<g id="edge3" class="edge">
<title>JOHN_HENLEY&#45;&gt;FRANCES_HARE</title>
<path fill="none" stroke="green" d="M392.81,-220.48C369.68,-188.8 323.24,-125.22 296.59,-88.72"/>
<polygon fill="green" stroke="green" points="299.31,-86.51 290.58,-80.5 293.65,-90.64 299.31,-86.51"/>
</g>
<!-- JOHN_HENLEY&#45;&gt;JAMES_RALPH -->
<g id="edge4" class="edge">
<title>JOHN_HENLEY&#45;&gt;JAMES_RALPH</title>
<path fill="none" stroke="green" d="M405.94,-220.37C404.32,-181.75 400.66,-94.43 398.74,-48.5"/>
<polygon fill="green" stroke="green" points="402.23,-48.14 398.31,-38.3 395.23,-48.44 402.23,-48.14"/>
</g>
<!-- JOHN_TOLAND -->
<g id="node6" class="node">
<title>JOHN_TOLAND</title>
<polygon fill="none" stroke="black" points="549.78,-69.24 490.78,-69.24 490.78,-31.24 549.78,-31.24 549.78,-69.24"/>
<text text-anchor="start" x="505.28" y="-54.04" font-family="Times,serif" font-size="14.00"> John</text>
<text text-anchor="start" x="498.78" y="-39.04" font-family="Times,serif" font-size="14.00">Toland </text>
</g>
<!-- JOHN_HENLEY&#45;&gt;JOHN_TOLAND -->
<g id="edge5" class="edge">
<title>JOHN_HENLEY&#45;&gt;JOHN_TOLAND</title>
<path fill="none" stroke="green" d="M418.26,-220.36C438.4,-186.77 480.13,-117.2 503.49,-78.23"/>
<polygon fill="green" stroke="green" points="506.6,-79.86 508.74,-69.49 500.6,-76.26 506.6,-79.86"/>
</g>
<!-- LEONARD_WELSTED -->
<g id="node7" class="node">
<title>LEONARD_WELSTED</title>
<polygon fill="none" stroke="black" points="640.49,-167.82 575.49,-167.82 575.49,-129.82 640.49,-129.82 640.49,-167.82"/>
<text text-anchor="start" x="583.49" y="-152.62" font-family="Times,serif" font-size="14.00"> Leonard</text>
<text text-anchor="start" x="583.49" y="-137.62" font-family="Times,serif" font-size="14.00">Welsted </text>
</g>
<!-- JOHN_HENLEY&#45;&gt;LEONARD_WELSTED -->
<g id="edge6" class="edge">
<title>JOHN_HENLEY&#45;&gt;LEONARD_WELSTED</title>
<path fill="none" stroke="green" d="M436.44,-226.17C470.61,-210.76 526.98,-185.35 565.72,-167.88"/>
<polygon fill="green" stroke="green" points="567.48,-170.93 575.16,-163.62 564.61,-164.54 567.48,-170.93"/>
</g>
<!-- MATTHEW_TINDAL -->
<g id="node8" class="node">
<title>MATTHEW_TINDAL</title>
<polygon fill="none" stroke="black" points="657.32,-303.73 588.32,-303.73 588.32,-265.73 657.32,-265.73 657.32,-303.73"/>
<text text-anchor="start" x="596.32" y="-288.53" font-family="Times,serif" font-size="14.00"> Matthew</text>
<text text-anchor="start" x="602.82" y="-273.53" font-family="Times,serif" font-size="14.00">Tindal </text>
</g>
<!-- JOHN_HENLEY&#45;&gt;MATTHEW_TINDAL -->
<g id="edge7" class="edge">
<title>JOHN_HENLEY&#45;&gt;MATTHEW_TINDAL</title>
<path fill="none" stroke="green" d="M436.34,-245.74C473.04,-253.42 535.95,-266.57 578.44,-275.45"/>
<polygon fill="green" stroke="green" points="577.74,-278.88 588.24,-277.5 579.17,-272.03 577.74,-278.88"/>
</g>
<!-- RICHARD_BLACKMORE -->
<g id="node9" class="node">
<title>RICHARD_BLACKMORE</title>
<polygon fill="none" stroke="black" points="589.13,-427.25 509.13,-427.25 509.13,-389.25 589.13,-389.25 589.13,-427.25"/>
<text text-anchor="start" x="525.63" y="-412.05" font-family="Times,serif" font-size="14.00"> Richard</text>
<text text-anchor="start" x="517.13" y="-397.05" font-family="Times,serif" font-size="14.00">Blackmore </text>
</g>
<!-- JOHN_HENLEY&#45;&gt;RICHARD_BLACKMORE -->
<g id="edge8" class="edge">
<title>JOHN_HENLEY&#45;&gt;RICHARD_BLACKMORE</title>
<path fill="none" stroke="green" d="M422.8,-258.58C448.12,-288.57 497.4,-346.96 526.36,-381.27"/>
<polygon fill="green" stroke="green" points="523.79,-383.65 532.91,-389.03 529.14,-379.13 523.79,-383.65"/>
</g>
<!-- RICHARD_FLECKNOE -->
<g id="node10" class="node">
<title>RICHARD_FLECKNOE</title>
<polygon fill="none" stroke="black" points="449.5,-479.17 379.5,-479.17 379.5,-441.17 449.5,-441.17 449.5,-479.17"/>
<text text-anchor="start" x="391" y="-463.97" font-family="Times,serif" font-size="14.00"> Richard</text>
<text text-anchor="start" x="387.5" y="-448.97" font-family="Times,serif" font-size="14.00">Flecknoe </text>
</g>
<!-- JOHN_HENLEY&#45;&gt;RICHARD_FLECKNOE -->
<g id="edge9" class="edge">
<title>JOHN_HENLEY&#45;&gt;RICHARD_FLECKNOE</title>
<path fill="none" stroke="green" d="M407.42,-258.75C408.78,-297.37 411.85,-384.72 413.46,-430.66"/>
<polygon fill="green" stroke="green" points="409.97,-430.99 413.82,-440.86 416.97,-430.74 409.97,-430.99"/>
</g>
<!-- THOMAS_SHERLOCK -->
<g id="node11" class="node">
<title>THOMAS_SHERLOCK</title>
<polygon fill="none" stroke="black" points="315.44,-440.29 247.44,-440.29 247.44,-402.29 315.44,-402.29 315.44,-440.29"/>
<text text-anchor="start" x="257.44" y="-425.09" font-family="Times,serif" font-size="14.00"> Thomas</text>
<text text-anchor="start" x="255.44" y="-410.09" font-family="Times,serif" font-size="14.00">Sherlock </text>
</g>
<!-- JOHN_HENLEY&#45;&gt;THOMAS_SHERLOCK -->
<g id="edge10" class="edge">
<title>JOHN_HENLEY&#45;&gt;THOMAS_SHERLOCK</title>
<path fill="none" stroke="green" d="M393.58,-258.66C371.3,-290.97 326.1,-356.53 300.41,-393.79"/>
<polygon fill="green" stroke="green" points="297.42,-391.95 294.63,-402.17 303.19,-395.92 297.42,-391.95"/>
</g>
<!-- THOMAS_WOOLSTON -->
<g id="node12" class="node">
<title>THOMAS_WOOLSTON</title>
<polygon fill="none" stroke="black" points="233.82,-328.34 160.82,-328.34 160.82,-290.34 233.82,-290.34 233.82,-328.34"/>
<text text-anchor="start" x="173.32" y="-313.14" font-family="Times,serif" font-size="14.00"> Thomas</text>
<text text-anchor="start" x="168.82" y="-298.14" font-family="Times,serif" font-size="14.00">Woolston </text>
</g>
<!-- JOHN_HENLEY&#45;&gt;THOMAS_WOOLSTON -->
<g id="edge11" class="edge">
<title>JOHN_HENLEY&#45;&gt;THOMAS_WOOLSTON</title>
<path fill="none" stroke="green" d="M377.19,-249.4C342.5,-260.96 284.56,-280.27 243.83,-293.84"/>
<polygon fill="green" stroke="green" points="242.51,-290.59 234.13,-297.07 244.73,-297.23 242.51,-290.59"/>
</g>
</g>
</svg>
