<?xml version="1.0" encoding="UTF-8" standalone="no"?>
<!DOCTYPE svg PUBLIC "-//W3C//DTD SVG 1.1//EN"
 "http://www.w3.org/Graphics/SVG/1.1/DTD/svg11.dtd">
<!-- Generated by graphviz version 2.50.0 (0)
 -->
<!-- Title: G Pages: 1 -->
<svg width="1386pt" height="1204pt"
 viewBox="0.00 0.00 1385.84 1203.79" xmlns="http://www.w3.org/2000/svg" xmlns:xlink="http://www.w3.org/1999/xlink">
<g id="graph0" class="graph" transform="scale(1 1) rotate(0) translate(4 1199.79)">
<title>G</title>
<polygon fill="white" stroke="transparent" points="-4,4 -4,-1199.79 1381.84,-1199.79 1381.84,4 -4,4"/>
<!-- ALEXANDER_POPE -->
<g id="node1" class="node">
<title>ALEXANDER_POPE</title>
<polygon fill="none" stroke="black" points="76,-615.39 0,-615.39 0,-577.39 76,-577.39 76,-615.39"/>
<text text-anchor="start" x="8" y="-600.19" font-family="Times,serif" font-size="14.00"> Alexander</text>
<text text-anchor="start" x="22.5" y="-585.19" font-family="Times,serif" font-size="14.00">Pope </text>
</g>
<!-- A_BOYER -->
<g id="node2" class="node">
<title>A_BOYER</title>
<polygon fill="none" stroke="black" points="218.72,-549.78 164.72,-549.78 164.72,-511.78 218.72,-511.78 218.72,-549.78"/>
<text text-anchor="start" x="185.22" y="-534.58" font-family="Times,serif" font-size="14.00"> A</text>
<text text-anchor="start" x="173.22" y="-519.58" font-family="Times,serif" font-size="14.00">Boyer </text>
</g>
<!-- A_MOORE -->
<g id="node3" class="node">
<title>A_MOORE</title>
<polygon fill="none" stroke="black" points="248.37,-425.69 191.37,-425.69 191.37,-387.69 248.37,-387.69 248.37,-425.69"/>
<text text-anchor="start" x="213.37" y="-410.49" font-family="Times,serif" font-size="14.00"> A</text>
<text text-anchor="start" x="199.37" y="-395.49" font-family="Times,serif" font-size="14.00">Moore </text>
</g>
<!-- BAVIUS -->
<g id="node4" class="node">
<title>BAVIUS</title>
<polygon fill="none" stroke="black" points="307.5,-306.32 245.5,-306.32 245.5,-270.32 307.5,-270.32 307.5,-306.32"/>
<text text-anchor="start" x="253.5" y="-284.62" font-family="Times,serif" font-size="14.00"> Bavius </text>
</g>
<!-- BB -->
<g id="node5" class="node">
<title>BB</title>
<polygon fill="none" stroke="black" points="384.21,-204.76 330.21,-204.76 330.21,-168.76 384.21,-168.76 384.21,-204.76"/>
<text text-anchor="start" x="340.21" y="-183.06" font-family="Times,serif" font-size="14.00"> B.B. </text>
</g>
<!-- BERNARD_LINTOT -->
<g id="node6" class="node">
<title>BERNARD_LINTOT</title>
<polygon fill="none" stroke="black" points="491.31,-124.12 427.31,-124.12 427.31,-86.12 491.31,-86.12 491.31,-124.12"/>
<text text-anchor="start" x="435.31" y="-108.92" font-family="Times,serif" font-size="14.00"> Bernard</text>
<text text-anchor="start" x="440.81" y="-93.92" font-family="Times,serif" font-size="14.00">Lintot </text>
</g>
<!-- CHARLES_GILDON -->
<g id="node7" class="node">
<title>CHARLES_GILDON</title>
<polygon fill="none" stroke="black" points="611.87,-66.1 549.87,-66.1 549.87,-28.1 611.87,-28.1 611.87,-66.1"/>
<text text-anchor="start" x="557.87" y="-50.9" font-family="Times,serif" font-size="14.00"> Charles</text>
<text text-anchor="start" x="559.87" y="-35.9" font-family="Times,serif" font-size="14.00">Gildon </text>
</g>
<!-- COLLEY_CIBBER -->
<g id="node8" class="node">
<title>COLLEY_CIBBER</title>
<polygon fill="none" stroke="black" points="737.54,-38 680.54,-38 680.54,0 737.54,0 737.54,-38"/>
<text text-anchor="start" x="689.04" y="-22.8" font-family="Times,serif" font-size="14.00"> Colley</text>
<text text-anchor="start" x="688.54" y="-7.8" font-family="Times,serif" font-size="14.00">Cibber </text>
</g>
<!-- EDMUND_CURLL -->
<g id="node9" class="node">
<title>EDMUND_CURLL</title>
<polygon fill="none" stroke="black" points="876.23,-39.73 809.23,-39.73 809.23,-1.73 876.23,-1.73 876.23,-39.73"/>
<text text-anchor="start" x="817.23" y="-24.53" font-family="Times,serif" font-size="14.00"> Edmund</text>
<text text-anchor="start" x="826.73" y="-9.53" font-family="Times,serif" font-size="14.00">Curll </text>
</g>
<!-- ELKANAH_SETTLE -->
<g id="node10" class="node">
<title>ELKANAH_SETTLE</title>
<polygon fill="none" stroke="black" points="1008.72,-73.42 943.72,-73.42 943.72,-35.42 1008.72,-35.42 1008.72,-73.42"/>
<text text-anchor="start" x="951.72" y="-58.22" font-family="Times,serif" font-size="14.00"> Elkanah</text>
<text text-anchor="start" x="958.72" y="-43.22" font-family="Times,serif" font-size="14.00">Settle </text>
</g>
<!-- GEORGE_DUCKET -->
<g id="node11" class="node">
<title>GEORGE_DUCKET</title>
<polygon fill="none" stroke="black" points="1125.14,-135.62 1065.14,-135.62 1065.14,-97.62 1125.14,-97.62 1125.14,-135.62"/>
<text text-anchor="start" x="1073.14" y="-120.42" font-family="Times,serif" font-size="14.00"> George</text>
<text text-anchor="start" x="1073.64" y="-105.42" font-family="Times,serif" font-size="14.00">Ducket </text>
</g>
<!-- GEORGE_DUCKETT -->
<g id="node12" class="node">
<title>GEORGE_DUCKETT</title>
<polygon fill="none" stroke="black" points="1227.41,-222.74 1164.41,-222.74 1164.41,-184.74 1227.41,-184.74 1227.41,-222.74"/>
<text text-anchor="start" x="1173.91" y="-207.54" font-family="Times,serif" font-size="14.00"> George</text>
<text text-anchor="start" x="1172.41" y="-192.54" font-family="Times,serif" font-size="14.00">Duckett </text>
</g>
<!-- GILES_JACOB -->
<g id="node13" class="node">
<title>GILES_JACOB</title>
<polygon fill="none" stroke="black" points="1299.69,-327.92 1245.69,-327.92 1245.69,-289.92 1299.69,-289.92 1299.69,-327.92"/>
<text text-anchor="start" x="1256.19" y="-312.72" font-family="Times,serif" font-size="14.00"> Giles</text>
<text text-anchor="start" x="1255.19" y="-297.72" font-family="Times,serif" font-size="14.00">Jacob </text>
</g>
<!-- HILKIAH_BEDFORD -->
<g id="node14" class="node">
<title>HILKIAH_BEDFORD</title>
<polygon fill="none" stroke="black" points="1356.87,-448.53 1291.87,-448.53 1291.87,-410.53 1356.87,-410.53 1356.87,-448.53"/>
<text text-anchor="start" x="1301.87" y="-433.33" font-family="Times,serif" font-size="14.00"> Hilkiah</text>
<text text-anchor="start" x="1299.87" y="-418.33" font-family="Times,serif" font-size="14.00">Bedford </text>
</g>
<!-- JEREMY_COLLIER -->
<g id="node15" class="node">
<title>JEREMY_COLLIER</title>
<polygon fill="none" stroke="black" points="1377.84,-580.66 1317.84,-580.66 1317.84,-542.66 1377.84,-542.66 1377.84,-580.66"/>
<text text-anchor="start" x="1325.84" y="-565.46" font-family="Times,serif" font-size="14.00"> Jeremy</text>
<text text-anchor="start" x="1326.84" y="-550.46" font-family="Times,serif" font-size="14.00">Collier </text>
</g>
<!-- JOHN_ANSTIS -->
<g id="node16" class="node">
<title>JOHN_ANSTIS</title>
<polygon fill="none" stroke="black" points="1368.66,-709.72 1313.66,-709.72 1313.66,-671.72 1368.66,-671.72 1368.66,-709.72"/>
<text text-anchor="start" x="1326.16" y="-694.52" font-family="Times,serif" font-size="14.00"> John</text>
<text text-anchor="start" x="1321.66" y="-679.52" font-family="Times,serif" font-size="14.00">Anstis </text>
</g>
<!-- JOHN_DENNIS -->
<g id="node17" class="node">
<title>JOHN_DENNIS</title>
<polygon fill="none" stroke="black" points="797.94,-615.39 738.94,-615.39 738.94,-577.39 797.94,-577.39 797.94,-615.39"/>
<text text-anchor="start" x="753.44" y="-600.19" font-family="Times,serif" font-size="14.00"> John</text>
<text text-anchor="start" x="746.94" y="-585.19" font-family="Times,serif" font-size="14.00">Dennis </text>
</g>
<!-- JOHN_DENNIS&#45;&gt;ALEXANDER_POPE -->
<g id="edge1" class="edge">
<title>JOHN_DENNIS&#45;&gt;ALEXANDER_POPE</title>
<path fill="none" stroke="red" d="M738.9,-596.39C626.79,-596.39 226.86,-596.39 86.84,-596.39"/>
<polygon fill="red" stroke="red" points="86.44,-592.89 76.44,-596.39 86.44,-599.89 86.44,-592.89"/>
</g>
<!-- JOHN_DENNIS&#45;&gt;A_BOYER -->
<g id="edge2" class="edge">
<title>JOHN_DENNIS&#45;&gt;A_BOYER</title>
<path fill="none" stroke="red" d="M738.65,-593C641.77,-581.98 335.78,-547.17 228.96,-535.02"/>
<polygon fill="red" stroke="red" points="229.29,-531.53 218.96,-533.88 228.5,-538.49 229.29,-531.53"/>
</g>
<!-- JOHN_DENNIS&#45;&gt;A_MOORE -->
<g id="edge3" class="edge">
<title>JOHN_DENNIS&#45;&gt;A_MOORE</title>
<path fill="none" stroke="green" d="M738.56,-586.06C645.62,-553.92 361.73,-455.75 258.19,-419.94"/>
<polygon fill="green" stroke="green" points="259.05,-416.54 248.46,-416.58 256.76,-423.15 259.05,-416.54"/>
</g>
<!-- JOHN_DENNIS&#45;&gt;BAVIUS -->
<g id="edge4" class="edge">
<title>JOHN_DENNIS&#45;&gt;BAVIUS</title>
<path fill="none" stroke="blue" d="M738.77,-577.81C653.55,-524.44 408.09,-370.73 313.91,-311.75"/>
<polygon fill="blue" stroke="blue" points="315.61,-308.68 305.28,-306.34 311.89,-314.61 315.61,-308.68"/>
</g>
<!-- JOHN_DENNIS&#45;&gt;BB -->
<g id="edge5" class="edge">
<title>JOHN_DENNIS&#45;&gt;BB</title>
<path fill="none" stroke="green" d="M749.16,-577.18C682.07,-510.35 458.82,-287.97 382.81,-212.25"/>
<polygon fill="green" stroke="green" points="385.07,-209.56 375.51,-204.98 380.13,-214.52 385.07,-209.56"/>
</g>
<!-- JOHN_DENNIS&#45;&gt;BERNARD_LINTOT -->
<g id="edge6" class="edge">
<title>JOHN_DENNIS&#45;&gt;BERNARD_LINTOT</title>
<path fill="none" stroke="green" d="M756.32,-577.13C708.51,-501.15 532.86,-222 476.7,-132.75"/>
<polygon fill="green" stroke="green" points="479.63,-130.84 471.34,-124.25 473.71,-134.57 479.63,-130.84"/>
</g>
<!-- JOHN_DENNIS&#45;&gt;CHARLES_GILDON -->
<g id="edge7" class="edge">
<title>JOHN_DENNIS&#45;&gt;CHARLES_GILDON</title>
<path fill="none" stroke="green" d="M761.87,-577.16C733.85,-495.09 624.15,-173.86 590.64,-75.73"/>
<polygon fill="green" stroke="green" points="593.92,-74.5 587.38,-66.17 587.3,-76.76 593.92,-74.5"/>
</g>
<!-- JOHN_DENNIS&#45;&gt;COLLEY_CIBBER -->
<g id="edge8" class="edge">
<title>JOHN_DENNIS&#45;&gt;COLLEY_CIBBER</title>
<path fill="none" stroke="green" d="M766.46,-577.18C757.73,-492.32 722.6,-150.79 712.05,-48.25"/>
<polygon fill="green" stroke="green" points="715.53,-47.87 711.03,-38.28 708.57,-48.59 715.53,-47.87"/>
</g>
<!-- JOHN_DENNIS&#45;&gt;EDMUND_CURLL -->
<g id="edge9" class="edge">
<title>JOHN_DENNIS&#45;&gt;EDMUND_CURLL</title>
<path fill="none" stroke="green" d="M770.91,-577.24C781.83,-492.64 825.78,-152.12 838.97,-49.89"/>
<polygon fill="green" stroke="green" points="842.44,-50.32 840.25,-39.95 835.5,-49.42 842.44,-50.32"/>
</g>
<!-- JOHN_DENNIS&#45;&gt;ELKANAH_SETTLE -->
<g id="edge10" class="edge">
<title>JOHN_DENNIS&#45;&gt;ELKANAH_SETTLE</title>
<path fill="none" stroke="green" d="M775.83,-577.1C807.04,-495.69 928.1,-179.95 965.29,-82.93"/>
<polygon fill="green" stroke="green" points="968.6,-84.07 968.92,-73.48 962.07,-81.56 968.6,-84.07"/>
</g>
<!-- JOHN_DENNIS&#45;&gt;GEORGE_DUCKET -->
<g id="edge11" class="edge">
<title>JOHN_DENNIS&#45;&gt;GEORGE_DUCKET</title>
<path fill="none" stroke="blue" d="M781.45,-577.29C832.16,-502.81 1016.73,-231.76 1076.39,-144.14"/>
<polygon fill="blue" stroke="blue" points="1079.35,-146.02 1082.09,-135.78 1073.57,-142.08 1079.35,-146.02"/>
</g>
<!-- JOHN_DENNIS&#45;&gt;GEORGE_DUCKETT -->
<g id="edge12" class="edge">
<title>JOHN_DENNIS&#45;&gt;GEORGE_DUCKETT</title>
<path fill="none" stroke="green" d="M789.35,-577.19C859.52,-512.73 1086.73,-304.02 1167.27,-230.04"/>
<polygon fill="green" stroke="green" points="1170.04,-232.25 1175.04,-222.9 1165.31,-227.09 1170.04,-232.25"/>
</g>
<!-- JOHN_DENNIS&#45;&gt;GILES_JACOB -->
<g id="edge13" class="edge">
<title>JOHN_DENNIS&#45;&gt;GILES_JACOB</title>
<path fill="none" stroke="green" d="M798.1,-579.48C885.44,-529.69 1141.51,-383.7 1236.6,-329.49"/>
<polygon fill="green" stroke="green" points="1238.6,-332.38 1245.55,-324.39 1235.13,-326.3 1238.6,-332.38"/>
</g>
<!-- JOHN_DENNIS&#45;&gt;HILKIAH_BEDFORD -->
<g id="edge14" class="edge">
<title>JOHN_DENNIS&#45;&gt;HILKIAH_BEDFORD</title>
<path fill="none" stroke="red" d="M798.33,-587.42C891.06,-559.59 1174.1,-474.63 1281.99,-442.25"/>
<polygon fill="red" stroke="red" points="1283,-445.6 1291.57,-439.38 1280.99,-438.9 1283,-445.6"/>
</g>
<!-- JOHN_DENNIS&#45;&gt;JEREMY_COLLIER -->
<g id="edge15" class="edge">
<title>JOHN_DENNIS&#45;&gt;JEREMY_COLLIER</title>
<path fill="none" stroke="red" d="M797.97,-594.62C894.03,-588.86 1197.76,-570.66 1307.66,-564.07"/>
<polygon fill="red" stroke="red" points="1307.9,-567.56 1317.67,-563.47 1307.48,-560.57 1307.9,-567.56"/>
</g>
<!-- JOHN_DENNIS&#45;&gt;JOHN_ANSTIS -->
<g id="edge16" class="edge">
<title>JOHN_DENNIS&#45;&gt;JOHN_ANSTIS</title>
<path fill="none" stroke="green" d="M798.02,-601.26C894.01,-617.07 1196.7,-666.93 1303.44,-684.51"/>
<polygon fill="green" stroke="green" points="1303.01,-687.98 1313.44,-686.16 1304.14,-681.08 1303.01,-687.98"/>
</g>
<!-- JOHN_DRYDEN -->
<g id="node18" class="node">
<title>JOHN_DRYDEN</title>
<polygon fill="none" stroke="black" points="1336.4,-834.57 1275.4,-834.57 1275.4,-796.57 1336.4,-796.57 1336.4,-834.57"/>
<text text-anchor="start" x="1290.9" y="-819.37" font-family="Times,serif" font-size="14.00"> John</text>
<text text-anchor="start" x="1283.4" y="-804.37" font-family="Times,serif" font-size="14.00">Dryden </text>
</g>
<!-- JOHN_DENNIS&#45;&gt;JOHN_DRYDEN -->
<g id="edge17" class="edge">
<title>JOHN_DENNIS&#45;&gt;JOHN_DRYDEN</title>
<path fill="none" stroke="red" d="M798.1,-608.49C888.81,-645.48 1162.6,-757.13 1265.89,-799.25"/>
<polygon fill="red" stroke="red" points="1264.76,-802.57 1275.34,-803.1 1267.4,-796.09 1264.76,-802.57"/>
</g>
<!-- JOHN_GAY -->
<g id="node19" class="node">
<title>JOHN_GAY</title>
<polygon fill="none" stroke="black" points="1271.09,-948.05 1217.09,-948.05 1217.09,-910.05 1271.09,-910.05 1271.09,-948.05"/>
<text text-anchor="start" x="1229.09" y="-932.85" font-family="Times,serif" font-size="14.00"> John</text>
<text text-anchor="start" x="1230.59" y="-917.85" font-family="Times,serif" font-size="14.00">Gay </text>
</g>
<!-- JOHN_DENNIS&#45;&gt;JOHN_GAY -->
<g id="edge18" class="edge">
<title>JOHN_DENNIS&#45;&gt;JOHN_GAY</title>
<path fill="none" stroke="red" d="M795.72,-615.47C876.99,-672.31 1117.49,-840.51 1208.58,-904.22"/>
<polygon fill="red" stroke="red" points="1206.72,-907.19 1216.92,-910.05 1210.73,-901.45 1206.72,-907.19"/>
</g>
<!-- JOHN_OLDMIXON -->
<g id="node20" class="node">
<title>JOHN_OLDMIXON</title>
<polygon fill="none" stroke="black" points="1191.11,-1050.06 1115.11,-1050.06 1115.11,-1012.06 1191.11,-1012.06 1191.11,-1050.06"/>
<text text-anchor="start" x="1138.11" y="-1034.86" font-family="Times,serif" font-size="14.00"> John</text>
<text text-anchor="start" x="1123.11" y="-1019.86" font-family="Times,serif" font-size="14.00">Oldmixon </text>
</g>
<!-- JOHN_DENNIS&#45;&gt;JOHN_OLDMIXON -->
<g id="edge19" class="edge">
<title>JOHN_DENNIS&#45;&gt;JOHN_OLDMIXON</title>
<path fill="none" stroke="green" d="M785.46,-615.63C847.03,-685.2 1058.24,-923.86 1129.45,-1004.33"/>
<polygon fill="green" stroke="green" points="1127.03,-1006.87 1136.28,-1012.04 1132.27,-1002.24 1127.03,-1006.87"/>
</g>
<!-- LEONARD_WELSTED -->
<g id="node21" class="node">
<title>LEONARD_WELSTED</title>
<polygon fill="none" stroke="black" points="1068.43,-1130.52 1003.43,-1130.52 1003.43,-1092.52 1068.43,-1092.52 1068.43,-1130.52"/>
<text text-anchor="start" x="1011.43" y="-1115.32" font-family="Times,serif" font-size="14.00"> Leonard</text>
<text text-anchor="start" x="1011.43" y="-1100.32" font-family="Times,serif" font-size="14.00">Welsted </text>
</g>
<!-- JOHN_DENNIS&#45;&gt;LEONARD_WELSTED -->
<g id="edge20" class="edge">
<title>JOHN_DENNIS&#45;&gt;LEONARD_WELSTED</title>
<path fill="none" stroke="green" d="M775.41,-615.66C810.42,-694.32 964.19,-990.93 1017.69,-1083.66"/>
<polygon fill="green" stroke="green" points="1014.77,-1085.61 1022.84,-1092.48 1020.82,-1082.08 1014.77,-1085.61"/>
</g>
<!-- JOHN_DENNIS&#45;&gt;LEONARD_WELSTED -->
<g id="edge21" class="edge">
<title>JOHN_DENNIS&#45;&gt;LEONARD_WELSTED</title>
<path fill="none" stroke="blue" d="M781.62,-615.59C828.03,-693.96 981.69,-989.6 1024.78,-1083.05"/>
<polygon fill="blue" stroke="blue" points="1021.72,-1084.78 1029.04,-1092.44 1028.1,-1081.88 1021.72,-1084.78"/>
</g>
<!-- LEWIS_THEOBALD -->
<g id="node22" class="node">
<title>LEWIS_THEOBALD</title>
<polygon fill="none" stroke="black" points="940.64,-1179.5 869.64,-1179.5 869.64,-1141.5 940.64,-1141.5 940.64,-1179.5"/>
<text text-anchor="start" x="886.64" y="-1164.3" font-family="Times,serif" font-size="14.00"> Lewis</text>
<text text-anchor="start" x="877.64" y="-1149.3" font-family="Times,serif" font-size="14.00">Theobald </text>
</g>
<!-- JOHN_DENNIS&#45;&gt;LEWIS_THEOBALD -->
<g id="edge22" class="edge">
<title>JOHN_DENNIS&#45;&gt;LEWIS_THEOBALD</title>
<path fill="none" stroke="green" d="M773.06,-615.48C793.27,-698.85 873.82,-1031.27 898.15,-1131.65"/>
<polygon fill="green" stroke="green" points="894.76,-1132.52 900.52,-1141.41 901.56,-1130.87 894.76,-1132.52"/>
</g>
<!-- MATTHEW_CONCANEN -->
<g id="node23" class="node">
<title>MATTHEW_CONCANEN</title>
<polygon fill="none" stroke="black" points="798.94,-1195.79 724.94,-1195.79 724.94,-1157.79 798.94,-1157.79 798.94,-1195.79"/>
<text text-anchor="start" x="735.44" y="-1180.59" font-family="Times,serif" font-size="14.00"> Matthew</text>
<text text-anchor="start" x="732.94" y="-1165.59" font-family="Times,serif" font-size="14.00">Concanen </text>
</g>
<!-- JOHN_DENNIS&#45;&gt;MATTHEW_CONCANEN -->
<g id="edge23" class="edge">
<title>JOHN_DENNIS&#45;&gt;MATTHEW_CONCANEN</title>
<path fill="none" stroke="green" d="M768.22,-615.7C767.27,-701.01 763.42,-1044.39 762.27,-1147.42"/>
<polygon fill="green" stroke="green" points="758.76,-1147.67 762.15,-1157.7 765.76,-1147.74 758.76,-1147.67"/>
</g>
<!-- RICHARD_BLACKMORE -->
<g id="node24" class="node">
<title>RICHARD_BLACKMORE</title>
<polygon fill="none" stroke="black" points="654.79,-1175.12 574.79,-1175.12 574.79,-1137.12 654.79,-1137.12 654.79,-1175.12"/>
<text text-anchor="start" x="591.29" y="-1159.92" font-family="Times,serif" font-size="14.00"> Richard</text>
<text text-anchor="start" x="582.79" y="-1144.92" font-family="Times,serif" font-size="14.00">Blackmore </text>
</g>
<!-- JOHN_DENNIS&#45;&gt;RICHARD_BLACKMORE -->
<g id="edge24" class="edge">
<title>JOHN_DENNIS&#45;&gt;RICHARD_BLACKMORE</title>
<path fill="none" stroke="green" d="M763.15,-615.66C740.32,-698.84 650.12,-1027.42 622.72,-1127.22"/>
<polygon fill="green" stroke="green" points="619.33,-1126.37 620.06,-1136.94 626.08,-1128.22 619.33,-1126.37"/>
</g>
<!-- S_POPPING -->
<g id="node25" class="node">
<title>S_POPPING</title>
<polygon fill="none" stroke="black" points="514.12,-1120.01 449.12,-1120.01 449.12,-1082.01 514.12,-1082.01 514.12,-1120.01"/>
<text text-anchor="start" x="475.62" y="-1104.81" font-family="Times,serif" font-size="14.00"> S</text>
<text text-anchor="start" x="457.12" y="-1089.81" font-family="Times,serif" font-size="14.00">Popping </text>
</g>
<!-- JOHN_DENNIS&#45;&gt;S_POPPING -->
<g id="edge25" class="edge">
<title>JOHN_DENNIS&#45;&gt;S_POPPING</title>
<path fill="none" stroke="green" d="M757.54,-615.56C713.62,-692.84 549.4,-981.76 497.47,-1073.13"/>
<polygon fill="green" stroke="green" points="494.42,-1071.4 492.52,-1081.83 500.51,-1074.86 494.42,-1071.4"/>
</g>
<!-- THOMAS_COOKE -->
<g id="node26" class="node">
<title>THOMAS_COOKE</title>
<polygon fill="none" stroke="black" points="403.93,-1039.29 339.93,-1039.29 339.93,-1001.29 403.93,-1001.29 403.93,-1039.29"/>
<text text-anchor="start" x="347.93" y="-1024.09" font-family="Times,serif" font-size="14.00"> Thomas</text>
<text text-anchor="start" x="351.93" y="-1009.09" font-family="Times,serif" font-size="14.00">Cooke </text>
</g>
<!-- JOHN_DENNIS&#45;&gt;THOMAS_COOKE -->
<g id="edge26" class="edge">
<title>JOHN_DENNIS&#45;&gt;THOMAS_COOKE</title>
<path fill="none" stroke="green" d="M750.63,-615.43C687.11,-683.34 471.5,-913.85 397.28,-993.19"/>
<polygon fill="green" stroke="green" points="394.42,-991.13 390.14,-1000.82 399.53,-995.91 394.42,-991.13"/>
</g>
<!-- THOMAS_RYMER -->
<g id="node27" class="node">
<title>THOMAS_RYMER</title>
<polygon fill="none" stroke="black" points="316.35,-935.65 252.35,-935.65 252.35,-897.65 316.35,-897.65 316.35,-935.65"/>
<text text-anchor="start" x="260.35" y="-920.45" font-family="Times,serif" font-size="14.00"> Thomas</text>
<text text-anchor="start" x="263.35" y="-905.45" font-family="Times,serif" font-size="14.00">Rymer </text>
</g>
<!-- JOHN_DENNIS&#45;&gt;THOMAS_RYMER -->
<g id="edge27" class="edge">
<title>JOHN_DENNIS&#45;&gt;THOMAS_RYMER</title>
<path fill="none" stroke="green" d="M739.61,-615.47C656.3,-670.58 415.25,-830.05 321.9,-891.81"/>
<polygon fill="green" stroke="green" points="319.75,-889.04 313.34,-897.48 323.61,-894.88 319.75,-889.04"/>
</g>
<!-- TOM_DÍURFEY -->
<g id="node28" class="node">
<title>TOM_DÍURFEY</title>
<polygon fill="none" stroke="black" points="255.55,-814.04 190.55,-814.04 190.55,-776.04 255.55,-776.04 255.55,-814.04"/>
<text text-anchor="start" x="208.05" y="-798.84" font-family="Times,serif" font-size="14.00"> Tom</text>
<text text-anchor="start" x="198.55" y="-783.84" font-family="Times,serif" font-size="14.00">DíUrfey </text>
</g>
<!-- JOHN_DENNIS&#45;&gt;TOM_DÍURFEY -->
<g id="edge28" class="edge">
<title>JOHN_DENNIS&#45;&gt;TOM_DÍURFEY</title>
<path fill="none" stroke="green" d="M738.73,-607.21C647.55,-640.42 371.48,-740.98 265.29,-779.66"/>
<polygon fill="green" stroke="green" points="264.06,-776.38 255.86,-783.09 266.45,-782.96 264.06,-776.38"/>
</g>
<!-- WILLIAM_LAW -->
<g id="node29" class="node">
<title>WILLIAM_LAW</title>
<polygon fill="none" stroke="black" points="224.22,-681 159.22,-681 159.22,-643 224.22,-643 224.22,-681"/>
<text text-anchor="start" x="167.22" y="-665.8" font-family="Times,serif" font-size="14.00"> William</text>
<text text-anchor="start" x="177.72" y="-650.8" font-family="Times,serif" font-size="14.00">Law </text>
</g>
<!-- JOHN_DENNIS&#45;&gt;WILLIAM_LAW -->
<g id="edge29" class="edge">
<title>JOHN_DENNIS&#45;&gt;WILLIAM_LAW</title>
<path fill="none" stroke="red" d="M738.65,-599.78C643.46,-610.61 346.39,-644.4 234.73,-657.11"/>
<polygon fill="red" stroke="red" points="234.05,-653.66 224.51,-658.27 234.84,-660.62 234.05,-653.66"/>
</g>
</g>
</svg>
