<?xml version="1.0" encoding="UTF-8" standalone="no"?>
<!DOCTYPE svg PUBLIC "-//W3C//DTD SVG 1.1//EN"
 "http://www.w3.org/Graphics/SVG/1.1/DTD/svg11.dtd">
<!-- Generated by graphviz version 2.50.0 (0)
 -->
<!-- Title: G Pages: 1 -->
<svg width="725pt" height="681pt"
 viewBox="0.00 0.00 725.00 681.00" xmlns="http://www.w3.org/2000/svg" xmlns:xlink="http://www.w3.org/1999/xlink">
<g id="graph0" class="graph" transform="scale(1 1) rotate(0) translate(4 677)">
<title>G</title>
<polygon fill="white" stroke="transparent" points="-4,4 -4,-677 721,-677 721,4 -4,4"/>
<!-- ALEXANDER_POPE -->
<g id="node1" class="node">
<title>ALEXANDER_POPE</title>
<polygon fill="none" stroke="black" points="252.35,-168.76 176.35,-168.76 176.35,-130.76 252.35,-130.76 252.35,-168.76"/>
<text text-anchor="start" x="184.35" y="-153.56" font-family="Times,serif" font-size="14.00"> Alexander</text>
<text text-anchor="start" x="198.85" y="-138.56" font-family="Times,serif" font-size="14.00">Pope </text>
</g>
<!-- BARTON_BOOTH -->
<g id="node2" class="node">
<title>BARTON_BOOTH</title>
<polygon fill="none" stroke="black" points="278.61,-526.17 221.61,-526.17 221.61,-488.17 278.61,-488.17 278.61,-526.17"/>
<text text-anchor="start" x="229.61" y="-510.97" font-family="Times,serif" font-size="14.00"> Barton</text>
<text text-anchor="start" x="231.61" y="-495.97" font-family="Times,serif" font-size="14.00">Booth </text>
</g>
<!-- CAIUS_GABRIEL_CIBBER -->
<g id="node3" class="node">
<title>CAIUS_GABRIEL_CIBBER</title>
<polygon fill="none" stroke="black" points="503.88,-181.71 446.88,-181.71 446.88,-128.71 503.88,-128.71 503.88,-181.71"/>
<text text-anchor="start" x="457.88" y="-166.51" font-family="Times,serif" font-size="14.00"> Caius</text>
<text text-anchor="start" x="454.88" y="-151.51" font-family="Times,serif" font-size="14.00">Gabriel</text>
<text text-anchor="start" x="454.88" y="-136.51" font-family="Times,serif" font-size="14.00">Cibber </text>
</g>
<!-- CAMILLO_QUERNO -->
<g id="node4" class="node">
<title>CAMILLO_QUERNO</title>
<polygon fill="none" stroke="black" points="344.22,-131.82 279.22,-131.82 279.22,-93.82 344.22,-93.82 344.22,-131.82"/>
<text text-anchor="start" x="287.22" y="-116.62" font-family="Times,serif" font-size="14.00"> Camillo</text>
<text text-anchor="start" x="289.22" y="-101.62" font-family="Times,serif" font-size="14.00">Querno </text>
</g>
<!-- CARDELL_GOODMAN -->
<g id="node5" class="node">
<title>CARDELL_GOODMAN</title>
<polygon fill="none" stroke="black" points="196.7,-452.16 122.7,-452.16 122.7,-414.16 196.7,-414.16 196.7,-452.16"/>
<text text-anchor="start" x="137.7" y="-436.96" font-family="Times,serif" font-size="14.00"> Cardell</text>
<text text-anchor="start" x="130.7" y="-421.96" font-family="Times,serif" font-size="14.00">Goodman </text>
</g>
<!-- CHARLES_FLEETWOOD -->
<g id="node6" class="node">
<title>CHARLES_FLEETWOOD</title>
<polygon fill="none" stroke="black" points="618.25,-344.53 541.25,-344.53 541.25,-306.53 618.25,-306.53 618.25,-344.53"/>
<text text-anchor="start" x="556.75" y="-329.33" font-family="Times,serif" font-size="14.00"> Charles</text>
<text text-anchor="start" x="549.25" y="-314.33" font-family="Times,serif" font-size="14.00">Fleetwood </text>
</g>
<!-- COLLEY_CIBBER -->
<g id="node7" class="node">
<title>COLLEY_CIBBER</title>
<polygon fill="none" stroke="black" points="389.02,-361.03 332.02,-361.03 332.02,-323.03 389.02,-323.03 389.02,-361.03"/>
<text text-anchor="start" x="340.52" y="-345.83" font-family="Times,serif" font-size="14.00"> Colley</text>
<text text-anchor="start" x="340.02" y="-330.83" font-family="Times,serif" font-size="14.00">Cibber </text>
</g>
<!-- COLLEY_CIBBER&#45;&gt;ALEXANDER_POPE -->
<g id="edge1" class="edge">
<title>COLLEY_CIBBER&#45;&gt;ALEXANDER_POPE</title>
<path fill="none" stroke="red" d="M345.97,-322.89C319.92,-288.63 265.25,-216.71 235.21,-177.2"/>
<polygon fill="red" stroke="red" points="237.68,-174.66 228.85,-168.82 232.11,-178.9 237.68,-174.66"/>
</g>
<!-- COLLEY_CIBBER&#45;&gt;BARTON_BOOTH -->
<g id="edge2" class="edge">
<title>COLLEY_CIBBER&#45;&gt;BARTON_BOOTH</title>
<path fill="none" stroke="green" d="M347.64,-361.29C328.11,-390.51 290.92,-446.13 268.53,-479.62"/>
<polygon fill="green" stroke="green" points="265.56,-477.77 262.91,-488.03 271.38,-481.66 265.56,-477.77"/>
</g>
<!-- COLLEY_CIBBER&#45;&gt;CAIUS_GABRIEL_CIBBER -->
<g id="edge3" class="edge">
<title>COLLEY_CIBBER&#45;&gt;CAIUS_GABRIEL_CIBBER</title>
<path fill="none" stroke="green" d="M372.38,-322.74C391.48,-291.67 429.36,-230.06 453.47,-190.84"/>
<polygon fill="green" stroke="green" points="456.73,-192.22 458.99,-181.87 450.77,-188.55 456.73,-192.22"/>
</g>
<!-- COLLEY_CIBBER&#45;&gt;CAMILLO_QUERNO -->
<g id="edge4" class="edge">
<title>COLLEY_CIBBER&#45;&gt;CAMILLO_QUERNO</title>
<path fill="none" stroke="green" d="M356.44,-322.88C347.9,-282.77 328.09,-189.7 317.95,-142.06"/>
<polygon fill="green" stroke="green" points="321.33,-141.12 315.82,-132.07 314.48,-142.58 321.33,-141.12"/>
</g>
<!-- COLLEY_CIBBER&#45;&gt;CARDELL_GOODMAN -->
<g id="edge5" class="edge">
<title>COLLEY_CIBBER&#45;&gt;CARDELL_GOODMAN</title>
<path fill="none" stroke="green" d="M331.75,-355.08C299.05,-369.92 245.22,-394.35 206.47,-411.94"/>
<polygon fill="green" stroke="green" points="204.62,-408.93 196.96,-416.25 207.51,-415.31 204.62,-408.93"/>
</g>
<!-- COLLEY_CIBBER&#45;&gt;CHARLES_FLEETWOOD -->
<g id="edge6" class="edge">
<title>COLLEY_CIBBER&#45;&gt;CHARLES_FLEETWOOD</title>
<path fill="none" stroke="green" d="M389.18,-339.87C425.18,-337.16 487.49,-332.47 531.03,-329.2"/>
<polygon fill="green" stroke="green" points="531.4,-332.68 541.11,-328.44 530.88,-325.7 531.4,-332.68"/>
</g>
<!-- DULNESS -->
<g id="node8" class="node">
<title>DULNESS</title>
<polygon fill="none" stroke="black" points="383.68,-673.04 315.68,-673.04 315.68,-637.04 383.68,-637.04 383.68,-673.04"/>
<text text-anchor="start" x="323.68" y="-651.34" font-family="Times,serif" font-size="14.00"> Dulness </text>
</g>
<!-- COLLEY_CIBBER&#45;&gt;DULNESS -->
<g id="edge7" class="edge">
<title>COLLEY_CIBBER&#45;&gt;DULNESS</title>
<path fill="none" stroke="green" d="M359.86,-361.14C358.02,-414.23 352.84,-563.74 350.67,-626.62"/>
<polygon fill="green" stroke="green" points="347.16,-626.85 350.31,-636.97 354.15,-627.1 347.16,-626.85"/>
</g>
<!-- EDMUND_CURLL -->
<g id="node9" class="node">
<title>EDMUND_CURLL</title>
<polygon fill="none" stroke="black" points="92.16,-467.15 25.16,-467.15 25.16,-429.15 92.16,-429.15 92.16,-467.15"/>
<text text-anchor="start" x="33.16" y="-451.95" font-family="Times,serif" font-size="14.00"> Edmund</text>
<text text-anchor="start" x="42.66" y="-436.95" font-family="Times,serif" font-size="14.00">Curll </text>
</g>
<!-- COLLEY_CIBBER&#45;&gt;EDMUND_CURLL -->
<g id="edge8" class="edge">
<title>COLLEY_CIBBER&#45;&gt;EDMUND_CURLL</title>
<path fill="none" stroke="green" d="M331.85,-352.11C278.77,-370.77 164.89,-410.81 102.22,-432.84"/>
<polygon fill="green" stroke="green" points="100.89,-429.6 92.62,-436.21 103.21,-436.2 100.89,-429.6"/>
</g>
<!-- ELKANAH_SETTLE -->
<g id="node10" class="node">
<title>ELKANAH_SETTLE</title>
<polygon fill="none" stroke="black" points="251.04,-70 186.04,-70 186.04,-32 251.04,-32 251.04,-70"/>
<text text-anchor="start" x="194.04" y="-54.8" font-family="Times,serif" font-size="14.00"> Elkanah</text>
<text text-anchor="start" x="201.04" y="-39.8" font-family="Times,serif" font-size="14.00">Settle </text>
</g>
<!-- COLLEY_CIBBER&#45;&gt;ELKANAH_SETTLE -->
<g id="edge9" class="edge">
<title>COLLEY_CIBBER&#45;&gt;ELKANAH_SETTLE</title>
<path fill="none" stroke="green" d="M351.21,-322.93C326.84,-272.98 261.11,-138.25 232.34,-79.28"/>
<polygon fill="green" stroke="green" points="235.42,-77.62 227.89,-70.17 229.13,-80.69 235.42,-77.62"/>
</g>
<!-- FRANCIS_ATTERBURY -->
<g id="node11" class="node">
<title>FRANCIS_ATTERBURY</title>
<polygon fill="none" stroke="black" points="696.65,-391.84 623.65,-391.84 623.65,-353.84 696.65,-353.84 696.65,-391.84"/>
<text text-anchor="start" x="638.15" y="-376.64" font-family="Times,serif" font-size="14.00"> Francis</text>
<text text-anchor="start" x="631.65" y="-361.64" font-family="Times,serif" font-size="14.00">Atterbury </text>
</g>
<!-- COLLEY_CIBBER&#45;&gt;FRANCIS_ATTERBURY -->
<g id="edge10" class="edge">
<title>COLLEY_CIBBER&#45;&gt;FRANCIS_ATTERBURY</title>
<path fill="none" stroke="orange" d="M389.25,-344.98C441.01,-350.3 550.34,-361.55 613.14,-368.01"/>
<polygon fill="orange" stroke="orange" points="612.87,-371.5 623.18,-369.04 613.59,-364.53 612.87,-371.5"/>
</g>
<!-- GEORGE_ETHEREGE -->
<g id="node12" class="node">
<title>GEORGE_ETHEREGE</title>
<polygon fill="none" stroke="black" points="110.02,-250.02 42.02,-250.02 42.02,-212.02 110.02,-212.02 110.02,-250.02"/>
<text text-anchor="start" x="54.02" y="-234.82" font-family="Times,serif" font-size="14.00"> George</text>
<text text-anchor="start" x="50.02" y="-219.82" font-family="Times,serif" font-size="14.00">Etherege </text>
</g>
<!-- COLLEY_CIBBER&#45;&gt;GEORGE_ETHEREGE -->
<g id="edge11" class="edge">
<title>COLLEY_CIBBER&#45;&gt;GEORGE_ETHEREGE</title>
<path fill="none" stroke="green" d="M331.94,-330.87C282.02,-311.39 178.65,-271.06 119.7,-248.06"/>
<polygon fill="green" stroke="green" points="120.87,-244.76 110.28,-244.39 118.33,-251.28 120.87,-244.76"/>
</g>
<!-- GEORGE_I -->
<g id="node13" class="node">
<title>GEORGE_I</title>
<polygon fill="none" stroke="black" points="511.4,-642.36 451.4,-642.36 451.4,-604.36 511.4,-604.36 511.4,-642.36"/>
<text text-anchor="start" x="459.4" y="-627.16" font-family="Times,serif" font-size="14.00"> George</text>
<text text-anchor="start" x="476.9" y="-612.16" font-family="Times,serif" font-size="14.00">I </text>
</g>
<!-- COLLEY_CIBBER&#45;&gt;GEORGE_I -->
<g id="edge12" class="edge">
<title>COLLEY_CIBBER&#45;&gt;GEORGE_I</title>
<path fill="none" stroke="green" d="M368.83,-361.36C389.71,-409.97 444.47,-537.43 469.1,-594.73"/>
<polygon fill="green" stroke="green" points="466.03,-596.46 473.19,-604.26 472.46,-593.69 466.03,-596.46"/>
</g>
<!-- GEORGE_II -->
<g id="node14" class="node">
<title>GEORGE_II</title>
<polygon fill="none" stroke="black" points="560.94,-251.98 500.94,-251.98 500.94,-213.98 560.94,-213.98 560.94,-251.98"/>
<text text-anchor="start" x="508.94" y="-236.78" font-family="Times,serif" font-size="14.00"> George</text>
<text text-anchor="start" x="524.44" y="-221.78" font-family="Times,serif" font-size="14.00">II </text>
</g>
<!-- COLLEY_CIBBER&#45;&gt;GEORGE_II -->
<g id="edge13" class="edge">
<title>COLLEY_CIBBER&#45;&gt;GEORGE_II</title>
<path fill="none" stroke="green" d="M389.04,-323.77C417.45,-305.6 461.25,-277.57 492.66,-257.47"/>
<polygon fill="green" stroke="green" points="494.64,-260.36 501.18,-252.02 490.87,-254.46 494.64,-260.36"/>
</g>
<!-- HENRY_JANSSEN -->
<g id="node15" class="node">
<title>HENRY_JANSSEN</title>
<polygon fill="none" stroke="black" points="210.82,-628.22 148.82,-628.22 148.82,-590.22 210.82,-590.22 210.82,-628.22"/>
<text text-anchor="start" x="160.82" y="-613.02" font-family="Times,serif" font-size="14.00"> Henry</text>
<text text-anchor="start" x="156.82" y="-598.02" font-family="Times,serif" font-size="14.00">Janssen </text>
</g>
<!-- COLLEY_CIBBER&#45;&gt;HENRY_JANSSEN -->
<g id="edge14" class="edge">
<title>COLLEY_CIBBER&#45;&gt;HENRY_JANSSEN</title>
<path fill="none" stroke="green" d="M347.53,-361.24C315.94,-407.94 235.07,-527.53 198.4,-581.75"/>
<polygon fill="green" stroke="green" points="195.4,-579.93 192.7,-590.18 201.2,-583.85 195.4,-579.93"/>
</g>
<!-- ISAAC_BARROW -->
<g id="node16" class="node">
<title>ISAAC_BARROW</title>
<polygon fill="none" stroke="black" points="623.53,-529.76 562.53,-529.76 562.53,-491.76 623.53,-491.76 623.53,-529.76"/>
<text text-anchor="start" x="577.03" y="-514.56" font-family="Times,serif" font-size="14.00"> Isaac</text>
<text text-anchor="start" x="570.53" y="-499.56" font-family="Times,serif" font-size="14.00">Barrow </text>
</g>
<!-- COLLEY_CIBBER&#45;&gt;ISAAC_BARROW -->
<g id="edge15" class="edge">
<title>COLLEY_CIBBER&#45;&gt;ISAAC_BARROW</title>
<path fill="none" stroke="orange" d="M386.74,-361.05C428.78,-391.56 511.29,-451.44 558.22,-485.5"/>
<polygon fill="orange" stroke="orange" points="556.4,-488.5 566.55,-491.54 560.51,-482.84 556.4,-488.5"/>
</g>
<!-- ISAAC_NEWTON -->
<g id="node17" class="node">
<title>ISAAC_NEWTON</title>
<polygon fill="none" stroke="black" points="654.2,-242.33 591.2,-242.33 591.2,-204.33 654.2,-204.33 654.2,-242.33"/>
<text text-anchor="start" x="606.7" y="-227.13" font-family="Times,serif" font-size="14.00"> Isaac</text>
<text text-anchor="start" x="599.2" y="-212.13" font-family="Times,serif" font-size="14.00">Newton </text>
</g>
<!-- COLLEY_CIBBER&#45;&gt;ISAAC_NEWTON -->
<g id="edge16" class="edge">
<title>COLLEY_CIBBER&#45;&gt;ISAAC_NEWTON</title>
<path fill="none" stroke="orange" d="M389.08,-329.1C435.65,-308.01 528.14,-266.14 581.71,-241.88"/>
<polygon fill="orange" stroke="orange" points="583.26,-245.03 590.93,-237.71 580.37,-238.65 583.26,-245.03"/>
</g>
<!-- JOHN_BANKS -->
<g id="node18" class="node">
<title>JOHN_BANKS</title>
<polygon fill="none" stroke="black" points="441.69,-623.05 387.69,-623.05 387.69,-585.05 441.69,-585.05 441.69,-623.05"/>
<text text-anchor="start" x="399.69" y="-607.85" font-family="Times,serif" font-size="14.00"> John</text>
<text text-anchor="start" x="395.69" y="-592.85" font-family="Times,serif" font-size="14.00">Banks </text>
</g>
<!-- COLLEY_CIBBER&#45;&gt;JOHN_BANKS -->
<g id="edge17" class="edge">
<title>COLLEY_CIBBER&#45;&gt;JOHN_BANKS</title>
<path fill="none" stroke="green" d="M364.5,-361.29C373.89,-406.72 397.47,-520.76 408.64,-574.79"/>
<polygon fill="green" stroke="green" points="405.25,-575.67 410.7,-584.75 412.1,-574.25 405.25,-575.67"/>
</g>
<!-- JOHN_DENNIS -->
<g id="node19" class="node">
<title>JOHN_DENNIS</title>
<polygon fill="none" stroke="black" points="348,-588.85 289,-588.85 289,-550.85 348,-550.85 348,-588.85"/>
<text text-anchor="start" x="303.5" y="-573.65" font-family="Times,serif" font-size="14.00"> John</text>
<text text-anchor="start" x="297" y="-558.65" font-family="Times,serif" font-size="14.00">Dennis </text>
</g>
<!-- COLLEY_CIBBER&#45;&gt;JOHN_DENNIS -->
<g id="edge18" class="edge">
<title>COLLEY_CIBBER&#45;&gt;JOHN_DENNIS</title>
<path fill="none" stroke="green" d="M357.01,-361.06C349.66,-400.93 332.6,-493.43 323.86,-540.78"/>
<polygon fill="green" stroke="green" points="320.4,-540.24 322.03,-550.71 327.29,-541.51 320.4,-540.24"/>
</g>
<!-- JOHN_DRYDEN -->
<g id="node20" class="node">
<title>JOHN_DRYDEN</title>
<polygon fill="none" stroke="black" points="577.77,-593.35 516.77,-593.35 516.77,-555.35 577.77,-555.35 577.77,-593.35"/>
<text text-anchor="start" x="532.27" y="-578.15" font-family="Times,serif" font-size="14.00"> John</text>
<text text-anchor="start" x="524.77" y="-563.15" font-family="Times,serif" font-size="14.00">Dryden </text>
</g>
<!-- COLLEY_CIBBER&#45;&gt;JOHN_DRYDEN -->
<g id="edge19" class="edge">
<title>COLLEY_CIBBER&#45;&gt;JOHN_DRYDEN</title>
<path fill="none" stroke="red" d="M371.07,-361.05C399.49,-402.32 477.41,-499.79 519.54,-547.37"/>
<polygon fill="red" stroke="red" points="517.2,-550 526.48,-555.11 522.41,-545.33 517.2,-550"/>
</g>
<!-- COLLEY_CIBBER&#45;&gt;JOHN_DRYDEN -->
<g id="edge20" class="edge">
<title>COLLEY_CIBBER&#45;&gt;JOHN_DRYDEN</title>
<path fill="none" stroke="orange" d="M381.32,-361.29C418.85,-402.54 496.66,-499.24 530.8,-546.9"/>
<polygon fill="orange" stroke="orange" points="528.03,-549.05 536.64,-555.21 533.75,-545.02 528.03,-549.05"/>
</g>
<!-- JOHN_FLETCHER -->
<g id="node21" class="node">
<title>JOHN_FLETCHER</title>
<polygon fill="none" stroke="black" points="593.82,-108.87 528.82,-108.87 528.82,-70.87 593.82,-70.87 593.82,-108.87"/>
<text text-anchor="start" x="546.32" y="-93.67" font-family="Times,serif" font-size="14.00"> John</text>
<text text-anchor="start" x="536.82" y="-78.67" font-family="Times,serif" font-size="14.00">Fletcher </text>
</g>
<!-- COLLEY_CIBBER&#45;&gt;JOHN_FLETCHER -->
<g id="edge21" class="edge">
<title>COLLEY_CIBBER&#45;&gt;JOHN_FLETCHER</title>
<path fill="none" stroke="green" d="M375.94,-322.66C411.44,-278.09 498.97,-168.16 539.76,-116.95"/>
<polygon fill="green" stroke="green" points="542.63,-118.96 546.12,-108.96 537.15,-114.6 542.63,-118.96"/>
</g>
<!-- JOHN_GARTH -->
<g id="node22" class="node">
<title>JOHN_GARTH</title>
<polygon fill="none" stroke="black" points="203.48,-240.79 149.48,-240.79 149.48,-202.79 203.48,-202.79 203.48,-240.79"/>
<text text-anchor="start" x="161.48" y="-225.59" font-family="Times,serif" font-size="14.00"> John</text>
<text text-anchor="start" x="158.98" y="-210.59" font-family="Times,serif" font-size="14.00">Garth </text>
</g>
<!-- COLLEY_CIBBER&#45;&gt;JOHN_GARTH -->
<g id="edge22" class="edge">
<title>COLLEY_CIBBER&#45;&gt;JOHN_GARTH</title>
<path fill="none" stroke="orange" d="M331.76,-323.24C299.43,-302.11 246.88,-267.78 212,-245"/>
<polygon fill="orange" stroke="orange" points="213.83,-242.01 203.54,-239.47 210,-247.87 213.83,-242.01"/>
</g>
<!-- JOHN_HERVEY -->
<g id="node23" class="node">
<title>JOHN_HERVEY</title>
<polygon fill="none" stroke="black" points="514.08,-92.49 454.08,-92.49 454.08,-54.49 514.08,-54.49 514.08,-92.49"/>
<text text-anchor="start" x="469.08" y="-77.29" font-family="Times,serif" font-size="14.00"> John</text>
<text text-anchor="start" x="462.08" y="-62.29" font-family="Times,serif" font-size="14.00">Hervey </text>
</g>
<!-- COLLEY_CIBBER&#45;&gt;JOHN_HERVEY -->
<g id="edge23" class="edge">
<title>COLLEY_CIBBER&#45;&gt;JOHN_HERVEY</title>
<path fill="none" stroke="green" d="M369.41,-322.71C390.91,-275.97 445.85,-156.58 471.07,-101.78"/>
<polygon fill="green" stroke="green" points="474.28,-103.18 475.28,-92.63 467.92,-100.25 474.28,-103.18"/>
</g>
<!-- JOHN_LOCKE -->
<g id="node24" class="node">
<title>JOHN_LOCKE</title>
<polygon fill="none" stroke="black" points="450.52,-537.5 396.52,-537.5 396.52,-499.5 450.52,-499.5 450.52,-537.5"/>
<text text-anchor="start" x="408.52" y="-522.3" font-family="Times,serif" font-size="14.00"> John</text>
<text text-anchor="start" x="404.52" y="-507.3" font-family="Times,serif" font-size="14.00">Locke </text>
</g>
<!-- COLLEY_CIBBER&#45;&gt;JOHN_LOCKE -->
<g id="edge24" class="edge">
<title>COLLEY_CIBBER&#45;&gt;JOHN_LOCKE</title>
<path fill="none" stroke="orange" d="M367.38,-361.25C378.46,-392.28 400.34,-453.58 413.27,-489.8"/>
<polygon fill="orange" stroke="orange" points="410.01,-491.06 416.67,-499.31 416.6,-488.71 410.01,-491.06"/>
</g>
<!-- JOHN_OZELL -->
<g id="node25" class="node">
<title>JOHN_OZELL</title>
<polygon fill="none" stroke="black" points="533.99,-511.47 479.99,-511.47 479.99,-473.47 533.99,-473.47 533.99,-511.47"/>
<text text-anchor="start" x="491.99" y="-496.27" font-family="Times,serif" font-size="14.00"> John</text>
<text text-anchor="start" x="489.99" y="-481.27" font-family="Times,serif" font-size="14.00">Ozell </text>
</g>
<!-- COLLEY_CIBBER&#45;&gt;JOHN_OZELL -->
<g id="edge25" class="edge">
<title>COLLEY_CIBBER&#45;&gt;JOHN_OZELL</title>
<path fill="none" stroke="green" d="M379.07,-361.08C404.9,-387.61 451.82,-435.81 481.09,-465.87"/>
<polygon fill="green" stroke="green" points="478.65,-468.37 488.13,-473.1 483.66,-463.49 478.65,-468.37"/>
</g>
<!-- JOSEPH_ADDISON -->
<g id="node26" class="node">
<title>JOSEPH_ADDISON</title>
<polygon fill="none" stroke="black" points="626.03,-176.21 560.03,-176.21 560.03,-138.21 626.03,-138.21 626.03,-176.21"/>
<text text-anchor="start" x="572.53" y="-161.01" font-family="Times,serif" font-size="14.00"> Joseph</text>
<text text-anchor="start" x="568.03" y="-146.01" font-family="Times,serif" font-size="14.00">Addison </text>
</g>
<!-- COLLEY_CIBBER&#45;&gt;JOSEPH_ADDISON -->
<g id="edge26" class="edge">
<title>COLLEY_CIBBER&#45;&gt;JOSEPH_ADDISON</title>
<path fill="none" stroke="orange" d="M384.53,-322.94C426.56,-289.53 513.49,-220.43 560.74,-182.87"/>
<polygon fill="orange" stroke="orange" points="563.16,-185.42 568.81,-176.46 558.8,-179.94 563.16,-185.42"/>
</g>
<!-- LAURENCE_EUSDEN -->
<g id="node27" class="node">
<title>LAURENCE_EUSDEN</title>
<polygon fill="none" stroke="black" points="70.75,-315.24 -0.25,-315.24 -0.25,-277.24 70.75,-277.24 70.75,-315.24"/>
<text text-anchor="start" x="7.75" y="-300.04" font-family="Times,serif" font-size="14.00"> Laurence</text>
<text text-anchor="start" x="13.25" y="-285.04" font-family="Times,serif" font-size="14.00">Eusden </text>
</g>
<!-- COLLEY_CIBBER&#45;&gt;LAURENCE_EUSDEN -->
<g id="edge27" class="edge">
<title>COLLEY_CIBBER&#45;&gt;LAURENCE_EUSDEN</title>
<path fill="none" stroke="green" d="M331.94,-338C275.46,-330.05 149.15,-312.28 80.97,-302.68"/>
<polygon fill="green" stroke="green" points="81.34,-299.2 70.95,-301.27 80.37,-306.13 81.34,-299.2"/>
</g>
<!-- LEWIS_THEOBALD -->
<g id="node28" class="node">
<title>LEWIS_THEOBALD</title>
<polygon fill="none" stroke="black" points="179.19,-118.44 108.19,-118.44 108.19,-80.44 179.19,-80.44 179.19,-118.44"/>
<text text-anchor="start" x="125.19" y="-103.24" font-family="Times,serif" font-size="14.00"> Lewis</text>
<text text-anchor="start" x="116.19" y="-88.24" font-family="Times,serif" font-size="14.00">Theobald </text>
</g>
<!-- COLLEY_CIBBER&#45;&gt;LEWIS_THEOBALD -->
<g id="edge28" class="edge">
<title>COLLEY_CIBBER&#45;&gt;LEWIS_THEOBALD</title>
<path fill="none" stroke="green" d="M343.51,-322.99C305.21,-280.14 212.12,-175.99 167.85,-126.47"/>
<polygon fill="green" stroke="green" points="170.2,-123.85 160.93,-118.72 164.98,-128.51 170.2,-123.85"/>
</g>
<!-- LORD_BISHOP_OF_LONDON -->
<g id="node29" class="node">
<title>LORD_BISHOP_OF_LONDON</title>
<polygon fill="none" stroke="black" points="204.57,-564.59 142.57,-564.59 142.57,-496.59 204.57,-496.59 204.57,-564.59"/>
<text text-anchor="start" x="158.07" y="-549.39" font-family="Times,serif" font-size="14.00"> Lord</text>
<text text-anchor="start" x="154.07" y="-534.39" font-family="Times,serif" font-size="14.00">Bishop</text>
<text text-anchor="start" x="167.57" y="-519.39" font-family="Times,serif" font-size="14.00">of</text>
<text text-anchor="start" x="150.57" y="-504.39" font-family="Times,serif" font-size="14.00">London </text>
</g>
<!-- COLLEY_CIBBER&#45;&gt;LORD_BISHOP_OF_LONDON -->
<g id="edge29" class="edge">
<title>COLLEY_CIBBER&#45;&gt;LORD_BISHOP_OF_LONDON</title>
<path fill="none" stroke="green" d="M341.57,-361.14C311.24,-391.73 251.23,-452.27 211.75,-492.08"/>
<polygon fill="green" stroke="green" points="209.19,-489.7 204.63,-499.27 214.16,-494.63 209.19,-489.7"/>
</g>
<!-- MARTINUS_SCRIBLERUS -->
<g id="node30" class="node">
<title>MARTINUS_SCRIBLERUS</title>
<polygon fill="none" stroke="black" points="122.14,-539.53 47.14,-539.53 47.14,-501.53 122.14,-501.53 122.14,-539.53"/>
<text text-anchor="start" x="57.64" y="-524.33" font-family="Times,serif" font-size="14.00"> Martinus</text>
<text text-anchor="start" x="55.14" y="-509.33" font-family="Times,serif" font-size="14.00">Scriblerus </text>
</g>
<!-- COLLEY_CIBBER&#45;&gt;MARTINUS_SCRIBLERUS -->
<g id="edge30" class="edge">
<title>COLLEY_CIBBER&#45;&gt;MARTINUS_SCRIBLERUS</title>
<path fill="none" stroke="green" d="M331.78,-360.62C281.74,-393 178.62,-459.72 122.71,-495.9"/>
<polygon fill="green" stroke="green" points="120.65,-493.07 114.15,-501.44 124.45,-498.94 120.65,-493.07"/>
</g>
<!-- MATTHEW_PRIOR -->
<g id="node31" class="node">
<title>MATTHEW_PRIOR</title>
<polygon fill="none" stroke="black" points="716.62,-302.54 647.62,-302.54 647.62,-264.54 716.62,-264.54 716.62,-302.54"/>
<text text-anchor="start" x="655.62" y="-287.34" font-family="Times,serif" font-size="14.00"> Matthew</text>
<text text-anchor="start" x="666.62" y="-272.34" font-family="Times,serif" font-size="14.00">Prior </text>
</g>
<!-- COLLEY_CIBBER&#45;&gt;MATTHEW_PRIOR -->
<g id="edge31" class="edge">
<title>COLLEY_CIBBER&#45;&gt;MATTHEW_PRIOR</title>
<path fill="none" stroke="red" d="M389.06,-336.84C445.21,-326.62 570.39,-303.86 637.53,-291.65"/>
<polygon fill="red" stroke="red" points="638.18,-295.08 647.4,-289.85 636.93,-288.2 638.18,-295.08"/>
</g>
<!-- PHILIP_DORMER_STANHOPE -->
<g id="node32" class="node">
<title>PHILIP_DORMER_STANHOPE</title>
<polygon fill="none" stroke="black" points="118.21,-182.63 47.21,-182.63 47.21,-129.63 118.21,-129.63 118.21,-182.63"/>
<text text-anchor="start" x="64.21" y="-167.43" font-family="Times,serif" font-size="14.00"> Philip</text>
<text text-anchor="start" x="61.21" y="-152.43" font-family="Times,serif" font-size="14.00">Dormer</text>
<text text-anchor="start" x="55.21" y="-137.43" font-family="Times,serif" font-size="14.00">Stanhope </text>
</g>
<!-- COLLEY_CIBBER&#45;&gt;PHILIP_DORMER_STANHOPE -->
<g id="edge32" class="edge">
<title>COLLEY_CIBBER&#45;&gt;PHILIP_DORMER_STANHOPE</title>
<path fill="none" stroke="red" d="M332.1,-323.01C283.56,-290.53 184.37,-224.16 126.79,-185.63"/>
<polygon fill="red" stroke="red" points="128.52,-182.58 118.26,-179.92 124.62,-188.39 128.52,-182.58"/>
</g>
<!-- RICHARD_BENTLEY -->
<g id="node33" class="node">
<title>RICHARD_BENTLEY</title>
<polygon fill="none" stroke="black" points="426.49,-40.11 363.49,-40.11 363.49,-2.11 426.49,-2.11 426.49,-40.11"/>
<text text-anchor="start" x="371.49" y="-24.91" font-family="Times,serif" font-size="14.00"> Richard</text>
<text text-anchor="start" x="371.99" y="-9.91" font-family="Times,serif" font-size="14.00">Bentley </text>
</g>
<!-- COLLEY_CIBBER&#45;&gt;RICHARD_BENTLEY -->
<g id="edge33" class="edge">
<title>COLLEY_CIBBER&#45;&gt;RICHARD_BENTLEY</title>
<path fill="none" stroke="green" d="M362.57,-322.91C368.37,-268.96 384.88,-115.2 391.84,-50.44"/>
<polygon fill="green" stroke="green" points="395.36,-50.44 392.95,-40.13 388.4,-49.69 395.36,-50.44"/>
</g>
<!-- ROBERT_WALPOLE -->
<g id="node34" class="node">
<title>ROBERT_WALPOLE</title>
<polygon fill="none" stroke="black" points="421.84,-131.33 355.84,-131.33 355.84,-93.33 421.84,-93.33 421.84,-131.33"/>
<text text-anchor="start" x="368.34" y="-116.13" font-family="Times,serif" font-size="14.00"> Robert</text>
<text text-anchor="start" x="363.84" y="-101.13" font-family="Times,serif" font-size="14.00">Walpole </text>
</g>
<!-- COLLEY_CIBBER&#45;&gt;ROBERT_WALPOLE -->
<g id="edge34" class="edge">
<title>COLLEY_CIBBER&#45;&gt;ROBERT_WALPOLE</title>
<path fill="none" stroke="green" d="M362.89,-322.84C367.84,-282.64 379.34,-189.37 385.23,-141.63"/>
<polygon fill="green" stroke="green" points="388.71,-141.98 386.46,-131.62 381.77,-141.12 388.71,-141.98"/>
</g>
<!-- STEPHEN_DUCK -->
<g id="node35" class="node">
<title>STEPHEN_DUCK</title>
<polygon fill="none" stroke="black" points="668.03,-468.34 604.03,-468.34 604.03,-430.34 668.03,-430.34 668.03,-468.34"/>
<text text-anchor="start" x="612.03" y="-453.14" font-family="Times,serif" font-size="14.00"> Stephen</text>
<text text-anchor="start" x="619.03" y="-438.14" font-family="Times,serif" font-size="14.00">Duck </text>
</g>
<!-- COLLEY_CIBBER&#45;&gt;STEPHEN_DUCK -->
<g id="edge35" class="edge">
<title>COLLEY_CIBBER&#45;&gt;STEPHEN_DUCK</title>
<path fill="none" stroke="green" d="M389.23,-353.21C438.21,-372.29 538.13,-411.21 594.66,-433.22"/>
<polygon fill="green" stroke="green" points="593.42,-436.5 604.01,-436.87 595.97,-429.98 593.42,-436.5"/>
</g>
<!-- THOMAS_ARCHER -->
<g id="node36" class="node">
<title>THOMAS_ARCHER</title>
<polygon fill="none" stroke="black" points="591.91,-428.11 527.91,-428.11 527.91,-390.11 591.91,-390.11 591.91,-428.11"/>
<text text-anchor="start" x="535.91" y="-412.91" font-family="Times,serif" font-size="14.00"> Thomas</text>
<text text-anchor="start" x="538.91" y="-397.91" font-family="Times,serif" font-size="14.00">Archer </text>
</g>
<!-- COLLEY_CIBBER&#45;&gt;THOMAS_ARCHER -->
<g id="edge36" class="edge">
<title>COLLEY_CIBBER&#45;&gt;THOMAS_ARCHER</title>
<path fill="none" stroke="green" d="M389.09,-351.64C422.8,-362.98 479.14,-381.93 517.84,-394.95"/>
<polygon fill="green" stroke="green" points="517.17,-398.42 527.77,-398.29 519.4,-391.78 517.17,-398.42"/>
</g>
<!-- THOMAS_COOKE -->
<g id="node37" class="node">
<title>THOMAS_COOKE</title>
<polygon fill="none" stroke="black" points="290.36,-648.35 226.36,-648.35 226.36,-610.35 290.36,-610.35 290.36,-648.35"/>
<text text-anchor="start" x="234.36" y="-633.15" font-family="Times,serif" font-size="14.00"> Thomas</text>
<text text-anchor="start" x="238.36" y="-618.15" font-family="Times,serif" font-size="14.00">Cooke </text>
</g>
<!-- COLLEY_CIBBER&#45;&gt;THOMAS_COOKE -->
<g id="edge37" class="edge">
<title>COLLEY_CIBBER&#45;&gt;THOMAS_COOKE</title>
<path fill="none" stroke="green" d="M353.66,-361.32C336.1,-410.7 289.47,-541.85 268.65,-600.41"/>
<polygon fill="green" stroke="green" points="265.25,-599.54 265.19,-610.14 271.84,-601.89 265.25,-599.54"/>
</g>
<!-- WILLIAM_BROOME -->
<g id="node38" class="node">
<title>WILLIAM_BROOME</title>
<polygon fill="none" stroke="black" points="164.37,-343.56 99.37,-343.56 99.37,-305.56 164.37,-305.56 164.37,-343.56"/>
<text text-anchor="start" x="107.37" y="-328.36" font-family="Times,serif" font-size="14.00"> William</text>
<text text-anchor="start" x="107.37" y="-313.36" font-family="Times,serif" font-size="14.00">Broome </text>
</g>
<!-- COLLEY_CIBBER&#45;&gt;WILLIAM_BROOME -->
<g id="edge38" class="edge">
<title>COLLEY_CIBBER&#45;&gt;WILLIAM_BROOME</title>
<path fill="none" stroke="green" d="M331.56,-339.81C291.98,-336.79 220.69,-331.35 174.87,-327.85"/>
<polygon fill="green" stroke="green" points="174.89,-324.34 164.65,-327.07 174.35,-331.32 174.89,-324.34"/>
</g>
<!-- WILLIAM_CONGREVE -->
<g id="node39" class="node">
<title>WILLIAM_CONGREVE</title>
<polygon fill="none" stroke="black" points="346.16,-37.89 273.16,-37.89 273.16,0.11 346.16,0.11 346.16,-37.89"/>
<text text-anchor="start" x="285.16" y="-22.69" font-family="Times,serif" font-size="14.00"> William</text>
<text text-anchor="start" x="281.16" y="-7.69" font-family="Times,serif" font-size="14.00">Congreve </text>
</g>
<!-- COLLEY_CIBBER&#45;&gt;WILLIAM_CONGREVE -->
<g id="edge39" class="edge">
<title>COLLEY_CIBBER&#45;&gt;WILLIAM_CONGREVE</title>
<path fill="none" stroke="orange" d="M357.49,-322.78C348.92,-268.34 324.47,-112.99 314.24,-48.02"/>
<polygon fill="orange" stroke="orange" points="317.68,-47.37 312.67,-38.04 310.77,-48.46 317.68,-47.37"/>
</g>
<!-- WILLIAM_TEMPLE -->
<g id="node40" class="node">
<title>WILLIAM_TEMPLE</title>
<polygon fill="none" stroke="black" points="81.22,-390.92 16.22,-390.92 16.22,-352.92 81.22,-352.92 81.22,-390.92"/>
<text text-anchor="start" x="24.22" y="-375.72" font-family="Times,serif" font-size="14.00"> William</text>
<text text-anchor="start" x="25.72" y="-360.72" font-family="Times,serif" font-size="14.00">Temple </text>
</g>
<!-- COLLEY_CIBBER&#45;&gt;WILLIAM_TEMPLE -->
<g id="edge40" class="edge">
<title>COLLEY_CIBBER&#45;&gt;WILLIAM_TEMPLE</title>
<path fill="none" stroke="green" d="M331.75,-344.79C276.76,-350.06 156.51,-361.59 91.86,-367.79"/>
<polygon fill="green" stroke="green" points="91.23,-364.33 81.61,-368.77 91.89,-371.3 91.23,-364.33"/>
</g>
</g>
</svg>
