<?xml version="1.0" encoding="UTF-8" standalone="no"?>
<!DOCTYPE svg PUBLIC "-//W3C//DTD SVG 1.1//EN"
 "http://www.w3.org/Graphics/SVG/1.1/DTD/svg11.dtd">
<!-- Generated by graphviz version 2.50.0 (0)
 -->
<!-- Title: G Pages: 1 -->
<svg width="720pt" height="683pt"
 viewBox="0.00 0.00 720.00 683.00" xmlns="http://www.w3.org/2000/svg" xmlns:xlink="http://www.w3.org/1999/xlink">
<g id="graph0" class="graph" transform="scale(1 1) rotate(0) translate(4 679)">
<title>G</title>
<polygon fill="white" stroke="transparent" points="-4,4 -4,-679 716,-679 716,4 -4,4"/>
<!-- ALEXANDER_POPE -->
<g id="node1" class="node">
<title>ALEXANDER_POPE</title>
<polygon fill="none" stroke="black" points="188.03,-114 112.03,-114 112.03,-76 188.03,-76 188.03,-114"/>
<text text-anchor="start" x="120.03" y="-98.8" font-family="Times,serif" font-size="14.00"> Alexander</text>
<text text-anchor="start" x="134.53" y="-83.8" font-family="Times,serif" font-size="14.00">Pope </text>
</g>
<!-- BARTON_BOOTH -->
<g id="node2" class="node">
<title>BARTON_BOOTH</title>
<polygon fill="none" stroke="black" points="569.48,-243.29 512.48,-243.29 512.48,-205.29 569.48,-205.29 569.48,-243.29"/>
<text text-anchor="start" x="520.48" y="-228.09" font-family="Times,serif" font-size="14.00"> Barton</text>
<text text-anchor="start" x="522.48" y="-213.09" font-family="Times,serif" font-size="14.00">Booth </text>
</g>
<!-- CAIUS_GABRIEL_CIBBER -->
<g id="node3" class="node">
<title>CAIUS_GABRIEL_CIBBER</title>
<polygon fill="none" stroke="black" points="537.18,-585.25 480.18,-585.25 480.18,-532.25 537.18,-532.25 537.18,-585.25"/>
<text text-anchor="start" x="491.18" y="-570.05" font-family="Times,serif" font-size="14.00"> Caius</text>
<text text-anchor="start" x="488.18" y="-555.05" font-family="Times,serif" font-size="14.00">Gabriel</text>
<text text-anchor="start" x="488.18" y="-540.05" font-family="Times,serif" font-size="14.00">Cibber </text>
</g>
<!-- CAMILLO_QUERNO -->
<g id="node4" class="node">
<title>CAMILLO_QUERNO</title>
<polygon fill="none" stroke="black" points="359.04,-675.12 294.04,-675.12 294.04,-637.12 359.04,-637.12 359.04,-675.12"/>
<text text-anchor="start" x="302.04" y="-659.92" font-family="Times,serif" font-size="14.00"> Camillo</text>
<text text-anchor="start" x="304.04" y="-644.92" font-family="Times,serif" font-size="14.00">Querno </text>
</g>
<!-- CARDELL_GOODMAN -->
<g id="node5" class="node">
<title>CARDELL_GOODMAN</title>
<polygon fill="none" stroke="black" points="270.51,-50.48 196.51,-50.48 196.51,-12.48 270.51,-12.48 270.51,-50.48"/>
<text text-anchor="start" x="211.51" y="-35.28" font-family="Times,serif" font-size="14.00"> Cardell</text>
<text text-anchor="start" x="204.51" y="-20.28" font-family="Times,serif" font-size="14.00">Goodman </text>
</g>
<!-- CHARLES_FLEETWOOD -->
<g id="node6" class="node">
<title>CHARLES_FLEETWOOD</title>
<polygon fill="none" stroke="black" points="712.1,-350.5 635.1,-350.5 635.1,-312.5 712.1,-312.5 712.1,-350.5"/>
<text text-anchor="start" x="650.6" y="-335.3" font-family="Times,serif" font-size="14.00"> Charles</text>
<text text-anchor="start" x="643.1" y="-320.3" font-family="Times,serif" font-size="14.00">Fleetwood </text>
</g>
<!-- COLLEY_CIBBER -->
<g id="node7" class="node">
<title>COLLEY_CIBBER</title>
<polygon fill="none" stroke="black" points="395.11,-354.39 338.11,-354.39 338.11,-316.39 395.11,-316.39 395.11,-354.39"/>
<text text-anchor="start" x="346.61" y="-339.19" font-family="Times,serif" font-size="14.00"> Colley</text>
<text text-anchor="start" x="346.11" y="-324.19" font-family="Times,serif" font-size="14.00">Cibber </text>
</g>
<!-- COLLEY_CIBBER&#45;&gt;ALEXANDER_POPE -->
<g id="edge1" class="edge">
<title>COLLEY_CIBBER&#45;&gt;ALEXANDER_POPE</title>
<path fill="none" stroke="red" d="M349.25,-316.13C310.74,-273.38 218.09,-170.54 174.05,-121.67"/>
<polygon fill="red" stroke="red" points="176.46,-119.11 167.17,-114.02 171.26,-123.8 176.46,-119.11"/>
</g>
<!-- COLLEY_CIBBER&#45;&gt;BARTON_BOOTH -->
<g id="edge2" class="edge">
<title>COLLEY_CIBBER&#45;&gt;BARTON_BOOTH</title>
<path fill="none" stroke="green" d="M395.4,-317.05C425.02,-298.17 471.29,-268.7 503.69,-248.05"/>
<polygon fill="green" stroke="green" points="505.88,-250.8 512.44,-242.48 502.12,-244.9 505.88,-250.8"/>
</g>
<!-- COLLEY_CIBBER&#45;&gt;CAIUS_GABRIEL_CIBBER -->
<g id="edge3" class="edge">
<title>COLLEY_CIBBER&#45;&gt;CAIUS_GABRIEL_CIBBER</title>
<path fill="none" stroke="green" d="M378.72,-354.44C402.54,-391.88 455.78,-475.59 486.21,-523.43"/>
<polygon fill="green" stroke="green" points="483.29,-525.36 491.62,-531.92 489.2,-521.61 483.29,-525.36"/>
</g>
<!-- COLLEY_CIBBER&#45;&gt;CAMILLO_QUERNO -->
<g id="edge4" class="edge">
<title>COLLEY_CIBBER&#45;&gt;CAMILLO_QUERNO</title>
<path fill="none" stroke="green" d="M364.22,-354.5C357.48,-408.42 338.28,-562.09 330.2,-626.82"/>
<polygon fill="green" stroke="green" points="326.68,-626.76 328.91,-637.12 333.62,-627.63 326.68,-626.76"/>
</g>
<!-- COLLEY_CIBBER&#45;&gt;CARDELL_GOODMAN -->
<g id="edge5" class="edge">
<title>COLLEY_CIBBER&#45;&gt;CARDELL_GOODMAN</title>
<path fill="none" stroke="green" d="M358.28,-316.38C335.64,-264.68 272.85,-121.3 245.97,-59.94"/>
<polygon fill="green" stroke="green" points="249.05,-58.24 241.83,-50.48 242.64,-61.05 249.05,-58.24"/>
</g>
<!-- COLLEY_CIBBER&#45;&gt;CHARLES_FLEETWOOD -->
<g id="edge6" class="edge">
<title>COLLEY_CIBBER&#45;&gt;CHARLES_FLEETWOOD</title>
<path fill="none" stroke="green" d="M395.21,-335.03C447.67,-334.37 559.79,-332.94 624.6,-332.12"/>
<polygon fill="green" stroke="green" points="625.01,-335.62 634.96,-331.99 624.92,-328.62 625.01,-335.62"/>
</g>
<!-- DULNESS -->
<g id="node8" class="node">
<title>DULNESS</title>
<polygon fill="none" stroke="black" points="121.02,-494.07 53.02,-494.07 53.02,-458.07 121.02,-458.07 121.02,-494.07"/>
<text text-anchor="start" x="61.02" y="-472.37" font-family="Times,serif" font-size="14.00"> Dulness </text>
</g>
<!-- COLLEY_CIBBER&#45;&gt;DULNESS -->
<g id="edge7" class="edge">
<title>COLLEY_CIBBER&#45;&gt;DULNESS</title>
<path fill="none" stroke="green" d="M338,-349.79C288.96,-374.47 188.54,-424.99 130.69,-454.1"/>
<polygon fill="green" stroke="green" points="128.8,-451.13 121.44,-458.75 131.95,-457.39 128.8,-451.13"/>
</g>
<!-- EDMUND_CURLL -->
<g id="node9" class="node">
<title>EDMUND_CURLL</title>
<polygon fill="none" stroke="black" points="439.62,-659.71 372.62,-659.71 372.62,-621.71 439.62,-621.71 439.62,-659.71"/>
<text text-anchor="start" x="380.62" y="-644.51" font-family="Times,serif" font-size="14.00"> Edmund</text>
<text text-anchor="start" x="390.12" y="-629.51" font-family="Times,serif" font-size="14.00">Curll </text>
</g>
<!-- COLLEY_CIBBER&#45;&gt;EDMUND_CURLL -->
<g id="edge8" class="edge">
<title>COLLEY_CIBBER&#45;&gt;EDMUND_CURLL</title>
<path fill="none" stroke="green" d="M369.08,-354.49C375.77,-406.22 394.29,-549.29 402.32,-611.35"/>
<polygon fill="green" stroke="green" points="398.9,-612.15 403.65,-621.62 405.84,-611.25 398.9,-612.15"/>
</g>
<!-- ELKANAH_SETTLE -->
<g id="node10" class="node">
<title>ELKANAH_SETTLE</title>
<polygon fill="none" stroke="black" points="659.81,-505.02 594.81,-505.02 594.81,-467.02 659.81,-467.02 659.81,-505.02"/>
<text text-anchor="start" x="602.81" y="-489.82" font-family="Times,serif" font-size="14.00"> Elkanah</text>
<text text-anchor="start" x="609.81" y="-474.82" font-family="Times,serif" font-size="14.00">Settle </text>
</g>
<!-- COLLEY_CIBBER&#45;&gt;ELKANAH_SETTLE -->
<g id="edge9" class="edge">
<title>COLLEY_CIBBER&#45;&gt;ELKANAH_SETTLE</title>
<path fill="none" stroke="green" d="M395.5,-352.09C441.75,-378.81 532.57,-431.28 585.77,-462.02"/>
<polygon fill="green" stroke="green" points="584.2,-465.15 594.61,-467.12 587.7,-459.09 584.2,-465.15"/>
</g>
<!-- FRANCIS_ATTERBURY -->
<g id="node11" class="node">
<title>FRANCIS_ATTERBURY</title>
<polygon fill="none" stroke="black" points="651.2,-194.08 578.2,-194.08 578.2,-156.08 651.2,-156.08 651.2,-194.08"/>
<text text-anchor="start" x="592.7" y="-178.88" font-family="Times,serif" font-size="14.00"> Francis</text>
<text text-anchor="start" x="586.2" y="-163.88" font-family="Times,serif" font-size="14.00">Atterbury </text>
</g>
<!-- COLLEY_CIBBER&#45;&gt;FRANCIS_ATTERBURY -->
<g id="edge10" class="edge">
<title>COLLEY_CIBBER&#45;&gt;FRANCIS_ATTERBURY</title>
<path fill="none" stroke="orange" d="M395.55,-316.69C440.41,-287.71 526.73,-231.93 576.6,-199.7"/>
<polygon fill="orange" stroke="orange" points="578.67,-202.53 585.17,-194.16 574.87,-196.65 578.67,-202.53"/>
</g>
<!-- GEORGE_ETHEREGE -->
<g id="node12" class="node">
<title>GEORGE_ETHEREGE</title>
<polygon fill="none" stroke="black" points="155.1,-564.05 87.1,-564.05 87.1,-526.05 155.1,-526.05 155.1,-564.05"/>
<text text-anchor="start" x="99.1" y="-548.85" font-family="Times,serif" font-size="14.00"> George</text>
<text text-anchor="start" x="95.1" y="-533.85" font-family="Times,serif" font-size="14.00">Etherege </text>
</g>
<!-- COLLEY_CIBBER&#45;&gt;GEORGE_ETHEREGE -->
<g id="edge11" class="edge">
<title>COLLEY_CIBBER&#45;&gt;GEORGE_ETHEREGE</title>
<path fill="none" stroke="green" d="M343.95,-354.74C299.65,-392.58 201.52,-476.38 151.58,-519.03"/>
<polygon fill="green" stroke="green" points="149.04,-516.59 143.71,-525.75 153.58,-521.92 149.04,-516.59"/>
</g>
<!-- GEORGE_I -->
<g id="node13" class="node">
<title>GEORGE_I</title>
<polygon fill="none" stroke="black" points="561.42,-487.81 501.42,-487.81 501.42,-449.81 561.42,-449.81 561.42,-487.81"/>
<text text-anchor="start" x="509.42" y="-472.61" font-family="Times,serif" font-size="14.00"> George</text>
<text text-anchor="start" x="526.92" y="-457.61" font-family="Times,serif" font-size="14.00">I </text>
</g>
<!-- COLLEY_CIBBER&#45;&gt;GEORGE_I -->
<g id="edge12" class="edge">
<title>COLLEY_CIBBER&#45;&gt;GEORGE_I</title>
<path fill="none" stroke="green" d="M390.22,-354.51C418.98,-377.79 467.68,-417.21 499.69,-443.13"/>
<polygon fill="green" stroke="green" points="497.87,-446.16 507.85,-449.73 502.28,-440.72 497.87,-446.16"/>
</g>
<!-- GEORGE_II -->
<g id="node14" class="node">
<title>GEORGE_II</title>
<polygon fill="none" stroke="black" points="375.85,-172.19 315.85,-172.19 315.85,-134.19 375.85,-134.19 375.85,-172.19"/>
<text text-anchor="start" x="323.85" y="-156.99" font-family="Times,serif" font-size="14.00"> George</text>
<text text-anchor="start" x="339.35" y="-141.99" font-family="Times,serif" font-size="14.00">II </text>
</g>
<!-- COLLEY_CIBBER&#45;&gt;GEORGE_II -->
<g id="edge13" class="edge">
<title>COLLEY_CIBBER&#45;&gt;GEORGE_II</title>
<path fill="none" stroke="green" d="M364.43,-316.24C360.8,-284.39 353.5,-220.33 349.21,-182.68"/>
<polygon fill="green" stroke="green" points="352.65,-181.9 348.04,-172.36 345.69,-182.69 352.65,-181.9"/>
</g>
<!-- HENRY_JANSSEN -->
<g id="node15" class="node">
<title>HENRY_JANSSEN</title>
<polygon fill="none" stroke="black" points="225.57,-210.67 163.57,-210.67 163.57,-172.67 225.57,-172.67 225.57,-210.67"/>
<text text-anchor="start" x="175.57" y="-195.47" font-family="Times,serif" font-size="14.00"> Henry</text>
<text text-anchor="start" x="171.57" y="-180.47" font-family="Times,serif" font-size="14.00">Janssen </text>
</g>
<!-- COLLEY_CIBBER&#45;&gt;HENRY_JANSSEN -->
<g id="edge14" class="edge">
<title>COLLEY_CIBBER&#45;&gt;HENRY_JANSSEN</title>
<path fill="none" stroke="green" d="M343.76,-316.31C313.3,-290.86 259.28,-245.73 225.28,-217.33"/>
<polygon fill="green" stroke="green" points="227.43,-214.56 217.51,-210.84 222.94,-219.93 227.43,-214.56"/>
</g>
<!-- ISAAC_BARROW -->
<g id="node16" class="node">
<title>ISAAC_BARROW</title>
<polygon fill="none" stroke="black" points="357.76,-95.94 296.76,-95.94 296.76,-57.94 357.76,-57.94 357.76,-95.94"/>
<text text-anchor="start" x="311.26" y="-80.74" font-family="Times,serif" font-size="14.00"> Isaac</text>
<text text-anchor="start" x="304.76" y="-65.74" font-family="Times,serif" font-size="14.00">Barrow </text>
</g>
<!-- COLLEY_CIBBER&#45;&gt;ISAAC_BARROW -->
<g id="edge15" class="edge">
<title>COLLEY_CIBBER&#45;&gt;ISAAC_BARROW</title>
<path fill="none" stroke="orange" d="M363.71,-316.39C356.91,-271.67 339.84,-159.56 331.7,-106.14"/>
<polygon fill="orange" stroke="orange" points="335.12,-105.33 330.16,-95.97 328.2,-106.38 335.12,-105.33"/>
</g>
<!-- ISAAC_NEWTON -->
<g id="node17" class="node">
<title>ISAAC_NEWTON</title>
<polygon fill="none" stroke="black" points="84.84,-326.47 21.84,-326.47 21.84,-288.47 84.84,-288.47 84.84,-326.47"/>
<text text-anchor="start" x="37.34" y="-311.27" font-family="Times,serif" font-size="14.00"> Isaac</text>
<text text-anchor="start" x="29.84" y="-296.27" font-family="Times,serif" font-size="14.00">Newton </text>
</g>
<!-- COLLEY_CIBBER&#45;&gt;ISAAC_NEWTON -->
<g id="edge16" class="edge">
<title>COLLEY_CIBBER&#45;&gt;ISAAC_NEWTON</title>
<path fill="none" stroke="orange" d="M337.98,-332.84C282.46,-327.89 159.98,-316.98 95.28,-311.21"/>
<polygon fill="orange" stroke="orange" points="95.3,-307.7 85.03,-310.3 94.68,-314.67 95.3,-307.7"/>
</g>
<!-- JOHN_BANKS -->
<g id="node18" class="node">
<title>JOHN_BANKS</title>
<polygon fill="none" stroke="black" points="450.5,-548.15 396.5,-548.15 396.5,-510.15 450.5,-510.15 450.5,-548.15"/>
<text text-anchor="start" x="408.5" y="-532.95" font-family="Times,serif" font-size="14.00"> John</text>
<text text-anchor="start" x="404.5" y="-517.95" font-family="Times,serif" font-size="14.00">Banks </text>
</g>
<!-- COLLEY_CIBBER&#45;&gt;JOHN_BANKS -->
<g id="edge17" class="edge">
<title>COLLEY_CIBBER&#45;&gt;JOHN_BANKS</title>
<path fill="none" stroke="green" d="M372.27,-354.68C382.3,-388.85 403.24,-460.17 415.01,-500.23"/>
<polygon fill="green" stroke="green" points="411.68,-501.33 417.86,-509.94 418.4,-499.36 411.68,-501.33"/>
</g>
<!-- JOHN_DENNIS -->
<g id="node19" class="node">
<title>JOHN_DENNIS</title>
<polygon fill="none" stroke="black" points="281.88,-640.43 222.88,-640.43 222.88,-602.43 281.88,-602.43 281.88,-640.43"/>
<text text-anchor="start" x="237.38" y="-625.23" font-family="Times,serif" font-size="14.00"> John</text>
<text text-anchor="start" x="230.88" y="-610.23" font-family="Times,serif" font-size="14.00">Dennis </text>
</g>
<!-- COLLEY_CIBBER&#45;&gt;JOHN_DENNIS -->
<g id="edge18" class="edge">
<title>COLLEY_CIBBER&#45;&gt;JOHN_DENNIS</title>
<path fill="none" stroke="green" d="M358.94,-354.61C339.26,-403.86 286.95,-534.86 263.74,-592.97"/>
<polygon fill="green" stroke="green" points="260.48,-591.71 260.02,-602.3 266.98,-594.31 260.48,-591.71"/>
</g>
<!-- JOHN_DRYDEN -->
<g id="node20" class="node">
<title>JOHN_DRYDEN</title>
<polygon fill="none" stroke="black" points="609.37,-566.76 548.37,-566.76 548.37,-528.76 609.37,-528.76 609.37,-566.76"/>
<text text-anchor="start" x="563.87" y="-551.56" font-family="Times,serif" font-size="14.00"> John</text>
<text text-anchor="start" x="556.37" y="-536.56" font-family="Times,serif" font-size="14.00">Dryden </text>
</g>
<!-- COLLEY_CIBBER&#45;&gt;JOHN_DRYDEN -->
<g id="edge19" class="edge">
<title>COLLEY_CIBBER&#45;&gt;JOHN_DRYDEN</title>
<path fill="none" stroke="red" d="M380.22,-354.4C413.39,-392.6 498.58,-478.32 545.97,-521.69"/>
<polygon fill="red" stroke="red" points="543.75,-524.41 553.52,-528.53 548.45,-519.22 543.75,-524.41"/>
</g>
<!-- COLLEY_CIBBER&#45;&gt;JOHN_DRYDEN -->
<g id="edge20" class="edge">
<title>COLLEY_CIBBER&#45;&gt;JOHN_DRYDEN</title>
<path fill="none" stroke="orange" d="M391.99,-354.65C434.62,-392.8 519.48,-477.65 558.5,-521.12"/>
<polygon fill="orange" stroke="orange" points="555.99,-523.56 565.24,-528.73 561.23,-518.92 555.99,-523.56"/>
</g>
<!-- JOHN_FLETCHER -->
<g id="node21" class="node">
<title>JOHN_FLETCHER</title>
<polygon fill="none" stroke="black" points="687.65,-431.93 622.65,-431.93 622.65,-393.93 687.65,-393.93 687.65,-431.93"/>
<text text-anchor="start" x="640.15" y="-416.73" font-family="Times,serif" font-size="14.00"> John</text>
<text text-anchor="start" x="630.65" y="-401.73" font-family="Times,serif" font-size="14.00">Fletcher </text>
</g>
<!-- COLLEY_CIBBER&#45;&gt;JOHN_FLETCHER -->
<g id="edge21" class="edge">
<title>COLLEY_CIBBER&#45;&gt;JOHN_FLETCHER</title>
<path fill="none" stroke="green" d="M395.33,-343.11C446.4,-356.84 553.22,-385.54 612.76,-401.54"/>
<polygon fill="green" stroke="green" points="612.03,-404.97 622.6,-404.19 613.85,-398.21 612.03,-404.97"/>
</g>
<!-- JOHN_GARTH -->
<g id="node22" class="node">
<title>JOHN_GARTH</title>
<polygon fill="none" stroke="black" points="509.43,-176.91 455.43,-176.91 455.43,-138.91 509.43,-138.91 509.43,-176.91"/>
<text text-anchor="start" x="467.43" y="-161.71" font-family="Times,serif" font-size="14.00"> John</text>
<text text-anchor="start" x="464.93" y="-146.71" font-family="Times,serif" font-size="14.00">Garth </text>
</g>
<!-- COLLEY_CIBBER&#45;&gt;JOHN_GARTH -->
<g id="edge22" class="edge">
<title>COLLEY_CIBBER&#45;&gt;JOHN_GARTH</title>
<path fill="none" stroke="orange" d="M379.22,-316.06C399.82,-284.51 440.73,-221.82 464.39,-185.56"/>
<polygon fill="orange" stroke="orange" points="467.47,-187.24 470.01,-176.95 461.61,-183.41 467.47,-187.24"/>
</g>
<!-- JOHN_HERVEY -->
<g id="node23" class="node">
<title>JOHN_HERVEY</title>
<polygon fill="none" stroke="black" points="358.23,-586.56 298.23,-586.56 298.23,-548.56 358.23,-548.56 358.23,-586.56"/>
<text text-anchor="start" x="313.23" y="-571.36" font-family="Times,serif" font-size="14.00"> John</text>
<text text-anchor="start" x="306.23" y="-556.36" font-family="Times,serif" font-size="14.00">Hervey </text>
</g>
<!-- COLLEY_CIBBER&#45;&gt;JOHN_HERVEY -->
<g id="edge23" class="edge">
<title>COLLEY_CIBBER&#45;&gt;JOHN_HERVEY</title>
<path fill="none" stroke="green" d="M363.4,-354.79C356.67,-395.52 341.03,-490.16 333.07,-538.31"/>
<polygon fill="green" stroke="green" points="329.58,-537.95 331.4,-548.39 336.49,-539.09 329.58,-537.95"/>
</g>
<!-- JOHN_LOCKE -->
<g id="node24" class="node">
<title>JOHN_LOCKE</title>
<polygon fill="none" stroke="black" points="204.49,-457.41 150.49,-457.41 150.49,-419.41 204.49,-419.41 204.49,-457.41"/>
<text text-anchor="start" x="162.49" y="-442.21" font-family="Times,serif" font-size="14.00"> John</text>
<text text-anchor="start" x="158.49" y="-427.21" font-family="Times,serif" font-size="14.00">Locke </text>
</g>
<!-- COLLEY_CIBBER&#45;&gt;JOHN_LOCKE -->
<g id="edge24" class="edge">
<title>COLLEY_CIBBER&#45;&gt;JOHN_LOCKE</title>
<path fill="none" stroke="orange" d="M337.88,-351.04C304.69,-369.12 249.99,-398.92 213.85,-418.6"/>
<polygon fill="orange" stroke="orange" points="211.75,-415.76 204.64,-423.62 215.09,-421.91 211.75,-415.76"/>
</g>
<!-- JOHN_OZELL -->
<g id="node25" class="node">
<title>JOHN_OZELL</title>
<polygon fill="none" stroke="black" points="261.97,-538.03 207.97,-538.03 207.97,-500.03 261.97,-500.03 261.97,-538.03"/>
<text text-anchor="start" x="219.97" y="-522.83" font-family="Times,serif" font-size="14.00"> John</text>
<text text-anchor="start" x="217.97" y="-507.83" font-family="Times,serif" font-size="14.00">Ozell </text>
</g>
<!-- COLLEY_CIBBER&#45;&gt;JOHN_OZELL -->
<g id="edge25" class="edge">
<title>COLLEY_CIBBER&#45;&gt;JOHN_OZELL</title>
<path fill="none" stroke="green" d="M352.77,-354.7C329.3,-387.44 281.63,-453.94 254.68,-491.53"/>
<polygon fill="green" stroke="green" points="251.6,-489.82 248.62,-499.98 257.29,-493.9 251.6,-489.82"/>
</g>
<!-- JOSEPH_ADDISON -->
<g id="node26" class="node">
<title>JOSEPH_ADDISON</title>
<polygon fill="none" stroke="black" points="98.58,-247.14 32.58,-247.14 32.58,-209.14 98.58,-209.14 98.58,-247.14"/>
<text text-anchor="start" x="45.08" y="-231.94" font-family="Times,serif" font-size="14.00"> Joseph</text>
<text text-anchor="start" x="40.58" y="-216.94" font-family="Times,serif" font-size="14.00">Addison </text>
</g>
<!-- COLLEY_CIBBER&#45;&gt;JOSEPH_ADDISON -->
<g id="edge26" class="edge">
<title>COLLEY_CIBBER&#45;&gt;JOSEPH_ADDISON</title>
<path fill="none" stroke="orange" d="M338.02,-325.21C284.94,-306.3 170.91,-265.67 108.53,-243.44"/>
<polygon fill="orange" stroke="orange" points="109.57,-240.1 98.97,-240.04 107.22,-246.69 109.57,-240.1"/>
</g>
<!-- LAURENCE_EUSDEN -->
<g id="node27" class="node">
<title>LAURENCE_EUSDEN</title>
<polygon fill="none" stroke="black" points="457.37,-106.52 386.37,-106.52 386.37,-68.52 457.37,-68.52 457.37,-106.52"/>
<text text-anchor="start" x="394.37" y="-91.32" font-family="Times,serif" font-size="14.00"> Laurence</text>
<text text-anchor="start" x="399.87" y="-76.32" font-family="Times,serif" font-size="14.00">Eusden </text>
</g>
<!-- COLLEY_CIBBER&#45;&gt;LAURENCE_EUSDEN -->
<g id="edge27" class="edge">
<title>COLLEY_CIBBER&#45;&gt;LAURENCE_EUSDEN</title>
<path fill="none" stroke="green" d="M370.85,-316.36C380.48,-273.19 404,-167.67 415.43,-116.41"/>
<polygon fill="green" stroke="green" points="418.85,-117.15 417.61,-106.63 412.02,-115.63 418.85,-117.15"/>
</g>
<!-- LEWIS_THEOBALD -->
<g id="node28" class="node">
<title>LEWIS_THEOBALD</title>
<polygon fill="none" stroke="black" points="288.67,-125.58 217.67,-125.58 217.67,-87.58 288.67,-87.58 288.67,-125.58"/>
<text text-anchor="start" x="234.67" y="-110.38" font-family="Times,serif" font-size="14.00"> Lewis</text>
<text text-anchor="start" x="225.67" y="-95.38" font-family="Times,serif" font-size="14.00">Theobald </text>
</g>
<!-- COLLEY_CIBBER&#45;&gt;LEWIS_THEOBALD -->
<g id="edge28" class="edge">
<title>COLLEY_CIBBER&#45;&gt;LEWIS_THEOBALD</title>
<path fill="none" stroke="green" d="M357.13,-316.28C337.15,-275.98 290.63,-182.15 267.19,-134.88"/>
<polygon fill="green" stroke="green" points="270.27,-133.2 262.7,-125.8 264,-136.31 270.27,-133.2"/>
</g>
<!-- LORD_BISHOP_OF_LONDON -->
<g id="node29" class="node">
<title>LORD_BISHOP_OF_LONDON</title>
<polygon fill="none" stroke="black" points="62.4,-437.84 0.4,-437.84 0.4,-369.84 62.4,-369.84 62.4,-437.84"/>
<text text-anchor="start" x="15.9" y="-422.64" font-family="Times,serif" font-size="14.00"> Lord</text>
<text text-anchor="start" x="11.9" y="-407.64" font-family="Times,serif" font-size="14.00">Bishop</text>
<text text-anchor="start" x="25.4" y="-392.64" font-family="Times,serif" font-size="14.00">of</text>
<text text-anchor="start" x="8.4" y="-377.64" font-family="Times,serif" font-size="14.00">London </text>
</g>
<!-- COLLEY_CIBBER&#45;&gt;LORD_BISHOP_OF_LONDON -->
<g id="edge29" class="edge">
<title>COLLEY_CIBBER&#45;&gt;LORD_BISHOP_OF_LONDON</title>
<path fill="none" stroke="green" d="M338.03,-341.23C278.69,-353.35 141.94,-381.27 72.89,-395.37"/>
<polygon fill="green" stroke="green" points="71.91,-392 62.82,-397.43 73.31,-398.86 71.91,-392"/>
</g>
<!-- MARTINUS_SCRIBLERUS -->
<g id="node30" class="node">
<title>MARTINUS_SCRIBLERUS</title>
<polygon fill="none" stroke="black" points="626.33,-124.6 551.33,-124.6 551.33,-86.6 626.33,-86.6 626.33,-124.6"/>
<text text-anchor="start" x="561.83" y="-109.4" font-family="Times,serif" font-size="14.00"> Martinus</text>
<text text-anchor="start" x="559.33" y="-94.4" font-family="Times,serif" font-size="14.00">Scriblerus </text>
</g>
<!-- COLLEY_CIBBER&#45;&gt;MARTINUS_SCRIBLERUS -->
<g id="edge30" class="edge">
<title>COLLEY_CIBBER&#45;&gt;MARTINUS_SCRIBLERUS</title>
<path fill="none" stroke="green" d="M385.17,-316.2C424.8,-275.22 517.72,-179.13 563.05,-132.26"/>
<polygon fill="green" stroke="green" points="565.73,-134.53 570.16,-124.91 560.7,-129.66 565.73,-134.53"/>
</g>
<!-- MATTHEW_PRIOR -->
<g id="node31" class="node">
<title>MATTHEW_PRIOR</title>
<polygon fill="none" stroke="black" points="140.29,-395.08 71.29,-395.08 71.29,-357.08 140.29,-357.08 140.29,-395.08"/>
<text text-anchor="start" x="79.29" y="-379.88" font-family="Times,serif" font-size="14.00"> Matthew</text>
<text text-anchor="start" x="90.29" y="-364.88" font-family="Times,serif" font-size="14.00">Prior </text>
</g>
<!-- COLLEY_CIBBER&#45;&gt;MATTHEW_PRIOR -->
<g id="edge31" class="edge">
<title>COLLEY_CIBBER&#45;&gt;MATTHEW_PRIOR</title>
<path fill="none" stroke="red" d="M337.95,-339.86C292.7,-346.92 204.33,-360.71 150.62,-369.08"/>
<polygon fill="red" stroke="red" points="150.03,-365.63 140.69,-370.63 151.11,-372.55 150.03,-365.63"/>
</g>
<!-- PHILIP_DORMER_STANHOPE -->
<g id="node32" class="node">
<title>PHILIP_DORMER_STANHOPE</title>
<polygon fill="none" stroke="black" points="698.28,-268.64 627.28,-268.64 627.28,-215.64 698.28,-215.64 698.28,-268.64"/>
<text text-anchor="start" x="644.28" y="-253.44" font-family="Times,serif" font-size="14.00"> Philip</text>
<text text-anchor="start" x="641.28" y="-238.44" font-family="Times,serif" font-size="14.00">Dormer</text>
<text text-anchor="start" x="635.28" y="-223.44" font-family="Times,serif" font-size="14.00">Stanhope </text>
</g>
<!-- COLLEY_CIBBER&#45;&gt;PHILIP_DORMER_STANHOPE -->
<g id="edge32" class="edge">
<title>COLLEY_CIBBER&#45;&gt;PHILIP_DORMER_STANHOPE</title>
<path fill="none" stroke="red" d="M395.27,-326.37C446.84,-310.13 555.62,-275.88 617.4,-256.43"/>
<polygon fill="red" stroke="red" points="618.78,-259.66 627.26,-253.32 616.67,-252.99 618.78,-259.66"/>
</g>
<!-- RICHARD_BENTLEY -->
<g id="node33" class="node">
<title>RICHARD_BENTLEY</title>
<polygon fill="none" stroke="black" points="528.66,-67.73 465.66,-67.73 465.66,-29.73 528.66,-29.73 528.66,-67.73"/>
<text text-anchor="start" x="473.66" y="-52.53" font-family="Times,serif" font-size="14.00"> Richard</text>
<text text-anchor="start" x="474.16" y="-37.53" font-family="Times,serif" font-size="14.00">Bentley </text>
</g>
<!-- COLLEY_CIBBER&#45;&gt;RICHARD_BENTLEY -->
<g id="edge33" class="edge">
<title>COLLEY_CIBBER&#45;&gt;RICHARD_BENTLEY</title>
<path fill="none" stroke="green" d="M375.38,-316.14C397.86,-266.77 457.65,-135.49 484.17,-77.25"/>
<polygon fill="green" stroke="green" points="487.47,-78.45 488.43,-67.9 481.1,-75.55 487.47,-78.45"/>
</g>
<!-- ROBERT_WALPOLE -->
<g id="node34" class="node">
<title>ROBERT_WALPOLE</title>
<polygon fill="none" stroke="black" points="514.53,-651.76 448.53,-651.76 448.53,-613.76 514.53,-613.76 514.53,-651.76"/>
<text text-anchor="start" x="461.03" y="-636.56" font-family="Times,serif" font-size="14.00"> Robert</text>
<text text-anchor="start" x="456.53" y="-621.56" font-family="Times,serif" font-size="14.00">Walpole </text>
</g>
<!-- COLLEY_CIBBER&#45;&gt;ROBERT_WALPOLE -->
<g id="edge34" class="edge">
<title>COLLEY_CIBBER&#45;&gt;ROBERT_WALPOLE</title>
<path fill="none" stroke="green" d="M373.97,-354.45C393.55,-405.1 446.97,-543.34 470.34,-603.8"/>
<polygon fill="green" stroke="green" points="467.21,-605.41 474.08,-613.48 473.74,-602.89 467.21,-605.41"/>
</g>
<!-- STEPHEN_DUCK -->
<g id="node35" class="node">
<title>STEPHEN_DUCK</title>
<polygon fill="none" stroke="black" points="611.22,-406.98 547.22,-406.98 547.22,-368.98 611.22,-368.98 611.22,-406.98"/>
<text text-anchor="start" x="555.22" y="-391.78" font-family="Times,serif" font-size="14.00"> Stephen</text>
<text text-anchor="start" x="562.22" y="-376.78" font-family="Times,serif" font-size="14.00">Duck </text>
</g>
<!-- COLLEY_CIBBER&#45;&gt;STEPHEN_DUCK -->
<g id="edge35" class="edge">
<title>COLLEY_CIBBER&#45;&gt;STEPHEN_DUCK</title>
<path fill="none" stroke="green" d="M395.28,-342.49C431.83,-351.52 495.28,-367.22 537.27,-377.6"/>
<polygon fill="green" stroke="green" points="536.64,-381.05 547.19,-380.06 538.32,-374.26 536.64,-381.05"/>
</g>
<!-- THOMAS_ARCHER -->
<g id="node36" class="node">
<title>THOMAS_ARCHER</title>
<polygon fill="none" stroke="black" points="621.93,-317.12 557.93,-317.12 557.93,-279.12 621.93,-279.12 621.93,-317.12"/>
<text text-anchor="start" x="565.93" y="-301.92" font-family="Times,serif" font-size="14.00"> Thomas</text>
<text text-anchor="start" x="568.93" y="-286.92" font-family="Times,serif" font-size="14.00">Archer </text>
</g>
<!-- COLLEY_CIBBER&#45;&gt;THOMAS_ARCHER -->
<g id="edge36" class="edge">
<title>COLLEY_CIBBER&#45;&gt;THOMAS_ARCHER</title>
<path fill="none" stroke="green" d="M395.35,-330.6C434.03,-324.14 503.15,-312.6 547.74,-305.16"/>
<polygon fill="green" stroke="green" points="548.4,-308.6 557.69,-303.5 547.25,-301.69 548.4,-308.6"/>
</g>
<!-- THOMAS_COOKE -->
<g id="node37" class="node">
<title>THOMAS_COOKE</title>
<polygon fill="none" stroke="black" points="178.08,-299.81 114.08,-299.81 114.08,-261.81 178.08,-261.81 178.08,-299.81"/>
<text text-anchor="start" x="122.08" y="-284.61" font-family="Times,serif" font-size="14.00"> Thomas</text>
<text text-anchor="start" x="126.08" y="-269.61" font-family="Times,serif" font-size="14.00">Cooke </text>
</g>
<!-- COLLEY_CIBBER&#45;&gt;THOMAS_COOKE -->
<g id="edge37" class="edge">
<title>COLLEY_CIBBER&#45;&gt;THOMAS_COOKE</title>
<path fill="none" stroke="green" d="M337.78,-328.26C299.54,-318.79 231.79,-302.02 187.93,-291.16"/>
<polygon fill="green" stroke="green" points="188.68,-287.75 178.14,-288.74 187,-294.54 188.68,-287.75"/>
</g>
<!-- WILLIAM_BROOME -->
<g id="node38" class="node">
<title>WILLIAM_BROOME</title>
<polygon fill="none" stroke="black" points="212.93,-614.81 147.93,-614.81 147.93,-576.81 212.93,-576.81 212.93,-614.81"/>
<text text-anchor="start" x="155.93" y="-599.61" font-family="Times,serif" font-size="14.00"> William</text>
<text text-anchor="start" x="155.93" y="-584.61" font-family="Times,serif" font-size="14.00">Broome </text>
</g>
<!-- COLLEY_CIBBER&#45;&gt;WILLIAM_BROOME -->
<g id="edge38" class="edge">
<title>COLLEY_CIBBER&#45;&gt;WILLIAM_BROOME</title>
<path fill="none" stroke="green" d="M352.92,-354.54C320.3,-400.16 237.92,-515.4 200.04,-568.39"/>
<polygon fill="green" stroke="green" points="197.11,-566.47 194.14,-576.64 202.8,-570.54 197.11,-566.47"/>
</g>
<!-- WILLIAM_CONGREVE -->
<g id="node39" class="node">
<title>WILLIAM_CONGREVE</title>
<polygon fill="none" stroke="black" points="435.51,-38.36 362.51,-38.36 362.51,-0.36 435.51,-0.36 435.51,-38.36"/>
<text text-anchor="start" x="374.51" y="-23.16" font-family="Times,serif" font-size="14.00"> William</text>
<text text-anchor="start" x="370.51" y="-8.16" font-family="Times,serif" font-size="14.00">Congreve </text>
</g>
<!-- COLLEY_CIBBER&#45;&gt;WILLIAM_CONGREVE -->
<g id="edge39" class="edge">
<title>COLLEY_CIBBER&#45;&gt;WILLIAM_CONGREVE</title>
<path fill="none" stroke="orange" d="M368.59,-316.1C374.07,-262.64 389.47,-112.35 396.01,-48.57"/>
<polygon fill="orange" stroke="orange" points="399.52,-48.71 397.05,-38.4 392.55,-47.99 399.52,-48.71"/>
</g>
<!-- WILLIAM_TEMPLE -->
<g id="node40" class="node">
<title>WILLIAM_TEMPLE</title>
<polygon fill="none" stroke="black" points="139.58,-181.85 74.58,-181.85 74.58,-143.85 139.58,-143.85 139.58,-181.85"/>
<text text-anchor="start" x="82.58" y="-166.65" font-family="Times,serif" font-size="14.00"> William</text>
<text text-anchor="start" x="84.08" y="-151.65" font-family="Times,serif" font-size="14.00">Temple </text>
</g>
<!-- COLLEY_CIBBER&#45;&gt;WILLIAM_TEMPLE -->
<g id="edge40" class="edge">
<title>COLLEY_CIBBER&#45;&gt;WILLIAM_TEMPLE</title>
<path fill="none" stroke="green" d="M337.84,-316.27C290.68,-284.92 196.95,-222.6 144.63,-187.81"/>
<polygon fill="green" stroke="green" points="146.24,-184.69 135.98,-182.06 142.37,-190.51 146.24,-184.69"/>
</g>
</g>
</svg>
