<?xml version="1.0" encoding="UTF-8" standalone="no"?>
<!DOCTYPE svg PUBLIC "-//W3C//DTD SVG 1.1//EN"
 "http://www.w3.org/Graphics/SVG/1.1/DTD/svg11.dtd">
<!-- Generated by graphviz version 2.50.0 (0)
 -->
<!-- Title: G Pages: 1 -->
<svg width="760pt" height="722pt"
 viewBox="0.00 0.00 760.25 722.39" xmlns="http://www.w3.org/2000/svg" xmlns:xlink="http://www.w3.org/1999/xlink">
<g id="graph0" class="graph" transform="scale(1 1) rotate(0) translate(4 718.39)">
<title>G</title>
<polygon fill="white" stroke="transparent" points="-4,4 -4,-718.39 756.25,-718.39 756.25,4 -4,4"/>
<!-- ABEL_EVANS -->
<g id="node1" class="node">
<title>ABEL_EVANS</title>
<polygon fill="none" stroke="black" points="314.04,-310.22 260.04,-310.22 260.04,-272.22 314.04,-272.22 314.04,-310.22"/>
<text text-anchor="start" x="272.04" y="-295.02" font-family="Times,serif" font-size="14.00"> Abel</text>
<text text-anchor="start" x="268.54" y="-280.02" font-family="Times,serif" font-size="14.00">Evans </text>
</g>
<!-- ABEL_ROPER -->
<g id="node2" class="node">
<title>ABEL_ROPER</title>
<polygon fill="none" stroke="black" points="253.72,-395.16 199.72,-395.16 199.72,-357.16 253.72,-357.16 253.72,-395.16"/>
<text text-anchor="start" x="211.72" y="-379.96" font-family="Times,serif" font-size="14.00"> Abel</text>
<text text-anchor="start" x="208.22" y="-364.96" font-family="Times,serif" font-size="14.00">Roper </text>
</g>
<!-- ALEXANDER_POPE -->
<g id="node3" class="node">
<title>ALEXANDER_POPE</title>
<polygon fill="none" stroke="black" points="222.28,-314.63 146.28,-314.63 146.28,-276.63 222.28,-276.63 222.28,-314.63"/>
<text text-anchor="start" x="154.28" y="-299.43" font-family="Times,serif" font-size="14.00"> Alexander</text>
<text text-anchor="start" x="168.78" y="-284.43" font-family="Times,serif" font-size="14.00">Pope </text>
</g>
<!-- AMBROSE_PHILLIPS -->
<g id="node4" class="node">
<title>AMBROSE_PHILLIPS</title>
<polygon fill="none" stroke="black" points="377.98,-240.41 307.98,-240.41 307.98,-202.41 377.98,-202.41 377.98,-240.41"/>
<text text-anchor="start" x="315.98" y="-225.21" font-family="Times,serif" font-size="14.00"> Ambrose</text>
<text text-anchor="start" x="319.98" y="-210.21" font-family="Times,serif" font-size="14.00">Phillips </text>
</g>
<!-- BERNARD_LINTOT -->
<g id="node5" class="node">
<title>BERNARD_LINTOT</title>
<polygon fill="none" stroke="black" points="140.79,-549.54 76.79,-549.54 76.79,-511.54 140.79,-511.54 140.79,-549.54"/>
<text text-anchor="start" x="84.79" y="-534.34" font-family="Times,serif" font-size="14.00"> Bernard</text>
<text text-anchor="start" x="90.29" y="-519.34" font-family="Times,serif" font-size="14.00">Lintot </text>
</g>
<!-- BESALEEL_MORRIS -->
<g id="node6" class="node">
<title>BESALEEL_MORRIS</title>
<polygon fill="none" stroke="black" points="231.79,-635.19 165.79,-635.19 165.79,-597.19 231.79,-597.19 231.79,-635.19"/>
<text text-anchor="start" x="173.79" y="-619.99" font-family="Times,serif" font-size="14.00"> Besaleel</text>
<text text-anchor="start" x="177.79" y="-604.99" font-family="Times,serif" font-size="14.00">Morris </text>
</g>
<!-- CHARLES_GILDON -->
<g id="node7" class="node">
<title>CHARLES_GILDON</title>
<polygon fill="none" stroke="black" points="159.81,-612.93 97.81,-612.93 97.81,-574.93 159.81,-574.93 159.81,-612.93"/>
<text text-anchor="start" x="105.81" y="-597.73" font-family="Times,serif" font-size="14.00"> Charles</text>
<text text-anchor="start" x="107.81" y="-582.73" font-family="Times,serif" font-size="14.00">Gildon </text>
</g>
<!-- CLOACINA -->
<g id="node8" class="node">
<title>CLOACINA</title>
<polygon fill="none" stroke="black" points="238.31,-514.43 166.31,-514.43 166.31,-478.43 238.31,-478.43 238.31,-514.43"/>
<text text-anchor="start" x="174.31" y="-492.73" font-family="Times,serif" font-size="14.00"> Cloacina </text>
</g>
<!-- COLLEY_CIBBER -->
<g id="node9" class="node">
<title>COLLEY_CIBBER</title>
<polygon fill="none" stroke="black" points="126.75,-372.1 69.75,-372.1 69.75,-334.1 126.75,-334.1 126.75,-372.1"/>
<text text-anchor="start" x="78.25" y="-356.9" font-family="Times,serif" font-size="14.00"> Colley</text>
<text text-anchor="start" x="77.75" y="-341.9" font-family="Times,serif" font-size="14.00">Cibber </text>
</g>
<!-- DANIEL_DEFOE -->
<g id="node10" class="node">
<title>DANIEL_DEFOE</title>
<polygon fill="none" stroke="black" points="98.2,-488.56 42.2,-488.56 42.2,-450.56 98.2,-450.56 98.2,-488.56"/>
<text text-anchor="start" x="50.2" y="-473.36" font-family="Times,serif" font-size="14.00"> Daniel</text>
<text text-anchor="start" x="51.7" y="-458.36" font-family="Times,serif" font-size="14.00">Defoe </text>
</g>
<!-- EDMUND_CURLL -->
<g id="node11" class="node">
<title>EDMUND_CURLL</title>
<polygon fill="none" stroke="black" points="412.65,-372.8 345.65,-372.8 345.65,-334.8 412.65,-334.8 412.65,-372.8"/>
<text text-anchor="start" x="353.65" y="-357.6" font-family="Times,serif" font-size="14.00"> Edmund</text>
<text text-anchor="start" x="363.15" y="-342.6" font-family="Times,serif" font-size="14.00">Curll </text>
</g>
<!-- EDMUND_CURLL&#45;&gt;ABEL_EVANS -->
<g id="edge1" class="edge">
<title>EDMUND_CURLL&#45;&gt;ABEL_EVANS</title>
<path fill="none" stroke="orange" d="M351.01,-334.68C342.02,-328.57 331.95,-321.73 322.5,-315.31"/>
<polygon fill="orange" stroke="orange" points="324.29,-312.3 314.06,-309.58 320.36,-318.09 324.29,-312.3"/>
</g>
<!-- EDMUND_CURLL&#45;&gt;ABEL_ROPER -->
<g id="edge2" class="edge">
<title>EDMUND_CURLL&#45;&gt;ABEL_ROPER</title>
<path fill="none" stroke="green" d="M345.32,-358.76C321.22,-362.29 288.83,-367.05 263.99,-370.69"/>
<polygon fill="green" stroke="green" points="263.24,-367.26 253.85,-372.18 264.26,-374.19 263.24,-367.26"/>
</g>
<!-- EDMUND_CURLL&#45;&gt;ALEXANDER_POPE -->
<g id="edge3" class="edge">
<title>EDMUND_CURLL&#45;&gt;ALEXANDER_POPE</title>
<path fill="none" stroke="red" d="M345.39,-338.15C314.22,-327.08 267.62,-312.99 232.54,-303.92"/>
<polygon fill="red" stroke="red" points="233.06,-300.44 222.51,-301.39 231.35,-307.23 233.06,-300.44"/>
</g>
<!-- EDMUND_CURLL&#45;&gt;ALEXANDER_POPE -->
<g id="edge4" class="edge">
<title>EDMUND_CURLL&#45;&gt;ALEXANDER_POPE</title>
<path fill="none" stroke="orange" d="M345.49,-349.14C314.15,-341.67 267.11,-327.9 231.92,-316.07"/>
<polygon fill="orange" stroke="orange" points="232.93,-312.71 222.33,-312.79 230.66,-319.34 232.93,-312.71"/>
</g>
<!-- EDMUND_CURLL&#45;&gt;AMBROSE_PHILLIPS -->
<g id="edge5" class="edge">
<title>EDMUND_CURLL&#45;&gt;AMBROSE_PHILLIPS</title>
<path fill="none" stroke="green" d="M373.89,-334.55C367.86,-312.49 357.92,-276.09 350.95,-250.55"/>
<polygon fill="green" stroke="green" points="354.26,-249.41 348.25,-240.68 347.51,-251.25 354.26,-249.41"/>
</g>
<!-- EDMUND_CURLL&#45;&gt;BERNARD_LINTOT -->
<g id="edge6" class="edge">
<title>EDMUND_CURLL&#45;&gt;BERNARD_LINTOT</title>
<path fill="none" stroke="green" d="M349.96,-372.88C300.68,-405.1 201.04,-470.23 146.52,-505.87"/>
<polygon fill="green" stroke="green" points="144.31,-503.14 137.85,-511.54 148.14,-509 144.31,-503.14"/>
</g>
<!-- EDMUND_CURLL&#45;&gt;BESALEEL_MORRIS -->
<g id="edge7" class="edge">
<title>EDMUND_CURLL&#45;&gt;BESALEEL_MORRIS</title>
<path fill="none" stroke="green" d="M365.88,-373.09C334.29,-419.06 254.48,-535.16 217.79,-588.55"/>
<polygon fill="green" stroke="green" points="214.85,-586.64 212.07,-596.86 220.62,-590.61 214.85,-586.64"/>
</g>
<!-- EDMUND_CURLL&#45;&gt;CHARLES_GILDON -->
<g id="edge8" class="edge">
<title>EDMUND_CURLL&#45;&gt;CHARLES_GILDON</title>
<path fill="none" stroke="green" d="M359.08,-373.04C314.39,-415.92 206.59,-519.32 155.95,-567.9"/>
<polygon fill="green" stroke="green" points="153.41,-565.48 148.62,-574.93 158.26,-570.53 153.41,-565.48"/>
</g>
<!-- EDMUND_CURLL&#45;&gt;CLOACINA -->
<g id="edge9" class="edge">
<title>EDMUND_CURLL&#45;&gt;CLOACINA</title>
<path fill="none" stroke="green" d="M355.3,-373.03C323.53,-398.66 267.3,-444.01 232.58,-472.02"/>
<polygon fill="green" stroke="green" points="230.25,-469.4 224.67,-478.4 234.65,-474.84 230.25,-469.4"/>
</g>
<!-- EDMUND_CURLL&#45;&gt;COLLEY_CIBBER -->
<g id="edge10" class="edge">
<title>EDMUND_CURLL&#45;&gt;COLLEY_CIBBER</title>
<path fill="none" stroke="green" d="M345.55,-349.14C293.16,-346.19 192.28,-345.86 136.93,-348.37"/>
<polygon fill="green" stroke="green" points="136.63,-344.88 126.82,-348.89 136.99,-351.87 136.63,-344.88"/>
</g>
<!-- EDMUND_CURLL&#45;&gt;COLLEY_CIBBER -->
<g id="edge11" class="edge">
<title>EDMUND_CURLL&#45;&gt;COLLEY_CIBBER</title>
<path fill="none" stroke="orange" d="M345.53,-358.28C293.13,-360.97 192.25,-360.81 136.91,-358.02"/>
<polygon fill="orange" stroke="orange" points="136.98,-354.52 126.8,-357.45 136.59,-361.51 136.98,-354.52"/>
</g>
<!-- EDMUND_CURLL&#45;&gt;DANIEL_DEFOE -->
<g id="edge12" class="edge">
<title>EDMUND_CURLL&#45;&gt;DANIEL_DEFOE</title>
<path fill="none" stroke="green" d="M345.5,-366.41C287.42,-388.17 168.78,-432.62 107.98,-455.41"/>
<polygon fill="green" stroke="green" points="106.51,-452.22 98.38,-459.01 108.97,-458.77 106.51,-452.22"/>
</g>
<!-- EDWARD_WARD -->
<g id="node12" class="node">
<title>EDWARD_WARD</title>
<polygon fill="none" stroke="black" points="187.77,-441.5 125.77,-441.5 125.77,-403.5 187.77,-403.5 187.77,-441.5"/>
<text text-anchor="start" x="133.77" y="-426.3" font-family="Times,serif" font-size="14.00"> Edward</text>
<text text-anchor="start" x="139.77" y="-411.3" font-family="Times,serif" font-size="14.00">Ward </text>
</g>
<!-- EDMUND_CURLL&#45;&gt;EDWARD_WARD -->
<g id="edge13" class="edge">
<title>EDMUND_CURLL&#45;&gt;EDWARD_WARD</title>
<path fill="none" stroke="green" d="M345.36,-359.08C305.69,-368.98 239.97,-389.11 197.51,-404.22"/>
<polygon fill="green" stroke="green" points="196.25,-400.96 188.04,-407.66 198.64,-407.54 196.25,-400.96"/>
</g>
<!-- EDMUND_CURLL&#45;&gt;EDWARD_WARD -->
<g id="edge14" class="edge">
<title>EDMUND_CURLL&#45;&gt;EDWARD_WARD</title>
<path fill="none" stroke="blue" d="M345.41,-369.55C305.79,-384.03 240.13,-404.39 197.65,-415.41"/>
<polygon fill="blue" stroke="blue" points="196.75,-412.03 187.91,-417.87 198.46,-418.82 196.75,-412.03"/>
</g>
<!-- EDWARD_YOUNG -->
<g id="node13" class="node">
<title>EDWARD_YOUNG</title>
<polygon fill="none" stroke="black" points="62,-412.57 0,-412.57 0,-374.57 62,-374.57 62,-412.57"/>
<text text-anchor="start" x="8" y="-397.37" font-family="Times,serif" font-size="14.00"> Edward</text>
<text text-anchor="start" x="11" y="-382.37" font-family="Times,serif" font-size="14.00">Young </text>
</g>
<!-- EDMUND_CURLL&#45;&gt;EDWARD_YOUNG -->
<g id="edge15" class="edge">
<title>EDMUND_CURLL&#45;&gt;EDWARD_YOUNG</title>
<path fill="none" stroke="orange" d="M345.45,-357.65C281.33,-364.97 141.99,-380.89 72.35,-388.85"/>
<polygon fill="orange" stroke="orange" points="71.73,-385.4 62.2,-390.01 72.53,-392.35 71.73,-385.4"/>
</g>
<!-- ELIZABETH_THOMAS -->
<g id="node14" class="node">
<title>ELIZABETH_THOMAS</title>
<polygon fill="none" stroke="black" points="213.64,-225.38 142.64,-225.38 142.64,-187.38 213.64,-187.38 213.64,-225.38"/>
<text text-anchor="start" x="150.64" y="-210.18" font-family="Times,serif" font-size="14.00"> Elizabeth</text>
<text text-anchor="start" x="153.64" y="-195.18" font-family="Times,serif" font-size="14.00">Thomas </text>
</g>
<!-- EDMUND_CURLL&#45;&gt;ELIZABETH_THOMAS -->
<g id="edge16" class="edge">
<title>EDMUND_CURLL&#45;&gt;ELIZABETH_THOMAS</title>
<path fill="none" stroke="green" d="M352.87,-334.53C316.81,-308.08 251.93,-260.5 212.19,-231.35"/>
<polygon fill="green" stroke="green" points="214.24,-228.52 204.11,-225.42 210.1,-234.16 214.24,-228.52"/>
</g>
<!-- ELIZA_HAYWOOD -->
<g id="node15" class="node">
<title>ELIZA_HAYWOOD</title>
<polygon fill="none" stroke="black" points="140.49,-169.49 67.49,-169.49 67.49,-131.49 140.49,-131.49 140.49,-169.49"/>
<text text-anchor="start" x="87.99" y="-154.29" font-family="Times,serif" font-size="14.00"> Eliza</text>
<text text-anchor="start" x="75.49" y="-139.29" font-family="Times,serif" font-size="14.00">Haywood </text>
</g>
<!-- EDMUND_CURLL&#45;&gt;ELIZA_HAYWOOD -->
<g id="edge17" class="edge">
<title>EDMUND_CURLL&#45;&gt;ELIZA_HAYWOOD</title>
<path fill="none" stroke="green" d="M353.26,-334.67C303.38,-297.81 193.95,-216.96 138.16,-175.74"/>
<polygon fill="green" stroke="green" points="140.13,-172.84 130.01,-169.71 135.97,-178.47 140.13,-172.84"/>
</g>
<!-- GEORGE_DUCKETT -->
<g id="node16" class="node">
<title>GEORGE_DUCKETT</title>
<polygon fill="none" stroke="black" points="148.61,-285.91 85.61,-285.91 85.61,-247.91 148.61,-247.91 148.61,-285.91"/>
<text text-anchor="start" x="95.11" y="-270.71" font-family="Times,serif" font-size="14.00"> George</text>
<text text-anchor="start" x="93.61" y="-255.71" font-family="Times,serif" font-size="14.00">Duckett </text>
</g>
<!-- EDMUND_CURLL&#45;&gt;GEORGE_DUCKETT -->
<g id="edge18" class="edge">
<title>EDMUND_CURLL&#45;&gt;GEORGE_DUCKETT</title>
<path fill="none" stroke="green" d="M345.43,-342.62C297.51,-326.73 209.82,-297.65 158.17,-280.53"/>
<polygon fill="green" stroke="green" points="159.25,-277.2 148.66,-277.37 157.05,-283.84 159.25,-277.2"/>
</g>
<!-- GEORGE_RIDPATH -->
<g id="node17" class="node">
<title>GEORGE_RIDPATH</title>
<polygon fill="none" stroke="black" points="74.85,-268.71 11.85,-268.71 11.85,-230.71 74.85,-230.71 74.85,-268.71"/>
<text text-anchor="start" x="21.35" y="-253.51" font-family="Times,serif" font-size="14.00"> George</text>
<text text-anchor="start" x="19.85" y="-238.51" font-family="Times,serif" font-size="14.00">Ridpath </text>
</g>
<!-- EDMUND_CURLL&#45;&gt;GEORGE_RIDPATH -->
<g id="edge19" class="edge">
<title>EDMUND_CURLL&#45;&gt;GEORGE_RIDPATH</title>
<path fill="none" stroke="green" d="M345.41,-343.34C283.56,-324.17 152.19,-283.45 84.93,-262.6"/>
<polygon fill="green" stroke="green" points="85.68,-259.17 75.09,-259.55 83.61,-265.86 85.68,-259.17"/>
</g>
<!-- GILES_JACOB -->
<g id="node18" class="node">
<title>GILES_JACOB</title>
<polygon fill="none" stroke="black" points="663.01,-398.54 609.01,-398.54 609.01,-360.54 663.01,-360.54 663.01,-398.54"/>
<text text-anchor="start" x="619.51" y="-383.34" font-family="Times,serif" font-size="14.00"> Giles</text>
<text text-anchor="start" x="618.51" y="-368.34" font-family="Times,serif" font-size="14.00">Jacob </text>
</g>
<!-- EDMUND_CURLL&#45;&gt;GILES_JACOB -->
<g id="edge20" class="edge">
<title>EDMUND_CURLL&#45;&gt;GILES_JACOB</title>
<path fill="none" stroke="green" d="M412.73,-357.16C460.72,-361.97 548.63,-370.78 598.63,-375.79"/>
<polygon fill="green" stroke="green" points="598.4,-379.29 608.7,-376.8 599.1,-372.32 598.4,-379.29"/>
</g>
<!-- HENRY_CROMWELL -->
<g id="node19" class="node">
<title>HENRY_CROMWELL</title>
<polygon fill="none" stroke="black" points="734.8,-223.36 659.8,-223.36 659.8,-185.36 734.8,-185.36 734.8,-223.36"/>
<text text-anchor="start" x="678.3" y="-208.16" font-family="Times,serif" font-size="14.00"> Henry</text>
<text text-anchor="start" x="667.8" y="-193.16" font-family="Times,serif" font-size="14.00">Cromwell </text>
</g>
<!-- EDMUND_CURLL&#45;&gt;HENRY_CROMWELL -->
<g id="edge21" class="edge">
<title>EDMUND_CURLL&#45;&gt;HENRY_CROMWELL</title>
<path fill="none" stroke="red" d="M412.89,-337.95C469.98,-311.13 585.7,-256.78 650.55,-226.32"/>
<polygon fill="red" stroke="red" points="652.18,-229.42 659.74,-222 649.2,-223.08 652.18,-229.42"/>
</g>
<!-- HENRY_CURLL -->
<g id="node20" class="node">
<title>HENRY_CURLL</title>
<polygon fill="none" stroke="black" points="743,-342.64 689,-342.64 689,-304.64 743,-304.64 743,-342.64"/>
<text text-anchor="start" x="697" y="-327.44" font-family="Times,serif" font-size="14.00"> Henry</text>
<text text-anchor="start" x="700" y="-312.44" font-family="Times,serif" font-size="14.00">Curll </text>
</g>
<!-- EDMUND_CURLL&#45;&gt;HENRY_CURLL -->
<g id="edge22" class="edge">
<title>EDMUND_CURLL&#45;&gt;HENRY_CURLL</title>
<path fill="none" stroke="green" d="M412.68,-350.8C476.02,-345.12 612.83,-332.88 678.86,-326.96"/>
<polygon fill="green" stroke="green" points="679.18,-330.45 688.82,-326.07 678.55,-323.48 679.18,-330.45"/>
</g>
<!-- ISAAC_BARROW -->
<g id="node21" class="node">
<title>ISAAC_BARROW</title>
<polygon fill="none" stroke="black" points="687.36,-284.43 626.36,-284.43 626.36,-246.43 687.36,-246.43 687.36,-284.43"/>
<text text-anchor="start" x="640.86" y="-269.23" font-family="Times,serif" font-size="14.00"> Isaac</text>
<text text-anchor="start" x="634.36" y="-254.23" font-family="Times,serif" font-size="14.00">Barrow </text>
</g>
<!-- EDMUND_CURLL&#45;&gt;ISAAC_BARROW -->
<g id="edge23" class="edge">
<title>EDMUND_CURLL&#45;&gt;ISAAC_BARROW</title>
<path fill="none" stroke="orange" d="M412.92,-343.05C464.22,-326.73 561.62,-295.74 616.55,-278.26"/>
<polygon fill="orange" stroke="orange" points="617.82,-281.53 626.29,-275.16 615.7,-274.86 617.82,-281.53"/>
</g>
<!-- ISAAC_NEWTON -->
<g id="node22" class="node">
<title>ISAAC_NEWTON</title>
<polygon fill="none" stroke="black" points="718.96,-516.88 655.96,-516.88 655.96,-478.88 718.96,-478.88 718.96,-516.88"/>
<text text-anchor="start" x="671.46" y="-501.68" font-family="Times,serif" font-size="14.00"> Isaac</text>
<text text-anchor="start" x="663.96" y="-486.68" font-family="Times,serif" font-size="14.00">Newton </text>
</g>
<!-- EDMUND_CURLL&#45;&gt;ISAAC_NEWTON -->
<g id="edge24" class="edge">
<title>EDMUND_CURLL&#45;&gt;ISAAC_NEWTON</title>
<path fill="none" stroke="orange" d="M412.73,-369.49C469.62,-396.08 584.75,-449.88 646.36,-478.67"/>
<polygon fill="orange" stroke="orange" points="645.23,-482.01 655.77,-483.07 648.19,-475.67 645.23,-482.01"/>
</g>
<!-- JAMESMOORE_SMITH -->
<g id="node23" class="node">
<title>JAMESMOORE_SMITH</title>
<polygon fill="none" stroke="black" points="661.03,-472.4 566.03,-472.4 566.03,-434.4 661.03,-434.4 661.03,-472.4"/>
<text text-anchor="start" x="574.03" y="-457.2" font-family="Times,serif" font-size="14.00"> James&#45;Moore</text>
<text text-anchor="start" x="595.03" y="-442.2" font-family="Times,serif" font-size="14.00">Smith </text>
</g>
<!-- EDMUND_CURLL&#45;&gt;JAMESMOORE_SMITH -->
<g id="edge25" class="edge">
<title>EDMUND_CURLL&#45;&gt;JAMESMOORE_SMITH</title>
<path fill="none" stroke="green" d="M412.73,-368.07C451.02,-384.34 514.15,-411.17 559.41,-430.4"/>
<polygon fill="green" stroke="green" points="558.21,-433.69 568.78,-434.38 560.95,-427.25 558.21,-433.69"/>
</g>
<!-- JAMES_MOORE_SMYTHE -->
<g id="node24" class="node">
<title>JAMES_MOORE_SMYTHE</title>
<polygon fill="none" stroke="black" points="685.75,-578.34 590.75,-578.34 590.75,-540.34 685.75,-540.34 685.75,-578.34"/>
<text text-anchor="start" x="598.75" y="-563.14" font-family="Times,serif" font-size="14.00"> James Moore</text>
<text text-anchor="start" x="615.25" y="-548.14" font-family="Times,serif" font-size="14.00">Smythe </text>
</g>
<!-- EDMUND_CURLL&#45;&gt;JAMES_MOORE_SMYTHE -->
<g id="edge26" class="edge">
<title>EDMUND_CURLL&#45;&gt;JAMES_MOORE_SMYTHE</title>
<path fill="none" stroke="green" d="M403.52,-373.13C450.52,-410.41 553.63,-492.22 606.15,-533.88"/>
<polygon fill="green" stroke="green" points="604.11,-536.73 614.12,-540.21 608.46,-531.25 604.11,-536.73"/>
</g>
<!-- JOHN_ARBUTHNOT -->
<g id="node25" class="node">
<title>JOHN_ARBUTHNOT</title>
<polygon fill="none" stroke="black" points="752.25,-432.66 676.25,-432.66 676.25,-394.66 752.25,-394.66 752.25,-432.66"/>
<text text-anchor="start" x="699.25" y="-417.46" font-family="Times,serif" font-size="14.00"> John</text>
<text text-anchor="start" x="684.25" y="-402.46" font-family="Times,serif" font-size="14.00">Arbuthnot </text>
</g>
<!-- EDMUND_CURLL&#45;&gt;JOHN_ARBUTHNOT -->
<g id="edge27" class="edge">
<title>EDMUND_CURLL&#45;&gt;JOHN_ARBUTHNOT</title>
<path fill="none" stroke="red" d="M412.81,-359.81C472.49,-370.47 597,-392.72 665.86,-405.02"/>
<polygon fill="red" stroke="red" points="665.55,-408.52 676.01,-406.83 666.78,-401.63 665.55,-408.52"/>
</g>
<!-- JOHN_ATTERBURY -->
<g id="node26" class="node">
<title>JOHN_ATTERBURY</title>
<polygon fill="none" stroke="black" points="604.75,-225.62 531.75,-225.62 531.75,-187.62 604.75,-187.62 604.75,-225.62"/>
<text text-anchor="start" x="553.25" y="-210.42" font-family="Times,serif" font-size="14.00"> John</text>
<text text-anchor="start" x="539.75" y="-195.42" font-family="Times,serif" font-size="14.00">Atterbury </text>
</g>
<!-- EDMUND_CURLL&#45;&gt;JOHN_ATTERBURY -->
<g id="edge28" class="edge">
<title>EDMUND_CURLL&#45;&gt;JOHN_ATTERBURY</title>
<path fill="none" stroke="orange" d="M403.87,-334.56C437.66,-308.26 498.32,-261.05 535.75,-231.92"/>
<polygon fill="orange" stroke="orange" points="538.08,-234.54 543.82,-225.63 533.78,-229.01 538.08,-234.54"/>
</g>
<!-- JOHN_DENNIS -->
<g id="node27" class="node">
<title>JOHN_DENNIS</title>
<polygon fill="none" stroke="black" points="537.26,-51.64 478.26,-51.64 478.26,-13.64 537.26,-13.64 537.26,-51.64"/>
<text text-anchor="start" x="492.76" y="-36.44" font-family="Times,serif" font-size="14.00"> John</text>
<text text-anchor="start" x="486.26" y="-21.44" font-family="Times,serif" font-size="14.00">Dennis </text>
</g>
<!-- EDMUND_CURLL&#45;&gt;JOHN_DENNIS -->
<g id="edge29" class="edge">
<title>EDMUND_CURLL&#45;&gt;JOHN_DENNIS</title>
<path fill="none" stroke="green" d="M386.81,-334.67C408.52,-280.45 470.56,-125.53 496.33,-61.19"/>
<polygon fill="green" stroke="green" points="499.67,-62.26 500.14,-51.67 493.17,-59.65 499.67,-62.26"/>
</g>
<!-- JOHN_DRYDEN -->
<g id="node28" class="node">
<title>JOHN_DRYDEN</title>
<polygon fill="none" stroke="black" points="674.35,-160.03 613.35,-160.03 613.35,-122.03 674.35,-122.03 674.35,-160.03"/>
<text text-anchor="start" x="628.85" y="-144.83" font-family="Times,serif" font-size="14.00"> John</text>
<text text-anchor="start" x="621.35" y="-129.83" font-family="Times,serif" font-size="14.00">Dryden </text>
</g>
<!-- EDMUND_CURLL&#45;&gt;JOHN_DRYDEN -->
<g id="edge30" class="edge">
<title>EDMUND_CURLL&#45;&gt;JOHN_DRYDEN</title>
<path fill="none" stroke="orange" d="M403.1,-334.54C451.04,-296.01 558.74,-209.44 612.33,-166.37"/>
<polygon fill="orange" stroke="orange" points="614.54,-169.08 620.14,-160.09 610.15,-163.63 614.54,-169.08"/>
</g>
<!-- JOHN_DUNTON -->
<g id="node29" class="node">
<title>JOHN_DUNTON</title>
<polygon fill="none" stroke="black" points="606.81,-110.67 545.81,-110.67 545.81,-72.67 606.81,-72.67 606.81,-110.67"/>
<text text-anchor="start" x="561.31" y="-95.47" font-family="Times,serif" font-size="14.00"> John</text>
<text text-anchor="start" x="553.81" y="-80.47" font-family="Times,serif" font-size="14.00">Dunton </text>
</g>
<!-- EDMUND_CURLL&#45;&gt;JOHN_DUNTON -->
<g id="edge31" class="edge">
<title>EDMUND_CURLL&#45;&gt;JOHN_DUNTON</title>
<path fill="none" stroke="green" d="M393.64,-334.52C428.18,-288.6 515.43,-172.61 555.55,-119.28"/>
<polygon fill="green" stroke="green" points="558.58,-121.07 561.79,-110.98 552.98,-116.86 558.58,-121.07"/>
</g>
<!-- JOHN_DURANT_BREVAL -->
<g id="node30" class="node">
<title>JOHN_DURANT_BREVAL</title>
<polygon fill="none" stroke="black" points="554.31,-296.1 467.31,-296.1 467.31,-258.1 554.31,-258.1 554.31,-296.1"/>
<text text-anchor="start" x="475.31" y="-280.9" font-family="Times,serif" font-size="14.00"> John Durant</text>
<text text-anchor="start" x="490.81" y="-265.9" font-family="Times,serif" font-size="14.00">Breval </text>
</g>
<!-- EDMUND_CURLL&#45;&gt;JOHN_DURANT_BREVAL -->
<g id="edge32" class="edge">
<title>EDMUND_CURLL&#45;&gt;JOHN_DURANT_BREVAL</title>
<path fill="none" stroke="green" d="M412.03,-334.64C429.31,-324.57 450.67,-312.13 469.11,-301.39"/>
<polygon fill="green" stroke="green" points="471.01,-304.33 477.89,-296.28 467.49,-298.29 471.01,-304.33"/>
</g>
<!-- JOHN_GAY -->
<g id="node31" class="node">
<title>JOHN_GAY</title>
<polygon fill="none" stroke="black" points="452.53,-270.28 398.53,-270.28 398.53,-232.28 452.53,-232.28 452.53,-270.28"/>
<text text-anchor="start" x="410.53" y="-255.08" font-family="Times,serif" font-size="14.00"> John</text>
<text text-anchor="start" x="412.03" y="-240.08" font-family="Times,serif" font-size="14.00">Gay </text>
</g>
<!-- EDMUND_CURLL&#45;&gt;JOHN_GAY -->
<g id="edge33" class="edge">
<title>EDMUND_CURLL&#45;&gt;JOHN_GAY</title>
<path fill="none" stroke="red" d="M387.87,-334.51C394.87,-319.05 404.79,-297.12 412.69,-279.65"/>
<polygon fill="red" stroke="red" points="415.91,-281.03 416.85,-270.47 409.54,-278.14 415.91,-281.03"/>
</g>
<!-- JOHN_HENLEY -->
<g id="node32" class="node">
<title>JOHN_HENLEY</title>
<polygon fill="none" stroke="black" points="531.49,-186.13 472.49,-186.13 472.49,-148.13 531.49,-148.13 531.49,-186.13"/>
<text text-anchor="start" x="486.99" y="-170.93" font-family="Times,serif" font-size="14.00"> John</text>
<text text-anchor="start" x="480.49" y="-155.93" font-family="Times,serif" font-size="14.00">Henley </text>
</g>
<!-- EDMUND_CURLL&#45;&gt;JOHN_HENLEY -->
<g id="edge34" class="edge">
<title>EDMUND_CURLL&#45;&gt;JOHN_HENLEY</title>
<path fill="none" stroke="green" d="M391.83,-334.52C413.68,-301.32 458.49,-233.23 483.71,-194.91"/>
<polygon fill="green" stroke="green" points="486.8,-196.58 489.37,-186.3 480.95,-192.73 486.8,-196.58"/>
</g>
<!-- JOHN_LOCKE -->
<g id="node33" class="node">
<title>JOHN_LOCKE</title>
<polygon fill="none" stroke="black" points="619.45,-323.33 565.45,-323.33 565.45,-285.33 619.45,-285.33 619.45,-323.33"/>
<text text-anchor="start" x="577.45" y="-308.13" font-family="Times,serif" font-size="14.00"> John</text>
<text text-anchor="start" x="573.45" y="-293.13" font-family="Times,serif" font-size="14.00">Locke </text>
</g>
<!-- EDMUND_CURLL&#45;&gt;JOHN_LOCKE -->
<g id="edge35" class="edge">
<title>EDMUND_CURLL&#45;&gt;JOHN_LOCKE</title>
<path fill="none" stroke="orange" d="M412.94,-345.96C451.74,-336.96 515.17,-322.25 555.31,-312.94"/>
<polygon fill="orange" stroke="orange" points="556.29,-316.31 565.24,-310.64 554.7,-309.49 556.29,-316.31"/>
</g>
<!-- JOHN_OLDMIXON -->
<g id="node34" class="node">
<title>JOHN_OLDMIXON</title>
<polygon fill="none" stroke="black" points="479.87,-603.15 403.87,-603.15 403.87,-565.15 479.87,-565.15 479.87,-603.15"/>
<text text-anchor="start" x="426.87" y="-587.95" font-family="Times,serif" font-size="14.00"> John</text>
<text text-anchor="start" x="411.87" y="-572.95" font-family="Times,serif" font-size="14.00">Oldmixon </text>
</g>
<!-- EDMUND_CURLL&#45;&gt;JOHN_OLDMIXON -->
<g id="edge36" class="edge">
<title>EDMUND_CURLL&#45;&gt;JOHN_OLDMIXON</title>
<path fill="none" stroke="green" d="M384.39,-373.04C395.41,-413.54 421.07,-507.75 434.05,-555.42"/>
<polygon fill="green" stroke="green" points="430.68,-556.4 436.69,-565.13 437.44,-554.56 430.68,-556.4"/>
</g>
<!-- JOHN_TUTCHIN -->
<g id="node35" class="node">
<title>JOHN_TUTCHIN</title>
<polygon fill="none" stroke="black" points="569.46,-567.56 507.46,-567.56 507.46,-529.56 569.46,-529.56 569.46,-567.56"/>
<text text-anchor="start" x="523.46" y="-552.36" font-family="Times,serif" font-size="14.00"> John</text>
<text text-anchor="start" x="515.46" y="-537.36" font-family="Times,serif" font-size="14.00">Tutchin </text>
</g>
<!-- EDMUND_CURLL&#45;&gt;JOHN_TUTCHIN -->
<g id="edge37" class="edge">
<title>EDMUND_CURLL&#45;&gt;JOHN_TUTCHIN</title>
<path fill="none" stroke="green" d="M394.71,-372.83C423.21,-407.66 483.82,-481.76 516.49,-521.71"/>
<polygon fill="green" stroke="green" points="513.79,-523.93 522.83,-529.45 519.21,-519.5 513.79,-523.93"/>
</g>
<!-- JONATHAN_SWIFT -->
<g id="node36" class="node">
<title>JONATHAN_SWIFT</title>
<polygon fill="none" stroke="black" points="613.84,-632.44 545.84,-632.44 545.84,-594.44 613.84,-594.44 613.84,-632.44"/>
<text text-anchor="start" x="553.84" y="-617.24" font-family="Times,serif" font-size="14.00"> Jonathan</text>
<text text-anchor="start" x="562.84" y="-602.24" font-family="Times,serif" font-size="14.00">Swift </text>
</g>
<!-- EDMUND_CURLL&#45;&gt;JONATHAN_SWIFT -->
<g id="edge38" class="edge">
<title>EDMUND_CURLL&#45;&gt;JONATHAN_SWIFT</title>
<path fill="none" stroke="red" d="M389.5,-373.01C419.91,-418.76 508.51,-533.89 553.36,-586.52"/>
<polygon fill="red" stroke="red" points="550.73,-588.82 559.91,-594.11 556.03,-584.25 550.73,-588.82"/>
</g>
<!-- EDMUND_CURLL&#45;&gt;JONATHAN_SWIFT -->
<g id="edge39" class="edge">
<title>EDMUND_CURLL&#45;&gt;JONATHAN_SWIFT</title>
<path fill="none" stroke="orange" d="M399.03,-373.07C438.88,-418.65 527.25,-532.85 563.76,-585.78"/>
<polygon fill="orange" stroke="orange" points="561.05,-588.02 569.56,-594.33 566.84,-584.09 561.05,-588.02"/>
</g>
<!-- JOSEPH_ADDISON -->
<g id="node37" class="node">
<title>JOSEPH_ADDISON</title>
<polygon fill="none" stroke="black" points="550.61,-681.44 484.61,-681.44 484.61,-643.44 550.61,-643.44 550.61,-681.44"/>
<text text-anchor="start" x="497.11" y="-666.24" font-family="Times,serif" font-size="14.00"> Joseph</text>
<text text-anchor="start" x="492.61" y="-651.24" font-family="Times,serif" font-size="14.00">Addison </text>
</g>
<!-- EDMUND_CURLL&#45;&gt;JOSEPH_ADDISON -->
<g id="edge40" class="edge">
<title>EDMUND_CURLL&#45;&gt;JOSEPH_ADDISON</title>
<path fill="none" stroke="red" d="M380.64,-373.06C394.95,-425.87 459.92,-572.37 495.58,-634.33"/>
<polygon fill="red" stroke="red" points="492.72,-636.36 500.83,-643.18 498.74,-632.79 492.72,-636.36"/>
</g>
<!-- EDMUND_CURLL&#45;&gt;JOSEPH_ADDISON -->
<g id="edge41" class="edge">
<title>EDMUND_CURLL&#45;&gt;JOSEPH_ADDISON</title>
<path fill="none" stroke="blue" d="M395.86,-372.96C428.15,-425.48 493.7,-571.21 513.3,-633.61"/>
<polygon fill="blue" stroke="blue" points="509.95,-634.63 516.13,-643.23 516.67,-632.65 509.95,-634.63"/>
</g>
<!-- EDMUND_CURLL&#45;&gt;JOSEPH_ADDISON -->
<g id="edge42" class="edge">
<title>EDMUND_CURLL&#45;&gt;JOSEPH_ADDISON</title>
<path fill="none" stroke="orange" d="M387.81,-373.1C411.41,-425.72 476.96,-571.82 504.82,-633.93"/>
<polygon fill="orange" stroke="orange" points="501.66,-635.45 508.95,-643.14 508.05,-632.59 501.66,-635.45"/>
</g>
<!-- JOSEPH_GAY -->
<g id="node38" class="node">
<title>JOSEPH_GAY</title>
<polygon fill="none" stroke="black" points="464.57,-511.38 407.57,-511.38 407.57,-473.38 464.57,-473.38 464.57,-511.38"/>
<text text-anchor="start" x="415.57" y="-496.18" font-family="Times,serif" font-size="14.00"> Joseph</text>
<text text-anchor="start" x="422.57" y="-481.18" font-family="Times,serif" font-size="14.00">Gay </text>
</g>
<!-- EDMUND_CURLL&#45;&gt;JOSEPH_GAY -->
<g id="edge43" class="edge">
<title>EDMUND_CURLL&#45;&gt;JOSEPH_GAY</title>
<path fill="none" stroke="green" d="M387.06,-373.07C396.75,-396.65 413.23,-436.78 424.38,-463.92"/>
<polygon fill="green" stroke="green" points="421.19,-465.35 428.22,-473.27 427.66,-462.69 421.19,-465.35"/>
</g>
<!-- JOSEPH_GAY_AKA_JOHN_DURANT_BREVAL -->
<g id="node39" class="node">
<title>JOSEPH_GAY_AKA_JOHN_DURANT_BREVAL</title>
<polygon fill="none" stroke="black" points="531.79,-375.11 400.79,-375.11 400.79,-337.11 531.79,-337.11 531.79,-375.11"/>
<text text-anchor="start" x="419.29" y="-359.91" font-family="Times,serif" font-size="14.00"> Joseph Gay (aka</text>
<text text-anchor="start" x="408.79" y="-344.91" font-family="Times,serif" font-size="14.00">John Durant Breval) </text>
</g>
<!-- EDMUND_CURLL&#45;&gt;JOSEPH_GAY_AKA_JOHN_DURANT_BREVAL -->
<g id="edge44" class="edge">
<title>EDMUND_CURLL&#45;&gt;JOSEPH_GAY_AKA_JOHN_DURANT_BREVAL</title>
<path fill="none" stroke="green" d="M413.09,-354.7C413.14,-354.7 413.18,-354.7 413.23,-354.7"/>
<polygon fill="green" stroke="green" points="403.28,-357.93 413.37,-354.71 403.47,-350.94 403.28,-357.93"/>
</g>
<!-- LADY_MARY_WORTLEY_MONTAGU -->
<g id="node40" class="node">
<title>LADY_MARY_WORTLEY_MONTAGU</title>
<polygon fill="none" stroke="black" points="605.3,-418.01 487.3,-418.01 487.3,-380.01 605.3,-380.01 605.3,-418.01"/>
<text text-anchor="start" x="513.3" y="-402.81" font-family="Times,serif" font-size="14.00"> Lady Mary</text>
<text text-anchor="start" x="495.3" y="-387.81" font-family="Times,serif" font-size="14.00">Wortley Montagu </text>
</g>
<!-- EDMUND_CURLL&#45;&gt;LADY_MARY_WORTLEY_MONTAGU -->
<g id="edge45" class="edge">
<title>EDMUND_CURLL&#45;&gt;LADY_MARY_WORTLEY_MONTAGU</title>
<path fill="none" stroke="green" d="M412.97,-362.95C431.5,-367.96 455.17,-374.36 477.4,-380.37"/>
<polygon fill="green" stroke="green" points="476.59,-383.78 487.15,-383.01 478.41,-377.02 476.59,-383.78"/>
</g>
<!-- LEONARD_WELSTED -->
<g id="node41" class="node">
<title>LEONARD_WELSTED</title>
<polygon fill="none" stroke="black" points="533.1,-503.23 468.1,-503.23 468.1,-465.23 533.1,-465.23 533.1,-503.23"/>
<text text-anchor="start" x="476.1" y="-488.03" font-family="Times,serif" font-size="14.00"> Leonard</text>
<text text-anchor="start" x="476.1" y="-473.03" font-family="Times,serif" font-size="14.00">Welsted </text>
</g>
<!-- EDMUND_CURLL&#45;&gt;LEONARD_WELSTED -->
<g id="edge46" class="edge">
<title>EDMUND_CURLL&#45;&gt;LEONARD_WELSTED</title>
<path fill="none" stroke="green" d="M397.07,-373.04C417.88,-395.39 452.33,-432.4 475.73,-457.52"/>
<polygon fill="green" stroke="green" points="473.23,-459.97 482.6,-464.91 478.35,-455.2 473.23,-459.97"/>
</g>
<!-- LEWIS_THEOBALD -->
<g id="node42" class="node">
<title>LEWIS_THEOBALD</title>
<polygon fill="none" stroke="black" points="387.95,-714.39 316.95,-714.39 316.95,-676.39 387.95,-676.39 387.95,-714.39"/>
<text text-anchor="start" x="333.95" y="-699.19" font-family="Times,serif" font-size="14.00"> Lewis</text>
<text text-anchor="start" x="324.95" y="-684.19" font-family="Times,serif" font-size="14.00">Theobald </text>
</g>
<!-- EDMUND_CURLL&#45;&gt;LEWIS_THEOBALD -->
<g id="edge47" class="edge">
<title>EDMUND_CURLL&#45;&gt;LEWIS_THEOBALD</title>
<path fill="none" stroke="green" d="M370.87,-373.11C357.78,-430.16 344.28,-598.1 346.81,-666.2"/>
<polygon fill="green" stroke="green" points="343.32,-666.45 347.36,-676.24 350.31,-666.07 343.32,-666.45"/>
</g>
<!-- EDMUND_CURLL&#45;&gt;LEWIS_THEOBALD -->
<g id="edge48" class="edge">
<title>EDMUND_CURLL&#45;&gt;LEWIS_THEOBALD</title>
<path fill="none" stroke="red" d="M384.25,-373.16C388.51,-430.26 375.87,-598.17 362.79,-666.24"/>
<polygon fill="red" stroke="red" points="359.31,-665.77 360.69,-676.27 366.16,-667.2 359.31,-665.77"/>
</g>
<!-- EDMUND_CURLL&#45;&gt;LEWIS_THEOBALD -->
<g id="edge49" class="edge">
<title>EDMUND_CURLL&#45;&gt;LEWIS_THEOBALD</title>
<path fill="none" stroke="orange" d="M377.63,-373.14C373.17,-430.21 360.05,-598.14 354.73,-666.22"/>
<polygon fill="orange" stroke="orange" points="351.24,-666.01 353.95,-676.26 358.22,-666.56 351.24,-666.01"/>
</g>
<!-- MATTHEW_CONCANEN -->
<g id="node43" class="node">
<title>MATTHEW_CONCANEN</title>
<polygon fill="none" stroke="black" points="300.75,-683.67 226.75,-683.67 226.75,-645.67 300.75,-645.67 300.75,-683.67"/>
<text text-anchor="start" x="237.25" y="-668.47" font-family="Times,serif" font-size="14.00"> Matthew</text>
<text text-anchor="start" x="234.75" y="-653.47" font-family="Times,serif" font-size="14.00">Concanen </text>
</g>
<!-- EDMUND_CURLL&#45;&gt;MATTHEW_CONCANEN -->
<g id="edge50" class="edge">
<title>EDMUND_CURLL&#45;&gt;MATTHEW_CONCANEN</title>
<path fill="none" stroke="green" d="M371.93,-373.24C352.25,-426.26 297.59,-573.49 274.39,-636.01"/>
<polygon fill="green" stroke="green" points="271.01,-635.04 270.82,-645.63 277.58,-637.48 271.01,-635.04"/>
</g>
<!-- MATTHEW_PRIOR -->
<g id="node44" class="node">
<title>MATTHEW_PRIOR</title>
<polygon fill="none" stroke="black" points="385.67,-629.81 316.67,-629.81 316.67,-591.81 385.67,-591.81 385.67,-629.81"/>
<text text-anchor="start" x="324.67" y="-614.61" font-family="Times,serif" font-size="14.00"> Matthew</text>
<text text-anchor="start" x="335.67" y="-599.61" font-family="Times,serif" font-size="14.00">Prior </text>
</g>
<!-- EDMUND_CURLL&#45;&gt;MATTHEW_PRIOR -->
<g id="edge51" class="edge">
<title>EDMUND_CURLL&#45;&gt;MATTHEW_PRIOR</title>
<path fill="none" stroke="red" d="M377.04,-373.12C372.18,-417.79 360.14,-528.45 354.36,-581.52"/>
<polygon fill="red" stroke="red" points="350.86,-581.3 353.26,-591.62 357.82,-582.06 350.86,-581.3"/>
</g>
<!-- RICHARD_BLACKMORE -->
<g id="node45" class="node">
<title>RICHARD_BLACKMORE</title>
<polygon fill="none" stroke="black" points="476.45,-696.84 396.45,-696.84 396.45,-658.84 476.45,-658.84 476.45,-696.84"/>
<text text-anchor="start" x="412.95" y="-681.64" font-family="Times,serif" font-size="14.00"> Richard</text>
<text text-anchor="start" x="404.45" y="-666.64" font-family="Times,serif" font-size="14.00">Blackmore </text>
</g>
<!-- EDMUND_CURLL&#45;&gt;RICHARD_BLACKMORE -->
<g id="edge52" class="edge">
<title>EDMUND_CURLL&#45;&gt;RICHARD_BLACKMORE</title>
<path fill="none" stroke="green" d="M382.56,-373.1C392.21,-427.69 419.76,-583.48 431.28,-648.64"/>
<polygon fill="green" stroke="green" points="427.86,-649.4 433.05,-658.64 434.76,-648.19 427.86,-649.4"/>
</g>
<!-- SAMUEL_GARTH -->
<g id="node46" class="node">
<title>SAMUEL_GARTH</title>
<polygon fill="none" stroke="black" points="387.99,-457.28 325.99,-457.28 325.99,-419.28 387.99,-419.28 387.99,-457.28"/>
<text text-anchor="start" x="333.99" y="-442.08" font-family="Times,serif" font-size="14.00"> Samuel</text>
<text text-anchor="start" x="339.49" y="-427.08" font-family="Times,serif" font-size="14.00">Garth </text>
</g>
<!-- EDMUND_CURLL&#45;&gt;SAMUEL_GARTH -->
<g id="edge53" class="edge">
<title>EDMUND_CURLL&#45;&gt;SAMUEL_GARTH</title>
<path fill="none" stroke="red" d="M367.95,-373.18C364.19,-383.83 360.52,-397.24 358.05,-409.13"/>
<polygon fill="red" stroke="red" points="354.59,-408.6 356.22,-419.07 361.47,-409.87 354.59,-408.6"/>
</g>
<!-- EDMUND_CURLL&#45;&gt;SAMUEL_GARTH -->
<g id="edge54" class="edge">
<title>EDMUND_CURLL&#45;&gt;SAMUEL_GARTH</title>
<path fill="none" stroke="orange" d="M379.9,-373.14C378.2,-383.94 374.92,-397.59 371.24,-409.6"/>
<polygon fill="orange" stroke="orange" points="367.88,-408.62 368.08,-419.21 374.53,-410.8 367.88,-408.62"/>
</g>
<!-- THOMAS_COOKE -->
<g id="node47" class="node">
<title>THOMAS_COOKE</title>
<polygon fill="none" stroke="black" points="301.93,-478.25 237.93,-478.25 237.93,-440.25 301.93,-440.25 301.93,-478.25"/>
<text text-anchor="start" x="245.93" y="-463.05" font-family="Times,serif" font-size="14.00"> Thomas</text>
<text text-anchor="start" x="249.93" y="-448.05" font-family="Times,serif" font-size="14.00">Cooke </text>
</g>
<!-- EDMUND_CURLL&#45;&gt;THOMAS_COOKE -->
<g id="edge55" class="edge">
<title>EDMUND_CURLL&#45;&gt;THOMAS_COOKE</title>
<path fill="none" stroke="green" d="M359.37,-372.89C342,-389.66 316.57,-414.22 297.27,-432.86"/>
<polygon fill="green" stroke="green" points="294.7,-430.48 289.93,-439.94 299.56,-435.51 294.7,-430.48"/>
</g>
<!-- THOMAS_OSBORNE -->
<g id="node48" class="node">
<title>THOMAS_OSBORNE</title>
<polygon fill="none" stroke="black" points="305.26,-599.29 239.26,-599.29 239.26,-561.29 305.26,-561.29 305.26,-599.29"/>
<text text-anchor="start" x="248.26" y="-584.09" font-family="Times,serif" font-size="14.00"> Thomas</text>
<text text-anchor="start" x="247.26" y="-569.09" font-family="Times,serif" font-size="14.00">Osborne </text>
</g>
<!-- EDMUND_CURLL&#45;&gt;THOMAS_OSBORNE -->
<g id="edge56" class="edge">
<title>EDMUND_CURLL&#45;&gt;THOMAS_OSBORNE</title>
<path fill="none" stroke="green" d="M370.03,-373.11C351.18,-413.06 307.82,-504.95 285.73,-551.76"/>
<polygon fill="green" stroke="green" points="282.46,-550.49 281.35,-561.03 288.79,-553.48 282.46,-550.49"/>
</g>
<!-- THOMAS_WARNER -->
<g id="node49" class="node">
<title>THOMAS_WARNER</title>
<polygon fill="none" stroke="black" points="371.06,-545.6 307.06,-545.6 307.06,-507.6 371.06,-507.6 371.06,-545.6"/>
<text text-anchor="start" x="315.06" y="-530.4" font-family="Times,serif" font-size="14.00"> Thomas</text>
<text text-anchor="start" x="316.56" y="-515.4" font-family="Times,serif" font-size="14.00">Warner </text>
</g>
<!-- EDMUND_CURLL&#45;&gt;THOMAS_WARNER -->
<g id="edge57" class="edge">
<title>EDMUND_CURLL&#45;&gt;THOMAS_WARNER</title>
<path fill="none" stroke="green" d="M374.7,-372.95C367.69,-403.18 354.01,-462.16 345.79,-497.61"/>
<polygon fill="green" stroke="green" points="342.38,-496.83 343.52,-507.37 349.19,-498.41 342.38,-496.83"/>
</g>
<!-- TOUSSAINT_EDMOND_DE_SAINTMARD -->
<g id="node50" class="node">
<title>TOUSSAINT_EDMOND_DE_SAINTMARD</title>
<polygon fill="none" stroke="black" points="484.62,-163.15 362.62,-163.15 362.62,-125.15 484.62,-125.15 484.62,-163.15"/>
<text text-anchor="start" x="370.62" y="-147.95" font-family="Times,serif" font-size="14.00"> Toussaint Edmond</text>
<text text-anchor="start" x="382.12" y="-132.95" font-family="Times,serif" font-size="14.00">de Saint&#45;Mard </text>
</g>
<!-- EDMUND_CURLL&#45;&gt;TOUSSAINT_EDMOND_DE_SAINTMARD -->
<g id="edge58" class="edge">
<title>EDMUND_CURLL&#45;&gt;TOUSSAINT_EDMOND_DE_SAINTMARD</title>
<path fill="none" stroke="orange" d="M383.25,-334.45C391.08,-297.55 408.18,-216.94 417.41,-173.42"/>
<polygon fill="orange" stroke="orange" points="420.88,-173.96 419.53,-163.45 414.03,-172.51 420.88,-173.96"/>
</g>
<!-- WHITE_KENNETH -->
<g id="node51" class="node">
<title>WHITE_KENNETH</title>
<polygon fill="none" stroke="black" points="476.91,-94.78 410.91,-94.78 410.91,-56.78 476.91,-56.78 476.91,-94.78"/>
<text text-anchor="start" x="425.41" y="-79.58" font-family="Times,serif" font-size="14.00"> White</text>
<text text-anchor="start" x="418.91" y="-64.58" font-family="Times,serif" font-size="14.00">Kenneth </text>
</g>
<!-- EDMUND_CURLL&#45;&gt;WHITE_KENNETH -->
<g id="edge59" class="edge">
<title>EDMUND_CURLL&#45;&gt;WHITE_KENNETH</title>
<path fill="none" stroke="red" d="M383.6,-334.69C394.74,-286.87 423.87,-161.83 437.14,-104.83"/>
<polygon fill="red" stroke="red" points="440.57,-105.55 439.43,-95.02 433.75,-103.96 440.57,-105.55"/>
</g>
<!-- WILLIAM_BOND -->
<g id="node52" class="node">
<title>WILLIAM_BOND</title>
<polygon fill="none" stroke="black" points="404.96,-38 339.96,-38 339.96,0 404.96,0 404.96,-38"/>
<text text-anchor="start" x="347.96" y="-22.8" font-family="Times,serif" font-size="14.00"> William</text>
<text text-anchor="start" x="355.46" y="-7.8" font-family="Times,serif" font-size="14.00">Bond </text>
</g>
<!-- EDMUND_CURLL&#45;&gt;WILLIAM_BOND -->
<g id="edge60" class="edge">
<title>EDMUND_CURLL&#45;&gt;WILLIAM_BOND</title>
<path fill="none" stroke="green" d="M378.76,-334.35C377.63,-278.17 374.38,-115.36 373.04,-48.35"/>
<polygon fill="green" stroke="green" points="376.54,-48.01 372.84,-38.08 369.54,-48.15 376.54,-48.01"/>
</g>
<!-- WILLIAM_BOND_ -->
<g id="node53" class="node">
<title>WILLIAM_BOND_</title>
<polygon fill="none" stroke="black" points="403.72,-160.21 305.72,-160.21 305.72,-122.21 403.72,-122.21 403.72,-160.21"/>
<text text-anchor="start" x="313.72" y="-145.01" font-family="Times,serif" font-size="14.00"> William Bond</text>
<text text-anchor="start" x="352.72" y="-130.01" font-family="Times,serif" font-size="14.00"> </text>
</g>
<!-- EDMUND_CURLL&#45;&gt;WILLIAM_BOND_ -->
<g id="edge61" class="edge">
<title>EDMUND_CURLL&#45;&gt;WILLIAM_BOND_</title>
<path fill="none" stroke="green" d="M376.94,-334.56C372.64,-297.17 363.14,-214.5 358.07,-170.35"/>
<polygon fill="green" stroke="green" points="361.53,-169.79 356.91,-160.26 354.57,-170.59 361.53,-169.79"/>
</g>
<!-- WILLIAM_CAVENDISH -->
<g id="node54" class="node">
<title>WILLIAM_CAVENDISH</title>
<polygon fill="none" stroke="black" points="303.57,-221.19 226.57,-221.19 226.57,-183.19 303.57,-183.19 303.57,-221.19"/>
<text text-anchor="start" x="240.57" y="-205.99" font-family="Times,serif" font-size="14.00"> William</text>
<text text-anchor="start" x="234.57" y="-190.99" font-family="Times,serif" font-size="14.00">Cavendish </text>
</g>
<!-- EDMUND_CURLL&#45;&gt;WILLIAM_CAVENDISH -->
<g id="edge62" class="edge">
<title>EDMUND_CURLL&#45;&gt;WILLIAM_CAVENDISH</title>
<path fill="none" stroke="red" d="M364.7,-334.6C344.64,-307.94 308.26,-259.59 285.45,-229.28"/>
<polygon fill="red" stroke="red" points="288.21,-227.12 279.4,-221.24 282.61,-231.33 288.21,-227.12"/>
</g>
<!-- WILLIAM_CONGREVE -->
<g id="node55" class="node">
<title>WILLIAM_CONGREVE</title>
<polygon fill="none" stroke="black" points="228.67,-75.15 155.67,-75.15 155.67,-37.15 228.67,-37.15 228.67,-75.15"/>
<text text-anchor="start" x="167.67" y="-59.95" font-family="Times,serif" font-size="14.00"> William</text>
<text text-anchor="start" x="163.67" y="-44.95" font-family="Times,serif" font-size="14.00">Congreve </text>
</g>
<!-- EDMUND_CURLL&#45;&gt;WILLIAM_CONGREVE -->
<g id="edge63" class="edge">
<title>EDMUND_CURLL&#45;&gt;WILLIAM_CONGREVE</title>
<path fill="none" stroke="red" d="M371.14,-334.71C343.93,-283.53 256.23,-143.35 214.45,-83.63"/>
<polygon fill="red" stroke="red" points="217.28,-81.56 208.64,-75.42 211.56,-85.6 217.28,-81.56"/>
</g>
<!-- EDMUND_CURLL&#45;&gt;WILLIAM_CONGREVE -->
<g id="edge64" class="edge">
<title>EDMUND_CURLL&#45;&gt;WILLIAM_CONGREVE</title>
<path fill="none" stroke="orange" d="M362.56,-334.36C325.67,-283.07 238.31,-144.19 205.08,-84.25"/>
<polygon fill="orange" stroke="orange" points="208.09,-82.45 200.23,-75.34 201.94,-85.8 208.09,-82.45"/>
</g>
<!-- WILLIAM_MEARS -->
<g id="node56" class="node">
<title>WILLIAM_MEARS</title>
<polygon fill="none" stroke="black" points="231.31,-148.19 166.31,-148.19 166.31,-110.19 231.31,-110.19 231.31,-148.19"/>
<text text-anchor="start" x="174.31" y="-132.99" font-family="Times,serif" font-size="14.00"> William</text>
<text text-anchor="start" x="179.31" y="-117.99" font-family="Times,serif" font-size="14.00">Mears </text>
</g>
<!-- EDMUND_CURLL&#45;&gt;WILLIAM_MEARS -->
<g id="edge65" class="edge">
<title>EDMUND_CURLL&#45;&gt;WILLIAM_MEARS</title>
<path fill="none" stroke="green" d="M363.77,-334.65C331.7,-294.7 257.57,-202.38 220.6,-156.33"/>
<polygon fill="green" stroke="green" points="223.14,-153.9 214.15,-148.29 217.68,-158.28 223.14,-153.9"/>
</g>
<!-- WILLIAM_WILKINS -->
<g id="node57" class="node">
<title>WILLIAM_WILKINS</title>
<polygon fill="none" stroke="black" points="331.5,-113.86 266.5,-113.86 266.5,-75.86 331.5,-75.86 331.5,-113.86"/>
<text text-anchor="start" x="274.5" y="-98.66" font-family="Times,serif" font-size="14.00"> William</text>
<text text-anchor="start" x="275.5" y="-83.66" font-family="Times,serif" font-size="14.00">Wilkins </text>
</g>
<!-- EDMUND_CURLL&#45;&gt;WILLIAM_WILKINS -->
<g id="edge66" class="edge">
<title>EDMUND_CURLL&#45;&gt;WILLIAM_WILKINS</title>
<path fill="none" stroke="green" d="M373.25,-334.76C359.36,-289.86 324.48,-177.17 307.95,-123.78"/>
<polygon fill="green" stroke="green" points="311.2,-122.44 304.9,-113.93 304.51,-124.51 311.2,-122.44"/>
</g>
<!-- WILLIAM_WYCHERLEY -->
<g id="node58" class="node">
<title>WILLIAM_WYCHERLEY</title>
<polygon fill="none" stroke="black" points="312.2,-41.58 232.2,-41.58 232.2,-3.58 312.2,-3.58 312.2,-41.58"/>
<text text-anchor="start" x="247.7" y="-26.38" font-family="Times,serif" font-size="14.00"> William</text>
<text text-anchor="start" x="240.2" y="-11.38" font-family="Times,serif" font-size="14.00">Wycherley </text>
</g>
<!-- EDMUND_CURLL&#45;&gt;WILLIAM_WYCHERLEY -->
<g id="edge67" class="edge">
<title>EDMUND_CURLL&#45;&gt;WILLIAM_WYCHERLEY</title>
<path fill="none" stroke="blue" d="M372.93,-334.56C354.99,-278.99 303.01,-118.01 281.59,-51.67"/>
<polygon fill="blue" stroke="blue" points="284.83,-50.31 278.42,-41.87 278.17,-52.46 284.83,-50.31"/>
</g>
</g>
</svg>
