<?xml version="1.0" encoding="UTF-8" standalone="no"?>
<!DOCTYPE svg PUBLIC "-//W3C//DTD SVG 1.1//EN"
 "http://www.w3.org/Graphics/SVG/1.1/DTD/svg11.dtd">
<!-- Generated by graphviz version 2.50.0 (0)
 -->
<!-- Title: G Pages: 1 -->
<svg width="643pt" height="605pt"
 viewBox="0.00 0.00 642.76 605.09" xmlns="http://www.w3.org/2000/svg" xmlns:xlink="http://www.w3.org/1999/xlink">
<g id="graph0" class="graph" transform="scale(1 1) rotate(0) translate(4 601.09)">
<title>G</title>
<polygon fill="white" stroke="transparent" points="-4,4 -4,-601.09 638.76,-601.09 638.76,4 -4,4"/>
<!-- ANNE_TANNEGUYLE_FEVRE_DACIER -->
<g id="node1" class="node">
<title>ANNE_TANNEGUYLE_FEVRE_DACIER</title>
<polygon fill="none" stroke="black" points="397.88,-597.09 264.88,-597.09 264.88,-559.09 397.88,-559.09 397.88,-597.09"/>
<text text-anchor="start" x="272.88" y="-581.89" font-family="arial" font-size="14.00"> Anne Tanneguy&#45;Le</text>
<text text-anchor="start" x="290.38" y="-566.89" font-family="arial" font-size="14.00">Fevre Dacier </text>
</g>
<!-- EDMUND_CURLL -->
<g id="node2" class="node">
<title>EDMUND_CURLL</title>
<polygon fill="none" stroke="black" points="474.64,-447.03 403.64,-447.03 403.64,-409.03 474.64,-409.03 474.64,-447.03"/>
<text text-anchor="start" x="411.64" y="-431.83" font-family="arial" font-size="14.00"> Edmund</text>
<text text-anchor="start" x="423.14" y="-416.83" font-family="arial" font-size="14.00">Curll </text>
</g>
<!-- EDWARD_WARD -->
<g id="node3" class="node">
<title>EDWARD_WARD</title>
<polygon fill="none" stroke="black" points="594.91,-184.12 528.91,-184.12 528.91,-146.12 594.91,-146.12 594.91,-184.12"/>
<text text-anchor="start" x="536.91" y="-168.92" font-family="arial" font-size="14.00"> Edward</text>
<text text-anchor="start" x="543.41" y="-153.92" font-family="arial" font-size="14.00">Ward </text>
</g>
<!-- ELISHA_KIRKALL -->
<g id="node4" class="node">
<title>ELISHA_KIRKALL</title>
<polygon fill="none" stroke="black" points="634.76,-396.74 577.76,-396.74 577.76,-358.74 634.76,-358.74 634.76,-396.74"/>
<text text-anchor="start" x="585.76" y="-381.54" font-family="arial" font-size="14.00"> Elisha</text>
<text text-anchor="start" x="585.76" y="-366.54" font-family="arial" font-size="14.00">Kirkall </text>
</g>
<!-- ELIZA_HAYWOOD -->
<g id="node5" class="node">
<title>ELIZA_HAYWOOD</title>
<polygon fill="none" stroke="black" points="351.09,-298.34 274.09,-298.34 274.09,-260.34 351.09,-260.34 351.09,-298.34"/>
<text text-anchor="start" x="295.59" y="-283.14" font-family="arial" font-size="14.00"> Eliza</text>
<text text-anchor="start" x="282.09" y="-268.14" font-family="arial" font-size="14.00">Haywood </text>
</g>
<!-- ELIZA_HAYWOOD&#45;&gt;ANNE_TANNEGUYLE_FEVRE_DACIER -->
<g id="edge1" class="edge">
<title>ELIZA_HAYWOOD&#45;&gt;ANNE_TANNEGUYLE_FEVRE_DACIER</title>
<path fill="none" stroke="green" d="M313.79,-298.48C316.99,-349.26 325.7,-487.68 329.53,-548.62"/>
<polygon fill="green" stroke="green" points="326.04,-548.96 330.16,-558.72 333.03,-548.52 326.04,-548.96"/>
</g>
<!-- ELIZA_HAYWOOD&#45;&gt;EDMUND_CURLL -->
<g id="edge2" class="edge">
<title>ELIZA_HAYWOOD&#45;&gt;EDMUND_CURLL</title>
<path fill="none" stroke="green" d="M328.87,-298.47C351.08,-324.57 390.99,-371.46 416.22,-401.09"/>
<polygon fill="green" stroke="green" points="413.77,-403.62 422.92,-408.97 419.1,-399.08 413.77,-403.62"/>
</g>
<!-- ELIZA_HAYWOOD&#45;&gt;EDWARD_WARD -->
<g id="edge3" class="edge">
<title>ELIZA_HAYWOOD&#45;&gt;EDWARD_WARD</title>
<path fill="none" stroke="green" d="M351.27,-261.62C396.83,-240.75 472.25,-206.2 519.4,-184.6"/>
<polygon fill="green" stroke="green" points="521.09,-187.67 528.73,-180.33 518.18,-181.31 521.09,-187.67"/>
</g>
<!-- ELIZA_HAYWOOD&#45;&gt;ELISHA_KIRKALL -->
<g id="edge4" class="edge">
<title>ELIZA_HAYWOOD&#45;&gt;ELISHA_KIRKALL</title>
<path fill="none" stroke="green" d="M351.28,-292.3C407.7,-311.21 511.93,-346.13 568.06,-364.94"/>
<polygon fill="green" stroke="green" points="567.04,-368.29 577.64,-368.15 569.27,-361.66 567.04,-368.29"/>
</g>
<!-- JOHN_DENNIS -->
<g id="node6" class="node">
<title>JOHN_DENNIS</title>
<polygon fill="none" stroke="black" points="266.06,-52.64 204.06,-52.64 204.06,-14.64 266.06,-14.64 266.06,-52.64"/>
<text text-anchor="start" x="218.06" y="-37.44" font-family="arial" font-size="14.00"> John</text>
<text text-anchor="start" x="212.06" y="-22.44" font-family="arial" font-size="14.00">Dennis </text>
</g>
<!-- ELIZA_HAYWOOD&#45;&gt;JOHN_DENNIS -->
<g id="edge5" class="edge">
<title>ELIZA_HAYWOOD&#45;&gt;JOHN_DENNIS</title>
<path fill="none" stroke="green" d="M306.5,-260.06C292.94,-217.09 260.18,-113.26 244.17,-62.52"/>
<polygon fill="green" stroke="green" points="247.46,-61.31 241.11,-52.83 240.78,-63.42 247.46,-61.31"/>
</g>
<!-- JOHN_OLDMIXON -->
<g id="node7" class="node">
<title>JOHN_OLDMIXON</title>
<polygon fill="none" stroke="black" points="79,-344.4 0,-344.4 0,-306.4 79,-306.4 79,-344.4"/>
<text text-anchor="start" x="22.5" y="-329.2" font-family="arial" font-size="14.00"> John</text>
<text text-anchor="start" x="8" y="-314.2" font-family="arial" font-size="14.00">Oldmixon </text>
</g>
<!-- ELIZA_HAYWOOD&#45;&gt;JOHN_OLDMIXON -->
<g id="edge6" class="edge">
<title>ELIZA_HAYWOOD&#45;&gt;JOHN_OLDMIXON</title>
<path fill="none" stroke="green" d="M274.04,-285.84C225.56,-294.02 142.24,-308.07 89.07,-317.04"/>
<polygon fill="green" stroke="green" points="88.46,-313.6 79.18,-318.71 89.62,-320.5 88.46,-313.6"/>
</g>
<!-- LEONARD_WELSTED -->
<g id="node8" class="node">
<title>LEONARD_WELSTED</title>
<polygon fill="none" stroke="black" points="105.51,-150.09 35.51,-150.09 35.51,-112.09 105.51,-112.09 105.51,-150.09"/>
<text text-anchor="start" x="43.51" y="-134.89" font-family="arial" font-size="14.00"> Leonard</text>
<text text-anchor="start" x="44.01" y="-119.89" font-family="arial" font-size="14.00">Welsted </text>
</g>
<!-- ELIZA_HAYWOOD&#45;&gt;LEONARD_WELSTED -->
<g id="edge7" class="edge">
<title>ELIZA_HAYWOOD&#45;&gt;LEONARD_WELSTED</title>
<path fill="none" stroke="green" d="M281.44,-260.26C237.68,-233.46 158.01,-184.67 110.1,-155.34"/>
<polygon fill="green" stroke="green" points="111.89,-152.33 101.54,-150.09 108.24,-158.3 111.89,-152.33"/>
</g>
<!-- LEWIS_THEOBALD -->
<g id="node9" class="node">
<title>LEWIS_THEOBALD</title>
<polygon fill="none" stroke="black" points="177.71,-513.38 100.71,-513.38 100.71,-475.38 177.71,-475.38 177.71,-513.38"/>
<text text-anchor="start" x="119.71" y="-498.18" font-family="arial" font-size="14.00"> Lewis</text>
<text text-anchor="start" x="108.71" y="-483.18" font-family="arial" font-size="14.00">Theobald </text>
</g>
<!-- ELIZA_HAYWOOD&#45;&gt;LEWIS_THEOBALD -->
<g id="edge8" class="edge">
<title>ELIZA_HAYWOOD&#45;&gt;LEWIS_THEOBALD</title>
<path fill="none" stroke="green" d="M297.2,-298.42C266.29,-336.76 196.58,-423.23 161,-467.36"/>
<polygon fill="green" stroke="green" points="158.12,-465.36 154.56,-475.34 163.57,-469.75 158.12,-465.36"/>
</g>
<!-- RICHARD_SAVAGE -->
<g id="node10" class="node">
<title>RICHARD_SAVAGE</title>
<polygon fill="none" stroke="black" points="460.51,-38 393.51,-38 393.51,0 460.51,0 460.51,-38"/>
<text text-anchor="start" x="401.51" y="-22.8" font-family="arial" font-size="14.00"> Richard</text>
<text text-anchor="start" x="402.01" y="-7.8" font-family="arial" font-size="14.00">Savage </text>
</g>
<!-- ELIZA_HAYWOOD&#45;&gt;RICHARD_SAVAGE -->
<g id="edge9" class="edge">
<title>ELIZA_HAYWOOD&#45;&gt;RICHARD_SAVAGE</title>
<path fill="none" stroke="orange" d="M321,-260.19C340.92,-214.87 391.05,-100.81 414.53,-47.41"/>
<polygon fill="orange" stroke="orange" points="417.77,-48.73 418.59,-38.17 411.36,-45.92 417.77,-48.73"/>
</g>
</g>
</svg>
