<?xml version="1.0" encoding="UTF-8" standalone="no"?>
<!DOCTYPE svg PUBLIC "-//W3C//DTD SVG 1.1//EN"
 "http://www.w3.org/Graphics/SVG/1.1/DTD/svg11.dtd">
<!-- Generated by graphviz version 2.50.0 (0)
 -->
<!-- Title: G Pages: 1 -->
<svg width="308pt" height="265pt"
 viewBox="0.00 0.00 308.00 265.00" xmlns="http://www.w3.org/2000/svg" xmlns:xlink="http://www.w3.org/1999/xlink">
<g id="graph0" class="graph" transform="scale(1 1) rotate(0) translate(4 261)">
<title>G</title>
<polygon fill="white" stroke="transparent" points="-4,4 -4,-261 304,-261 304,4 -4,4"/>
<!-- ALEXANDER_POPE -->
<g id="node1" class="node">
<title>ALEXANDER_POPE</title>
<text text-anchor="start" x="96.72" y="-188.42" font-family="Times,serif" font-size="14.00"> Alexander</text>
<text text-anchor="start" x="111.22" y="-173.42" font-family="Times,serif" font-size="14.00">Pope </text>
</g>
<!-- AMBROSE_PHILLIPS -->
<g id="node2" class="node">
<title>AMBROSE_PHILLIPS</title>
<text text-anchor="start" x="178.17" y="-239.98" font-family="Times,serif" font-size="14.00"> Ambrose</text>
<text text-anchor="start" x="182.17" y="-224.98" font-family="Times,serif" font-size="14.00">Phillips </text>
</g>
<!-- EDWARD_WARD -->
<g id="node3" class="node">
<title>EDWARD_WARD</title>
<text text-anchor="start" x="53.81" y="-54.12" font-family="Times,serif" font-size="14.00"> Edward</text>
<text text-anchor="start" x="59.81" y="-39.12" font-family="Times,serif" font-size="14.00">Ward </text>
</g>
<!-- EUSTACE_BUDGELL -->
<g id="node4" class="node">
<title>EUSTACE_BUDGELL</title>
<text text-anchor="start" x="99.73" y="-241.79" font-family="Times,serif" font-size="14.00"> Eustace</text>
<text text-anchor="start" x="99.23" y="-226.79" font-family="Times,serif" font-size="14.00">Budgell </text>
</g>
<!-- GILES_JACOB -->
<g id="node5" class="node">
<title>GILES_JACOB</title>
<text text-anchor="start" x="127.42" y="-138.87" font-family="Times,serif" font-size="14.00"> Giles</text>
<text text-anchor="start" x="126.42" y="-123.87" font-family="Times,serif" font-size="14.00">Jacob </text>
</g>
<!-- GILES_JACOB&#45;&gt;ALEXANDER_POPE -->
<g id="edge1" class="edge">
<title>GILES_JACOB&#45;&gt;ALEXANDER_POPE</title>
<path fill="none" stroke="red" d="M137.32,-154.09C137.12,-154.67 136.91,-155.25 136.71,-155.84"/>
<polygon fill="red" stroke="red" points="133.36,-154.82 133.39,-165.41 139.97,-157.11 133.36,-154.82"/>
</g>
<!-- GILES_JACOB&#45;&gt;AMBROSE_PHILLIPS -->
<g id="edge2" class="edge">
<title>GILES_JACOB&#45;&gt;AMBROSE_PHILLIPS</title>
<path fill="none" stroke="blue" d="M155.44,-154.09C164.71,-169.39 177.86,-191.1 188.31,-208.35"/>
<polygon fill="blue" stroke="blue" points="185.32,-210.17 193.49,-216.9 191.31,-206.54 185.32,-210.17"/>
</g>
<!-- GILES_JACOB&#45;&gt;EDWARD_WARD -->
<g id="edge3" class="edge">
<title>GILES_JACOB&#45;&gt;EDWARD_WARD</title>
<path fill="none" stroke="blue" d="M128.69,-115.84C119.68,-104.46 108.13,-89.87 98.21,-77.35"/>
<polygon fill="blue" stroke="blue" points="100.93,-75.14 91.98,-69.47 95.44,-79.49 100.93,-75.14"/>
</g>
<!-- GILES_JACOB&#45;&gt;EUSTACE_BUDGELL -->
<g id="edge4" class="edge">
<title>GILES_JACOB&#45;&gt;EUSTACE_BUDGELL</title>
<path fill="none" stroke="blue" d="M139.93,-154.43C136.8,-169.67 132.37,-191.16 128.8,-208.53"/>
<polygon fill="blue" stroke="blue" points="125.29,-208.22 126.7,-218.72 132.14,-209.63 125.29,-208.22"/>
</g>
<!-- JOHN_DENNIS -->
<g id="node6" class="node">
<title>JOHN_DENNIS</title>
<text text-anchor="start" x="213.54" y="-184.09" font-family="Times,serif" font-size="14.00"> John</text>
<text text-anchor="start" x="207.04" y="-169.09" font-family="Times,serif" font-size="14.00">Dennis </text>
</g>
<!-- GILES_JACOB&#45;&gt;JOHN_DENNIS -->
<g id="edge5" class="edge">
<title>GILES_JACOB&#45;&gt;JOHN_DENNIS</title>
<path fill="none" stroke="green" d="M166.36,-154.15C173.64,-158.57 181.92,-163.15 190.02,-167.26"/>
<polygon fill="green" stroke="green" points="188.5,-170.42 199.02,-171.67 191.57,-164.13 188.5,-170.42"/>
</g>
<!-- GILES_JACOB&#45;&gt;JOHN_DENNIS -->
<g id="edge6" class="edge">
<title>GILES_JACOB&#45;&gt;JOHN_DENNIS</title>
<path fill="none" stroke="blue" d="M171.31,-142.69C179.68,-146.55 188.94,-151.33 197.53,-156.19"/>
<polygon fill="blue" stroke="blue" points="195.78,-159.22 206.18,-161.26 199.32,-153.19 195.78,-159.22"/>
</g>
<!-- JOHN_GAY -->
<g id="node7" class="node">
<title>JOHN_GAY</title>
<text text-anchor="start" x="31.33" y="-115.08" font-family="Times,serif" font-size="14.00"> John</text>
<text text-anchor="start" x="32.83" y="-100.08" font-family="Times,serif" font-size="14.00">Gay </text>
</g>
<!-- GILES_JACOB&#45;&gt;JOHN_GAY -->
<g id="edge7" class="edge">
<title>GILES_JACOB&#45;&gt;JOHN_GAY</title>
<path fill="none" stroke="red" d="M116.73,-128.45C106.37,-125.92 94.38,-122.99 83.26,-120.28"/>
<polygon fill="red" stroke="red" points="83.91,-116.84 73.37,-117.87 82.25,-123.64 83.91,-116.84"/>
</g>
<!-- JOHN_OLDMIXON -->
<g id="node8" class="node">
<title>JOHN_OLDMIXON</title>
<text text-anchor="start" x="247.08" y="-133.2" font-family="Times,serif" font-size="14.00"> John</text>
<text text-anchor="start" x="232.08" y="-118.2" font-family="Times,serif" font-size="14.00">Oldmixon </text>
</g>
<!-- GILES_JACOB&#45;&gt;JOHN_OLDMIXON -->
<g id="edge8" class="edge">
<title>GILES_JACOB&#45;&gt;JOHN_OLDMIXON</title>
<path fill="none" stroke="blue" d="M171.03,-133.77C183.64,-133.16 199.03,-132.43 213.54,-131.73"/>
<polygon fill="blue" stroke="blue" points="214.08,-135.21 223.9,-131.23 213.75,-128.21 214.08,-135.21"/>
</g>
<!-- JOHN_OZELL -->
<g id="node9" class="node">
<title>JOHN_OZELL</title>
<text text-anchor="start" x="147.76" y="-83.32" font-family="Times,serif" font-size="14.00"> John</text>
<text text-anchor="start" x="145.76" y="-68.32" font-family="Times,serif" font-size="14.00">Ozell </text>
</g>
<!-- GILES_JACOB&#45;&gt;JOHN_OZELL -->
<g id="edge9" class="edge">
<title>GILES_JACOB&#45;&gt;JOHN_OZELL</title>
<path fill="none" stroke="blue" d="M150.4,-115.95C151.22,-113.54 152.07,-111.02 152.93,-108.5"/>
<polygon fill="blue" stroke="blue" points="156.3,-109.45 156.2,-98.86 149.67,-107.21 156.3,-109.45"/>
</g>
<!-- LAURENCE_EUSDEN -->
<g id="node10" class="node">
<title>LAURENCE_EUSDEN</title>
<text text-anchor="start" x="132.97" y="-22.9" font-family="Times,serif" font-size="14.00"> Laurence</text>
<text text-anchor="start" x="138.47" y="-7.9" font-family="Times,serif" font-size="14.00">Eusden </text>
</g>
<!-- GILES_JACOB&#45;&gt;LAURENCE_EUSDEN -->
<g id="edge10" class="edge">
<title>GILES_JACOB&#45;&gt;LAURENCE_EUSDEN</title>
<path fill="none" stroke="blue" d="M146.65,-115.92C149.28,-97.54 153.27,-69.52 156.3,-48.35"/>
<polygon fill="blue" stroke="blue" points="159.79,-48.67 157.73,-38.28 152.86,-47.68 159.79,-48.67"/>
</g>
<!-- LEWIS_THEOBALD -->
<g id="node11" class="node">
<title>LEWIS_THEOBALD</title>
<text text-anchor="start" x="221.83" y="-73.69" font-family="Times,serif" font-size="14.00"> Lewis</text>
<text text-anchor="start" x="212.83" y="-58.69" font-family="Times,serif" font-size="14.00">Theobald </text>
</g>
<!-- GILES_JACOB&#45;&gt;LEWIS_THEOBALD -->
<g id="edge11" class="edge">
<title>GILES_JACOB&#45;&gt;LEWIS_THEOBALD</title>
<path fill="none" stroke="blue" d="M171.03,-116.74C181.14,-109.91 192.79,-102.03 203.61,-94.71"/>
<polygon fill="blue" stroke="blue" points="205.75,-97.49 212.08,-88.99 201.83,-91.69 205.75,-97.49"/>
</g>
<!-- SUSANNA_CENTLIVRE -->
<g id="node12" class="node">
<title>SUSANNA_CENTLIVRE</title>
<text text-anchor="start" x="11.01" y="-176.53" font-family="Times,serif" font-size="14.00"> Susanna</text>
<text text-anchor="start" x="8.01" y="-161.53" font-family="Times,serif" font-size="14.00">Centlivre </text>
</g>
<!-- GILES_JACOB&#45;&gt;SUSANNA_CENTLIVRE -->
<g id="edge12" class="edge">
<title>GILES_JACOB&#45;&gt;SUSANNA_CENTLIVRE</title>
<path fill="none" stroke="blue" d="M116.84,-144.48C105.95,-148.26 93.1,-152.73 80.87,-156.98"/>
<polygon fill="blue" stroke="blue" points="79.53,-153.74 71.23,-160.32 81.83,-160.35 79.53,-153.74"/>
</g>
</g>
</svg>
