<?xml version="1.0" encoding="UTF-8" standalone="no"?>
<!DOCTYPE svg PUBLIC "-//W3C//DTD SVG 1.1//EN"
 "http://www.w3.org/Graphics/SVG/1.1/DTD/svg11.dtd">
<!-- Generated by graphviz version 2.50.0 (0)
 -->
<!-- Title: G Pages: 1 -->
<svg width="634pt" height="594pt"
 viewBox="0.00 0.00 634.01 594.10" xmlns="http://www.w3.org/2000/svg" xmlns:xlink="http://www.w3.org/1999/xlink">
<g id="graph0" class="graph" transform="scale(1 1) rotate(0) translate(4 590.1)">
<title>G</title>
<polygon fill="white" stroke="transparent" points="-4,4 -4,-590.1 630.01,-590.1 630.01,4 -4,4"/>
<!-- ALEXANDER_POPE -->
<g id="node1" class="node">
<title>ALEXANDER_POPE</title>
<polygon fill="none" stroke="black" points="141.95,-101.86 61.95,-101.86 61.95,-63.86 141.95,-63.86 141.95,-101.86"/>
<text text-anchor="start" x="69.95" y="-86.66" font-family="arial" font-size="14.00"> Alexander</text>
<text text-anchor="start" x="83.95" y="-71.66" font-family="arial" font-size="14.00">Pope </text>
</g>
<!-- AMBROSE_PHILLIPS -->
<g id="node2" class="node">
<title>AMBROSE_PHILLIPS</title>
<polygon fill="none" stroke="black" points="279.76,-155.06 205.76,-155.06 205.76,-117.06 279.76,-117.06 279.76,-155.06"/>
<text text-anchor="start" x="213.76" y="-139.86" font-family="arial" font-size="14.00"> Ambrose</text>
<text text-anchor="start" x="219.26" y="-124.86" font-family="arial" font-size="14.00">Phillips </text>
</g>
<!-- EDMUND_CURLL -->
<g id="node3" class="node">
<title>EDMUND_CURLL</title>
<polygon fill="none" stroke="black" points="71,-408.75 0,-408.75 0,-370.75 71,-370.75 71,-408.75"/>
<text text-anchor="start" x="8" y="-393.55" font-family="arial" font-size="14.00"> Edmund</text>
<text text-anchor="start" x="19.5" y="-378.55" font-family="arial" font-size="14.00">Curll </text>
</g>
<!-- EDWARD_WARD -->
<g id="node4" class="node">
<title>EDWARD_WARD</title>
<polygon fill="none" stroke="black" points="93.54,-261.29 27.54,-261.29 27.54,-223.29 93.54,-223.29 93.54,-261.29"/>
<text text-anchor="start" x="35.54" y="-246.09" font-family="arial" font-size="14.00"> Edward</text>
<text text-anchor="start" x="42.04" y="-231.09" font-family="arial" font-size="14.00">Ward </text>
</g>
<!-- EUSTACE_BUDGELL -->
<g id="node5" class="node">
<title>EUSTACE_BUDGELL</title>
<polygon fill="none" stroke="black" points="377.82,-38 308.82,-38 308.82,0 377.82,0 377.82,-38"/>
<text text-anchor="start" x="316.82" y="-22.8" font-family="arial" font-size="14.00"> Eustace</text>
<text text-anchor="start" x="318.82" y="-7.8" font-family="arial" font-size="14.00">Budgell </text>
</g>
<!-- GILES_JACOB -->
<g id="node6" class="node">
<title>GILES_JACOB</title>
<polygon fill="none" stroke="black" points="329.6,-323.59 273.6,-323.59 273.6,-285.59 329.6,-285.59 329.6,-323.59"/>
<text text-anchor="start" x="283.6" y="-308.39" font-family="arial" font-size="14.00"> Giles</text>
<text text-anchor="start" x="281.6" y="-293.39" font-family="arial" font-size="14.00">Jacob </text>
</g>
<!-- GILES_JACOB&#45;&gt;ALEXANDER_POPE -->
<g id="edge1" class="edge">
<title>GILES_JACOB&#45;&gt;ALEXANDER_POPE</title>
<path fill="none" stroke="red" d="M289.4,-285.4C258.41,-245.59 176.7,-154.35 132.02,-109.14"/>
<polygon fill="red" stroke="red" points="134.46,-106.63 124.92,-102.03 129.51,-111.58 134.46,-106.63"/>
</g>
<!-- GILES_JACOB&#45;&gt;ALEXANDER_POPE -->
<g id="edge2" class="edge">
<title>GILES_JACOB&#45;&gt;ALEXANDER_POPE</title>
<path fill="none" stroke="blue" d="M278.57,-285.36C238.53,-245.79 157.2,-155.55 120.5,-110.04"/>
<polygon fill="blue" stroke="blue" points="123.14,-107.74 114.18,-102.09 117.66,-112.1 123.14,-107.74"/>
</g>
<!-- GILES_JACOB&#45;&gt;AMBROSE_PHILLIPS -->
<g id="edge3" class="edge">
<title>GILES_JACOB&#45;&gt;AMBROSE_PHILLIPS</title>
<path fill="none" stroke="blue" d="M294.97,-285.58C284.68,-256.12 264.82,-199.24 252.78,-164.76"/>
<polygon fill="blue" stroke="blue" points="256.06,-163.54 249.46,-155.25 249.45,-165.85 256.06,-163.54"/>
</g>
<!-- GILES_JACOB&#45;&gt;EDMUND_CURLL -->
<g id="edge4" class="edge">
<title>GILES_JACOB&#45;&gt;EDMUND_CURLL</title>
<path fill="none" stroke="blue" d="M273.12,-313.7C227.18,-328.41 136.29,-357.49 81.2,-375.12"/>
<polygon fill="blue" stroke="blue" points="79.81,-371.89 71.35,-378.28 81.94,-378.56 79.81,-371.89"/>
</g>
<!-- GILES_JACOB&#45;&gt;EDWARD_WARD -->
<g id="edge5" class="edge">
<title>GILES_JACOB&#45;&gt;EDWARD_WARD</title>
<path fill="none" stroke="blue" d="M273.48,-297.32C231.65,-286.51 152.71,-266.11 103.58,-253.42"/>
<polygon fill="blue" stroke="blue" points="104.44,-250.02 93.88,-250.91 102.68,-256.8 104.44,-250.02"/>
</g>
<!-- GILES_JACOB&#45;&gt;EUSTACE_BUDGELL -->
<g id="edge6" class="edge">
<title>GILES_JACOB&#45;&gt;EUSTACE_BUDGELL</title>
<path fill="none" stroke="blue" d="M304.4,-285.41C311.56,-236.43 330.53,-106.51 339.06,-48.13"/>
<polygon fill="blue" stroke="blue" points="342.54,-48.5 340.53,-38.1 335.62,-47.49 342.54,-48.5"/>
</g>
<!-- JOHN_DENNIS -->
<g id="node7" class="node">
<title>JOHN_DENNIS</title>
<polygon fill="none" stroke="black" points="535.57,-118.56 473.57,-118.56 473.57,-80.56 535.57,-80.56 535.57,-118.56"/>
<text text-anchor="start" x="487.57" y="-103.36" font-family="arial" font-size="14.00"> John</text>
<text text-anchor="start" x="481.57" y="-88.36" font-family="arial" font-size="14.00">Dennis </text>
</g>
<!-- GILES_JACOB&#45;&gt;JOHN_DENNIS -->
<g id="edge7" class="edge">
<title>GILES_JACOB&#45;&gt;JOHN_DENNIS</title>
<path fill="none" stroke="green" d="M326.84,-285.35C367.65,-248.53 447.03,-168.39 484.38,-126.36"/>
<polygon fill="green" stroke="green" points="487.1,-128.56 491.05,-118.73 481.83,-123.95 487.1,-128.56"/>
</g>
<!-- GILES_JACOB&#45;&gt;JOHN_DENNIS -->
<g id="edge8" class="edge">
<title>GILES_JACOB&#45;&gt;JOHN_DENNIS</title>
<path fill="none" stroke="blue" d="M315.11,-285.43C346.9,-248.42 426.56,-167.47 471.87,-125.62"/>
<polygon fill="blue" stroke="blue" points="474.35,-128.1 479.37,-118.77 469.62,-122.93 474.35,-128.1"/>
</g>
<!-- JOHN_GAY -->
<g id="node8" class="node">
<title>JOHN_GAY</title>
<polygon fill="none" stroke="black" points="626.01,-317.78 572.01,-317.78 572.01,-279.78 626.01,-279.78 626.01,-317.78"/>
<text text-anchor="start" x="582.01" y="-302.58" font-family="arial" font-size="14.00"> John</text>
<text text-anchor="start" x="584.01" y="-287.58" font-family="arial" font-size="14.00">Gay </text>
</g>
<!-- GILES_JACOB&#45;&gt;JOHN_GAY -->
<g id="edge9" class="edge">
<title>GILES_JACOB&#45;&gt;JOHN_GAY</title>
<path fill="none" stroke="red" d="M329.85,-304.04C383.74,-302.98 501.23,-300.69 561.59,-299.51"/>
<polygon fill="red" stroke="red" points="561.88,-303.01 571.81,-299.31 561.75,-296.01 561.88,-303.01"/>
</g>
<!-- JOHN_OLDMIXON -->
<g id="node9" class="node">
<title>JOHN_OLDMIXON</title>
<polygon fill="none" stroke="black" points="492.28,-269.84 413.28,-269.84 413.28,-231.84 492.28,-231.84 492.28,-269.84"/>
<text text-anchor="start" x="435.78" y="-254.64" font-family="arial" font-size="14.00"> John</text>
<text text-anchor="start" x="421.28" y="-239.64" font-family="arial" font-size="14.00">Oldmixon </text>
</g>
<!-- GILES_JACOB&#45;&gt;JOHN_OLDMIXON -->
<g id="edge10" class="edge">
<title>GILES_JACOB&#45;&gt;JOHN_OLDMIXON</title>
<path fill="none" stroke="blue" d="M329.68,-294.6C350.41,-287.23 379.16,-277.01 403.66,-268.3"/>
<polygon fill="blue" stroke="blue" points="404.92,-271.57 413.17,-264.92 402.57,-264.97 404.92,-271.57"/>
</g>
<!-- JOHN_OZELL -->
<g id="node10" class="node">
<title>JOHN_OZELL</title>
<polygon fill="none" stroke="black" points="438.15,-572.07 384.15,-572.07 384.15,-534.07 438.15,-534.07 438.15,-572.07"/>
<text text-anchor="start" x="394.15" y="-556.87" font-family="arial" font-size="14.00"> John</text>
<text text-anchor="start" x="393.15" y="-541.87" font-family="arial" font-size="14.00">Ozell </text>
</g>
<!-- GILES_JACOB&#45;&gt;JOHN_OZELL -->
<g id="edge11" class="edge">
<title>GILES_JACOB&#45;&gt;JOHN_OZELL</title>
<path fill="none" stroke="blue" d="M310.01,-323.67C329.17,-367.13 376.12,-473.61 398.67,-524.75"/>
<polygon fill="blue" stroke="blue" points="395.47,-526.18 402.71,-533.92 401.88,-523.36 395.47,-526.18"/>
</g>
<!-- LAURENCE_EUSDEN -->
<g id="node11" class="node">
<title>LAURENCE_EUSDEN</title>
<polygon fill="none" stroke="black" points="301.73,-586.1 224.73,-586.1 224.73,-548.1 301.73,-548.1 301.73,-586.1"/>
<text text-anchor="start" x="232.73" y="-570.9" font-family="arial" font-size="14.00"> Laurence</text>
<text text-anchor="start" x="238.23" y="-555.9" font-family="arial" font-size="14.00">Eusden </text>
</g>
<!-- GILES_JACOB&#45;&gt;LAURENCE_EUSDEN -->
<g id="edge12" class="edge">
<title>GILES_JACOB&#45;&gt;LAURENCE_EUSDEN</title>
<path fill="none" stroke="blue" d="M298.78,-323.89C292.13,-369.4 275.43,-483.66 267.52,-537.79"/>
<polygon fill="blue" stroke="blue" points="264.04,-537.37 266.06,-547.77 270.97,-538.38 264.04,-537.37"/>
</g>
<!-- LEWIS_THEOBALD -->
<g id="node12" class="node">
<title>LEWIS_THEOBALD</title>
<polygon fill="none" stroke="black" points="554.38,-465.63 477.38,-465.63 477.38,-427.63 554.38,-427.63 554.38,-465.63"/>
<text text-anchor="start" x="496.38" y="-450.43" font-family="arial" font-size="14.00"> Lewis</text>
<text text-anchor="start" x="485.38" y="-435.43" font-family="arial" font-size="14.00">Theobald </text>
</g>
<!-- GILES_JACOB&#45;&gt;LEWIS_THEOBALD -->
<g id="edge13" class="edge">
<title>GILES_JACOB&#45;&gt;LEWIS_THEOBALD</title>
<path fill="none" stroke="blue" d="M329.61,-323.16C367.82,-348.49 436.36,-393.92 478.8,-422.05"/>
<polygon fill="blue" stroke="blue" points="476.91,-425 487.18,-427.61 480.78,-419.16 476.91,-425"/>
</g>
<!-- SUSANNA_CENTLIVRE -->
<g id="node13" class="node">
<title>SUSANNA_CENTLIVRE</title>
<polygon fill="none" stroke="black" points="175.68,-514.06 101.68,-514.06 101.68,-476.06 175.68,-476.06 175.68,-514.06"/>
<text text-anchor="start" x="109.68" y="-498.86" font-family="arial" font-size="14.00"> Susanna</text>
<text text-anchor="start" x="109.68" y="-483.86" font-family="arial" font-size="14.00">Centlivre </text>
</g>
<!-- GILES_JACOB&#45;&gt;SUSANNA_CENTLIVRE -->
<g id="edge14" class="edge">
<title>GILES_JACOB&#45;&gt;SUSANNA_CENTLIVRE</title>
<path fill="none" stroke="blue" d="M285.08,-323.9C255.85,-358.07 194.98,-429.24 161.67,-468.18"/>
<polygon fill="blue" stroke="blue" points="158.84,-466.1 155,-475.98 164.16,-470.65 158.84,-466.1"/>
</g>
</g>
</svg>
