<?xml version="1.0" encoding="UTF-8" standalone="no"?>
<!DOCTYPE svg PUBLIC "-//W3C//DTD SVG 1.1//EN"
 "http://www.w3.org/Graphics/SVG/1.1/DTD/svg11.dtd">
<!-- Generated by graphviz version 2.50.0 (0)
 -->
<!-- Title: G Pages: 1 -->
<svg width="616pt" height="579pt"
 viewBox="0.00 0.00 616.11 578.64" xmlns="http://www.w3.org/2000/svg" xmlns:xlink="http://www.w3.org/1999/xlink">
<g id="graph0" class="graph" transform="scale(1 1) rotate(0) translate(4 574.64)">
<title>G</title>
<polygon fill="white" stroke="transparent" points="-4,4 -4,-574.64 612.11,-574.64 612.11,4 -4,4"/>
<!-- ALEXANDER_POPE -->
<g id="node1" class="node">
<title>ALEXANDER_POPE</title>
<polygon fill="none" stroke="black" points="136.08,-100.06 60.08,-100.06 60.08,-62.06 136.08,-62.06 136.08,-100.06"/>
<text text-anchor="start" x="68.08" y="-84.86" font-family="Times,serif" font-size="14.00"> Alexander</text>
<text text-anchor="start" x="82.58" y="-69.86" font-family="Times,serif" font-size="14.00">Pope </text>
</g>
<!-- AMBROSE_PHILLIPS -->
<g id="node2" class="node">
<title>AMBROSE_PHILLIPS</title>
<polygon fill="none" stroke="black" points="269.91,-151.75 199.91,-151.75 199.91,-113.75 269.91,-113.75 269.91,-151.75"/>
<text text-anchor="start" x="207.91" y="-136.55" font-family="Times,serif" font-size="14.00"> Ambrose</text>
<text text-anchor="start" x="211.91" y="-121.55" font-family="Times,serif" font-size="14.00">Phillips </text>
</g>
<!-- EDMUND_CURLL -->
<g id="node3" class="node">
<title>EDMUND_CURLL</title>
<polygon fill="none" stroke="black" points="67,-398.29 0,-398.29 0,-360.29 67,-360.29 67,-398.29"/>
<text text-anchor="start" x="8" y="-383.09" font-family="Times,serif" font-size="14.00"> Edmund</text>
<text text-anchor="start" x="17.5" y="-368.09" font-family="Times,serif" font-size="14.00">Curll </text>
</g>
<!-- EDWARD_WARD -->
<g id="node4" class="node">
<title>EDWARD_WARD</title>
<polygon fill="none" stroke="black" points="88.83,-254.99 26.83,-254.99 26.83,-216.99 88.83,-216.99 88.83,-254.99"/>
<text text-anchor="start" x="34.83" y="-239.79" font-family="Times,serif" font-size="14.00"> Edward</text>
<text text-anchor="start" x="40.83" y="-224.79" font-family="Times,serif" font-size="14.00">Ward </text>
</g>
<!-- EUSTACE_BUDGELL -->
<g id="node5" class="node">
<title>EUSTACE_BUDGELL</title>
<polygon fill="none" stroke="black" points="364.13,-38 301.13,-38 301.13,0 364.13,0 364.13,-38"/>
<text text-anchor="start" x="309.63" y="-22.8" font-family="Times,serif" font-size="14.00"> Eustace</text>
<text text-anchor="start" x="309.13" y="-7.8" font-family="Times,serif" font-size="14.00">Budgell </text>
</g>
<!-- GILES_JACOB -->
<g id="node6" class="node">
<title>GILES_JACOB</title>
<polygon fill="none" stroke="black" points="319.09,-315.53 265.09,-315.53 265.09,-277.53 319.09,-277.53 319.09,-315.53"/>
<text text-anchor="start" x="275.59" y="-300.33" font-family="Times,serif" font-size="14.00"> Giles</text>
<text text-anchor="start" x="274.59" y="-285.33" font-family="Times,serif" font-size="14.00">Jacob </text>
</g>
<!-- GILES_JACOB&#45;&gt;ALEXANDER_POPE -->
<g id="edge1" class="edge">
<title>GILES_JACOB&#45;&gt;ALEXANDER_POPE</title>
<path fill="none" stroke="red" d="M280.02,-277.43C249.95,-238.72 171.73,-151.35 128.22,-107.33"/>
<polygon fill="red" stroke="red" points="130.58,-104.74 121.03,-100.14 125.63,-109.69 130.58,-104.74"/>
</g>
<!-- GILES_JACOB&#45;&gt;ALEXANDER_POPE -->
<g id="edge2" class="edge">
<title>GILES_JACOB&#45;&gt;ALEXANDER_POPE</title>
<path fill="none" stroke="blue" d="M268.86,-277.17C229.82,-238.6 152.21,-152.48 116.58,-108.26"/>
<polygon fill="blue" stroke="blue" points="119.19,-105.92 110.23,-100.26 113.7,-110.27 119.19,-105.92"/>
</g>
<!-- GILES_JACOB&#45;&gt;AMBROSE_PHILLIPS -->
<g id="edge3" class="edge">
<title>GILES_JACOB&#45;&gt;AMBROSE_PHILLIPS</title>
<path fill="none" stroke="blue" d="M285.42,-277.42C275.46,-248.9 256.64,-194.98 244.99,-161.63"/>
<polygon fill="blue" stroke="blue" points="248.23,-160.28 241.63,-151.99 241.62,-162.59 248.23,-160.28"/>
</g>
<!-- GILES_JACOB&#45;&gt;EDMUND_CURLL -->
<g id="edge4" class="edge">
<title>GILES_JACOB&#45;&gt;EDMUND_CURLL</title>
<path fill="none" stroke="blue" d="M264.91,-305.23C220.11,-319.57 130.4,-348.28 76.79,-365.44"/>
<polygon fill="blue" stroke="blue" points="75.67,-362.12 67.22,-368.5 77.81,-368.79 75.67,-362.12"/>
</g>
<!-- GILES_JACOB&#45;&gt;EDWARD_WARD -->
<g id="edge5" class="edge">
<title>GILES_JACOB&#45;&gt;EDWARD_WARD</title>
<path fill="none" stroke="blue" d="M264.76,-289.47C223.86,-278.9 146.45,-258.89 98.77,-246.57"/>
<polygon fill="blue" stroke="blue" points="99.64,-243.18 89.08,-244.07 97.88,-249.96 99.64,-243.18"/>
</g>
<!-- GILES_JACOB&#45;&gt;EUSTACE_BUDGELL -->
<g id="edge6" class="edge">
<title>GILES_JACOB&#45;&gt;EUSTACE_BUDGELL</title>
<path fill="none" stroke="blue" d="M294.88,-277.46C301.84,-229.82 320.01,-105.42 328.34,-48.36"/>
<polygon fill="blue" stroke="blue" points="331.84,-48.61 329.83,-38.21 324.92,-47.6 331.84,-48.61"/>
</g>
<!-- JOHN_DENNIS -->
<g id="node7" class="node">
<title>JOHN_DENNIS</title>
<polygon fill="none" stroke="black" points="518.84,-116.29 459.84,-116.29 459.84,-78.29 518.84,-78.29 518.84,-116.29"/>
<text text-anchor="start" x="474.34" y="-101.09" font-family="Times,serif" font-size="14.00"> John</text>
<text text-anchor="start" x="467.84" y="-86.09" font-family="Times,serif" font-size="14.00">Dennis </text>
</g>
<!-- GILES_JACOB&#45;&gt;JOHN_DENNIS -->
<g id="edge7" class="edge">
<title>GILES_JACOB&#45;&gt;JOHN_DENNIS</title>
<path fill="none" stroke="green" d="M317.51,-277.2C357.25,-241.35 433.01,-164.86 469.23,-124.07"/>
<polygon fill="green" stroke="green" points="471.98,-126.24 475.92,-116.41 466.71,-121.63 471.98,-126.24"/>
</g>
<!-- GILES_JACOB&#45;&gt;JOHN_DENNIS -->
<g id="edge8" class="edge">
<title>GILES_JACOB&#45;&gt;JOHN_DENNIS</title>
<path fill="none" stroke="blue" d="M305.45,-277.47C336.29,-241.51 412.55,-163.97 456.62,-123.28"/>
<polygon fill="blue" stroke="blue" points="459.17,-125.7 464.2,-116.37 454.45,-120.53 459.17,-125.7"/>
</g>
<!-- JOHN_GAY -->
<g id="node8" class="node">
<title>JOHN_GAY</title>
<polygon fill="none" stroke="black" points="608.11,-309.89 554.11,-309.89 554.11,-271.89 608.11,-271.89 608.11,-309.89"/>
<text text-anchor="start" x="566.11" y="-294.69" font-family="Times,serif" font-size="14.00"> John</text>
<text text-anchor="start" x="567.61" y="-279.69" font-family="Times,serif" font-size="14.00">Gay </text>
</g>
<!-- GILES_JACOB&#45;&gt;JOHN_GAY -->
<g id="edge9" class="edge">
<title>GILES_JACOB&#45;&gt;JOHN_GAY</title>
<path fill="none" stroke="red" d="M319.28,-296C371.25,-294.99 484.73,-292.77 543.76,-291.62"/>
<polygon fill="red" stroke="red" points="543.85,-295.12 553.78,-291.42 543.72,-288.12 543.85,-295.12"/>
</g>
<!-- JOHN_OLDMIXON -->
<g id="node9" class="node">
<title>JOHN_OLDMIXON</title>
<polygon fill="none" stroke="black" points="477.01,-263.29 401.01,-263.29 401.01,-225.29 477.01,-225.29 477.01,-263.29"/>
<text text-anchor="start" x="424.01" y="-248.09" font-family="Times,serif" font-size="14.00"> John</text>
<text text-anchor="start" x="409.01" y="-233.09" font-family="Times,serif" font-size="14.00">Oldmixon </text>
</g>
<!-- GILES_JACOB&#45;&gt;JOHN_OLDMIXON -->
<g id="edge10" class="edge">
<title>GILES_JACOB&#45;&gt;JOHN_OLDMIXON</title>
<path fill="none" stroke="blue" d="M319.38,-286.83C339.51,-279.67 367.42,-269.75 391.22,-261.29"/>
<polygon fill="blue" stroke="blue" points="392.54,-264.53 400.79,-257.88 390.19,-257.94 392.54,-264.53"/>
</g>
<!-- JOHN_OZELL -->
<g id="node10" class="node">
<title>JOHN_OZELL</title>
<polygon fill="none" stroke="black" points="425.55,-557 371.55,-557 371.55,-519 425.55,-519 425.55,-557"/>
<text text-anchor="start" x="383.55" y="-541.8" font-family="Times,serif" font-size="14.00"> John</text>
<text text-anchor="start" x="381.55" y="-526.8" font-family="Times,serif" font-size="14.00">Ozell </text>
</g>
<!-- GILES_JACOB&#45;&gt;JOHN_OZELL -->
<g id="edge11" class="edge">
<title>GILES_JACOB&#45;&gt;JOHN_OZELL</title>
<path fill="none" stroke="blue" d="M300.63,-315.88C319.36,-358.38 364.16,-460 386.07,-509.68"/>
<polygon fill="blue" stroke="blue" points="382.89,-511.15 390.13,-518.89 389.3,-508.33 382.89,-511.15"/>
</g>
<!-- LAURENCE_EUSDEN -->
<g id="node11" class="node">
<title>LAURENCE_EUSDEN</title>
<polygon fill="none" stroke="black" points="290.31,-570.64 219.31,-570.64 219.31,-532.64 290.31,-532.64 290.31,-570.64"/>
<text text-anchor="start" x="227.31" y="-555.44" font-family="Times,serif" font-size="14.00"> Laurence</text>
<text text-anchor="start" x="232.81" y="-540.44" font-family="Times,serif" font-size="14.00">Eusden </text>
</g>
<!-- GILES_JACOB&#45;&gt;LAURENCE_EUSDEN -->
<g id="edge12" class="edge">
<title>GILES_JACOB&#45;&gt;LAURENCE_EUSDEN</title>
<path fill="none" stroke="blue" d="M289.29,-315.71C282.81,-360.04 266.76,-469.88 259.06,-522.56"/>
<polygon fill="blue" stroke="blue" points="255.58,-522.19 257.59,-532.59 262.5,-523.2 255.58,-522.19"/>
</g>
<!-- LEWIS_THEOBALD -->
<g id="node12" class="node">
<title>LEWIS_THEOBALD</title>
<polygon fill="none" stroke="black" points="535.83,-453.57 464.83,-453.57 464.83,-415.57 535.83,-415.57 535.83,-453.57"/>
<text text-anchor="start" x="481.83" y="-438.37" font-family="Times,serif" font-size="14.00"> Lewis</text>
<text text-anchor="start" x="472.83" y="-423.37" font-family="Times,serif" font-size="14.00">Theobald </text>
</g>
<!-- GILES_JACOB&#45;&gt;LEWIS_THEOBALD -->
<g id="edge13" class="edge">
<title>GILES_JACOB&#45;&gt;LEWIS_THEOBALD</title>
<path fill="none" stroke="blue" d="M319.32,-314.58C356.06,-338.93 421.67,-382.43 462.99,-409.82"/>
<polygon fill="blue" stroke="blue" points="461.16,-412.8 471.42,-415.41 465.02,-406.97 461.16,-412.8"/>
</g>
<!-- SUSANNA_CENTLIVRE -->
<g id="node13" class="node">
<title>SUSANNA_CENTLIVRE</title>
<polygon fill="none" stroke="black" points="169.27,-500.63 98.27,-500.63 98.27,-462.63 169.27,-462.63 169.27,-500.63"/>
<text text-anchor="start" x="109.27" y="-485.43" font-family="Times,serif" font-size="14.00"> Susanna</text>
<text text-anchor="start" x="106.27" y="-470.43" font-family="Times,serif" font-size="14.00">Centlivre </text>
</g>
<!-- GILES_JACOB&#45;&gt;SUSANNA_CENTLIVRE -->
<g id="edge14" class="edge">
<title>GILES_JACOB&#45;&gt;SUSANNA_CENTLIVRE</title>
<path fill="none" stroke="blue" d="M275.75,-315.64C247.47,-348.7 189.34,-416.66 156.92,-454.56"/>
<polygon fill="blue" stroke="blue" points="153.87,-452.74 150.03,-462.62 159.19,-457.29 153.87,-452.74"/>
</g>
</g>
</svg>
