<?xml version="1.0" encoding="UTF-8" standalone="no"?>
<!DOCTYPE svg PUBLIC "-//W3C//DTD SVG 1.1//EN"
 "http://www.w3.org/Graphics/SVG/1.1/DTD/svg11.dtd">
<!-- Generated by graphviz version 2.50.0 (0)
 -->
<!-- Title: G Pages: 1 -->
<svg width="673pt" height="628pt"
 viewBox="0.00 0.00 673.42 628.39" xmlns="http://www.w3.org/2000/svg" xmlns:xlink="http://www.w3.org/1999/xlink">
<g id="graph0" class="graph" transform="scale(1 1) rotate(0) translate(4 624.39)">
<title>G</title>
<polygon fill="white" stroke="transparent" points="-4,4 -4,-624.39 669.42,-624.39 669.42,4 -4,4"/>
<!-- ALEXANDER_POPE -->
<g id="node1" class="node">
<title>ALEXANDER_POPE</title>
<polygon fill="none" stroke="black" points="351.03,-493.63 275.03,-493.63 275.03,-455.63 351.03,-455.63 351.03,-493.63"/>
<text text-anchor="start" x="283.03" y="-478.43" font-family="Times,serif" font-size="14.00"> Alexander</text>
<text text-anchor="start" x="297.53" y="-463.43" font-family="Times,serif" font-size="14.00">Pope </text>
</g>
<!-- A_BOYER -->
<g id="node2" class="node">
<title>A_BOYER</title>
<polygon fill="none" stroke="black" points="446.99,-481.59 392.99,-481.59 392.99,-443.59 446.99,-443.59 446.99,-481.59"/>
<text text-anchor="start" x="413.49" y="-466.39" font-family="Times,serif" font-size="14.00"> A</text>
<text text-anchor="start" x="401.49" y="-451.39" font-family="Times,serif" font-size="14.00">Boyer </text>
</g>
<!-- A_MOORE -->
<g id="node3" class="node">
<title>A_MOORE</title>
<polygon fill="none" stroke="black" points="413.06,-620.39 356.06,-620.39 356.06,-582.39 413.06,-582.39 413.06,-620.39"/>
<text text-anchor="start" x="378.06" y="-605.19" font-family="Times,serif" font-size="14.00"> A</text>
<text text-anchor="start" x="364.06" y="-590.19" font-family="Times,serif" font-size="14.00">Moore </text>
</g>
<!-- BAVIUS -->
<g id="node4" class="node">
<title>BAVIUS</title>
<polygon fill="none" stroke="black" points="516.96,-607.09 454.96,-607.09 454.96,-571.09 516.96,-571.09 516.96,-607.09"/>
<text text-anchor="start" x="462.96" y="-585.39" font-family="Times,serif" font-size="14.00"> Bavius </text>
</g>
<!-- BB -->
<g id="node5" class="node">
<title>BB</title>
<polygon fill="none" stroke="black" points="149.92,-290.47 95.92,-290.47 95.92,-254.47 149.92,-254.47 149.92,-290.47"/>
<text text-anchor="start" x="105.92" y="-268.77" font-family="Times,serif" font-size="14.00"> B.B. </text>
</g>
<!-- BERNARD_LINTOT -->
<g id="node6" class="node">
<title>BERNARD_LINTOT</title>
<polygon fill="none" stroke="black" points="64,-333.59 0,-333.59 0,-295.59 64,-295.59 64,-333.59"/>
<text text-anchor="start" x="8" y="-318.39" font-family="Times,serif" font-size="14.00"> Bernard</text>
<text text-anchor="start" x="13.5" y="-303.39" font-family="Times,serif" font-size="14.00">Lintot </text>
</g>
<!-- CHARLES_GILDON -->
<g id="node7" class="node">
<title>CHARLES_GILDON</title>
<polygon fill="none" stroke="black" points="252.8,-339.86 190.8,-339.86 190.8,-301.86 252.8,-301.86 252.8,-339.86"/>
<text text-anchor="start" x="198.8" y="-324.66" font-family="Times,serif" font-size="14.00"> Charles</text>
<text text-anchor="start" x="200.8" y="-309.66" font-family="Times,serif" font-size="14.00">Gildon </text>
</g>
<!-- COLLEY_CIBBER -->
<g id="node8" class="node">
<title>COLLEY_CIBBER</title>
<polygon fill="none" stroke="black" points="114.55,-424.58 57.55,-424.58 57.55,-386.58 114.55,-386.58 114.55,-424.58"/>
<text text-anchor="start" x="66.05" y="-409.38" font-family="Times,serif" font-size="14.00"> Colley</text>
<text text-anchor="start" x="65.55" y="-394.38" font-family="Times,serif" font-size="14.00">Cibber </text>
</g>
<!-- EDMUND_CURLL -->
<g id="node9" class="node">
<title>EDMUND_CURLL</title>
<polygon fill="none" stroke="black" points="507.59,-286.5 440.59,-286.5 440.59,-248.5 507.59,-248.5 507.59,-286.5"/>
<text text-anchor="start" x="448.59" y="-271.3" font-family="Times,serif" font-size="14.00"> Edmund</text>
<text text-anchor="start" x="458.09" y="-256.3" font-family="Times,serif" font-size="14.00">Curll </text>
</g>
<!-- ELKANAH_SETTLE -->
<g id="node10" class="node">
<title>ELKANAH_SETTLE</title>
<polygon fill="none" stroke="black" points="634.17,-278.96 569.17,-278.96 569.17,-240.96 634.17,-240.96 634.17,-278.96"/>
<text text-anchor="start" x="577.17" y="-263.76" font-family="Times,serif" font-size="14.00"> Elkanah</text>
<text text-anchor="start" x="584.17" y="-248.76" font-family="Times,serif" font-size="14.00">Settle </text>
</g>
<!-- GEORGE_DUCKET -->
<g id="node11" class="node">
<title>GEORGE_DUCKET</title>
<polygon fill="none" stroke="black" points="541.47,-171.72 481.47,-171.72 481.47,-133.72 541.47,-133.72 541.47,-171.72"/>
<text text-anchor="start" x="489.47" y="-156.52" font-family="Times,serif" font-size="14.00"> George</text>
<text text-anchor="start" x="489.97" y="-141.52" font-family="Times,serif" font-size="14.00">Ducket </text>
</g>
<!-- GEORGE_DUCKETT -->
<g id="node12" class="node">
<title>GEORGE_DUCKETT</title>
<polygon fill="none" stroke="black" points="644.71,-176.26 581.71,-176.26 581.71,-138.26 644.71,-138.26 644.71,-176.26"/>
<text text-anchor="start" x="591.21" y="-161.06" font-family="Times,serif" font-size="14.00"> George</text>
<text text-anchor="start" x="589.71" y="-146.06" font-family="Times,serif" font-size="14.00">Duckett </text>
</g>
<!-- GILES_JACOB -->
<g id="node13" class="node">
<title>GILES_JACOB</title>
<polygon fill="none" stroke="black" points="257.25,-70.09 203.25,-70.09 203.25,-32.09 257.25,-32.09 257.25,-70.09"/>
<text text-anchor="start" x="213.75" y="-54.89" font-family="Times,serif" font-size="14.00"> Giles</text>
<text text-anchor="start" x="212.75" y="-39.89" font-family="Times,serif" font-size="14.00">Jacob </text>
</g>
<!-- HILKIAH_BEDFORD -->
<g id="node14" class="node">
<title>HILKIAH_BEDFORD</title>
<polygon fill="none" stroke="black" points="278.42,-213.76 213.42,-213.76 213.42,-175.76 278.42,-175.76 278.42,-213.76"/>
<text text-anchor="start" x="223.42" y="-198.56" font-family="Times,serif" font-size="14.00"> Hilkiah</text>
<text text-anchor="start" x="221.42" y="-183.56" font-family="Times,serif" font-size="14.00">Bedford </text>
</g>
<!-- JEREMY_COLLIER -->
<g id="node15" class="node">
<title>JEREMY_COLLIER</title>
<polygon fill="none" stroke="black" points="125.22,-199.48 65.22,-199.48 65.22,-161.48 125.22,-161.48 125.22,-199.48"/>
<text text-anchor="start" x="73.22" y="-184.28" font-family="Times,serif" font-size="14.00"> Jeremy</text>
<text text-anchor="start" x="74.22" y="-169.28" font-family="Times,serif" font-size="14.00">Collier </text>
</g>
<!-- JOHN_ANSTIS -->
<g id="node16" class="node">
<title>JOHN_ANSTIS</title>
<polygon fill="none" stroke="black" points="174.73,-119.56 119.73,-119.56 119.73,-81.56 174.73,-81.56 174.73,-119.56"/>
<text text-anchor="start" x="132.23" y="-104.36" font-family="Times,serif" font-size="14.00"> John</text>
<text text-anchor="start" x="127.73" y="-89.36" font-family="Times,serif" font-size="14.00">Anstis </text>
</g>
<!-- JOHN_DENNIS -->
<g id="node17" class="node">
<title>JOHN_DENNIS</title>
<polygon fill="none" stroke="black" points="374.52,-338.41 315.52,-338.41 315.52,-300.41 374.52,-300.41 374.52,-338.41"/>
<text text-anchor="start" x="330.02" y="-323.21" font-family="Times,serif" font-size="14.00"> John</text>
<text text-anchor="start" x="323.52" y="-308.21" font-family="Times,serif" font-size="14.00">Dennis </text>
</g>
<!-- JOHN_DENNIS&#45;&gt;ALEXANDER_POPE -->
<g id="edge1" class="edge">
<title>JOHN_DENNIS&#45;&gt;ALEXANDER_POPE</title>
<path fill="none" stroke="red" d="M341.1,-338.45C335.58,-365.21 325.49,-414.19 319.03,-445.54"/>
<polygon fill="red" stroke="red" points="315.58,-444.94 316.99,-455.44 322.43,-446.35 315.58,-444.94"/>
</g>
<!-- JOHN_DENNIS&#45;&gt;A_BOYER -->
<g id="edge2" class="edge">
<title>JOHN_DENNIS&#45;&gt;A_BOYER</title>
<path fill="none" stroke="red" d="M354.98,-338.43C367.86,-363.03 390.41,-406.1 405.27,-434.49"/>
<polygon fill="red" stroke="red" points="402.25,-436.27 409.99,-443.5 408.45,-433.02 402.25,-436.27"/>
</g>
<!-- JOHN_DENNIS&#45;&gt;A_MOORE -->
<g id="edge3" class="edge">
<title>JOHN_DENNIS&#45;&gt;A_MOORE</title>
<path fill="none" stroke="green" d="M347.74,-338.79C354.55,-387.41 372.41,-514.73 380.49,-572.34"/>
<polygon fill="green" stroke="green" points="377.02,-572.83 381.88,-582.25 383.95,-571.86 377.02,-572.83"/>
</g>
<!-- JOHN_DENNIS&#45;&gt;BAVIUS -->
<g id="edge4" class="edge">
<title>JOHN_DENNIS&#45;&gt;BAVIUS</title>
<path fill="none" stroke="blue" d="M355.16,-338.81C379.87,-386.09 443.27,-507.4 471.74,-561.88"/>
<polygon fill="blue" stroke="blue" points="468.74,-563.7 476.48,-570.94 474.95,-560.46 468.74,-563.7"/>
</g>
<!-- JOHN_DENNIS&#45;&gt;BB -->
<g id="edge5" class="edge">
<title>JOHN_DENNIS&#45;&gt;BB</title>
<path fill="none" stroke="green" d="M315.07,-313.08C274.84,-304.58 203.39,-289.48 159.87,-280.28"/>
<polygon fill="green" stroke="green" points="160.48,-276.83 149.97,-278.19 159.03,-283.68 160.48,-276.83"/>
</g>
<!-- JOHN_DENNIS&#45;&gt;BERNARD_LINTOT -->
<g id="edge6" class="edge">
<title>JOHN_DENNIS&#45;&gt;BERNARD_LINTOT</title>
<path fill="none" stroke="green" d="M315.29,-318.96C259.49,-318.1 138.91,-316.24 74.53,-315.25"/>
<polygon fill="green" stroke="green" points="74.38,-311.75 64.32,-315.09 74.27,-318.75 74.38,-311.75"/>
</g>
<!-- JOHN_DENNIS&#45;&gt;CHARLES_GILDON -->
<g id="edge7" class="edge">
<title>JOHN_DENNIS&#45;&gt;CHARLES_GILDON</title>
<path fill="none" stroke="green" d="M315.51,-319.76C299.94,-319.94 280.58,-320.17 263.51,-320.37"/>
<polygon fill="green" stroke="green" points="263.19,-316.88 253.23,-320.49 263.27,-323.88 263.19,-316.88"/>
</g>
<!-- JOHN_DENNIS&#45;&gt;COLLEY_CIBBER -->
<g id="edge8" class="edge">
<title>JOHN_DENNIS&#45;&gt;COLLEY_CIBBER</title>
<path fill="none" stroke="green" d="M315.31,-329.3C268.13,-345 176.11,-375.61 124.15,-392.9"/>
<polygon fill="green" stroke="green" points="123.01,-389.6 114.62,-396.07 125.22,-396.24 123.01,-389.6"/>
</g>
<!-- JOHN_DENNIS&#45;&gt;EDMUND_CURLL -->
<g id="edge9" class="edge">
<title>JOHN_DENNIS&#45;&gt;EDMUND_CURLL</title>
<path fill="none" stroke="green" d="M374.63,-307.5C391.36,-300.77 412.58,-292.24 431.11,-284.79"/>
<polygon fill="green" stroke="green" points="432.55,-287.98 440.52,-281 429.94,-281.49 432.55,-287.98"/>
</g>
<!-- JOHN_DENNIS&#45;&gt;ELKANAH_SETTLE -->
<g id="edge10" class="edge">
<title>JOHN_DENNIS&#45;&gt;ELKANAH_SETTLE</title>
<path fill="none" stroke="green" d="M374.71,-312.54C420.11,-302.02 506.99,-281.9 559.09,-269.83"/>
<polygon fill="green" stroke="green" points="560.07,-273.19 569.03,-267.52 558.49,-266.37 560.07,-273.19"/>
</g>
<!-- JOHN_DENNIS&#45;&gt;GEORGE_DUCKET -->
<g id="edge11" class="edge">
<title>JOHN_DENNIS&#45;&gt;GEORGE_DUCKET</title>
<path fill="none" stroke="blue" d="M364.11,-300.29C393.89,-270.48 451.44,-212.85 485.13,-179.1"/>
<polygon fill="blue" stroke="blue" points="487.76,-181.43 492.35,-171.88 482.8,-176.48 487.76,-181.43"/>
</g>
<!-- JOHN_DENNIS&#45;&gt;GEORGE_DUCKETT -->
<g id="edge12" class="edge">
<title>JOHN_DENNIS&#45;&gt;GEORGE_DUCKETT</title>
<path fill="none" stroke="green" d="M374.75,-301.44C423.06,-272.23 518.69,-214.41 573.02,-181.56"/>
<polygon fill="green" stroke="green" points="574.95,-184.49 581.7,-176.32 571.33,-178.5 574.95,-184.49"/>
</g>
<!-- JOHN_DENNIS&#45;&gt;GILES_JACOB -->
<g id="edge13" class="edge">
<title>JOHN_DENNIS&#45;&gt;GILES_JACOB</title>
<path fill="none" stroke="green" d="M336.77,-300.12C316.83,-253.51 265.97,-134.61 242.48,-79.69"/>
<polygon fill="green" stroke="green" points="245.58,-78.03 238.43,-70.21 239.14,-80.78 245.58,-78.03"/>
</g>
<!-- JOHN_DENNIS&#45;&gt;HILKIAH_BEDFORD -->
<g id="edge14" class="edge">
<title>JOHN_DENNIS&#45;&gt;HILKIAH_BEDFORD</title>
<path fill="none" stroke="red" d="M329.75,-300.21C313.04,-279.19 286.14,-245.35 267.33,-221.69"/>
<polygon fill="red" stroke="red" points="270,-219.43 261.04,-213.78 264.52,-223.79 270,-219.43"/>
</g>
<!-- JOHN_DENNIS&#45;&gt;JEREMY_COLLIER -->
<g id="edge15" class="edge">
<title>JOHN_DENNIS&#45;&gt;JEREMY_COLLIER</title>
<path fill="none" stroke="red" d="M315.38,-302.93C270.37,-277.89 184.71,-230.25 134.54,-202.35"/>
<polygon fill="red" stroke="red" points="136.04,-199.18 125.6,-197.37 132.64,-205.29 136.04,-199.18"/>
</g>
<!-- JOHN_DENNIS&#45;&gt;JOHN_ANSTIS -->
<g id="edge16" class="edge">
<title>JOHN_DENNIS&#45;&gt;JOHN_ANSTIS</title>
<path fill="none" stroke="green" d="M327.81,-300.37C292.53,-261.33 211.89,-172.1 171.38,-127.29"/>
<polygon fill="green" stroke="green" points="173.84,-124.79 164.54,-119.71 168.65,-129.48 173.84,-124.79"/>
</g>
<!-- JOHN_DRYDEN -->
<g id="node18" class="node">
<title>JOHN_DRYDEN</title>
<polygon fill="none" stroke="black" points="416.63,-198.37 355.63,-198.37 355.63,-160.37 416.63,-160.37 416.63,-198.37"/>
<text text-anchor="start" x="371.13" y="-183.17" font-family="Times,serif" font-size="14.00"> John</text>
<text text-anchor="start" x="363.63" y="-168.17" font-family="Times,serif" font-size="14.00">Dryden </text>
</g>
<!-- JOHN_DENNIS&#45;&gt;JOHN_DRYDEN -->
<g id="edge17" class="edge">
<title>JOHN_DENNIS&#45;&gt;JOHN_DRYDEN</title>
<path fill="none" stroke="red" d="M350.65,-300.24C357.59,-276.59 369.46,-236.16 377.54,-208.63"/>
<polygon fill="red" stroke="red" points="380.98,-209.35 380.44,-198.77 374.26,-207.38 380.98,-209.35"/>
</g>
<!-- JOHN_GAY -->
<g id="node19" class="node">
<title>JOHN_GAY</title>
<polygon fill="none" stroke="black" points="412.97,-38 358.97,-38 358.97,0 412.97,0 412.97,-38"/>
<text text-anchor="start" x="370.97" y="-22.8" font-family="Times,serif" font-size="14.00"> John</text>
<text text-anchor="start" x="372.47" y="-7.8" font-family="Times,serif" font-size="14.00">Gay </text>
</g>
<!-- JOHN_DENNIS&#45;&gt;JOHN_GAY -->
<g id="edge18" class="edge">
<title>JOHN_DENNIS&#45;&gt;JOHN_GAY</title>
<path fill="none" stroke="red" d="M347.64,-300.16C354.62,-248.98 373.67,-109.25 381.99,-48.2"/>
<polygon fill="red" stroke="red" points="385.49,-48.47 383.37,-38.09 378.55,-47.52 385.49,-48.47"/>
</g>
<!-- JOHN_OLDMIXON -->
<g id="node20" class="node">
<title>JOHN_OLDMIXON</title>
<polygon fill="none" stroke="black" points="356.29,-108.94 280.29,-108.94 280.29,-70.94 356.29,-70.94 356.29,-108.94"/>
<text text-anchor="start" x="303.29" y="-93.74" font-family="Times,serif" font-size="14.00"> John</text>
<text text-anchor="start" x="288.29" y="-78.74" font-family="Times,serif" font-size="14.00">Oldmixon </text>
</g>
<!-- JOHN_DENNIS&#45;&gt;JOHN_OLDMIXON -->
<g id="edge19" class="edge">
<title>JOHN_DENNIS&#45;&gt;JOHN_OLDMIXON</title>
<path fill="none" stroke="green" d="M342.79,-300.24C338.11,-260.09 327.26,-166.91 321.7,-119.22"/>
<polygon fill="green" stroke="green" points="325.17,-118.75 320.54,-109.22 318.22,-119.56 325.17,-118.75"/>
</g>
<!-- LEONARD_WELSTED -->
<g id="node21" class="node">
<title>LEONARD_WELSTED</title>
<polygon fill="none" stroke="black" points="520.79,-75.61 455.79,-75.61 455.79,-37.61 520.79,-37.61 520.79,-75.61"/>
<text text-anchor="start" x="463.79" y="-60.41" font-family="Times,serif" font-size="14.00"> Leonard</text>
<text text-anchor="start" x="463.79" y="-45.41" font-family="Times,serif" font-size="14.00">Welsted </text>
</g>
<!-- JOHN_DENNIS&#45;&gt;LEONARD_WELSTED -->
<g id="edge20" class="edge">
<title>JOHN_DENNIS&#45;&gt;LEONARD_WELSTED</title>
<path fill="none" stroke="green" d="M359.91,-300.21C389.1,-254.39 452.3,-138.74 477.7,-84.92"/>
<polygon fill="green" stroke="green" points="480.98,-86.16 481.99,-75.62 474.63,-83.23 480.98,-86.16"/>
</g>
<!-- JOHN_DENNIS&#45;&gt;LEONARD_WELSTED -->
<g id="edge21" class="edge">
<title>JOHN_DENNIS&#45;&gt;LEONARD_WELSTED</title>
<path fill="none" stroke="blue" d="M351.49,-300.04C372.16,-254.01 434.97,-138.17 467.94,-84.57"/>
<polygon fill="blue" stroke="blue" points="471.01,-86.25 473.34,-75.92 465.08,-82.54 471.01,-86.25"/>
</g>
<!-- LEWIS_THEOBALD -->
<g id="node22" class="node">
<title>LEWIS_THEOBALD</title>
<polygon fill="none" stroke="black" points="567.67,-520.44 496.67,-520.44 496.67,-482.44 567.67,-482.44 567.67,-520.44"/>
<text text-anchor="start" x="513.67" y="-505.24" font-family="Times,serif" font-size="14.00"> Lewis</text>
<text text-anchor="start" x="504.67" y="-490.24" font-family="Times,serif" font-size="14.00">Theobald </text>
</g>
<!-- JOHN_DENNIS&#45;&gt;LEWIS_THEOBALD -->
<g id="edge22" class="edge">
<title>JOHN_DENNIS&#45;&gt;LEWIS_THEOBALD</title>
<path fill="none" stroke="green" d="M364.69,-338.55C398.39,-371.32 467.19,-438.24 505.29,-475.3"/>
<polygon fill="green" stroke="green" points="502.87,-477.83 512.48,-482.29 507.75,-472.81 502.87,-477.83"/>
</g>
<!-- MATTHEW_CONCANEN -->
<g id="node23" class="node">
<title>MATTHEW_CONCANEN</title>
<polygon fill="none" stroke="black" points="665.42,-371.73 591.42,-371.73 591.42,-333.73 665.42,-333.73 665.42,-371.73"/>
<text text-anchor="start" x="601.92" y="-356.53" font-family="Times,serif" font-size="14.00"> Matthew</text>
<text text-anchor="start" x="599.42" y="-341.53" font-family="Times,serif" font-size="14.00">Concanen </text>
</g>
<!-- JOHN_DENNIS&#45;&gt;MATTHEW_CONCANEN -->
<g id="edge23" class="edge">
<title>JOHN_DENNIS&#45;&gt;MATTHEW_CONCANEN</title>
<path fill="none" stroke="green" d="M374.55,-322.88C423.63,-328.66 522.41,-340.27 581.24,-347.19"/>
<polygon fill="green" stroke="green" points="581.05,-350.69 591.39,-348.38 581.86,-343.73 581.05,-350.69"/>
</g>
<!-- RICHARD_BLACKMORE -->
<g id="node24" class="node">
<title>RICHARD_BLACKMORE</title>
<polygon fill="none" stroke="black" points="543.44,-395.75 463.44,-395.75 463.44,-357.75 543.44,-357.75 543.44,-395.75"/>
<text text-anchor="start" x="479.94" y="-380.55" font-family="Times,serif" font-size="14.00"> Richard</text>
<text text-anchor="start" x="471.44" y="-365.55" font-family="Times,serif" font-size="14.00">Blackmore </text>
</g>
<!-- JOHN_DENNIS&#45;&gt;RICHARD_BLACKMORE -->
<g id="edge24" class="edge">
<title>JOHN_DENNIS&#45;&gt;RICHARD_BLACKMORE</title>
<path fill="none" stroke="green" d="M374.82,-330.2C396.99,-338.22 427.77,-349.36 453.66,-358.73"/>
<polygon fill="green" stroke="green" points="452.72,-362.11 463.31,-362.22 455.1,-355.53 452.72,-362.11"/>
</g>
<!-- S_POPPING -->
<g id="node25" class="node">
<title>S_POPPING</title>
<polygon fill="none" stroke="black" points="652,-474.46 587,-474.46 587,-436.46 652,-436.46 652,-474.46"/>
<text text-anchor="start" x="613.5" y="-459.26" font-family="Times,serif" font-size="14.00"> S</text>
<text text-anchor="start" x="595" y="-444.26" font-family="Times,serif" font-size="14.00">Popping </text>
</g>
<!-- JOHN_DENNIS&#45;&gt;S_POPPING -->
<g id="edge25" class="edge">
<title>JOHN_DENNIS&#45;&gt;S_POPPING</title>
<path fill="none" stroke="green" d="M374.65,-334.1C423.53,-358.33 521.21,-406.74 577.29,-434.54"/>
<polygon fill="green" stroke="green" points="576.08,-437.84 586.59,-439.15 579.19,-431.57 576.08,-437.84"/>
</g>
<!-- THOMAS_COOKE -->
<g id="node26" class="node">
<title>THOMAS_COOKE</title>
<polygon fill="none" stroke="black" points="144.84,-523.51 80.84,-523.51 80.84,-485.51 144.84,-485.51 144.84,-523.51"/>
<text text-anchor="start" x="88.84" y="-508.31" font-family="Times,serif" font-size="14.00"> Thomas</text>
<text text-anchor="start" x="92.84" y="-493.31" font-family="Times,serif" font-size="14.00">Cooke </text>
</g>
<!-- JOHN_DENNIS&#45;&gt;THOMAS_COOKE -->
<g id="edge26" class="edge">
<title>JOHN_DENNIS&#45;&gt;THOMAS_COOKE</title>
<path fill="none" stroke="green" d="M321.05,-338.52C278.97,-372.07 191.82,-441.55 144.72,-479.1"/>
<polygon fill="green" stroke="green" points="142.32,-476.53 136.69,-485.5 146.69,-482 142.32,-476.53"/>
</g>
<!-- THOMAS_RYMER -->
<g id="node27" class="node">
<title>THOMAS_RYMER</title>
<polygon fill="none" stroke="black" points="241.01,-454.53 177.01,-454.53 177.01,-416.53 241.01,-416.53 241.01,-454.53"/>
<text text-anchor="start" x="185.01" y="-439.33" font-family="Times,serif" font-size="14.00"> Thomas</text>
<text text-anchor="start" x="188.01" y="-424.33" font-family="Times,serif" font-size="14.00">Rymer </text>
</g>
<!-- JOHN_DENNIS&#45;&gt;THOMAS_RYMER -->
<g id="edge27" class="edge">
<title>JOHN_DENNIS&#45;&gt;THOMAS_RYMER</title>
<path fill="none" stroke="green" d="M322.56,-338.59C299.82,-358 264.51,-388.15 239.31,-409.66"/>
<polygon fill="green" stroke="green" points="236.84,-407.17 231.51,-416.32 241.38,-412.49 236.84,-407.17"/>
</g>
<!-- TOM_DÍURFEY -->
<g id="node28" class="node">
<title>TOM_DÍURFEY</title>
<polygon fill="none" stroke="black" points="320.11,-615.39 255.11,-615.39 255.11,-577.39 320.11,-577.39 320.11,-615.39"/>
<text text-anchor="start" x="272.61" y="-600.19" font-family="Times,serif" font-size="14.00"> Tom</text>
<text text-anchor="start" x="263.11" y="-585.19" font-family="Times,serif" font-size="14.00">DíUrfey </text>
</g>
<!-- JOHN_DENNIS&#45;&gt;TOM_DÍURFEY -->
<g id="edge28" class="edge">
<title>JOHN_DENNIS&#45;&gt;TOM_DÍURFEY</title>
<path fill="none" stroke="green" d="M341.07,-338.45C331.22,-385.99 305.49,-510.15 293.69,-567.09"/>
<polygon fill="green" stroke="green" points="290.19,-566.72 291.59,-577.22 297.04,-568.14 290.19,-566.72"/>
</g>
<!-- WILLIAM_LAW -->
<g id="node29" class="node">
<title>WILLIAM_LAW</title>
<polygon fill="none" stroke="black" points="225.7,-588.74 160.7,-588.74 160.7,-550.74 225.7,-550.74 225.7,-588.74"/>
<text text-anchor="start" x="168.7" y="-573.54" font-family="Times,serif" font-size="14.00"> William</text>
<text text-anchor="start" x="179.2" y="-558.54" font-family="Times,serif" font-size="14.00">Law </text>
</g>
<!-- JOHN_DENNIS&#45;&gt;WILLIAM_LAW -->
<g id="edge29" class="edge">
<title>JOHN_DENNIS&#45;&gt;WILLIAM_LAW</title>
<path fill="none" stroke="red" d="M333.36,-338.64C306.7,-382.6 241.2,-490.58 210.11,-541.85"/>
<polygon fill="red" stroke="red" points="207.09,-540.08 204.9,-550.45 213.08,-543.71 207.09,-540.08"/>
</g>
</g>
</svg>
