<?xml version="1.0" encoding="UTF-8" standalone="no"?>
<!DOCTYPE svg PUBLIC "-//W3C//DTD SVG 1.1//EN"
 "http://www.w3.org/Graphics/SVG/1.1/DTD/svg11.dtd">
<!-- Generated by graphviz version 2.50.0 (0)
 -->
<!-- Title: G Pages: 1 -->
<svg width="654pt" height="549pt"
 viewBox="0.00 0.00 654.30 548.67" xmlns="http://www.w3.org/2000/svg" xmlns:xlink="http://www.w3.org/1999/xlink">
<g id="graph0" class="graph" transform="scale(1 1) rotate(0) translate(4 544.67)">
<title>G</title>
<polygon fill="white" stroke="transparent" points="-4,4 -4,-544.67 650.3,-544.67 650.3,4 -4,4"/>
<!-- BENJAMIN_HOADLY -->
<g id="node1" class="node">
<title>BENJAMIN_HOADLY</title>
<polygon fill="none" stroke="black" points="74,-295.97 0,-295.97 0,-257.97 74,-257.97 74,-295.97"/>
<text text-anchor="start" x="8" y="-280.77" font-family="Times,serif" font-size="14.00"> Benjamin</text>
<text text-anchor="start" x="15" y="-265.77" font-family="Times,serif" font-size="14.00">Hoadly </text>
</g>
<!-- EDMUND_GIBSON -->
<g id="node2" class="node">
<title>EDMUND_GIBSON</title>
<polygon fill="none" stroke="black" points="197.23,-212.15 130.23,-212.15 130.23,-174.15 197.23,-174.15 197.23,-212.15"/>
<text text-anchor="start" x="138.23" y="-196.95" font-family="Times,serif" font-size="14.00"> Edmund</text>
<text text-anchor="start" x="142.23" y="-181.95" font-family="Times,serif" font-size="14.00">Gibson </text>
</g>
<!-- FRANCES_HARE -->
<g id="node3" class="node">
<title>FRANCES_HARE</title>
<polygon fill="none" stroke="black" points="277.05,-534.48 215.05,-534.48 215.05,-496.48 277.05,-496.48 277.05,-534.48"/>
<text text-anchor="start" x="223.05" y="-519.28" font-family="Times,serif" font-size="14.00"> Frances</text>
<text text-anchor="start" x="230.55" y="-504.28" font-family="Times,serif" font-size="14.00">Hare </text>
</g>
<!-- JAMES_RALPH -->
<g id="node4" class="node">
<title>JAMES_RALPH</title>
<polygon fill="none" stroke="black" points="148.31,-442.81 94.31,-442.81 94.31,-404.81 148.31,-404.81 148.31,-442.81"/>
<text text-anchor="start" x="102.31" y="-427.61" font-family="Times,serif" font-size="14.00"> James</text>
<text text-anchor="start" x="102.81" y="-412.61" font-family="Times,serif" font-size="14.00">Ralph </text>
</g>
<!-- JOHN_HENLEY -->
<g id="node5" class="node">
<title>JOHN_HENLEY</title>
<polygon fill="none" stroke="black" points="353.23,-289.5 294.23,-289.5 294.23,-251.5 353.23,-251.5 353.23,-289.5"/>
<text text-anchor="start" x="308.73" y="-274.3" font-family="Times,serif" font-size="14.00"> John</text>
<text text-anchor="start" x="302.23" y="-259.3" font-family="Times,serif" font-size="14.00">Henley </text>
</g>
<!-- JOHN_HENLEY&#45;&gt;BENJAMIN_HOADLY -->
<g id="edge1" class="edge">
<title>JOHN_HENLEY&#45;&gt;BENJAMIN_HOADLY</title>
<path fill="none" stroke="green" d="M294.13,-271.17C244.45,-272.29 143.93,-274.56 84.35,-275.9"/>
<polygon fill="green" stroke="green" points="84,-272.41 74.08,-276.14 84.16,-279.41 84,-272.41"/>
</g>
<!-- JOHN_HENLEY&#45;&gt;EDMUND_GIBSON -->
<g id="edge2" class="edge">
<title>JOHN_HENLEY&#45;&gt;EDMUND_GIBSON</title>
<path fill="none" stroke="green" d="M294.01,-256.13C269.41,-244.24 234.14,-227.19 206.5,-213.82"/>
<polygon fill="green" stroke="green" points="207.97,-210.65 197.45,-209.45 204.93,-216.95 207.97,-210.65"/>
</g>
<!-- JOHN_HENLEY&#45;&gt;FRANCES_HARE -->
<g id="edge3" class="edge">
<title>JOHN_HENLEY&#45;&gt;FRANCES_HARE</title>
<path fill="none" stroke="green" d="M317.64,-289.72C304.05,-332.57 271.22,-436.09 255.18,-486.68"/>
<polygon fill="green" stroke="green" points="251.8,-485.76 252.12,-496.35 258.48,-487.87 251.8,-485.76"/>
</g>
<!-- JOHN_HENLEY&#45;&gt;JAMES_RALPH -->
<g id="edge4" class="edge">
<title>JOHN_HENLEY&#45;&gt;JAMES_RALPH</title>
<path fill="none" stroke="green" d="M298.5,-289.61C262.19,-317.11 195.13,-367.9 154.73,-398.5"/>
<polygon fill="green" stroke="green" points="152.39,-395.87 146.54,-404.7 156.62,-401.45 152.39,-395.87"/>
</g>
<!-- JOHN_TOLAND -->
<g id="node6" class="node">
<title>JOHN_TOLAND</title>
<polygon fill="none" stroke="black" points="513.12,-215.41 454.12,-215.41 454.12,-177.41 513.12,-177.41 513.12,-215.41"/>
<text text-anchor="start" x="468.62" y="-200.21" font-family="Times,serif" font-size="14.00"> John</text>
<text text-anchor="start" x="462.12" y="-185.21" font-family="Times,serif" font-size="14.00">Toland </text>
</g>
<!-- JOHN_HENLEY&#45;&gt;JOHN_TOLAND -->
<g id="edge5" class="edge">
<title>JOHN_HENLEY&#45;&gt;JOHN_TOLAND</title>
<path fill="none" stroke="green" d="M353.43,-256.74C379.23,-244.78 416.77,-227.39 444.92,-214.34"/>
<polygon fill="green" stroke="green" points="446.47,-217.48 454.08,-210.1 443.53,-211.13 446.47,-217.48"/>
</g>
<!-- LEONARD_WELSTED -->
<g id="node7" class="node">
<title>LEONARD_WELSTED</title>
<polygon fill="none" stroke="black" points="358.74,-38 293.74,-38 293.74,0 358.74,0 358.74,-38"/>
<text text-anchor="start" x="301.74" y="-22.8" font-family="Times,serif" font-size="14.00"> Leonard</text>
<text text-anchor="start" x="301.74" y="-7.8" font-family="Times,serif" font-size="14.00">Welsted </text>
</g>
<!-- JOHN_HENLEY&#45;&gt;LEONARD_WELSTED -->
<g id="edge6" class="edge">
<title>JOHN_HENLEY&#45;&gt;LEONARD_WELSTED</title>
<path fill="none" stroke="green" d="M323.92,-251.18C324.36,-207.37 325.43,-100.24 325.95,-48.25"/>
<polygon fill="green" stroke="green" points="329.45,-48.07 326.05,-38.04 322.45,-48 329.45,-48.07"/>
</g>
<!-- MATTHEW_TINDAL -->
<g id="node8" class="node">
<title>MATTHEW_TINDAL</title>
<polygon fill="none" stroke="black" points="530.95,-61.81 461.95,-61.81 461.95,-23.81 530.95,-23.81 530.95,-61.81"/>
<text text-anchor="start" x="469.95" y="-46.61" font-family="Times,serif" font-size="14.00"> Matthew</text>
<text text-anchor="start" x="476.45" y="-31.61" font-family="Times,serif" font-size="14.00">Tindal </text>
</g>
<!-- JOHN_HENLEY&#45;&gt;MATTHEW_TINDAL -->
<g id="edge7" class="edge">
<title>JOHN_HENLEY&#45;&gt;MATTHEW_TINDAL</title>
<path fill="none" stroke="green" d="M338.16,-251.48C368.77,-211.13 440.29,-116.84 475.76,-70.09"/>
<polygon fill="green" stroke="green" points="478.69,-72.02 481.94,-61.94 473.11,-67.79 478.69,-72.02"/>
</g>
<!-- RICHARD_BLACKMORE -->
<g id="node9" class="node">
<title>RICHARD_BLACKMORE</title>
<polygon fill="none" stroke="black" points="195.68,-58.32 115.68,-58.32 115.68,-20.32 195.68,-20.32 195.68,-58.32"/>
<text text-anchor="start" x="132.18" y="-43.12" font-family="Times,serif" font-size="14.00"> Richard</text>
<text text-anchor="start" x="123.68" y="-28.12" font-family="Times,serif" font-size="14.00">Blackmore </text>
</g>
<!-- JOHN_HENLEY&#45;&gt;RICHARD_BLACKMORE -->
<g id="edge8" class="edge">
<title>JOHN_HENLEY&#45;&gt;RICHARD_BLACKMORE</title>
<path fill="none" stroke="green" d="M309.69,-251.19C279.84,-210.12 209.97,-114.01 175.56,-66.67"/>
<polygon fill="green" stroke="green" points="178.27,-64.45 169.56,-58.42 172.61,-68.56 178.27,-64.45"/>
</g>
<!-- RICHARD_FLECKNOE -->
<g id="node10" class="node">
<title>RICHARD_FLECKNOE</title>
<polygon fill="none" stroke="black" points="646.3,-299.02 576.3,-299.02 576.3,-261.02 646.3,-261.02 646.3,-299.02"/>
<text text-anchor="start" x="587.8" y="-283.82" font-family="Times,serif" font-size="14.00"> Richard</text>
<text text-anchor="start" x="584.3" y="-268.82" font-family="Times,serif" font-size="14.00">Flecknoe </text>
</g>
<!-- JOHN_HENLEY&#45;&gt;RICHARD_FLECKNOE -->
<g id="edge9" class="edge">
<title>JOHN_HENLEY&#45;&gt;RICHARD_FLECKNOE</title>
<path fill="none" stroke="green" d="M353.42,-271.48C403.78,-273.15 506.26,-276.54 565.75,-278.51"/>
<polygon fill="green" stroke="green" points="565.87,-282.02 575.98,-278.85 566.1,-275.02 565.87,-282.02"/>
</g>
<!-- THOMAS_SHERLOCK -->
<g id="node11" class="node">
<title>THOMAS_SHERLOCK</title>
<polygon fill="none" stroke="black" points="435.14,-540.67 367.14,-540.67 367.14,-502.67 435.14,-502.67 435.14,-540.67"/>
<text text-anchor="start" x="377.14" y="-525.47" font-family="Times,serif" font-size="14.00"> Thomas</text>
<text text-anchor="start" x="375.14" y="-510.47" font-family="Times,serif" font-size="14.00">Sherlock </text>
</g>
<!-- JOHN_HENLEY&#45;&gt;THOMAS_SHERLOCK -->
<g id="edge10" class="edge">
<title>JOHN_HENLEY&#45;&gt;THOMAS_SHERLOCK</title>
<path fill="none" stroke="green" d="M329.68,-289.79C343.19,-333.64 376.27,-440.98 392.24,-492.78"/>
<polygon fill="green" stroke="green" points="388.99,-494.13 395.28,-502.66 395.68,-492.07 388.99,-494.13"/>
</g>
<!-- THOMAS_WOOLSTON -->
<g id="node12" class="node">
<title>THOMAS_WOOLSTON</title>
<polygon fill="none" stroke="black" points="557.96,-442.77 484.96,-442.77 484.96,-404.77 557.96,-404.77 557.96,-442.77"/>
<text text-anchor="start" x="497.46" y="-427.57" font-family="Times,serif" font-size="14.00"> Thomas</text>
<text text-anchor="start" x="492.96" y="-412.57" font-family="Times,serif" font-size="14.00">Woolston </text>
</g>
<!-- JOHN_HENLEY&#45;&gt;THOMAS_WOOLSTON -->
<g id="edge11" class="edge">
<title>JOHN_HENLEY&#45;&gt;THOMAS_WOOLSTON</title>
<path fill="none" stroke="green" d="M348.37,-289.6C383.84,-317.1 449.35,-367.87 488.81,-398.46"/>
<polygon fill="green" stroke="green" points="486.77,-401.31 496.81,-404.67 491.05,-395.77 486.77,-401.31"/>
</g>
</g>
</svg>
