<?xml version="1.0" encoding="UTF-8" standalone="no"?>
<!DOCTYPE svg PUBLIC "-//W3C//DTD SVG 1.1//EN"
 "http://www.w3.org/Graphics/SVG/1.1/DTD/svg11.dtd">
<!-- Generated by graphviz version 2.50.0 (0)
 -->
<!-- Title: G Pages: 1 -->
<svg width="596pt" height="614pt"
 viewBox="0.00 0.00 596.00 614.00" xmlns="http://www.w3.org/2000/svg" xmlns:xlink="http://www.w3.org/1999/xlink">
<g id="graph0" class="graph" transform="scale(1 1) rotate(0) translate(4 610)">
<title>G</title>
<polygon fill="white" stroke="transparent" points="-4,4 -4,-610 592,-610 592,4 -4,4"/>
<!-- ABEL_BOYER -->
<g id="node1" class="node">
<title>ABEL_BOYER</title>
<polygon fill="none" stroke="black" points="117.68,-467.58 63.68,-467.58 63.68,-429.58 117.68,-429.58 117.68,-467.58"/>
<text text-anchor="start" x="75.68" y="-452.38" font-family="Times,serif" font-size="14.00"> Abel</text>
<text text-anchor="start" x="72.18" y="-437.38" font-family="Times,serif" font-size="14.00">Boyer </text>
</g>
<!-- ALEXANDER_POPE -->
<g id="node2" class="node">
<title>ALEXANDER_POPE</title>
<polygon fill="none" stroke="black" points="515.4,-163.13 439.4,-163.13 439.4,-125.13 515.4,-125.13 515.4,-163.13"/>
<text text-anchor="start" x="447.4" y="-147.93" font-family="Times,serif" font-size="14.00"> Alexander</text>
<text text-anchor="start" x="461.9" y="-132.93" font-family="Times,serif" font-size="14.00">Pope </text>
</g>
<!-- A_MOORE -->
<g id="node3" class="node">
<title>A_MOORE</title>
<polygon fill="none" stroke="black" points="266.27,-121.62 209.27,-121.62 209.27,-83.62 266.27,-83.62 266.27,-121.62"/>
<text text-anchor="start" x="229.27" y="-106.42" font-family="Times,serif" font-size="14.00"> A.</text>
<text text-anchor="start" x="217.27" y="-91.42" font-family="Times,serif" font-size="14.00">Moore </text>
</g>
<!-- BAVIUS -->
<g id="node4" class="node">
<title>BAVIUS</title>
<polygon fill="none" stroke="black" points="89.22,-403.57 27.22,-403.57 27.22,-367.57 89.22,-367.57 89.22,-403.57"/>
<text text-anchor="start" x="35.22" y="-381.87" font-family="Times,serif" font-size="14.00"> Bavius </text>
</g>
<!-- BB -->
<g id="node5" class="node">
<title>BB</title>
<polygon fill="none" stroke="black" points="383.55,-588.12 327.55,-588.12 327.55,-552.12 383.55,-552.12 383.55,-588.12"/>
<text text-anchor="start" x="335.55" y="-566.42" font-family="Times,serif" font-size="14.00"> B.B.? </text>
</g>
<!-- BERNARD_LINTOT -->
<g id="node6" class="node">
<title>BERNARD_LINTOT</title>
<polygon fill="none" stroke="black" points="157.36,-163.42 93.36,-163.42 93.36,-125.42 157.36,-125.42 157.36,-163.42"/>
<text text-anchor="start" x="101.36" y="-148.22" font-family="Times,serif" font-size="14.00"> Bernard</text>
<text text-anchor="start" x="106.86" y="-133.22" font-family="Times,serif" font-size="14.00">Lintot </text>
</g>
<!-- CHARLES_GILDON -->
<g id="node7" class="node">
<title>CHARLES_GILDON</title>
<polygon fill="none" stroke="black" points="155.58,-538.65 93.58,-538.65 93.58,-500.65 155.58,-500.65 155.58,-538.65"/>
<text text-anchor="start" x="101.58" y="-523.45" font-family="Times,serif" font-size="14.00"> Charles</text>
<text text-anchor="start" x="103.58" y="-508.45" font-family="Times,serif" font-size="14.00">Gildon </text>
</g>
<!-- COLLEY_CIBBER -->
<g id="node8" class="node">
<title>COLLEY_CIBBER</title>
<polygon fill="none" stroke="black" points="448.65,-219.15 391.65,-219.15 391.65,-181.15 448.65,-181.15 448.65,-219.15"/>
<text text-anchor="start" x="400.15" y="-203.95" font-family="Times,serif" font-size="14.00"> Colley</text>
<text text-anchor="start" x="399.65" y="-188.95" font-family="Times,serif" font-size="14.00">Cibber </text>
</g>
<!-- EDMUND_CURLL -->
<g id="node9" class="node">
<title>EDMUND_CURLL</title>
<polygon fill="none" stroke="black" points="351.52,-149.74 284.52,-149.74 284.52,-111.74 351.52,-111.74 351.52,-149.74"/>
<text text-anchor="start" x="292.52" y="-134.54" font-family="Times,serif" font-size="14.00"> Edmund</text>
<text text-anchor="start" x="302.02" y="-119.54" font-family="Times,serif" font-size="14.00">Curll </text>
</g>
<!-- ELKANAH_SETTLE -->
<g id="node10" class="node">
<title>ELKANAH_SETTLE</title>
<polygon fill="none" stroke="black" points="588.39,-295.88 523.39,-295.88 523.39,-257.88 588.39,-257.88 588.39,-295.88"/>
<text text-anchor="start" x="531.39" y="-280.68" font-family="Times,serif" font-size="14.00"> Elkanah</text>
<text text-anchor="start" x="538.39" y="-265.68" font-family="Times,serif" font-size="14.00">Settle </text>
</g>
<!-- GEORGE_DUCKET -->
<g id="node11" class="node">
<title>GEORGE_DUCKET</title>
<polygon fill="none" stroke="black" points="107.55,-243.37 47.55,-243.37 47.55,-205.37 107.55,-205.37 107.55,-243.37"/>
<text text-anchor="start" x="55.55" y="-228.17" font-family="Times,serif" font-size="14.00"> George</text>
<text text-anchor="start" x="56.05" y="-213.17" font-family="Times,serif" font-size="14.00">Ducket </text>
</g>
<!-- GEORGE_DUCKETT -->
<g id="node12" class="node">
<title>GEORGE_DUCKETT</title>
<polygon fill="none" stroke="black" points="222.63,-484.08 159.63,-484.08 159.63,-446.08 222.63,-446.08 222.63,-484.08"/>
<text text-anchor="start" x="169.13" y="-468.88" font-family="Times,serif" font-size="14.00"> George</text>
<text text-anchor="start" x="167.63" y="-453.88" font-family="Times,serif" font-size="14.00">Duckett </text>
</g>
<!-- GILES_JACOB -->
<g id="node13" class="node">
<title>GILES_JACOB</title>
<polygon fill="none" stroke="black" points="322.77,-531.19 268.77,-531.19 268.77,-493.19 322.77,-493.19 322.77,-531.19"/>
<text text-anchor="start" x="279.27" y="-515.99" font-family="Times,serif" font-size="14.00"> Giles</text>
<text text-anchor="start" x="278.27" y="-500.99" font-family="Times,serif" font-size="14.00">Jacob </text>
</g>
<!-- HILKIAH_SHOULD_BE_ARTHUR_BEDFORD_BEDFORD -->
<g id="node14" class="node">
<title>HILKIAH_SHOULD_BE_ARTHUR_BEDFORD_BEDFORD</title>
<polygon fill="none" stroke="black" points="351.93,-97.74 286.93,-97.74 286.93,0.26 351.93,0.26 351.93,-97.74"/>
<text text-anchor="start" x="296.93" y="-82.54" font-family="Times,serif" font-size="14.00"> Hilkiah</text>
<text text-anchor="start" x="298.93" y="-67.54" font-family="Times,serif" font-size="14.00">(should</text>
<text text-anchor="start" x="312.93" y="-52.54" font-family="Times,serif" font-size="14.00">be</text>
<text text-anchor="start" x="300.93" y="-37.54" font-family="Times,serif" font-size="14.00">Arthur</text>
<text text-anchor="start" x="294.93" y="-22.54" font-family="Times,serif" font-size="14.00">Bedford)</text>
<text text-anchor="start" x="294.93" y="-7.54" font-family="Times,serif" font-size="14.00">Bedford </text>
</g>
<!-- JEREMY_COLLIER -->
<g id="node15" class="node">
<title>JEREMY_COLLIER</title>
<polygon fill="none" stroke="black" points="309.47,-606.22 249.47,-606.22 249.47,-568.22 309.47,-568.22 309.47,-606.22"/>
<text text-anchor="start" x="257.47" y="-591.02" font-family="Times,serif" font-size="14.00"> Jeremy</text>
<text text-anchor="start" x="258.47" y="-576.02" font-family="Times,serif" font-size="14.00">Collier </text>
</g>
<!-- JOHN_ANSTIS -->
<g id="node16" class="node">
<title>JOHN_ANSTIS</title>
<polygon fill="none" stroke="black" points="470.09,-462.4 415.09,-462.4 415.09,-424.4 470.09,-424.4 470.09,-462.4"/>
<text text-anchor="start" x="427.59" y="-447.2" font-family="Times,serif" font-size="14.00"> John</text>
<text text-anchor="start" x="423.09" y="-432.2" font-family="Times,serif" font-size="14.00">Anstis </text>
</g>
<!-- JOHN_DENNIS -->
<g id="node17" class="node">
<title>JOHN_DENNIS</title>
<polygon fill="none" stroke="black" points="334.8,-348.79 275.8,-348.79 275.8,-310.79 334.8,-310.79 334.8,-348.79"/>
<text text-anchor="start" x="290.3" y="-333.59" font-family="Times,serif" font-size="14.00"> John</text>
<text text-anchor="start" x="283.8" y="-318.59" font-family="Times,serif" font-size="14.00">Dennis </text>
</g>
<!-- JOHN_DENNIS&#45;&gt;ABEL_BOYER -->
<g id="edge1" class="edge">
<title>JOHN_DENNIS&#45;&gt;ABEL_BOYER</title>
<path fill="none" stroke="red" d="M275.46,-346.31C236.59,-367.82 168.68,-405.41 126.9,-428.53"/>
<polygon fill="red" stroke="red" points="124.95,-425.61 117.89,-433.51 128.34,-431.73 124.95,-425.61"/>
</g>
<!-- JOHN_DENNIS&#45;&gt;ALEXANDER_POPE -->
<g id="edge2" class="edge">
<title>JOHN_DENNIS&#45;&gt;ALEXANDER_POPE</title>
<path fill="none" stroke="red" d="M323.07,-310.62C353.94,-277.32 417.53,-208.72 452.68,-170.79"/>
<polygon fill="red" stroke="red" points="455.5,-172.9 459.73,-163.19 450.37,-168.15 455.5,-172.9"/>
</g>
<!-- JOHN_DENNIS&#45;&gt;A_MOORE -->
<g id="edge3" class="edge">
<title>JOHN_DENNIS&#45;&gt;A_MOORE</title>
<path fill="none" stroke="green" d="M299.54,-310.42C287.66,-270.44 260.35,-178.58 246.36,-131.54"/>
<polygon fill="green" stroke="green" points="249.72,-130.53 243.51,-121.94 243.01,-132.53 249.72,-130.53"/>
</g>
<!-- JOHN_DENNIS&#45;&gt;BAVIUS -->
<g id="edge4" class="edge">
<title>JOHN_DENNIS&#45;&gt;BAVIUS</title>
<path fill="none" stroke="blue" d="M275.5,-336.52C231.43,-346.47 148.76,-365.13 99.07,-376.34"/>
<polygon fill="blue" stroke="blue" points="98.28,-372.94 89.3,-378.55 99.82,-379.76 98.28,-372.94"/>
</g>
<!-- JOHN_DENNIS&#45;&gt;BB -->
<g id="edge5" class="edge">
<title>JOHN_DENNIS&#45;&gt;BB</title>
<path fill="none" stroke="green" d="M309.33,-349.05C318.18,-391.39 339.36,-492.71 349.69,-542.1"/>
<polygon fill="green" stroke="green" points="346.3,-543.02 351.78,-552.09 353.16,-541.58 346.3,-543.02"/>
</g>
<!-- JOHN_DENNIS&#45;&gt;BERNARD_LINTOT -->
<g id="edge6" class="edge">
<title>JOHN_DENNIS&#45;&gt;BERNARD_LINTOT</title>
<path fill="none" stroke="green" d="M286.72,-310.65C254.45,-277.4 187.96,-208.91 151.21,-171.04"/>
<polygon fill="green" stroke="green" points="153.31,-168.19 143.84,-163.45 148.29,-173.06 153.31,-168.19"/>
</g>
<!-- JOHN_DENNIS&#45;&gt;CHARLES_GILDON -->
<g id="edge7" class="edge">
<title>JOHN_DENNIS&#45;&gt;CHARLES_GILDON</title>
<path fill="none" stroke="green" d="M286.98,-349.04C254.42,-383.24 186.46,-454.64 149.62,-493.35"/>
<polygon fill="green" stroke="green" points="147.04,-490.98 142.68,-500.63 152.11,-495.8 147.04,-490.98"/>
</g>
<!-- JOHN_DENNIS&#45;&gt;COLLEY_CIBBER -->
<g id="edge8" class="edge">
<title>JOHN_DENNIS&#45;&gt;COLLEY_CIBBER</title>
<path fill="none" stroke="green" d="M322.25,-310.66C341.84,-288.54 374.22,-251.99 396.34,-227.03"/>
<polygon fill="green" stroke="green" points="399.12,-229.17 403.13,-219.36 393.88,-224.52 399.12,-229.17"/>
</g>
<!-- JOHN_DENNIS&#45;&gt;EDMUND_CURLL -->
<g id="edge9" class="edge">
<title>JOHN_DENNIS&#45;&gt;EDMUND_CURLL</title>
<path fill="none" stroke="green" d="M306.52,-310.7C308.76,-275.7 313.53,-201.06 316.17,-159.75"/>
<polygon fill="green" stroke="green" points="319.66,-159.97 316.81,-149.77 312.68,-159.53 319.66,-159.97"/>
</g>
<!-- JOHN_DENNIS&#45;&gt;ELKANAH_SETTLE -->
<g id="edge10" class="edge">
<title>JOHN_DENNIS&#45;&gt;ELKANAH_SETTLE</title>
<path fill="none" stroke="green" d="M335.03,-323.51C379.18,-314.19 462.3,-296.64 513.02,-285.93"/>
<polygon fill="green" stroke="green" points="513.96,-289.31 523.02,-283.82 512.52,-282.46 513.96,-289.31"/>
</g>
<!-- JOHN_DENNIS&#45;&gt;GEORGE_DUCKET -->
<g id="edge11" class="edge">
<title>JOHN_DENNIS&#45;&gt;GEORGE_DUCKET</title>
<path fill="none" stroke="blue" d="M275.52,-316.01C234.89,-297.2 161.97,-263.44 116.87,-242.57"/>
<polygon fill="blue" stroke="blue" points="118.24,-239.34 107.69,-238.32 115.3,-245.7 118.24,-239.34"/>
</g>
<!-- JOHN_DENNIS&#45;&gt;GEORGE_DUCKETT -->
<g id="edge12" class="edge">
<title>JOHN_DENNIS&#45;&gt;GEORGE_DUCKETT</title>
<path fill="none" stroke="green" d="M289.18,-348.89C269.58,-372.12 236.34,-411.51 214.07,-437.9"/>
<polygon fill="green" stroke="green" points="211.31,-435.74 207.53,-445.64 216.66,-440.26 211.31,-435.74"/>
</g>
<!-- JOHN_DENNIS&#45;&gt;GILES_JACOB -->
<g id="edge13" class="edge">
<title>JOHN_DENNIS&#45;&gt;GILES_JACOB</title>
<path fill="none" stroke="green" d="M304.3,-348.96C302.63,-380.85 299.28,-444.98 297.32,-482.66"/>
<polygon fill="green" stroke="green" points="293.8,-482.83 296.78,-492.99 300.79,-483.19 293.8,-482.83"/>
</g>
<!-- JOHN_DENNIS&#45;&gt;HILKIAH_SHOULD_BE_ARTHUR_BEDFORD_BEDFORD -->
<g id="edge14" class="edge">
<title>JOHN_DENNIS&#45;&gt;HILKIAH_SHOULD_BE_ARTHUR_BEDFORD_BEDFORD</title>
<path fill="none" stroke="red" d="M306.27,-310.47C308.33,-269.41 313.23,-172.02 316.44,-108.31"/>
<polygon fill="red" stroke="red" points="319.95,-108.16 316.95,-98 312.96,-107.81 319.95,-108.16"/>
</g>
<!-- JOHN_DENNIS&#45;&gt;JEREMY_COLLIER -->
<g id="edge15" class="edge">
<title>JOHN_DENNIS&#45;&gt;JEREMY_COLLIER</title>
<path fill="none" stroke="red" d="M303.36,-349.14C298.87,-393.88 287.75,-504.72 282.41,-557.88"/>
<polygon fill="red" stroke="red" points="278.91,-557.7 281.4,-568 285.88,-558.4 278.91,-557.7"/>
</g>
<!-- JOHN_DENNIS&#45;&gt;JOHN_ANSTIS -->
<g id="edge16" class="edge">
<title>JOHN_DENNIS&#45;&gt;JOHN_ANSTIS</title>
<path fill="none" stroke="green" d="M328.28,-348.8C351.15,-367.73 386.39,-396.89 411.7,-417.84"/>
<polygon fill="green" stroke="green" points="409.6,-420.64 419.54,-424.32 414.06,-415.25 409.6,-420.64"/>
</g>
<!-- JOHN_DRYDEN -->
<g id="node18" class="node">
<title>JOHN_DRYDEN</title>
<polygon fill="none" stroke="black" points="427.09,-136.96 366.09,-136.96 366.09,-98.96 427.09,-98.96 427.09,-136.96"/>
<text text-anchor="start" x="381.59" y="-121.76" font-family="Times,serif" font-size="14.00"> John</text>
<text text-anchor="start" x="374.09" y="-106.76" font-family="Times,serif" font-size="14.00">Dryden </text>
</g>
<!-- JOHN_DENNIS&#45;&gt;JOHN_DRYDEN -->
<g id="edge17" class="edge">
<title>JOHN_DENNIS&#45;&gt;JOHN_DRYDEN</title>
<path fill="none" stroke="red" d="M313.56,-310.62C329.68,-273.22 365.39,-190.35 384.29,-146.49"/>
<polygon fill="red" stroke="red" points="387.53,-147.81 388.28,-137.24 381.11,-145.04 387.53,-147.81"/>
</g>
<!-- JOHN_GAY -->
<g id="node19" class="node">
<title>JOHN_GAY</title>
<polygon fill="none" stroke="black" points="180.24,-247.53 126.24,-247.53 126.24,-209.53 180.24,-209.53 180.24,-247.53"/>
<text text-anchor="start" x="138.24" y="-232.33" font-family="Times,serif" font-size="14.00"> John</text>
<text text-anchor="start" x="139.74" y="-217.33" font-family="Times,serif" font-size="14.00">Gay </text>
</g>
<!-- JOHN_DENNIS&#45;&gt;JOHN_GAY -->
<g id="edge18" class="edge">
<title>JOHN_DENNIS&#45;&gt;JOHN_GAY</title>
<path fill="none" stroke="red" d="M276.7,-310.74C251.78,-294.15 215.54,-270.02 188.77,-252.19"/>
<polygon fill="red" stroke="red" points="190.7,-249.27 180.43,-246.64 186.82,-255.09 190.7,-249.27"/>
</g>
<!-- JOHN_OLDMIXON -->
<g id="node20" class="node">
<title>JOHN_OLDMIXON</title>
<polygon fill="none" stroke="black" points="456.08,-536.21 380.08,-536.21 380.08,-498.21 456.08,-498.21 456.08,-536.21"/>
<text text-anchor="start" x="403.08" y="-521.01" font-family="Times,serif" font-size="14.00"> John</text>
<text text-anchor="start" x="388.08" y="-506.01" font-family="Times,serif" font-size="14.00">Oldmixon </text>
</g>
<!-- JOHN_DENNIS&#45;&gt;JOHN_OLDMIXON -->
<g id="edge19" class="edge">
<title>JOHN_DENNIS&#45;&gt;JOHN_OLDMIXON</title>
<path fill="none" stroke="green" d="M316.73,-348.79C336.74,-382.05 378.19,-450.93 401.4,-489.5"/>
<polygon fill="green" stroke="green" points="398.46,-491.4 406.61,-498.16 404.45,-487.79 398.46,-491.4"/>
</g>
<!-- LEONARD_WELSTED -->
<g id="node21" class="node">
<title>LEONARD_WELSTED</title>
<polygon fill="none" stroke="black" points="244.91,-171.08 179.91,-171.08 179.91,-133.08 244.91,-133.08 244.91,-171.08"/>
<text text-anchor="start" x="187.91" y="-155.88" font-family="Times,serif" font-size="14.00"> Leonard</text>
<text text-anchor="start" x="187.91" y="-140.88" font-family="Times,serif" font-size="14.00">Welsted </text>
</g>
<!-- JOHN_DENNIS&#45;&gt;LEONARD_WELSTED -->
<g id="edge20" class="edge">
<title>JOHN_DENNIS&#45;&gt;LEONARD_WELSTED</title>
<path fill="none" stroke="green" d="M299.96,-310.47C286.84,-278.89 254.46,-216.21 232.82,-179.86"/>
<polygon fill="green" stroke="green" points="235.76,-177.95 227.57,-171.22 229.78,-181.59 235.76,-177.95"/>
</g>
<!-- JOHN_DENNIS&#45;&gt;LEONARD_WELSTED -->
<g id="edge21" class="edge">
<title>JOHN_DENNIS&#45;&gt;LEONARD_WELSTED</title>
<path fill="none" stroke="blue" d="M290.03,-310.48C270.57,-279.18 238.1,-217.35 221.84,-180.86"/>
<polygon fill="blue" stroke="blue" points="224.89,-179.08 217.71,-171.29 218.46,-181.85 224.89,-179.08"/>
</g>
<!-- LEWIS_THEOBALD -->
<g id="node22" class="node">
<title>LEWIS_THEOBALD</title>
<polygon fill="none" stroke="black" points="502.69,-344.54 431.69,-344.54 431.69,-306.54 502.69,-306.54 502.69,-344.54"/>
<text text-anchor="start" x="448.69" y="-329.34" font-family="Times,serif" font-size="14.00"> Lewis</text>
<text text-anchor="start" x="439.69" y="-314.34" font-family="Times,serif" font-size="14.00">Theobald </text>
</g>
<!-- JOHN_DENNIS&#45;&gt;LEWIS_THEOBALD -->
<g id="edge22" class="edge">
<title>JOHN_DENNIS&#45;&gt;LEWIS_THEOBALD</title>
<path fill="none" stroke="green" d="M334.99,-329.01C359.11,-328.38 393.55,-327.47 421.23,-326.75"/>
<polygon fill="green" stroke="green" points="421.57,-330.24 431.47,-326.48 421.38,-323.24 421.57,-330.24"/>
</g>
<!-- MATTHEW_CONCANEN -->
<g id="node23" class="node">
<title>MATTHEW_CONCANEN</title>
<polygon fill="none" stroke="black" points="540.62,-530.5 466.62,-530.5 466.62,-492.5 540.62,-492.5 540.62,-530.5"/>
<text text-anchor="start" x="477.12" y="-515.3" font-family="Times,serif" font-size="14.00"> Matthew</text>
<text text-anchor="start" x="474.62" y="-500.3" font-family="Times,serif" font-size="14.00">Concanen </text>
</g>
<!-- JOHN_DENNIS&#45;&gt;MATTHEW_CONCANEN -->
<g id="edge23" class="edge">
<title>JOHN_DENNIS&#45;&gt;MATTHEW_CONCANEN</title>
<path fill="none" stroke="green" d="M326.15,-348.89C361.86,-381.61 434.76,-448.41 475.13,-485.4"/>
<polygon fill="green" stroke="green" points="473.02,-488.2 482.75,-492.38 477.75,-483.04 473.02,-488.2"/>
</g>
<!-- RICHARD_BLACKMORE -->
<g id="node24" class="node">
<title>RICHARD_BLACKMORE</title>
<polygon fill="none" stroke="black" points="80.28,-313.24 0.28,-313.24 0.28,-275.24 80.28,-275.24 80.28,-313.24"/>
<text text-anchor="start" x="16.78" y="-298.04" font-family="Times,serif" font-size="14.00"> Richard</text>
<text text-anchor="start" x="8.28" y="-283.04" font-family="Times,serif" font-size="14.00">Blackmore </text>
</g>
<!-- JOHN_DENNIS&#45;&gt;RICHARD_BLACKMORE -->
<g id="edge24" class="edge">
<title>JOHN_DENNIS&#45;&gt;RICHARD_BLACKMORE</title>
<path fill="none" stroke="green" d="M275.67,-325.81C230.88,-319.8 145.35,-308.33 90.66,-300.99"/>
<polygon fill="green" stroke="green" points="90.86,-297.49 80.49,-299.63 89.93,-304.43 90.86,-297.49"/>
</g>
<!-- S_POPPING -->
<g id="node25" class="node">
<title>S_POPPING</title>
<polygon fill="none" stroke="black" points="555.59,-453.91 490.59,-453.91 490.59,-415.91 555.59,-415.91 555.59,-453.91"/>
<text text-anchor="start" x="515.09" y="-438.71" font-family="Times,serif" font-size="14.00"> S.</text>
<text text-anchor="start" x="498.59" y="-423.71" font-family="Times,serif" font-size="14.00">Popping </text>
</g>
<!-- JOHN_DENNIS&#45;&gt;S_POPPING -->
<g id="edge25" class="edge">
<title>JOHN_DENNIS&#45;&gt;S_POPPING</title>
<path fill="none" stroke="green" d="M335.12,-344.18C373,-362.47 438.57,-394.12 481.39,-414.78"/>
<polygon fill="green" stroke="green" points="479.9,-417.95 490.43,-419.15 482.94,-411.65 479.9,-417.95"/>
</g>
<!-- THOMAS_COOKE -->
<g id="node26" class="node">
<title>THOMAS_COOKE</title>
<polygon fill="none" stroke="black" points="541.58,-237.77 477.58,-237.77 477.58,-199.77 541.58,-199.77 541.58,-237.77"/>
<text text-anchor="start" x="485.58" y="-222.57" font-family="Times,serif" font-size="14.00"> Thomas</text>
<text text-anchor="start" x="489.58" y="-207.57" font-family="Times,serif" font-size="14.00">Cooke </text>
</g>
<!-- JOHN_DENNIS&#45;&gt;THOMAS_COOKE -->
<g id="edge26" class="edge">
<title>JOHN_DENNIS&#45;&gt;THOMAS_COOKE</title>
<path fill="none" stroke="green" d="M335,-313.64C370.14,-294.55 428.84,-262.64 468.36,-241.17"/>
<polygon fill="green" stroke="green" points="470.36,-244.06 477.48,-236.21 467.02,-237.91 470.36,-244.06"/>
</g>
<!-- THOMAS_RYMER -->
<g id="node27" class="node">
<title>THOMAS_RYMER</title>
<polygon fill="none" stroke="black" points="578.49,-383.83 514.49,-383.83 514.49,-345.83 578.49,-345.83 578.49,-383.83"/>
<text text-anchor="start" x="522.49" y="-368.63" font-family="Times,serif" font-size="14.00"> Thomas</text>
<text text-anchor="start" x="525.49" y="-353.63" font-family="Times,serif" font-size="14.00">Rymer </text>
</g>
<!-- JOHN_DENNIS&#45;&gt;THOMAS_RYMER -->
<g id="edge27" class="edge">
<title>JOHN_DENNIS&#45;&gt;THOMAS_RYMER</title>
<path fill="none" stroke="green" d="M334.87,-334.09C377.3,-340.25 455.65,-351.63 504.19,-358.68"/>
<polygon fill="green" stroke="green" points="503.97,-362.19 514.37,-360.16 504.98,-355.26 503.97,-362.19"/>
</g>
<!-- TOM_DURFEY -->
<g id="node28" class="node">
<title>TOM_DURFEY</title>
<polygon fill="none" stroke="black" points="166.21,-357.05 100.21,-357.05 100.21,-319.05 166.21,-319.05 166.21,-357.05"/>
<text text-anchor="start" x="118.21" y="-341.85" font-family="Times,serif" font-size="14.00"> Tom</text>
<text text-anchor="start" x="108.21" y="-326.85" font-family="Times,serif" font-size="14.00">D’Urfey </text>
</g>
<!-- JOHN_DENNIS&#45;&gt;TOM_DURFEY -->
<g id="edge28" class="edge">
<title>JOHN_DENNIS&#45;&gt;TOM_DURFEY</title>
<path fill="none" stroke="green" d="M275.72,-331.21C248.35,-332.52 207.33,-334.49 176.32,-335.98"/>
<polygon fill="green" stroke="green" points="176.04,-332.49 166.22,-336.47 176.38,-339.48 176.04,-332.49"/>
</g>
<!-- WILLIAM_LAW -->
<g id="node29" class="node">
<title>WILLIAM_LAW</title>
<polygon fill="none" stroke="black" points="232.63,-583.94 167.63,-583.94 167.63,-545.94 232.63,-545.94 232.63,-583.94"/>
<text text-anchor="start" x="175.63" y="-568.74" font-family="Times,serif" font-size="14.00"> William</text>
<text text-anchor="start" x="186.13" y="-553.74" font-family="Times,serif" font-size="14.00">Law </text>
</g>
<!-- JOHN_DENNIS&#45;&gt;WILLIAM_LAW -->
<g id="edge29" class="edge">
<title>JOHN_DENNIS&#45;&gt;WILLIAM_LAW</title>
<path fill="none" stroke="red" d="M296.69,-349.03C278.2,-390.39 234.58,-487.91 212.87,-536.46"/>
<polygon fill="red" stroke="red" points="209.6,-535.2 208.71,-545.76 215.99,-538.06 209.6,-535.2"/>
</g>
</g>
</svg>
