<?xml version="1.0" encoding="UTF-8" standalone="no"?>
<!DOCTYPE svg PUBLIC "-//W3C//DTD SVG 1.1//EN"
 "http://www.w3.org/Graphics/SVG/1.1/DTD/svg11.dtd">
<!-- Generated by graphviz version 2.50.0 (0)
 -->
<!-- Title: G Pages: 1 -->
<svg width="247pt" height="212pt"
 viewBox="0.00 0.00 247.00 212.00" xmlns="http://www.w3.org/2000/svg" xmlns:xlink="http://www.w3.org/1999/xlink">
<g id="graph0" class="graph" transform="scale(1 1) rotate(0) translate(4 208)">
<title>G</title>
<polygon fill="white" stroke="transparent" points="-4,4 -4,-208 243,-208 243,4 -4,4"/>
<!-- EDMUND_GIBSON -->
<g id="node1" class="node">
<title>EDMUND_GIBSON</title>
<text text-anchor="start" x="8.16" y="-136.73" font-family="Times,serif" font-size="14.00"> Edmund</text>
<text text-anchor="start" x="12.16" y="-121.73" font-family="Times,serif" font-size="14.00">Gibson </text>
</g>
<!-- FRANCES_HARE -->
<g id="node2" class="node">
<title>FRANCES_HARE</title>
<text text-anchor="start" x="157.21" y="-160.59" font-family="Times,serif" font-size="14.00"> Frances</text>
<text text-anchor="start" x="164.71" y="-145.59" font-family="Times,serif" font-size="14.00">Hare </text>
</g>
<!-- JAMES_RALPH -->
<g id="node3" class="node">
<title>JAMES_RALPH</title>
<text text-anchor="start" x="92.78" y="-77.82" font-family="Times,serif" font-size="14.00"> James</text>
<text text-anchor="start" x="93.28" y="-62.82" font-family="Times,serif" font-size="14.00">Ralph </text>
</g>
<!-- JOHN_HENLEY -->
<g id="node4" class="node">
<title>JOHN_HENLEY</title>
<text text-anchor="start" x="94.99" y="-124.52" font-family="Times,serif" font-size="14.00"> John</text>
<text text-anchor="start" x="88.49" y="-109.52" font-family="Times,serif" font-size="14.00">Henley </text>
</g>
<!-- JOHN_HENLEY&#45;&gt;EDMUND_GIBSON -->
<g id="edge1" class="edge">
<title>JOHN_HENLEY&#45;&gt;EDMUND_GIBSON</title>
<path fill="none" stroke="green" d="M80.26,-125.48C79.33,-125.63 78.38,-125.78 77.44,-125.93"/>
<polygon fill="green" stroke="green" points="76.55,-122.52 67.23,-127.56 77.66,-129.44 76.55,-122.52"/>
</g>
<!-- JOHN_HENLEY&#45;&gt;FRANCES_HARE -->
<g id="edge2" class="edge">
<title>JOHN_HENLEY&#45;&gt;FRANCES_HARE</title>
<path fill="none" stroke="green" d="M139.77,-136.01C139.86,-136.06 139.96,-136.11 140.05,-136.16"/>
<polygon fill="green" stroke="green" points="138.31,-139.2 148.81,-140.66 141.51,-132.98 138.31,-139.2"/>
</g>
<!-- JOHN_HENLEY&#45;&gt;JAMES_RALPH -->
<g id="edge3" class="edge">
<title>JOHN_HENLEY&#45;&gt;JAMES_RALPH</title>
<path fill="none" stroke="green" d="M110.73,-101.46C110.73,-101.37 110.74,-101.29 110.74,-101.2"/>
<polygon fill="green" stroke="green" points="114.16,-103.37 111.04,-93.24 107.16,-103.1 114.16,-103.37"/>
</g>
<!-- POSSIBLY_BENJAMIN_HOADLY -->
<g id="node5" class="node">
<title>POSSIBLY_BENJAMIN_HOADLY</title>
<text text-anchor="start" x="172.87" y="-98.76" font-family="Times,serif" font-size="14.00"> (possibly)</text>
<text text-anchor="start" x="174.87" y="-83.76" font-family="Times,serif" font-size="14.00">Benjamin</text>
<text text-anchor="start" x="179.87" y="-68.76" font-family="Times,serif" font-size="14.00">Hoadly </text>
</g>
<!-- JOHN_HENLEY&#45;&gt;POSSIBLY_BENJAMIN_HOADLY -->
<g id="edge4" class="edge">
<title>JOHN_HENLEY&#45;&gt;POSSIBLY_BENJAMIN_HOADLY</title>
<path fill="none" stroke="green" d="M139.57,-110.01C144.55,-108.21 149.83,-106.3 155.13,-104.38"/>
<polygon fill="green" stroke="green" points="156.4,-107.64 164.61,-100.95 154.01,-101.06 156.4,-107.64"/>
</g>
<!-- RICHARD_BLACKMORE -->
<g id="node6" class="node">
<title>RICHARD_BLACKMORE</title>
<text text-anchor="start" x="73.33" y="-189.03" font-family="Times,serif" font-size="14.00"> Richard</text>
<text text-anchor="start" x="64.83" y="-174.03" font-family="Times,serif" font-size="14.00">Blackmore </text>
</g>
<!-- JOHN_HENLEY&#45;&gt;RICHARD_BLACKMORE -->
<g id="edge5" class="edge">
<title>JOHN_HENLEY&#45;&gt;RICHARD_BLACKMORE</title>
<path fill="none" stroke="green" d="M106.11,-139.72C105.05,-144.93 103.88,-150.69 102.73,-156.31"/>
<polygon fill="green" stroke="green" points="99.29,-155.64 100.72,-166.13 106.15,-157.03 99.29,-155.64"/>
</g>
<!-- RICHARD_FLECKNOE -->
<g id="node7" class="node">
<title>RICHARD_FLECKNOE</title>
<text text-anchor="start" x="15.22" y="-58.09" font-family="Times,serif" font-size="14.00"> Richard</text>
<text text-anchor="start" x="11.72" y="-43.09" font-family="Times,serif" font-size="14.00">Flecknoe </text>
</g>
<!-- JOHN_HENLEY&#45;&gt;RICHARD_FLECKNOE -->
<g id="edge6" class="edge">
<title>JOHN_HENLEY&#45;&gt;RICHARD_FLECKNOE</title>
<path fill="none" stroke="green" d="M89.38,-101.51C82.5,-95.09 74.7,-87.82 67.32,-80.94"/>
<polygon fill="green" stroke="green" points="69.24,-77.95 59.54,-73.69 64.47,-83.07 69.24,-77.95"/>
</g>
<!-- THOMAS_SHERLOCK -->
<g id="node8" class="node">
<title>THOMAS_SHERLOCK</title>
<text text-anchor="start" x="121.19" y="-22.32" font-family="Times,serif" font-size="14.00"> Thomas</text>
<text text-anchor="start" x="119.19" y="-7.32" font-family="Times,serif" font-size="14.00">Sherlock </text>
</g>
<!-- JOHN_HENLEY&#45;&gt;THOMAS_SHERLOCK -->
<g id="edge7" class="edge">
<title>JOHN_HENLEY&#45;&gt;THOMAS_SHERLOCK</title>
<path fill="none" stroke="green" d="M116.61,-101.5C121.87,-86.22 129.31,-64.62 135.28,-47.29"/>
<polygon fill="green" stroke="green" points="138.65,-48.25 138.6,-37.66 132.04,-45.97 138.65,-48.25"/>
</g>
</g>
</svg>
