<?xml version="1.0" encoding="UTF-8" standalone="no"?>
<!DOCTYPE svg PUBLIC "-//W3C//DTD SVG 1.1//EN"
 "http://www.w3.org/Graphics/SVG/1.1/DTD/svg11.dtd">
<!-- Generated by graphviz version 2.50.0 (0)
 -->
<!-- Title: G Pages: 1 -->
<svg width="679pt" height="567pt"
 viewBox="0.00 0.00 678.93 566.72" xmlns="http://www.w3.org/2000/svg" xmlns:xlink="http://www.w3.org/1999/xlink">
<g id="graph0" class="graph" transform="scale(1 1) rotate(0) translate(4 562.72)">
<title>G</title>
<polygon fill="white" stroke="transparent" points="-4,4 -4,-562.72 674.93,-562.72 674.93,4 -4,4"/>
<!-- BENJAMIN_HOADLY -->
<g id="node1" class="node">
<title>BENJAMIN_HOADLY</title>
<polygon fill="none" stroke="black" points="77,-305.24 0,-305.24 0,-267.24 77,-267.24 77,-305.24"/>
<text text-anchor="start" x="8" y="-290.04" font-family="arial" font-size="14.00"> Benjamin</text>
<text text-anchor="start" x="15.5" y="-275.04" font-family="arial" font-size="14.00">Hoadly </text>
</g>
<!-- EDMUND_GIBSON -->
<g id="node2" class="node">
<title>EDMUND_GIBSON</title>
<polygon fill="none" stroke="black" points="205.28,-218.4 134.28,-218.4 134.28,-180.4 205.28,-180.4 205.28,-218.4"/>
<text text-anchor="start" x="142.28" y="-203.2" font-family="arial" font-size="14.00"> Edmund</text>
<text text-anchor="start" x="145.78" y="-188.2" font-family="arial" font-size="14.00">Gibson </text>
</g>
<!-- FRANCES_HARE -->
<g id="node3" class="node">
<title>FRANCES_HARE</title>
<polygon fill="none" stroke="black" points="289.56,-552.31 220.56,-552.31 220.56,-514.31 289.56,-514.31 289.56,-552.31"/>
<text text-anchor="start" x="228.56" y="-537.11" font-family="arial" font-size="14.00"> Frances</text>
<text text-anchor="start" x="238.06" y="-522.11" font-family="arial" font-size="14.00">Hare </text>
</g>
<!-- JAMES_RALPH -->
<g id="node4" class="node">
<title>JAMES_RALPH</title>
<polygon fill="none" stroke="black" points="156.34,-457.35 95.34,-457.35 95.34,-419.35 156.34,-419.35 156.34,-457.35"/>
<text text-anchor="start" x="103.34" y="-442.15" font-family="arial" font-size="14.00"> James</text>
<text text-anchor="start" x="105.84" y="-427.15" font-family="arial" font-size="14.00">Ralph </text>
</g>
<!-- JOHN_HENLEY -->
<g id="node5" class="node">
<title>JOHN_HENLEY</title>
<polygon fill="none" stroke="black" points="366.53,-298.53 304.53,-298.53 304.53,-260.53 366.53,-260.53 366.53,-298.53"/>
<text text-anchor="start" x="318.53" y="-283.33" font-family="arial" font-size="14.00"> John</text>
<text text-anchor="start" x="312.53" y="-268.33" font-family="arial" font-size="14.00">Henley </text>
</g>
<!-- JOHN_HENLEY&#45;&gt;BENJAMIN_HOADLY -->
<g id="edge1" class="edge">
<title>JOHN_HENLEY&#45;&gt;BENJAMIN_HOADLY</title>
<path fill="none" stroke="green" d="M304.3,-280.24C252.63,-281.4 148.94,-283.74 87.46,-285.13"/>
<polygon fill="green" stroke="green" points="87.15,-281.64 77.23,-285.36 87.3,-288.64 87.15,-281.64"/>
</g>
<!-- JOHN_HENLEY&#45;&gt;EDMUND_GIBSON -->
<g id="edge2" class="edge">
<title>JOHN_HENLEY&#45;&gt;EDMUND_GIBSON</title>
<path fill="none" stroke="green" d="M304.35,-264.46C279.08,-252.24 243.12,-234.86 214.73,-221.13"/>
<polygon fill="green" stroke="green" points="215.95,-217.83 205.42,-216.63 212.9,-224.14 215.95,-217.83"/>
</g>
<!-- JOHN_HENLEY&#45;&gt;FRANCES_HARE -->
<g id="edge3" class="edge">
<title>JOHN_HENLEY&#45;&gt;FRANCES_HARE</title>
<path fill="none" stroke="green" d="M329.48,-298.61C315.5,-342.7 280.87,-451.9 264.25,-504.32"/>
<polygon fill="green" stroke="green" points="260.86,-503.42 261.18,-514.01 267.53,-505.54 260.86,-503.42"/>
</g>
<!-- JOHN_HENLEY&#45;&gt;JAMES_RALPH -->
<g id="edge4" class="edge">
<title>JOHN_HENLEY&#45;&gt;JAMES_RALPH</title>
<path fill="none" stroke="green" d="M310.23,-298.69C272.45,-327.3 201.23,-381.25 159.21,-413.07"/>
<polygon fill="green" stroke="green" points="157.08,-410.29 151.22,-419.12 161.3,-415.87 157.08,-410.29"/>
</g>
<!-- JOHN_TOLAND -->
<g id="node6" class="node">
<title>JOHN_TOLAND</title>
<polygon fill="none" stroke="black" points="531.15,-221.78 471.15,-221.78 471.15,-183.78 531.15,-183.78 531.15,-221.78"/>
<text text-anchor="start" x="484.15" y="-206.58" font-family="arial" font-size="14.00"> John</text>
<text text-anchor="start" x="479.15" y="-191.58" font-family="arial" font-size="14.00">Toland </text>
</g>
<!-- JOHN_HENLEY&#45;&gt;JOHN_TOLAND -->
<g id="edge5" class="edge">
<title>JOHN_HENLEY&#45;&gt;JOHN_TOLAND</title>
<path fill="none" stroke="green" d="M366.68,-265.1C393.54,-252.65 432.46,-234.61 461.53,-221.14"/>
<polygon fill="green" stroke="green" points="463.38,-224.15 470.98,-216.77 460.43,-217.8 463.38,-224.15"/>
</g>
<!-- LEONARD_WELSTED -->
<g id="node7" class="node">
<title>LEONARD_WELSTED</title>
<polygon fill="none" stroke="black" points="373.13,-38 303.13,-38 303.13,0 373.13,0 373.13,-38"/>
<text text-anchor="start" x="311.13" y="-22.8" font-family="arial" font-size="14.00"> Leonard</text>
<text text-anchor="start" x="311.63" y="-7.8" font-family="arial" font-size="14.00">Welsted </text>
</g>
<!-- JOHN_HENLEY&#45;&gt;LEONARD_WELSTED -->
<g id="edge6" class="edge">
<title>JOHN_HENLEY&#45;&gt;LEONARD_WELSTED</title>
<path fill="none" stroke="green" d="M335.72,-260.37C336.17,-215.3 337.3,-102.29 337.83,-48.43"/>
<polygon fill="green" stroke="green" points="341.34,-48.22 337.94,-38.19 334.34,-48.15 341.34,-48.22"/>
</g>
<!-- MATTHEW_TINDAL -->
<g id="node8" class="node">
<title>MATTHEW_TINDAL</title>
<polygon fill="none" stroke="black" points="550.45,-62.67 478.45,-62.67 478.45,-24.67 550.45,-24.67 550.45,-62.67"/>
<text text-anchor="start" x="486.45" y="-47.47" font-family="arial" font-size="14.00"> Matthew</text>
<text text-anchor="start" x="493.95" y="-32.47" font-family="arial" font-size="14.00">Tindal </text>
</g>
<!-- JOHN_HENLEY&#45;&gt;MATTHEW_TINDAL -->
<g id="edge7" class="edge">
<title>JOHN_HENLEY&#45;&gt;MATTHEW_TINDAL</title>
<path fill="none" stroke="green" d="M350.17,-260.23C381.9,-218.4 457.09,-119.29 493.7,-71.03"/>
<polygon fill="green" stroke="green" points="496.6,-72.99 499.86,-62.9 491.03,-68.76 496.6,-72.99"/>
</g>
<!-- RICHARD_BLACKMORE -->
<g id="node9" class="node">
<title>RICHARD_BLACKMORE</title>
<polygon fill="none" stroke="black" points="203.94,-59.05 118.94,-59.05 118.94,-21.05 203.94,-21.05 203.94,-59.05"/>
<text text-anchor="start" x="135.94" y="-43.85" font-family="arial" font-size="14.00"> Richard</text>
<text text-anchor="start" x="126.94" y="-28.85" font-family="arial" font-size="14.00">Blackmore </text>
</g>
<!-- JOHN_HENLEY&#45;&gt;RICHARD_BLACKMORE -->
<g id="edge8" class="edge">
<title>JOHN_HENLEY&#45;&gt;RICHARD_BLACKMORE</title>
<path fill="none" stroke="green" d="M321.58,-260.34C290.83,-218.04 217.13,-116.65 181.46,-67.58"/>
<polygon fill="green" stroke="green" points="184.17,-65.37 175.46,-59.34 178.51,-69.48 184.17,-65.37"/>
</g>
<!-- RICHARD_FLECKNOE -->
<g id="node10" class="node">
<title>RICHARD_FLECKNOE</title>
<polygon fill="none" stroke="black" points="670.93,-308.4 595.93,-308.4 595.93,-270.4 670.93,-270.4 670.93,-308.4"/>
<text text-anchor="start" x="607.93" y="-293.2" font-family="arial" font-size="14.00"> Richard</text>
<text text-anchor="start" x="603.93" y="-278.2" font-family="arial" font-size="14.00">Flecknoe </text>
</g>
<!-- JOHN_HENLEY&#45;&gt;RICHARD_FLECKNOE -->
<g id="edge9" class="edge">
<title>JOHN_HENLEY&#45;&gt;RICHARD_FLECKNOE</title>
<path fill="none" stroke="green" d="M366.57,-280.56C418.55,-282.28 523.57,-285.76 585.23,-287.8"/>
<polygon fill="green" stroke="green" points="585.36,-291.31 595.47,-288.14 585.6,-284.31 585.36,-291.31"/>
</g>
<!-- THOMAS_SHERLOCK -->
<g id="node11" class="node">
<title>THOMAS_SHERLOCK</title>
<polygon fill="none" stroke="black" points="452.21,-558.72 379.21,-558.72 379.21,-520.72 452.21,-520.72 452.21,-558.72"/>
<text text-anchor="start" x="388.71" y="-543.52" font-family="arial" font-size="14.00"> Thomas</text>
<text text-anchor="start" x="387.21" y="-528.52" font-family="arial" font-size="14.00">Sherlock </text>
</g>
<!-- JOHN_HENLEY&#45;&gt;THOMAS_SHERLOCK -->
<g id="edge10" class="edge">
<title>JOHN_HENLEY&#45;&gt;THOMAS_SHERLOCK</title>
<path fill="none" stroke="green" d="M341.43,-298.66C355.36,-343.87 390.37,-457.48 406.86,-511"/>
<polygon fill="green" stroke="green" points="403.52,-512.03 409.81,-520.56 410.21,-509.97 403.52,-512.03"/>
</g>
<!-- THOMAS_WOOLSTON -->
<g id="node12" class="node">
<title>THOMAS_WOOLSTON</title>
<polygon fill="none" stroke="black" points="578.85,-457.3 501.85,-457.3 501.85,-419.3 578.85,-419.3 578.85,-457.3"/>
<text text-anchor="start" x="513.35" y="-442.1" font-family="arial" font-size="14.00"> Thomas</text>
<text text-anchor="start" x="509.85" y="-427.1" font-family="arial" font-size="14.00">Woolston </text>
</g>
<!-- JOHN_HENLEY&#45;&gt;THOMAS_WOOLSTON -->
<g id="edge11" class="edge">
<title>JOHN_HENLEY&#45;&gt;THOMAS_WOOLSTON</title>
<path fill="none" stroke="green" d="M360.24,-298.68C397.07,-327.23 466.42,-381 507.49,-412.83"/>
<polygon fill="green" stroke="green" points="505.51,-415.72 515.56,-419.08 509.8,-410.19 505.51,-415.72"/>
</g>
</g>
</svg>
