<?xml version="1.0" encoding="UTF-8" standalone="no"?>
<!DOCTYPE svg PUBLIC "-//W3C//DTD SVG 1.1//EN"
 "http://www.w3.org/Graphics/SVG/1.1/DTD/svg11.dtd">
<!-- Generated by graphviz version 2.50.0 (0)
 -->
<!-- Title: G Pages: 1 -->
<svg width="697pt" height="646pt"
 viewBox="0.00 0.00 697.49 646.04" xmlns="http://www.w3.org/2000/svg" xmlns:xlink="http://www.w3.org/1999/xlink">
<g id="graph0" class="graph" transform="scale(1 1) rotate(0) translate(4 642.04)">
<title>G</title>
<polygon fill="white" stroke="transparent" points="-4,4 -4,-642.04 693.49,-642.04 693.49,4 -4,4"/>
<!-- ALEXANDER_POPE -->
<g id="node1" class="node">
<title>ALEXANDER_POPE</title>
<polygon fill="none" stroke="black" points="363.55,-507.43 283.55,-507.43 283.55,-469.43 363.55,-469.43 363.55,-507.43"/>
<text text-anchor="start" x="291.55" y="-492.23" font-family="arial" font-size="14.00"> Alexander</text>
<text text-anchor="start" x="305.55" y="-477.23" font-family="arial" font-size="14.00">Pope </text>
</g>
<!-- A_BOYER -->
<g id="node2" class="node">
<title>A_BOYER</title>
<polygon fill="none" stroke="black" points="461.74,-495.03 405.74,-495.03 405.74,-457.03 461.74,-457.03 461.74,-495.03"/>
<text text-anchor="start" x="427.24" y="-479.83" font-family="arial" font-size="14.00"> A</text>
<text text-anchor="start" x="413.74" y="-464.83" font-family="arial" font-size="14.00">Boyer </text>
</g>
<!-- A_MOORE -->
<g id="node3" class="node">
<title>A_MOORE</title>
<polygon fill="none" stroke="black" points="426.74,-638.04 367.74,-638.04 367.74,-600.04 426.74,-600.04 426.74,-638.04"/>
<text text-anchor="start" x="390.74" y="-622.84" font-family="arial" font-size="14.00"> A</text>
<text text-anchor="start" x="375.74" y="-607.84" font-family="arial" font-size="14.00">Moore </text>
</g>
<!-- BAVIUS -->
<g id="node4" class="node">
<title>BAVIUS</title>
<polygon fill="none" stroke="black" points="534.21,-624.36 469.21,-624.36 469.21,-588.36 534.21,-588.36 534.21,-624.36"/>
<text text-anchor="start" x="477.21" y="-602.66" font-family="arial" font-size="14.00"> Bavius </text>
</g>
<!-- BB -->
<g id="node5" class="node">
<title>BB</title>
<polygon fill="none" stroke="black" points="154.67,-298.15 100.67,-298.15 100.67,-262.15 154.67,-262.15 154.67,-298.15"/>
<text text-anchor="start" x="110.67" y="-276.45" font-family="arial" font-size="14.00"> B.B. </text>
</g>
<!-- BERNARD_LINTOT -->
<g id="node6" class="node">
<title>BERNARD_LINTOT</title>
<polygon fill="none" stroke="black" points="68,-342.55 0,-342.55 0,-304.55 68,-304.55 68,-342.55"/>
<text text-anchor="start" x="8" y="-327.35" font-family="arial" font-size="14.00"> Bernard</text>
<text text-anchor="start" x="15.5" y="-312.35" font-family="arial" font-size="14.00">Lintot </text>
</g>
<!-- CHARLES_GILDON -->
<g id="node7" class="node">
<title>CHARLES_GILDON</title>
<polygon fill="none" stroke="black" points="263.05,-349.01 196.05,-349.01 196.05,-311.01 263.05,-311.01 263.05,-349.01"/>
<text text-anchor="start" x="204.05" y="-333.81" font-family="arial" font-size="14.00"> Charles</text>
<text text-anchor="start" x="207.55" y="-318.81" font-family="arial" font-size="14.00">Gildon </text>
</g>
<!-- COLLEY_CIBBER -->
<g id="node8" class="node">
<title>COLLEY_CIBBER</title>
<polygon fill="none" stroke="black" points="119.69,-436.29 59.69,-436.29 59.69,-398.29 119.69,-398.29 119.69,-436.29"/>
<text text-anchor="start" x="68.69" y="-421.09" font-family="arial" font-size="14.00"> Colley</text>
<text text-anchor="start" x="67.69" y="-406.09" font-family="arial" font-size="14.00">Cibber </text>
</g>
<!-- EDMUND_CURLL -->
<g id="node9" class="node">
<title>EDMUND_CURLL</title>
<polygon fill="none" stroke="black" points="524.98,-294.03 453.98,-294.03 453.98,-256.03 524.98,-256.03 524.98,-294.03"/>
<text text-anchor="start" x="461.98" y="-278.83" font-family="arial" font-size="14.00"> Edmund</text>
<text text-anchor="start" x="473.48" y="-263.83" font-family="arial" font-size="14.00">Curll </text>
</g>
<!-- ELKANAH_SETTLE -->
<g id="node10" class="node">
<title>ELKANAH_SETTLE</title>
<polygon fill="none" stroke="black" points="655.43,-286.26 586.43,-286.26 586.43,-248.26 655.43,-248.26 655.43,-286.26"/>
<text text-anchor="start" x="594.43" y="-271.06" font-family="arial" font-size="14.00"> Elkanah</text>
<text text-anchor="start" x="601.43" y="-256.06" font-family="arial" font-size="14.00">Settle </text>
</g>
<!-- GEORGE_DUCKET -->
<g id="node11" class="node">
<title>GEORGE_DUCKET</title>
<polygon fill="none" stroke="black" points="561,-175.78 495,-175.78 495,-137.78 561,-137.78 561,-175.78"/>
<text text-anchor="start" x="503" y="-160.58" font-family="arial" font-size="14.00"> George</text>
<text text-anchor="start" x="505" y="-145.58" font-family="arial" font-size="14.00">Ducket </text>
</g>
<!-- GEORGE_DUCKETT -->
<g id="node12" class="node">
<title>GEORGE_DUCKETT</title>
<polygon fill="none" stroke="black" points="665.82,-180.45 599.82,-180.45 599.82,-142.45 665.82,-142.45 665.82,-180.45"/>
<text text-anchor="start" x="607.82" y="-165.25" font-family="arial" font-size="14.00"> George</text>
<text text-anchor="start" x="607.82" y="-150.25" font-family="arial" font-size="14.00">Duckett </text>
</g>
<!-- GILES_JACOB -->
<g id="node13" class="node">
<title>GILES_JACOB</title>
<polygon fill="none" stroke="black" points="266.25,-71.06 210.25,-71.06 210.25,-33.06 266.25,-33.06 266.25,-71.06"/>
<text text-anchor="start" x="220.25" y="-55.86" font-family="arial" font-size="14.00"> Giles</text>
<text text-anchor="start" x="218.25" y="-40.86" font-family="arial" font-size="14.00">Jacob </text>
</g>
<!-- HILKIAH_BEDFORD -->
<g id="node14" class="node">
<title>HILKIAH_BEDFORD</title>
<polygon fill="none" stroke="black" points="288.4,-219.08 220.4,-219.08 220.4,-181.08 288.4,-181.08 288.4,-219.08"/>
<text text-anchor="start" x="231.9" y="-203.88" font-family="arial" font-size="14.00"> Hilkiah</text>
<text text-anchor="start" x="228.4" y="-188.88" font-family="arial" font-size="14.00">Bedford </text>
</g>
<!-- JEREMY_COLLIER -->
<g id="node15" class="node">
<title>JEREMY_COLLIER</title>
<polygon fill="none" stroke="black" points="131.64,-204.37 66.64,-204.37 66.64,-166.37 131.64,-166.37 131.64,-204.37"/>
<text text-anchor="start" x="74.64" y="-189.17" font-family="arial" font-size="14.00"> Jeremy</text>
<text text-anchor="start" x="77.64" y="-174.17" font-family="arial" font-size="14.00">Collier </text>
</g>
<!-- JOHN_ANSTIS -->
<g id="node16" class="node">
<title>JOHN_ANSTIS</title>
<polygon fill="none" stroke="black" points="181.22,-122.03 124.22,-122.03 124.22,-84.03 181.22,-84.03 181.22,-122.03"/>
<text text-anchor="start" x="135.72" y="-106.83" font-family="arial" font-size="14.00"> John</text>
<text text-anchor="start" x="132.22" y="-91.83" font-family="arial" font-size="14.00">Anstis </text>
</g>
<!-- JOHN_DENNIS -->
<g id="node17" class="node">
<title>JOHN_DENNIS</title>
<polygon fill="none" stroke="black" points="387.5,-347.51 325.5,-347.51 325.5,-309.51 387.5,-309.51 387.5,-347.51"/>
<text text-anchor="start" x="339.5" y="-332.31" font-family="arial" font-size="14.00"> John</text>
<text text-anchor="start" x="333.5" y="-317.31" font-family="arial" font-size="14.00">Dennis </text>
</g>
<!-- JOHN_DENNIS&#45;&gt;ALEXANDER_POPE -->
<g id="edge1" class="edge">
<title>JOHN_DENNIS&#45;&gt;ALEXANDER_POPE</title>
<path fill="none" stroke="red" d="M352.53,-347.8C346.84,-375.42 336.32,-426.45 329.64,-458.86"/>
<polygon fill="red" stroke="red" points="326.13,-458.57 327.53,-469.07 332.98,-459.98 326.13,-458.57"/>
</g>
<!-- JOHN_DENNIS&#45;&gt;A_BOYER -->
<g id="edge2" class="edge">
<title>JOHN_DENNIS&#45;&gt;A_BOYER</title>
<path fill="none" stroke="red" d="M366.6,-347.8C379.96,-373.31 403.6,-418.46 418.97,-447.81"/>
<polygon fill="red" stroke="red" points="415.9,-449.51 423.64,-456.74 422.1,-446.26 415.9,-449.51"/>
</g>
<!-- JOHN_DENNIS&#45;&gt;A_MOORE -->
<g id="edge3" class="edge">
<title>JOHN_DENNIS&#45;&gt;A_MOORE</title>
<path fill="none" stroke="green" d="M359.18,-347.58C366.12,-397.13 384.79,-530.28 393.13,-589.7"/>
<polygon fill="green" stroke="green" points="389.7,-590.49 394.56,-599.9 396.63,-589.51 389.7,-590.49"/>
</g>
<!-- JOHN_DENNIS&#45;&gt;BAVIUS -->
<g id="edge4" class="edge">
<title>JOHN_DENNIS&#45;&gt;BAVIUS</title>
<path fill="none" stroke="blue" d="M366.48,-347.61C391.74,-395.94 458.27,-523.23 487.54,-579.24"/>
<polygon fill="blue" stroke="blue" points="484.5,-580.98 492.23,-588.22 490.7,-577.74 484.5,-580.98"/>
</g>
<!-- JOHN_DENNIS&#45;&gt;BB -->
<g id="edge5" class="edge">
<title>JOHN_DENNIS&#45;&gt;BB</title>
<path fill="none" stroke="green" d="M325.17,-321.89C283.26,-313.03 209.1,-297.36 164.56,-287.94"/>
<polygon fill="green" stroke="green" points="165.22,-284.51 154.72,-285.86 163.78,-291.36 165.22,-284.51"/>
</g>
<!-- JOHN_DENNIS&#45;&gt;BERNARD_LINTOT -->
<g id="edge6" class="edge">
<title>JOHN_DENNIS&#45;&gt;BERNARD_LINTOT</title>
<path fill="none" stroke="green" d="M325.29,-328.03C267.67,-327.15 144.46,-325.25 78.25,-324.23"/>
<polygon fill="green" stroke="green" points="78.18,-320.73 68.13,-324.07 78.08,-327.73 78.18,-320.73"/>
</g>
<!-- JOHN_DENNIS&#45;&gt;CHARLES_GILDON -->
<g id="edge7" class="edge">
<title>JOHN_DENNIS&#45;&gt;CHARLES_GILDON</title>
<path fill="none" stroke="green" d="M325.45,-328.88C309.88,-329.06 290.77,-329.29 273.71,-329.49"/>
<polygon fill="green" stroke="green" points="273.36,-325.99 263.4,-329.61 273.45,-332.99 273.36,-325.99"/>
</g>
<!-- JOHN_DENNIS&#45;&gt;COLLEY_CIBBER -->
<g id="edge8" class="edge">
<title>JOHN_DENNIS&#45;&gt;COLLEY_CIBBER</title>
<path fill="none" stroke="green" d="M325.37,-338.87C276.82,-355.03 183.08,-386.22 129.61,-404.01"/>
<polygon fill="green" stroke="green" points="128.19,-400.79 119.8,-407.27 130.4,-407.44 128.19,-400.79"/>
</g>
<!-- JOHN_DENNIS&#45;&gt;EDMUND_CURLL -->
<g id="edge9" class="edge">
<title>JOHN_DENNIS&#45;&gt;EDMUND_CURLL</title>
<path fill="none" stroke="green" d="M387.68,-315.97C404.55,-309.19 425.68,-300.69 444.32,-293.19"/>
<polygon fill="green" stroke="green" points="445.83,-296.36 453.8,-289.38 443.22,-289.87 445.83,-296.36"/>
</g>
<!-- JOHN_DENNIS&#45;&gt;ELKANAH_SETTLE -->
<g id="edge10" class="edge">
<title>JOHN_DENNIS&#45;&gt;ELKANAH_SETTLE</title>
<path fill="none" stroke="green" d="M387.61,-321.31C434.3,-310.49 522.7,-290.02 576.27,-277.61"/>
<polygon fill="green" stroke="green" points="577.22,-280.98 586.17,-275.31 575.64,-274.16 577.22,-280.98"/>
</g>
<!-- JOHN_DENNIS&#45;&gt;GEORGE_DUCKET -->
<g id="edge11" class="edge">
<title>JOHN_DENNIS&#45;&gt;GEORGE_DUCKET</title>
<path fill="none" stroke="blue" d="M375.51,-309.48C406.16,-278.79 466.57,-218.29 501.45,-183.36"/>
<polygon fill="blue" stroke="blue" points="504.32,-185.45 508.9,-175.9 499.36,-180.5 504.32,-185.45"/>
</g>
<!-- JOHN_DENNIS&#45;&gt;GEORGE_DUCKETT -->
<g id="edge12" class="edge">
<title>JOHN_DENNIS&#45;&gt;GEORGE_DUCKETT</title>
<path fill="none" stroke="green" d="M387.66,-309.67C437.93,-279.28 536.9,-219.44 592.49,-185.84"/>
<polygon fill="green" stroke="green" points="594.6,-188.65 601.35,-180.48 590.98,-182.66 594.6,-188.65"/>
</g>
<!-- JOHN_DENNIS&#45;&gt;GILES_JACOB -->
<g id="edge13" class="edge">
<title>JOHN_DENNIS&#45;&gt;GILES_JACOB</title>
<path fill="none" stroke="green" d="M348.38,-309.51C328,-261.87 274.63,-137.11 250.46,-80.6"/>
<polygon fill="green" stroke="green" points="253.59,-79.01 246.44,-71.2 247.15,-81.77 253.59,-79.01"/>
</g>
<!-- JOHN_DENNIS&#45;&gt;HILKIAH_BEDFORD -->
<g id="edge14" class="edge">
<title>JOHN_DENNIS&#45;&gt;HILKIAH_BEDFORD</title>
<path fill="none" stroke="red" d="M341.22,-309.29C323.92,-287.53 295.62,-251.94 276.06,-227.33"/>
<polygon fill="red" stroke="red" points="278.75,-225.09 269.79,-219.44 273.27,-229.45 278.75,-225.09"/>
</g>
<!-- JOHN_DENNIS&#45;&gt;JEREMY_COLLIER -->
<g id="edge15" class="edge">
<title>JOHN_DENNIS&#45;&gt;JEREMY_COLLIER</title>
<path fill="none" stroke="red" d="M325.46,-311.25C279.3,-285.57 192.48,-237.28 140.82,-208.56"/>
<polygon fill="red" stroke="red" points="142.36,-205.4 131.92,-203.6 138.95,-211.52 142.36,-205.4"/>
</g>
<!-- JOHN_DENNIS&#45;&gt;JOHN_ANSTIS -->
<g id="edge16" class="edge">
<title>JOHN_DENNIS&#45;&gt;JOHN_ANSTIS</title>
<path fill="none" stroke="green" d="M339.13,-309.29C302.73,-269.02 218.43,-175.73 176.83,-129.7"/>
<polygon fill="green" stroke="green" points="179.36,-127.28 170.05,-122.21 174.16,-131.98 179.36,-127.28"/>
</g>
<!-- JOHN_DRYDEN -->
<g id="node18" class="node">
<title>JOHN_DRYDEN</title>
<polygon fill="none" stroke="black" points="430.86,-203.23 366.86,-203.23 366.86,-165.23 430.86,-165.23 430.86,-203.23"/>
<text text-anchor="start" x="381.86" y="-188.03" font-family="arial" font-size="14.00"> John</text>
<text text-anchor="start" x="374.86" y="-173.03" font-family="arial" font-size="14.00">Dryden </text>
</g>
<!-- JOHN_DENNIS&#45;&gt;JOHN_DRYDEN -->
<g id="edge17" class="edge">
<title>JOHN_DENNIS&#45;&gt;JOHN_DRYDEN</title>
<path fill="none" stroke="red" d="M362.13,-309.35C369.34,-284.78 381.92,-241.91 390.32,-213.31"/>
<polygon fill="red" stroke="red" points="393.75,-214.05 393.21,-203.47 387.03,-212.08 393.75,-214.05"/>
</g>
<!-- JOHN_GAY -->
<g id="node19" class="node">
<title>JOHN_GAY</title>
<polygon fill="none" stroke="black" points="425.7,-38 371.7,-38 371.7,0 425.7,0 425.7,-38"/>
<text text-anchor="start" x="381.7" y="-22.8" font-family="arial" font-size="14.00"> John</text>
<text text-anchor="start" x="383.7" y="-7.8" font-family="arial" font-size="14.00">Gay </text>
</g>
<!-- JOHN_DENNIS&#45;&gt;JOHN_GAY -->
<g id="edge18" class="edge">
<title>JOHN_DENNIS&#45;&gt;JOHN_GAY</title>
<path fill="none" stroke="red" d="M359.14,-309.15C366.31,-256.61 386.14,-111.08 394.69,-48.37"/>
<polygon fill="red" stroke="red" points="398.18,-48.74 396.06,-38.35 391.24,-47.79 398.18,-48.74"/>
</g>
<!-- JOHN_OLDMIXON -->
<g id="node20" class="node">
<title>JOHN_OLDMIXON</title>
<polygon fill="none" stroke="black" points="368.46,-111.09 289.46,-111.09 289.46,-73.09 368.46,-73.09 368.46,-111.09"/>
<text text-anchor="start" x="311.96" y="-95.89" font-family="arial" font-size="14.00"> John</text>
<text text-anchor="start" x="297.46" y="-80.89" font-family="arial" font-size="14.00">Oldmixon </text>
</g>
<!-- JOHN_DENNIS&#45;&gt;JOHN_OLDMIXON -->
<g id="edge19" class="edge">
<title>JOHN_DENNIS&#45;&gt;JOHN_OLDMIXON</title>
<path fill="none" stroke="green" d="M354.25,-309.17C349.43,-267.76 338.08,-170.35 332.37,-121.34"/>
<polygon fill="green" stroke="green" points="335.84,-120.9 331.21,-111.38 328.89,-121.71 335.84,-120.9"/>
</g>
<!-- LEONARD_WELSTED -->
<g id="node21" class="node">
<title>LEONARD_WELSTED</title>
<polygon fill="none" stroke="black" points="539.12,-76.75 469.12,-76.75 469.12,-38.75 539.12,-38.75 539.12,-76.75"/>
<text text-anchor="start" x="477.12" y="-61.55" font-family="arial" font-size="14.00"> Leonard</text>
<text text-anchor="start" x="477.62" y="-46.55" font-family="arial" font-size="14.00">Welsted </text>
</g>
<!-- JOHN_DENNIS&#45;&gt;LEONARD_WELSTED -->
<g id="edge20" class="edge">
<title>JOHN_DENNIS&#45;&gt;LEONARD_WELSTED</title>
<path fill="none" stroke="green" d="M371.46,-309.11C401.42,-261.98 467.23,-141.52 493.39,-86.23"/>
<polygon fill="green" stroke="green" points="496.63,-87.55 497.65,-77 490.28,-84.61 496.63,-87.55"/>
</g>
<!-- JOHN_DENNIS&#45;&gt;LEONARD_WELSTED -->
<g id="edge21" class="edge">
<title>JOHN_DENNIS&#45;&gt;LEONARD_WELSTED</title>
<path fill="none" stroke="blue" d="M362.87,-309.48C384.02,-262.35 450.21,-140.32 484.07,-85.31"/>
<polygon fill="blue" stroke="blue" points="487.07,-87.11 489.41,-76.77 481.14,-83.39 487.07,-87.11"/>
</g>
<!-- LEWIS_THEOBALD -->
<g id="node22" class="node">
<title>LEWIS_THEOBALD</title>
<polygon fill="none" stroke="black" points="587.82,-535.06 510.82,-535.06 510.82,-497.06 587.82,-497.06 587.82,-535.06"/>
<text text-anchor="start" x="529.82" y="-519.86" font-family="arial" font-size="14.00"> Lewis</text>
<text text-anchor="start" x="518.82" y="-504.86" font-family="arial" font-size="14.00">Theobald </text>
</g>
<!-- JOHN_DENNIS&#45;&gt;LEWIS_THEOBALD -->
<g id="edge22" class="edge">
<title>JOHN_DENNIS&#45;&gt;LEWIS_THEOBALD</title>
<path fill="none" stroke="green" d="M376.05,-347.53C410.7,-381.23 482.93,-451.48 522.31,-489.78"/>
<polygon fill="green" stroke="green" points="520.11,-492.53 529.72,-496.99 524.99,-487.51 520.11,-492.53"/>
</g>
<!-- MATTHEW_CONCANEN -->
<g id="node23" class="node">
<title>MATTHEW_CONCANEN</title>
<polygon fill="none" stroke="black" points="689.49,-381.84 607.49,-381.84 607.49,-343.84 689.49,-343.84 689.49,-381.84"/>
<text text-anchor="start" x="620.49" y="-366.64" font-family="arial" font-size="14.00"> Matthew</text>
<text text-anchor="start" x="615.49" y="-351.64" font-family="arial" font-size="14.00">Concanen </text>
</g>
<!-- JOHN_DENNIS&#45;&gt;MATTHEW_CONCANEN -->
<g id="edge23" class="edge">
<title>JOHN_DENNIS&#45;&gt;MATTHEW_CONCANEN</title>
<path fill="none" stroke="green" d="M387.75,-332.19C437.82,-338.07 536.52,-349.68 597.08,-356.8"/>
<polygon fill="green" stroke="green" points="596.86,-360.3 607.2,-357.99 597.67,-353.34 596.86,-360.3"/>
</g>
<!-- RICHARD_BLACKMORE -->
<g id="node24" class="node">
<title>RICHARD_BLACKMORE</title>
<polygon fill="none" stroke="black" points="562.23,-406.58 477.23,-406.58 477.23,-368.58 562.23,-368.58 562.23,-406.58"/>
<text text-anchor="start" x="494.23" y="-391.38" font-family="arial" font-size="14.00"> Richard</text>
<text text-anchor="start" x="485.23" y="-376.38" font-family="arial" font-size="14.00">Blackmore </text>
</g>
<!-- JOHN_DENNIS&#45;&gt;RICHARD_BLACKMORE -->
<g id="edge24" class="edge">
<title>JOHN_DENNIS&#45;&gt;RICHARD_BLACKMORE</title>
<path fill="none" stroke="green" d="M387.59,-339.76C410.16,-347.93 441.23,-359.18 467.58,-368.71"/>
<polygon fill="green" stroke="green" points="466.45,-372.03 477.04,-372.14 468.83,-365.44 466.45,-372.03"/>
</g>
<!-- S_POPPING -->
<g id="node25" class="node">
<title>S_POPPING</title>
<polygon fill="none" stroke="black" points="674.3,-487.68 604.3,-487.68 604.3,-449.68 674.3,-449.68 674.3,-487.68"/>
<text text-anchor="start" x="632.8" y="-472.48" font-family="arial" font-size="14.00"> S</text>
<text text-anchor="start" x="612.3" y="-457.48" font-family="arial" font-size="14.00">Popping </text>
</g>
<!-- JOHN_DENNIS&#45;&gt;S_POPPING -->
<g id="edge25" class="edge">
<title>JOHN_DENNIS&#45;&gt;S_POPPING</title>
<path fill="none" stroke="green" d="M387.58,-343.92C437.86,-368.84 537.26,-418.11 594.97,-446.71"/>
<polygon fill="green" stroke="green" points="593.69,-449.98 604.2,-451.29 596.79,-443.71 593.69,-449.98"/>
</g>
<!-- THOMAS_COOKE -->
<g id="node26" class="node">
<title>THOMAS_COOKE</title>
<polygon fill="none" stroke="black" points="152.29,-538.22 82.29,-538.22 82.29,-500.22 152.29,-500.22 152.29,-538.22"/>
<text text-anchor="start" x="90.29" y="-523.02" font-family="arial" font-size="14.00"> Thomas</text>
<text text-anchor="start" x="95.79" y="-508.02" font-family="arial" font-size="14.00">Cooke </text>
</g>
<!-- JOHN_DENNIS&#45;&gt;THOMAS_COOKE -->
<g id="edge26" class="edge">
<title>JOHN_DENNIS&#45;&gt;THOMAS_COOKE</title>
<path fill="none" stroke="green" d="M332.25,-347.85C288.8,-382.49 197.69,-455.12 149.22,-493.76"/>
<polygon fill="green" stroke="green" points="146.89,-491.14 141.25,-500.11 151.26,-496.62 146.89,-491.14"/>
</g>
<!-- THOMAS_RYMER -->
<g id="node27" class="node">
<title>THOMAS_RYMER</title>
<polygon fill="none" stroke="black" points="251.38,-467.14 181.38,-467.14 181.38,-429.14 251.38,-429.14 251.38,-467.14"/>
<text text-anchor="start" x="189.38" y="-451.94" font-family="arial" font-size="14.00"> Thomas</text>
<text text-anchor="start" x="193.88" y="-436.94" font-family="arial" font-size="14.00">Rymer </text>
</g>
<!-- JOHN_DENNIS&#45;&gt;THOMAS_RYMER -->
<g id="edge27" class="edge">
<title>JOHN_DENNIS&#45;&gt;THOMAS_RYMER</title>
<path fill="none" stroke="green" d="M333.99,-347.73C310.29,-367.97 272.85,-399.93 246.6,-422.34"/>
<polygon fill="green" stroke="green" points="244.17,-419.82 238.83,-428.97 248.71,-425.14 244.17,-419.82"/>
</g>
<!-- TOM_DÍURFEY -->
<g id="node28" class="node">
<title>TOM_DÍURFEY</title>
<polygon fill="none" stroke="black" points="330.36,-632.88 264.36,-632.88 264.36,-594.88 330.36,-594.88 330.36,-632.88"/>
<text text-anchor="start" x="281.86" y="-617.68" font-family="arial" font-size="14.00"> Tom</text>
<text text-anchor="start" x="272.36" y="-602.68" font-family="arial" font-size="14.00">DíUrfey </text>
</g>
<!-- JOHN_DENNIS&#45;&gt;TOM_DÍURFEY -->
<g id="edge28" class="edge">
<title>JOHN_DENNIS&#45;&gt;TOM_DÍURFEY</title>
<path fill="none" stroke="green" d="M352.53,-347.68C342.39,-396.62 315.48,-526.44 303.39,-584.77"/>
<polygon fill="green" stroke="green" points="299.91,-584.3 301.31,-594.8 306.77,-585.72 299.91,-584.3"/>
</g>
<!-- WILLIAM_LAW -->
<g id="node29" class="node">
<title>WILLIAM_LAW</title>
<polygon fill="none" stroke="black" points="232.58,-605.42 167.58,-605.42 167.58,-567.42 232.58,-567.42 232.58,-605.42"/>
<text text-anchor="start" x="175.58" y="-590.22" font-family="arial" font-size="14.00"> William</text>
<text text-anchor="start" x="185.58" y="-575.22" font-family="arial" font-size="14.00">Law </text>
</g>
<!-- JOHN_DENNIS&#45;&gt;WILLIAM_LAW -->
<g id="edge29" class="edge">
<title>JOHN_DENNIS&#45;&gt;WILLIAM_LAW</title>
<path fill="none" stroke="red" d="M344.75,-347.9C317.33,-393.1 249.08,-505.63 217.11,-558.34"/>
<polygon fill="red" stroke="red" points="213.95,-556.8 211.76,-567.16 219.94,-560.43 213.95,-556.8"/>
</g>
</g>
</svg>
